solid Pet Feeder
facet normal 7.191695616946647e-05 0.966460181550232 -0.2568164953928084
  outer loop
    vertex 131.44308859160063 1106.1283711459 33.300000000003664
    vertex 152.36511228272002 1098.1283711459018 3.2000000000083753
    vertex 131.44308859159935 1098.1283711459025 3.2000000000063307
  endloop
endfacet
facet normal 7.191695616946647e-05 0.966460181550232 -0.2568164953928084
  outer loop
    vertex 152.36511228272002 1098.1283711459018 3.2000000000083753
    vertex 131.44308859160063 1106.1283711459 33.300000000003664
    vertex 152.36511228272002 1106.1283711459 33.31171769171925
  endloop
endfacet
facet normal -0.7831685587412279 0.6009463712590649 -0.15971996578308525
  outer loop
    vertex 128.84501238024666 1104.628371145901 33.30000000000345
    vertex 129.32176824803886 1098.1283711459014 6.506032207361116
    vertex 128.84501238024515 1098.128371145901 8.843750000003558
  endloop
endfacet
facet normal -0.7831685587412279 0.6009463712590649 -0.15971996578308525
  outer loop
    vertex 129.32176824803886 1098.1283711459014 6.506032207361116
    vertex 128.84501238024666 1104.628371145901 33.30000000000345
    vertex 129.32176824804063 1105.2496914894605 33.30000000000347
  endloop
endfacet
facet normal -0.3716433848939276 0.8972265001779689 -0.23846551499740412
  outer loop
    vertex 129.9430885915986 1098.1283711459018 4.712238254786934
    vertex 130.66663145629303 1106.0261486247675 33.300000000003585
    vertex 130.66663145629138 1098.1283711459018 3.584612235766032
  endloop
endfacet
facet normal -0.3716433848939276 0.8972265001779689 -0.23846551499740412
  outer loop
    vertex 130.66663145629303 1106.0261486247675 33.300000000003585
    vertex 129.9430885915986 1098.1283711459018 4.712238254786934
    vertex 129.94308859160046 1105.7264473572538 33.300000000003514
  endloop
endfacet
facet normal -0.5956635028637358 0.7762837906076204 -0.20632127325113295
  outer loop
    vertex 129.32176824803886 1098.1283711459014 6.506032207361116
    vertex 129.94308859160046 1105.7264473572538 33.300000000003514
    vertex 129.9430885915986 1098.1283711459018 4.712238254786934
  endloop
endfacet
facet normal -0.5956635028637358 0.7762837906076204 -0.20632127325113295
  outer loop
    vertex 129.94308859160046 1105.7264473572538 33.300000000003514
    vertex 129.32176824803886 1098.1283711459014 6.506032207361116
    vertex 129.32176824804063 1105.2496914894605 33.30000000000347
  endloop
endfacet
facet normal 0.9191412330494032 0.38072076446540526 -0.10114886659424425
  outer loop
    vertex 154.96318849407336 1096.6283711459018 3.2000000000083357
    vertex 155.26288976158722 1103.9048282812075 33.31171769171964
    vertex 155.26288976158727 1095.9048282812096 3.20000000000822
  endloop
endfacet
facet normal 0.9191412330494032 0.38072076446540526 -0.10114886659424425
  outer loop
    vertex 155.26288976158722 1103.9048282812075 33.31171769171964
    vertex 154.96318849407336 1096.6283711459018 3.2000000000083357
    vertex 154.96318849407336 1104.6283711459 33.31171769171958
  endloop
endfacet
facet normal 0.9908492659654408 0.1304477805982008 -0.03465701476975607
  outer loop
    vertex 155.26288976158727 1095.9048282812096 3.20000000000822
    vertex 155.36511228272005 1103.1283711458998 33.31171769171968
    vertex 155.36511228272192 1095.1283711459025 3.2000000000080675
  endloop
endfacet
facet normal 0.9908492659654408 0.1304477805982008 -0.03465701476975607
  outer loop
    vertex 155.36511228272005 1103.1283711458998 33.31171769171968
    vertex 155.26288976158727 1095.9048282812096 3.20000000000822
    vertex 155.26288976158722 1103.9048282812075 33.31171769171964
  endloop
endfacet
facet normal 1.0 -5.732147377793178e-15 6.295739123828086e-14
  outer loop
    vertex 155.36511228272192 1095.1283711459025 3.2000000000080675
    vertex 155.36511228272096 1097.4283711459022 15.950000000007517
    vertex 155.36511228272096 1095.8283711459023 15.950000000007517
  endloop
endfacet
facet normal 1.0 -5.732147377793178e-15 6.295739123828086e-14
  outer loop
    vertex 155.36511228272096 1097.4283711459022 15.950000000007517
    vertex 155.36511228272192 1095.1283711459025 3.2000000000080675
    vertex 155.36511228272005 1103.1283711458998 33.31171769171968
  endloop
endfacet
facet normal 1.0 -5.732147377793178e-15 6.295739123828086e-14
  outer loop
    vertex 155.36511228272096 1097.4283711459022 15.950000000007517
    vertex 155.36511228272005 1103.1283711458998 33.31171769171968
    vertex 155.36511228272096 1097.4283711459022 20.55000000000752
  endloop
endfacet
facet normal 1.0 -5.732147377793178e-15 6.295739123828086e-14
  outer loop
    vertex 155.36511228272002 1095.128371145902 33.30000000000697
    vertex 155.36511228272096 1095.8283711459023 20.55000000000752
    vertex 155.36511228272005 1103.1283711458998 33.31171769171968
  endloop
endfacet
facet normal 1.0 -5.732147377793178e-15 6.295739123828086e-14
  outer loop
    vertex 155.36511228272096 1095.8283711459023 20.55000000000752
    vertex 155.36511228272002 1095.128371145902 33.30000000000697
    vertex 155.36511228272192 1095.1283711459025 3.2000000000080675
  endloop
endfacet
facet normal 1.0 -5.732147377793178e-15 6.295739123828086e-14
  outer loop
    vertex 155.36511228272096 1095.8283711459023 20.55000000000752
    vertex 155.36511228272192 1095.1283711459025 3.2000000000080675
    vertex 155.36511228272096 1095.8283711459023 15.950000000007517
  endloop
endfacet
facet normal 1.0 -5.732147377793178e-15 6.295739123828086e-14
  outer loop
    vertex 155.36511228272005 1103.1283711458998 33.31171769171968
    vertex 155.36511228272096 1095.8283711459023 20.55000000000752
    vertex 155.36511228272096 1097.4283711459022 20.55000000000752
  endloop
endfacet
facet normal 0.7831763319827689 0.6009523358768036 -0.15965939692429432
  outer loop
    vertex 154.4864326262797 1097.2496914894614 3.2000000000084143
    vertex 154.96318849407336 1104.6283711459 33.31171769171958
    vertex 154.96318849407336 1096.6283711459018 3.2000000000083357
  endloop
endfacet
facet normal 0.7831763319827689 0.6009523358768036 -0.15965939692429432
  outer loop
    vertex 154.96318849407336 1104.6283711459 33.31171769171958
    vertex 154.4864326262797 1097.2496914894614 3.2000000000084143
    vertex 154.48643262627968 1105.2496914894596 33.31171769171951
  endloop
endfacet
facet normal 0.595673368425791 0.7762966476581643 -0.20624440109483702
  outer loop
    vertex 153.86511228272005 1097.7264473572552 3.2000000000084485
    vertex 154.48643262627968 1105.2496914894596 33.31171769171951
    vertex 154.4864326262797 1097.2496914894614 3.2000000000084143
  endloop
endfacet
facet normal 0.595673368425791 0.7762966476581643 -0.20624440109483702
  outer loop
    vertex 154.48643262627968 1105.2496914894596 33.31171769171951
    vertex 153.86511228272005 1097.7264473572552 3.2000000000084485
    vertex 153.86511228272005 1105.7264473572532 33.311717691719416
  endloop
endfacet
facet normal 0.3716516075860607 0.897246351512084 -0.23837799243418115
  outer loop
    vertex 153.1415694180276 1106.026148624767 33.31171769171934
    vertex 153.86511228272005 1097.7264473572552 3.2000000000084485
    vertex 153.14156941802761 1098.0261486247691 3.2000000000084343
  endloop
endfacet
facet normal 0.3716516075860607 0.897246351512084 -0.23837799243418115
  outer loop
    vertex 153.86511228272005 1097.7264473572552 3.2000000000084485
    vertex 153.1415694180276 1106.026148624767 33.31171769171934
    vertex 153.86511228272005 1105.7264473572532 33.311717691719416
  endloop
endfacet
facet normal 0.1262208960107652 0.9587428899850755 -0.25471622703177965
  outer loop
    vertex 152.36511228272002 1106.1283711459 33.31171769171925
    vertex 153.14156941802761 1098.0261486247691 3.2000000000084343
    vertex 152.36511228272002 1098.1283711459018 3.2000000000083753
  endloop
endfacet
facet normal 0.1262208960107652 0.9587428899850755 -0.25471622703177965
  outer loop
    vertex 153.14156941802761 1098.0261486247691 3.2000000000084343
    vertex 152.36511228272002 1106.1283711459 33.31171769171925
    vertex 153.1415694180276 1106.026148624767 33.31171769171934
  endloop
endfacet
facet normal 1.0407270468749775e-13 1.7919182583416357e-13 -1.0
  outer loop
    vertex 91.78511228271755 1098.1283711459025 3.2000000000018582
    vertex 131.44308859159935 1095.1283711459007 3.2000000000056454
    vertex 91.78511228271752 1095.1283711459027 3.2000000000016326
  endloop
endfacet
facet normal 1.0407270468749775e-13 1.7919182583416357e-13 -1.0
  outer loop
    vertex 131.44308859159935 1095.1283711459007 3.2000000000056454
    vertex 91.78511228271755 1098.1283711459025 3.2000000000018582
    vertex 131.44308859159935 1098.1283711459025 3.2000000000063307
  endloop
endfacet
facet normal 1.0407270468749775e-13 1.7919182583416357e-13 -1.0
  outer loop
    vertex 131.44308859159935 1095.1283711459007 3.2000000000056454
    vertex 131.44308859159935 1098.1283711459025 3.2000000000063307
    vertex 152.36511228272002 1098.1283711459018 3.2000000000083753
  endloop
endfacet
facet normal 1.0407270468749775e-13 1.7919182583416357e-13 -1.0
  outer loop
    vertex 131.44308859159935 1095.1283711459007 3.2000000000056454
    vertex 152.36511228272002 1098.1283711459018 3.2000000000083753
    vertex 152.36511228272002 1095.1283711459018 3.2000000000077633
  endloop
endfacet
facet normal 1.0407270468749775e-13 1.7919182583416357e-13 -1.0
  outer loop
    vertex 152.36511228272002 1095.1283711459018 3.2000000000077633
    vertex 152.36511228272002 1098.1283711459018 3.2000000000083753
    vertex 153.14156941802761 1098.0261486247691 3.2000000000084343
  endloop
endfacet
facet normal 1.0407270468749775e-13 1.7919182583416357e-13 -1.0
  outer loop
    vertex 152.36511228272002 1095.1283711459018 3.2000000000077633
    vertex 153.14156941802761 1098.0261486247691 3.2000000000084343
    vertex 155.36511228272192 1095.1283711459025 3.2000000000080675
  endloop
endfacet
facet normal 1.0407270468749775e-13 1.7919182583416357e-13 -1.0
  outer loop
    vertex 155.36511228272192 1095.1283711459025 3.2000000000080675
    vertex 153.14156941802761 1098.0261486247691 3.2000000000084343
    vertex 153.86511228272005 1097.7264473572552 3.2000000000084485
  endloop
endfacet
facet normal 1.0407270468749775e-13 1.7919182583416357e-13 -1.0
  outer loop
    vertex 155.36511228272192 1095.1283711459025 3.2000000000080675
    vertex 153.86511228272005 1097.7264473572552 3.2000000000084485
    vertex 154.4864326262797 1097.2496914894614 3.2000000000084143
  endloop
endfacet
facet normal 1.0407270468749775e-13 1.7919182583416357e-13 -1.0
  outer loop
    vertex 155.36511228272192 1095.1283711459025 3.2000000000080675
    vertex 154.4864326262797 1097.2496914894614 3.2000000000084143
    vertex 154.96318849407336 1096.6283711459018 3.2000000000083357
  endloop
endfacet
facet normal 1.0407270468749775e-13 1.7919182583416357e-13 -1.0
  outer loop
    vertex 155.36511228272192 1095.1283711459025 3.2000000000080675
    vertex 154.96318849407336 1096.6283711459018 3.2000000000083357
    vertex 155.26288976158727 1095.9048282812096 3.20000000000822
  endloop
endfacet
facet normal -1.0 7.793302973660869e-28 -4.7967536181552155e-15
  outer loop
    vertex 128.44308859159938 1103.1283711459012 33.30000000000349
    vertex 128.44308859159946 1098.128371145901 14.48750000000524
    vertex 128.44308859159938 1098.1283711458984 33.30000000000268
  endloop
endfacet
facet normal -0.9908488025724395 0.13044771958967466 -0.03467049025636164
  outer loop
    vertex 128.44308859159938 1103.1283711459012 33.30000000000349
    vertex 128.54531111273113 1098.1283711459012 11.566080028410106
    vertex 128.44308859159946 1098.128371145901 14.48750000000524
  endloop
endfacet
facet normal -0.9908488025724395 0.13044771958967466 -0.03467049025636164
  outer loop
    vertex 128.54531111273113 1098.1283711459012 11.566080028410106
    vertex 128.44308859159938 1103.1283711459012 33.30000000000349
    vertex 128.5453111127325 1103.9048282812087 33.30000000000346
  endloop
endfacet
facet normal -0.9191375715260426 0.3807192478131423 -0.1011878399502822
  outer loop
    vertex 128.54531111273113 1098.1283711459012 11.566080028410106
    vertex 128.84501238024666 1104.628371145901 33.30000000000345
    vertex 128.84501238024515 1098.128371145901 8.843750000003558
  endloop
endfacet
facet normal -0.9191375715260426 0.3807192478131423 -0.1011878399502822
  outer loop
    vertex 128.84501238024666 1104.628371145901 33.30000000000345
    vertex 128.54531111273113 1098.1283711459012 11.566080028410106
    vertex 128.5453111127325 1103.9048282812087 33.30000000000346
  endloop
endfacet
facet normal -0.12621770749798059 0.9587186708280504 -0.25480894905723134
  outer loop
    vertex 130.66663145629138 1098.1283711459018 3.584612235766032
    vertex 131.44308859160063 1106.1283711459 33.300000000003664
    vertex 131.44308859159935 1098.1283711459025 3.2000000000063307
  endloop
endfacet
facet normal -0.12621770749798059 0.9587186708280504 -0.25480894905723134
  outer loop
    vertex 131.44308859160063 1106.1283711459 33.300000000003664
    vertex 130.66663145629138 1098.1283711459018 3.584612235766032
    vertex 130.66663145629303 1106.0261486247675 33.300000000003585
  endloop
endfacet
facet normal -0.029654960562104267 -0.003904149623802272 0.99955257036825
  outer loop
    vertex 153.14156941802761 1100.2305936670327 33.31171769171958
    vertex 152.36511228272002 1106.1283711459 33.31171769171925
    vertex 152.36511228272002 1103.1283711458998 33.300000000005355
  endloop
endfacet
facet normal -7.102821191863207e-14 -1.0 -8.684555475693415e-14
  outer loop
    vertex 131.44308859159935 1095.1283711459007 3.2000000000056454
    vertex 124.91141798512106 1095.1283711458984 29.975518716123993
    vertex 123.56511228272046 1095.1283711458987 29.798274207887214
  endloop
endfacet
facet normal -7.102821191863207e-14 -1.0 -8.684555475693415e-14
  outer loop
    vertex 124.91141798512106 1095.1283711458984 29.975518716123993
    vertex 131.44308859159935 1095.1283711459007 3.2000000000056454
    vertex 126.16597517877841 1095.1283711458998 30.495173320509913
  endloop
endfacet
facet normal -7.102821191863207e-14 -1.0 -8.684555475693415e-14
  outer loop
    vertex 126.16597517877841 1095.1283711458998 30.495173320509913
    vertex 131.44308859159935 1095.1283711459007 3.2000000000056454
    vertex 131.44308859159935 1095.1283711458989 33.30000000000427
  endloop
endfacet
facet normal -7.102821191863207e-14 -1.0 -8.684555475693415e-14
  outer loop
    vertex 126.16597517877841 1095.1283711458998 30.495173320509913
    vertex 131.44308859159935 1095.1283711458989 33.30000000000427
    vertex 127.24328786419858 1095.128371145896 31.321824418523757
  endloop
endfacet
facet normal -7.102821191863207e-14 -1.0 -8.684555475693415e-14
  outer loop
    vertex 127.24328786419858 1095.128371145896 31.321824418523757
    vertex 131.44308859159935 1095.1283711458989 33.30000000000427
    vertex 128.06993896221354 1095.1283711458987 32.39913710394482
  endloop
endfacet
facet normal -7.102821191863207e-14 -1.0 -8.684555475693415e-14
  outer loop
    vertex 128.06993896221354 1095.1283711458987 32.39913710394482
    vertex 131.44308859159935 1095.1283711458989 33.30000000000427
    vertex 128.44308859159943 1095.1283711458984 33.300000000003266
  endloop
endfacet
facet normal -7.102821191863207e-14 -1.0 -8.684555475693415e-14
  outer loop
    vertex 131.44308859159935 1095.1283711459007 3.2000000000056454
    vertex 91.78511228271562 1095.1283711459016 33.300000000001745
    vertex 91.78511228271752 1095.1283711459027 3.2000000000016326
  endloop
endfacet
facet normal -7.102821191863207e-14 -1.0 -8.684555475693415e-14
  outer loop
    vertex 91.78511228271562 1095.1283711459016 33.300000000001745
    vertex 131.44308859159935 1095.1283711459007 3.2000000000056454
    vertex 123.56511228272046 1095.1283711458987 29.798274207887214
  endloop
endfacet
facet normal -7.102821191863207e-14 -1.0 -8.684555475693415e-14
  outer loop
    vertex 91.78511228271562 1095.1283711459016 33.300000000001745
    vertex 123.56511228272046 1095.1283711458987 29.798274207887214
    vertex 122.2188065803198 1095.1283711458984 29.975518716123734
  endloop
endfacet
facet normal -7.102821191863207e-14 -1.0 -8.684555475693415e-14
  outer loop
    vertex 91.78511228271562 1095.1283711459016 33.300000000001745
    vertex 122.2188065803198 1095.1283711458984 29.975518716123734
    vertex 120.96424938666237 1095.1283711458998 30.495173320509664
  endloop
endfacet
facet normal -7.102821191863207e-14 -1.0 -8.684555475693415e-14
  outer loop
    vertex 91.78511228271562 1095.1283711459016 33.300000000001745
    vertex 120.96424938666237 1095.1283711458998 30.495173320509664
    vertex 119.8869367012421 1095.1283711458964 31.32182441852367
  endloop
endfacet
facet normal -7.102821191863207e-14 -1.0 -8.684555475693415e-14
  outer loop
    vertex 91.78511228271562 1095.1283711459016 33.300000000001745
    vertex 119.8869367012421 1095.1283711458964 31.32182441852367
    vertex 119.06028560322696 1095.1283711458982 32.39913710394401
  endloop
endfacet
facet normal -7.102821191863207e-14 -1.0 -8.684555475693415e-14
  outer loop
    vertex 91.78511228271562 1095.1283711459016 33.300000000001745
    vertex 119.06028560322696 1095.1283711458982 32.39913710394401
    vertex 118.68713597384094 1095.1283711458987 33.30000000000257
  endloop
endfacet
facet normal -9.519743216794127e-16 -0.9664477734205359 0.25686319559346843
  outer loop
    vertex 152.36511228272002 1095.1283711459018 3.2000000000077633
    vertex 131.44308859159935 1103.1283711458998 33.30000000000384
    vertex 131.44308859159935 1095.1283711459007 3.2000000000056454
  endloop
endfacet
facet normal -9.519743216794127e-16 -0.9664477734205359 0.25686319559346843
  outer loop
    vertex 131.44308859159935 1103.1283711458998 33.30000000000384
    vertex 152.36511228272002 1095.1283711459018 3.2000000000077633
    vertex 152.36511228272002 1103.1283711458998 33.300000000005355
  endloop
endfacet
facet normal -1.016908735342363e-13 4.1058419834047866e-14 1.0
  outer loop
    vertex 153.14156941802761 1100.2305936670327 33.31171769171958
    vertex 153.1415694180276 1106.026148624767 33.31171769171934
    vertex 152.36511228272002 1106.1283711459 33.31171769171925
  endloop
endfacet
facet normal -1.016908735342363e-13 4.1058419834047866e-14 1.0
  outer loop
    vertex 153.1415694180276 1106.026148624767 33.31171769171934
    vertex 153.14156941802761 1100.2305936670327 33.31171769171958
    vertex 153.86511228272005 1105.7264473572532 33.311717691719416
  endloop
endfacet
facet normal -1.016908735342363e-13 4.1058419834047866e-14 1.0
  outer loop
    vertex 153.86511228272005 1105.7264473572532 33.311717691719416
    vertex 153.14156941802761 1100.2305936670327 33.31171769171958
    vertex 153.86511228272005 1100.5302949345466 33.31171769171963
  endloop
endfacet
facet normal -1.016908735342363e-13 4.1058419834047866e-14 1.0
  outer loop
    vertex 153.86511228272005 1105.7264473572532 33.311717691719416
    vertex 153.86511228272005 1100.5302949345466 33.31171769171963
    vertex 154.48643262627968 1101.0070508023402 33.31171769171968
  endloop
endfacet
facet normal -1.016908735342363e-13 4.1058419834047866e-14 1.0
  outer loop
    vertex 153.86511228272005 1105.7264473572532 33.311717691719416
    vertex 154.48643262627968 1101.0070508023402 33.31171769171968
    vertex 154.48643262627968 1105.2496914894596 33.31171769171951
  endloop
endfacet
facet normal -1.016908735342363e-13 4.1058419834047866e-14 1.0
  outer loop
    vertex 154.48643262627968 1105.2496914894596 33.31171769171951
    vertex 154.48643262627968 1101.0070508023402 33.31171769171968
    vertex 154.96318849407336 1101.6283711458998 33.3117176917197
  endloop
endfacet
facet normal -1.016908735342363e-13 4.1058419834047866e-14 1.0
  outer loop
    vertex 154.48643262627968 1105.2496914894596 33.31171769171951
    vertex 154.96318849407336 1101.6283711458998 33.3117176917197
    vertex 154.96318849407336 1104.6283711459 33.31171769171958
  endloop
endfacet
facet normal -1.016908735342363e-13 4.1058419834047866e-14 1.0
  outer loop
    vertex 154.96318849407336 1104.6283711459 33.31171769171958
    vertex 154.96318849407336 1101.6283711458998 33.3117176917197
    vertex 155.26288976158722 1102.3519140105923 33.3117176917197
  endloop
endfacet
facet normal -1.016908735342363e-13 4.1058419834047866e-14 1.0
  outer loop
    vertex 154.96318849407336 1104.6283711459 33.31171769171958
    vertex 155.26288976158722 1102.3519140105923 33.3117176917197
    vertex 155.26288976158722 1103.9048282812075 33.31171769171964
  endloop
endfacet
facet normal -1.016908735342363e-13 4.1058419834047866e-14 1.0
  outer loop
    vertex 155.26288976158722 1103.9048282812075 33.31171769171964
    vertex 155.26288976158722 1102.3519140105923 33.3117176917197
    vertex 155.36511228272005 1103.1283711458998 33.31171769171968
  endloop
endfacet
facet normal -1.0 0.0 0.0
  outer loop
    vertex 152.36511228272002 1100.1283711458998 33.311717691719494
    vertex 152.36511228272002 1095.1283711459018 3.2000000000077633
    vertex 152.36511228272002 1095.1283711459016 33.300000000005994
  endloop
endfacet
facet normal -1.0 0.0 0.0
  outer loop
    vertex 152.36511228272002 1095.1283711459018 3.2000000000077633
    vertex 152.36511228272002 1100.1283711458998 33.311717691719494
    vertex 152.36511228272002 1103.1283711458998 33.300000000005355
  endloop
endfacet
facet normal 1.0 0.0 0.0
  outer loop
    vertex 131.44308859159935 1103.1283711458998 33.30000000000384
    vertex 131.44308859159935 1095.1283711458989 33.30000000000427
    vertex 131.44308859159935 1095.1283711459007 3.2000000000056454
  endloop
endfacet
facet normal -8.629086583316446e-14 1.655013832519836e-15 1.0
  outer loop
    vertex 128.44308859159943 1095.1283711458984 33.300000000003266
    vertex 128.44308859159938 1103.1283711459012 33.30000000000349
    vertex 128.44308859159938 1098.1283711458984 33.30000000000268
  endloop
endfacet
facet normal -8.629086583316446e-14 1.655013832519836e-15 1.0
  outer loop
    vertex 128.44308859159938 1103.1283711459012 33.30000000000349
    vertex 128.44308859159943 1095.1283711458984 33.300000000003266
    vertex 128.5453111127325 1103.9048282812087 33.30000000000346
  endloop
endfacet
facet normal -8.629086583316446e-14 1.655013832519836e-15 1.0
  outer loop
    vertex 128.5453111127325 1103.9048282812087 33.30000000000346
    vertex 128.44308859159943 1095.1283711458984 33.300000000003266
    vertex 131.44308859159935 1095.1283711458989 33.30000000000427
  endloop
endfacet
facet normal -8.629086583316446e-14 1.655013832519836e-15 1.0
  outer loop
    vertex 128.5453111127325 1103.9048282812087 33.30000000000346
    vertex 131.44308859159935 1095.1283711458989 33.30000000000427
    vertex 128.84501238024666 1104.628371145901 33.30000000000345
  endloop
endfacet
facet normal -8.629086583316446e-14 1.655013832519836e-15 1.0
  outer loop
    vertex 128.84501238024666 1104.628371145901 33.30000000000345
    vertex 131.44308859159935 1095.1283711458989 33.30000000000427
    vertex 129.32176824804063 1105.2496914894605 33.30000000000347
  endloop
endfacet
facet normal -8.629086583316446e-14 1.655013832519836e-15 1.0
  outer loop
    vertex 129.32176824804063 1105.2496914894605 33.30000000000347
    vertex 131.44308859159935 1095.1283711458989 33.30000000000427
    vertex 129.94308859160046 1105.7264473572538 33.300000000003514
  endloop
endfacet
facet normal -8.629086583316446e-14 1.655013832519836e-15 1.0
  outer loop
    vertex 129.94308859160046 1105.7264473572538 33.300000000003514
    vertex 131.44308859159935 1095.1283711458989 33.30000000000427
    vertex 130.66663145629303 1106.0261486247675 33.300000000003585
  endloop
endfacet
facet normal -8.629086583316446e-14 1.655013832519836e-15 1.0
  outer loop
    vertex 130.66663145629303 1106.0261486247675 33.300000000003585
    vertex 131.44308859159935 1095.1283711458989 33.30000000000427
    vertex 131.44308859159935 1103.1283711458998 33.30000000000384
  endloop
endfacet
facet normal -8.629086583316446e-14 1.655013832519836e-15 1.0
  outer loop
    vertex 130.66663145629303 1106.0261486247675 33.300000000003585
    vertex 131.44308859159935 1103.1283711458998 33.30000000000384
    vertex 131.44308859160063 1106.1283711459 33.300000000003664
  endloop
endfacet
facet normal -8.629086583316446e-14 1.655013832519836e-15 1.0
  outer loop
    vertex 131.44308859160063 1106.1283711459 33.300000000003664
    vertex 131.44308859159935 1103.1283711458998 33.30000000000384
    vertex 152.36511228272002 1103.1283711458998 33.300000000005355
  endloop
endfacet
facet normal -0.0005600605691466579 -0.00390586683148442 0.9999922152379256
  outer loop
    vertex 152.36511228272002 1106.1283711459 33.31171769171925
    vertex 131.44308859160063 1106.1283711459 33.300000000003664
    vertex 152.36511228272002 1103.1283711458998 33.300000000005355
  endloop
endfacet
facet normal -0.0005142171363764383 0.003905866927746361 0.9999922398620299
  outer loop
    vertex 153.14156941802761 1100.2305936670327 33.31171769171958
    vertex 152.36511228272002 1103.1283711458998 33.300000000005355
    vertex 152.36511228272002 1100.1283711458998 33.311717691719494
  endloop
endfacet
facet normal 0.00012363450176483743 -0.00224464102291274 0.9999974731474016
  outer loop
    vertex 155.36511228272002 1095.128371145902 33.30000000000697
    vertex 152.36511228272002 1100.1283711458998 33.311717691719494
    vertex 152.36511228272002 1095.1283711459016 33.300000000005994
  endloop
endfacet
facet normal 0.00012363450176483743 -0.00224464102291274 0.9999974731474016
  outer loop
    vertex 152.36511228272002 1100.1283711458998 33.311717691719494
    vertex 155.36511228272002 1095.128371145902 33.30000000000697
    vertex 153.14156941802761 1100.2305936670327 33.31171769171958
  endloop
endfacet
facet normal 0.00012363450176483743 -0.00224464102291274 0.9999974731474016
  outer loop
    vertex 153.14156941802761 1100.2305936670327 33.31171769171958
    vertex 155.36511228272002 1095.128371145902 33.30000000000697
    vertex 153.86511228272005 1100.5302949345466 33.31171769171963
  endloop
endfacet
facet normal 0.0016965809537938564 -0.0017109430732620864 0.9999970971392205
  outer loop
    vertex 155.36511228272002 1095.128371145902 33.30000000000697
    vertex 154.48643262627968 1101.0070508023402 33.31171769171968
    vertex 153.86511228272005 1100.5302949345466 33.31171769171963
  endloop
endfacet
facet normal 0.0016965809537938564 -0.0017109430732620864 0.9999970971392205
  outer loop
    vertex 154.48643262627968 1101.0070508023402 33.31171769171968
    vertex 155.36511228272002 1095.128371145902 33.30000000000697
    vertex 154.96318849407336 1101.6283711458998 33.3117176917197
  endloop
endfacet
facet normal 0.0037868170674171847 -0.0015685509875540133 0.9999915997968669
  outer loop
    vertex 155.36511228272002 1095.128371145902 33.30000000000697
    vertex 155.26288976158722 1102.3519140105923 33.3117176917197
    vertex 154.96318849407336 1101.6283711458998 33.3117176917197
  endloop
endfacet
facet normal 0.01112488770390234 -0.0014646192515690064 0.9999370439002766
  outer loop
    vertex 155.36511228272005 1103.1283711458998 33.31171769171968
    vertex 155.26288976158722 1102.3519140105923 33.3117176917197
    vertex 155.36511228272002 1095.128371145902 33.30000000000697
  endloop
endfacet
facet normal 1.503982124025192e-13 -1.0 -8.993913034035592e-15
  outer loop
    vertex 155.36511228272192 1095.1283711459025 3.2000000000080675
    vertex 152.36511228272002 1095.1283711459016 33.300000000005994
    vertex 152.36511228272002 1095.1283711459018 3.2000000000077633
  endloop
endfacet
facet normal 1.503982124025192e-13 -1.0 -8.993913034035592e-15
  outer loop
    vertex 152.36511228272002 1095.1283711459016 33.300000000005994
    vertex 155.36511228272192 1095.1283711459025 3.2000000000080675
    vertex 155.36511228272002 1095.128371145902 33.30000000000697
  endloop
endfacet
facet normal 5.151649183248094e-14 1.0 1.0707705012147013e-13
  outer loop
    vertex 91.78511228271755 1098.1283711459025 3.2000000000018582
    vertex 130.66663145629138 1098.1283711459018 3.584612235766032
    vertex 131.44308859159935 1098.1283711459025 3.2000000000063307
  endloop
endfacet
facet normal 5.151649183248094e-14 1.0 1.0707705012147013e-13
  outer loop
    vertex 130.66663145629138 1098.1283711459018 3.584612235766032
    vertex 91.78511228271755 1098.1283711459025 3.2000000000018582
    vertex 91.78511228271564 1098.1283711459023 33.30000000000249
  endloop
endfacet
facet normal 5.151649183248094e-14 1.0 1.0707705012147013e-13
  outer loop
    vertex 130.66663145629138 1098.1283711459018 3.584612235766032
    vertex 91.78511228271564 1098.1283711459023 33.30000000000249
    vertex 129.9430885915986 1098.1283711459018 4.712238254786934
  endloop
endfacet
facet normal 5.151649183248094e-14 1.0 1.0707705012147013e-13
  outer loop
    vertex 129.9430885915986 1098.1283711459018 4.712238254786934
    vertex 91.78511228271564 1098.1283711459023 33.30000000000249
    vertex 129.32176824803886 1098.1283711459014 6.506032207361116
  endloop
endfacet
facet normal 5.151649183248094e-14 1.0 1.0707705012147013e-13
  outer loop
    vertex 129.32176824803886 1098.1283711459014 6.506032207361116
    vertex 91.78511228271564 1098.1283711459023 33.30000000000249
    vertex 128.84501238024515 1098.128371145901 8.843750000003558
  endloop
endfacet
facet normal 5.151649183248094e-14 1.0 1.0707705012147013e-13
  outer loop
    vertex 128.84501238024515 1098.128371145901 8.843750000003558
    vertex 91.78511228271564 1098.1283711459023 33.30000000000249
    vertex 128.54531111273113 1098.1283711459012 11.566080028410106
  endloop
endfacet
facet normal 5.151649183248094e-14 1.0 1.0707705012147013e-13
  outer loop
    vertex 128.54531111273113 1098.1283711459012 11.566080028410106
    vertex 91.78511228271564 1098.1283711459023 33.30000000000249
    vertex 128.44308859159946 1098.128371145901 14.48750000000524
  endloop
endfacet
facet normal 5.151649183248094e-14 1.0 1.0707705012147013e-13
  outer loop
    vertex 128.44308859159946 1098.128371145901 14.48750000000524
    vertex 91.78511228271564 1098.1283711459023 33.30000000000249
    vertex 123.5651122827204 1098.1283711458975 29.798274207886504
  endloop
endfacet
facet normal 5.151649183248094e-14 1.0 1.0707705012147013e-13
  outer loop
    vertex 123.5651122827204 1098.1283711458975 29.798274207886504
    vertex 91.78511228271564 1098.1283711459023 33.30000000000249
    vertex 122.21880658031961 1098.1283711458975 29.97551871612457
  endloop
endfacet
facet normal 5.151649183248094e-14 1.0 1.0707705012147013e-13
  outer loop
    vertex 122.21880658031961 1098.1283711458975 29.97551871612457
    vertex 91.78511228271564 1098.1283711459023 33.30000000000249
    vertex 120.9642493866623 1098.128371145901 30.495173320510883
  endloop
endfacet
facet normal 5.151649183248094e-14 1.0 1.0707705012147013e-13
  outer loop
    vertex 120.9642493866623 1098.128371145901 30.495173320510883
    vertex 91.78511228271564 1098.1283711459023 33.30000000000249
    vertex 119.88693670124205 1098.1283711458993 31.321824418525146
  endloop
endfacet
facet normal 5.151649183248094e-14 1.0 1.0707705012147013e-13
  outer loop
    vertex 119.88693670124205 1098.1283711458993 31.321824418525146
    vertex 91.78511228271564 1098.1283711459023 33.30000000000249
    vertex 119.06028560322699 1098.128371145899 32.399137103945435
  endloop
endfacet
facet normal 5.151649183248094e-14 1.0 1.0707705012147013e-13
  outer loop
    vertex 119.06028560322699 1098.128371145899 32.399137103945435
    vertex 91.78511228271564 1098.1283711459023 33.30000000000249
    vertex 118.68713597384101 1098.128371145899 33.30000000000286
  endloop
endfacet
facet normal 5.151649183248094e-14 1.0 1.0707705012147013e-13
  outer loop
    vertex 128.44308859159946 1098.128371145901 14.48750000000524
    vertex 128.0699389622135 1098.128371145899 32.39913710394557
    vertex 128.44308859159938 1098.1283711458984 33.30000000000268
  endloop
endfacet
facet normal 5.151649183248094e-14 1.0 1.0707705012147013e-13
  outer loop
    vertex 128.0699389622135 1098.128371145899 32.39913710394557
    vertex 128.44308859159946 1098.128371145901 14.48750000000524
    vertex 127.24328786419854 1098.128371145899 31.32182441852535
  endloop
endfacet
facet normal 5.151649183248094e-14 1.0 1.0707705012147013e-13
  outer loop
    vertex 127.24328786419854 1098.128371145899 31.32182441852535
    vertex 128.44308859159946 1098.128371145901 14.48750000000524
    vertex 126.16597517877841 1098.1283711459007 30.495173320510716
  endloop
endfacet
facet normal 5.151649183248094e-14 1.0 1.0707705012147013e-13
  outer loop
    vertex 126.16597517877841 1098.1283711459007 30.495173320510716
    vertex 128.44308859159946 1098.128371145901 14.48750000000524
    vertex 124.9114179851211 1098.1283711458975 29.975518716124864
  endloop
endfacet
facet normal 5.151649183248094e-14 1.0 1.0707705012147013e-13
  outer loop
    vertex 124.9114179851211 1098.1283711458975 29.975518716124864
    vertex 128.44308859159946 1098.128371145901 14.48750000000524
    vertex 123.5651122827204 1098.1283711458975 29.798274207886504
  endloop
endfacet
facet normal 0.13052619222011155 -1.652783906572611e-14 0.9914448613738026
  outer loop
    vertex 122.2188065803198 1095.1283711458984 29.975518716123734
    vertex 123.5651122827204 1098.1283711458975 29.798274207886504
    vertex 122.21880658031961 1098.1283711458975 29.97551871612457
  endloop
endfacet
facet normal 0.13052619222011155 -1.652783906572611e-14 0.9914448613738026
  outer loop
    vertex 123.5651122827204 1098.1283711458975 29.798274207886504
    vertex 122.2188065803198 1095.1283711458984 29.975518716123734
    vertex 123.56511228272046 1095.1283711458987 29.798274207887214
  endloop
endfacet
facet normal 0.6087614290082941 -3.4251454133427644e-13 0.7933533402915625
  outer loop
    vertex 119.8869367012421 1095.1283711458964 31.32182441852367
    vertex 120.9642493866623 1098.128371145901 30.495173320510883
    vertex 119.88693670124205 1098.1283711458993 31.321824418525146
  endloop
endfacet
facet normal 0.6087614290082941 -3.4251454133427644e-13 0.7933533402915625
  outer loop
    vertex 120.9642493866623 1098.128371145901 30.495173320510883
    vertex 119.8869367012421 1095.1283711458964 31.32182441852367
    vertex 120.96424938666237 1095.1283711458998 30.495173320509664
  endloop
endfacet
facet normal 0.38268343236540964 -3.002153415724065e-13 0.9238795325111544
  outer loop
    vertex 120.96424938666237 1095.1283711458998 30.495173320509664
    vertex 122.21880658031961 1098.1283711458975 29.97551871612457
    vertex 120.9642493866623 1098.128371145901 30.495173320510883
  endloop
endfacet
facet normal 0.38268343236540964 -3.002153415724065e-13 0.9238795325111544
  outer loop
    vertex 122.21880658031961 1098.1283711458975 29.97551871612457
    vertex 120.96424938666237 1095.1283711458998 30.495173320509664
    vertex 122.2188065803198 1095.1283711458984 29.975518716123734
  endloop
endfacet
facet normal 0.793353340291231 -2.9015350311735275e-13 0.6087614290087262
  outer loop
    vertex 119.88693670124205 1098.1283711458993 31.321824418525146
    vertex 119.06028560322696 1095.1283711458982 32.39913710394401
    vertex 119.8869367012421 1095.1283711458964 31.32182441852367
  endloop
endfacet
facet normal 0.793353340291231 -2.9015350311735275e-13 0.6087614290087262
  outer loop
    vertex 119.06028560322696 1095.1283711458982 32.39913710394401
    vertex 119.88693670124205 1098.1283711458993 31.321824418525146
    vertex 119.06028560322699 1098.128371145899 32.399137103945435
  endloop
endfacet
facet normal 0.92387953251126 -1.241475990876852e-13 0.3826834323651545
  outer loop
    vertex 119.06028560322699 1098.128371145899 32.399137103945435
    vertex 118.68713597384094 1095.1283711458987 33.30000000000257
    vertex 119.06028560322696 1095.1283711458982 32.39913710394401
  endloop
endfacet
facet normal 0.92387953251126 -1.241475990876852e-13 0.3826834323651545
  outer loop
    vertex 118.68713597384094 1095.1283711458987 33.30000000000257
    vertex 119.06028560322699 1098.128371145899 32.399137103945435
    vertex 118.68713597384101 1098.128371145899 33.30000000000286
  endloop
endfacet
facet normal -2.237983472682519e-14 -1.724879498491534e-13 1.0
  outer loop
    vertex 118.68713597384094 1095.1283711458987 33.30000000000257
    vertex 91.78511228271564 1098.1283711459023 33.30000000000249
    vertex 91.78511228271562 1095.1283711459016 33.300000000001745
  endloop
endfacet
facet normal -2.237983472682519e-14 -1.724879498491534e-13 1.0
  outer loop
    vertex 91.78511228271564 1098.1283711459023 33.30000000000249
    vertex 118.68713597384094 1095.1283711458987 33.30000000000257
    vertex 118.68713597384101 1098.128371145899 33.30000000000286
  endloop
endfacet
facet normal -0.13052619222031908 -2.7944089013866617e-14 0.9914448613737752
  outer loop
    vertex 123.56511228272046 1095.1283711458987 29.798274207887214
    vertex 124.9114179851211 1098.1283711458975 29.975518716124864
    vertex 123.5651122827204 1098.1283711458975 29.798274207886504
  endloop
endfacet
facet normal -0.13052619222031908 -2.7944089013866617e-14 0.9914448613737752
  outer loop
    vertex 124.9114179851211 1098.1283711458975 29.975518716124864
    vertex 123.56511228272046 1095.1283711458987 29.798274207887214
    vertex 124.91141798512106 1095.1283711458984 29.975518716123993
  endloop
endfacet
facet normal -0.9238795325112744 -3.008014445670275e-14 0.38268343236511965
  outer loop
    vertex 128.44308859159938 1098.1283711458984 33.30000000000268
    vertex 128.06993896221354 1095.1283711458987 32.39913710394482
    vertex 128.44308859159943 1095.1283711458984 33.300000000003266
  endloop
endfacet
facet normal -0.9238795325112744 -3.008014445670275e-14 0.38268343236511965
  outer loop
    vertex 128.06993896221354 1095.1283711458987 32.39913710394482
    vertex 128.44308859159938 1098.1283711458984 33.30000000000268
    vertex 128.0699389622135 1098.128371145899 32.39913710394557
  endloop
endfacet
facet normal -0.3826834323652728 -2.556283506335174e-13 0.9238795325112111
  outer loop
    vertex 126.16597517877841 1095.1283711458998 30.495173320509913
    vertex 124.9114179851211 1098.1283711458975 29.975518716124864
    vertex 124.91141798512106 1095.1283711458984 29.975518716123993
  endloop
endfacet
facet normal -0.3826834323652728 -2.556283506335174e-13 0.9238795325112111
  outer loop
    vertex 124.9114179851211 1098.1283711458975 29.975518716124864
    vertex 126.16597517877841 1095.1283711458998 30.495173320509913
    vertex 126.16597517877841 1098.1283711459007 30.495173320510716
  endloop
endfacet
facet normal -0.7933533402913704 -2.523306027138967e-13 0.6087614290085446
  outer loop
    vertex 128.06993896221354 1095.1283711458987 32.39913710394482
    vertex 127.24328786419854 1098.128371145899 31.32182441852535
    vertex 127.24328786419858 1095.128371145896 31.321824418523757
  endloop
endfacet
facet normal -0.7933533402913704 -2.523306027138967e-13 0.6087614290085446
  outer loop
    vertex 127.24328786419854 1098.128371145899 31.32182441852535
    vertex 128.06993896221354 1095.1283711458987 32.39913710394482
    vertex 128.0699389622135 1098.128371145899 32.39913710394557
  endloop
endfacet
facet normal -0.6087614290083826 -3.2208411298663305e-13 0.7933533402914946
  outer loop
    vertex 127.24328786419858 1095.128371145896 31.321824418523757
    vertex 126.16597517877841 1098.1283711459007 30.495173320510716
    vertex 126.16597517877841 1095.1283711458998 30.495173320509913
  endloop
endfacet
facet normal -0.6087614290083826 -3.2208411298663305e-13 0.7933533402914946
  outer loop
    vertex 126.16597517877841 1098.1283711459007 30.495173320510716
    vertex 127.24328786419858 1095.128371145896 31.321824418523757
    vertex 127.24328786419854 1098.128371145899 31.32182441852535
  endloop
endfacet
facet normal -1.0 6.341888695355184e-15 -6.187242584690805e-14
  outer loop
    vertex 91.78511228271562 1095.1283711459016 33.300000000001745
    vertex 91.78511228271658 1095.8283711459026 20.25000000000193
    vertex 91.78511228271752 1095.1283711459027 3.2000000000016326
  endloop
endfacet
facet normal -1.0 6.341888695355184e-15 -6.187242584690805e-14
  outer loop
    vertex 91.78511228271658 1095.8283711459026 20.25000000000193
    vertex 91.78511228271562 1095.1283711459016 33.300000000001745
    vertex 91.78511228271564 1098.1283711459023 33.30000000000249
  endloop
endfacet
facet normal -1.0 6.341888695355184e-15 -6.187242584690805e-14
  outer loop
    vertex 91.78511228271658 1095.8283711459026 20.25000000000193
    vertex 91.78511228271564 1098.1283711459023 33.30000000000249
    vertex 91.78511228271658 1097.4283711459025 20.25000000000193
  endloop
endfacet
facet normal -1.0 6.341888695355184e-15 -6.187242584690805e-14
  outer loop
    vertex 91.78511228271658 1097.4283711459025 20.25000000000193
    vertex 91.78511228271564 1098.1283711459023 33.30000000000249
    vertex 91.78511228271658 1097.4283711459025 15.650000000001928
  endloop
endfacet
facet normal -1.0 6.341888695355184e-15 -6.187242584690805e-14
  outer loop
    vertex 91.78511228271752 1095.1283711459027 3.2000000000016326
    vertex 91.78511228271658 1095.8283711459026 15.650000000001928
    vertex 91.78511228271755 1098.1283711459025 3.2000000000018582
  endloop
endfacet
facet normal -1.0 6.341888695355184e-15 -6.187242584690805e-14
  outer loop
    vertex 91.78511228271658 1095.8283711459026 15.650000000001928
    vertex 91.78511228271752 1095.1283711459027 3.2000000000016326
    vertex 91.78511228271658 1095.8283711459026 20.25000000000193
  endloop
endfacet
facet normal -1.0 6.341888695355184e-15 -6.187242584690805e-14
  outer loop
    vertex 91.78511228271755 1098.1283711459025 3.2000000000018582
    vertex 91.78511228271658 1095.8283711459026 15.650000000001928
    vertex 91.78511228271658 1097.4283711459025 15.650000000001928
  endloop
endfacet
facet normal -1.0 6.341888695355184e-15 -6.187242584690805e-14
  outer loop
    vertex 91.78511228271755 1098.1283711459025 3.2000000000018582
    vertex 91.78511228271658 1097.4283711459025 15.650000000001928
    vertex 91.78511228271564 1098.1283711459023 33.30000000000249
  endloop
endfacet
facet normal 0.0 1.0 0.0
  outer loop
    vertex 90.78511228271658 1097.4283711459025 20.25000000000193
    vertex 91.78511228271658 1097.4283711459025 15.650000000001928
    vertex 90.78511228271658 1097.4283711459025 15.650000000001928
  endloop
endfacet
facet normal 0.0 1.0 0.0
  outer loop
    vertex 91.78511228271658 1097.4283711459025 15.650000000001928
    vertex 90.78511228271658 1097.4283711459025 20.25000000000193
    vertex 91.78511228271658 1097.4283711459025 20.25000000000193
  endloop
endfacet
facet normal 0.0 0.0 1.0
  outer loop
    vertex 91.78511228271658 1097.4283711459025 20.25000000000193
    vertex 90.78511228271658 1097.4283711459025 20.25000000000193
    vertex 91.78511228271658 1095.8283711459026 20.25000000000193
  endloop
endfacet
facet normal 0.0 0.0 -1.0
  outer loop
    vertex 91.78511228271658 1095.8283711459026 15.650000000001928
    vertex 90.78511228271658 1097.4283711459025 15.650000000001928
    vertex 91.78511228271658 1097.4283711459025 15.650000000001928
  endloop
endfacet
facet normal -0.847998304005088 -0.5299989400031799 0.0
  outer loop
    vertex 90.78511228271658 1097.4283711459025 20.25000000000193
    vertex 91.78511228271658 1095.8283711459026 15.650000000001928
    vertex 91.78511228271658 1095.8283711459026 20.25000000000193
  endloop
endfacet
facet normal -0.847998304005088 -0.5299989400031799 0.0
  outer loop
    vertex 91.78511228271658 1095.8283711459026 15.650000000001928
    vertex 90.78511228271658 1097.4283711459025 20.25000000000193
    vertex 90.78511228271658 1097.4283711459025 15.650000000001928
  endloop
endfacet
facet normal 0.0 1.0 0.0
  outer loop
    vertex 155.36511228272096 1097.4283711459022 20.55000000000752
    vertex 156.36511228272096 1097.4283711459022 15.950000000007517
    vertex 155.36511228272096 1097.4283711459022 15.950000000007517
  endloop
endfacet
facet normal 0.0 1.0 0.0
  outer loop
    vertex 156.36511228272096 1097.4283711459022 15.950000000007517
    vertex 155.36511228272096 1097.4283711459022 20.55000000000752
    vertex 156.36511228272096 1097.4283711459022 20.55000000000752
  endloop
endfacet
facet normal 0.0 0.0 1.0
  outer loop
    vertex 156.36511228272096 1097.4283711459022 20.55000000000752
    vertex 155.36511228272096 1097.4283711459022 20.55000000000752
    vertex 155.36511228272096 1095.8283711459023 20.55000000000752
  endloop
endfacet
facet normal 0.0 0.0 -1.0
  outer loop
    vertex 156.36511228272096 1097.4283711459022 15.950000000007517
    vertex 155.36511228272096 1095.8283711459023 15.950000000007517
    vertex 155.36511228272096 1097.4283711459022 15.950000000007517
  endloop
endfacet
facet normal 0.847998304005088 -0.5299989400031799 5.0990256404195134e-30
  outer loop
    vertex 156.36511228272096 1097.4283711459022 15.950000000007517
    vertex 155.36511228272096 1095.8283711459023 20.55000000000752
    vertex 155.36511228272096 1095.8283711459023 15.950000000007517
  endloop
endfacet
facet normal 0.847998304005088 -0.5299989400031799 5.0990256404195134e-30
  outer loop
    vertex 155.36511228272096 1095.8283711459023 20.55000000000752
    vertex 156.36511228272096 1097.4283711459022 15.950000000007517
    vertex 156.36511228272096 1097.4283711459022 20.55000000000752
  endloop
endfacet
endsolid Pet Feeder
