solid Pet Feeder
facet normal 0.0 -1.0 0.0
  outer loop
    vertex 699.2017045371042 1645.027779548247 -2.8637033492425186
    vertex 697.1311521762841 1645.027779548247 -2.863703349242518
    vertex 698.1664283566942 1645.027779548247 -3.000000044086245
  endloop
endfacet
facet normal 0.0 -1.0 0.0
  outer loop
    vertex 697.1311521762841 1645.027779548247 -2.863703349242518
    vertex 699.2017045371042 1645.027779548247 -2.8637033492425186
    vertex 700.1664283566942 1645.027779548247 -2.4641016592240006
  endloop
endfacet
facet normal 0.0 -1.0 0.0
  outer loop
    vertex 697.1311521762841 1645.027779548247 -2.863703349242518
    vertex 700.1664283566942 1645.027779548247 -2.4641016592240006
    vertex 696.1664283566942 1645.027779548247 -2.4641016592240006
  endloop
endfacet
facet normal 0.0 -1.0 0.0
  outer loop
    vertex 696.1664283566942 1645.027779548247 -2.4641016592240006
    vertex 700.1664283566942 1645.027779548247 -2.4641016592240006
    vertex 700.9948554814404 1645.027779548247 -1.8284271688324376
  endloop
endfacet
facet normal 0.0 -1.0 0.0
  outer loop
    vertex 696.1664283566942 1645.027779548247 -2.4641016592240006
    vertex 700.9948554814404 1645.027779548247 -1.8284271688324376
    vertex 695.338001231948 1645.027779548247 -1.8284271688324376
  endloop
endfacet
facet normal 0.0 -1.0 0.0
  outer loop
    vertex 695.338001231948 1645.027779548247 -1.8284271688324376
    vertex 700.9948554814404 1645.027779548247 -1.8284271688324376
    vertex 701.630529971832 1645.027779548247 -1.0000000440862502
  endloop
endfacet
facet normal 0.0 -1.0 0.0
  outer loop
    vertex 695.338001231948 1645.027779548247 -1.8284271688324376
    vertex 701.630529971832 1645.027779548247 -1.0000000440862502
    vertex 698.1664283566942 1645.027779548247 -1.2500000440862369
  endloop
endfacet
facet normal 0.0 -1.0 0.0
  outer loop
    vertex 698.1664283566942 1645.027779548247 -1.2500000440862369
    vertex 701.630529971832 1645.027779548247 -1.0000000440862502
    vertex 698.7487712081748 1645.027779548247 -1.1733331532366413
  endloop
endfacet
facet normal 0.0 -1.0 0.0
  outer loop
    vertex 698.7487712081748 1645.027779548247 -1.1733331532366413
    vertex 701.630529971832 1645.027779548247 -1.0000000440862502
    vertex 699.2914283566943 1645.027779548247 -0.9485572026012261
  endloop
endfacet
facet normal 0.0 -1.0 0.0
  outer loop
    vertex 699.2914283566943 1645.027779548247 -0.9485572026012261
    vertex 701.630529971832 1645.027779548247 -1.0000000440862502
    vertex 702.0301316618504 1645.027779548247 -0.035276224496334656
  endloop
endfacet
facet normal 0.0 -1.0 0.0
  outer loop
    vertex 699.2914283566943 1645.027779548247 -0.9485572026012261
    vertex 702.0301316618504 1645.027779548247 -0.035276224496334656
    vertex 699.7574186143639 1645.027779548247 -0.5909903017559734
  endloop
endfacet
facet normal 0.0 -1.0 0.0
  outer loop
    vertex 699.7574186143639 1645.027779548247 -0.5909903017559734
    vertex 702.0301316618504 1645.027779548247 -0.035276224496334656
    vertex 700.1149855152091 1645.027779548247 -0.1250000440862454
  endloop
endfacet
facet normal 0.0 -1.0 0.0
  outer loop
    vertex 700.1149855152091 1645.027779548247 -0.1250000440862454
    vertex 702.0301316618504 1645.027779548247 -0.035276224496334656
    vertex 700.3397614658446 1645.027779548247 0.41765710443307913
  endloop
endfacet
facet normal 0.0 -1.0 0.0
  outer loop
    vertex 700.3397614658446 1645.027779548247 0.41765710443307913
    vertex 702.0301316618504 1645.027779548247 -0.035276224496334656
    vertex 702.1664283566942 1645.027779548247 0.9999999559137469
  endloop
endfacet
facet normal 0.0 -1.0 0.0
  outer loop
    vertex 700.3397614658446 1645.027779548247 0.41765710443307913
    vertex 702.1664283566942 1645.027779548247 0.9999999559137469
    vertex 700.4164283566942 1645.027779548247 0.9999999559137476
  endloop
endfacet
facet normal 0.0 -1.0 0.0
  outer loop
    vertex 700.4164283566942 1645.027779548247 0.9999999559137476
    vertex 702.1664283566942 1645.027779548247 0.9999999559137469
    vertex 702.0301316618504 1645.027779548247 2.0352761363238274
  endloop
endfacet
facet normal 0.0 -1.0 0.0
  outer loop
    vertex 700.4164283566942 1645.027779548247 0.9999999559137476
    vertex 702.0301316618504 1645.027779548247 2.0352761363238274
    vertex 700.3397614658446 1645.027779548247 1.582342807394414
  endloop
endfacet
facet normal 0.0 -1.0 0.0
  outer loop
    vertex 700.3397614658446 1645.027779548247 1.582342807394414
    vertex 702.0301316618504 1645.027779548247 2.0352761363238274
    vertex 700.1149855152091 1645.027779548247 2.124999955913739
  endloop
endfacet
facet normal 0.0 -1.0 0.0
  outer loop
    vertex 700.1149855152091 1645.027779548247 2.124999955913739
    vertex 702.0301316618504 1645.027779548247 2.0352761363238274
    vertex 701.630529971832 1645.027779548247 2.9999999559137427
  endloop
endfacet
facet normal 0.0 -1.0 0.0
  outer loop
    vertex 700.1149855152091 1645.027779548247 2.124999955913739
    vertex 701.630529971832 1645.027779548247 2.9999999559137427
    vertex 699.7574186143639 1645.027779548247 2.590990213583468
  endloop
endfacet
facet normal 0.0 -1.0 0.0
  outer loop
    vertex 699.7574186143639 1645.027779548247 2.590990213583468
    vertex 701.630529971832 1645.027779548247 2.9999999559137427
    vertex 699.5501930836301 1645.027779548247 2.7499999559137325
  endloop
endfacet
facet normal 0.0 -1.0 0.0
  outer loop
    vertex 699.5501930836301 1645.027779548247 2.7499999559137325
    vertex 701.630529971832 1645.027779548247 2.9999999559137427
    vertex 696.7826636297582 1645.027779548247 2.7499999559137325
  endloop
endfacet
facet normal 0.0 -1.0 0.0
  outer loop
    vertex 698.1664283566942 1645.027779548247 -1.2500000440862369
    vertex 694.7023267415565 1645.027779548247 -1.0000000440862484
    vertex 695.338001231948 1645.027779548247 -1.8284271688324376
  endloop
endfacet
facet normal 0.0 -1.0 0.0
  outer loop
    vertex 694.7023267415565 1645.027779548247 -1.0000000440862484
    vertex 698.1664283566942 1645.027779548247 -1.2500000440862369
    vertex 697.5840855052136 1645.027779548247 -1.173333153236641
  endloop
endfacet
facet normal 0.0 -1.0 0.0
  outer loop
    vertex 694.7023267415565 1645.027779548247 -1.0000000440862484
    vertex 697.5840855052136 1645.027779548247 -1.173333153236641
    vertex 697.0414283566942 1645.027779548247 -0.9485572026012257
  endloop
endfacet
facet normal 0.0 -1.0 0.0
  outer loop
    vertex 694.7023267415565 1645.027779548247 -1.0000000440862484
    vertex 697.0414283566942 1645.027779548247 -0.9485572026012257
    vertex 694.302725051538 1645.027779548247 -0.035276224496333594
  endloop
endfacet
facet normal 0.0 -1.0 0.0
  outer loop
    vertex 694.302725051538 1645.027779548247 -0.035276224496333594
    vertex 697.0414283566942 1645.027779548247 -0.9485572026012257
    vertex 696.5754380990245 1645.027779548247 -0.5909903017559734
  endloop
endfacet
facet normal 0.0 -1.0 0.0
  outer loop
    vertex 694.302725051538 1645.027779548247 -0.035276224496333594
    vertex 696.5754380990245 1645.027779548247 -0.5909903017559734
    vertex 696.2178711981792 1645.027779548247 -0.12500004408624468
  endloop
endfacet
facet normal 0.0 -1.0 0.0
  outer loop
    vertex 694.302725051538 1645.027779548247 -0.035276224496333594
    vertex 696.2178711981792 1645.027779548247 -0.12500004408624468
    vertex 695.9930952475437 1645.027779548247 0.41765710443307985
  endloop
endfacet
facet normal 0.0 -1.0 0.0
  outer loop
    vertex 694.302725051538 1645.027779548247 -0.035276224496333594
    vertex 695.9930952475437 1645.027779548247 0.41765710443307985
    vertex 694.1664283566942 1645.027779548247 0.9999999559137476
  endloop
endfacet
facet normal 0.0 -1.0 0.0
  outer loop
    vertex 694.1664283566942 1645.027779548247 0.9999999559137476
    vertex 695.9930952475437 1645.027779548247 0.41765710443307985
    vertex 695.9164283566943 1645.027779548247 0.9999999559137476
  endloop
endfacet
facet normal 0.0 -1.0 0.0
  outer loop
    vertex 694.1664283566942 1645.027779548247 0.9999999559137476
    vertex 695.9164283566943 1645.027779548247 0.9999999559137476
    vertex 695.9930952475437 1645.027779548247 1.5823428073944168
  endloop
endfacet
facet normal 0.0 -1.0 0.0
  outer loop
    vertex 694.1664283566942 1645.027779548247 0.9999999559137476
    vertex 695.9930952475437 1645.027779548247 1.5823428073944168
    vertex 694.302725051538 1645.027779548247 2.0352761363238314
  endloop
endfacet
facet normal 0.0 -1.0 0.0
  outer loop
    vertex 694.302725051538 1645.027779548247 2.0352761363238314
    vertex 695.9930952475437 1645.027779548247 1.5823428073944168
    vertex 696.2178711981792 1645.027779548247 2.1249999559137414
  endloop
endfacet
facet normal 0.0 -1.0 0.0
  outer loop
    vertex 694.302725051538 1645.027779548247 2.0352761363238314
    vertex 696.2178711981792 1645.027779548247 2.1249999559137414
    vertex 694.7023267415565 1645.027779548247 2.9999999559137454
  endloop
endfacet
facet normal 0.0 -1.0 0.0
  outer loop
    vertex 694.7023267415565 1645.027779548247 2.9999999559137454
    vertex 696.2178711981792 1645.027779548247 2.1249999559137414
    vertex 696.5754380990245 1645.027779548247 2.5909902135834693
  endloop
endfacet
facet normal 0.0 -1.0 0.0
  outer loop
    vertex 694.7023267415565 1645.027779548247 2.9999999559137454
    vertex 696.5754380990245 1645.027779548247 2.5909902135834693
    vertex 696.7826636297582 1645.027779548247 2.7499999559137325
  endloop
endfacet
facet normal 0.0 -1.0 0.0
  outer loop
    vertex 694.7023267415565 1645.027779548247 2.9999999559137454
    vertex 696.7826636297582 1645.027779548247 2.7499999559137325
    vertex 701.630529971832 1645.027779548247 2.9999999559137427
  endloop
endfacet
facet normal 0.0 -1.0 0.0
  outer loop
    vertex 694.7023267415565 1645.027779548247 2.9999999559137454
    vertex 701.630529971832 1645.027779548247 2.9999999559137427
    vertex 700.9948554814404 1645.027779548247 3.8284270806599308
  endloop
endfacet
facet normal 0.0 -1.0 0.0
  outer loop
    vertex 694.7023267415565 1645.027779548247 2.9999999559137454
    vertex 700.9948554814404 1645.027779548247 3.8284270806599308
    vertex 695.338001231948 1645.027779548247 3.8284270806599334
  endloop
endfacet
facet normal 0.0 -1.0 0.0
  outer loop
    vertex 695.338001231948 1645.027779548247 3.8284270806599334
    vertex 700.9948554814404 1645.027779548247 3.8284270806599308
    vertex 700.1664283566942 1645.027779548247 4.464101571051496
  endloop
endfacet
facet normal 0.0 -1.0 0.0
  outer loop
    vertex 695.338001231948 1645.027779548247 3.8284270806599334
    vertex 700.1664283566942 1645.027779548247 4.464101571051496
    vertex 696.1664283566942 1645.027779548247 4.464101571051497
  endloop
endfacet
facet normal 0.0 -1.0 0.0
  outer loop
    vertex 696.1664283566942 1645.027779548247 4.464101571051497
    vertex 700.1664283566942 1645.027779548247 4.464101571051496
    vertex 699.2017045371042 1645.027779548247 4.863703261070013
  endloop
endfacet
facet normal 0.0 -1.0 0.0
  outer loop
    vertex 696.1664283566942 1645.027779548247 4.464101571051497
    vertex 699.2017045371042 1645.027779548247 4.863703261070013
    vertex 697.1311521762841 1645.027779548247 4.863703261070013
  endloop
endfacet
facet normal 0.0 -1.0 0.0
  outer loop
    vertex 697.1311521762841 1645.027779548247 4.863703261070013
    vertex 699.2017045371042 1645.027779548247 4.863703261070013
    vertex 698.1664283566942 1645.027779548247 4.99999995591374
  endloop
endfacet
facet normal 0.6087614290087177 -2.478591646427163e-29 -0.7933533402912375
  outer loop
    vertex 699.7574186143639 1645.027779548247 -0.5909903017559734
    vertex 699.2914283566943 1625.0277795482468 -0.9485572026012261
    vertex 699.2914283566943 1645.027779548247 -0.9485572026012261
  endloop
endfacet
facet normal 0.6087614290087177 -2.478591646427163e-29 -0.7933533402912375
  outer loop
    vertex 699.2914283566943 1625.0277795482468 -0.9485572026012261
    vertex 699.7574186143639 1645.027779548247 -0.5909903017559734
    vertex 699.7574186143639 1625.0277795482468 -0.5909903017559734
  endloop
endfacet
facet normal 0.0 -1.0 0.0
  outer loop
    vertex 698.7487712081748 1625.0277795482468 -1.1733331532366413
    vertex 697.5840855052136 1625.0277795482468 -1.173333153236641
    vertex 698.1664283566942 1625.0277795482468 -1.2500000440862369
  endloop
endfacet
facet normal 0.0 -1.0 0.0
  outer loop
    vertex 697.5840855052136 1625.0277795482468 -1.173333153236641
    vertex 698.7487712081748 1625.0277795482468 -1.1733331532366413
    vertex 699.2914283566943 1625.0277795482468 -0.9485572026012261
  endloop
endfacet
facet normal 0.0 -1.0 0.0
  outer loop
    vertex 697.5840855052136 1625.0277795482468 -1.173333153236641
    vertex 699.2914283566943 1625.0277795482468 -0.9485572026012261
    vertex 697.0414283566942 1625.0277795482468 -0.9485572026012257
  endloop
endfacet
facet normal 0.0 -1.0 0.0
  outer loop
    vertex 697.0414283566942 1625.0277795482468 -0.9485572026012257
    vertex 699.2914283566943 1625.0277795482468 -0.9485572026012261
    vertex 699.7574186143639 1625.0277795482468 -0.5909903017559734
  endloop
endfacet
facet normal 0.0 -1.0 0.0
  outer loop
    vertex 697.0414283566942 1625.0277795482468 -0.9485572026012257
    vertex 699.7574186143639 1625.0277795482468 -0.5909903017559734
    vertex 696.5754380990245 1625.0277795482468 -0.5909903017559734
  endloop
endfacet
facet normal 0.0 -1.0 0.0
  outer loop
    vertex 696.5754380990245 1625.0277795482468 -0.5909903017559734
    vertex 699.7574186143639 1625.0277795482468 -0.5909903017559734
    vertex 700.1149855152091 1625.0277795482468 -0.1250000440862454
  endloop
endfacet
facet normal 0.0 -1.0 0.0
  outer loop
    vertex 696.5754380990245 1625.0277795482468 -0.5909903017559734
    vertex 700.1149855152091 1625.0277795482468 -0.1250000440862454
    vertex 696.2178711981792 1625.0277795482468 -0.12500004408624468
  endloop
endfacet
facet normal 0.0 -1.0 0.0
  outer loop
    vertex 696.2178711981792 1625.0277795482468 -0.12500004408624468
    vertex 700.1149855152091 1625.0277795482468 -0.1250000440862454
    vertex 700.3397614658446 1625.0277795482468 0.41765710443307913
  endloop
endfacet
facet normal 0.0 -1.0 0.0
  outer loop
    vertex 696.2178711981792 1625.0277795482468 -0.12500004408624468
    vertex 700.3397614658446 1625.0277795482468 0.41765710443307913
    vertex 695.9930952475437 1625.0277795482468 0.41765710443307985
  endloop
endfacet
facet normal 0.0 -1.0 0.0
  outer loop
    vertex 695.9930952475437 1625.0277795482468 0.41765710443307985
    vertex 700.3397614658446 1625.0277795482468 0.41765710443307913
    vertex 700.4164283566942 1625.0277795482468 0.9999999559137476
  endloop
endfacet
facet normal 0.0 -1.0 0.0
  outer loop
    vertex 695.9930952475437 1625.0277795482468 0.41765710443307985
    vertex 700.4164283566942 1625.0277795482468 0.9999999559137476
    vertex 695.9164283566943 1625.0277795482468 0.9999999559137476
  endloop
endfacet
facet normal 0.0 -1.0 0.0
  outer loop
    vertex 695.9164283566943 1625.0277795482468 0.9999999559137476
    vertex 700.4164283566942 1625.0277795482468 0.9999999559137476
    vertex 700.3397614658446 1625.0277795482468 1.582342807394414
  endloop
endfacet
facet normal 0.0 -1.0 0.0
  outer loop
    vertex 695.9164283566943 1625.0277795482468 0.9999999559137476
    vertex 700.3397614658446 1625.0277795482468 1.582342807394414
    vertex 695.9930952475437 1625.0277795482468 1.5823428073944168
  endloop
endfacet
facet normal 0.0 -1.0 0.0
  outer loop
    vertex 695.9930952475437 1625.0277795482468 1.5823428073944168
    vertex 700.3397614658446 1625.0277795482468 1.582342807394414
    vertex 700.1149855152091 1625.0277795482468 2.124999955913739
  endloop
endfacet
facet normal 0.0 -1.0 0.0
  outer loop
    vertex 695.9930952475437 1625.0277795482468 1.5823428073944168
    vertex 700.1149855152091 1625.0277795482468 2.124999955913739
    vertex 696.2178711981792 1625.0277795482468 2.1249999559137414
  endloop
endfacet
facet normal 0.0 -1.0 0.0
  outer loop
    vertex 696.2178711981792 1625.0277795482468 2.1249999559137414
    vertex 700.1149855152091 1625.0277795482468 2.124999955913739
    vertex 699.7574186143639 1625.0277795482468 2.590990213583468
  endloop
endfacet
facet normal 0.0 -1.0 0.0
  outer loop
    vertex 696.2178711981792 1625.0277795482468 2.1249999559137414
    vertex 699.7574186143639 1625.0277795482468 2.590990213583468
    vertex 696.5754380990245 1625.0277795482468 2.5909902135834693
  endloop
endfacet
facet normal 0.0 -1.0 0.0
  outer loop
    vertex 696.5754380990245 1625.0277795482468 2.5909902135834693
    vertex 699.7574186143639 1625.0277795482468 2.590990213583468
    vertex 699.5501930836301 1625.0277795482468 2.7499999559137325
  endloop
endfacet
facet normal 0.0 -1.0 0.0
  outer loop
    vertex 696.5754380990245 1625.0277795482468 2.5909902135834693
    vertex 699.5501930836301 1625.0277795482468 2.7499999559137325
    vertex 696.7826636297582 1625.0277795482468 2.7499999559137325
  endloop
endfacet
facet normal 0.9238795325112721 -3.761605092681848e-29 -0.38268343236512503
  outer loop
    vertex 700.1149855152091 1645.027779548247 -0.1250000440862454
    vertex 700.3397614658446 1625.0277795482468 0.41765710443307913
    vertex 700.1149855152091 1625.0277795482468 -0.1250000440862454
  endloop
endfacet
facet normal 0.9238795325112721 -3.761605092681848e-29 -0.38268343236512503
  outer loop
    vertex 700.3397614658446 1625.0277795482468 0.41765710443307913
    vertex 700.1149855152091 1645.027779548247 -0.1250000440862454
    vertex 700.3397614658446 1645.027779548247 0.41765710443307913
  endloop
endfacet
facet normal 0.3826834323650966 1.5581078456805772e-29 -0.9238795325112839
  outer loop
    vertex 699.2914283566943 1645.027779548247 -0.9485572026012261
    vertex 698.7487712081748 1625.0277795482468 -1.1733331532366413
    vertex 698.7487712081748 1645.027779548247 -1.1733331532366413
  endloop
endfacet
facet normal 0.3826834323650966 1.5581078456805772e-29 -0.9238795325112839
  outer loop
    vertex 698.7487712081748 1625.0277795482468 -1.1733331532366413
    vertex 699.2914283566943 1645.027779548247 -0.9485572026012261
    vertex 699.2914283566943 1625.0277795482468 -0.9485572026012261
  endloop
endfacet
facet normal 0.13052619222005393 0.0 -0.99144486137381
  outer loop
    vertex 698.7487712081748 1645.027779548247 -1.1733331532366413
    vertex 698.1664283566942 1625.0277795482468 -1.2500000440862369
    vertex 698.1664283566942 1645.027779548247 -1.2500000440862369
  endloop
endfacet
facet normal 0.13052619222005393 0.0 -0.99144486137381
  outer loop
    vertex 698.1664283566942 1625.0277795482468 -1.2500000440862369
    vertex 698.7487712081748 1645.027779548247 -1.1733331532366413
    vertex 698.7487712081748 1625.0277795482468 -1.1733331532366413
  endloop
endfacet
facet normal -0.1305261922200545 1.7337492302414018e-19 -0.99144486137381
  outer loop
    vertex 698.1664283566942 1645.027779548247 -1.2500000440862369
    vertex 697.5840855052136 1625.0277795482468 -1.173333153236641
    vertex 697.5840855052136 1645.027779548247 -1.173333153236641
  endloop
endfacet
facet normal -0.1305261922200545 1.7337492302414018e-19 -0.99144486137381
  outer loop
    vertex 697.5840855052136 1625.0277795482468 -1.173333153236641
    vertex 698.1664283566942 1645.027779548247 -1.2500000440862369
    vertex 698.1664283566942 1625.0277795482468 -1.2500000440862369
  endloop
endfacet
facet normal 0.9914448613738138 1.733749229430707e-19 -0.13052619222002665
  outer loop
    vertex 700.3397614658446 1645.027779548247 0.41765710443307913
    vertex 700.4164283566942 1625.0277795482468 0.9999999559137476
    vertex 700.3397614658446 1625.0277795482468 0.41765710443307913
  endloop
endfacet
facet normal 0.9914448613738138 1.733749229430707e-19 -0.13052619222002665
  outer loop
    vertex 700.4164283566942 1625.0277795482468 0.9999999559137476
    vertex 700.3397614658446 1645.027779548247 0.41765710443307913
    vertex 700.4164283566942 1645.027779548247 0.9999999559137476
  endloop
endfacet
facet normal -0.38268343236506946 0.0 -0.9238795325112953
  outer loop
    vertex 697.5840855052136 1645.027779548247 -1.173333153236641
    vertex 697.0414283566942 1625.0277795482468 -0.9485572026012257
    vertex 697.0414283566942 1645.027779548247 -0.9485572026012257
  endloop
endfacet
facet normal -0.38268343236506946 0.0 -0.9238795325112953
  outer loop
    vertex 697.0414283566942 1625.0277795482468 -0.9485572026012257
    vertex 697.5840855052136 1645.027779548247 -1.173333153236641
    vertex 697.5840855052136 1625.0277795482468 -1.173333153236641
  endloop
endfacet
facet normal -0.6087614290087544 0.0 -0.7933533402912093
  outer loop
    vertex 697.0414283566942 1645.027779548247 -0.9485572026012257
    vertex 696.5754380990245 1625.0277795482468 -0.5909903017559734
    vertex 696.5754380990245 1645.027779548247 -0.5909903017559734
  endloop
endfacet
facet normal -0.6087614290087544 0.0 -0.7933533402912093
  outer loop
    vertex 696.5754380990245 1625.0277795482468 -0.5909903017559734
    vertex 697.0414283566942 1645.027779548247 -0.9485572026012257
    vertex 697.0414283566942 1625.0277795482468 -0.9485572026012257
  endloop
endfacet
facet normal 0.9914448613738138 0.0 0.13052619222002684
  outer loop
    vertex 700.4164283566942 1645.027779548247 0.9999999559137476
    vertex 700.3397614658446 1625.0277795482468 1.582342807394414
    vertex 700.4164283566942 1625.0277795482468 0.9999999559137476
  endloop
endfacet
facet normal 0.9914448613738138 0.0 0.13052619222002684
  outer loop
    vertex 700.3397614658446 1625.0277795482468 1.582342807394414
    vertex 700.4164283566942 1645.027779548247 0.9999999559137476
    vertex 700.3397614658446 1645.027779548247 1.582342807394414
  endloop
endfacet
facet normal 0.793353340291227 0.0 -0.6087614290087314
  outer loop
    vertex 699.7574186143639 1645.027779548247 -0.5909903017559734
    vertex 700.1149855152091 1625.0277795482468 -0.1250000440862454
    vertex 699.7574186143639 1625.0277795482468 -0.5909903017559734
  endloop
endfacet
facet normal 0.793353340291227 0.0 -0.6087614290087314
  outer loop
    vertex 700.1149855152091 1625.0277795482468 -0.1250000440862454
    vertex 699.7574186143639 1645.027779548247 -0.5909903017559734
    vertex 700.1149855152091 1645.027779548247 -0.1250000440862454
  endloop
endfacet
facet normal -0.9914448613738138 9.227010137735689e-21 -0.1305261922200267
  outer loop
    vertex 695.9164283566943 1645.027779548247 0.9999999559137476
    vertex 695.9930952475437 1625.0277795482468 0.41765710443307985
    vertex 695.9164283566943 1625.0277795482468 0.9999999559137476
  endloop
endfacet
facet normal -0.9914448613738138 9.227010137735689e-21 -0.1305261922200267
  outer loop
    vertex 695.9930952475437 1625.0277795482468 0.41765710443307985
    vertex 695.9164283566943 1645.027779548247 0.9999999559137476
    vertex 695.9930952475437 1645.027779548247 0.41765710443307985
  endloop
endfacet
facet normal -0.7933533402912276 0.0 -0.6087614290087306
  outer loop
    vertex 696.2178711981792 1645.027779548247 -0.12500004408624468
    vertex 696.5754380990245 1625.0277795482468 -0.5909903017559734
    vertex 696.2178711981792 1625.0277795482468 -0.12500004408624468
  endloop
endfacet
facet normal -0.7933533402912276 0.0 -0.6087614290087306
  outer loop
    vertex 696.5754380990245 1625.0277795482468 -0.5909903017559734
    vertex 696.2178711981792 1645.027779548247 -0.12500004408624468
    vertex 696.5754380990245 1645.027779548247 -0.5909903017559734
  endloop
endfacet
facet normal -0.9238795325112721 -3.761605092681848e-29 -0.38268343236512536
  outer loop
    vertex 695.9930952475437 1645.027779548247 0.41765710443307985
    vertex 696.2178711981792 1625.0277795482468 -0.12500004408624468
    vertex 695.9930952475437 1625.0277795482468 0.41765710443307985
  endloop
endfacet
facet normal -0.9238795325112721 -3.761605092681848e-29 -0.38268343236512536
  outer loop
    vertex 696.2178711981792 1625.0277795482468 -0.12500004408624468
    vertex 695.9930952475437 1645.027779548247 0.41765710443307985
    vertex 696.2178711981792 1645.027779548247 -0.12500004408624468
  endloop
endfacet
facet normal 0.7933533402912272 4.258188024619415e-19 0.6087614290087312
  outer loop
    vertex 700.1149855152091 1645.027779548247 2.124999955913739
    vertex 699.7574186143639 1625.0277795482468 2.590990213583468
    vertex 700.1149855152091 1625.0277795482468 2.124999955913739
  endloop
endfacet
facet normal 0.7933533402912272 4.258188024619415e-19 0.6087614290087312
  outer loop
    vertex 699.7574186143639 1625.0277795482468 2.590990213583468
    vertex 700.1149855152091 1645.027779548247 2.124999955913739
    vertex 699.7574186143639 1645.027779548247 2.590990213583468
  endloop
endfacet
facet normal 0.9238795325112723 -3.7737778102262297e-29 0.38268343236512503
  outer loop
    vertex 700.3397614658446 1645.027779548247 1.582342807394414
    vertex 700.1149855152091 1625.0277795482468 2.124999955913739
    vertex 700.3397614658446 1625.0277795482468 1.582342807394414
  endloop
endfacet
facet normal 0.9238795325112723 -3.7737778102262297e-29 0.38268343236512503
  outer loop
    vertex 700.1149855152091 1625.0277795482468 2.124999955913739
    vertex 700.3397614658446 1645.027779548247 1.582342807394414
    vertex 700.1149855152091 1645.027779548247 2.124999955913739
  endloop
endfacet
facet normal 0.6087614290087151 2.774689338002479e-19 0.7933533402912395
  outer loop
    vertex 699.7574186143639 1625.0277795482468 2.590990213583468
    vertex 699.5501930836301 1645.027779548247 2.7499999559137325
    vertex 699.5501930836301 1625.0277795482468 2.7499999559137325
  endloop
endfacet
facet normal 0.6087614290087151 2.774689338002479e-19 0.7933533402912395
  outer loop
    vertex 699.5501930836301 1645.027779548247 2.7499999559137325
    vertex 699.7574186143639 1625.0277795482468 2.590990213583468
    vertex 699.7574186143639 1645.027779548247 2.590990213583468
  endloop
endfacet
facet normal -0.9914448613738138 4.1518872667628994e-32 0.13052619222002626
  outer loop
    vertex 695.9930952475437 1645.027779548247 1.5823428073944168
    vertex 695.9164283566943 1625.0277795482468 0.9999999559137476
    vertex 695.9930952475437 1625.0277795482468 1.5823428073944168
  endloop
endfacet
facet normal -0.9914448613738138 4.1518872667628994e-32 0.13052619222002626
  outer loop
    vertex 695.9164283566943 1625.0277795482468 0.9999999559137476
    vertex 695.9930952475437 1645.027779548247 1.5823428073944168
    vertex 695.9164283566943 1645.027779548247 0.9999999559137476
  endloop
endfacet
facet normal -0.923879532511272 -3.7616050926818475e-29 0.38268343236512564
  outer loop
    vertex 696.2178711981792 1645.027779548247 2.1249999559137414
    vertex 695.9930952475437 1625.0277795482468 1.5823428073944168
    vertex 696.2178711981792 1625.0277795482468 2.1249999559137414
  endloop
endfacet
facet normal -0.923879532511272 -3.7616050926818475e-29 0.38268343236512564
  outer loop
    vertex 695.9930952475437 1625.0277795482468 1.5823428073944168
    vertex 696.2178711981792 1645.027779548247 2.1249999559137414
    vertex 695.9930952475437 1645.027779548247 1.5823428073944168
  endloop
endfacet
facet normal -0.793353340291227 0.0 0.6087614290087314
  outer loop
    vertex 696.5754380990245 1645.027779548247 2.5909902135834693
    vertex 696.2178711981792 1625.0277795482468 2.1249999559137414
    vertex 696.5754380990245 1625.0277795482468 2.5909902135834693
  endloop
endfacet
facet normal -0.793353340291227 0.0 0.6087614290087314
  outer loop
    vertex 696.2178711981792 1625.0277795482468 2.1249999559137414
    vertex 696.5754380990245 1645.027779548247 2.5909902135834693
    vertex 696.2178711981792 1645.027779548247 2.1249999559137414
  endloop
endfacet
facet normal -0.6087614290087117 2.523565251981392e-31 0.793353340291242
  outer loop
    vertex 696.7826636297582 1625.0277795482468 2.7499999559137325
    vertex 696.5754380990245 1645.027779548247 2.5909902135834693
    vertex 696.5754380990245 1625.0277795482468 2.5909902135834693
  endloop
endfacet
facet normal -0.6087614290087117 2.523565251981392e-31 0.793353340291242
  outer loop
    vertex 696.5754380990245 1645.027779548247 2.5909902135834693
    vertex 696.7826636297582 1625.0277795482468 2.7499999559137325
    vertex 696.7826636297582 1645.027779548247 2.7499999559137325
  endloop
endfacet
facet normal -1.716903518069863e-33 5.874930171974744e-18 1.0
  outer loop
    vertex 699.5501930836301 1625.0277795482468 2.7499999559137325
    vertex 696.7826636297582 1645.027779548247 2.7499999559137325
    vertex 696.7826636297582 1625.0277795482468 2.7499999559137325
  endloop
endfacet
facet normal -1.716903518069863e-33 5.874930171974744e-18 1.0
  outer loop
    vertex 696.7826636297582 1645.027779548247 2.7499999559137325
    vertex 699.5501930836301 1625.0277795482468 2.7499999559137325
    vertex 699.5501930836301 1645.027779548247 2.7499999559137325
  endloop
endfacet
facet normal 0.3826834323650934 0.0 -0.9238795325112852
  outer loop
    vertex 700.1664283566942 1647.0277795482468 -2.4641016592240006
    vertex 699.2017045371042 1645.027779548247 -2.8637033492425186
    vertex 699.2017045371042 1647.0277795482468 -2.8637033492425186
  endloop
endfacet
facet normal 0.3826834323650934 0.0 -0.9238795325112852
  outer loop
    vertex 699.2017045371042 1645.027779548247 -2.8637033492425186
    vertex 700.1664283566942 1647.0277795482468 -2.4641016592240006
    vertex 700.1664283566942 1645.027779548247 -2.4641016592240006
  endloop
endfacet
facet normal 0.13052619222005007 0.0 -0.9914448613738106
  outer loop
    vertex 699.2017045371042 1647.0277795482468 -2.8637033492425186
    vertex 698.1664283566942 1645.027779548247 -3.000000044086245
    vertex 698.1664283566942 1647.0277795482468 -3.000000044086245
  endloop
endfacet
facet normal 0.13052619222005007 0.0 -0.9914448613738106
  outer loop
    vertex 698.1664283566942 1645.027779548247 -3.000000044086245
    vertex 699.2017045371042 1647.0277795482468 -2.8637033492425186
    vertex 699.2017045371042 1645.027779548247 -2.8637033492425186
  endloop
endfacet
facet normal -0.13052619222005077 -0.0 -0.9914448613738106
  outer loop
    vertex 698.1664283566942 1647.0277795482468 -3.000000044086245
    vertex 697.1311521762841 1645.027779548247 -2.863703349242518
    vertex 697.1311521762841 1647.0277795482468 -2.863703349242518
  endloop
endfacet
facet normal -0.13052619222005077 -0.0 -0.9914448613738106
  outer loop
    vertex 697.1311521762841 1645.027779548247 -2.863703349242518
    vertex 698.1664283566942 1647.0277795482468 -3.000000044086245
    vertex 698.1664283566942 1645.027779548247 -3.000000044086245
  endloop
endfacet
facet normal -0.38268343236509283 -0.0 -0.9238795325112855
  outer loop
    vertex 697.1311521762841 1647.0277795482468 -2.863703349242518
    vertex 696.1664283566942 1645.027779548247 -2.4641016592240006
    vertex 696.1664283566942 1647.0277795482468 -2.4641016592240006
  endloop
endfacet
facet normal -0.38268343236509283 -0.0 -0.9238795325112855
  outer loop
    vertex 696.1664283566942 1645.027779548247 -2.4641016592240006
    vertex 697.1311521762841 1647.0277795482468 -2.863703349242518
    vertex 697.1311521762841 1645.027779548247 -2.863703349242518
  endloop
endfacet
facet normal -0.6087614290087149 -0.0 -0.7933533402912397
  outer loop
    vertex 696.1664283566942 1647.0277795482468 -2.4641016592240006
    vertex 695.338001231948 1645.027779548247 -1.8284271688324376
    vertex 695.338001231948 1647.0277795482468 -1.8284271688324376
  endloop
endfacet
facet normal -0.6087614290087149 -0.0 -0.7933533402912397
  outer loop
    vertex 695.338001231948 1645.027779548247 -1.8284271688324376
    vertex 696.1664283566942 1647.0277795482468 -2.4641016592240006
    vertex 696.1664283566942 1645.027779548247 -2.4641016592240006
  endloop
endfacet
facet normal 0.0 1.0 0.0
  outer loop
    vertex 697.1311521762841 1647.0277795482468 -2.863703349242518
    vertex 699.2017045371042 1647.0277795482468 -2.8637033492425186
    vertex 698.1664283566942 1647.0277795482468 -3.000000044086245
  endloop
endfacet
facet normal 0.0 1.0 0.0
  outer loop
    vertex 699.2017045371042 1647.0277795482468 -2.8637033492425186
    vertex 697.1311521762841 1647.0277795482468 -2.863703349242518
    vertex 700.1664283566942 1647.0277795482468 -2.4641016592240006
  endloop
endfacet
facet normal 0.0 1.0 0.0
  outer loop
    vertex 700.1664283566942 1647.0277795482468 -2.4641016592240006
    vertex 697.1311521762841 1647.0277795482468 -2.863703349242518
    vertex 696.1664283566942 1647.0277795482468 -2.4641016592240006
  endloop
endfacet
facet normal 0.0 1.0 0.0
  outer loop
    vertex 700.1664283566942 1647.0277795482468 -2.4641016592240006
    vertex 696.1664283566942 1647.0277795482468 -2.4641016592240006
    vertex 695.338001231948 1647.0277795482468 -1.8284271688324376
  endloop
endfacet
facet normal 0.0 1.0 0.0
  outer loop
    vertex 700.1664283566942 1647.0277795482468 -2.4641016592240006
    vertex 695.338001231948 1647.0277795482468 -1.8284271688324376
    vertex 700.9948554814404 1647.0277795482468 -1.8284271688324376
  endloop
endfacet
facet normal 0.0 1.0 0.0
  outer loop
    vertex 700.9948554814404 1647.0277795482468 -1.8284271688324376
    vertex 695.338001231948 1647.0277795482468 -1.8284271688324376
    vertex 694.7023267415565 1647.0277795482468 -1.0000000440862484
  endloop
endfacet
facet normal 0.0 1.0 0.0
  outer loop
    vertex 700.9948554814404 1647.0277795482468 -1.8284271688324376
    vertex 694.7023267415565 1647.0277795482468 -1.0000000440862484
    vertex 701.630529971832 1647.0277795482468 -1.0000000440862502
  endloop
endfacet
facet normal 0.0 1.0 0.0
  outer loop
    vertex 701.630529971832 1647.0277795482468 -1.0000000440862502
    vertex 694.7023267415565 1647.0277795482468 -1.0000000440862484
    vertex 702.0301316618504 1647.0277795482468 -0.035276224496334656
  endloop
endfacet
facet normal 0.0 1.0 0.0
  outer loop
    vertex 702.0301316618504 1647.0277795482468 -0.035276224496334656
    vertex 694.7023267415565 1647.0277795482468 -1.0000000440862484
    vertex 694.302725051538 1647.0277795482468 -0.035276224496333594
  endloop
endfacet
facet normal 0.0 1.0 0.0
  outer loop
    vertex 702.0301316618504 1647.0277795482468 -0.035276224496334656
    vertex 694.302725051538 1647.0277795482468 -0.035276224496333594
    vertex 702.1664283566942 1647.0277795482468 0.9999999559137469
  endloop
endfacet
facet normal 0.0 1.0 0.0
  outer loop
    vertex 702.1664283566942 1647.0277795482468 0.9999999559137469
    vertex 694.302725051538 1647.0277795482468 -0.035276224496333594
    vertex 694.1664283566942 1647.0277795482468 0.9999999559137476
  endloop
endfacet
facet normal 0.0 1.0 0.0
  outer loop
    vertex 702.1664283566942 1647.0277795482468 0.9999999559137469
    vertex 694.1664283566942 1647.0277795482468 0.9999999559137476
    vertex 702.0301316618504 1647.0277795482468 2.0352761363238274
  endloop
endfacet
facet normal 0.0 1.0 0.0
  outer loop
    vertex 702.0301316618504 1647.0277795482468 2.0352761363238274
    vertex 694.1664283566942 1647.0277795482468 0.9999999559137476
    vertex 694.302725051538 1647.0277795482468 2.0352761363238314
  endloop
endfacet
facet normal 0.0 1.0 0.0
  outer loop
    vertex 702.0301316618504 1647.0277795482468 2.0352761363238274
    vertex 694.302725051538 1647.0277795482468 2.0352761363238314
    vertex 701.630529971832 1647.0277795482468 2.9999999559137427
  endloop
endfacet
facet normal 0.0 1.0 0.0
  outer loop
    vertex 701.630529971832 1647.0277795482468 2.9999999559137427
    vertex 694.302725051538 1647.0277795482468 2.0352761363238314
    vertex 694.7023267415565 1647.0277795482468 2.9999999559137454
  endloop
endfacet
facet normal 0.0 1.0 0.0
  outer loop
    vertex 701.630529971832 1647.0277795482468 2.9999999559137427
    vertex 694.7023267415565 1647.0277795482468 2.9999999559137454
    vertex 700.9948554814404 1647.0277795482468 3.8284270806599308
  endloop
endfacet
facet normal 0.0 1.0 0.0
  outer loop
    vertex 700.9948554814404 1647.0277795482468 3.8284270806599308
    vertex 694.7023267415565 1647.0277795482468 2.9999999559137454
    vertex 695.338001231948 1647.0277795482468 3.8284270806599334
  endloop
endfacet
facet normal 0.0 1.0 0.0
  outer loop
    vertex 700.9948554814404 1647.0277795482468 3.8284270806599308
    vertex 695.338001231948 1647.0277795482468 3.8284270806599334
    vertex 700.1664283566942 1647.0277795482468 4.464101571051496
  endloop
endfacet
facet normal 0.0 1.0 0.0
  outer loop
    vertex 700.1664283566942 1647.0277795482468 4.464101571051496
    vertex 695.338001231948 1647.0277795482468 3.8284270806599334
    vertex 696.1664283566942 1647.0277795482468 4.464101571051497
  endloop
endfacet
facet normal 0.0 1.0 0.0
  outer loop
    vertex 700.1664283566942 1647.0277795482468 4.464101571051496
    vertex 696.1664283566942 1647.0277795482468 4.464101571051497
    vertex 699.2017045371042 1647.0277795482468 4.863703261070013
  endloop
endfacet
facet normal 0.0 1.0 0.0
  outer loop
    vertex 699.2017045371042 1647.0277795482468 4.863703261070013
    vertex 696.1664283566942 1647.0277795482468 4.464101571051497
    vertex 697.1311521762841 1647.0277795482468 4.863703261070013
  endloop
endfacet
facet normal 0.0 1.0 0.0
  outer loop
    vertex 699.2017045371042 1647.0277795482468 4.863703261070013
    vertex 697.1311521762841 1647.0277795482468 4.863703261070013
    vertex 698.1664283566942 1647.0277795482468 4.99999995591374
  endloop
endfacet
facet normal -0.6087614290087153 0.0 0.7933533402912394
  outer loop
    vertex 696.1664283566942 1645.027779548247 4.464101571051497
    vertex 695.338001231948 1647.0277795482468 3.8284270806599334
    vertex 695.338001231948 1645.027779548247 3.8284270806599334
  endloop
endfacet
facet normal -0.6087614290087153 0.0 0.7933533402912394
  outer loop
    vertex 695.338001231948 1647.0277795482468 3.8284270806599334
    vertex 696.1664283566942 1645.027779548247 4.464101571051497
    vertex 696.1664283566942 1647.0277795482468 4.464101571051497
  endloop
endfacet
facet normal 0.38268343236509283 0.0 0.9238795325112855
  outer loop
    vertex 700.1664283566942 1645.027779548247 4.464101571051496
    vertex 699.2017045371042 1647.0277795482468 4.863703261070013
    vertex 699.2017045371042 1645.027779548247 4.863703261070013
  endloop
endfacet
facet normal 0.38268343236509283 0.0 0.9238795325112855
  outer loop
    vertex 699.2017045371042 1647.0277795482468 4.863703261070013
    vertex 700.1664283566942 1645.027779548247 4.464101571051496
    vertex 700.1664283566942 1647.0277795482468 4.464101571051496
  endloop
endfacet
facet normal 0.7933533402912469 0.0 -0.6087614290087052
  outer loop
    vertex 700.9948554814404 1647.0277795482468 -1.8284271688324376
    vertex 701.630529971832 1645.027779548247 -1.0000000440862502
    vertex 700.9948554814404 1645.027779548247 -1.8284271688324376
  endloop
endfacet
facet normal 0.7933533402912469 0.0 -0.6087614290087052
  outer loop
    vertex 701.630529971832 1645.027779548247 -1.0000000440862502
    vertex 700.9948554814404 1647.0277795482468 -1.8284271688324376
    vertex 701.630529971832 1647.0277795482468 -1.0000000440862502
  endloop
endfacet
facet normal 0.6087614290087149 0.0 -0.7933533402912397
  outer loop
    vertex 700.9948554814404 1647.0277795482468 -1.8284271688324376
    vertex 700.1664283566942 1645.027779548247 -2.4641016592240006
    vertex 700.1664283566942 1647.0277795482468 -2.4641016592240006
  endloop
endfacet
facet normal 0.6087614290087149 0.0 -0.7933533402912397
  outer loop
    vertex 700.1664283566942 1645.027779548247 -2.4641016592240006
    vertex 700.9948554814404 1647.0277795482468 -1.8284271688324376
    vertex 700.9948554814404 1645.027779548247 -1.8284271688324376
  endloop
endfacet
facet normal -0.9238795325112744 -0.0 -0.3826834323651195
  outer loop
    vertex 694.302725051538 1647.0277795482468 -0.035276224496333594
    vertex 694.7023267415565 1645.027779548247 -1.0000000440862484
    vertex 694.302725051538 1645.027779548247 -0.035276224496333594
  endloop
endfacet
facet normal -0.9238795325112744 -0.0 -0.3826834323651195
  outer loop
    vertex 694.7023267415565 1645.027779548247 -1.0000000440862484
    vertex 694.302725051538 1647.0277795482468 -0.035276224496333594
    vertex 694.7023267415565 1647.0277795482468 -1.0000000440862484
  endloop
endfacet
facet normal 0.9914448613738133 0.0 -0.13052619222003067
  outer loop
    vertex 702.0301316618504 1647.0277795482468 -0.035276224496334656
    vertex 702.1664283566942 1645.027779548247 0.9999999559137469
    vertex 702.0301316618504 1645.027779548247 -0.035276224496334656
  endloop
endfacet
facet normal 0.9914448613738133 0.0 -0.13052619222003067
  outer loop
    vertex 702.1664283566942 1645.027779548247 0.9999999559137469
    vertex 702.0301316618504 1647.0277795482468 -0.035276224496334656
    vertex 702.1664283566942 1647.0277795482468 0.9999999559137469
  endloop
endfacet
facet normal 0.1305261922200514 0.0 0.9914448613738105
  outer loop
    vertex 699.2017045371042 1645.027779548247 4.863703261070013
    vertex 698.1664283566942 1647.0277795482468 4.99999995591374
    vertex 698.1664283566942 1645.027779548247 4.99999995591374
  endloop
endfacet
facet normal 0.1305261922200514 0.0 0.9914448613738105
  outer loop
    vertex 698.1664283566942 1647.0277795482468 4.99999995591374
    vertex 699.2017045371042 1645.027779548247 4.863703261070013
    vertex 699.2017045371042 1647.0277795482468 4.863703261070013
  endloop
endfacet
facet normal -0.7933533402912472 0.0 0.6087614290087052
  outer loop
    vertex 695.338001231948 1647.0277795482468 3.8284270806599334
    vertex 694.7023267415565 1645.027779548247 2.9999999559137454
    vertex 695.338001231948 1645.027779548247 3.8284270806599334
  endloop
endfacet
facet normal -0.7933533402912472 0.0 0.6087614290087052
  outer loop
    vertex 694.7023267415565 1645.027779548247 2.9999999559137454
    vertex 695.338001231948 1647.0277795482468 3.8284270806599334
    vertex 694.7023267415565 1647.0277795482468 2.9999999559137454
  endloop
endfacet
facet normal -0.3826834323650922 0.0 0.9238795325112857
  outer loop
    vertex 697.1311521762841 1645.027779548247 4.863703261070013
    vertex 696.1664283566942 1647.0277795482468 4.464101571051497
    vertex 696.1664283566942 1645.027779548247 4.464101571051497
  endloop
endfacet
facet normal -0.3826834323650922 0.0 0.9238795325112857
  outer loop
    vertex 696.1664283566942 1647.0277795482468 4.464101571051497
    vertex 697.1311521762841 1645.027779548247 4.863703261070013
    vertex 697.1311521762841 1647.0277795482468 4.863703261070013
  endloop
endfacet
facet normal 0.6087614290087157 0.0 0.793353340291239
  outer loop
    vertex 700.9948554814404 1645.027779548247 3.8284270806599308
    vertex 700.1664283566942 1647.0277795482468 4.464101571051496
    vertex 700.1664283566942 1645.027779548247 4.464101571051496
  endloop
endfacet
facet normal 0.6087614290087157 0.0 0.793353340291239
  outer loop
    vertex 700.1664283566942 1647.0277795482468 4.464101571051496
    vertex 700.9948554814404 1645.027779548247 3.8284270806599308
    vertex 700.9948554814404 1647.0277795482468 3.8284270806599308
  endloop
endfacet
facet normal -0.7933533402912476 -0.0 -0.6087614290087044
  outer loop
    vertex 694.7023267415565 1647.0277795482468 -1.0000000440862484
    vertex 695.338001231948 1645.027779548247 -1.8284271688324376
    vertex 694.7023267415565 1645.027779548247 -1.0000000440862484
  endloop
endfacet
facet normal -0.7933533402912476 -0.0 -0.6087614290087044
  outer loop
    vertex 695.338001231948 1645.027779548247 -1.8284271688324376
    vertex 694.7023267415565 1647.0277795482468 -1.0000000440862484
    vertex 695.338001231948 1647.0277795482468 -1.8284271688324376
  endloop
endfacet
facet normal -0.9238795325112895 0.0 0.382683432365083
  outer loop
    vertex 694.7023267415565 1647.0277795482468 2.9999999559137454
    vertex 694.302725051538 1645.027779548247 2.0352761363238314
    vertex 694.7023267415565 1645.027779548247 2.9999999559137454
  endloop
endfacet
facet normal -0.9238795325112895 0.0 0.382683432365083
  outer loop
    vertex 694.302725051538 1645.027779548247 2.0352761363238314
    vertex 694.7023267415565 1647.0277795482468 2.9999999559137454
    vertex 694.302725051538 1647.0277795482468 2.0352761363238314
  endloop
endfacet
facet normal -0.9914448613738077 0.0 0.13052619222007283
  outer loop
    vertex 694.302725051538 1647.0277795482468 2.0352761363238314
    vertex 694.1664283566942 1645.027779548247 0.9999999559137476
    vertex 694.302725051538 1645.027779548247 2.0352761363238314
  endloop
endfacet
facet normal -0.9914448613738077 0.0 0.13052619222007283
  outer loop
    vertex 694.1664283566942 1645.027779548247 0.9999999559137476
    vertex 694.302725051538 1647.0277795482468 2.0352761363238314
    vertex 694.1664283566942 1647.0277795482468 0.9999999559137476
  endloop
endfacet
facet normal 0.7933533402912472 0.0 0.6087614290087052
  outer loop
    vertex 701.630529971832 1647.0277795482468 2.9999999559137427
    vertex 700.9948554814404 1645.027779548247 3.8284270806599308
    vertex 701.630529971832 1645.027779548247 2.9999999559137427
  endloop
endfacet
facet normal 0.7933533402912472 0.0 0.6087614290087052
  outer loop
    vertex 700.9948554814404 1645.027779548247 3.8284270806599308
    vertex 701.630529971832 1647.0277795482468 2.9999999559137427
    vertex 700.9948554814404 1647.0277795482468 3.8284270806599308
  endloop
endfacet
facet normal 0.9238795325112745 0.0 0.3826834323651192
  outer loop
    vertex 702.0301316618504 1647.0277795482468 2.0352761363238274
    vertex 701.630529971832 1645.027779548247 2.9999999559137427
    vertex 702.0301316618504 1645.027779548247 2.0352761363238274
  endloop
endfacet
facet normal 0.9238795325112745 0.0 0.3826834323651192
  outer loop
    vertex 701.630529971832 1645.027779548247 2.9999999559137427
    vertex 702.0301316618504 1647.0277795482468 2.0352761363238274
    vertex 701.630529971832 1647.0277795482468 2.9999999559137427
  endloop
endfacet
facet normal 0.9914448613738132 0.0 0.1305261922200309
  outer loop
    vertex 702.1664283566942 1647.0277795482468 0.9999999559137469
    vertex 702.0301316618504 1645.027779548247 2.0352761363238274
    vertex 702.1664283566942 1645.027779548247 0.9999999559137469
  endloop
endfacet
facet normal 0.9914448613738132 0.0 0.1305261922200309
  outer loop
    vertex 702.0301316618504 1645.027779548247 2.0352761363238274
    vertex 702.1664283566942 1647.0277795482468 0.9999999559137469
    vertex 702.0301316618504 1647.0277795482468 2.0352761363238274
  endloop
endfacet
facet normal -0.13052619222005007 0.0 0.9914448613738106
  outer loop
    vertex 698.1664283566942 1645.027779548247 4.99999995591374
    vertex 697.1311521762841 1647.0277795482468 4.863703261070013
    vertex 697.1311521762841 1645.027779548247 4.863703261070013
  endloop
endfacet
facet normal -0.13052619222005007 0.0 0.9914448613738106
  outer loop
    vertex 697.1311521762841 1647.0277795482468 4.863703261070013
    vertex 698.1664283566942 1645.027779548247 4.99999995591374
    vertex 698.1664283566942 1647.0277795482468 4.99999995591374
  endloop
endfacet
facet normal 0.9238795325112745 0.0 -0.3826834323651193
  outer loop
    vertex 701.630529971832 1647.0277795482468 -1.0000000440862502
    vertex 702.0301316618504 1645.027779548247 -0.035276224496334656
    vertex 701.630529971832 1645.027779548247 -1.0000000440862502
  endloop
endfacet
facet normal 0.9238795325112745 0.0 -0.3826834323651193
  outer loop
    vertex 702.0301316618504 1645.027779548247 -0.035276224496334656
    vertex 701.630529971832 1647.0277795482468 -1.0000000440862502
    vertex 702.0301316618504 1647.0277795482468 -0.035276224496334656
  endloop
endfacet
facet normal -0.9914448613738132 -0.0 -0.13052619222003076
  outer loop
    vertex 694.1664283566942 1647.0277795482468 0.9999999559137476
    vertex 694.302725051538 1645.027779548247 -0.035276224496333594
    vertex 694.1664283566942 1645.027779548247 0.9999999559137476
  endloop
endfacet
facet normal -0.9914448613738132 -0.0 -0.13052619222003076
  outer loop
    vertex 694.302725051538 1645.027779548247 -0.035276224496333594
    vertex 694.1664283566942 1647.0277795482468 0.9999999559137476
    vertex 694.302725051538 1647.0277795482468 -0.035276224496333594
  endloop
endfacet
endsolid Pet Feeder
