solid Pet Feeder
facet normal 1.0 9.339479295090064e-16 -7.98085666441518e-18
  outer loop
    vertex 757.6694792828964 1396.1477795482476 -54.20000000000001
    vertex 757.6694792828964 1397.1477795482476 -55.80000000000001
    vertex 757.6694792828964 1397.1477795482476 -54.20000000000001
  endloop
endfacet
facet normal -3.990428332207596e-18 6.351723996698066e-18 -1.0
  outer loop
    vertex 720.0694792828964 1397.1477795482488 -57.00000000000001
    vertex 721.0694792828962 1398.1477795482488 -57.00000000000001
    vertex 789.6694792828964 1398.1477795482476 -57.00000000000001
  endloop
endfacet
facet normal -3.990428332207596e-18 6.351723996698066e-18 -1.0
  outer loop
    vertex 721.0694792828962 1398.1477795482488 -57.00000000000001
    vertex 720.0694792828964 1397.1477795482488 -57.00000000000001
    vertex 720.0694792828971 1454.2477795482487 -57.00000000000001
  endloop
endfacet
facet normal -3.990428332207596e-18 6.351723996698066e-18 -1.0
  outer loop
    vertex 721.0694792828962 1398.1477795482488 -57.00000000000001
    vertex 720.0694792828971 1454.2477795482487 -57.00000000000001
    vertex 721.0694792828969 1453.2477795482482 -57.00000000000001
  endloop
endfacet
facet normal -3.990428332207596e-18 6.351723996698066e-18 -1.0
  outer loop
    vertex 721.0694792828969 1453.2477795482482 -57.00000000000001
    vertex 720.0694792828971 1454.2477795482487 -57.00000000000001
    vertex 789.6694792828978 1453.2477795482475 -57.00000000000001
  endloop
endfacet
facet normal -3.990428332207596e-18 6.351723996698066e-18 -1.0
  outer loop
    vertex 789.6694792828978 1453.2477795482475 -57.00000000000001
    vertex 720.0694792828971 1454.2477795482487 -57.00000000000001
    vertex 790.6694792828982 1454.2477795482475 -57.00000000000001
  endloop
endfacet
facet normal -3.990428332207596e-18 6.351723996698066e-18 -1.0
  outer loop
    vertex 790.6694792828968 1397.1477795482476 -57.00000000000001
    vertex 789.6694792828964 1398.1477795482476 -57.00000000000001
    vertex 790.6694792828982 1454.2477795482475 -57.00000000000001
  endloop
endfacet
facet normal -3.990428332207596e-18 6.351723996698066e-18 -1.0
  outer loop
    vertex 789.6694792828964 1398.1477795482476 -57.00000000000001
    vertex 790.6694792828968 1397.1477795482476 -57.00000000000001
    vertex 720.0694792828964 1397.1477795482488 -57.00000000000001
  endloop
endfacet
facet normal -3.990428332207596e-18 6.351723996698066e-18 -1.0
  outer loop
    vertex 790.6694792828982 1454.2477795482475 -57.00000000000001
    vertex 789.6694792828964 1398.1477795482476 -57.00000000000001
    vertex 789.6694792828978 1453.2477795482475 -57.00000000000001
  endloop
endfacet
facet normal -9.428702615004888e-15 -1.0 -6.35172399670352e-18
  outer loop
    vertex 721.0694792828969 1453.2477795482482 -55.16000000000002
    vertex 789.6694792828978 1453.2477795482475 -57.00000000000001
    vertex 789.6694792828978 1453.2477795482475 -55.16
  endloop
endfacet
facet normal -9.428702615004888e-15 -1.0 -6.35172399670352e-18
  outer loop
    vertex 789.6694792828978 1453.2477795482475 -57.00000000000001
    vertex 721.0694792828969 1453.2477795482482 -55.16000000000002
    vertex 721.0694792828969 1453.2477795482482 -57.00000000000001
  endloop
endfacet
facet normal 1.0 9.339479295090064e-16 -7.98085666441518e-18
  outer loop
    vertex 757.669479282898 1454.2477795482475 -54.19999999999999
    vertex 757.669479282898 1454.2477795482475 -55.80000000000001
    vertex 757.669479282898 1455.2477795482475 -54.19999999999999
  endloop
endfacet
facet normal -1.0 -9.339479295090064e-16 7.98085666441518e-18
  outer loop
    vertex 753.069479282898 1455.247779548248 -54.19999999999999
    vertex 753.069479282898 1454.247779548248 -55.80000000000001
    vertex 753.069479282898 1454.247779548248 -54.19999999999999
  endloop
endfacet
facet normal -1.0 -9.339479295090064e-16 7.98085666441518e-18
  outer loop
    vertex 753.0694792828965 1397.1477795482479 -54.20000000000001
    vertex 753.0694792828965 1397.1477795482479 -55.80000000000001
    vertex 753.0694792828965 1396.147779548248 -54.20000000000001
  endloop
endfacet
facet normal -1.0 1.2025103135471224e-14 3.990428332207672e-18
  outer loop
    vertex 720.0694792828964 1397.1477795482488 -53.000000000000014
    vertex 720.0694792828971 1454.2477795482487 -57.00000000000001
    vertex 720.0694792828964 1397.1477795482488 -57.00000000000001
  endloop
endfacet
facet normal -1.0 1.2025103135471224e-14 3.990428332207672e-18
  outer loop
    vertex 720.0694792828971 1454.2477795482487 -57.00000000000001
    vertex 720.0694792828964 1397.1477795482488 -53.000000000000014
    vertex 720.0694792828971 1454.2477795482487 -52.99999999999999
  endloop
endfacet
facet normal 1.2025103135471224e-14 1.0 6.351723996698018e-18
  outer loop
    vertex 721.0694792828962 1398.1477795482488 -57.00000000000001
    vertex 789.6694792828964 1398.1477795482476 -55.16000000000002
    vertex 789.6694792828964 1398.1477795482476 -57.00000000000001
  endloop
endfacet
facet normal 1.2025103135471224e-14 1.0 6.351723996698018e-18
  outer loop
    vertex 789.6694792828964 1398.1477795482476 -55.16000000000002
    vertex 721.0694792828962 1398.1477795482488 -57.00000000000001
    vertex 721.0694792828962 1398.1477795482488 -55.16000000000002
  endloop
endfacet
facet normal 1.0 -2.4625581016111937e-14 1.904062520413442e-15
  outer loop
    vertex 790.6694792828982 1454.2477795482475 -52.99999999999999
    vertex 790.6694792828968 1397.1477795482476 -57.00000000000001
    vertex 790.6694792828982 1454.2477795482475 -57.00000000000001
  endloop
endfacet
facet normal 1.0 -2.4625581016111937e-14 1.904062520413442e-15
  outer loop
    vertex 790.6694792828968 1397.1477795482476 -57.00000000000001
    vertex 790.6694792828982 1454.2477795482475 -52.99999999999999
    vertex 790.6694792828968 1397.1477795482476 -52.99999999999999
  endloop
endfacet
facet normal -1.0 2.491329616768822e-14 3.990428332207754e-18
  outer loop
    vertex 789.6694792828964 1398.1477795482476 -55.16000000000002
    vertex 789.6694792828978 1453.2477795482475 -57.00000000000001
    vertex 789.6694792828964 1398.1477795482476 -57.00000000000001
  endloop
endfacet
facet normal -1.0 2.491329616768822e-14 3.990428332207754e-18
  outer loop
    vertex 789.6694792828978 1453.2477795482475 -57.00000000000001
    vertex 789.6694792828964 1398.1477795482476 -55.16000000000002
    vertex 789.6694792828978 1453.2477795482475 -55.16
  endloop
endfacet
facet normal 3.990428332207596e-18 -6.351723996698066e-18 1.0
  outer loop
    vertex 790.6694792828982 1454.2477795482475 -52.99999999999999
    vertex 720.0694792828964 1397.1477795482488 -53.000000000000014
    vertex 790.6694792828968 1397.1477795482476 -52.99999999999999
  endloop
endfacet
facet normal 3.990428332207596e-18 -6.351723996698066e-18 1.0
  outer loop
    vertex 720.0694792828964 1397.1477795482488 -53.000000000000014
    vertex 790.6694792828982 1454.2477795482475 -52.99999999999999
    vertex 720.0694792828971 1454.2477795482487 -52.99999999999999
  endloop
endfacet
facet normal 7.980856664415192e-18 -1.2703447993396135e-17 1.0
  outer loop
    vertex 757.6694792828964 1397.1477795482476 -54.20000000000001
    vertex 753.0694792828965 1396.147779548248 -54.20000000000001
    vertex 757.6694792828964 1396.1477795482476 -54.20000000000001
  endloop
endfacet
facet normal 7.980856664415192e-18 -1.2703447993396135e-17 1.0
  outer loop
    vertex 753.0694792828965 1396.147779548248 -54.20000000000001
    vertex 757.6694792828964 1397.1477795482476 -54.20000000000001
    vertex 753.0694792828965 1397.1477795482479 -54.20000000000001
  endloop
endfacet
facet normal -1.1847769838413409e-14 -1.0 -1.27034479934028e-17
  outer loop
    vertex 790.6694792828968 1397.1477795482476 -52.99999999999999
    vertex 757.6694792828964 1397.1477795482476 -54.20000000000001
    vertex 790.6694792828968 1397.1477795482476 -57.00000000000001
  endloop
endfacet
facet normal -1.1847769838413409e-14 -1.0 -1.27034479934028e-17
  outer loop
    vertex 757.6694792828964 1397.1477795482476 -54.20000000000001
    vertex 790.6694792828968 1397.1477795482476 -52.99999999999999
    vertex 720.0694792828964 1397.1477795482488 -53.000000000000014
  endloop
endfacet
facet normal -1.1847769838413409e-14 -1.0 -1.27034479934028e-17
  outer loop
    vertex 757.6694792828964 1397.1477795482476 -54.20000000000001
    vertex 720.0694792828964 1397.1477795482488 -53.000000000000014
    vertex 753.0694792828965 1397.1477795482479 -54.20000000000001
  endloop
endfacet
facet normal -1.1847769838413409e-14 -1.0 -1.27034479934028e-17
  outer loop
    vertex 753.0694792828965 1397.1477795482479 -54.20000000000001
    vertex 720.0694792828964 1397.1477795482488 -53.000000000000014
    vertex 753.0694792828965 1397.1477795482479 -55.80000000000001
  endloop
endfacet
facet normal -1.1847769838413409e-14 -1.0 -1.27034479934028e-17
  outer loop
    vertex 790.6694792828968 1397.1477795482476 -57.00000000000001
    vertex 757.6694792828964 1397.1477795482476 -55.80000000000001
    vertex 720.0694792828964 1397.1477795482488 -57.00000000000001
  endloop
endfacet
facet normal -1.1847769838413409e-14 -1.0 -1.27034479934028e-17
  outer loop
    vertex 757.6694792828964 1397.1477795482476 -55.80000000000001
    vertex 790.6694792828968 1397.1477795482476 -57.00000000000001
    vertex 757.6694792828964 1397.1477795482476 -54.20000000000001
  endloop
endfacet
facet normal -1.1847769838413409e-14 -1.0 -1.27034479934028e-17
  outer loop
    vertex 720.0694792828964 1397.1477795482488 -57.00000000000001
    vertex 757.6694792828964 1397.1477795482476 -55.80000000000001
    vertex 753.0694792828965 1397.1477795482479 -55.80000000000001
  endloop
endfacet
facet normal -1.1847769838413409e-14 -1.0 -1.27034479934028e-17
  outer loop
    vertex 720.0694792828964 1397.1477795482488 -57.00000000000001
    vertex 753.0694792828965 1397.1477795482479 -55.80000000000001
    vertex 720.0694792828964 1397.1477795482488 -53.000000000000014
  endloop
endfacet
facet normal 9.291426284828819e-15 1.0 1.2703447993396061e-17
  outer loop
    vertex 790.6694792828982 1454.2477795482475 -57.00000000000001
    vertex 757.669479282898 1454.2477795482475 -55.80000000000001
    vertex 790.6694792828982 1454.2477795482475 -52.99999999999999
  endloop
endfacet
facet normal 9.291426284828819e-15 1.0 1.2703447993396061e-17
  outer loop
    vertex 757.669479282898 1454.2477795482475 -55.80000000000001
    vertex 790.6694792828982 1454.2477795482475 -57.00000000000001
    vertex 720.0694792828971 1454.2477795482487 -57.00000000000001
  endloop
endfacet
facet normal 9.291426284828819e-15 1.0 1.2703447993396061e-17
  outer loop
    vertex 757.669479282898 1454.2477795482475 -55.80000000000001
    vertex 720.0694792828971 1454.2477795482487 -57.00000000000001
    vertex 753.069479282898 1454.247779548248 -55.80000000000001
  endloop
endfacet
facet normal 9.291426284828819e-15 1.0 1.2703447993396061e-17
  outer loop
    vertex 753.069479282898 1454.247779548248 -55.80000000000001
    vertex 720.0694792828971 1454.2477795482487 -57.00000000000001
    vertex 753.069479282898 1454.247779548248 -54.19999999999999
  endloop
endfacet
facet normal 9.291426284828819e-15 1.0 1.2703447993396061e-17
  outer loop
    vertex 790.6694792828982 1454.2477795482475 -52.99999999999999
    vertex 757.669479282898 1454.2477795482475 -54.19999999999999
    vertex 720.0694792828971 1454.2477795482487 -52.99999999999999
  endloop
endfacet
facet normal 9.291426284828819e-15 1.0 1.2703447993396061e-17
  outer loop
    vertex 757.669479282898 1454.2477795482475 -54.19999999999999
    vertex 790.6694792828982 1454.2477795482475 -52.99999999999999
    vertex 757.669479282898 1454.2477795482475 -55.80000000000001
  endloop
endfacet
facet normal 9.291426284828819e-15 1.0 1.2703447993396061e-17
  outer loop
    vertex 720.0694792828971 1454.2477795482487 -52.99999999999999
    vertex 757.669479282898 1454.2477795482475 -54.19999999999999
    vertex 753.069479282898 1454.247779548248 -54.19999999999999
  endloop
endfacet
facet normal 9.291426284828819e-15 1.0 1.2703447993396061e-17
  outer loop
    vertex 720.0694792828971 1454.2477795482487 -52.99999999999999
    vertex 753.069479282898 1454.247779548248 -54.19999999999999
    vertex 720.0694792828971 1454.2477795482487 -57.00000000000001
  endloop
endfacet
facet normal -6.576066243129936e-14 -0.8479983040050988 -0.5299989400031628
  outer loop
    vertex 753.0694792828965 1396.147779548248 -54.20000000000001
    vertex 757.6694792828964 1397.1477795482476 -55.80000000000001
    vertex 757.6694792828964 1396.1477795482476 -54.20000000000001
  endloop
endfacet
facet normal -6.576066243129936e-14 -0.8479983040050988 -0.5299989400031628
  outer loop
    vertex 757.6694792828964 1397.1477795482476 -55.80000000000001
    vertex 753.0694792828965 1396.147779548248 -54.20000000000001
    vertex 753.0694792828965 1397.1477795482479 -55.80000000000001
  endloop
endfacet
facet normal 3.247238687918021e-14 0.8479983040051021 -0.5299989400031575
  outer loop
    vertex 753.069479282898 1454.247779548248 -55.80000000000001
    vertex 757.669479282898 1455.2477795482475 -54.19999999999999
    vertex 757.669479282898 1454.2477795482475 -55.80000000000001
  endloop
endfacet
facet normal 3.247238687918021e-14 0.8479983040051021 -0.5299989400031575
  outer loop
    vertex 757.669479282898 1455.2477795482475 -54.19999999999999
    vertex 753.069479282898 1454.247779548248 -55.80000000000001
    vertex 753.069479282898 1455.247779548248 -54.19999999999999
  endloop
endfacet
facet normal 7.980856664415192e-18 -1.2703447993396135e-17 1.0
  outer loop
    vertex 757.669479282898 1455.2477795482475 -54.19999999999999
    vertex 753.069479282898 1454.247779548248 -54.19999999999999
    vertex 757.669479282898 1454.2477795482475 -54.19999999999999
  endloop
endfacet
facet normal 7.980856664415192e-18 -1.2703447993396135e-17 1.0
  outer loop
    vertex 753.069479282898 1454.247779548248 -54.19999999999999
    vertex 757.669479282898 1455.2477795482475 -54.19999999999999
    vertex 753.069479282898 1455.247779548248 -54.19999999999999
  endloop
endfacet
facet normal 1.644295325100831e-16 1.920638727178079e-16 -1.0
  outer loop
    vertex 721.0694792828962 1398.1477795482488 -55.16000000000002
    vertex 789.6694792828978 1453.2477795482475 -55.16
    vertex 789.6694792828964 1398.1477795482476 -55.16000000000002
  endloop
endfacet
facet normal 1.644295325100831e-16 1.920638727178079e-16 -1.0
  outer loop
    vertex 789.6694792828978 1453.2477795482475 -55.16
    vertex 721.0694792828962 1398.1477795482488 -55.16000000000002
    vertex 721.0694792828966 1415.6977795482487 -55.16000000000002
  endloop
endfacet
facet normal 1.644295325100831e-16 1.920638727178079e-16 -1.0
  outer loop
    vertex 789.6694792828978 1453.2477795482475 -55.16
    vertex 721.0694792828966 1415.6977795482487 -55.16000000000002
    vertex 721.0694792828969 1435.6977795482483 -55.16000000000002
  endloop
endfacet
facet normal 1.644295325100831e-16 1.920638727178079e-16 -1.0
  outer loop
    vertex 789.6694792828978 1453.2477795482475 -55.16
    vertex 721.0694792828969 1435.6977795482483 -55.16000000000002
    vertex 721.0694792828969 1453.2477795482482 -55.16000000000002
  endloop
endfacet
facet normal 1.0 -1.1313294106949651e-14 -3.6782171511494454e-14
  outer loop
    vertex 721.0694792828969 1453.2477795482482 -55.16000000000002
    vertex 721.0694792828962 1398.1477795482488 -57.00000000000001
    vertex 721.0694792828969 1453.2477795482482 -57.00000000000001
  endloop
endfacet
facet normal 1.0 -1.1313294106949651e-14 -3.6782171511494454e-14
  outer loop
    vertex 721.0694792828962 1398.1477795482488 -57.00000000000001
    vertex 721.0694792828969 1453.2477795482482 -55.16000000000002
    vertex 721.0694792828962 1398.1477795482488 -55.16000000000002
  endloop
endfacet
facet normal 1.0 -1.1313294106949651e-14 -3.6782171511494454e-14
  outer loop
    vertex 721.0694792828962 1398.1477795482488 -55.16000000000002
    vertex 721.0694792828969 1453.2477795482482 -55.16000000000002
    vertex 721.0694792828969 1435.6977795482483 -55.16000000000002
  endloop
endfacet
facet normal 1.0 -1.1313294106949651e-14 -3.6782171511494454e-14
  outer loop
    vertex 721.0694792828962 1398.1477795482488 -55.16000000000002
    vertex 721.0694792828969 1435.6977795482483 -55.16000000000002
    vertex 721.0694792828966 1415.6977795482487 -55.16000000000002
  endloop
endfacet
endsolid Pet Feeder
