solid Pet Feeder
facet normal 0.0 1.0 0.0
  outer loop
    vertex 626.2094792828954 1861.8477795482513 -62.0
    vertex 770.2094792828955 1861.8477795482513 -97.99999999999993
    vertex 626.2094792828954 1861.8477795482513 -97.99999999999997
  endloop
endfacet
facet normal 0.0 1.0 0.0
  outer loop
    vertex 770.2094792828955 1861.8477795482513 -97.99999999999993
    vertex 626.2094792828954 1861.8477795482513 -62.0
    vertex 770.2094792828955 1861.8477795482513 -62.0
  endloop
endfacet
facet normal -1.0 0.0 0.0
  outer loop
    vertex 774.2094792828955 2009.8477795482509 -62.0
    vertex 774.2094792828955 1865.847779548251 -97.99999999999993
    vertex 774.2094792828955 1865.847779548251 -62.0
  endloop
endfacet
facet normal -1.0 0.0 0.0
  outer loop
    vertex 774.2094792828955 1865.847779548251 -97.99999999999993
    vertex 774.2094792828955 2009.8477795482509 -62.0
    vertex 774.2094792828955 2009.8477795482509 -98.00000000000003
  endloop
endfacet
facet normal 0.0 -1.0 0.0
  outer loop
    vertex 770.2094792828955 2013.847779548251 -62.0
    vertex 626.2094792828957 2013.847779548251 -97.99999999999989
    vertex 770.2094792828955 2013.847779548251 -98.00000000000003
  endloop
endfacet
facet normal 0.0 -1.0 0.0
  outer loop
    vertex 626.2094792828957 2013.847779548251 -97.99999999999989
    vertex 770.2094792828955 2013.847779548251 -62.0
    vertex 626.2094792828957 2013.847779548251 -62.0
  endloop
endfacet
facet normal 1.0 -1.244497287333296e-15 -4.711126498443697e-32
  outer loop
    vertex 622.2094792828956 2009.8477795482509 -97.99999999999989
    vertex 622.2094792828954 1865.847779548251 -62.0
    vertex 622.2094792828954 1865.847779548251 -97.99999999999997
  endloop
endfacet
facet normal 1.0 -1.244497287333296e-15 -4.711126498443697e-32
  outer loop
    vertex 622.2094792828954 1865.847779548251 -62.0
    vertex 622.2094792828956 2009.8477795482509 -97.99999999999989
    vertex 622.2094792828956 2009.8477795482509 -62.0
  endloop
endfacet
facet normal 1.0 0.0 0.0
  outer loop
    vertex 651.4594792828952 1857.847779548251 -84.8
    vertex 651.4594792828952 1846.4477795482514 -79.19999999999999
    vertex 651.4594792828952 1846.4477795482514 -84.8
  endloop
endfacet
facet normal 1.0 0.0 0.0
  outer loop
    vertex 651.4594792828952 1846.4477795482514 -79.19999999999999
    vertex 651.4594792828952 1857.847779548251 -84.8
    vertex 651.4594792828952 1857.847779548251 -79.19999999999999
  endloop
endfacet
facet normal -1.0 0.0 0.0
  outer loop
    vertex 744.9594792828954 1857.847779548251 -79.19999999999999
    vertex 744.9594792828954 1846.4477795482512 -84.8
    vertex 744.9594792828954 1846.4477795482512 -79.19999999999999
  endloop
endfacet
facet normal -1.0 0.0 0.0
  outer loop
    vertex 744.9594792828954 1846.4477795482512 -84.8
    vertex 744.9594792828954 1857.847779548251 -79.19999999999999
    vertex 744.9594792828954 1857.847779548251 -84.8
  endloop
endfacet
facet normal -9.855910410696463e-15 1.3966221456610059e-15 -1.0
  outer loop
    vertex 748.0094792828953 1857.847779548251 -84.8
    vertex 744.9594792828954 1846.4477795482512 -84.8
    vertex 744.9594792828954 1857.847779548251 -84.8
  endloop
endfacet
facet normal -9.855910410696463e-15 1.3966221456610059e-15 -1.0
  outer loop
    vertex 744.9594792828954 1846.4477795482512 -84.8
    vertex 748.0094792828953 1857.847779548251 -84.8
    vertex 748.0094792828953 1849.4477795482512 -84.80000000000005
  endloop
endfacet
facet normal -9.855910410696463e-15 1.3966221456610059e-15 -1.0
  outer loop
    vertex 744.9594792828954 1846.4477795482512 -84.8
    vertex 748.0094792828953 1849.4477795482512 -84.80000000000005
    vertex 748.2094792828954 1846.4477795482512 -84.8
  endloop
endfacet
facet normal -9.855910410696463e-15 1.3966221456610059e-15 -1.0
  outer loop
    vertex 748.2094792828954 1846.4477795482512 -84.8
    vertex 748.0094792828953 1849.4477795482512 -84.80000000000005
    vertex 748.2094792828954 1849.4477795482512 -84.80000000000005
  endloop
endfacet
facet normal -9.855910410696463e-15 1.3966221456610059e-15 -1.0
  outer loop
    vertex 748.2094792828954 1846.4477795482512 -84.8
    vertex 748.2094792828954 1849.4477795482512 -84.80000000000005
    vertex 750.2094792828954 1848.947779548251 -84.80000000000005
  endloop
endfacet
facet normal -9.855910410696463e-15 1.3966221456610059e-15 -1.0
  outer loop
    vertex 748.2094792828954 1846.4477795482512 -84.8
    vertex 750.2094792828954 1848.947779548251 -84.80000000000005
    vertex 750.2094792828954 1846.947779548251 -84.80000000000005
  endloop
endfacet
facet normal 0.0 0.0 1.0
  outer loop
    vertex 748.2094792828954 1846.4477795482512 -79.19999999999999
    vertex 744.9594792828954 1857.847779548251 -79.19999999999999
    vertex 744.9594792828954 1846.4477795482512 -79.19999999999999
  endloop
endfacet
facet normal 0.0 0.0 1.0
  outer loop
    vertex 744.9594792828954 1857.847779548251 -79.19999999999999
    vertex 748.2094792828954 1846.4477795482512 -79.19999999999999
    vertex 748.0094792828953 1849.4477795482512 -79.19999999999999
  endloop
endfacet
facet normal 0.0 0.0 1.0
  outer loop
    vertex 748.0094792828953 1849.4477795482512 -79.19999999999999
    vertex 748.2094792828954 1846.4477795482512 -79.19999999999999
    vertex 748.2094792828954 1849.4477795482512 -79.19999999999999
  endloop
endfacet
facet normal 0.0 0.0 1.0
  outer loop
    vertex 748.2094792828954 1849.4477795482512 -79.19999999999999
    vertex 748.2094792828954 1846.4477795482512 -79.19999999999999
    vertex 750.2094792828954 1846.947779548251 -79.19999999999999
  endloop
endfacet
facet normal 0.0 0.0 1.0
  outer loop
    vertex 748.2094792828954 1849.4477795482512 -79.19999999999999
    vertex 750.2094792828954 1846.947779548251 -79.19999999999999
    vertex 750.2094792828954 1848.947779548251 -79.19999999999999
  endloop
endfacet
facet normal 0.0 0.0 1.0
  outer loop
    vertex 748.0094792828953 1857.847779548251 -79.19999999999999
    vertex 744.9594792828954 1857.847779548251 -79.19999999999999
    vertex 748.0094792828953 1849.4477795482512 -79.19999999999999
  endloop
endfacet
facet normal 0.24253562503628145 -0.9701425001453449 -4.327799961509922e-18
  outer loop
    vertex 750.2094792828954 1846.947779548251 -79.19999999999999
    vertex 748.2094792828954 1846.4477795482512 -84.8
    vertex 750.2094792828954 1846.947779548251 -84.80000000000005
  endloop
endfacet
facet normal 0.24253562503628145 -0.9701425001453449 -4.327799961509922e-18
  outer loop
    vertex 748.2094792828954 1846.4477795482512 -84.8
    vertex 750.2094792828954 1846.947779548251 -79.19999999999999
    vertex 748.2094792828954 1846.4477795482512 -79.19999999999999
  endloop
endfacet
facet normal 1.0 0.0 0.0
  outer loop
    vertex 750.2094792828954 1848.947779548251 -84.80000000000005
    vertex 750.2094792828954 1846.947779548251 -79.19999999999999
    vertex 750.2094792828954 1846.947779548251 -84.80000000000005
  endloop
endfacet
facet normal 1.0 0.0 0.0
  outer loop
    vertex 750.2094792828954 1846.947779548251 -79.19999999999999
    vertex 750.2094792828954 1848.947779548251 -84.80000000000005
    vertex 750.2094792828954 1848.947779548251 -79.19999999999999
  endloop
endfacet
facet normal 0.2425356250364463 0.9701425001453037 -4.327799961510523e-18
  outer loop
    vertex 748.2094792828954 1849.4477795482512 -79.19999999999999
    vertex 750.2094792828954 1848.947779548251 -84.80000000000005
    vertex 748.2094792828954 1849.4477795482512 -84.80000000000005
  endloop
endfacet
facet normal 0.2425356250364463 0.9701425001453037 -4.327799961510523e-18
  outer loop
    vertex 750.2094792828954 1848.947779548251 -84.80000000000005
    vertex 748.2094792828954 1849.4477795482512 -79.19999999999999
    vertex 750.2094792828954 1848.947779548251 -79.19999999999999
  endloop
endfacet
facet normal 0.0 0.0 1.0
  outer loop
    vertex 660.2094792828952 1846.4477795482512 -79.19999999999999
    vertex 656.9594792828954 1857.847779548251 -79.19999999999999
    vertex 656.9594792828954 1846.4477795482512 -79.19999999999999
  endloop
endfacet
facet normal 0.0 0.0 1.0
  outer loop
    vertex 656.9594792828954 1857.847779548251 -79.19999999999999
    vertex 660.2094792828952 1846.4477795482512 -79.19999999999999
    vertex 660.0094792828952 1849.4477795482512 -79.19999999999999
  endloop
endfacet
facet normal 0.0 0.0 1.0
  outer loop
    vertex 660.0094792828952 1849.4477795482512 -79.19999999999999
    vertex 660.2094792828952 1846.4477795482512 -79.19999999999999
    vertex 660.2094792828952 1849.4477795482512 -79.19999999999999
  endloop
endfacet
facet normal 0.0 0.0 1.0
  outer loop
    vertex 660.2094792828952 1849.4477795482512 -79.19999999999999
    vertex 660.2094792828952 1846.4477795482512 -79.19999999999999
    vertex 662.2094792828952 1846.947779548251 -79.19999999999999
  endloop
endfacet
facet normal 0.0 0.0 1.0
  outer loop
    vertex 660.2094792828952 1849.4477795482512 -79.19999999999999
    vertex 662.2094792828952 1846.947779548251 -79.19999999999999
    vertex 662.2094792828952 1848.947779548251 -79.19999999999999
  endloop
endfacet
facet normal 0.0 0.0 1.0
  outer loop
    vertex 660.0094792828952 1857.847779548251 -79.19999999999999
    vertex 656.9594792828954 1857.847779548251 -79.19999999999999
    vertex 660.0094792828952 1849.4477795482512 -79.19999999999999
  endloop
endfacet
facet normal -1.0 0.0 0.0
  outer loop
    vertex 656.9594792828954 1857.847779548251 -79.19999999999999
    vertex 656.9594792828954 1846.4477795482512 -84.8
    vertex 656.9594792828954 1846.4477795482512 -79.19999999999999
  endloop
endfacet
facet normal -1.0 0.0 0.0
  outer loop
    vertex 656.9594792828954 1846.4477795482512 -84.8
    vertex 656.9594792828954 1857.847779548251 -79.19999999999999
    vertex 656.9594792828954 1857.847779548251 -84.8
  endloop
endfacet
facet normal -1.8069169086276843e-14 2.560473933711844e-15 -1.0
  outer loop
    vertex 660.0094792828952 1857.847779548251 -84.8
    vertex 656.9594792828954 1846.4477795482512 -84.8
    vertex 656.9594792828954 1857.847779548251 -84.8
  endloop
endfacet
facet normal -1.8069169086276843e-14 2.560473933711844e-15 -1.0
  outer loop
    vertex 656.9594792828954 1846.4477795482512 -84.8
    vertex 660.0094792828952 1857.847779548251 -84.8
    vertex 660.0094792828952 1849.4477795482512 -84.80000000000011
  endloop
endfacet
facet normal -1.8069169086276843e-14 2.560473933711844e-15 -1.0
  outer loop
    vertex 656.9594792828954 1846.4477795482512 -84.8
    vertex 660.0094792828952 1849.4477795482512 -84.80000000000011
    vertex 660.2094792828952 1846.4477795482512 -84.8
  endloop
endfacet
facet normal -1.8069169086276843e-14 2.560473933711844e-15 -1.0
  outer loop
    vertex 660.2094792828952 1846.4477795482512 -84.8
    vertex 660.0094792828952 1849.4477795482512 -84.80000000000011
    vertex 660.2094792828952 1849.4477795482512 -84.80000000000011
  endloop
endfacet
facet normal -1.8069169086276843e-14 2.560473933711844e-15 -1.0
  outer loop
    vertex 660.2094792828952 1846.4477795482512 -84.8
    vertex 660.2094792828952 1849.4477795482512 -84.80000000000011
    vertex 662.2094792828952 1848.947779548251 -84.80000000000011
  endloop
endfacet
facet normal -1.8069169086276843e-14 2.560473933711844e-15 -1.0
  outer loop
    vertex 660.2094792828952 1846.4477795482512 -84.8
    vertex 662.2094792828952 1848.947779548251 -84.80000000000011
    vertex 662.2094792828952 1846.947779548251 -84.80000000000011
  endloop
endfacet
facet normal 1.0 0.0 0.0
  outer loop
    vertex 662.2094792828952 1848.947779548251 -84.80000000000011
    vertex 662.2094792828952 1846.947779548251 -79.19999999999999
    vertex 662.2094792828952 1846.947779548251 -84.80000000000011
  endloop
endfacet
facet normal 1.0 0.0 0.0
  outer loop
    vertex 662.2094792828952 1846.947779548251 -79.19999999999999
    vertex 662.2094792828952 1848.947779548251 -84.80000000000011
    vertex 662.2094792828952 1848.947779548251 -79.19999999999999
  endloop
endfacet
facet normal 0.24253562503644624 0.9701425001453037 0.0
  outer loop
    vertex 660.2094792828952 1849.4477795482512 -79.19999999999999
    vertex 662.2094792828952 1848.947779548251 -84.80000000000011
    vertex 660.2094792828952 1849.4477795482512 -84.80000000000011
  endloop
endfacet
facet normal 0.24253562503644624 0.9701425001453037 0.0
  outer loop
    vertex 662.2094792828952 1848.947779548251 -84.80000000000011
    vertex 660.2094792828952 1849.4477795482512 -79.19999999999999
    vertex 662.2094792828952 1848.947779548251 -79.19999999999999
  endloop
endfacet
facet normal 0.24253562503628145 -0.9701425001453449 -2.1203177229478316e-28
  outer loop
    vertex 662.2094792828952 1846.947779548251 -79.19999999999999
    vertex 660.2094792828952 1846.4477795482512 -84.8
    vertex 662.2094792828952 1846.947779548251 -84.80000000000011
  endloop
endfacet
facet normal 0.24253562503628145 -0.9701425001453449 -2.1203177229478316e-28
  outer loop
    vertex 660.2094792828952 1846.4477795482512 -84.8
    vertex 662.2094792828952 1846.947779548251 -79.19999999999999
    vertex 660.2094792828952 1846.4477795482512 -79.19999999999999
  endloop
endfacet
facet normal 6.430992163494944e-16 4.301107601389328e-16 1.0
  outer loop
    vertex 736.2094792828955 1846.4477795482512 -79.19999999999997
    vertex 734.2094792828955 1848.947779548251 -79.19999999999999
    vertex 734.2094792828955 1846.947779548251 -79.19999999999997
  endloop
endfacet
facet normal 6.430992163494944e-16 4.301107601389328e-16 1.0
  outer loop
    vertex 734.2094792828955 1848.947779548251 -79.19999999999999
    vertex 736.2094792828955 1846.4477795482512 -79.19999999999997
    vertex 736.2094792828955 1849.4477795482512 -79.19999999999999
  endloop
endfacet
facet normal 6.430992163494944e-16 4.301107601389328e-16 1.0
  outer loop
    vertex 736.2094792828955 1849.4477795482512 -79.19999999999999
    vertex 736.2094792828955 1846.4477795482512 -79.19999999999997
    vertex 739.4594792828954 1846.4477795482512 -79.19999999999999
  endloop
endfacet
facet normal 6.430992163494944e-16 4.301107601389328e-16 1.0
  outer loop
    vertex 736.2094792828955 1849.4477795482512 -79.19999999999999
    vertex 739.4594792828954 1846.4477795482512 -79.19999999999999
    vertex 736.4094792828955 1849.4477795482512 -79.19999999999999
  endloop
endfacet
facet normal 6.430992163494944e-16 4.301107601389328e-16 1.0
  outer loop
    vertex 736.4094792828955 1849.4477795482512 -79.19999999999999
    vertex 739.4594792828954 1846.4477795482512 -79.19999999999999
    vertex 736.4094792828955 1857.847779548251 -79.19999999999999
  endloop
endfacet
facet normal 6.430992163494944e-16 4.301107601389328e-16 1.0
  outer loop
    vertex 736.4094792828955 1857.847779548251 -79.19999999999999
    vertex 739.4594792828954 1846.4477795482512 -79.19999999999999
    vertex 739.4594792828954 1857.847779548251 -79.19999999999999
  endloop
endfacet
facet normal -3.185348218355496e-14 -4.852747554732119e-15 -1.0
  outer loop
    vertex 739.4594792828954 1857.847779548251 -84.8
    vertex 736.4094792828955 1849.4477795482512 -84.79999999999978
    vertex 736.4094792828955 1857.847779548251 -84.8
  endloop
endfacet
facet normal -3.185348218355496e-14 -4.852747554732119e-15 -1.0
  outer loop
    vertex 736.2094792828955 1849.4477795482512 -84.79999999999978
    vertex 734.2094792828955 1846.947779548251 -84.79999999999977
    vertex 734.2094792828955 1848.947779548251 -84.79999999999978
  endloop
endfacet
facet normal -3.185348218355496e-14 -4.852747554732119e-15 -1.0
  outer loop
    vertex 734.2094792828955 1846.947779548251 -84.79999999999977
    vertex 736.2094792828955 1849.4477795482512 -84.79999999999978
    vertex 736.2094792828955 1846.4477795482512 -84.79999999999998
  endloop
endfacet
facet normal -3.185348218355496e-14 -4.852747554732119e-15 -1.0
  outer loop
    vertex 736.2094792828955 1846.4477795482512 -84.79999999999998
    vertex 736.2094792828955 1849.4477795482512 -84.79999999999978
    vertex 736.4094792828955 1849.4477795482512 -84.79999999999978
  endloop
endfacet
facet normal -3.185348218355496e-14 -4.852747554732119e-15 -1.0
  outer loop
    vertex 736.2094792828955 1846.4477795482512 -84.79999999999998
    vertex 736.4094792828955 1849.4477795482512 -84.79999999999978
    vertex 739.4594792828954 1846.4477795482512 -84.8
  endloop
endfacet
facet normal -3.185348218355496e-14 -4.852747554732119e-15 -1.0
  outer loop
    vertex 739.4594792828954 1846.4477795482512 -84.8
    vertex 736.4094792828955 1849.4477795482512 -84.79999999999978
    vertex 739.4594792828954 1857.847779548251 -84.8
  endloop
endfacet
facet normal 1.0 0.0 0.0
  outer loop
    vertex 739.4594792828954 1857.847779548251 -84.8
    vertex 739.4594792828954 1846.4477795482512 -79.19999999999999
    vertex 739.4594792828954 1846.4477795482512 -84.8
  endloop
endfacet
facet normal 1.0 0.0 0.0
  outer loop
    vertex 739.4594792828954 1846.4477795482512 -79.19999999999999
    vertex 739.4594792828954 1857.847779548251 -84.8
    vertex 739.4594792828954 1857.847779548251 -79.19999999999999
  endloop
endfacet
facet normal -0.24253562503644624 0.9701425001453037 4.327799961660531e-18
  outer loop
    vertex 734.2094792828955 1848.947779548251 -79.19999999999999
    vertex 736.2094792828955 1849.4477795482512 -84.79999999999978
    vertex 734.2094792828955 1848.947779548251 -84.79999999999978
  endloop
endfacet
facet normal -0.24253562503644624 0.9701425001453037 4.327799961660531e-18
  outer loop
    vertex 736.2094792828955 1849.4477795482512 -84.79999999999978
    vertex 734.2094792828955 1848.947779548251 -79.19999999999999
    vertex 736.2094792828955 1849.4477795482512 -79.19999999999999
  endloop
endfacet
facet normal -1.0 0.0 0.0
  outer loop
    vertex 734.2094792828955 1848.947779548251 -79.19999999999999
    vertex 734.2094792828955 1846.947779548251 -84.79999999999977
    vertex 734.2094792828955 1846.947779548251 -79.19999999999997
  endloop
endfacet
facet normal -1.0 0.0 0.0
  outer loop
    vertex 734.2094792828955 1846.947779548251 -84.79999999999977
    vertex 734.2094792828955 1848.947779548251 -79.19999999999999
    vertex 734.2094792828955 1848.947779548251 -84.79999999999978
  endloop
endfacet
facet normal 1.0 0.0 0.0
  outer loop
    vertex 660.0094792828952 1857.847779548251 -84.8
    vertex 660.0094792828952 1849.4477795482512 -79.19999999999999
    vertex 660.0094792828952 1849.4477795482512 -84.80000000000011
  endloop
endfacet
facet normal 1.0 0.0 0.0
  outer loop
    vertex 660.0094792828952 1849.4477795482512 -79.19999999999999
    vertex 660.0094792828952 1857.847779548251 -84.8
    vertex 660.0094792828952 1857.847779548251 -79.19999999999999
  endloop
endfacet
facet normal 0.0 1.0 0.0
  outer loop
    vertex 660.0094792828952 1849.4477795482512 -79.19999999999999
    vertex 660.2094792828952 1849.4477795482512 -84.80000000000011
    vertex 660.0094792828952 1849.4477795482512 -84.80000000000011
  endloop
endfacet
facet normal 0.0 1.0 0.0
  outer loop
    vertex 660.2094792828952 1849.4477795482512 -84.80000000000011
    vertex 660.0094792828952 1849.4477795482512 -79.19999999999999
    vertex 660.2094792828952 1849.4477795482512 -79.19999999999999
  endloop
endfacet
facet normal -1.0 0.0 0.0
  outer loop
    vertex 736.4094792828955 1857.847779548251 -79.19999999999999
    vertex 736.4094792828955 1849.4477795482512 -84.79999999999978
    vertex 736.4094792828955 1849.4477795482512 -79.19999999999999
  endloop
endfacet
facet normal -1.0 0.0 0.0
  outer loop
    vertex 736.4094792828955 1849.4477795482512 -84.79999999999978
    vertex 736.4094792828955 1857.847779548251 -79.19999999999999
    vertex 736.4094792828955 1857.847779548251 -84.8
  endloop
endfacet
facet normal 0.0 1.0 0.0
  outer loop
    vertex 736.2094792828955 1849.4477795482512 -79.19999999999999
    vertex 736.4094792828955 1849.4477795482512 -84.79999999999978
    vertex 736.2094792828955 1849.4477795482512 -84.79999999999978
  endloop
endfacet
facet normal 0.0 1.0 0.0
  outer loop
    vertex 736.4094792828955 1849.4477795482512 -84.79999999999978
    vertex 736.2094792828955 1849.4477795482512 -79.19999999999999
    vertex 736.4094792828955 1849.4477795482512 -79.19999999999999
  endloop
endfacet
facet normal 1.0 0.0 0.0
  outer loop
    vertex 748.0094792828953 1857.847779548251 -84.8
    vertex 748.0094792828953 1849.4477795482512 -79.19999999999999
    vertex 748.0094792828953 1849.4477795482512 -84.80000000000005
  endloop
endfacet
facet normal 1.0 0.0 0.0
  outer loop
    vertex 748.0094792828953 1849.4477795482512 -79.19999999999999
    vertex 748.0094792828953 1857.847779548251 -84.8
    vertex 748.0094792828953 1857.847779548251 -79.19999999999999
  endloop
endfacet
facet normal 0.0 1.0 0.0
  outer loop
    vertex 748.0094792828953 1849.4477795482512 -79.19999999999999
    vertex 748.2094792828954 1849.4477795482512 -84.80000000000005
    vertex 748.0094792828953 1849.4477795482512 -84.80000000000005
  endloop
endfacet
facet normal 0.0 1.0 0.0
  outer loop
    vertex 748.2094792828954 1849.4477795482512 -84.80000000000005
    vertex 748.0094792828953 1849.4477795482512 -79.19999999999999
    vertex 748.2094792828954 1849.4477795482512 -79.19999999999999
  endloop
endfacet
facet normal -0.24253562503628145 -0.9701425001453449 -2.9898339821391338e-28
  outer loop
    vertex 648.2094792828954 1846.4477795482514 -84.8
    vertex 646.2094792828954 1846.9477795482514 -79.19999999999999
    vertex 646.2094792828954 1846.9477795482514 -84.80000000000015
  endloop
endfacet
facet normal -0.24253562503628145 -0.9701425001453449 -2.9898339821391338e-28
  outer loop
    vertex 646.2094792828954 1846.9477795482514 -79.19999999999999
    vertex 648.2094792828954 1846.4477795482514 -84.8
    vertex 648.2094792828954 1846.4477795482514 -79.19999999999999
  endloop
endfacet
facet normal 0.0 0.0 1.0
  outer loop
    vertex 648.2094792828954 1846.4477795482514 -79.19999999999999
    vertex 646.2094792828954 1848.9477795482512 -79.19999999999999
    vertex 646.2094792828954 1846.9477795482514 -79.19999999999999
  endloop
endfacet
facet normal 0.0 0.0 1.0
  outer loop
    vertex 646.2094792828954 1848.9477795482512 -79.19999999999999
    vertex 648.2094792828954 1846.4477795482514 -79.19999999999999
    vertex 648.2094792828954 1849.4477795482512 -79.19999999999999
  endloop
endfacet
facet normal 0.0 0.0 1.0
  outer loop
    vertex 648.2094792828954 1849.4477795482512 -79.19999999999999
    vertex 648.2094792828954 1846.4477795482514 -79.19999999999999
    vertex 651.4594792828952 1846.4477795482514 -79.19999999999999
  endloop
endfacet
facet normal 0.0 0.0 1.0
  outer loop
    vertex 648.2094792828954 1849.4477795482512 -79.19999999999999
    vertex 651.4594792828952 1846.4477795482514 -79.19999999999999
    vertex 648.4094792828954 1849.4477795482512 -79.19999999999999
  endloop
endfacet
facet normal 0.0 0.0 1.0
  outer loop
    vertex 648.4094792828954 1849.4477795482512 -79.19999999999999
    vertex 651.4594792828952 1846.4477795482514 -79.19999999999999
    vertex 648.4094792828954 1857.847779548251 -79.19999999999999
  endloop
endfacet
facet normal 0.0 0.0 1.0
  outer loop
    vertex 648.4094792828954 1857.847779548251 -79.19999999999999
    vertex 651.4594792828952 1846.4477795482514 -79.19999999999999
    vertex 651.4594792828952 1857.847779548251 -79.19999999999999
  endloop
endfacet
facet normal -0.24253562503628145 0.9701425001453449 0.0
  outer loop
    vertex 646.2094792828954 1848.9477795482512 -79.19999999999999
    vertex 648.2094792828954 1849.4477795482512 -84.80000000000015
    vertex 646.2094792828954 1848.9477795482512 -84.80000000000015
  endloop
endfacet
facet normal -0.24253562503628145 0.9701425001453449 0.0
  outer loop
    vertex 648.2094792828954 1849.4477795482512 -84.80000000000015
    vertex 646.2094792828954 1848.9477795482512 -79.19999999999999
    vertex 648.2094792828954 1849.4477795482512 -79.19999999999999
  endloop
endfacet
facet normal 0.0 1.0 0.0
  outer loop
    vertex 648.2094792828954 1849.4477795482512 -79.19999999999999
    vertex 648.4094792828954 1849.4477795482512 -84.80000000000015
    vertex 648.2094792828954 1849.4477795482512 -84.80000000000015
  endloop
endfacet
facet normal 0.0 1.0 0.0
  outer loop
    vertex 648.4094792828954 1849.4477795482512 -84.80000000000015
    vertex 648.2094792828954 1849.4477795482512 -79.19999999999999
    vertex 648.4094792828954 1849.4477795482512 -79.19999999999999
  endloop
endfacet
facet normal 2.4639776026740992e-14 3.4915553641528706e-15 -1.0
  outer loop
    vertex 651.4594792828952 1857.847779548251 -84.8
    vertex 648.4094792828954 1849.4477795482512 -84.80000000000015
    vertex 648.4094792828954 1857.847779548251 -84.8
  endloop
endfacet
facet normal 2.4639776026740992e-14 3.4915553641528706e-15 -1.0
  outer loop
    vertex 648.2094792828954 1849.4477795482512 -84.80000000000015
    vertex 646.2094792828954 1846.9477795482514 -84.80000000000015
    vertex 646.2094792828954 1848.9477795482512 -84.80000000000015
  endloop
endfacet
facet normal 2.4639776026740992e-14 3.4915553641528706e-15 -1.0
  outer loop
    vertex 646.2094792828954 1846.9477795482514 -84.80000000000015
    vertex 648.2094792828954 1849.4477795482512 -84.80000000000015
    vertex 648.2094792828954 1846.4477795482514 -84.8
  endloop
endfacet
facet normal 2.4639776026740992e-14 3.4915553641528706e-15 -1.0
  outer loop
    vertex 648.2094792828954 1846.4477795482514 -84.8
    vertex 648.2094792828954 1849.4477795482512 -84.80000000000015
    vertex 648.4094792828954 1849.4477795482512 -84.80000000000015
  endloop
endfacet
facet normal 2.4639776026740992e-14 3.4915553641528706e-15 -1.0
  outer loop
    vertex 648.2094792828954 1846.4477795482514 -84.8
    vertex 648.4094792828954 1849.4477795482512 -84.80000000000015
    vertex 651.4594792828952 1846.4477795482514 -84.8
  endloop
endfacet
facet normal 2.4639776026740992e-14 3.4915553641528706e-15 -1.0
  outer loop
    vertex 651.4594792828952 1846.4477795482514 -84.8
    vertex 648.4094792828954 1849.4477795482512 -84.80000000000015
    vertex 651.4594792828952 1857.847779548251 -84.8
  endloop
endfacet
facet normal -1.0 0.0 0.0
  outer loop
    vertex 648.4094792828954 1857.847779548251 -79.19999999999999
    vertex 648.4094792828954 1849.4477795482512 -84.80000000000015
    vertex 648.4094792828954 1849.4477795482512 -79.19999999999999
  endloop
endfacet
facet normal -1.0 0.0 0.0
  outer loop
    vertex 648.4094792828954 1849.4477795482512 -84.80000000000015
    vertex 648.4094792828954 1857.847779548251 -79.19999999999999
    vertex 648.4094792828954 1857.847779548251 -84.8
  endloop
endfacet
facet normal -1.0 0.0 0.0
  outer loop
    vertex 646.2094792828954 1848.9477795482512 -79.19999999999999
    vertex 646.2094792828954 1846.9477795482514 -84.80000000000015
    vertex 646.2094792828954 1846.9477795482514 -79.19999999999999
  endloop
endfacet
facet normal -1.0 0.0 0.0
  outer loop
    vertex 646.2094792828954 1846.9477795482514 -84.80000000000015
    vertex 646.2094792828954 1848.9477795482512 -79.19999999999999
    vertex 646.2094792828954 1848.9477795482512 -84.80000000000015
  endloop
endfacet
facet normal -0.24253562503628145 -0.9701425001453449 -4.327799961013772e-18
  outer loop
    vertex 736.2094792828955 1846.4477795482512 -79.19999999999997
    vertex 734.2094792828955 1846.947779548251 -84.79999999999977
    vertex 736.2094792828955 1846.4477795482512 -84.79999999999998
  endloop
endfacet
facet normal -0.24253562503628145 -0.9701425001453449 -4.327799961013772e-18
  outer loop
    vertex 734.2094792828955 1846.947779548251 -84.79999999999977
    vertex 736.2094792828955 1846.4477795482512 -79.19999999999997
    vertex 734.2094792828955 1846.947779548251 -79.19999999999997
  endloop
endfacet
facet normal 0.13052619221998144 -0.9914448613738197 0.0
  outer loop
    vertex 623.2447554633056 2009.9840762430945 -62.0
    vertex 622.2094792828956 2009.8477795482509 -97.99999999999989
    vertex 623.2447554633056 2009.9840762430945 -97.99999999999989
  endloop
endfacet
facet normal 0.13052619221998144 -0.9914448613738197 0.0
  outer loop
    vertex 622.2094792828956 2009.8477795482509 -97.99999999999989
    vertex 623.2447554633056 2009.9840762430945 -62.0
    vertex 622.2094792828956 2009.8477795482509 -62.0
  endloop
endfacet
facet normal 0.3826834323651444 -0.9238795325112642 0.0
  outer loop
    vertex 624.2094792828956 2010.3836779331132 -62.0
    vertex 623.2447554633056 2009.9840762430945 -97.99999999999989
    vertex 624.2094792828956 2010.3836779331132 -97.99999999999989
  endloop
endfacet
facet normal 0.3826834323651444 -0.9238795325112642 0.0
  outer loop
    vertex 623.2447554633056 2009.9840762430945 -97.99999999999989
    vertex 624.2094792828956 2010.3836779331132 -62.0
    vertex 623.2447554633056 2009.9840762430945 -62.0
  endloop
endfacet
facet normal 0.6087614290086991 -0.7933533402912517 0.0
  outer loop
    vertex 625.0379064076418 2011.0193524235046 -62.0
    vertex 624.2094792828956 2010.3836779331132 -97.99999999999989
    vertex 625.0379064076418 2011.0193524235046 -97.99999999999989
  endloop
endfacet
facet normal 0.6087614290086991 -0.7933533402912517 0.0
  outer loop
    vertex 624.2094792828956 2010.3836779331132 -97.99999999999989
    vertex 625.0379064076418 2011.0193524235046 -62.0
    vertex 624.2094792828956 2010.3836779331132 -62.0
  endloop
endfacet
facet normal 0.7933533402913061 -0.6087614290086283 0.0
  outer loop
    vertex 625.6735808980335 2011.847779548251 -97.99999999999989
    vertex 625.0379064076418 2011.0193524235046 -62.0
    vertex 625.0379064076418 2011.0193524235046 -97.99999999999989
  endloop
endfacet
facet normal 0.7933533402913061 -0.6087614290086283 0.0
  outer loop
    vertex 625.0379064076418 2011.0193524235046 -62.0
    vertex 625.6735808980335 2011.847779548251 -97.99999999999989
    vertex 625.6735808980335 2011.847779548251 -62.0
  endloop
endfacet
facet normal 0.9238795325112693 -0.3826834323651317 0.0
  outer loop
    vertex 626.073182588052 2012.812503367841 -97.99999999999989
    vertex 625.6735808980335 2011.847779548251 -62.0
    vertex 625.6735808980335 2011.847779548251 -97.99999999999989
  endloop
endfacet
facet normal 0.9238795325112693 -0.3826834323651317 0.0
  outer loop
    vertex 625.6735808980335 2011.847779548251 -62.0
    vertex 626.073182588052 2012.812503367841 -97.99999999999989
    vertex 626.073182588052 2012.812503367841 -62.0
  endloop
endfacet
facet normal 0.9914448613738086 -0.1305261922200664 0.0
  outer loop
    vertex 626.2094792828957 2013.847779548251 -97.99999999999989
    vertex 626.073182588052 2012.812503367841 -62.0
    vertex 626.073182588052 2012.812503367841 -97.99999999999989
  endloop
endfacet
facet normal 0.9914448613738086 -0.1305261922200664 0.0
  outer loop
    vertex 626.073182588052 2012.812503367841 -62.0
    vertex 626.2094792828957 2013.847779548251 -97.99999999999989
    vertex 626.2094792828957 2013.847779548251 -62.0
  endloop
endfacet
facet normal -0.9914448613738308 0.1305261922198965 0.0
  outer loop
    vertex 618.3457759777391 2014.883055728661 -62.0
    vertex 618.2094792828956 2013.847779548251 -103.99999999999994
    vertex 618.2094792828956 2013.847779548251 -62.0
  endloop
endfacet
facet normal -0.9914448613738308 0.1305261922198965 0.0
  outer loop
    vertex 618.2094792828956 2013.847779548251 -103.99999999999994
    vertex 618.3457759777391 2014.883055728661 -62.0
    vertex 618.3457759777391 2014.883055728661 -103.99999999999994
  endloop
endfacet
facet normal -0.13052619221998144 0.9914448613738197 0.0
  outer loop
    vertex 621.1742031024854 2017.7114828534075 -62.0
    vertex 622.2094792828956 2017.847779548251 -103.99999999999994
    vertex 621.1742031024854 2017.7114828534075 -103.99999999999994
  endloop
endfacet
facet normal -0.13052619221998144 0.9914448613738197 0.0
  outer loop
    vertex 622.2094792828956 2017.847779548251 -103.99999999999994
    vertex 621.1742031024854 2017.7114828534075 -62.0
    vertex 622.2094792828956 2017.847779548251 -62.0
  endloop
endfacet
facet normal -0.3826834323651444 0.9238795325112642 0.0
  outer loop
    vertex 620.2094792828955 2017.311881163389 -62.0
    vertex 621.1742031024854 2017.7114828534075 -103.99999999999994
    vertex 620.2094792828955 2017.311881163389 -103.99999999999994
  endloop
endfacet
facet normal -0.3826834323651444 0.9238795325112642 0.0
  outer loop
    vertex 621.1742031024854 2017.7114828534075 -103.99999999999994
    vertex 620.2094792828955 2017.311881163389 -62.0
    vertex 621.1742031024854 2017.7114828534075 -62.0
  endloop
endfacet
facet normal -0.6087614290086991 0.7933533402912518 0.0
  outer loop
    vertex 619.3810521581493 2016.6762066729973 -62.0
    vertex 620.2094792828955 2017.311881163389 -103.99999999999994
    vertex 619.3810521581493 2016.6762066729973 -103.99999999999994
  endloop
endfacet
facet normal -0.6087614290086991 0.7933533402912518 0.0
  outer loop
    vertex 620.2094792828955 2017.311881163389 -103.99999999999994
    vertex 619.3810521581493 2016.6762066729973 -62.0
    vertex 620.2094792828955 2017.311881163389 -62.0
  endloop
endfacet
facet normal -0.793353340291306 0.6087614290086283 0.0
  outer loop
    vertex 619.3810521581493 2016.6762066729973 -62.0
    vertex 618.7453776677576 2015.8477795482509 -103.99999999999994
    vertex 618.7453776677576 2015.8477795482509 -62.0
  endloop
endfacet
facet normal -0.793353340291306 0.6087614290086283 0.0
  outer loop
    vertex 618.7453776677576 2015.8477795482509 -103.99999999999994
    vertex 619.3810521581493 2016.6762066729973 -62.0
    vertex 619.3810521581493 2016.6762066729973 -103.99999999999994
  endloop
endfacet
facet normal -0.9238795325112693 0.3826834323651317 0.0
  outer loop
    vertex 618.7453776677576 2015.8477795482509 -62.0
    vertex 618.3457759777391 2014.883055728661 -103.99999999999994
    vertex 618.3457759777391 2014.883055728661 -62.0
  endloop
endfacet
facet normal -0.9238795325112693 0.3826834323651317 0.0
  outer loop
    vertex 618.3457759777391 2014.883055728661 -103.99999999999994
    vertex 618.7453776677576 2015.8477795482509 -62.0
    vertex 618.7453776677576 2015.8477795482509 -103.99999999999994
  endloop
endfacet
facet normal 0.0 1.0 0.0
  outer loop
    vertex 622.2094792828956 2017.847779548251 -103.99999999999994
    vertex 774.2094792828955 2017.847779548251 -62.0
    vertex 774.2094792828955 2017.847779548251 -103.99999999999999
  endloop
endfacet
facet normal 0.0 1.0 0.0
  outer loop
    vertex 774.2094792828955 2017.847779548251 -62.0
    vertex 622.2094792828956 2017.847779548251 -103.99999999999994
    vertex 622.2094792828956 2017.847779548251 -62.0
  endloop
endfacet
facet normal 0.0 0.0 1.0
  outer loop
    vertex 622.2094792828954 1857.847779548251 -62.0
    vertex 626.2094792828954 1861.8477795482513 -62.0
    vertex 622.2094792828954 1865.847779548251 -62.0
  endloop
endfacet
facet normal 0.0 0.0 1.0
  outer loop
    vertex 626.2094792828954 1861.8477795482513 -62.0
    vertex 622.2094792828954 1857.847779548251 -62.0
    vertex 774.2094792828955 1857.847779548251 -62.0
  endloop
endfacet
facet normal 0.0 0.0 1.0
  outer loop
    vertex 622.2094792828954 1865.847779548251 -62.0
    vertex 626.2094792828954 1861.8477795482513 -62.0
    vertex 623.2447554633054 1865.7114828534075 -62.0
  endloop
endfacet
facet normal 0.0 0.0 1.0
  outer loop
    vertex 623.2447554633054 1865.7114828534075 -62.0
    vertex 626.2094792828954 1861.8477795482513 -62.0
    vertex 624.2094792828954 1865.3118811633892 -62.0
  endloop
endfacet
facet normal 0.0 0.0 1.0
  outer loop
    vertex 624.2094792828954 1865.3118811633892 -62.0
    vertex 626.2094792828954 1861.8477795482513 -62.0
    vertex 625.0379064076416 1864.6762066729973 -62.0
  endloop
endfacet
facet normal 0.0 0.0 1.0
  outer loop
    vertex 625.0379064076416 1864.6762066729973 -62.0
    vertex 626.2094792828954 1861.8477795482513 -62.0
    vertex 625.673580898033 1863.847779548251 -62.0
  endloop
endfacet
facet normal 0.0 0.0 1.0
  outer loop
    vertex 625.673580898033 1863.847779548251 -62.0
    vertex 626.2094792828954 1861.8477795482513 -62.0
    vertex 626.0731825880516 1862.8830557286615 -62.0
  endloop
endfacet
facet normal 0.0 0.0 1.0
  outer loop
    vertex 626.2094792828954 1861.8477795482513 -62.0
    vertex 774.2094792828955 1857.847779548251 -62.0
    vertex 770.2094792828955 1861.8477795482513 -62.0
  endloop
endfacet
facet normal 0.0 0.0 1.0
  outer loop
    vertex 770.2094792828955 1861.8477795482513 -62.0
    vertex 774.2094792828955 1857.847779548251 -62.0
    vertex 770.3457759777392 1862.8830557286615 -62.0
  endloop
endfacet
facet normal 0.0 0.0 1.0
  outer loop
    vertex 770.3457759777392 1862.8830557286615 -62.0
    vertex 774.2094792828955 1857.847779548251 -62.0
    vertex 770.7453776677577 1863.847779548251 -62.0
  endloop
endfacet
facet normal 0.0 0.0 1.0
  outer loop
    vertex 770.7453776677577 1863.847779548251 -62.0
    vertex 774.2094792828955 1857.847779548251 -62.0
    vertex 771.3810521581493 1864.6762066729973 -62.0
  endloop
endfacet
facet normal 0.0 0.0 1.0
  outer loop
    vertex 771.3810521581493 1864.6762066729973 -62.0
    vertex 774.2094792828955 1857.847779548251 -62.0
    vertex 772.2094792828955 1865.3118811633892 -62.0
  endloop
endfacet
facet normal 0.0 0.0 1.0
  outer loop
    vertex 772.2094792828955 1865.3118811633892 -62.0
    vertex 774.2094792828955 1857.847779548251 -62.0
    vertex 773.1742031024854 1865.7114828534075 -62.0
  endloop
endfacet
facet normal 0.0 0.0 1.0
  outer loop
    vertex 773.1742031024854 1865.7114828534075 -62.0
    vertex 774.2094792828955 1857.847779548251 -62.0
    vertex 774.2094792828955 1865.847779548251 -62.0
  endloop
endfacet
facet normal 0.0 0.0 1.0
  outer loop
    vertex 774.2094792828955 1865.847779548251 -62.0
    vertex 774.2094792828955 1857.847779548251 -62.0
    vertex 775.2447554633055 1857.9840762430952 -62.0
  endloop
endfacet
facet normal 0.0 0.0 1.0
  outer loop
    vertex 774.2094792828955 1865.847779548251 -62.0
    vertex 775.2447554633055 1857.9840762430952 -62.0
    vertex 774.2094792828955 2009.8477795482509 -62.0
  endloop
endfacet
facet normal 0.0 0.0 1.0
  outer loop
    vertex 774.2094792828955 2009.8477795482509 -62.0
    vertex 775.2447554633055 1857.9840762430952 -62.0
    vertex 774.2094792828955 2017.847779548251 -62.0
  endloop
endfacet
facet normal 0.0 0.0 1.0
  outer loop
    vertex 774.2094792828955 2017.847779548251 -62.0
    vertex 775.2447554633055 1857.9840762430952 -62.0
    vertex 775.2447554633055 2017.7114828534072 -62.0
  endloop
endfacet
facet normal 0.0 0.0 1.0
  outer loop
    vertex 775.2447554633055 2017.7114828534072 -62.0
    vertex 775.2447554633055 1857.9840762430952 -62.0
    vertex 776.2094792828955 1858.3836779331134 -62.0
  endloop
endfacet
facet normal 0.0 0.0 1.0
  outer loop
    vertex 775.2447554633055 2017.7114828534072 -62.0
    vertex 776.2094792828955 1858.3836779331134 -62.0
    vertex 776.2094792828955 2017.311881163389 -62.0
  endloop
endfacet
facet normal 0.0 0.0 1.0
  outer loop
    vertex 776.2094792828955 2017.311881163389 -62.0
    vertex 776.2094792828955 1858.3836779331134 -62.0
    vertex 777.0379064076417 1859.0193524235053 -62.0
  endloop
endfacet
facet normal 0.0 0.0 1.0
  outer loop
    vertex 776.2094792828955 2017.311881163389 -62.0
    vertex 777.0379064076417 1859.0193524235053 -62.0
    vertex 777.0379064076417 2016.676206672997 -62.0
  endloop
endfacet
facet normal 0.0 0.0 1.0
  outer loop
    vertex 777.0379064076417 2016.676206672997 -62.0
    vertex 777.0379064076417 1859.0193524235053 -62.0
    vertex 777.6735808980332 1859.8477795482513 -62.0
  endloop
endfacet
facet normal 0.0 0.0 1.0
  outer loop
    vertex 777.0379064076417 2016.676206672997 -62.0
    vertex 777.6735808980332 1859.8477795482513 -62.0
    vertex 777.6735808980332 2015.8477795482509 -62.0
  endloop
endfacet
facet normal 0.0 0.0 1.0
  outer loop
    vertex 777.6735808980332 2015.8477795482509 -62.0
    vertex 777.6735808980332 1859.8477795482513 -62.0
    vertex 778.0731825880517 1860.8125033678411 -62.0
  endloop
endfacet
facet normal 0.0 0.0 1.0
  outer loop
    vertex 777.6735808980332 2015.8477795482509 -62.0
    vertex 778.0731825880517 1860.8125033678411 -62.0
    vertex 778.0731825880517 2014.883055728661 -62.0
  endloop
endfacet
facet normal 0.0 0.0 1.0
  outer loop
    vertex 778.0731825880517 2014.883055728661 -62.0
    vertex 778.0731825880517 1860.8125033678411 -62.0
    vertex 778.2094792828955 1861.8477795482513 -62.0
  endloop
endfacet
facet normal 0.0 0.0 1.0
  outer loop
    vertex 778.0731825880517 2014.883055728661 -62.0
    vertex 778.2094792828955 1861.8477795482513 -62.0
    vertex 778.2094792828955 2013.847779548251 -62.0
  endloop
endfacet
facet normal 0.0 0.0 1.0
  outer loop
    vertex 778.2094792828955 2013.847779548251 -62.0
    vertex 778.2094792828955 1861.8477795482513 -62.0
    vertex 778.2094792828955 2013.067779548251 -62.0
  endloop
endfacet
facet normal 0.0 0.0 1.0
  outer loop
    vertex 618.3457759777391 1860.8125033678411 -62.0
    vertex 618.2094792828956 2013.847779548251 -62.0
    vertex 618.2094792828954 1861.8477795482513 -62.0
  endloop
endfacet
facet normal 0.0 0.0 1.0
  outer loop
    vertex 618.2094792828956 2013.847779548251 -62.0
    vertex 618.3457759777391 1860.8125033678411 -62.0
    vertex 618.3457759777391 2014.883055728661 -62.0
  endloop
endfacet
facet normal 0.0 0.0 1.0
  outer loop
    vertex 618.3457759777391 2014.883055728661 -62.0
    vertex 618.3457759777391 1860.8125033678411 -62.0
    vertex 618.7453776677576 1859.8477795482513 -62.0
  endloop
endfacet
facet normal 0.0 0.0 1.0
  outer loop
    vertex 618.3457759777391 2014.883055728661 -62.0
    vertex 618.7453776677576 1859.8477795482513 -62.0
    vertex 618.7453776677576 2015.8477795482509 -62.0
  endloop
endfacet
facet normal 0.0 0.0 1.0
  outer loop
    vertex 618.7453776677576 2015.8477795482509 -62.0
    vertex 618.7453776677576 1859.8477795482513 -62.0
    vertex 619.3810521581491 1859.0193524235053 -62.0
  endloop
endfacet
facet normal 0.0 0.0 1.0
  outer loop
    vertex 618.7453776677576 2015.8477795482509 -62.0
    vertex 619.3810521581491 1859.0193524235053 -62.0
    vertex 619.3810521581493 2016.6762066729973 -62.0
  endloop
endfacet
facet normal 0.0 0.0 1.0
  outer loop
    vertex 619.3810521581493 2016.6762066729973 -62.0
    vertex 619.3810521581491 1859.0193524235053 -62.0
    vertex 620.2094792828954 1858.3836779331134 -62.0
  endloop
endfacet
facet normal 0.0 0.0 1.0
  outer loop
    vertex 619.3810521581493 2016.6762066729973 -62.0
    vertex 620.2094792828954 1858.3836779331134 -62.0
    vertex 620.2094792828955 2017.311881163389 -62.0
  endloop
endfacet
facet normal 0.0 0.0 1.0
  outer loop
    vertex 620.2094792828955 2017.311881163389 -62.0
    vertex 620.2094792828954 1858.3836779331134 -62.0
    vertex 621.1742031024853 1857.9840762430952 -62.0
  endloop
endfacet
facet normal 0.0 0.0 1.0
  outer loop
    vertex 620.2094792828955 2017.311881163389 -62.0
    vertex 621.1742031024853 1857.9840762430952 -62.0
    vertex 621.1742031024854 2017.7114828534075 -62.0
  endloop
endfacet
facet normal 0.0 0.0 1.0
  outer loop
    vertex 621.1742031024854 2017.7114828534075 -62.0
    vertex 621.1742031024853 1857.9840762430952 -62.0
    vertex 622.2094792828954 1857.847779548251 -62.0
  endloop
endfacet
facet normal 0.0 0.0 1.0
  outer loop
    vertex 621.1742031024854 2017.7114828534075 -62.0
    vertex 622.2094792828954 1857.847779548251 -62.0
    vertex 622.2094792828954 1865.847779548251 -62.0
  endloop
endfacet
facet normal 0.0 0.0 1.0
  outer loop
    vertex 621.1742031024854 2017.7114828534075 -62.0
    vertex 622.2094792828954 1865.847779548251 -62.0
    vertex 622.2094792828956 2017.847779548251 -62.0
  endloop
endfacet
facet normal 0.0 0.0 1.0
  outer loop
    vertex 622.2094792828956 2017.847779548251 -62.0
    vertex 622.2094792828954 1865.847779548251 -62.0
    vertex 622.2094792828956 2009.8477795482509 -62.0
  endloop
endfacet
facet normal 0.0 0.0 1.0
  outer loop
    vertex 622.2094792828956 2017.847779548251 -62.0
    vertex 622.2094792828956 2009.8477795482509 -62.0
    vertex 623.2447554633056 2009.9840762430945 -62.0
  endloop
endfacet
facet normal 0.0 0.0 1.0
  outer loop
    vertex 622.2094792828956 2017.847779548251 -62.0
    vertex 623.2447554633056 2009.9840762430945 -62.0
    vertex 626.2094792828957 2013.847779548251 -62.0
  endloop
endfacet
facet normal 0.0 0.0 1.0
  outer loop
    vertex 622.2094792828956 2017.847779548251 -62.0
    vertex 626.2094792828957 2013.847779548251 -62.0
    vertex 774.2094792828955 2017.847779548251 -62.0
  endloop
endfacet
facet normal 0.0 0.0 1.0
  outer loop
    vertex 626.2094792828957 2013.847779548251 -62.0
    vertex 623.2447554633056 2009.9840762430945 -62.0
    vertex 624.2094792828956 2010.3836779331132 -62.0
  endloop
endfacet
facet normal 0.0 0.0 1.0
  outer loop
    vertex 626.2094792828957 2013.847779548251 -62.0
    vertex 624.2094792828956 2010.3836779331132 -62.0
    vertex 625.0379064076418 2011.0193524235046 -62.0
  endloop
endfacet
facet normal 0.0 0.0 1.0
  outer loop
    vertex 626.2094792828957 2013.847779548251 -62.0
    vertex 625.0379064076418 2011.0193524235046 -62.0
    vertex 625.6735808980335 2011.847779548251 -62.0
  endloop
endfacet
facet normal 0.0 0.0 1.0
  outer loop
    vertex 626.2094792828957 2013.847779548251 -62.0
    vertex 625.6735808980335 2011.847779548251 -62.0
    vertex 626.073182588052 2012.812503367841 -62.0
  endloop
endfacet
facet normal 0.0 0.0 1.0
  outer loop
    vertex 774.2094792828955 2017.847779548251 -62.0
    vertex 626.2094792828957 2013.847779548251 -62.0
    vertex 770.2094792828955 2013.847779548251 -62.0
  endloop
endfacet
facet normal 0.0 0.0 1.0
  outer loop
    vertex 774.2094792828955 2017.847779548251 -62.0
    vertex 770.2094792828955 2013.847779548251 -62.0
    vertex 770.3457759777392 2012.812503367841 -62.0
  endloop
endfacet
facet normal 0.0 0.0 1.0
  outer loop
    vertex 774.2094792828955 2017.847779548251 -62.0
    vertex 770.3457759777392 2012.812503367841 -62.0
    vertex 770.7453776677577 2011.847779548251 -62.0
  endloop
endfacet
facet normal 0.0 0.0 1.0
  outer loop
    vertex 774.2094792828955 2017.847779548251 -62.0
    vertex 770.7453776677577 2011.847779548251 -62.0
    vertex 771.3810521581493 2011.0193524235049 -62.0
  endloop
endfacet
facet normal 0.0 0.0 1.0
  outer loop
    vertex 774.2094792828955 2017.847779548251 -62.0
    vertex 771.3810521581493 2011.0193524235049 -62.0
    vertex 772.2094792828955 2010.3836779331132 -62.0
  endloop
endfacet
facet normal 0.0 0.0 1.0
  outer loop
    vertex 774.2094792828955 2017.847779548251 -62.0
    vertex 772.2094792828955 2010.3836779331132 -62.0
    vertex 773.1742031024854 2009.984076243095 -62.0
  endloop
endfacet
facet normal 0.0 0.0 1.0
  outer loop
    vertex 774.2094792828955 2017.847779548251 -62.0
    vertex 773.1742031024854 2009.984076243095 -62.0
    vertex 774.2094792828955 2009.8477795482509 -62.0
  endloop
endfacet
facet normal 0.13052619221999265 0.9914448613738182 0.0
  outer loop
    vertex 622.2094792828954 1865.847779548251 -62.0
    vertex 623.2447554633054 1865.7114828534075 -97.99999999999997
    vertex 622.2094792828954 1865.847779548251 -97.99999999999997
  endloop
endfacet
facet normal 0.13052619221999265 0.9914448613738182 0.0
  outer loop
    vertex 623.2447554633054 1865.7114828534075 -97.99999999999997
    vertex 622.2094792828954 1865.847779548251 -62.0
    vertex 623.2447554633054 1865.7114828534075 -62.0
  endloop
endfacet
facet normal 0.9914448613738086 0.1305261922200664 0.0
  outer loop
    vertex 626.0731825880516 1862.8830557286615 -97.99999999999997
    vertex 626.2094792828954 1861.8477795482513 -62.0
    vertex 626.2094792828954 1861.8477795482513 -97.99999999999997
  endloop
endfacet
facet normal 0.9914448613738086 0.1305261922200664 0.0
  outer loop
    vertex 626.2094792828954 1861.8477795482513 -62.0
    vertex 626.0731825880516 1862.8830557286615 -97.99999999999997
    vertex 626.0731825880516 1862.8830557286615 -62.0
  endloop
endfacet
facet normal 0.9238795325112693 0.3826834323651317 0.0
  outer loop
    vertex 625.673580898033 1863.847779548251 -97.99999999999997
    vertex 626.0731825880516 1862.8830557286615 -62.0
    vertex 626.0731825880516 1862.8830557286615 -97.99999999999997
  endloop
endfacet
facet normal 0.9238795325112693 0.3826834323651317 0.0
  outer loop
    vertex 626.0731825880516 1862.8830557286615 -62.0
    vertex 625.673580898033 1863.847779548251 -97.99999999999997
    vertex 625.673580898033 1863.847779548251 -62.0
  endloop
endfacet
facet normal 0.7933533402912198 0.6087614290087409 0.0
  outer loop
    vertex 625.0379064076416 1864.6762066729973 -97.99999999999997
    vertex 625.673580898033 1863.847779548251 -62.0
    vertex 625.673580898033 1863.847779548251 -97.99999999999997
  endloop
endfacet
facet normal 0.7933533402912198 0.6087614290087409 0.0
  outer loop
    vertex 625.673580898033 1863.847779548251 -62.0
    vertex 625.0379064076416 1864.6762066729973 -97.99999999999997
    vertex 625.0379064076416 1864.6762066729973 -62.0
  endloop
endfacet
facet normal 0.6087614290089166 0.7933533402910847 0.0
  outer loop
    vertex 624.2094792828954 1865.3118811633892 -62.0
    vertex 625.0379064076416 1864.6762066729973 -97.99999999999997
    vertex 624.2094792828954 1865.3118811633892 -97.99999999999997
  endloop
endfacet
facet normal 0.6087614290089166 0.7933533402910847 0.0
  outer loop
    vertex 625.0379064076416 1864.6762066729973 -97.99999999999997
    vertex 624.2094792828954 1865.3118811633892 -62.0
    vertex 625.0379064076416 1864.6762066729973 -62.0
  endloop
endfacet
facet normal 0.3826834323648493 0.9238795325113863 0.0
  outer loop
    vertex 623.2447554633054 1865.7114828534075 -62.0
    vertex 624.2094792828954 1865.3118811633892 -97.99999999999997
    vertex 623.2447554633054 1865.7114828534075 -97.99999999999997
  endloop
endfacet
facet normal 0.3826834323648493 0.9238795325113863 0.0
  outer loop
    vertex 624.2094792828954 1865.3118811633892 -97.99999999999997
    vertex 623.2447554633054 1865.7114828534075 -62.0
    vertex 624.2094792828954 1865.3118811633892 -62.0
  endloop
endfacet
facet normal -0.13052619221999262 0.9914448613738182 0.0
  outer loop
    vertex 773.1742031024854 1865.7114828534075 -62.0
    vertex 774.2094792828955 1865.847779548251 -97.99999999999993
    vertex 773.1742031024854 1865.7114828534075 -97.99999999999993
  endloop
endfacet
facet normal -0.13052619221999262 0.9914448613738182 0.0
  outer loop
    vertex 774.2094792828955 1865.847779548251 -97.99999999999993
    vertex 773.1742031024854 1865.7114828534075 -62.0
    vertex 774.2094792828955 1865.847779548251 -62.0
  endloop
endfacet
facet normal -0.3826834323648493 0.9238795325113863 0.0
  outer loop
    vertex 772.2094792828955 1865.3118811633892 -62.0
    vertex 773.1742031024854 1865.7114828534075 -97.99999999999993
    vertex 772.2094792828955 1865.3118811633892 -97.99999999999993
  endloop
endfacet
facet normal -0.3826834323648493 0.9238795325113863 0.0
  outer loop
    vertex 773.1742031024854 1865.7114828534075 -97.99999999999993
    vertex 772.2094792828955 1865.3118811633892 -62.0
    vertex 773.1742031024854 1865.7114828534075 -62.0
  endloop
endfacet
facet normal -0.6087614290089166 0.7933533402910847 0.0
  outer loop
    vertex 771.3810521581493 1864.6762066729973 -62.0
    vertex 772.2094792828955 1865.3118811633892 -97.99999999999993
    vertex 771.3810521581493 1864.6762066729973 -97.99999999999993
  endloop
endfacet
facet normal -0.6087614290089166 0.7933533402910847 0.0
  outer loop
    vertex 772.2094792828955 1865.3118811633892 -97.99999999999993
    vertex 771.3810521581493 1864.6762066729973 -62.0
    vertex 772.2094792828955 1865.3118811633892 -62.0
  endloop
endfacet
facet normal -0.7933533402912198 0.6087614290087409 0.0
  outer loop
    vertex 771.3810521581493 1864.6762066729973 -62.0
    vertex 770.7453776677577 1863.847779548251 -97.99999999999993
    vertex 770.7453776677577 1863.847779548251 -62.0
  endloop
endfacet
facet normal -0.7933533402912198 0.6087614290087409 0.0
  outer loop
    vertex 770.7453776677577 1863.847779548251 -97.99999999999993
    vertex 771.3810521581493 1864.6762066729973 -62.0
    vertex 771.3810521581493 1864.6762066729973 -97.99999999999993
  endloop
endfacet
facet normal -0.9238795325112693 0.3826834323651317 0.0
  outer loop
    vertex 770.7453776677577 1863.847779548251 -62.0
    vertex 770.3457759777392 1862.8830557286615 -97.99999999999993
    vertex 770.3457759777392 1862.8830557286615 -62.0
  endloop
endfacet
facet normal -0.9238795325112693 0.3826834323651317 0.0
  outer loop
    vertex 770.3457759777392 1862.8830557286615 -97.99999999999993
    vertex 770.7453776677577 1863.847779548251 -62.0
    vertex 770.7453776677577 1863.847779548251 -97.99999999999993
  endloop
endfacet
facet normal -0.9914448613738086 0.1305261922200664 0.0
  outer loop
    vertex 770.3457759777392 1862.8830557286615 -62.0
    vertex 770.2094792828955 1861.8477795482513 -97.99999999999993
    vertex 770.2094792828955 1861.8477795482513 -62.0
  endloop
endfacet
facet normal -0.9914448613738086 0.1305261922200664 0.0
  outer loop
    vertex 770.2094792828955 1861.8477795482513 -97.99999999999993
    vertex 770.3457759777392 1862.8830557286615 -62.0
    vertex 770.3457759777392 1862.8830557286615 -97.99999999999993
  endloop
endfacet
facet normal -0.9914448613738086 -0.1305261922200664 -7.786843156072081e-31
  outer loop
    vertex 770.2094792828955 2013.847779548251 -62.0
    vertex 770.3457759777392 2012.812503367841 -98.00000000000003
    vertex 770.3457759777392 2012.812503367841 -62.0
  endloop
endfacet
facet normal -0.9914448613738086 -0.1305261922200664 -7.786843156072081e-31
  outer loop
    vertex 770.3457759777392 2012.812503367841 -98.00000000000003
    vertex 770.2094792828955 2013.847779548251 -62.0
    vertex 770.2094792828955 2013.847779548251 -98.00000000000003
  endloop
endfacet
facet normal -0.9238795325112693 -0.3826834323651317 -0.0
  outer loop
    vertex 770.3457759777392 2012.812503367841 -62.0
    vertex 770.7453776677577 2011.847779548251 -98.00000000000003
    vertex 770.7453776677577 2011.847779548251 -62.0
  endloop
endfacet
facet normal -0.9238795325112693 -0.3826834323651317 -0.0
  outer loop
    vertex 770.7453776677577 2011.847779548251 -98.00000000000003
    vertex 770.3457759777392 2012.812503367841 -62.0
    vertex 770.3457759777392 2012.812503367841 -98.00000000000003
  endloop
endfacet
facet normal -0.7933533402912196 -0.6087614290087409 0.0
  outer loop
    vertex 770.7453776677577 2011.847779548251 -62.0
    vertex 771.3810521581493 2011.0193524235049 -98.00000000000003
    vertex 771.3810521581493 2011.0193524235049 -62.0
  endloop
endfacet
facet normal -0.7933533402912196 -0.6087614290087409 0.0
  outer loop
    vertex 771.3810521581493 2011.0193524235049 -98.00000000000003
    vertex 770.7453776677577 2011.847779548251 -62.0
    vertex 770.7453776677577 2011.847779548251 -98.00000000000003
  endloop
endfacet
facet normal -0.6087614290089166 -0.7933533402910847 -5.257022252620618e-19
  outer loop
    vertex 772.2094792828955 2010.3836779331132 -62.0
    vertex 771.3810521581493 2011.0193524235049 -98.00000000000003
    vertex 772.2094792828955 2010.3836779331132 -98.00000000000003
  endloop
endfacet
facet normal -0.6087614290089166 -0.7933533402910847 -5.257022252620618e-19
  outer loop
    vertex 771.3810521581493 2011.0193524235049 -98.00000000000003
    vertex 772.2094792828955 2010.3836779331132 -62.0
    vertex 771.3810521581493 2011.0193524235049 -62.0
  endloop
endfacet
facet normal -0.3826834323648493 -0.9238795325113863 -0.0
  outer loop
    vertex 773.1742031024854 2009.984076243095 -62.0
    vertex 772.2094792828955 2010.3836779331132 -98.00000000000003
    vertex 773.1742031024854 2009.984076243095 -98.00000000000003
  endloop
endfacet
facet normal -0.3826834323648493 -0.9238795325113863 -0.0
  outer loop
    vertex 772.2094792828955 2010.3836779331132 -98.00000000000003
    vertex 773.1742031024854 2009.984076243095 -62.0
    vertex 772.2094792828955 2010.3836779331132 -62.0
  endloop
endfacet
facet normal -0.1305261922203324 -0.9914448613737734 -1.025157349820417e-31
  outer loop
    vertex 774.2094792828955 2009.8477795482509 -62.0
    vertex 773.1742031024854 2009.984076243095 -98.00000000000003
    vertex 774.2094792828955 2009.8477795482509 -98.00000000000003
  endloop
endfacet
facet normal -0.1305261922203324 -0.9914448613737734 -1.025157349820417e-31
  outer loop
    vertex 773.1742031024854 2009.984076243095 -98.00000000000003
    vertex 774.2094792828955 2009.8477795482509 -62.0
    vertex 773.1742031024854 2009.984076243095 -62.0
  endloop
endfacet
facet normal 1.8442131455670293e-31 2.8745462427950003e-16 -1.0
  outer loop
    vertex 618.2094792828956 2013.847779548251 -103.99999999999994
    vertex 618.3457759777391 1860.8125033678411 -104.00000000000003
    vertex 618.2094792828954 1861.8477795482513 -104.00000000000003
  endloop
endfacet
facet normal 1.8442131455670293e-31 2.8745462427950003e-16 -1.0
  outer loop
    vertex 618.3457759777391 1860.8125033678411 -104.00000000000003
    vertex 618.2094792828956 2013.847779548251 -103.99999999999994
    vertex 618.3457759777391 2014.883055728661 -103.99999999999994
  endloop
endfacet
facet normal 1.8442131455670293e-31 2.8745462427950003e-16 -1.0
  outer loop
    vertex 618.3457759777391 1860.8125033678411 -104.00000000000003
    vertex 618.3457759777391 2014.883055728661 -103.99999999999994
    vertex 618.7453776677576 2015.8477795482509 -103.99999999999994
  endloop
endfacet
facet normal 1.8442131455670293e-31 2.8745462427950003e-16 -1.0
  outer loop
    vertex 618.3457759777391 1860.8125033678411 -104.00000000000003
    vertex 618.7453776677576 2015.8477795482509 -103.99999999999994
    vertex 618.7453776677576 1859.8477795482513 -104.00000000000003
  endloop
endfacet
facet normal 1.8442131455670293e-31 2.8745462427950003e-16 -1.0
  outer loop
    vertex 618.7453776677576 1859.8477795482513 -104.00000000000003
    vertex 618.7453776677576 2015.8477795482509 -103.99999999999994
    vertex 619.3810521581493 2016.6762066729973 -103.99999999999994
  endloop
endfacet
facet normal 1.8442131455670293e-31 2.8745462427950003e-16 -1.0
  outer loop
    vertex 618.7453776677576 1859.8477795482513 -104.00000000000003
    vertex 619.3810521581493 2016.6762066729973 -103.99999999999994
    vertex 619.3810521581491 1859.0193524235053 -104.00000000000003
  endloop
endfacet
facet normal 1.8442131455670293e-31 2.8745462427950003e-16 -1.0
  outer loop
    vertex 619.3810521581491 1859.0193524235053 -104.00000000000003
    vertex 619.3810521581493 2016.6762066729973 -103.99999999999994
    vertex 620.2094792828954 1858.3836779331134 -104.00000000000003
  endloop
endfacet
facet normal 1.8442131455670293e-31 2.8745462427950003e-16 -1.0
  outer loop
    vertex 620.2094792828954 1858.3836779331134 -104.00000000000003
    vertex 619.3810521581493 2016.6762066729973 -103.99999999999994
    vertex 620.2094792828955 2017.311881163389 -103.99999999999994
  endloop
endfacet
facet normal 1.8442131455670293e-31 2.8745462427950003e-16 -1.0
  outer loop
    vertex 620.2094792828954 1858.3836779331134 -104.00000000000003
    vertex 620.2094792828955 2017.311881163389 -103.99999999999994
    vertex 621.1742031024853 1857.9840762430952 -104.00000000000003
  endloop
endfacet
facet normal 1.8442131455670293e-31 2.8745462427950003e-16 -1.0
  outer loop
    vertex 621.1742031024853 1857.9840762430952 -104.00000000000003
    vertex 620.2094792828955 2017.311881163389 -103.99999999999994
    vertex 621.1742031024854 2017.7114828534075 -103.99999999999994
  endloop
endfacet
facet normal 1.8442131455670293e-31 2.8745462427950003e-16 -1.0
  outer loop
    vertex 621.1742031024853 1857.9840762430952 -104.00000000000003
    vertex 621.1742031024854 2017.7114828534075 -103.99999999999994
    vertex 622.2094792828954 1857.847779548251 -104.00000000000003
  endloop
endfacet
facet normal 1.8442131455670293e-31 2.8745462427950003e-16 -1.0
  outer loop
    vertex 622.2094792828954 1857.847779548251 -104.00000000000003
    vertex 621.1742031024854 2017.7114828534075 -103.99999999999994
    vertex 622.2094792828956 2017.847779548251 -103.99999999999994
  endloop
endfacet
facet normal 1.8442131455670293e-31 2.8745462427950003e-16 -1.0
  outer loop
    vertex 622.2094792828954 1857.847779548251 -104.00000000000003
    vertex 622.2094792828956 2017.847779548251 -103.99999999999994
    vertex 774.2094792828955 1857.847779548251 -103.99999999999999
  endloop
endfacet
facet normal 1.8442131455670293e-31 2.8745462427950003e-16 -1.0
  outer loop
    vertex 774.2094792828955 1857.847779548251 -103.99999999999999
    vertex 622.2094792828956 2017.847779548251 -103.99999999999994
    vertex 774.2094792828955 2017.847779548251 -103.99999999999999
  endloop
endfacet
facet normal 1.8442131455670293e-31 2.8745462427950003e-16 -1.0
  outer loop
    vertex 774.2094792828955 1857.847779548251 -103.99999999999999
    vertex 774.2094792828955 2017.847779548251 -103.99999999999999
    vertex 775.2447554633055 2017.7114828534072 -103.99999999999999
  endloop
endfacet
facet normal 1.8442131455670293e-31 2.8745462427950003e-16 -1.0
  outer loop
    vertex 774.2094792828955 1857.847779548251 -103.99999999999999
    vertex 775.2447554633055 2017.7114828534072 -103.99999999999999
    vertex 775.2447554633055 1857.9840762430952 -103.99999999999999
  endloop
endfacet
facet normal 1.8442131455670293e-31 2.8745462427950003e-16 -1.0
  outer loop
    vertex 775.2447554633055 1857.9840762430952 -103.99999999999999
    vertex 775.2447554633055 2017.7114828534072 -103.99999999999999
    vertex 776.2094792828955 2017.311881163389 -103.99999999999999
  endloop
endfacet
facet normal 1.8442131455670293e-31 2.8745462427950003e-16 -1.0
  outer loop
    vertex 775.2447554633055 1857.9840762430952 -103.99999999999999
    vertex 776.2094792828955 2017.311881163389 -103.99999999999999
    vertex 776.2094792828955 1858.3836779331134 -103.99999999999999
  endloop
endfacet
facet normal 1.8442131455670293e-31 2.8745462427950003e-16 -1.0
  outer loop
    vertex 776.2094792828955 1858.3836779331134 -103.99999999999999
    vertex 776.2094792828955 2017.311881163389 -103.99999999999999
    vertex 777.0379064076417 2016.676206672997 -103.99999999999999
  endloop
endfacet
facet normal 1.8442131455670293e-31 2.8745462427950003e-16 -1.0
  outer loop
    vertex 776.2094792828955 1858.3836779331134 -103.99999999999999
    vertex 777.0379064076417 2016.676206672997 -103.99999999999999
    vertex 777.0379064076417 1859.0193524235053 -103.99999999999999
  endloop
endfacet
facet normal 1.8442131455670293e-31 2.8745462427950003e-16 -1.0
  outer loop
    vertex 777.0379064076417 1859.0193524235053 -103.99999999999999
    vertex 777.0379064076417 2016.676206672997 -103.99999999999999
    vertex 777.6735808980332 2015.8477795482509 -103.99999999999999
  endloop
endfacet
facet normal 1.8442131455670293e-31 2.8745462427950003e-16 -1.0
  outer loop
    vertex 777.0379064076417 1859.0193524235053 -103.99999999999999
    vertex 777.6735808980332 2015.8477795482509 -103.99999999999999
    vertex 777.6735808980332 1859.8477795482513 -103.99999999999999
  endloop
endfacet
facet normal 1.8442131455670293e-31 2.8745462427950003e-16 -1.0
  outer loop
    vertex 777.6735808980332 1859.8477795482513 -103.99999999999999
    vertex 777.6735808980332 2015.8477795482509 -103.99999999999999
    vertex 778.0731825880517 2014.883055728661 -103.99999999999999
  endloop
endfacet
facet normal 1.8442131455670293e-31 2.8745462427950003e-16 -1.0
  outer loop
    vertex 777.6735808980332 1859.8477795482513 -103.99999999999999
    vertex 778.0731825880517 2014.883055728661 -103.99999999999999
    vertex 778.0731825880517 1860.8125033678411 -103.99999999999999
  endloop
endfacet
facet normal 1.8442131455670293e-31 2.8745462427950003e-16 -1.0
  outer loop
    vertex 778.0731825880517 1860.8125033678411 -103.99999999999999
    vertex 778.0731825880517 2014.883055728661 -103.99999999999999
    vertex 778.2094792828955 2013.847779548251 -103.99999999999999
  endloop
endfacet
facet normal 1.8442131455670293e-31 2.8745462427950003e-16 -1.0
  outer loop
    vertex 778.0731825880517 1860.8125033678411 -103.99999999999999
    vertex 778.2094792828955 2013.847779548251 -103.99999999999999
    vertex 778.2094792828955 1861.8477795482513 -103.99999999999999
  endloop
endfacet
facet normal -0.9914448613738086 -0.1305261922200664 0.0
  outer loop
    vertex 618.2094792828954 1861.8477795482513 -62.0
    vertex 618.3457759777391 1860.8125033678411 -104.00000000000003
    vertex 618.3457759777391 1860.8125033678411 -62.0
  endloop
endfacet
facet normal -0.9914448613738086 -0.1305261922200664 0.0
  outer loop
    vertex 618.3457759777391 1860.8125033678411 -104.00000000000003
    vertex 618.2094792828954 1861.8477795482513 -62.0
    vertex 618.2094792828954 1861.8477795482513 -104.00000000000003
  endloop
endfacet
facet normal -0.9238795325112693 -0.3826834323651317 0.0
  outer loop
    vertex 618.3457759777391 1860.8125033678411 -62.0
    vertex 618.7453776677576 1859.8477795482513 -104.00000000000003
    vertex 618.7453776677576 1859.8477795482513 -62.0
  endloop
endfacet
facet normal -0.9238795325112693 -0.3826834323651317 0.0
  outer loop
    vertex 618.7453776677576 1859.8477795482513 -104.00000000000003
    vertex 618.3457759777391 1860.8125033678411 -62.0
    vertex 618.3457759777391 1860.8125033678411 -104.00000000000003
  endloop
endfacet
facet normal -0.7933533402912196 -0.6087614290087409 0.0
  outer loop
    vertex 618.7453776677576 1859.8477795482513 -62.0
    vertex 619.3810521581491 1859.0193524235053 -104.00000000000003
    vertex 619.3810521581491 1859.0193524235053 -62.0
  endloop
endfacet
facet normal -0.7933533402912196 -0.6087614290087409 0.0
  outer loop
    vertex 619.3810521581491 1859.0193524235053 -104.00000000000003
    vertex 618.7453776677576 1859.8477795482513 -62.0
    vertex 618.7453776677576 1859.8477795482513 -104.00000000000003
  endloop
endfacet
facet normal -0.6087614290089167 -0.7933533402910847 0.0
  outer loop
    vertex 620.2094792828954 1858.3836779331134 -62.0
    vertex 619.3810521581491 1859.0193524235053 -104.00000000000003
    vertex 620.2094792828954 1858.3836779331134 -104.00000000000003
  endloop
endfacet
facet normal -0.6087614290089167 -0.7933533402910847 0.0
  outer loop
    vertex 619.3810521581491 1859.0193524235053 -104.00000000000003
    vertex 620.2094792828954 1858.3836779331134 -62.0
    vertex 619.3810521581491 1859.0193524235053 -62.0
  endloop
endfacet
facet normal -0.3826834323648493 -0.9238795325113863 0.0
  outer loop
    vertex 621.1742031024853 1857.9840762430952 -62.0
    vertex 620.2094792828954 1858.3836779331134 -104.00000000000003
    vertex 621.1742031024853 1857.9840762430952 -104.00000000000003
  endloop
endfacet
facet normal -0.3826834323648493 -0.9238795325113863 0.0
  outer loop
    vertex 620.2094792828954 1858.3836779331134 -104.00000000000003
    vertex 621.1742031024853 1857.9840762430952 -62.0
    vertex 620.2094792828954 1858.3836779331134 -62.0
  endloop
endfacet
facet normal -0.1305261922203324 -0.9914448613737734 0.0
  outer loop
    vertex 622.2094792828954 1857.847779548251 -62.0
    vertex 621.1742031024853 1857.9840762430952 -104.00000000000003
    vertex 622.2094792828954 1857.847779548251 -104.00000000000003
  endloop
endfacet
facet normal -0.1305261922203324 -0.9914448613737734 0.0
  outer loop
    vertex 621.1742031024853 1857.9840762430952 -104.00000000000003
    vertex 622.2094792828954 1857.847779548251 -62.0
    vertex 621.1742031024853 1857.9840762430952 -62.0
  endloop
endfacet
facet normal -1.0 1.1873543084412224e-15 -1.2148024862453906e-32
  outer loop
    vertex 618.2094792828956 2013.847779548251 -62.0
    vertex 618.2094792828954 1861.8477795482513 -104.00000000000003
    vertex 618.2094792828954 1861.8477795482513 -62.0
  endloop
endfacet
facet normal -1.0 1.1873543084412224e-15 -1.2148024862453906e-32
  outer loop
    vertex 618.2094792828954 1861.8477795482513 -104.00000000000003
    vertex 618.2094792828956 2013.847779548251 -62.0
    vertex 618.2094792828956 2013.847779548251 -103.99999999999994
  endloop
endfacet
facet normal 0.1305261922203324 -0.9914448613737734 0.0
  outer loop
    vertex 775.2447554633055 1857.9840762430952 -62.0
    vertex 774.2094792828955 1857.847779548251 -103.99999999999999
    vertex 775.2447554633055 1857.9840762430952 -103.99999999999999
  endloop
endfacet
facet normal 0.1305261922203324 -0.9914448613737734 0.0
  outer loop
    vertex 774.2094792828955 1857.847779548251 -103.99999999999999
    vertex 775.2447554633055 1857.9840762430952 -62.0
    vertex 774.2094792828955 1857.847779548251 -62.0
  endloop
endfacet
facet normal 0.3826834323648493 -0.9238795325113863 0.0
  outer loop
    vertex 776.2094792828955 1858.3836779331134 -62.0
    vertex 775.2447554633055 1857.9840762430952 -103.99999999999999
    vertex 776.2094792828955 1858.3836779331134 -103.99999999999999
  endloop
endfacet
facet normal 0.3826834323648493 -0.9238795325113863 0.0
  outer loop
    vertex 775.2447554633055 1857.9840762430952 -103.99999999999999
    vertex 776.2094792828955 1858.3836779331134 -62.0
    vertex 775.2447554633055 1857.9840762430952 -62.0
  endloop
endfacet
facet normal 0.6087614290089167 -0.7933533402910847 0.0
  outer loop
    vertex 777.0379064076417 1859.0193524235053 -62.0
    vertex 776.2094792828955 1858.3836779331134 -103.99999999999999
    vertex 777.0379064076417 1859.0193524235053 -103.99999999999999
  endloop
endfacet
facet normal 0.6087614290089167 -0.7933533402910847 0.0
  outer loop
    vertex 776.2094792828955 1858.3836779331134 -103.99999999999999
    vertex 777.0379064076417 1859.0193524235053 -62.0
    vertex 776.2094792828955 1858.3836779331134 -62.0
  endloop
endfacet
facet normal 0.7933533402912196 -0.6087614290087409 0.0
  outer loop
    vertex 777.6735808980332 1859.8477795482513 -103.99999999999999
    vertex 777.0379064076417 1859.0193524235053 -62.0
    vertex 777.0379064076417 1859.0193524235053 -103.99999999999999
  endloop
endfacet
facet normal 0.7933533402912196 -0.6087614290087409 0.0
  outer loop
    vertex 777.0379064076417 1859.0193524235053 -62.0
    vertex 777.6735808980332 1859.8477795482513 -103.99999999999999
    vertex 777.6735808980332 1859.8477795482513 -62.0
  endloop
endfacet
facet normal 0.9238795325112693 -0.3826834323651317 0.0
  outer loop
    vertex 778.0731825880517 1860.8125033678411 -103.99999999999999
    vertex 777.6735808980332 1859.8477795482513 -62.0
    vertex 777.6735808980332 1859.8477795482513 -103.99999999999999
  endloop
endfacet
facet normal 0.9238795325112693 -0.3826834323651317 0.0
  outer loop
    vertex 777.6735808980332 1859.8477795482513 -62.0
    vertex 778.0731825880517 1860.8125033678411 -103.99999999999999
    vertex 778.0731825880517 1860.8125033678411 -62.0
  endloop
endfacet
facet normal 0.9914448613738086 -0.1305261922200664 0.0
  outer loop
    vertex 778.2094792828955 1861.8477795482513 -103.99999999999999
    vertex 778.0731825880517 1860.8125033678411 -62.0
    vertex 778.0731825880517 1860.8125033678411 -103.99999999999999
  endloop
endfacet
facet normal 0.9914448613738086 -0.1305261922200664 0.0
  outer loop
    vertex 778.0731825880517 1860.8125033678411 -62.0
    vertex 778.2094792828955 1861.8477795482513 -103.99999999999999
    vertex 778.2094792828955 1861.8477795482513 -62.0
  endloop
endfacet
facet normal 0.0 -1.0 0.0
  outer loop
    vertex 774.2094792828955 1857.847779548251 -62.0
    vertex 748.0094792828953 1857.847779548251 -84.8
    vertex 774.2094792828955 1857.847779548251 -103.99999999999999
  endloop
endfacet
facet normal 0.0 -1.0 0.0
  outer loop
    vertex 748.0094792828953 1857.847779548251 -84.8
    vertex 774.2094792828955 1857.847779548251 -62.0
    vertex 748.0094792828953 1857.847779548251 -79.19999999999999
  endloop
endfacet
facet normal 0.0 -1.0 0.0
  outer loop
    vertex 748.0094792828953 1857.847779548251 -79.19999999999999
    vertex 774.2094792828955 1857.847779548251 -62.0
    vertex 744.9594792828954 1857.847779548251 -79.19999999999999
  endloop
endfacet
facet normal 0.0 -1.0 0.0
  outer loop
    vertex 744.9594792828954 1857.847779548251 -79.19999999999999
    vertex 774.2094792828955 1857.847779548251 -62.0
    vertex 739.4594792828954 1857.847779548251 -79.19999999999999
  endloop
endfacet
facet normal 0.0 -1.0 0.0
  outer loop
    vertex 739.4594792828954 1857.847779548251 -79.19999999999999
    vertex 774.2094792828955 1857.847779548251 -62.0
    vertex 736.4094792828955 1857.847779548251 -79.19999999999999
  endloop
endfacet
facet normal 0.0 -1.0 0.0
  outer loop
    vertex 736.4094792828955 1857.847779548251 -79.19999999999999
    vertex 774.2094792828955 1857.847779548251 -62.0
    vertex 660.0094792828952 1857.847779548251 -79.19999999999999
  endloop
endfacet
facet normal 0.0 -1.0 0.0
  outer loop
    vertex 660.0094792828952 1857.847779548251 -79.19999999999999
    vertex 774.2094792828955 1857.847779548251 -62.0
    vertex 656.9594792828954 1857.847779548251 -79.19999999999999
  endloop
endfacet
facet normal 0.0 -1.0 0.0
  outer loop
    vertex 656.9594792828954 1857.847779548251 -79.19999999999999
    vertex 774.2094792828955 1857.847779548251 -62.0
    vertex 651.4594792828952 1857.847779548251 -79.19999999999999
  endloop
endfacet
facet normal 0.0 -1.0 0.0
  outer loop
    vertex 651.4594792828952 1857.847779548251 -79.19999999999999
    vertex 774.2094792828955 1857.847779548251 -62.0
    vertex 648.4094792828954 1857.847779548251 -79.19999999999999
  endloop
endfacet
facet normal 0.0 -1.0 0.0
  outer loop
    vertex 622.2094792828954 1857.847779548251 -104.00000000000003
    vertex 648.4094792828954 1857.847779548251 -84.8
    vertex 622.2094792828954 1857.847779548251 -62.0
  endloop
endfacet
facet normal 0.0 -1.0 0.0
  outer loop
    vertex 648.4094792828954 1857.847779548251 -84.8
    vertex 622.2094792828954 1857.847779548251 -104.00000000000003
    vertex 774.2094792828955 1857.847779548251 -103.99999999999999
  endloop
endfacet
facet normal 0.0 -1.0 0.0
  outer loop
    vertex 648.4094792828954 1857.847779548251 -84.8
    vertex 774.2094792828955 1857.847779548251 -103.99999999999999
    vertex 748.0094792828953 1857.847779548251 -84.8
  endloop
endfacet
facet normal 0.0 -1.0 0.0
  outer loop
    vertex 648.4094792828954 1857.847779548251 -84.8
    vertex 748.0094792828953 1857.847779548251 -84.8
    vertex 744.9594792828954 1857.847779548251 -84.8
  endloop
endfacet
facet normal 0.0 -1.0 0.0
  outer loop
    vertex 648.4094792828954 1857.847779548251 -84.8
    vertex 744.9594792828954 1857.847779548251 -84.8
    vertex 739.4594792828954 1857.847779548251 -84.8
  endloop
endfacet
facet normal 0.0 -1.0 0.0
  outer loop
    vertex 648.4094792828954 1857.847779548251 -84.8
    vertex 739.4594792828954 1857.847779548251 -84.8
    vertex 736.4094792828955 1857.847779548251 -84.8
  endloop
endfacet
facet normal 0.0 -1.0 0.0
  outer loop
    vertex 648.4094792828954 1857.847779548251 -84.8
    vertex 736.4094792828955 1857.847779548251 -84.8
    vertex 660.0094792828952 1857.847779548251 -84.8
  endloop
endfacet
facet normal 0.0 -1.0 0.0
  outer loop
    vertex 648.4094792828954 1857.847779548251 -84.8
    vertex 660.0094792828952 1857.847779548251 -84.8
    vertex 656.9594792828954 1857.847779548251 -84.8
  endloop
endfacet
facet normal 0.0 -1.0 0.0
  outer loop
    vertex 648.4094792828954 1857.847779548251 -84.8
    vertex 656.9594792828954 1857.847779548251 -84.8
    vertex 651.4594792828952 1857.847779548251 -84.8
  endloop
endfacet
facet normal 0.0 -1.0 0.0
  outer loop
    vertex 622.2094792828954 1857.847779548251 -62.0
    vertex 648.4094792828954 1857.847779548251 -84.8
    vertex 648.4094792828954 1857.847779548251 -79.19999999999999
  endloop
endfacet
facet normal 0.0 -1.0 0.0
  outer loop
    vertex 622.2094792828954 1857.847779548251 -62.0
    vertex 648.4094792828954 1857.847779548251 -79.19999999999999
    vertex 774.2094792828955 1857.847779548251 -62.0
  endloop
endfacet
facet normal 0.0 -1.0 0.0
  outer loop
    vertex 656.9594792828954 1857.847779548251 -79.19999999999999
    vertex 651.4594792828952 1857.847779548251 -84.8
    vertex 656.9594792828954 1857.847779548251 -84.8
  endloop
endfacet
facet normal 0.0 -1.0 0.0
  outer loop
    vertex 651.4594792828952 1857.847779548251 -84.8
    vertex 656.9594792828954 1857.847779548251 -79.19999999999999
    vertex 651.4594792828952 1857.847779548251 -79.19999999999999
  endloop
endfacet
facet normal 0.0 -1.0 0.0
  outer loop
    vertex 736.4094792828955 1857.847779548251 -79.19999999999999
    vertex 660.0094792828952 1857.847779548251 -84.8
    vertex 736.4094792828955 1857.847779548251 -84.8
  endloop
endfacet
facet normal 0.0 -1.0 0.0
  outer loop
    vertex 660.0094792828952 1857.847779548251 -84.8
    vertex 736.4094792828955 1857.847779548251 -79.19999999999999
    vertex 660.0094792828952 1857.847779548251 -79.19999999999999
  endloop
endfacet
facet normal 0.0 -1.0 0.0
  outer loop
    vertex 744.9594792828954 1857.847779548251 -79.19999999999999
    vertex 739.4594792828954 1857.847779548251 -84.8
    vertex 744.9594792828954 1857.847779548251 -84.8
  endloop
endfacet
facet normal 0.0 -1.0 0.0
  outer loop
    vertex 739.4594792828954 1857.847779548251 -84.8
    vertex 744.9594792828954 1857.847779548251 -79.19999999999999
    vertex 739.4594792828954 1857.847779548251 -79.19999999999999
  endloop
endfacet
facet normal 0.9914448613738086 0.1305261922200664 0.0
  outer loop
    vertex 778.0731825880517 2014.883055728661 -103.99999999999999
    vertex 778.2094792828955 2013.847779548251 -62.0
    vertex 778.2094792828955 2013.847779548251 -103.99999999999999
  endloop
endfacet
facet normal 0.9914448613738086 0.1305261922200664 0.0
  outer loop
    vertex 778.2094792828955 2013.847779548251 -62.0
    vertex 778.0731825880517 2014.883055728661 -103.99999999999999
    vertex 778.0731825880517 2014.883055728661 -62.0
  endloop
endfacet
facet normal 0.9238795325112693 0.3826834323651317 0.0
  outer loop
    vertex 777.6735808980332 2015.8477795482509 -103.99999999999999
    vertex 778.0731825880517 2014.883055728661 -62.0
    vertex 778.0731825880517 2014.883055728661 -103.99999999999999
  endloop
endfacet
facet normal 0.9238795325112693 0.3826834323651317 0.0
  outer loop
    vertex 778.0731825880517 2014.883055728661 -62.0
    vertex 777.6735808980332 2015.8477795482509 -103.99999999999999
    vertex 777.6735808980332 2015.8477795482509 -62.0
  endloop
endfacet
facet normal 0.7933533402912196 0.6087614290087409 0.0
  outer loop
    vertex 777.0379064076417 2016.676206672997 -103.99999999999999
    vertex 777.6735808980332 2015.8477795482509 -62.0
    vertex 777.6735808980332 2015.8477795482509 -103.99999999999999
  endloop
endfacet
facet normal 0.7933533402912196 0.6087614290087409 0.0
  outer loop
    vertex 777.6735808980332 2015.8477795482509 -62.0
    vertex 777.0379064076417 2016.676206672997 -103.99999999999999
    vertex 777.0379064076417 2016.676206672997 -62.0
  endloop
endfacet
facet normal 0.6087614290089167 0.7933533402910847 0.0
  outer loop
    vertex 776.2094792828955 2017.311881163389 -62.0
    vertex 777.0379064076417 2016.676206672997 -103.99999999999999
    vertex 776.2094792828955 2017.311881163389 -103.99999999999999
  endloop
endfacet
facet normal 0.6087614290089167 0.7933533402910847 0.0
  outer loop
    vertex 777.0379064076417 2016.676206672997 -103.99999999999999
    vertex 776.2094792828955 2017.311881163389 -62.0
    vertex 777.0379064076417 2016.676206672997 -62.0
  endloop
endfacet
facet normal 0.3826834323648493 0.9238795325113863 0.0
  outer loop
    vertex 775.2447554633055 2017.7114828534072 -62.0
    vertex 776.2094792828955 2017.311881163389 -103.99999999999999
    vertex 775.2447554633055 2017.7114828534072 -103.99999999999999
  endloop
endfacet
facet normal 0.3826834323648493 0.9238795325113863 0.0
  outer loop
    vertex 776.2094792828955 2017.311881163389 -103.99999999999999
    vertex 775.2447554633055 2017.7114828534072 -62.0
    vertex 776.2094792828955 2017.311881163389 -62.0
  endloop
endfacet
facet normal 0.1305261922203324 0.9914448613737734 0.0
  outer loop
    vertex 774.2094792828955 2017.847779548251 -62.0
    vertex 775.2447554633055 2017.7114828534072 -103.99999999999999
    vertex 774.2094792828955 2017.847779548251 -103.99999999999999
  endloop
endfacet
facet normal 0.1305261922203324 0.9914448613737734 0.0
  outer loop
    vertex 775.2447554633055 2017.7114828534072 -103.99999999999999
    vertex 774.2094792828955 2017.847779548251 -62.0
    vertex 775.2447554633055 2017.7114828534072 -62.0
  endloop
endfacet
facet normal 1.0 0.0 0.0
  outer loop
    vertex 778.2094792828955 2013.847779548251 -103.99999999999999
    vertex 778.2094792828955 1861.8477795482513 -62.0
    vertex 778.2094792828955 1861.8477795482513 -103.99999999999999
  endloop
endfacet
facet normal 1.0 0.0 0.0
  outer loop
    vertex 778.2094792828955 1861.8477795482513 -62.0
    vertex 778.2094792828955 2013.847779548251 -103.99999999999999
    vertex 778.2094792828955 2013.067779548251 -62.0
  endloop
endfacet
facet normal 1.0 0.0 0.0
  outer loop
    vertex 778.2094792828955 2013.067779548251 -62.0
    vertex 778.2094792828955 2013.847779548251 -103.99999999999999
    vertex 778.2094792828955 2013.847779548251 -62.0
  endloop
endfacet
facet normal 3.4496955547548265e-16 3.8329950608387004e-17 1.0
  outer loop
    vertex 623.2447554633054 1865.7114828534075 -97.99999999999997
    vertex 622.2094792828956 2009.8477795482509 -97.99999999999989
    vertex 622.2094792828954 1865.847779548251 -97.99999999999997
  endloop
endfacet
facet normal 3.4496955547548265e-16 3.8329950608387004e-17 1.0
  outer loop
    vertex 622.2094792828956 2009.8477795482509 -97.99999999999989
    vertex 623.2447554633054 1865.7114828534075 -97.99999999999997
    vertex 623.2447554633056 2009.9840762430945 -97.99999999999989
  endloop
endfacet
facet normal 3.4496955547548265e-16 3.8329950608387004e-17 1.0
  outer loop
    vertex 623.2447554633056 2009.9840762430945 -97.99999999999989
    vertex 623.2447554633054 1865.7114828534075 -97.99999999999997
    vertex 624.2094792828954 1865.3118811633892 -97.99999999999997
  endloop
endfacet
facet normal 3.4496955547548265e-16 3.8329950608387004e-17 1.0
  outer loop
    vertex 623.2447554633056 2009.9840762430945 -97.99999999999989
    vertex 624.2094792828954 1865.3118811633892 -97.99999999999997
    vertex 624.2094792828956 2010.3836779331132 -97.99999999999989
  endloop
endfacet
facet normal 3.4496955547548265e-16 3.8329950608387004e-17 1.0
  outer loop
    vertex 624.2094792828956 2010.3836779331132 -97.99999999999989
    vertex 624.2094792828954 1865.3118811633892 -97.99999999999997
    vertex 625.0379064076416 1864.6762066729973 -97.99999999999997
  endloop
endfacet
facet normal 3.4496955547548265e-16 3.8329950608387004e-17 1.0
  outer loop
    vertex 624.2094792828956 2010.3836779331132 -97.99999999999989
    vertex 625.0379064076416 1864.6762066729973 -97.99999999999997
    vertex 625.0379064076418 2011.0193524235046 -97.99999999999989
  endloop
endfacet
facet normal 3.4496955547548265e-16 3.8329950608387004e-17 1.0
  outer loop
    vertex 625.0379064076418 2011.0193524235046 -97.99999999999989
    vertex 625.0379064076416 1864.6762066729973 -97.99999999999997
    vertex 625.673580898033 1863.847779548251 -97.99999999999997
  endloop
endfacet
facet normal 3.4496955547548265e-16 3.8329950608387004e-17 1.0
  outer loop
    vertex 625.0379064076418 2011.0193524235046 -97.99999999999989
    vertex 625.673580898033 1863.847779548251 -97.99999999999997
    vertex 625.6735808980335 2011.847779548251 -97.99999999999989
  endloop
endfacet
facet normal 3.4496955547548265e-16 3.8329950608387004e-17 1.0
  outer loop
    vertex 625.6735808980335 2011.847779548251 -97.99999999999989
    vertex 625.673580898033 1863.847779548251 -97.99999999999997
    vertex 626.0731825880516 1862.8830557286615 -97.99999999999997
  endloop
endfacet
facet normal 3.4496955547548265e-16 3.8329950608387004e-17 1.0
  outer loop
    vertex 625.6735808980335 2011.847779548251 -97.99999999999989
    vertex 626.0731825880516 1862.8830557286615 -97.99999999999997
    vertex 626.073182588052 2012.812503367841 -97.99999999999989
  endloop
endfacet
facet normal 3.4496955547548265e-16 3.8329950608387004e-17 1.0
  outer loop
    vertex 626.073182588052 2012.812503367841 -97.99999999999989
    vertex 626.0731825880516 1862.8830557286615 -97.99999999999997
    vertex 626.2094792828954 1861.8477795482513 -97.99999999999997
  endloop
endfacet
facet normal 3.4496955547548265e-16 3.8329950608387004e-17 1.0
  outer loop
    vertex 626.073182588052 2012.812503367841 -97.99999999999989
    vertex 626.2094792828954 1861.8477795482513 -97.99999999999997
    vertex 626.2094792828957 2013.847779548251 -97.99999999999989
  endloop
endfacet
facet normal 3.4496955547548265e-16 3.8329950608387004e-17 1.0
  outer loop
    vertex 626.2094792828957 2013.847779548251 -97.99999999999989
    vertex 626.2094792828954 1861.8477795482513 -97.99999999999997
    vertex 770.2094792828955 1861.8477795482513 -97.99999999999993
  endloop
endfacet
facet normal 3.4496955547548265e-16 3.8329950608387004e-17 1.0
  outer loop
    vertex 626.2094792828957 2013.847779548251 -97.99999999999989
    vertex 770.2094792828955 1861.8477795482513 -97.99999999999993
    vertex 770.2094792828955 2013.847779548251 -98.00000000000003
  endloop
endfacet
facet normal 3.4496955547548265e-16 3.8329950608387004e-17 1.0
  outer loop
    vertex 770.2094792828955 2013.847779548251 -98.00000000000003
    vertex 770.2094792828955 1861.8477795482513 -97.99999999999993
    vertex 770.3457759777392 1862.8830557286615 -97.99999999999993
  endloop
endfacet
facet normal 3.4496955547548265e-16 3.8329950608387004e-17 1.0
  outer loop
    vertex 770.2094792828955 2013.847779548251 -98.00000000000003
    vertex 770.3457759777392 1862.8830557286615 -97.99999999999993
    vertex 770.3457759777392 2012.812503367841 -98.00000000000003
  endloop
endfacet
facet normal 3.4496955547548265e-16 3.8329950608387004e-17 1.0
  outer loop
    vertex 770.3457759777392 2012.812503367841 -98.00000000000003
    vertex 770.3457759777392 1862.8830557286615 -97.99999999999993
    vertex 770.7453776677577 1863.847779548251 -97.99999999999993
  endloop
endfacet
facet normal 3.4496955547548265e-16 3.8329950608387004e-17 1.0
  outer loop
    vertex 770.3457759777392 2012.812503367841 -98.00000000000003
    vertex 770.7453776677577 1863.847779548251 -97.99999999999993
    vertex 770.7453776677577 2011.847779548251 -98.00000000000003
  endloop
endfacet
facet normal 3.4496955547548265e-16 3.8329950608387004e-17 1.0
  outer loop
    vertex 770.7453776677577 2011.847779548251 -98.00000000000003
    vertex 770.7453776677577 1863.847779548251 -97.99999999999993
    vertex 771.3810521581493 1864.6762066729973 -97.99999999999993
  endloop
endfacet
facet normal 3.4496955547548265e-16 3.8329950608387004e-17 1.0
  outer loop
    vertex 770.7453776677577 2011.847779548251 -98.00000000000003
    vertex 771.3810521581493 1864.6762066729973 -97.99999999999993
    vertex 771.3810521581493 2011.0193524235049 -98.00000000000003
  endloop
endfacet
facet normal 3.4496955547548265e-16 3.8329950608387004e-17 1.0
  outer loop
    vertex 771.3810521581493 2011.0193524235049 -98.00000000000003
    vertex 771.3810521581493 1864.6762066729973 -97.99999999999993
    vertex 772.2094792828955 1865.3118811633892 -97.99999999999993
  endloop
endfacet
facet normal 3.4496955547548265e-16 3.8329950608387004e-17 1.0
  outer loop
    vertex 771.3810521581493 2011.0193524235049 -98.00000000000003
    vertex 772.2094792828955 1865.3118811633892 -97.99999999999993
    vertex 772.2094792828955 2010.3836779331132 -98.00000000000003
  endloop
endfacet
facet normal 3.4496955547548265e-16 3.8329950608387004e-17 1.0
  outer loop
    vertex 772.2094792828955 2010.3836779331132 -98.00000000000003
    vertex 772.2094792828955 1865.3118811633892 -97.99999999999993
    vertex 773.1742031024854 1865.7114828534075 -97.99999999999993
  endloop
endfacet
facet normal 3.4496955547548265e-16 3.8329950608387004e-17 1.0
  outer loop
    vertex 772.2094792828955 2010.3836779331132 -98.00000000000003
    vertex 773.1742031024854 1865.7114828534075 -97.99999999999993
    vertex 773.1742031024854 2009.984076243095 -98.00000000000003
  endloop
endfacet
facet normal 3.4496955547548265e-16 3.8329950608387004e-17 1.0
  outer loop
    vertex 773.1742031024854 2009.984076243095 -98.00000000000003
    vertex 773.1742031024854 1865.7114828534075 -97.99999999999993
    vertex 774.2094792828955 1865.847779548251 -97.99999999999993
  endloop
endfacet
facet normal 3.4496955547548265e-16 3.8329950608387004e-17 1.0
  outer loop
    vertex 773.1742031024854 2009.984076243095 -98.00000000000003
    vertex 774.2094792828955 1865.847779548251 -97.99999999999993
    vertex 774.2094792828955 2009.8477795482509 -98.00000000000003
  endloop
endfacet
facet normal 0.0 -1.0 0.0
  outer loop
    vertex 748.2094792828954 1846.4477795482512 -79.19999999999999
    vertex 744.9594792828954 1846.4477795482512 -84.8
    vertex 748.2094792828954 1846.4477795482512 -84.8
  endloop
endfacet
facet normal 0.0 -1.0 0.0
  outer loop
    vertex 744.9594792828954 1846.4477795482512 -84.8
    vertex 748.2094792828954 1846.4477795482512 -79.19999999999999
    vertex 744.9594792828954 1846.4477795482512 -79.19999999999999
  endloop
endfacet
facet normal 0.0 -1.0 0.0
  outer loop
    vertex 739.4594792828954 1846.4477795482512 -79.19999999999999
    vertex 736.2094792828955 1846.4477795482512 -84.79999999999998
    vertex 739.4594792828954 1846.4477795482512 -84.8
  endloop
endfacet
facet normal 0.0 -1.0 0.0
  outer loop
    vertex 736.2094792828955 1846.4477795482512 -84.79999999999998
    vertex 739.4594792828954 1846.4477795482512 -79.19999999999999
    vertex 736.2094792828955 1846.4477795482512 -79.19999999999997
  endloop
endfacet
facet normal 0.0 -1.0 0.0
  outer loop
    vertex 651.4594792828952 1846.4477795482514 -79.19999999999999
    vertex 648.2094792828954 1846.4477795482514 -84.8
    vertex 651.4594792828952 1846.4477795482514 -84.8
  endloop
endfacet
facet normal 0.0 -1.0 0.0
  outer loop
    vertex 648.2094792828954 1846.4477795482514 -84.8
    vertex 651.4594792828952 1846.4477795482514 -79.19999999999999
    vertex 648.2094792828954 1846.4477795482514 -79.19999999999999
  endloop
endfacet
facet normal 0.0 -1.0 0.0
  outer loop
    vertex 660.2094792828952 1846.4477795482512 -79.19999999999999
    vertex 656.9594792828954 1846.4477795482512 -84.8
    vertex 660.2094792828952 1846.4477795482512 -84.8
  endloop
endfacet
facet normal 0.0 -1.0 0.0
  outer loop
    vertex 656.9594792828954 1846.4477795482512 -84.8
    vertex 660.2094792828952 1846.4477795482512 -79.19999999999999
    vertex 656.9594792828954 1846.4477795482512 -79.19999999999999
  endloop
endfacet
endsolid Pet Feeder
