solid Pet Feeder
facet normal 1.7487353870809344e-05 0.0007510325505485767 -0.9999997178221105
  outer loop
    vertex 730.0096994302586 1267.847639924876 -94.79783252308296
    vertex 606.4094759717083 1265.8476283717612 -94.80150302775108
    vertex 606.4094757492853 1267.8476278077094 -94.80000096265357
  endloop
endfacet
facet normal 1.7487353870809344e-05 0.0007510325505485767 -0.9999997178221105
  outer loop
    vertex 606.4094759717083 1265.8476283717612 -94.80150302775108
    vertex 730.0096994302586 1267.847639924876 -94.79783252308296
    vertex 730.00969965268 1265.8476404889288 -94.79933458818043
  endloop
endfacet
facet normal 0.9999999999999651 6.912859449639114e-08 -2.549592473403044e-07
  outer loop
    vertex 730.0097019968176 1282.0479296754309 -79.69984880127912
    vertex 730.0097036880014 1267.8405146428238 -85.31052061475087
    vertex 730.0097020798834 1282.0521354577097 -85.29984722193895
  endloop
endfacet
facet normal 0.9999999999999651 6.912859449639114e-08 -2.549592473403044e-07
  outer loop
    vertex 730.0096994302586 1267.847639924876 -94.79783252308296
    vertex 730.0097062767924 1265.8291650882263 -70.19934152593386
    vertex 730.00969965268 1265.8476404889288 -94.79933458818043
  endloop
endfacet
facet normal 0.9999999999999651 6.912859449639114e-08 -2.549592473403044e-07
  outer loop
    vertex 730.0097062767924 1265.8291650882263 -70.19934152593386
    vertex 730.0096994302586 1267.847639924876 -94.79783252308296
    vertex 730.0097036880014 1267.8405146428238 -85.31052061475087
  endloop
endfacet
facet normal 0.9999999999999651 6.912859449639114e-08 -2.549592473403044e-07
  outer loop
    vertex 730.0097062767924 1265.8291650882263 -70.19934152593386
    vertex 730.0097036880014 1267.8405146428238 -85.31052061475087
    vertex 730.0097035496835 1267.8363088605508 -79.71052219409077
  endloop
endfacet
facet normal 0.9999999999999651 6.912859449639114e-08 -2.549592473403044e-07
  outer loop
    vertex 730.0097035496835 1267.8363088605508 -79.71052219409077
    vertex 730.0097036880014 1267.8405146428238 -85.31052061475087
    vertex 730.0097019968176 1282.0479296754309 -79.69984880127912
  endloop
endfacet
facet normal 0.9999999999999651 6.912859449639114e-08 -2.549592473403044e-07
  outer loop
    vertex 730.0097062767924 1265.8291650882263 -70.19934152593386
    vertex 730.0097035496835 1267.8363088605508 -79.71052219409077
    vertex 730.0097060543703 1267.8291645241773 -70.19783946083639
  endloop
endfacet
facet normal -1.7487353871080056e-05 -0.0007510325505485767 0.9999997178221105
  outer loop
    vertex 606.4094825958204 1265.829152971061 -70.20150996550447
    vertex 730.0097060543703 1267.8291645241773 -70.19783946083639
    vertex 606.4094823733983 1267.8291524070107 -70.20000790040704
  endloop
endfacet
facet normal -1.7487353871080056e-05 -0.0007510325505485767 0.9999997178221105
  outer loop
    vertex 730.0097060543703 1267.8291645241773 -70.19783946083639
    vertex 606.4094825958204 1265.829152971061 -70.20150996550447
    vertex 730.0097062767924 1265.8291650882263 -70.19934152593386
  endloop
endfacet
facet normal 0.991444859437706 -9.791917010209359e-05 0.1305261701973347
  outer loop
    vertex 710.287162075999 1267.8403694764486 -85.12015208236403
    vertex 710.0077540425121 1265.8387760809044 -82.99933858033475
    vertex 710.2871622984218 1265.8403700404983 -85.12165414746144
  endloop
endfacet
facet normal 0.991444859437706 -9.791917010209359e-05 0.1305261701973347
  outer loop
    vertex 710.0077540425121 1265.8387760809044 -82.99933858033475
    vertex 710.287162075999 1267.8403694764486 -85.12015208236403
    vertex 710.0077538200896 1267.8387755168512 -82.99783651523742
  endloop
endfacet
facet normal 0.9914448633099386 9.813966753325386e-05 -0.13052614061919846
  outer loop
    vertex 710.2871620130384 1267.8371816193999 -80.87552093977494
    vertex 710.0077540425121 1265.8387760809044 -82.99933858033475
    vertex 710.0077538200896 1267.8387755168512 -82.99783651523742
  endloop
endfacet
facet normal 0.9914448633099386 9.813966753325386e-05 -0.13052614061919846
  outer loop
    vertex 710.0077540425121 1265.8387760809044 -82.99933858033475
    vertex 710.2871620130384 1267.8371816193999 -80.87552093977494
    vertex 710.2871622354604 1265.8371821834512 -80.87702300487241
  endloop
endfacet
facet normal 0.9238795381876651 0.0002875104490100222 -0.3826833106576359
  outer loop
    vertex 710.2871620130384 1267.8371816193999 -80.87552093977494
    vertex 711.1063456706635 1265.835696969618 -78.89933972024984
    vertex 710.2871622354604 1265.8371821834512 -80.87702300487241
  endloop
endfacet
facet normal 0.9238795381876651 0.0002875104490100222 -0.3826833106576359
  outer loop
    vertex 711.1063456706635 1265.835696969618 -78.89933972024984
    vertex 710.2871620130384 1267.8371816193999 -80.87552093977494
    vertex 711.1063454482409 1267.8356964055665 -78.89783765515241
  endloop
endfacet
facet normal 0.7933533493210094 0.00045728786852013576 -0.6087612454886905
  outer loop
    vertex 711.1063454482409 1267.8356964055665 -78.89783765515241
    vertex 712.4094783507757 1265.8344216542682 -77.20106457403776
    vertex 711.1063456706635 1265.835696969618 -78.89933972024984
  endloop
endfacet
facet normal 0.7933533493210094 0.00045728786852013576 -0.6087612454886905
  outer loop
    vertex 712.4094783507757 1265.8344216542682 -77.20106457403776
    vertex 711.1063454482409 1267.8356964055665 -78.89783765515241
    vertex 712.4094781283535 1267.8344210902183 -77.19956250894053
  endloop
endfacet
facet normal 0.6087614407767149 0.0005959018754943929 -0.793353107465026
  outer loop
    vertex 714.1077539371753 1265.8334431480412 -75.8979322109184
    vertex 712.4094781283535 1267.8344210902183 -77.19956250894053
    vertex 714.1077537147531 1267.8334425839917 -75.89643014582103
  endloop
endfacet
facet normal 0.6087614407767149 0.0005959018754943929 -0.793353107465026
  outer loop
    vertex 712.4094781283535 1267.8344210902183 -77.19956250894053
    vertex 714.1077539371753 1265.8334431480412 -75.8979322109184
    vertex 712.4094783507757 1265.8344216542682 -77.20106457403776
  endloop
endfacet
facet normal 0.38268344606919963 0.0006939061544282438 -0.9238792662457853
  outer loop
    vertex 716.085437532761 1267.8328275704646 -75.07724688281282
    vertex 714.1077539371753 1265.8334431480412 -75.8979322109184
    vertex 714.1077537147531 1267.8334425839917 -75.89643014582103
  endloop
endfacet
facet normal 0.38268344606919963 0.0006939061544282438 -0.9238792662457853
  outer loop
    vertex 714.1077539371753 1265.8334431480412 -75.8979322109184
    vertex 716.085437532761 1267.8328275704646 -75.07724688281282
    vertex 716.0854377551839 1265.8328281345132 -75.07874894791023
  endloop
endfacet
facet normal 0.13052620692631275 0.0007446218756719481 -0.9914445798145713
  outer loop
    vertex 718.2077539208783 1265.8326185258456 -74.79934077062282
    vertex 716.085437532761 1267.8328275704646 -75.07724688281282
    vertex 718.2077536984565 1267.8326179617961 -74.79783870552538
  endloop
endfacet
facet normal 0.13052620692631275 0.0007446218756719481 -0.9914445798145713
  outer loop
    vertex 716.085437532761 1267.8328275704646 -75.07724688281282
    vertex 718.2077539208783 1265.8326185258456 -74.79934077062282
    vertex 716.0854377551839 1265.8328281345132 -75.07874894791023
  endloop
endfacet
facet normal -0.130526177513764 0.0007445928466344262 -0.9914445837086097
  outer loop
    vertex 720.3300698724407 1267.8328280424664 -75.0772468194969
    vertex 718.2077539208783 1265.8326185258456 -74.79934077062282
    vertex 718.2077536984565 1267.8326179617961 -74.79783870552538
  endloop
endfacet
facet normal -0.130526177513764 0.0007445928466344262 -0.9914445837086097
  outer loop
    vertex 718.2077539208783 1265.8326185258456 -74.79934077062282
    vertex 720.3300698724407 1267.8328280424664 -75.0772468194969
    vertex 720.3300700948637 1265.8328286065173 -75.07874888459443
  endloop
endfacet
facet normal -0.3826834186610655 0.0006938210455966137 -0.9238792776625291
  outer loop
    vertex 722.3077539371735 1265.8334440598824 -75.89793208860169
    vertex 720.3300698724407 1267.8328280424664 -75.0772468194969
    vertex 722.307753714752 1267.833443495833 -75.8964300235043
  endloop
endfacet
facet normal -0.3826834186610655 0.0006938210455966137 -0.9238792776625291
  outer loop
    vertex 720.3300698724407 1267.8328280424664 -75.0772468194969
    vertex 722.3077539371735 1265.8334440598824 -75.89793208860169
    vertex 720.3300700948637 1265.8328286065173 -75.07874888459443
  endloop
endfacet
facet normal -0.6087614172406837 0.0005957664868949594 -0.7933531256265444
  outer loop
    vertex 724.006029339812 1267.8344223797571 -77.19956233595829
    vertex 722.3077539371735 1265.8334440598824 -75.89793208860169
    vertex 722.307753714752 1267.833443495833 -75.8964300235043
  endloop
endfacet
facet normal -0.6087614172406837 0.0005957664868949594 -0.7933531256265444
  outer loop
    vertex 722.3077539371735 1265.8334440598824 -75.89793208860169
    vertex 724.006029339812 1267.8344223797571 -77.19956233595829
    vertex 724.0060295622337 1265.834422943807 -77.2010644010557
  endloop
endfacet
facet normal -0.7933533312613937 0.0004571114266619462 -0.60876126915696
  outer loop
    vertex 724.0060295622337 1265.834422943807 -77.2010644010557
    vertex 725.309162070305 1267.835697984926 -78.8978374432935
    vertex 725.3091622927269 1265.8356985489745 -78.89933950839092
  endloop
endfacet
facet normal -0.7933533312613937 0.0004571114266619462 -0.60876126915696
  outer loop
    vertex 725.309162070305 1267.835697984926 -78.8978374432935
    vertex 724.0060295622337 1265.834422943807 -77.2010644010557
    vertex 724.006029339812 1267.8344223797571 -77.19956233595829
  endloop
endfacet
facet normal -0.9238795268348374 0.0002873049781144352 -0.382683338220109
  outer loop
    vertex 725.3091622927269 1265.8356985489745 -78.89933950839092
    vertex 726.1283455641784 1267.8371833809417 -80.87552070347694
    vertex 726.1283457866014 1265.8371839449946 -80.8770227685745
  endloop
endfacet
facet normal -0.9238795268348374 0.0002873049781144352 -0.382683338220109
  outer loop
    vertex 726.1283455641784 1267.8371833809417 -80.87552070347694
    vertex 725.3091622927269 1265.8356985489745 -78.89933950839092
    vertex 725.309162070305 1267.835697984926 -78.8978374432935
  endloop
endfacet
facet normal -0.9914448594376845 9.791917010221647e-05 -0.13052617019749838
  outer loop
    vertex 726.4077540425119 1265.8387779045854 -82.9993383357011
    vertex 726.1283455641784 1267.8371833809417 -80.87552070347694
    vertex 726.4077538200892 1267.8387773405352 -82.99783627060383
  endloop
endfacet
facet normal -0.9914448594376845 9.791917010221647e-05 -0.13052617019749838
  outer loop
    vertex 726.1283455641784 1267.8371833809417 -80.87552070347694
    vertex 726.4077540425119 1265.8387779045854 -82.9993383357011
    vertex 726.1283457866014 1265.8371839449946 -80.8770227685745
  endloop
endfacet
facet normal -0.9914448633099165 -9.813966753337973e-05 0.13052614061936627
  outer loop
    vertex 726.4077540425119 1265.8387779045854 -82.9993383357011
    vertex 726.1283456271404 1267.8403712379866 -85.12015184606601
    vertex 726.1283458495623 1265.840371802038 -85.12165391116342
  endloop
endfacet
facet normal -0.9914448633099165 -9.813966753337973e-05 0.13052614061936627
  outer loop
    vertex 726.1283456271404 1267.8403712379866 -85.12015184606601
    vertex 726.4077540425119 1265.8387779045854 -82.9993383357011
    vertex 726.4077538200892 1267.8387773405352 -82.99783627060383
  endloop
endfacet
facet normal -0.9238795381876557 -0.0002875104490100392 0.38268331065765876
  outer loop
    vertex 726.1283458495623 1265.840371802038 -85.12165391116342
    vertex 725.3091621919369 1267.841856451822 -87.09783513068865
    vertex 725.3091624143589 1265.8418570158722 -87.09933719578616
  endloop
endfacet
facet normal -0.9238795381876557 -0.0002875104490100392 0.38268331065765876
  outer loop
    vertex 725.3091621919369 1267.841856451822 -87.09783513068865
    vertex 726.1283458495623 1265.840371802038 -85.12165391116342
    vertex 726.1283456271404 1267.8403712379866 -85.12015184606601
  endloop
endfacet
facet normal -0.7933533493210628 -0.00045728786852008394 0.6087612454886211
  outer loop
    vertex 724.0060297342474 1265.84313233122 -88.79761234199799
    vertex 725.3091621919369 1267.841856451822 -87.09783513068865
    vertex 724.006029511825 1267.843131767168 -88.79611027690062
  endloop
endfacet
facet normal -0.7933533493210628 -0.00045728786852008394 0.6087612454886211
  outer loop
    vertex 725.3091621919369 1267.841856451822 -87.09783513068865
    vertex 724.0060297342474 1265.84313233122 -88.79761234199799
    vertex 725.3091624143589 1265.8418570158722 -87.09933719578616
  endloop
endfacet
facet normal -0.6087614407766202 -0.0005959018754944477 0.7933531074650986
  outer loop
    vertex 722.3077541478463 1265.8441108374498 -90.1007447051174
    vertex 724.006029511825 1267.843131767168 -88.79611027690062
    vertex 722.3077539254247 1267.8441102734002 -90.09924264001978
  endloop
endfacet
facet normal -0.6087614407766202 -0.0005959018754944477 0.7933531074650986
  outer loop
    vertex 724.006029511825 1267.843131767168 -88.79611027690062
    vertex 722.3077541478463 1265.8441108374498 -90.1007447051174
    vertex 724.0060297342474 1265.84313233122 -88.79761234199799
  endloop
endfacet
facet normal -0.38268344606926374 -0.0006939061544282247 0.9238792662457589
  outer loop
    vertex 720.3300701074174 1267.844725286925 -90.91842590302817
    vertex 722.3077541478463 1265.8441108374498 -90.1007447051174
    vertex 722.3077539254247 1267.8441102734002 -90.09924264001978
  endloop
endfacet
facet normal -0.38268344606926374 -0.0006939061544282247 0.9238792662457589
  outer loop
    vertex 722.3077541478463 1265.8441108374498 -90.1007447051174
    vertex 720.3300701074174 1267.844725286925 -90.91842590302817
    vertex 720.3300703298391 1265.8447258509752 -90.91992796812556
  endloop
endfacet
facet normal -0.13052620692628533 -0.0007446218756719513 0.9914445798145749
  outer loop
    vertex 718.2077541641428 1265.8449354596485 -91.19933614541307
    vertex 720.3300701074174 1267.844725286925 -90.91842590302817
    vertex 718.207753941721 1267.8449348955955 -91.19783408031559
  endloop
endfacet
facet normal -0.13052620692628533 -0.0007446218756719513 0.9914445798145749
  outer loop
    vertex 720.3300701074174 1267.844725286925 -90.91842590302817
    vertex 718.2077541641428 1265.8449354596485 -91.19933614541307
    vertex 720.3300703298391 1265.8447258509752 -90.91992796812556
  endloop
endfacet
facet normal 0.13052617751377982 -0.0007445928466344251 0.9914445837086076
  outer loop
    vertex 716.0854379901588 1265.8447253789723 -90.91992803144146
    vertex 718.207753941721 1267.8449348955955 -91.19783408031559
    vertex 716.0854377677365 1267.8447248149234 -90.91842596634406
  endloop
endfacet
facet normal 0.13052617751377982 -0.0007445928466344251 0.9914445837086076
  outer loop
    vertex 718.207753941721 1267.8449348955955 -91.19783408031559
    vertex 716.0854379901588 1265.8447253789723 -90.91992803144146
    vertex 718.2077541641428 1265.8449354596485 -91.19933614541307
  endloop
endfacet
facet normal 0.3826834186610705 -0.0006938210455966117 0.9238792776625269
  outer loop
    vertex 714.107753925426 1267.8441093615547 -90.0992427623367
    vertex 716.0854379901588 1265.8447253789723 -90.91992803144146
    vertex 716.0854377677365 1267.8447248149234 -90.91842596634406
  endloop
endfacet
facet normal 0.3826834186610705 -0.0006938210455966117 0.9238792776625269
  outer loop
    vertex 716.0854379901588 1265.8447253789723 -90.91992803144146
    vertex 714.107753925426 1267.8441093615547 -90.0992427623367
    vertex 714.107754147848 1265.8441099256074 -90.1007448274342
  endloop
endfacet
facet normal 0.6087614172406872 -0.0005957664868949571 0.7933531256265415
  outer loop
    vertex 712.4094783003665 1267.8431304776293 -88.79611044988276
    vertex 714.107754147848 1265.8441099256074 -90.1007448274342
    vertex 714.107753925426 1267.8441093615547 -90.0992427623367
  endloop
endfacet
facet normal 0.6087614172406872 -0.0005957664868949571 0.7933531256265415
  outer loop
    vertex 714.107754147848 1265.8441099256074 -90.1007448274342
    vertex 712.4094783003665 1267.8431304776293 -88.79611044988276
    vertex 712.4094785227888 1265.8431310416809 -88.79761251498012
  endloop
endfacet
facet normal 0.793353331261353 -0.0004571114266619857 0.6087612691570135
  outer loop
    vertex 711.1063455698734 1267.8418548724667 -87.09783534254764
    vertex 712.4094785227888 1265.8431310416809 -88.79761251498012
    vertex 712.4094783003665 1267.8431304776293 -88.79611044988276
  endloop
endfacet
facet normal 0.793353331261353 -0.0004571114266619857 0.6087612691570135
  outer loop
    vertex 712.4094785227888 1265.8431310416809 -88.79761251498012
    vertex 711.1063455698734 1267.8418548724667 -87.09783534254764
    vertex 711.1063457922945 1265.8418554365194 -87.09933740764514
  endloop
endfacet
facet normal 0.9238795268348498 -0.00028730497811441287 0.3826833382200796
  outer loop
    vertex 711.1063455698734 1267.8418548724667 -87.09783534254764
    vertex 710.4569277581852 1265.840677870112 -85.53150409004891
    vertex 711.1063457922945 1265.8418554365194 -87.09933740764514
  endloop
endfacet
facet normal 0.9238795268348498 -0.00028730497811441287 0.3826833382200796
  outer loop
    vertex 710.4569277581852 1265.840677870112 -85.53150409004891
    vertex 711.1063455698734 1267.8418548724667 -87.09783534254764
    vertex 710.4569275357638 1267.840677306064 -85.53000202495146
  endloop
endfacet
facet normal 0.923879526835022 -0.0002873049781141005 0.3826833382196639
  outer loop
    vertex 710.4569275357638 1267.840677306064 -85.53000202495146
    vertex 710.2871622984218 1265.8403700404983 -85.12165414746144
    vertex 710.4569277581852 1265.840677870112 -85.53150409004891
  endloop
endfacet
facet normal 0.923879526835022 -0.0002873049781141005 0.3826833382196639
  outer loop
    vertex 710.2871622984218 1265.8403700404983 -85.12165414746144
    vertex 710.4569275357638 1267.840677306064 -85.53000202495146
    vertex 710.287162075999 1267.8403694764486 -85.12015208236403
  endloop
endfacet
facet normal -1.1121123887382412e-07 0.9999997179750096 0.0007510325486329351
  outer loop
    vertex 604.4094811277571 1269.8320054915864 -73.99843467720406
    vertex 610.4094822660569 1269.8350102889833 -77.99843345960403
    vertex 604.4094811870885 1269.8350096217798 -77.99843354910416
  endloop
endfacet
facet normal -1.1121123887382412e-07 0.9999997179750096 0.0007510325486329351
  outer loop
    vertex 610.4094822660569 1269.8350102889833 -77.99843345960403
    vertex 604.4094811277571 1269.8320054915864 -73.99843467720406
    vertex 610.4094822067246 1269.832006158786 -73.99843458770395
  endloop
endfacet
facet normal -1.4833165313158042e-08 -0.0007510325486282187 0.9999997179750157
  outer loop
    vertex 604.409481305694 1268.2320059428248 -73.99963632928193
    vertex 610.4094822067246 1269.832006158786 -73.99843458770395
    vertex 604.4094811277571 1269.8320054915864 -73.99843467720406
  endloop
endfacet
facet normal -1.4833165313158042e-08 -0.0007510325486282187 0.9999997179750157
  outer loop
    vertex 610.4094822067246 1269.832006158786 -73.99843458770395
    vertex 604.409481305694 1268.2320059428248 -73.99963632928193
    vertex 606.4094813056951 1268.232006165226 -73.99963629944853
  endloop
endfacet
facet normal -1.4833165313158042e-08 -0.0007510325486282187 0.9999997179750157
  outer loop
    vertex 606.4094813056951 1268.232006165226 -73.99963629944853
    vertex 610.4094824291475 1267.8320067228365 -73.99993665280127
    vertex 610.4094822067246 1269.832006158786 -73.99843458770395
  endloop
endfacet
facet normal -1.4833165313158042e-08 -0.0007510325486282187 0.9999997179750157
  outer loop
    vertex 610.4094824291475 1267.8320067228365 -73.99993665280127
    vertex 606.4094813056951 1268.232006165226 -73.99963629944853
    vertex 606.4094813501803 1267.8320062780347 -73.99993671246797
  endloop
endfacet
facet normal 0.9999999999999938 1.112000291807114e-07 1.491656823033017e-08
  outer loop
    vertex 610.4094822067246 1269.832006158786 -73.99843458770395
    vertex 610.4094824884796 1267.8350108530315 -77.99993552470126
    vertex 610.4094822660569 1269.8350102889833 -77.99843345960403
  endloop
endfacet
facet normal 0.9999999999999938 1.112000291807114e-07 1.491656823033017e-08
  outer loop
    vertex 610.4094824884796 1267.8350108530315 -77.99993552470126
    vertex 610.4094822067246 1269.832006158786 -73.99843458770395
    vertex 610.4094824291475 1267.8320067228365 -73.99993665280127
  endloop
endfacet
facet normal 1.4833167493237588e-08 0.0007510325486307706 -0.9999997179750156
  outer loop
    vertex 610.4094824884796 1267.8350108530315 -77.99993552470126
    vertex 604.4094811870885 1269.8350096217798 -77.99843354910416
    vertex 610.4094822660569 1269.8350102889833 -77.99843345960403
  endloop
endfacet
facet normal 1.4833167493237588e-08 0.0007510325486307706 -0.9999997179750156
  outer loop
    vertex 604.4094811870885 1269.8350096217798 -77.99843354910416
    vertex 610.4094824884796 1267.8350108530315 -77.99993552470126
    vertex 606.4094802286023 1268.235010295419 -77.99963517134863
  endloop
endfacet
facet normal 1.4833167493237588e-08 0.0007510325486307706 -0.9999997179750156
  outer loop
    vertex 604.4094811870885 1269.8350096217798 -77.99843354910416
    vertex 606.4094802286023 1268.235010295419 -77.99963517134863
    vertex 604.409481365026 1268.2350100730202 -77.99963520118204
  endloop
endfacet
facet normal 1.4833167493237588e-08 0.0007510325486307706 -0.9999997179750156
  outer loop
    vertex 606.4094802286023 1268.235010295419 -77.99963517134863
    vertex 610.4094824884796 1267.8350108530315 -77.99993552470126
    vertex 606.409480273087 1267.8350104082288 -77.99993558436807
  endloop
endfacet
facet normal -1.4833166900031975e-08 -0.0007510325488369665 0.9999997179750155
  outer loop
    vertex 604.4094801841619 1269.8417689147195 -86.99843101081754
    vertex 610.409482621978 1267.8417701459712 -86.99993298641498
    vertex 610.4094823995554 1269.8417695819214 -86.99843092131725
  endloop
endfacet
facet normal -1.4833166900031975e-08 -0.0007510325488369665 0.9999997179750155
  outer loop
    vertex 610.409482621978 1267.8417701459712 -86.99993298641498
    vertex 604.4094801841619 1269.8417689147195 -86.99843101081754
    vertex 606.4094803621009 1268.2417695883587 -86.99963263306215
  endloop
endfacet
facet normal -1.4833166900031975e-08 -0.0007510325488369665 0.9999997179750155
  outer loop
    vertex 606.4094803621009 1268.2417695883587 -86.99963263306215
    vertex 604.4094801841619 1269.8417689147195 -86.99843101081754
    vertex 604.4094803621008 1268.241769365959 -86.99963266289558
  endloop
endfacet
facet normal -1.4833166900031975e-08 -0.0007510325488369665 0.9999997179750155
  outer loop
    vertex 610.409482621978 1267.8417701459712 -86.99993298641498
    vertex 606.4094803621009 1268.2417695883587 -86.99963263306215
    vertex 606.4094804065855 1267.8417697011716 -86.99993304608178
  endloop
endfacet
facet normal 0.9999999999999938 1.1120000698973743e-07 1.491679381105625e-08
  outer loop
    vertex 610.4094824588881 1269.8447737121135 -90.99842979321734
    vertex 610.409482621978 1267.8417701459712 -86.99993298641498
    vertex 610.409482681311 1267.844774276162 -90.99993185831502
  endloop
endfacet
facet normal 0.9999999999999938 1.1120000698973743e-07 1.491679381105625e-08
  outer loop
    vertex 610.409482621978 1267.8417701459712 -86.99993298641498
    vertex 610.4094824588881 1269.8447737121135 -90.99842979321734
    vertex 610.4094823995554 1269.8417695819214 -86.99843092131725
  endloop
endfacet
facet normal 1.483316502634711e-08 0.00075103254884354 -0.9999997179750155
  outer loop
    vertex 610.4094824588881 1269.8447737121135 -90.99842979321734
    vertex 604.4094804214327 1268.2447734961524 -90.99963153479571
    vertex 604.4094802434947 1269.8447730449159 -90.99842988271753
  endloop
endfacet
facet normal 1.483316502634711e-08 0.00075103254884354 -0.9999997179750155
  outer loop
    vertex 604.4094804214327 1268.2447734961524 -90.99963153479571
    vertex 610.4094824588881 1269.8447737121135 -90.99842979321734
    vertex 606.4094767280566 1268.244773718552 -90.9996315049624
  endloop
endfacet
facet normal 1.483316502634711e-08 0.00075103254884354 -0.9999997179750155
  outer loop
    vertex 606.4094767280566 1268.244773718552 -90.9996315049624
    vertex 610.4094824588881 1269.8447737121135 -90.99842979321734
    vertex 610.409482681311 1267.844774276162 -90.99993185831502
  endloop
endfacet
facet normal 1.483316502634711e-08 0.00075103254884354 -0.9999997179750155
  outer loop
    vertex 606.4094767280566 1268.244773718552 -90.9996315049624
    vertex 610.409482681311 1267.844774276162 -90.99993185831502
    vertex 606.409476772541 1267.8447738313628 -90.99993191798185
  endloop
endfacet
facet normal -0.9999999999999938 -1.1120001595411629e-07 -1.491650054117935e-08
  outer loop
    vertex 604.409481365026 1268.2350100730202 -77.99963520118204
    vertex 604.4094811277571 1269.8320054915864 -73.99843467720406
    vertex 604.4094811870885 1269.8350096217798 -77.99843354910416
  endloop
endfacet
facet normal -0.9999999999999938 -1.1120001595411629e-07 -1.491650054117935e-08
  outer loop
    vertex 604.4094811277571 1269.8320054915864 -73.99843467720406
    vertex 604.409481365026 1268.2350100730202 -77.99963520118204
    vertex 604.409481305694 1268.2320059428248 -73.99963632928193
  endloop
endfacet
facet normal 1.1121118780088709e-07 -0.9999997179750096 -0.0007510325486682768
  outer loop
    vertex 606.4094802286023 1268.235010295419 -77.99963517134863
    vertex 604.409481305694 1268.2320059428248 -73.99963632928193
    vertex 604.409481365026 1268.2350100730202 -77.99963520118204
  endloop
endfacet
facet normal 1.1121118780088709e-07 -0.9999997179750096 -0.0007510325486682768
  outer loop
    vertex 604.409481305694 1268.2320059428248 -73.99963632928193
    vertex 606.4094802286023 1268.235010295419 -77.99963517134863
    vertex 606.4094813056951 1268.232006165226 -73.99963629944853
  endloop
endfacet
facet normal -0.9999999999999601 1.3928632794352788e-07 2.457788136152807e-07
  outer loop
    vertex 606.409476772541 1267.8447738313628 -90.99993191798185
    vertex 606.4094803621009 1268.2417695883587 -86.99963263306215
    vertex 606.4094767280566 1268.244773718552 -90.9996315049624
  endloop
endfacet
facet normal -0.9999999999999601 1.3928632794352788e-07 2.457788136152807e-07
  outer loop
    vertex 606.4094803621009 1268.2417695883587 -86.99963263306215
    vertex 606.409476772541 1267.8447738313628 -90.99993191798185
    vertex 606.4094804065855 1267.8417697011716 -86.99993304608178
  endloop
endfacet
facet normal -0.9999999999999601 1.3928632794352788e-07 2.457788136152807e-07
  outer loop
    vertex 606.4094825958204 1265.829152971061 -70.20150996550447
    vertex 606.4094757492853 1267.8476278077094 -94.80000096265357
    vertex 606.4094759717083 1265.8476283717612 -94.80150302775108
  endloop
endfacet
facet normal -0.9999999999999601 1.3928632794352788e-07 2.457788136152807e-07
  outer loop
    vertex 606.4094757492853 1267.8476278077094 -94.80000096265357
    vertex 606.4094825958204 1265.829152971061 -70.20150996550447
    vertex 606.409476772541 1267.8447738313628 -90.99993191798185
  endloop
endfacet
facet normal -0.9999999999999601 1.3928632794352788e-07 2.457788136152807e-07
  outer loop
    vertex 606.409476772541 1267.8447738313628 -90.99993191798185
    vertex 606.4094825958204 1265.829152971061 -70.20150996550447
    vertex 606.4094804065855 1267.8417697011716 -86.99993304608178
  endloop
endfacet
facet normal -0.9999999999999601 1.3928632794352788e-07 2.457788136152807e-07
  outer loop
    vertex 606.4094804065855 1267.8417697011716 -86.99993304608178
    vertex 606.4094825958204 1265.829152971061 -70.20150996550447
    vertex 606.409480273087 1267.8350104082288 -77.99993558436807
  endloop
endfacet
facet normal -0.9999999999999601 1.3928632794352788e-07 2.457788136152807e-07
  outer loop
    vertex 606.409480273087 1267.8350104082288 -77.99993558436807
    vertex 606.4094825958204 1265.829152971061 -70.20150996550447
    vertex 606.4094813501803 1267.8320062780347 -73.99993671246797
  endloop
endfacet
facet normal -0.9999999999999601 1.3928632794352788e-07 2.457788136152807e-07
  outer loop
    vertex 606.409480273087 1267.8350104082288 -77.99993558436807
    vertex 606.4094813501803 1267.8320062780347 -73.99993671246797
    vertex 606.4094813056951 1268.232006165226 -73.99963629944853
  endloop
endfacet
facet normal -0.9999999999999601 1.3928632794352788e-07 2.457788136152807e-07
  outer loop
    vertex 606.4094813501803 1267.8320062780347 -73.99993671246797
    vertex 606.4094825958204 1265.829152971061 -70.20150996550447
    vertex 606.4094823733983 1267.8291524070107 -70.20000790040704
  endloop
endfacet
facet normal -0.9999999999999601 1.3928632794352788e-07 2.457788136152807e-07
  outer loop
    vertex 606.4094813056951 1268.232006165226 -73.99963629944853
    vertex 606.4094802286023 1268.235010295419 -77.99963517134863
    vertex 606.409480273087 1267.8350104082288 -77.99993558436807
  endloop
endfacet
facet normal 1.112113040089392e-07 -0.9999997179750096 -0.000751032548636148
  outer loop
    vertex 606.4094767280566 1268.244773718552 -90.9996315049624
    vertex 604.4094803621008 1268.241769365959 -86.99963266289558
    vertex 604.4094804214327 1268.2447734961524 -90.99963153479571
  endloop
endfacet
facet normal 1.112113040089392e-07 -0.9999997179750096 -0.000751032548636148
  outer loop
    vertex 604.4094803621008 1268.241769365959 -86.99963266289558
    vertex 606.4094767280566 1268.244773718552 -90.9996315049624
    vertex 606.4094803621009 1268.2417695883587 -86.99963263306215
  endloop
endfacet
facet normal -0.9999999999999938 -1.1120029779813421e-07 -1.4916703790517518e-08
  outer loop
    vertex 604.4094803621008 1268.241769365959 -86.99963266289558
    vertex 604.4094802434947 1269.8447730449159 -90.99842988271753
    vertex 604.4094804214327 1268.2447734961524 -90.99963153479571
  endloop
endfacet
facet normal -0.9999999999999938 -1.1120029779813421e-07 -1.4916703790517518e-08
  outer loop
    vertex 604.4094802434947 1269.8447730449159 -90.99842988271753
    vertex 604.4094803621008 1268.241769365959 -86.99963266289558
    vertex 604.4094801841619 1269.8417689147195 -86.99843101081754
  endloop
endfacet
facet normal -1.1121122042105541e-07 0.9999997179750095 0.0007510325488104029
  outer loop
    vertex 610.4094823995554 1269.8417695819214 -86.99843092131725
    vertex 604.4094802434947 1269.8447730449159 -90.99842988271753
    vertex 604.4094801841619 1269.8417689147195 -86.99843101081754
  endloop
endfacet
facet normal -1.1121122042105541e-07 0.9999997179750095 0.0007510325488104029
  outer loop
    vertex 604.4094802434947 1269.8447730449159 -90.99842988271753
    vertex 610.4094823995554 1269.8417695819214 -86.99843092131725
    vertex 610.4094824588881 1269.8447737121135 -90.99842979321734
  endloop
endfacet
facet normal -0.9999999999999937 -1.111926389637361e-07 -2.4783128648176374e-08
  outer loop
    vertex 727.0097035496839 1267.8363085269727 -79.71052226844016
    vertex 727.0097017071494 1285.6521341088394 -85.29714357911296
    vertex 727.009703688001 1267.8405143092443 -85.31052068910026
  endloop
endfacet
facet normal -0.9999999999999937 -1.111926389637361e-07 -2.4783128648176374e-08
  outer loop
    vertex 727.0097017071494 1285.6521341088394 -85.29714357911296
    vertex 727.0097035496839 1267.8363085269727 -79.71052226844016
    vertex 727.0097015688298 1285.6479283265664 -79.69714515845291
  endloop
endfacet
facet normal 1.9923156250673458e-08 0.000751032460454724 -0.9999997179750818
  outer loop
    vertex 730.0097017071495 1285.6521344424168 -85.29714350476355
    vertex 727.009703688001 1267.8405143092443 -85.31052068910026
    vertex 727.0097017071494 1285.6521341088394 -85.29714357911296
  endloop
endfacet
facet normal 1.9923156250673458e-08 0.000751032460454724 -0.9999997179750818
  outer loop
    vertex 727.009703688001 1267.8405143092443 -85.31052068910026
    vertex 730.0097017071495 1285.6521344424168 -85.29714350476355
    vertex 730.0097020798834 1282.0521354577097 -85.29984722193895
  endloop
endfacet
facet normal 1.9923156250673458e-08 0.000751032460454724 -0.9999997179750818
  outer loop
    vertex 730.0097020798834 1282.0521354577097 -85.29984722193895
    vertex 730.0097017071495 1285.6521344424168 -85.29714350476355
    vertex 732.009701824097 1284.352135031451 -85.29811981724347
  endloop
endfacet
facet normal 1.9923156250673458e-08 0.000751032460454724 -0.9999997179750818
  outer loop
    vertex 730.0097020798834 1282.0521354577097 -85.29984722193895
    vertex 732.009701824097 1284.352135031451 -85.29811981724347
    vertex 732.009701935308 1283.3521353134768 -85.29887084979234
  endloop
endfacet
facet normal 1.9923156250673458e-08 0.000751032460454724 -0.9999997179750818
  outer loop
    vertex 727.009703688001 1267.8405143092443 -85.31052068910026
    vertex 730.0097020798834 1282.0521354577097 -85.29984722193895
    vertex 730.0097036880014 1267.8405146428238 -85.31052061475087
  endloop
endfacet
facet normal -1.1121122679435552e-07 0.9999997179750096 0.0007510325486578305
  outer loop
    vertex 730.0097015688302 1285.6479286601443 -79.69714508410351
    vertex 727.0097017071494 1285.6521341088394 -85.29714357911296
    vertex 727.0097015688298 1285.6479283265664 -79.69714515845291
  endloop
endfacet
facet normal -1.1121122679435552e-07 0.9999997179750096 0.0007510325486578305
  outer loop
    vertex 727.0097017071494 1285.6521341088394 -85.29714357911296
    vertex 730.0097015688302 1285.6479286601443 -79.69714508410351
    vertex 730.0097017071495 1285.6521344424168 -85.29714350476355
  endloop
endfacet
facet normal 0.5449884438397663 -0.8384433192358406 -0.0006296903177813709
  outer loop
    vertex 732.009701935308 1283.3521353134768 -85.29887084979234
    vertex 730.0097019968176 1282.0479296754309 -79.69984880127912
    vertex 730.0097020798834 1282.0521354577097 -85.29984722193895
  endloop
endfacet
facet normal 0.5449884438397663 -0.8384433192358406 -0.0006296903177813709
  outer loop
    vertex 730.0097019968176 1282.0479296754309 -79.69984880127912
    vertex 732.009701935308 1283.3521353134768 -85.29887084979234
    vertex 732.0097018522423 1283.3479295311972 -79.69887242913242
  endloop
endfacet
facet normal 0.9999999999999938 1.1119982405768816e-07 1.491668513266672e-08
  outer loop
    vertex 732.009701824097 1284.352135031451 -85.29811981724347
    vertex 732.0097018522423 1283.3479295311972 -79.69887242913242
    vertex 732.009701935308 1283.3521353134768 -85.29887084979234
  endloop
endfacet
facet normal 0.9999999999999938 1.1119982405768816e-07 1.491668513266672e-08
  outer loop
    vertex 732.0097018522423 1283.3479295311972 -79.69887242913242
    vertex 732.009701824097 1284.352135031451 -85.29811981724347
    vertex 732.009701741032 1284.347929249173 -79.69812139658373
  endloop
endfacet
facet normal 0.5449882547056919 0.8384434421587925 0.0006297092657989365
  outer loop
    vertex 732.009701741032 1284.347929249173 -79.69812139658373
    vertex 730.0097017071495 1285.6521344424168 -85.29714350476355
    vertex 730.0097015688302 1285.6479286601443 -79.69714508410351
  endloop
endfacet
facet normal 0.5449882547056919 0.8384434421587925 0.0006297092657989365
  outer loop
    vertex 730.0097017071495 1285.6521344424168 -85.29714350476355
    vertex 732.009701741032 1284.347929249173 -79.69812139658373
    vertex 732.009701824097 1284.352135031451 -85.29811981724347
  endloop
endfacet
facet normal -1.9923100609327618e-08 -0.0007510324604518319 0.9999997179750818
  outer loop
    vertex 727.0097035496839 1267.8363085269727 -79.71052226844016
    vertex 730.0097015688302 1285.6479286601443 -79.69714508410351
    vertex 727.0097015688298 1285.6479283265664 -79.69714515845291
  endloop
endfacet
facet normal -1.9923100609327618e-08 -0.0007510324604518319 0.9999997179750818
  outer loop
    vertex 730.0097015688302 1285.6479286601443 -79.69714508410351
    vertex 727.0097035496839 1267.8363085269727 -79.71052226844016
    vertex 730.0097019968176 1282.0479296754309 -79.69984880127912
  endloop
endfacet
facet normal -1.9923100609327618e-08 -0.0007510324604518319 0.9999997179750818
  outer loop
    vertex 730.0097015688302 1285.6479286601443 -79.69714508410351
    vertex 730.0097019968176 1282.0479296754309 -79.69984880127912
    vertex 732.009701741032 1284.347929249173 -79.69812139658373
  endloop
endfacet
facet normal -1.9923100609327618e-08 -0.0007510324604518319 0.9999997179750818
  outer loop
    vertex 732.009701741032 1284.347929249173 -79.69812139658373
    vertex 730.0097019968176 1282.0479296754309 -79.69984880127912
    vertex 732.0097018522423 1283.3479295311972 -79.69887242913242
  endloop
endfacet
facet normal -1.9923100609327618e-08 -0.0007510324604518319 0.9999997179750818
  outer loop
    vertex 730.0097019968176 1282.0479296754309 -79.69984880127912
    vertex 727.0097035496839 1267.8363085269727 -79.71052226844016
    vertex 730.0097035496835 1267.8363088605508 -79.71052219409077
  endloop
endfacet
facet normal 1.1121122235431266e-07 -0.9999997179750095 -0.0007510325488599258
  outer loop
    vertex 606.4094759717083 1265.8476283717612 -94.80150302775108
    vertex 659.9812840749784 1265.839916564817 -84.58042769357584
    vertex 606.4094825958204 1265.829152971061 -70.20150996550447
  endloop
endfacet
facet normal 1.1121122235431266e-07 -0.9999997179750095 -0.0007510325488599258
  outer loop
    vertex 659.9812840749784 1265.839916564817 -84.58042769357584
    vertex 606.4094759717083 1265.8476283717612 -94.80150302775108
    vertex 730.00969965268 1265.8476404889288 -94.79933458818043
  endloop
endfacet
facet normal 1.1121122235431266e-07 -0.9999997179750095 -0.0007510325488599258
  outer loop
    vertex 606.4094825958204 1265.829152971061 -70.20150996550447
    vertex 659.9812840749784 1265.839916564817 -84.58042769357584
    vertex 659.6195126404093 1265.8398039818853 -84.43057710747698
  endloop
endfacet
facet normal 1.1121122235431266e-07 -0.9999997179750095 -0.0007510325488599258
  outer loop
    vertex 606.4094825958204 1265.829152971061 -70.20150996550447
    vertex 659.6195126404093 1265.8398039818853 -84.43057710747698
    vertex 659.3088524650931 1265.8396249177529 -84.19219924544271
  endloop
endfacet
facet normal 1.1121122235431266e-07 -0.9999997179750095 -0.0007510325488599258
  outer loop
    vertex 606.4094825958204 1265.829152971061 -70.20150996550447
    vertex 659.3088524650931 1265.8396249177529 -84.19219924544271
    vertex 659.0704745265887 1265.8393915753447 -83.88153916483265
  endloop
endfacet
facet normal 1.1121122235431266e-07 -0.9999997179750095 -0.0007510325488599258
  outer loop
    vertex 606.4094825958204 1265.829152971061 -70.20150996550447
    vertex 659.0704745265887 1265.8393915753447 -83.88153916483265
    vertex 658.9206238874649 1265.8391198565598 -83.5197678367503
  endloop
endfacet
facet normal 1.1121122235431266e-07 -0.9999997179750095 -0.0007510325488599258
  outer loop
    vertex 606.4094825958204 1265.829152971061 -70.20150996550447
    vertex 658.9206238874649 1265.8391198565598 -83.5197678367503
    vertex 658.86951262114 1265.8388282785866 -83.13153937934909
  endloop
endfacet
facet normal 1.1121122235431266e-07 -0.9999997179750095 -0.0007510325488599258
  outer loop
    vertex 659.9812840749784 1265.839916564817 -84.58042769357584
    vertex 730.00969965268 1265.8476404889288 -94.79933458818043
    vertex 660.3695126433898 1265.8399549942094 -84.63153893393657
  endloop
endfacet
facet normal 1.1121122235431266e-07 -0.9999997179750095 -0.0007510325488599258
  outer loop
    vertex 660.3695126433898 1265.8399549942094 -84.63153893393657
    vertex 730.00969965268 1265.8476404889288 -94.79933458818043
    vertex 666.16951248347 1265.8401907757748 -84.63153875685681
  endloop
endfacet
facet normal 1.1121122235431266e-07 -0.9999997179750095 -0.0007510325488599258
  outer loop
    vertex 666.16951248347 1265.8401907757748 -84.63153875685681
    vertex 730.00969965268 1265.8476404889288 -94.79933458818043
    vertex 666.5577410659816 1265.8400794237255 -84.58042758051785
  endloop
endfacet
facet normal 1.1121122235431266e-07 -0.9999997179750095 -0.0007510325488599258
  outer loop
    vertex 666.5577410659816 1265.8400794237255 -84.58042758051785
    vertex 730.00969965268 1265.8476404889288 -94.79933458818043
    vertex 666.9195125149394 1265.8399683236278 -84.43057699692606
  endloop
endfacet
facet normal 1.1121122235431266e-07 -0.9999997179750095 -0.0007510325488599258
  outer loop
    vertex 666.9195125149394 1265.8399683236278 -84.43057699692606
    vertex 730.00969965268 1265.8476404889288 -94.79933458818043
    vertex 667.2301727051187 1265.8397875987505 -84.19219913595097
  endloop
endfacet
facet normal 1.1121122235431266e-07 -0.9999997179750095 -0.0007510325488599258
  outer loop
    vertex 667.2301727051187 1265.8397875987505 -84.19219913595097
    vertex 730.00969965268 1265.8476404889288 -94.79933458818043
    vertex 667.4685506579497 1265.8395495651955 -83.88153905487982
  endloop
endfacet
facet normal 1.1121122235431266e-07 -0.9999997179750095 -0.0007510325488599258
  outer loop
    vertex 667.4685506579497 1265.8395495651955 -83.88153905487982
    vertex 730.00969965268 1265.8476404889288 -94.79933458818043
    vertex 667.6184013098843 1265.8392704445541 -83.51976772484778
  endloop
endfacet
facet normal 1.1121122235431266e-07 -0.9999997179750095 -0.0007510325488599258
  outer loop
    vertex 667.6184013098843 1265.8392704445541 -83.51976772484778
    vertex 730.00969965268 1265.8476404889288 -94.79933458818043
    vertex 667.6695125866336 1265.8389692584406 -83.13153926414094
  endloop
endfacet
facet normal 1.1121122235431266e-07 -0.9999997179750095 -0.0007510325488599258
  outer loop
    vertex 667.6695125866336 1265.8389692584406 -83.13153926414094
    vertex 730.00969965268 1265.8476404889288 -94.79933458818043
    vertex 716.0854379901588 1265.8447253789723 -90.91992803144146
  endloop
endfacet
facet normal 1.1121122235431266e-07 -0.9999997179750095 -0.0007510325488599258
  outer loop
    vertex 667.6695125866336 1265.8389692584406 -83.13153926414094
    vertex 716.0854379901588 1265.8447253789723 -90.91992803144146
    vertex 714.107754147848 1265.8441099256074 -90.1007448274342
  endloop
endfacet
facet normal 1.1121122235431266e-07 -0.9999997179750095 -0.0007510325488599258
  outer loop
    vertex 667.6695125866336 1265.8389692584406 -83.13153926414094
    vertex 714.107754147848 1265.8441099256074 -90.1007448274342
    vertex 712.4094785227888 1265.8431310416809 -88.79761251498012
  endloop
endfacet
facet normal 1.1121122235431266e-07 -0.9999997179750095 -0.0007510325488599258
  outer loop
    vertex 667.6695125866336 1265.8389692584406 -83.13153926414094
    vertex 712.4094785227888 1265.8431310416809 -88.79761251498012
    vertex 711.1063457922945 1265.8418554365194 -87.09933740764514
  endloop
endfacet
facet normal 1.1121122235431266e-07 -0.9999997179750095 -0.0007510325488599258
  outer loop
    vertex 667.6695125866336 1265.8389692584406 -83.13153926414094
    vertex 711.1063457922945 1265.8418554365194 -87.09933740764514
    vertex 710.4569277581852 1265.840677870112 -85.53150409004891
  endloop
endfacet
facet normal 1.1121122235431266e-07 -0.9999997179750095 -0.0007510325488599258
  outer loop
    vertex 667.6695125866336 1265.8389692584406 -83.13153926414094
    vertex 710.4569277581852 1265.840677870112 -85.53150409004891
    vertex 710.2871622984218 1265.8403700404983 -85.12165414746144
  endloop
endfacet
facet normal 1.1121122235431266e-07 -0.9999997179750095 -0.0007510325488599258
  outer loop
    vertex 667.6695125866336 1265.8389692584406 -83.13153926414094
    vertex 710.2871622984218 1265.8403700404983 -85.12165414746144
    vertex 710.0077540425121 1265.8387760809044 -82.99933858033475
  endloop
endfacet
facet normal 1.1121122235431266e-07 -0.9999997179750095 -0.0007510325488599258
  outer loop
    vertex 716.0854379901588 1265.8447253789723 -90.91992803144146
    vertex 730.00969965268 1265.8476404889288 -94.79933458818043
    vertex 718.2077541641428 1265.8449354596485 -91.19933614541307
  endloop
endfacet
facet normal 1.1121122235431266e-07 -0.9999997179750095 -0.0007510325488599258
  outer loop
    vertex 718.2077541641428 1265.8449354596485 -91.19933614541307
    vertex 730.00969965268 1265.8476404889288 -94.79933458818043
    vertex 720.3300703298391 1265.8447258509752 -90.91992796812556
  endloop
endfacet
facet normal 1.1121122235431266e-07 -0.9999997179750095 -0.0007510325488599258
  outer loop
    vertex 720.3300703298391 1265.8447258509752 -90.91992796812556
    vertex 730.00969965268 1265.8476404889288 -94.79933458818043
    vertex 722.3077541478463 1265.8441108374498 -90.1007447051174
  endloop
endfacet
facet normal 1.1121122235431266e-07 -0.9999997179750095 -0.0007510325488599258
  outer loop
    vertex 722.3077541478463 1265.8441108374498 -90.1007447051174
    vertex 730.00969965268 1265.8476404889288 -94.79933458818043
    vertex 724.0060297342474 1265.84313233122 -88.79761234199799
  endloop
endfacet
facet normal 1.1121122235431266e-07 -0.9999997179750095 -0.0007510325488599258
  outer loop
    vertex 724.0060297342474 1265.84313233122 -88.79761234199799
    vertex 730.00969965268 1265.8476404889288 -94.79933458818043
    vertex 725.3091624143589 1265.8418570158722 -87.09933719578616
  endloop
endfacet
facet normal 1.1121122235431266e-07 -0.9999997179750095 -0.0007510325488599258
  outer loop
    vertex 725.3091624143589 1265.8418570158722 -87.09933719578616
    vertex 730.00969965268 1265.8476404889288 -94.79933458818043
    vertex 726.1283458495623 1265.840371802038 -85.12165391116342
  endloop
endfacet
facet normal 1.1121122235431266e-07 -0.9999997179750095 -0.0007510325488599258
  outer loop
    vertex 726.1283458495623 1265.840371802038 -85.12165391116342
    vertex 730.00969965268 1265.8476404889288 -94.79933458818043
    vertex 726.4077540425119 1265.8387779045854 -82.9993383357011
  endloop
endfacet
facet normal 1.1121122235431266e-07 -0.9999997179750095 -0.0007510325488599258
  outer loop
    vertex 606.4094825958204 1265.829152971061 -70.20150996550447
    vertex 659.9812840319947 1265.837740239611 -81.6826510319543
    vertex 730.0097062767924 1265.8291650882263 -70.19934152593386
  endloop
endfacet
facet normal 1.1121122235431266e-07 -0.9999997179750095 -0.0007510325488599258
  outer loop
    vertex 659.9812840319947 1265.837740239611 -81.6826510319543
    vertex 606.4094825958204 1265.829152971061 -70.20150996550447
    vertex 659.6195126018711 1265.8378527420853 -81.83250162884613
  endloop
endfacet
facet normal 1.1121122235431266e-07 -0.9999997179750095 -0.0007510325488599258
  outer loop
    vertex 659.6195126018711 1265.8378527420853 -81.83250162884613
    vertex 606.4094825958204 1265.829152971061 -70.20150996550447
    vertex 659.3088524336275 1265.838031737128 -82.07087950014841
  endloop
endfacet
facet normal 1.1121122235431266e-07 -0.9999997179750095 -0.0007510325488599258
  outer loop
    vertex 659.3088524336275 1265.838031737128 -82.07087950014841
    vertex 606.4094825958204 1265.829152971061 -70.20150996550447
    vertex 659.0704745043387 1265.8382650265216 -82.38153958787012
  endloop
endfacet
facet normal 1.1121122235431266e-07 -0.9999997179750095 -0.0007510325488599258
  outer loop
    vertex 659.0704745043387 1265.8382650265216 -82.38153958787012
    vertex 606.4094825958204 1265.829152971061 -70.20150996550447
    vertex 658.9206238759476 1265.8385367119788 -82.74331092042306
  endloop
endfacet
facet normal 1.1121122235431266e-07 -0.9999997179750095 -0.0007510325488599258
  outer loop
    vertex 658.9206238759476 1265.8385367119788 -82.74331092042306
    vertex 606.4094825958204 1265.829152971061 -70.20150996550447
    vertex 658.86951262114 1265.8388282785866 -83.13153937934909
  endloop
endfacet
facet normal 1.1121122235431266e-07 -0.9999997179750095 -0.0007510325488599258
  outer loop
    vertex 730.0097062767924 1265.8291650882263 -70.19934152593386
    vertex 659.9812840319947 1265.837740239611 -81.6826510319543
    vertex 660.3695125988904 1265.8377018965623 -81.63153978001144
  endloop
endfacet
facet normal 1.1121122235431266e-07 -0.9999997179750095 -0.0007510325488599258
  outer loop
    vertex 730.0097062767924 1265.8291650882263 -70.19934152593386
    vertex 660.3695125988904 1265.8377018965623 -81.63153978001144
    vertex 666.1695125988894 1265.8377025415227 -81.63153969349466
  endloop
endfacet
facet normal 1.1121122235431266e-07 -0.9999997179750095 -0.0007510325488599258
  outer loop
    vertex 730.0097062767924 1265.8291650882263 -70.19934152593386
    vertex 666.1695125988894 1265.8377025415227 -81.63153969349466
    vertex 666.5577411752142 1265.837825592085 -81.68265089000344
  endloop
endfacet
facet normal 1.1121122235431266e-07 -0.9999997179750095 -0.0007510325488599258
  outer loop
    vertex 730.0097062767924 1265.8291650882263 -70.19934152593386
    vertex 666.5577411752142 1265.837825592085 -81.68265089000344
    vertex 666.9195126128743 1265.8379475934605 -81.83250149239053
  endloop
endfacet
facet normal 1.1121122235431266e-07 -0.9999997179750095 -0.0007510325488599258
  outer loop
    vertex 730.0097062767924 1265.8291650882263 -70.19934152593386
    vertex 666.9195126128743 1265.8379475934605 -81.83250149239053
    vertex 667.2301727850829 1265.8381376794785 -82.07087936950562
  endloop
endfacet
facet normal 1.1121122235431266e-07 -0.9999997179750095 -0.0007510325488599258
  outer loop
    vertex 730.0097062767924 1265.8291650882263 -70.19934152593386
    vertex 667.2301727850829 1265.8381376794785 -82.07087936950562
    vertex 667.4685507144923 1265.8383828960898 -82.38153946296127
  endloop
endfacet
facet normal 1.1121122235431266e-07 -0.9999997179750095 -0.0007510325488599258
  outer loop
    vertex 730.0097062767924 1265.8291650882263 -70.19934152593386
    vertex 667.4685507144923 1265.8383828960898 -82.38153946296127
    vertex 667.6184013391527 1265.8386665321877 -82.7433108007787
  endloop
endfacet
facet normal 1.1121122235431266e-07 -0.9999997179750095 -0.0007510325488599258
  outer loop
    vertex 730.0097062767924 1265.8291650882263 -70.19934152593386
    vertex 667.6184013391527 1265.8386665321877 -82.7433108007787
    vertex 667.6695125866336 1265.8389692584406 -83.13153926414094
  endloop
endfacet
facet normal 1.1121122235431266e-07 -0.9999997179750095 -0.0007510325488599258
  outer loop
    vertex 730.0097062767924 1265.8291650882263 -70.19934152593386
    vertex 667.6695125866336 1265.8389692584406 -83.13153926414094
    vertex 716.0854377551839 1265.8328281345132 -75.07874894791023
  endloop
endfacet
facet normal 1.1121122235431266e-07 -0.9999997179750095 -0.0007510325488599258
  outer loop
    vertex 716.0854377551839 1265.8328281345132 -75.07874894791023
    vertex 667.6695125866336 1265.8389692584406 -83.13153926414094
    vertex 714.1077539371753 1265.8334431480412 -75.8979322109184
  endloop
endfacet
facet normal 1.1121122235431266e-07 -0.9999997179750095 -0.0007510325488599258
  outer loop
    vertex 714.1077539371753 1265.8334431480412 -75.8979322109184
    vertex 667.6695125866336 1265.8389692584406 -83.13153926414094
    vertex 712.4094783507757 1265.8344216542682 -77.20106457403776
  endloop
endfacet
facet normal 1.1121122235431266e-07 -0.9999997179750095 -0.0007510325488599258
  outer loop
    vertex 712.4094783507757 1265.8344216542682 -77.20106457403776
    vertex 667.6695125866336 1265.8389692584406 -83.13153926414094
    vertex 711.1063456706635 1265.835696969618 -78.89933972024984
  endloop
endfacet
facet normal 1.1121122235431266e-07 -0.9999997179750095 -0.0007510325488599258
  outer loop
    vertex 711.1063456706635 1265.835696969618 -78.89933972024984
    vertex 667.6695125866336 1265.8389692584406 -83.13153926414094
    vertex 710.2871622354604 1265.8371821834512 -80.87702300487241
  endloop
endfacet
facet normal 1.1121122235431266e-07 -0.9999997179750095 -0.0007510325488599258
  outer loop
    vertex 710.2871622354604 1265.8371821834512 -80.87702300487241
    vertex 667.6695125866336 1265.8389692584406 -83.13153926414094
    vertex 710.0077540425121 1265.8387760809044 -82.99933858033475
  endloop
endfacet
facet normal 1.1121122235431266e-07 -0.9999997179750095 -0.0007510325488599258
  outer loop
    vertex 730.0097062767924 1265.8291650882263 -70.19934152593386
    vertex 716.0854377551839 1265.8328281345132 -75.07874894791023
    vertex 718.2077539208783 1265.8326185258456 -74.79934077062282
  endloop
endfacet
facet normal 1.1121122235431266e-07 -0.9999997179750095 -0.0007510325488599258
  outer loop
    vertex 730.0097062767924 1265.8291650882263 -70.19934152593386
    vertex 718.2077539208783 1265.8326185258456 -74.79934077062282
    vertex 720.3300700948637 1265.8328286065173 -75.07874888459443
  endloop
endfacet
facet normal 1.1121122235431266e-07 -0.9999997179750095 -0.0007510325488599258
  outer loop
    vertex 730.0097062767924 1265.8291650882263 -70.19934152593386
    vertex 720.3300700948637 1265.8328286065173 -75.07874888459443
    vertex 722.3077539371735 1265.8334440598824 -75.89793208860169
  endloop
endfacet
facet normal 1.1121122235431266e-07 -0.9999997179750095 -0.0007510325488599258
  outer loop
    vertex 730.0097062767924 1265.8291650882263 -70.19934152593386
    vertex 722.3077539371735 1265.8334440598824 -75.89793208860169
    vertex 724.0060295622337 1265.834422943807 -77.2010644010557
  endloop
endfacet
facet normal 1.1121122235431266e-07 -0.9999997179750095 -0.0007510325488599258
  outer loop
    vertex 730.0097062767924 1265.8291650882263 -70.19934152593386
    vertex 724.0060295622337 1265.834422943807 -77.2010644010557
    vertex 725.3091622927269 1265.8356985489745 -78.89933950839092
  endloop
endfacet
facet normal 1.1121122235431266e-07 -0.9999997179750095 -0.0007510325488599258
  outer loop
    vertex 730.0097062767924 1265.8291650882263 -70.19934152593386
    vertex 725.3091622927269 1265.8356985489745 -78.89933950839092
    vertex 726.1283457866014 1265.8371839449946 -80.8770227685745
  endloop
endfacet
facet normal 1.1121122235431266e-07 -0.9999997179750095 -0.0007510325488599258
  outer loop
    vertex 730.0097062767924 1265.8291650882263 -70.19934152593386
    vertex 726.1283457866014 1265.8371839449946 -80.8770227685745
    vertex 726.4077540425119 1265.8387779045854 -82.9993383357011
  endloop
endfacet
facet normal 1.1121122235431266e-07 -0.9999997179750095 -0.0007510325488599258
  outer loop
    vertex 730.0097062767924 1265.8291650882263 -70.19934152593386
    vertex 726.4077540425119 1265.8387779045854 -82.9993383357011
    vertex 730.00969965268 1265.8476404889288 -94.79933458818043
  endloop
endfacet
facet normal 0.13052620690141148 0.0007633266567969165 -0.9914445655932282
  outer loop
    vertex 660.3695125988904 1265.8377018965623 -81.63153978001144
    vertex 659.9812506545721 1267.8377396499454 -81.68111559942689
    vertex 660.3694792214679 1267.8377013068962 -81.630004347484
  endloop
endfacet
facet normal 0.13052620690141148 0.0007633266567969165 -0.9914445655932282
  outer loop
    vertex 659.9812506545721 1267.8377396499454 -81.68111559942689
    vertex 660.3695125988904 1265.8377018965623 -81.63153978001144
    vertex 659.9812840319947 1265.837740239611 -81.6826510319543
  endloop
endfacet
facet normal -0.13052622741959735 0.0007589700272786598 -0.9914445662366128
  outer loop
    vertex 666.5577411752142 1265.837825592085 -81.68265089000344
    vertex 666.1694792214666 1267.837701951856 -81.63000426096731
    vertex 666.5577077977916 1267.837825002418 -81.68111545747607
  endloop
endfacet
facet normal -0.13052622741959735 0.0007589700272786598 -0.9914445662366128
  outer loop
    vertex 666.1694792214666 1267.837701951856 -81.63000426096731
    vertex 666.5577411752142 1265.837825592085 -81.68265089000344
    vertex 666.1695125988894 1265.8377025415227 -81.63153969349466
  endloop
endfacet
facet normal 1.483130501893225e-08 0.0007677162640474223 -0.9999997053058256
  outer loop
    vertex 666.1694792214666 1267.837701951856 -81.63000426096731
    vertex 660.3695125988904 1265.8377018965623 -81.63153978001144
    vertex 660.3694792214679 1267.8377013068962 -81.630004347484
  endloop
endfacet
facet normal 1.483130501893225e-08 0.0007677162640474223 -0.9999997053058256
  outer loop
    vertex 660.3695125988904 1265.8377018965623 -81.63153978001144
    vertex 666.1694792214666 1267.837701951856 -81.63000426096731
    vertex 666.1695125988894 1265.8377025415227 -81.63153969349466
  endloop
endfacet
facet normal -0.3826834669790899 0.0007028908398709522 -0.9238792507927274
  outer loop
    vertex 666.9195126128743 1265.8379475934605 -81.83250149239053
    vertex 666.5577077977916 1267.837825002418 -81.68111545747607
    vertex 666.9194792354521 1267.837947003794 -81.83096605986313
  endloop
endfacet
facet normal -0.3826834669790899 0.0007028908398709522 -0.9238792507927274
  outer loop
    vertex 666.5577077977916 1267.837825002418 -81.68111545747607
    vertex 666.9195126128743 1265.8379475934605 -81.83250149239053
    vertex 666.5577411752142 1265.837825592085 -81.68265089000344
  endloop
endfacet
facet normal -0.9914448661332327 8.366111996997366e-05 -0.13052612925722348
  outer loop
    vertex 667.6184013391527 1265.8386665321877 -82.7433108007787
    vertex 667.6694792092112 1267.8389686687728 -83.13000383161354
    vertex 667.6695125866336 1265.8389692584406 -83.13153926414094
  endloop
endfacet
facet normal -0.9914448661332327 8.366111996997366e-05 -0.13052612925722348
  outer loop
    vertex 667.6694792092112 1267.8389686687728 -83.13000383161354
    vertex 667.6184013391527 1265.8386665321877 -82.7433108007787
    vertex 667.6183679617304 1267.838665942521 -82.74177536825124
  endloop
endfacet
facet normal -0.9914448563366624 -0.00011675304120854927 0.13052617826437168
  outer loop
    vertex 667.6695125866336 1265.8389692584406 -83.13153926414094
    vertex 667.6183679324618 1267.8392698548885 -83.51823229232038
    vertex 667.6184013098843 1265.8392704445541 -83.51976772484778
  endloop
endfacet
facet normal -0.9914448563366624 -0.00011675304120854927 0.13052617826437168
  outer loop
    vertex 667.6183679324618 1267.8392698548885 -83.51823229232038
    vertex 667.6695125866336 1265.8389692584406 -83.13153926414094
    vertex 667.6694792092112 1267.8389686687728 -83.13000383161354
  endloop
endfacet
facet normal -0.7933533630154266 0.0004541159856464001 -0.6087612300161571
  outer loop
    vertex 667.2301727850829 1265.8381376794785 -82.07087936950562
    vertex 667.4685173370698 1267.8383823064237 -82.3800040304339
    vertex 667.4685507144923 1265.8383828960898 -82.38153946296127
  endloop
endfacet
facet normal -0.7933533630154266 0.0004541159856464001 -0.6087612300161571
  outer loop
    vertex 667.4685173370698 1267.8383823064237 -82.3800040304339
    vertex 667.2301727850829 1265.8381376794785 -82.07087936950562
    vertex 667.2301394076603 1267.8381370898117 -82.06934393697817
  endloop
endfacet
facet normal 0.1305261775020693 -0.0007589700331765294 0.9914445728083779
  outer loop
    vertex 659.9812506975561 1267.8399159751514 -84.5788922610485
    vertex 660.3695126433898 1265.8399549942094 -84.63153893393657
    vertex 660.3694792659675 1267.8399544045435 -84.63000350140915
  endloop
endfacet
facet normal 0.1305261775020693 -0.0007589700331765294 0.9914445728083779
  outer loop
    vertex 660.3695126433898 1265.8399549942094 -84.63153893393657
    vertex 659.9812506975561 1267.8399159751514 -84.5788922610485
    vertex 659.9812840749784 1265.839916564817 -84.58042769357584
  endloop
endfacet
facet normal -0.9238795467381866 0.00027837391394126663 -0.3826832967700669
  outer loop
    vertex 667.4685507144923 1265.8383828960898 -82.38153946296127
    vertex 667.6183679617304 1267.838665942521 -82.74177536825124
    vertex 667.6184013391527 1265.8386665321877 -82.7433108007787
  endloop
endfacet
facet normal -0.9238795467381866 0.00027837391394126663 -0.3826832967700669
  outer loop
    vertex 667.6183679617304 1267.838665942521 -82.74177536825124
    vertex 667.4685507144923 1265.8383828960898 -82.38153946296127
    vertex 667.4685173370698 1267.8383823064237 -82.3800040304339
  endloop
endfacet
facet normal -0.7933533173170874 -0.000480596113067035 0.6087612692421793
  outer loop
    vertex 667.4685506579497 1265.8395495651955 -83.88153905487982
    vertex 667.2301393276964 1267.8397870090841 -84.19066370342351
    vertex 667.2301727051187 1265.8397875987505 -84.19219913595097
  endloop
endfacet
facet normal -0.7933533173170874 -0.000480596113067035 0.6087612692421793
  outer loop
    vertex 667.2301393276964 1267.8397870090841 -84.19066370342351
    vertex 667.4685506579497 1265.8395495651955 -83.88153905487982
    vertex 667.4685172805277 1267.8395489755296 -83.88000362235245
  endloop
endfacet
facet normal 6.782194218733437e-10 -0.0007677162637912701 0.9999997053058258
  outer loop
    vertex 660.3694792659675 1267.8399544045435 -84.63000350140915
    vertex 666.16951248347 1265.8401907757748 -84.63153875685681
    vertex 666.1694791060478 1267.8401901861089 -84.63000332432945
  endloop
endfacet
facet normal 6.782194218733437e-10 -0.0007677162637912701 0.9999997053058258
  outer loop
    vertex 666.16951248347 1265.8401907757748 -84.63153875685681
    vertex 660.3694792659675 1267.8399544045435 -84.63000350140915
    vertex 660.3695126433898 1265.8399549942094 -84.63153893393657
  endloop
endfacet
facet normal 0.3826834186460003 -0.0007028908560300258 0.9238792708129427
  outer loop
    vertex 659.6194792629866 1267.8398033922183 -84.42904167494956
    vertex 659.9812840749784 1265.839916564817 -84.58042769357584
    vertex 659.9812506975561 1267.8399159751514 -84.5788922610485
  endloop
endfacet
facet normal 0.3826834186460003 -0.0007028908560300258 0.9238792708129427
  outer loop
    vertex 659.9812840749784 1265.839916564817 -84.58042769357584
    vertex 659.6194792629866 1267.8398033922183 -84.42904167494956
    vertex 659.6195126404093 1265.8398039818853 -84.43057710747698
  endloop
endfacet
facet normal -0.9238795180142341 -0.00030921067539371776 0.38268334244195285
  outer loop
    vertex 667.6184013098843 1265.8392704445541 -83.51976772484778
    vertex 667.4685172805277 1267.8395489755296 -83.88000362235245
    vertex 667.4685506579497 1265.8395495651955 -83.88153905487982
  endloop
endfacet
facet normal -0.9238795180142341 -0.00030921067539371776 0.38268334244195285
  outer loop
    vertex 667.4685172805277 1267.8395489755296 -83.88000362235245
    vertex 667.6184013098843 1265.8392704445541 -83.51976772484778
    vertex 667.6183679324618 1267.8392698548885 -83.51823229232038
  endloop
endfacet
facet normal -0.1305261530586803 -0.0007633266613177129 0.9914445726817561
  outer loop
    vertex 666.16951248347 1265.8401907757748 -84.63153875685681
    vertex 666.5577076885594 1267.8400788340575 -84.57889214799042
    vertex 666.1694791060478 1267.8401901861089 -84.63000332432945
  endloop
endfacet
facet normal -0.1305261530586803 -0.0007633266613177129 0.9914445726817561
  outer loop
    vertex 666.5577076885594 1267.8400788340575 -84.57889214799042
    vertex 666.16951248347 1265.8401907757748 -84.63153875685681
    vertex 666.5577410659816 1265.8400794237255 -84.58042758051785
  endloop
endfacet
facet normal -0.6087614586852421 0.0005989108035475956 -0.7933530914575587
  outer loop
    vertex 667.2301727850829 1265.8381376794785 -82.07087936950562
    vertex 666.9194792354521 1267.837947003794 -81.83096605986313
    vertex 667.2301394076603 1267.8381370898117 -82.06934393697817
  endloop
endfacet
facet normal -0.6087614586852421 0.0005989108035475956 -0.7933530914575587
  outer loop
    vertex 666.9194792354521 1267.837947003794 -81.83096605986313
    vertex 667.2301727850829 1265.8381376794785 -82.07087936950562
    vertex 666.9195126128743 1265.8379475934605 -81.83250149239053
  endloop
endfacet
facet normal -0.3826833976121608 -0.0007156638447621085 0.923879269719412
  outer loop
    vertex 666.5577076885594 1267.8400788340575 -84.57889214799042
    vertex 666.9195125149394 1265.8399683236278 -84.43057699692606
    vertex 666.9194791375169 1267.8399677339605 -84.42904156439864
  endloop
endfacet
facet normal -0.3826833976121608 -0.0007156638447621085 0.923879269719412
  outer loop
    vertex 666.9195125149394 1265.8399683236278 -84.43057699692606
    vertex 666.5577076885594 1267.8400788340575 -84.57889214799042
    vertex 666.5577410659816 1265.8400794237255 -84.58042758051785
  endloop
endfacet
facet normal 0.6087614172379383 -0.0005989108286650922 0.7933531232611845
  outer loop
    vertex 659.3088190876708 1267.8396243280854 -84.19066381291535
    vertex 659.6195126404093 1265.8398039818853 -84.43057710747698
    vertex 659.6194792629866 1267.8398033922183 -84.42904167494956
  endloop
endfacet
facet normal 0.6087614172379383 -0.0005989108286650922 0.7933531232611845
  outer loop
    vertex 659.6195126404093 1265.8398039818853 -84.43057710747698
    vertex 659.3088190876708 1267.8396243280854 -84.19066381291535
    vertex 659.3088524650931 1265.8396249177529 -84.19219924544271
  endloop
endfacet
facet normal -0.6087613991242746 -0.000619229720025136 0.7933531215611429
  outer loop
    vertex 666.9195125149394 1265.8399683236278 -84.43057699692606
    vertex 667.2301393276964 1267.8397870090841 -84.19066370342351
    vertex 666.9194791375169 1267.8399677339605 -84.42904156439864
  endloop
endfacet
facet normal -0.6087613991242746 -0.000619229720025136 0.7933531215611429
  outer loop
    vertex 667.2301393276964 1267.8397870090841 -84.19066370342351
    vertex 666.9195125149394 1265.8399683236278 -84.43057699692606
    vertex 667.2301727051187 1265.8397875987505 -84.19219913595097
  endloop
endfacet
facet normal 0.7933533312579135 -0.00045411601812051807 0.6087612714033422
  outer loop
    vertex 659.3088190876708 1267.8396243280854 -84.19066381291535
    vertex 659.0704745265887 1265.8393915753447 -83.88153916483265
    vertex 659.3088524650931 1265.8396249177529 -84.19219924544271
  endloop
endfacet
facet normal 0.7933533312579135 -0.00045411601812051807 0.6087612714033422
  outer loop
    vertex 659.0704745265887 1265.8393915753447 -83.88153916483265
    vertex 659.3088190876708 1267.8396243280854 -84.19066381291535
    vertex 659.0704411491665 1267.8393909856775 -83.88000373230524
  endloop
endfacet
facet normal 0.9238795267965308 -0.00027837395127519284 0.3826833449134694
  outer loop
    vertex 659.0704411491665 1267.8393909856775 -83.88000373230524
    vertex 658.9206238874649 1265.8391198565598 -83.5197678367503
    vertex 659.0704745265887 1265.8393915753447 -83.88153916483265
  endloop
endfacet
facet normal 0.9238795267965308 -0.00027837395127519284 0.3826833449134694
  outer loop
    vertex 658.9206238874649 1265.8391198565598 -83.5197678367503
    vertex 659.0704411491665 1267.8393909856775 -83.88000373230524
    vertex 658.9205905100425 1267.839119266893 -83.51823240422293
  endloop
endfacet
facet normal 0.923879537967278 0.00030921063874639717 -0.38268329427105907
  outer loop
    vertex 658.9205904985253 1267.8385361223109 -82.7417754878956
    vertex 659.0704745043387 1265.8382650265216 -82.38153958787012
    vertex 658.9206238759476 1265.8385367119788 -82.74331092042306
  endloop
endfacet
facet normal 0.923879537967278 0.00030921063874639717 -0.38268329427105907
  outer loop
    vertex 659.0704745043387 1265.8382650265216 -82.38153958787012
    vertex 658.9205904985253 1267.8385361223109 -82.7417754878956
    vertex 659.0704411269164 1267.838264436854 -82.38000415534276
  endloop
endfacet
facet normal 0.9914448631361676 0.00011675300158318162 -0.13052612661702132
  outer loop
    vertex 658.8694792437177 1267.8388276889186 -83.13000394682167
    vertex 658.9206238759476 1265.8385367119788 -82.74331092042306
    vertex 658.86951262114 1265.8388282785866 -83.13153937934909
  endloop
endfacet
facet normal 0.9914448631361676 0.00011675300158318162 -0.13052612661702132
  outer loop
    vertex 658.9206238759476 1265.8385367119788 -82.74331092042306
    vertex 658.8694792437177 1267.8388276889186 -83.13000394682167
    vertex 658.9205904985253 1267.8385361223109 -82.7417754878956
  endloop
endfacet
facet normal 0.38268344597651305 0.0007156638301690956 -0.9238792496862475
  outer loop
    vertex 659.9812840319947 1265.837740239611 -81.6826510319543
    vertex 659.6194792244493 1267.8378521524196 -81.83096619631873
    vertex 659.9812506545721 1267.8377396499454 -81.68111559942689
  endloop
endfacet
facet normal 0.38268344597651305 0.0007156638301690956 -0.9238792496862475
  outer loop
    vertex 659.6194792244493 1267.8378521524196 -81.83096619631873
    vertex 659.9812840319947 1265.837740239611 -81.6826510319543
    vertex 659.6195126018711 1265.8378527420853 -81.83250162884613
  endloop
endfacet
facet normal 0.9914448593353704 -8.366115972289042e-05 0.13052618089210385
  outer loop
    vertex 658.9205905100425 1267.839119266893 -83.51823240422293
    vertex 658.86951262114 1265.8388282785866 -83.13153937934909
    vertex 658.9206238874649 1265.8391198565598 -83.5197678367503
  endloop
endfacet
facet normal 0.9914448593353704 -8.366115972289042e-05 0.13052618089210385
  outer loop
    vertex 658.86951262114 1265.8388282785866 -83.13153937934909
    vertex 658.9205905100425 1267.839119266893 -83.51823240422293
    vertex 658.8694792437177 1267.8388276889186 -83.13000394682167
  endloop
endfacet
facet normal 0.6087614406082936 0.0006192296962432398 -0.7933530897293452
  outer loop
    vertex 659.6195126018711 1265.8378527420853 -81.83250162884613
    vertex 659.308819056205 1267.8380311474605 -82.06934406762099
    vertex 659.6194792244493 1267.8378521524196 -81.83096619631873
  endloop
endfacet
facet normal 0.6087614406082936 0.0006192296962432398 -0.7933530897293452
  outer loop
    vertex 659.308819056205 1267.8380311474605 -82.06934406762099
    vertex 659.6195126018711 1265.8378527420853 -81.83250162884613
    vertex 659.3088524336275 1265.838031737128 -82.07087950014841
  endloop
endfacet
facet normal 0.7933533491033035 0.000480596081929979 -0.6087612278175887
  outer loop
    vertex 659.0704411269164 1267.838264436854 -82.38000415534276
    vertex 659.3088524336275 1265.838031737128 -82.07087950014841
    vertex 659.0704745043387 1265.8382650265216 -82.38153958787012
  endloop
endfacet
facet normal 0.7933533491033035 0.000480596081929979 -0.6087612278175887
  outer loop
    vertex 659.3088524336275 1265.838031737128 -82.07087950014841
    vertex 659.0704411269164 1267.838264436854 -82.38000415534276
    vertex 659.308819056205 1267.8380311474605 -82.06934406762099
  endloop
endfacet
facet normal -1.1121122602685269e-07 0.9999997179750094 0.0007510325487410152
  outer loop
    vertex 610.4094824884796 1267.8350108530315 -77.99993552470126
    vertex 606.4094804065855 1267.8417697011716 -86.99993304608178
    vertex 606.409480273087 1267.8350104082288 -77.99993558436807
  endloop
endfacet
facet normal -1.1121122602685269e-07 0.9999997179750094 0.0007510325487410152
  outer loop
    vertex 606.4094804065855 1267.8417697011716 -86.99993304608178
    vertex 610.4094824884796 1267.8350108530315 -77.99993552470126
    vertex 610.409482621978 1267.8417701459712 -86.99993298641498
  endloop
endfacet
facet normal -1.1121122602685269e-07 0.9999997179750094 0.0007510325487410152
  outer loop
    vertex 610.409482621978 1267.8417701459712 -86.99993298641498
    vertex 610.4094824884796 1267.8350108530315 -77.99993552470126
    vertex 610.409482681311 1267.844774276162 -90.99993185831502
  endloop
endfacet
facet normal -1.1121122602685269e-07 0.9999997179750094 0.0007510325487410152
  outer loop
    vertex 610.409482681311 1267.844774276162 -90.99993185831502
    vertex 610.4094824884796 1267.8350108530315 -77.99993552470126
    vertex 610.4094824291475 1267.8320067228365 -73.99993665280127
  endloop
endfacet
facet normal -1.1121122602685269e-07 0.9999997179750094 0.0007510325487410152
  outer loop
    vertex 606.4094823733983 1267.8291524070107 -70.20000790040704
    vertex 610.4094824291475 1267.8320067228365 -73.99993665280127
    vertex 606.4094813501803 1267.8320062780347 -73.99993671246797
  endloop
endfacet
facet normal -1.1121122602685269e-07 0.9999997179750094 0.0007510325487410152
  outer loop
    vertex 610.4094824291475 1267.8320067228365 -73.99993665280127
    vertex 606.4094823733983 1267.8291524070107 -70.20000790040704
    vertex 730.0097060543703 1267.8291645241773 -70.19783946083639
  endloop
endfacet
facet normal -1.1121122602685269e-07 0.9999997179750094 0.0007510325487410152
  outer loop
    vertex 610.4094824291475 1267.8320067228365 -73.99993665280127
    vertex 730.0097060543703 1267.8291645241773 -70.19783946083639
    vertex 659.9812506545721 1267.8377396499454 -81.68111559942689
  endloop
endfacet
facet normal -1.1121122602685269e-07 0.9999997179750094 0.0007510325487410152
  outer loop
    vertex 610.4094824291475 1267.8320067228365 -73.99993665280127
    vertex 659.9812506545721 1267.8377396499454 -81.68111559942689
    vertex 659.6194792244493 1267.8378521524196 -81.83096619631873
  endloop
endfacet
facet normal -1.1121122602685269e-07 0.9999997179750094 0.0007510325487410152
  outer loop
    vertex 610.4094824291475 1267.8320067228365 -73.99993665280127
    vertex 659.6194792244493 1267.8378521524196 -81.83096619631873
    vertex 659.308819056205 1267.8380311474605 -82.06934406762099
  endloop
endfacet
facet normal -1.1121122602685269e-07 0.9999997179750094 0.0007510325487410152
  outer loop
    vertex 610.4094824291475 1267.8320067228365 -73.99993665280127
    vertex 659.308819056205 1267.8380311474605 -82.06934406762099
    vertex 659.0704411269164 1267.838264436854 -82.38000415534276
  endloop
endfacet
facet normal -1.1121122602685269e-07 0.9999997179750094 0.0007510325487410152
  outer loop
    vertex 610.4094824291475 1267.8320067228365 -73.99993665280127
    vertex 659.0704411269164 1267.838264436854 -82.38000415534276
    vertex 658.9205904985253 1267.8385361223109 -82.7417754878956
  endloop
endfacet
facet normal -1.1121122602685269e-07 0.9999997179750094 0.0007510325487410152
  outer loop
    vertex 610.4094824291475 1267.8320067228365 -73.99993665280127
    vertex 658.9205904985253 1267.8385361223109 -82.7417754878956
    vertex 658.8694792437177 1267.8388276889186 -83.13000394682167
  endloop
endfacet
facet normal -1.1121122602685269e-07 0.9999997179750094 0.0007510325487410152
  outer loop
    vertex 659.9812506545721 1267.8377396499454 -81.68111559942689
    vertex 730.0097060543703 1267.8291645241773 -70.19783946083639
    vertex 660.3694792214679 1267.8377013068962 -81.630004347484
  endloop
endfacet
facet normal -1.1121122602685269e-07 0.9999997179750094 0.0007510325487410152
  outer loop
    vertex 660.3694792214679 1267.8377013068962 -81.630004347484
    vertex 730.0097060543703 1267.8291645241773 -70.19783946083639
    vertex 666.1694792214666 1267.837701951856 -81.63000426096731
  endloop
endfacet
facet normal -1.1121122602685269e-07 0.9999997179750094 0.0007510325487410152
  outer loop
    vertex 666.1694792214666 1267.837701951856 -81.63000426096731
    vertex 730.0097060543703 1267.8291645241773 -70.19783946083639
    vertex 666.5577077977916 1267.837825002418 -81.68111545747607
  endloop
endfacet
facet normal -1.1121122602685269e-07 0.9999997179750094 0.0007510325487410152
  outer loop
    vertex 666.5577077977916 1267.837825002418 -81.68111545747607
    vertex 730.0097060543703 1267.8291645241773 -70.19783946083639
    vertex 666.9194792354521 1267.837947003794 -81.83096605986313
  endloop
endfacet
facet normal -1.1121122602685269e-07 0.9999997179750094 0.0007510325487410152
  outer loop
    vertex 666.9194792354521 1267.837947003794 -81.83096605986313
    vertex 730.0097060543703 1267.8291645241773 -70.19783946083639
    vertex 667.2301394076603 1267.8381370898117 -82.06934393697817
  endloop
endfacet
facet normal -1.1121122602685269e-07 0.9999997179750094 0.0007510325487410152
  outer loop
    vertex 667.2301394076603 1267.8381370898117 -82.06934393697817
    vertex 730.0097060543703 1267.8291645241773 -70.19783946083639
    vertex 667.4685173370698 1267.8383823064237 -82.3800040304339
  endloop
endfacet
facet normal -1.1121122602685269e-07 0.9999997179750094 0.0007510325487410152
  outer loop
    vertex 667.4685173370698 1267.8383823064237 -82.3800040304339
    vertex 730.0097060543703 1267.8291645241773 -70.19783946083639
    vertex 667.6183679617304 1267.838665942521 -82.74177536825124
  endloop
endfacet
facet normal -1.1121122602685269e-07 0.9999997179750094 0.0007510325487410152
  outer loop
    vertex 667.6183679617304 1267.838665942521 -82.74177536825124
    vertex 730.0097060543703 1267.8291645241773 -70.19783946083639
    vertex 667.6694792092112 1267.8389686687728 -83.13000383161354
  endloop
endfacet
facet normal -1.1121122602685269e-07 0.9999997179750094 0.0007510325487410152
  outer loop
    vertex 667.6694792092112 1267.8389686687728 -83.13000383161354
    vertex 730.0097060543703 1267.8291645241773 -70.19783946083639
    vertex 716.085437532761 1267.8328275704646 -75.07724688281282
  endloop
endfacet
facet normal -1.1121122602685269e-07 0.9999997179750094 0.0007510325487410152
  outer loop
    vertex 667.6694792092112 1267.8389686687728 -83.13000383161354
    vertex 716.085437532761 1267.8328275704646 -75.07724688281282
    vertex 714.1077537147531 1267.8334425839917 -75.89643014582103
  endloop
endfacet
facet normal -1.1121122602685269e-07 0.9999997179750094 0.0007510325487410152
  outer loop
    vertex 667.6694792092112 1267.8389686687728 -83.13000383161354
    vertex 714.1077537147531 1267.8334425839917 -75.89643014582103
    vertex 712.4094781283535 1267.8344210902183 -77.19956250894053
  endloop
endfacet
facet normal -1.1121122602685269e-07 0.9999997179750094 0.0007510325487410152
  outer loop
    vertex 667.6694792092112 1267.8389686687728 -83.13000383161354
    vertex 712.4094781283535 1267.8344210902183 -77.19956250894053
    vertex 711.1063454482409 1267.8356964055665 -78.89783765515241
  endloop
endfacet
facet normal -1.1121122602685269e-07 0.9999997179750094 0.0007510325487410152
  outer loop
    vertex 667.6694792092112 1267.8389686687728 -83.13000383161354
    vertex 711.1063454482409 1267.8356964055665 -78.89783765515241
    vertex 710.2871620130384 1267.8371816193999 -80.87552093977494
  endloop
endfacet
facet normal -1.1121122602685269e-07 0.9999997179750094 0.0007510325487410152
  outer loop
    vertex 667.6694792092112 1267.8389686687728 -83.13000383161354
    vertex 710.2871620130384 1267.8371816193999 -80.87552093977494
    vertex 710.0077538200896 1267.8387755168512 -82.99783651523742
  endloop
endfacet
facet normal -1.1121122602685269e-07 0.9999997179750094 0.0007510325487410152
  outer loop
    vertex 716.085437532761 1267.8328275704646 -75.07724688281282
    vertex 730.0097060543703 1267.8291645241773 -70.19783946083639
    vertex 718.2077536984565 1267.8326179617961 -74.79783870552538
  endloop
endfacet
facet normal -1.1121122602685269e-07 0.9999997179750094 0.0007510325487410152
  outer loop
    vertex 718.2077536984565 1267.8326179617961 -74.79783870552538
    vertex 730.0097060543703 1267.8291645241773 -70.19783946083639
    vertex 720.3300698724407 1267.8328280424664 -75.0772468194969
  endloop
endfacet
facet normal -1.1121122602685269e-07 0.9999997179750094 0.0007510325487410152
  outer loop
    vertex 720.3300698724407 1267.8328280424664 -75.0772468194969
    vertex 730.0097060543703 1267.8291645241773 -70.19783946083639
    vertex 722.307753714752 1267.833443495833 -75.8964300235043
  endloop
endfacet
facet normal -1.1121122602685269e-07 0.9999997179750094 0.0007510325487410152
  outer loop
    vertex 722.307753714752 1267.833443495833 -75.8964300235043
    vertex 730.0097060543703 1267.8291645241773 -70.19783946083639
    vertex 724.006029339812 1267.8344223797571 -77.19956233595829
  endloop
endfacet
facet normal -1.1121122602685269e-07 0.9999997179750094 0.0007510325487410152
  outer loop
    vertex 724.006029339812 1267.8344223797571 -77.19956233595829
    vertex 730.0097060543703 1267.8291645241773 -70.19783946083639
    vertex 725.309162070305 1267.835697984926 -78.8978374432935
  endloop
endfacet
facet normal -1.1121122602685269e-07 0.9999997179750094 0.0007510325487410152
  outer loop
    vertex 725.309162070305 1267.835697984926 -78.8978374432935
    vertex 730.0097060543703 1267.8291645241773 -70.19783946083639
    vertex 726.1283455641784 1267.8371833809417 -80.87552070347694
  endloop
endfacet
facet normal -1.1121122602685269e-07 0.9999997179750094 0.0007510325487410152
  outer loop
    vertex 726.1283455641784 1267.8371833809417 -80.87552070347694
    vertex 730.0097060543703 1267.8291645241773 -70.19783946083639
    vertex 727.0097035496839 1267.8363085269727 -79.71052226844016
  endloop
endfacet
facet normal -1.1121122602685269e-07 0.9999997179750094 0.0007510325487410152
  outer loop
    vertex 726.1283455641784 1267.8371833809417 -80.87552070347694
    vertex 727.0097035496839 1267.8363085269727 -79.71052226844016
    vertex 726.4077538200892 1267.8387773405352 -82.99783627060383
  endloop
endfacet
facet normal -1.1121122602685269e-07 0.9999997179750094 0.0007510325487410152
  outer loop
    vertex 727.0097035496839 1267.8363085269727 -79.71052226844016
    vertex 730.0097060543703 1267.8291645241773 -70.19783946083639
    vertex 730.0097035496835 1267.8363088605508 -79.71052219409077
  endloop
endfacet
facet normal -1.1121122602685269e-07 0.9999997179750094 0.0007510325487410152
  outer loop
    vertex 606.409476772541 1267.8447738313628 -90.99993191798185
    vertex 730.0096994302586 1267.847639924876 -94.79783252308296
    vertex 606.4094757492853 1267.8476278077094 -94.80000096265357
  endloop
endfacet
facet normal -1.1121122602685269e-07 0.9999997179750094 0.0007510325487410152
  outer loop
    vertex 730.0096994302586 1267.847639924876 -94.79783252308296
    vertex 606.409476772541 1267.8447738313628 -90.99993191798185
    vertex 610.409482681311 1267.844774276162 -90.99993185831502
  endloop
endfacet
facet normal -1.1121122602685269e-07 0.9999997179750094 0.0007510325487410152
  outer loop
    vertex 730.0096994302586 1267.847639924876 -94.79783252308296
    vertex 610.409482681311 1267.844774276162 -90.99993185831502
    vertex 659.9812506975561 1267.8399159751514 -84.5788922610485
  endloop
endfacet
facet normal -1.1121122602685269e-07 0.9999997179750094 0.0007510325487410152
  outer loop
    vertex 659.9812506975561 1267.8399159751514 -84.5788922610485
    vertex 610.409482681311 1267.844774276162 -90.99993185831502
    vertex 610.4094824291475 1267.8320067228365 -73.99993665280127
  endloop
endfacet
facet normal -1.1121122602685269e-07 0.9999997179750094 0.0007510325487410152
  outer loop
    vertex 659.9812506975561 1267.8399159751514 -84.5788922610485
    vertex 610.4094824291475 1267.8320067228365 -73.99993665280127
    vertex 659.6194792629866 1267.8398033922183 -84.42904167494956
  endloop
endfacet
facet normal -1.1121122602685269e-07 0.9999997179750094 0.0007510325487410152
  outer loop
    vertex 659.6194792629866 1267.8398033922183 -84.42904167494956
    vertex 610.4094824291475 1267.8320067228365 -73.99993665280127
    vertex 659.3088190876708 1267.8396243280854 -84.19066381291535
  endloop
endfacet
facet normal -1.1121122602685269e-07 0.9999997179750094 0.0007510325487410152
  outer loop
    vertex 659.3088190876708 1267.8396243280854 -84.19066381291535
    vertex 610.4094824291475 1267.8320067228365 -73.99993665280127
    vertex 659.0704411491665 1267.8393909856775 -83.88000373230524
  endloop
endfacet
facet normal -1.1121122602685269e-07 0.9999997179750094 0.0007510325487410152
  outer loop
    vertex 659.0704411491665 1267.8393909856775 -83.88000373230524
    vertex 610.4094824291475 1267.8320067228365 -73.99993665280127
    vertex 658.9205905100425 1267.839119266893 -83.51823240422293
  endloop
endfacet
facet normal -1.1121122602685269e-07 0.9999997179750094 0.0007510325487410152
  outer loop
    vertex 658.9205905100425 1267.839119266893 -83.51823240422293
    vertex 610.4094824291475 1267.8320067228365 -73.99993665280127
    vertex 658.8694792437177 1267.8388276889186 -83.13000394682167
  endloop
endfacet
facet normal -1.1121122602685269e-07 0.9999997179750094 0.0007510325487410152
  outer loop
    vertex 730.0096994302586 1267.847639924876 -94.79783252308296
    vertex 659.9812506975561 1267.8399159751514 -84.5788922610485
    vertex 660.3694792659675 1267.8399544045435 -84.63000350140915
  endloop
endfacet
facet normal -1.1121122602685269e-07 0.9999997179750094 0.0007510325487410152
  outer loop
    vertex 730.0096994302586 1267.847639924876 -94.79783252308296
    vertex 660.3694792659675 1267.8399544045435 -84.63000350140915
    vertex 666.1694791060478 1267.8401901861089 -84.63000332432945
  endloop
endfacet
facet normal -1.1121122602685269e-07 0.9999997179750094 0.0007510325487410152
  outer loop
    vertex 730.0096994302586 1267.847639924876 -94.79783252308296
    vertex 666.1694791060478 1267.8401901861089 -84.63000332432945
    vertex 666.5577076885594 1267.8400788340575 -84.57889214799042
  endloop
endfacet
facet normal -1.1121122602685269e-07 0.9999997179750094 0.0007510325487410152
  outer loop
    vertex 730.0096994302586 1267.847639924876 -94.79783252308296
    vertex 666.5577076885594 1267.8400788340575 -84.57889214799042
    vertex 666.9194791375169 1267.8399677339605 -84.42904156439864
  endloop
endfacet
facet normal -1.1121122602685269e-07 0.9999997179750094 0.0007510325487410152
  outer loop
    vertex 730.0096994302586 1267.847639924876 -94.79783252308296
    vertex 666.9194791375169 1267.8399677339605 -84.42904156439864
    vertex 667.2301393276964 1267.8397870090841 -84.19066370342351
  endloop
endfacet
facet normal -1.1121122602685269e-07 0.9999997179750094 0.0007510325487410152
  outer loop
    vertex 730.0096994302586 1267.847639924876 -94.79783252308296
    vertex 667.2301393276964 1267.8397870090841 -84.19066370342351
    vertex 667.4685172805277 1267.8395489755296 -83.88000362235245
  endloop
endfacet
facet normal -1.1121122602685269e-07 0.9999997179750094 0.0007510325487410152
  outer loop
    vertex 730.0096994302586 1267.847639924876 -94.79783252308296
    vertex 667.4685172805277 1267.8395489755296 -83.88000362235245
    vertex 667.6183679324618 1267.8392698548885 -83.51823229232038
  endloop
endfacet
facet normal -1.1121122602685269e-07 0.9999997179750094 0.0007510325487410152
  outer loop
    vertex 730.0096994302586 1267.847639924876 -94.79783252308296
    vertex 667.6183679324618 1267.8392698548885 -83.51823229232038
    vertex 667.6694792092112 1267.8389686687728 -83.13000383161354
  endloop
endfacet
facet normal -1.1121122602685269e-07 0.9999997179750094 0.0007510325487410152
  outer loop
    vertex 730.0096994302586 1267.847639924876 -94.79783252308296
    vertex 667.6694792092112 1267.8389686687728 -83.13000383161354
    vertex 716.0854377677365 1267.8447248149234 -90.91842596634406
  endloop
endfacet
facet normal -1.1121122602685269e-07 0.9999997179750094 0.0007510325487410152
  outer loop
    vertex 716.0854377677365 1267.8447248149234 -90.91842596634406
    vertex 667.6694792092112 1267.8389686687728 -83.13000383161354
    vertex 714.107753925426 1267.8441093615547 -90.0992427623367
  endloop
endfacet
facet normal -1.1121122602685269e-07 0.9999997179750094 0.0007510325487410152
  outer loop
    vertex 714.107753925426 1267.8441093615547 -90.0992427623367
    vertex 667.6694792092112 1267.8389686687728 -83.13000383161354
    vertex 712.4094783003665 1267.8431304776293 -88.79611044988276
  endloop
endfacet
facet normal -1.1121122602685269e-07 0.9999997179750094 0.0007510325487410152
  outer loop
    vertex 712.4094783003665 1267.8431304776293 -88.79611044988276
    vertex 667.6694792092112 1267.8389686687728 -83.13000383161354
    vertex 711.1063455698734 1267.8418548724667 -87.09783534254764
  endloop
endfacet
facet normal -1.1121122602685269e-07 0.9999997179750094 0.0007510325487410152
  outer loop
    vertex 711.1063455698734 1267.8418548724667 -87.09783534254764
    vertex 667.6694792092112 1267.8389686687728 -83.13000383161354
    vertex 710.287162075999 1267.8403694764486 -85.12015208236403
  endloop
endfacet
facet normal -1.1121122602685269e-07 0.9999997179750094 0.0007510325487410152
  outer loop
    vertex 710.287162075999 1267.8403694764486 -85.12015208236403
    vertex 667.6694792092112 1267.8389686687728 -83.13000383161354
    vertex 710.0077538200896 1267.8387755168512 -82.99783651523742
  endloop
endfacet
facet normal -1.1121122602685269e-07 0.9999997179750094 0.0007510325487410152
  outer loop
    vertex 711.1063455698734 1267.8418548724667 -87.09783534254764
    vertex 710.287162075999 1267.8403694764486 -85.12015208236403
    vertex 710.4569275357638 1267.840677306064 -85.53000202495146
  endloop
endfacet
facet normal -1.1121122602685269e-07 0.9999997179750094 0.0007510325487410152
  outer loop
    vertex 730.0096994302586 1267.847639924876 -94.79783252308296
    vertex 716.0854377677365 1267.8447248149234 -90.91842596634406
    vertex 718.207753941721 1267.8449348955955 -91.19783408031559
  endloop
endfacet
facet normal -1.1121122602685269e-07 0.9999997179750094 0.0007510325487410152
  outer loop
    vertex 730.0096994302586 1267.847639924876 -94.79783252308296
    vertex 718.207753941721 1267.8449348955955 -91.19783408031559
    vertex 720.3300701074174 1267.844725286925 -90.91842590302817
  endloop
endfacet
facet normal -1.1121122602685269e-07 0.9999997179750094 0.0007510325487410152
  outer loop
    vertex 730.0096994302586 1267.847639924876 -94.79783252308296
    vertex 720.3300701074174 1267.844725286925 -90.91842590302817
    vertex 722.3077539254247 1267.8441102734002 -90.09924264001978
  endloop
endfacet
facet normal -1.1121122602685269e-07 0.9999997179750094 0.0007510325487410152
  outer loop
    vertex 730.0096994302586 1267.847639924876 -94.79783252308296
    vertex 722.3077539254247 1267.8441102734002 -90.09924264001978
    vertex 724.006029511825 1267.843131767168 -88.79611027690062
  endloop
endfacet
facet normal -1.1121122602685269e-07 0.9999997179750094 0.0007510325487410152
  outer loop
    vertex 730.0096994302586 1267.847639924876 -94.79783252308296
    vertex 724.006029511825 1267.843131767168 -88.79611027690062
    vertex 725.3091621919369 1267.841856451822 -87.09783513068865
  endloop
endfacet
facet normal -1.1121122602685269e-07 0.9999997179750094 0.0007510325487410152
  outer loop
    vertex 730.0096994302586 1267.847639924876 -94.79783252308296
    vertex 725.3091621919369 1267.841856451822 -87.09783513068865
    vertex 726.1283456271404 1267.8403712379866 -85.12015184606601
  endloop
endfacet
facet normal -1.1121122602685269e-07 0.9999997179750094 0.0007510325487410152
  outer loop
    vertex 730.0096994302586 1267.847639924876 -94.79783252308296
    vertex 726.1283456271404 1267.8403712379866 -85.12015184606601
    vertex 727.009703688001 1267.8405143092443 -85.31052068910026
  endloop
endfacet
facet normal -1.1121122602685269e-07 0.9999997179750094 0.0007510325487410152
  outer loop
    vertex 727.009703688001 1267.8405143092443 -85.31052068910026
    vertex 726.1283456271404 1267.8403712379866 -85.12015184606601
    vertex 726.4077538200892 1267.8387773405352 -82.99783627060383
  endloop
endfacet
facet normal -1.1121122602685269e-07 0.9999997179750094 0.0007510325487410152
  outer loop
    vertex 727.009703688001 1267.8405143092443 -85.31052068910026
    vertex 726.4077538200892 1267.8387773405352 -82.99783627060383
    vertex 727.0097035496839 1267.8363085269727 -79.71052226844016
  endloop
endfacet
facet normal -1.1121122602685269e-07 0.9999997179750094 0.0007510325487410152
  outer loop
    vertex 730.0096994302586 1267.847639924876 -94.79783252308296
    vertex 727.009703688001 1267.8405143092443 -85.31052068910026
    vertex 730.0097036880014 1267.8405146428238 -85.31052061475087
  endloop
endfacet
endsolid Pet Feeder
