solid Pet Feeder
facet normal 0.0 0.0 -1.0
  outer loop
    vertex 347.010722266639 2508.5486443881405 0.0
    vertex 347.010722266639 2504.6663587116022 0.0
    vertex 346.755165963807 2506.6075015498714 0.0
  endloop
endfacet
facet normal 0.0 0.0 -1.0
  outer loop
    vertex 347.010722266639 2504.6663587116022 0.0
    vertex 347.010722266639 2508.5486443881405 0.0
    vertex 347.7599754354237 2510.3575015498714 0.0
  endloop
endfacet
facet normal 0.0 0.0 -1.0
  outer loop
    vertex 347.010722266639 2504.6663587116022 0.0
    vertex 347.7599754354237 2510.3575015498714 0.0
    vertex 347.7599754354237 2502.8575015498714 0.0
  endloop
endfacet
facet normal 0.0 0.0 -1.0
  outer loop
    vertex 347.7599754354237 2502.8575015498714 0.0
    vertex 347.7599754354237 2510.3575015498714 0.0
    vertex 348.9518651049079 2511.9108024087705 0.0
  endloop
endfacet
facet normal 0.0 0.0 -1.0
  outer loop
    vertex 347.7599754354237 2502.8575015498714 0.0
    vertex 348.9518651049079 2511.9108024087705 0.0
    vertex 348.9518651049079 2501.3042006909723 0.0
  endloop
endfacet
facet normal 0.0 0.0 -1.0
  outer loop
    vertex 348.9518651049079 2501.3042006909723 0.0
    vertex 348.9518651049079 2511.9108024087705 0.0
    vertex 350.50516596380703 2513.1026920782547 0.0
  endloop
endfacet
facet normal 0.0 0.0 -1.0
  outer loop
    vertex 348.9518651049079 2501.3042006909723 0.0
    vertex 350.50516596380703 2513.1026920782547 0.0
    vertex 350.50516596380703 2500.112311021488 0.0
  endloop
endfacet
facet normal 0.0 0.0 -1.0
  outer loop
    vertex 350.50516596380703 2500.112311021488 0.0
    vertex 350.50516596380703 2513.1026920782547 0.0
    vertex 352.3140231255382 2513.8519452470396 0.0
  endloop
endfacet
facet normal 0.0 0.0 -1.0
  outer loop
    vertex 350.50516596380703 2500.112311021488 0.0
    vertex 352.3140231255382 2513.8519452470396 0.0
    vertex 351.505165963807 2506.6075015498714 0.0
  endloop
endfacet
facet normal 0.0 0.0 -1.0
  outer loop
    vertex 351.505165963807 2506.6075015498714 0.0
    vertex 352.3140231255382 2513.8519452470396 0.0
    vertex 351.5988699415121 2507.3192539239035 0.0
  endloop
endfacet
facet normal 0.0 0.0 -1.0
  outer loop
    vertex 351.5988699415121 2507.3192539239035 0.0
    vertex 352.3140231255382 2513.8519452470396 0.0
    vertex 351.8735961033998 2507.9825015498714 0.0
  endloop
endfacet
facet normal 0.0 0.0 -1.0
  outer loop
    vertex 351.8735961033998 2507.9825015498714 0.0
    vertex 352.3140231255382 2513.8519452470396 0.0
    vertex 352.310622315544 2508.5520451981342 0.0
  endloop
endfacet
facet normal 0.0 0.0 -1.0
  outer loop
    vertex 352.310622315544 2508.5520451981342 0.0
    vertex 352.3140231255382 2513.8519452470396 0.0
    vertex 352.88016596380703 2508.9890714102785 0.0
  endloop
endfacet
facet normal 0.0 0.0 -1.0
  outer loop
    vertex 352.88016596380703 2508.9890714102785 0.0
    vertex 352.3140231255382 2513.8519452470396 0.0
    vertex 354.2551659638071 2514.1075015498714 0.0
  endloop
endfacet
facet normal 0.0 0.0 -1.0
  outer loop
    vertex 352.88016596380703 2508.9890714102785 0.0
    vertex 354.2551659638071 2514.1075015498714 0.0
    vertex 353.5434135897751 2509.2637975721664 0.0
  endloop
endfacet
facet normal 0.0 0.0 -1.0
  outer loop
    vertex 353.5434135897751 2509.2637975721664 0.0
    vertex 354.2551659638071 2514.1075015498714 0.0
    vertex 354.2551659638071 2509.3575015498714 0.0
  endloop
endfacet
facet normal 0.0 0.0 -1.0
  outer loop
    vertex 354.2551659638071 2509.3575015498714 0.0
    vertex 354.2551659638071 2514.1075015498714 0.0
    vertex 356.19630880207603 2513.8519452470396 0.0
  endloop
endfacet
facet normal 0.0 0.0 -1.0
  outer loop
    vertex 354.2551659638071 2509.3575015498714 0.0
    vertex 356.19630880207603 2513.8519452470396 0.0
    vertex 354.96691833783905 2509.2637975721664 0.0
  endloop
endfacet
facet normal 0.0 0.0 -1.0
  outer loop
    vertex 354.96691833783905 2509.2637975721664 0.0
    vertex 356.19630880207603 2513.8519452470396 0.0
    vertex 355.63016596380714 2508.9890714102785 0.0
  endloop
endfacet
facet normal 0.0 0.0 -1.0
  outer loop
    vertex 355.63016596380714 2508.9890714102785 0.0
    vertex 356.19630880207603 2513.8519452470396 0.0
    vertex 356.1997096120702 2508.5520451981342 0.0
  endloop
endfacet
facet normal 0.0 0.0 -1.0
  outer loop
    vertex 356.1997096120702 2508.5520451981342 0.0
    vertex 356.19630880207603 2513.8519452470396 0.0
    vertex 358.00516596380714 2513.1026920782547 0.0
  endloop
endfacet
facet normal 0.0 0.0 -1.0
  outer loop
    vertex 356.1997096120702 2508.5520451981342 0.0
    vertex 358.00516596380714 2513.1026920782547 0.0
    vertex 356.6367358242144 2507.9825015498714 0.0
  endloop
endfacet
facet normal 0.0 0.0 -1.0
  outer loop
    vertex 356.6367358242144 2507.9825015498714 0.0
    vertex 358.00516596380714 2513.1026920782547 0.0
    vertex 356.9114619861021 2507.3192539239035 0.0
  endloop
endfacet
facet normal 0.0 0.0 -1.0
  outer loop
    vertex 356.9114619861021 2507.3192539239035 0.0
    vertex 358.00516596380714 2513.1026920782547 0.0
    vertex 357.0051659638072 2506.6075015498714 0.0
  endloop
endfacet
facet normal 0.0 0.0 -1.0
  outer loop
    vertex 351.505165963807 2506.6075015498714 0.0
    vertex 352.3140231255382 2499.363057852703 0.0
    vertex 350.50516596380703 2500.112311021488 0.0
  endloop
endfacet
facet normal 0.0 0.0 -1.0
  outer loop
    vertex 352.3140231255382 2499.363057852703 0.0
    vertex 351.505165963807 2506.6075015498714 0.0
    vertex 351.5988699415121 2505.8957491758392 0.0
  endloop
endfacet
facet normal 0.0 0.0 -1.0
  outer loop
    vertex 352.3140231255382 2499.363057852703 0.0
    vertex 351.5988699415121 2505.8957491758392 0.0
    vertex 351.8735961033998 2505.2325015498714 0.0
  endloop
endfacet
facet normal 0.0 0.0 -1.0
  outer loop
    vertex 352.3140231255382 2499.363057852703 0.0
    vertex 351.8735961033998 2505.2325015498714 0.0
    vertex 352.310622315544 2504.6629579016085 0.0
  endloop
endfacet
facet normal 0.0 0.0 -1.0
  outer loop
    vertex 352.3140231255382 2499.363057852703 0.0
    vertex 352.310622315544 2504.6629579016085 0.0
    vertex 352.88016596380703 2504.2259316894642 0.0
  endloop
endfacet
facet normal 0.0 0.0 -1.0
  outer loop
    vertex 352.3140231255382 2499.363057852703 0.0
    vertex 352.88016596380703 2504.2259316894642 0.0
    vertex 354.2551659638071 2499.1075015498714 0.0
  endloop
endfacet
facet normal 0.0 0.0 -1.0
  outer loop
    vertex 354.2551659638071 2499.1075015498714 0.0
    vertex 352.88016596380703 2504.2259316894642 0.0
    vertex 353.5434135897751 2503.9512055275763 0.0
  endloop
endfacet
facet normal 0.0 0.0 -1.0
  outer loop
    vertex 354.2551659638071 2499.1075015498714 0.0
    vertex 353.5434135897751 2503.9512055275763 0.0
    vertex 354.2551659638071 2503.8575015498714 0.0
  endloop
endfacet
facet normal 0.0 0.0 -1.0
  outer loop
    vertex 354.2551659638071 2499.1075015498714 0.0
    vertex 354.2551659638071 2503.8575015498714 0.0
    vertex 354.96691833783905 2503.9512055275763 0.0
  endloop
endfacet
facet normal 0.0 0.0 -1.0
  outer loop
    vertex 354.2551659638071 2499.1075015498714 0.0
    vertex 354.96691833783905 2503.9512055275763 0.0
    vertex 356.19630880207603 2499.363057852703 0.0
  endloop
endfacet
facet normal 0.0 0.0 -1.0
  outer loop
    vertex 356.19630880207603 2499.363057852703 0.0
    vertex 354.96691833783905 2503.9512055275763 0.0
    vertex 355.63016596380714 2504.2259316894642 0.0
  endloop
endfacet
facet normal 0.0 0.0 -1.0
  outer loop
    vertex 356.19630880207603 2499.363057852703 0.0
    vertex 355.63016596380714 2504.2259316894642 0.0
    vertex 356.1997096120702 2504.6629579016085 0.0
  endloop
endfacet
facet normal 0.0 0.0 -1.0
  outer loop
    vertex 356.19630880207603 2499.363057852703 0.0
    vertex 356.1997096120702 2504.6629579016085 0.0
    vertex 358.00516596380714 2500.112311021488 0.0
  endloop
endfacet
facet normal 0.0 0.0 -1.0
  outer loop
    vertex 358.00516596380714 2500.112311021488 0.0
    vertex 356.1997096120702 2504.6629579016085 0.0
    vertex 356.6367358242144 2505.2325015498714 0.0
  endloop
endfacet
facet normal 0.0 0.0 -1.0
  outer loop
    vertex 358.00516596380714 2500.112311021488 0.0
    vertex 356.6367358242144 2505.2325015498714 0.0
    vertex 356.9114619861021 2505.8957491758392 0.0
  endloop
endfacet
facet normal 0.0 0.0 -1.0
  outer loop
    vertex 358.00516596380714 2500.112311021488 0.0
    vertex 356.9114619861021 2505.8957491758392 0.0
    vertex 357.0051659638072 2506.6075015498714 0.0
  endloop
endfacet
facet normal 0.0 0.0 -1.0
  outer loop
    vertex 358.00516596380714 2500.112311021488 0.0
    vertex 357.0051659638072 2506.6075015498714 0.0
    vertex 358.00516596380714 2513.1026920782547 0.0
  endloop
endfacet
facet normal 0.0 0.0 -1.0
  outer loop
    vertex 358.00516596380714 2500.112311021488 0.0
    vertex 358.00516596380714 2513.1026920782547 0.0
    vertex 359.5584668227063 2511.9108024087705 0.0
  endloop
endfacet
facet normal 0.0 0.0 -1.0
  outer loop
    vertex 358.00516596380714 2500.112311021488 0.0
    vertex 359.5584668227063 2511.9108024087705 0.0
    vertex 359.5584668227063 2501.3042006909723 0.0
  endloop
endfacet
facet normal 0.0 0.0 -1.0
  outer loop
    vertex 359.5584668227063 2501.3042006909723 0.0
    vertex 359.5584668227063 2511.9108024087705 0.0
    vertex 360.75035649219046 2510.3575015498714 0.0
  endloop
endfacet
facet normal 0.0 0.0 -1.0
  outer loop
    vertex 359.5584668227063 2501.3042006909723 0.0
    vertex 360.75035649219046 2510.3575015498714 0.0
    vertex 360.75035649219046 2502.857501549871 0.0
  endloop
endfacet
facet normal 0.0 0.0 -1.0
  outer loop
    vertex 360.75035649219046 2502.857501549871 0.0
    vertex 360.75035649219046 2510.3575015498714 0.0
    vertex 361.4996096609752 2508.5486443881405 0.0
  endloop
endfacet
facet normal 0.0 0.0 -1.0
  outer loop
    vertex 360.75035649219046 2502.857501549871 0.0
    vertex 361.4996096609752 2508.5486443881405 0.0
    vertex 361.4996096609752 2504.6663587116022 0.0
  endloop
endfacet
facet normal 0.0 0.0 -1.0
  outer loop
    vertex 361.4996096609752 2504.6663587116022 0.0
    vertex 361.4996096609752 2508.5486443881405 0.0
    vertex 361.7551659638072 2506.6075015498714 0.0
  endloop
endfacet
facet normal 0.923879532511287 -0.38268343236508945 0.0
  outer loop
    vertex 361.4996096609752 2504.6663587116022 0.0
    vertex 360.75035649219046 2502.857501549871 1.9999999999999998
    vertex 360.75035649219046 2502.857501549871 0.0
  endloop
endfacet
facet normal 0.923879532511287 -0.38268343236508945 0.0
  outer loop
    vertex 360.75035649219046 2502.857501549871 1.9999999999999998
    vertex 361.4996096609752 2504.6663587116022 0.0
    vertex 361.4996096609752 2504.6663587116022 1.9999999999999998
  endloop
endfacet
facet normal 0.7933533402911744 -0.6087614290087999 0.0
  outer loop
    vertex 360.75035649219046 2502.857501549871 0.0
    vertex 359.5584668227063 2501.3042006909723 1.9999999999999998
    vertex 359.5584668227063 2501.3042006909723 0.0
  endloop
endfacet
facet normal 0.7933533402911744 -0.6087614290087999 0.0
  outer loop
    vertex 359.5584668227063 2501.3042006909723 1.9999999999999998
    vertex 360.75035649219046 2502.857501549871 0.0
    vertex 360.75035649219046 2502.857501549871 1.9999999999999998
  endloop
endfacet
facet normal 0.6087614290087979 -0.793353340291176 0.0
  outer loop
    vertex 359.5584668227063 2501.3042006909723 1.9999999999999998
    vertex 358.00516596380714 2500.112311021488 0.0
    vertex 359.5584668227063 2501.3042006909723 0.0
  endloop
endfacet
facet normal 0.6087614290087979 -0.793353340291176 0.0
  outer loop
    vertex 358.00516596380714 2500.112311021488 0.0
    vertex 359.5584668227063 2501.3042006909723 1.9999999999999998
    vertex 358.00516596380714 2500.112311021488 1.9999999999999998
  endloop
endfacet
facet normal 0.7933533402912428 0.6087614290087109 0.0
  outer loop
    vertex 359.5584668227063 2511.9108024087705 0.0
    vertex 360.75035649219046 2510.3575015498714 1.9999999999999998
    vertex 360.75035649219046 2510.3575015498714 0.0
  endloop
endfacet
facet normal 0.7933533402912428 0.6087614290087109 0.0
  outer loop
    vertex 360.75035649219046 2510.3575015498714 1.9999999999999998
    vertex 359.5584668227063 2511.9108024087705 0.0
    vertex 359.5584668227063 2511.9108024087705 1.9999999999999998
  endloop
endfacet
facet normal 0.92387953251126 0.3826834323651547 0.0
  outer loop
    vertex 360.75035649219046 2510.3575015498714 0.0
    vertex 361.4996096609752 2508.5486443881405 1.9999999999999998
    vertex 361.4996096609752 2508.5486443881405 0.0
  endloop
endfacet
facet normal 0.92387953251126 0.3826834323651547 0.0
  outer loop
    vertex 361.4996096609752 2508.5486443881405 1.9999999999999998
    vertex 360.75035649219046 2510.3575015498714 0.0
    vertex 360.75035649219046 2510.3575015498714 1.9999999999999998
  endloop
endfacet
facet normal 0.9914448613738115 0.13052619222004344 0.0
  outer loop
    vertex 361.4996096609752 2508.5486443881405 0.0
    vertex 361.7551659638072 2506.6075015498714 1.9999999999999998
    vertex 361.7551659638072 2506.6075015498714 0.0
  endloop
endfacet
facet normal 0.9914448613738115 0.13052619222004344 0.0
  outer loop
    vertex 361.7551659638072 2506.6075015498714 1.9999999999999998
    vertex 361.4996096609752 2508.5486443881405 0.0
    vertex 361.4996096609752 2508.5486443881405 1.9999999999999998
  endloop
endfacet
facet normal -0.0 -0.0 1.0
  outer loop
    vertex 347.010722266639 2504.6663587116022 1.9999999999999998
    vertex 347.010722266639 2508.5486443881405 1.9999999999999998
    vertex 346.755165963807 2506.6075015498714 1.9999999999999998
  endloop
endfacet
facet normal -0.0 -0.0 1.0
  outer loop
    vertex 347.010722266639 2508.5486443881405 1.9999999999999998
    vertex 347.010722266639 2504.6663587116022 1.9999999999999998
    vertex 347.7599754354237 2502.8575015498714 1.9999999999999998
  endloop
endfacet
facet normal -0.0 -0.0 1.0
  outer loop
    vertex 347.010722266639 2508.5486443881405 1.9999999999999998
    vertex 347.7599754354237 2502.8575015498714 1.9999999999999998
    vertex 347.7599754354237 2510.3575015498714 1.9999999999999998
  endloop
endfacet
facet normal -0.0 -0.0 1.0
  outer loop
    vertex 347.7599754354237 2510.3575015498714 1.9999999999999998
    vertex 347.7599754354237 2502.8575015498714 1.9999999999999998
    vertex 348.9518651049079 2501.3042006909723 1.9999999999999998
  endloop
endfacet
facet normal -0.0 -0.0 1.0
  outer loop
    vertex 347.7599754354237 2510.3575015498714 1.9999999999999998
    vertex 348.9518651049079 2501.3042006909723 1.9999999999999998
    vertex 348.9518651049079 2511.9108024087705 1.9999999999999998
  endloop
endfacet
facet normal -0.0 -0.0 1.0
  outer loop
    vertex 348.9518651049079 2511.9108024087705 1.9999999999999998
    vertex 348.9518651049079 2501.3042006909723 1.9999999999999998
    vertex 350.50516596380703 2500.112311021488 1.9999999999999998
  endloop
endfacet
facet normal -0.0 -0.0 1.0
  outer loop
    vertex 348.9518651049079 2511.9108024087705 1.9999999999999998
    vertex 350.50516596380703 2500.112311021488 1.9999999999999998
    vertex 350.50516596380703 2513.1026920782547 1.9999999999999998
  endloop
endfacet
facet normal -0.0 -0.0 1.0
  outer loop
    vertex 350.50516596380703 2513.1026920782547 1.9999999999999998
    vertex 350.50516596380703 2500.112311021488 1.9999999999999998
    vertex 352.3140231255382 2499.363057852703 1.9999999999999998
  endloop
endfacet
facet normal -0.0 -0.0 1.0
  outer loop
    vertex 350.50516596380703 2513.1026920782547 1.9999999999999998
    vertex 352.3140231255382 2499.363057852703 1.9999999999999998
    vertex 351.505165963807 2506.6075015498714 1.9999999999999998
  endloop
endfacet
facet normal -0.0 -0.0 1.0
  outer loop
    vertex 351.505165963807 2506.6075015498714 1.9999999999999998
    vertex 352.3140231255382 2499.363057852703 1.9999999999999998
    vertex 351.5988699415121 2505.8957491758392 1.9999999999999998
  endloop
endfacet
facet normal -0.0 -0.0 1.0
  outer loop
    vertex 351.5988699415121 2505.8957491758392 1.9999999999999998
    vertex 352.3140231255382 2499.363057852703 1.9999999999999998
    vertex 351.8735961033998 2505.2325015498714 1.9999999999999998
  endloop
endfacet
facet normal -0.0 -0.0 1.0
  outer loop
    vertex 351.8735961033998 2505.2325015498714 1.9999999999999998
    vertex 352.3140231255382 2499.363057852703 1.9999999999999998
    vertex 352.310622315544 2504.6629579016085 1.9999999999999998
  endloop
endfacet
facet normal -0.0 -0.0 1.0
  outer loop
    vertex 352.310622315544 2504.6629579016085 1.9999999999999998
    vertex 352.3140231255382 2499.363057852703 1.9999999999999998
    vertex 352.88016596380703 2504.2259316894642 1.9999999999999998
  endloop
endfacet
facet normal -0.0 -0.0 1.0
  outer loop
    vertex 352.88016596380703 2504.2259316894642 1.9999999999999998
    vertex 352.3140231255382 2499.363057852703 1.9999999999999998
    vertex 354.2551659638071 2499.1075015498714 1.9999999999999998
  endloop
endfacet
facet normal -0.0 -0.0 1.0
  outer loop
    vertex 352.88016596380703 2504.2259316894642 1.9999999999999998
    vertex 354.2551659638071 2499.1075015498714 1.9999999999999998
    vertex 353.5434135897751 2503.9512055275763 1.9999999999999998
  endloop
endfacet
facet normal -0.0 -0.0 1.0
  outer loop
    vertex 353.5434135897751 2503.9512055275763 1.9999999999999998
    vertex 354.2551659638071 2499.1075015498714 1.9999999999999998
    vertex 354.2551659638071 2503.8575015498714 1.9999999999999998
  endloop
endfacet
facet normal -0.0 -0.0 1.0
  outer loop
    vertex 354.2551659638071 2503.8575015498714 1.9999999999999998
    vertex 354.2551659638071 2499.1075015498714 1.9999999999999998
    vertex 356.19630880207603 2499.363057852703 1.9999999999999998
  endloop
endfacet
facet normal -0.0 -0.0 1.0
  outer loop
    vertex 354.2551659638071 2503.8575015498714 1.9999999999999998
    vertex 356.19630880207603 2499.363057852703 1.9999999999999998
    vertex 354.96691833783905 2503.9512055275763 1.9999999999999998
  endloop
endfacet
facet normal -0.0 -0.0 1.0
  outer loop
    vertex 354.96691833783905 2503.9512055275763 1.9999999999999998
    vertex 356.19630880207603 2499.363057852703 1.9999999999999998
    vertex 355.63016596380714 2504.2259316894642 1.9999999999999998
  endloop
endfacet
facet normal -0.0 -0.0 1.0
  outer loop
    vertex 355.63016596380714 2504.2259316894642 1.9999999999999998
    vertex 356.19630880207603 2499.363057852703 1.9999999999999998
    vertex 356.1997096120702 2504.6629579016085 1.9999999999999998
  endloop
endfacet
facet normal -0.0 -0.0 1.0
  outer loop
    vertex 356.1997096120702 2504.6629579016085 1.9999999999999998
    vertex 356.19630880207603 2499.363057852703 1.9999999999999998
    vertex 358.00516596380714 2500.112311021488 1.9999999999999998
  endloop
endfacet
facet normal -0.0 -0.0 1.0
  outer loop
    vertex 356.1997096120702 2504.6629579016085 1.9999999999999998
    vertex 358.00516596380714 2500.112311021488 1.9999999999999998
    vertex 356.6367358242144 2505.2325015498714 1.9999999999999998
  endloop
endfacet
facet normal -0.0 -0.0 1.0
  outer loop
    vertex 356.6367358242144 2505.2325015498714 1.9999999999999998
    vertex 358.00516596380714 2500.112311021488 1.9999999999999998
    vertex 356.9114619861021 2505.8957491758392 1.9999999999999998
  endloop
endfacet
facet normal -0.0 -0.0 1.0
  outer loop
    vertex 356.9114619861021 2505.8957491758392 1.9999999999999998
    vertex 358.00516596380714 2500.112311021488 1.9999999999999998
    vertex 357.0051659638072 2506.6075015498714 1.9999999999999998
  endloop
endfacet
facet normal -0.0 -0.0 1.0
  outer loop
    vertex 351.505165963807 2506.6075015498714 1.9999999999999998
    vertex 352.3140231255382 2513.8519452470396 1.9999999999999998
    vertex 350.50516596380703 2513.1026920782547 1.9999999999999998
  endloop
endfacet
facet normal -0.0 -0.0 1.0
  outer loop
    vertex 352.3140231255382 2513.8519452470396 1.9999999999999998
    vertex 351.505165963807 2506.6075015498714 1.9999999999999998
    vertex 351.5988699415121 2507.3192539239035 1.9999999999999998
  endloop
endfacet
facet normal -0.0 -0.0 1.0
  outer loop
    vertex 352.3140231255382 2513.8519452470396 1.9999999999999998
    vertex 351.5988699415121 2507.3192539239035 1.9999999999999998
    vertex 351.8735961033998 2507.9825015498714 1.9999999999999998
  endloop
endfacet
facet normal -0.0 -0.0 1.0
  outer loop
    vertex 352.3140231255382 2513.8519452470396 1.9999999999999998
    vertex 351.8735961033998 2507.9825015498714 1.9999999999999998
    vertex 352.310622315544 2508.5520451981342 1.9999999999999998
  endloop
endfacet
facet normal -0.0 -0.0 1.0
  outer loop
    vertex 352.3140231255382 2513.8519452470396 1.9999999999999998
    vertex 352.310622315544 2508.5520451981342 1.9999999999999998
    vertex 352.88016596380703 2508.9890714102785 1.9999999999999998
  endloop
endfacet
facet normal -0.0 -0.0 1.0
  outer loop
    vertex 352.3140231255382 2513.8519452470396 1.9999999999999998
    vertex 352.88016596380703 2508.9890714102785 1.9999999999999998
    vertex 354.2551659638071 2514.1075015498714 1.9999999999999998
  endloop
endfacet
facet normal -0.0 -0.0 1.0
  outer loop
    vertex 354.2551659638071 2514.1075015498714 1.9999999999999998
    vertex 352.88016596380703 2508.9890714102785 1.9999999999999998
    vertex 353.5434135897751 2509.2637975721664 1.9999999999999998
  endloop
endfacet
facet normal -0.0 -0.0 1.0
  outer loop
    vertex 354.2551659638071 2514.1075015498714 1.9999999999999998
    vertex 353.5434135897751 2509.2637975721664 1.9999999999999998
    vertex 354.2551659638071 2509.3575015498714 1.9999999999999998
  endloop
endfacet
facet normal -0.0 -0.0 1.0
  outer loop
    vertex 354.2551659638071 2514.1075015498714 1.9999999999999998
    vertex 354.2551659638071 2509.3575015498714 1.9999999999999998
    vertex 354.96691833783905 2509.2637975721664 1.9999999999999998
  endloop
endfacet
facet normal -0.0 -0.0 1.0
  outer loop
    vertex 354.2551659638071 2514.1075015498714 1.9999999999999998
    vertex 354.96691833783905 2509.2637975721664 1.9999999999999998
    vertex 356.19630880207603 2513.8519452470396 1.9999999999999998
  endloop
endfacet
facet normal -0.0 -0.0 1.0
  outer loop
    vertex 356.19630880207603 2513.8519452470396 1.9999999999999998
    vertex 354.96691833783905 2509.2637975721664 1.9999999999999998
    vertex 355.63016596380714 2508.9890714102785 1.9999999999999998
  endloop
endfacet
facet normal -0.0 -0.0 1.0
  outer loop
    vertex 356.19630880207603 2513.8519452470396 1.9999999999999998
    vertex 355.63016596380714 2508.9890714102785 1.9999999999999998
    vertex 356.1997096120702 2508.5520451981342 1.9999999999999998
  endloop
endfacet
facet normal -0.0 -0.0 1.0
  outer loop
    vertex 356.19630880207603 2513.8519452470396 1.9999999999999998
    vertex 356.1997096120702 2508.5520451981342 1.9999999999999998
    vertex 358.00516596380714 2513.1026920782547 1.9999999999999998
  endloop
endfacet
facet normal -0.0 -0.0 1.0
  outer loop
    vertex 358.00516596380714 2513.1026920782547 1.9999999999999998
    vertex 356.1997096120702 2508.5520451981342 1.9999999999999998
    vertex 356.6367358242144 2507.9825015498714 1.9999999999999998
  endloop
endfacet
facet normal -0.0 -0.0 1.0
  outer loop
    vertex 358.00516596380714 2513.1026920782547 1.9999999999999998
    vertex 356.6367358242144 2507.9825015498714 1.9999999999999998
    vertex 356.9114619861021 2507.3192539239035 1.9999999999999998
  endloop
endfacet
facet normal -0.0 -0.0 1.0
  outer loop
    vertex 358.00516596380714 2513.1026920782547 1.9999999999999998
    vertex 356.9114619861021 2507.3192539239035 1.9999999999999998
    vertex 357.0051659638072 2506.6075015498714 1.9999999999999998
  endloop
endfacet
facet normal -0.0 -0.0 1.0
  outer loop
    vertex 358.00516596380714 2513.1026920782547 1.9999999999999998
    vertex 357.0051659638072 2506.6075015498714 1.9999999999999998
    vertex 358.00516596380714 2500.112311021488 1.9999999999999998
  endloop
endfacet
facet normal -0.0 -0.0 1.0
  outer loop
    vertex 358.00516596380714 2513.1026920782547 1.9999999999999998
    vertex 358.00516596380714 2500.112311021488 1.9999999999999998
    vertex 359.5584668227063 2501.3042006909723 1.9999999999999998
  endloop
endfacet
facet normal -0.0 -0.0 1.0
  outer loop
    vertex 358.00516596380714 2513.1026920782547 1.9999999999999998
    vertex 359.5584668227063 2501.3042006909723 1.9999999999999998
    vertex 359.5584668227063 2511.9108024087705 1.9999999999999998
  endloop
endfacet
facet normal -0.0 -0.0 1.0
  outer loop
    vertex 359.5584668227063 2511.9108024087705 1.9999999999999998
    vertex 359.5584668227063 2501.3042006909723 1.9999999999999998
    vertex 360.75035649219046 2502.857501549871 1.9999999999999998
  endloop
endfacet
facet normal -0.0 -0.0 1.0
  outer loop
    vertex 359.5584668227063 2511.9108024087705 1.9999999999999998
    vertex 360.75035649219046 2502.857501549871 1.9999999999999998
    vertex 360.75035649219046 2510.3575015498714 1.9999999999999998
  endloop
endfacet
facet normal -0.0 -0.0 1.0
  outer loop
    vertex 360.75035649219046 2510.3575015498714 1.9999999999999998
    vertex 360.75035649219046 2502.857501549871 1.9999999999999998
    vertex 361.4996096609752 2504.6663587116022 1.9999999999999998
  endloop
endfacet
facet normal -0.0 -0.0 1.0
  outer loop
    vertex 360.75035649219046 2510.3575015498714 1.9999999999999998
    vertex 361.4996096609752 2504.6663587116022 1.9999999999999998
    vertex 361.4996096609752 2508.5486443881405 1.9999999999999998
  endloop
endfacet
facet normal -0.0 -0.0 1.0
  outer loop
    vertex 361.4996096609752 2508.5486443881405 1.9999999999999998
    vertex 361.4996096609752 2504.6663587116022 1.9999999999999998
    vertex 361.7551659638072 2506.6075015498714 1.9999999999999998
  endloop
endfacet
facet normal 0.9914448613738115 -0.13052619222004344 0.0
  outer loop
    vertex 361.7551659638072 2506.6075015498714 0.0
    vertex 361.4996096609752 2504.6663587116022 1.9999999999999998
    vertex 361.4996096609752 2504.6663587116022 0.0
  endloop
endfacet
facet normal 0.9914448613738115 -0.13052619222004344 0.0
  outer loop
    vertex 361.4996096609752 2504.6663587116022 1.9999999999999998
    vertex 361.7551659638072 2506.6075015498714 0.0
    vertex 361.7551659638072 2506.6075015498714 1.9999999999999998
  endloop
endfacet
facet normal -0.13052619221995057 0.9914448613738238 0.0
  outer loop
    vertex 354.2551659638071 2503.8575015498714 1.9999999999999998
    vertex 354.96691833783905 2503.9512055275763 0.0
    vertex 354.2551659638071 2503.8575015498714 0.0
  endloop
endfacet
facet normal -0.13052619221995057 0.9914448613738238 0.0
  outer loop
    vertex 354.96691833783905 2503.9512055275763 0.0
    vertex 354.2551659638071 2503.8575015498714 1.9999999999999998
    vertex 354.96691833783905 2503.9512055275763 1.9999999999999998
  endloop
endfacet
facet normal -0.793353340291251 -0.6087614290086999 -0.0
  outer loop
    vertex 356.1997096120702 2508.5520451981342 1.9999999999999998
    vertex 356.6367358242144 2507.9825015498714 0.0
    vertex 356.6367358242144 2507.9825015498714 1.9999999999999998
  endloop
endfacet
facet normal -0.793353340291251 -0.6087614290086999 -0.0
  outer loop
    vertex 356.6367358242144 2507.9825015498714 0.0
    vertex 356.1997096120702 2508.5520451981342 1.9999999999999998
    vertex 356.1997096120702 2508.5520451981342 0.0
  endloop
endfacet
facet normal -0.38268343236512314 0.923879532511273 0.0
  outer loop
    vertex 354.96691833783905 2503.9512055275763 1.9999999999999998
    vertex 355.63016596380714 2504.2259316894642 0.0
    vertex 354.96691833783905 2503.9512055275763 0.0
  endloop
endfacet
facet normal -0.38268343236512314 0.923879532511273 0.0
  outer loop
    vertex 355.63016596380714 2504.2259316894642 0.0
    vertex 354.96691833783905 2503.9512055275763 1.9999999999999998
    vertex 355.63016596380714 2504.2259316894642 1.9999999999999998
  endloop
endfacet
facet normal -0.9914448613738086 0.130526192220066 0.0
  outer loop
    vertex 357.0051659638072 2506.6075015498714 1.9999999999999998
    vertex 356.9114619861021 2505.8957491758392 0.0
    vertex 356.9114619861021 2505.8957491758392 1.9999999999999998
  endloop
endfacet
facet normal -0.9914448613738086 0.130526192220066 0.0
  outer loop
    vertex 356.9114619861021 2505.8957491758392 0.0
    vertex 357.0051659638072 2506.6075015498714 1.9999999999999998
    vertex 357.0051659638072 2506.6075015498714 0.0
  endloop
endfacet
facet normal -0.6087614290087395 -0.7933533402912208 -0.0
  outer loop
    vertex 356.1997096120702 2508.5520451981342 1.9999999999999998
    vertex 355.63016596380714 2508.9890714102785 0.0
    vertex 356.1997096120702 2508.5520451981342 0.0
  endloop
endfacet
facet normal -0.6087614290087395 -0.7933533402912208 -0.0
  outer loop
    vertex 355.63016596380714 2508.9890714102785 0.0
    vertex 356.1997096120702 2508.5520451981342 1.9999999999999998
    vertex 355.63016596380714 2508.9890714102785 1.9999999999999998
  endloop
endfacet
facet normal -0.38268343236512314 -0.923879532511273 -0.0
  outer loop
    vertex 355.63016596380714 2508.9890714102785 1.9999999999999998
    vertex 354.96691833783905 2509.2637975721664 0.0
    vertex 355.63016596380714 2508.9890714102785 0.0
  endloop
endfacet
facet normal -0.38268343236512314 -0.923879532511273 -0.0
  outer loop
    vertex 354.96691833783905 2509.2637975721664 0.0
    vertex 355.63016596380714 2508.9890714102785 1.9999999999999998
    vertex 354.96691833783905 2509.2637975721664 1.9999999999999998
  endloop
endfacet
facet normal 0.13052619221995057 -0.9914448613738238 0.0
  outer loop
    vertex 354.2551659638071 2509.3575015498714 1.9999999999999998
    vertex 353.5434135897751 2509.2637975721664 0.0
    vertex 354.2551659638071 2509.3575015498714 0.0
  endloop
endfacet
facet normal 0.13052619221995057 -0.9914448613738238 0.0
  outer loop
    vertex 353.5434135897751 2509.2637975721664 0.0
    vertex 354.2551659638071 2509.3575015498714 1.9999999999999998
    vertex 353.5434135897751 2509.2637975721664 1.9999999999999998
  endloop
endfacet
facet normal 0.38268343236512314 -0.923879532511273 0.0
  outer loop
    vertex 353.5434135897751 2509.2637975721664 1.9999999999999998
    vertex 352.88016596380703 2508.9890714102785 0.0
    vertex 353.5434135897751 2509.2637975721664 0.0
  endloop
endfacet
facet normal 0.38268343236512314 -0.923879532511273 0.0
  outer loop
    vertex 352.88016596380703 2508.9890714102785 0.0
    vertex 353.5434135897751 2509.2637975721664 1.9999999999999998
    vertex 352.88016596380703 2508.9890714102785 1.9999999999999998
  endloop
endfacet
facet normal -0.9914448613738086 -0.130526192220066 -0.0
  outer loop
    vertex 356.9114619861021 2507.3192539239035 1.9999999999999998
    vertex 357.0051659638072 2506.6075015498714 0.0
    vertex 357.0051659638072 2506.6075015498714 1.9999999999999998
  endloop
endfacet
facet normal -0.9914448613738086 -0.130526192220066 -0.0
  outer loop
    vertex 357.0051659638072 2506.6075015498714 0.0
    vertex 356.9114619861021 2507.3192539239035 1.9999999999999998
    vertex 356.9114619861021 2507.3192539239035 0.0
  endloop
endfacet
facet normal -0.13052619221995057 -0.9914448613738238 -0.0
  outer loop
    vertex 354.96691833783905 2509.2637975721664 1.9999999999999998
    vertex 354.2551659638071 2509.3575015498714 0.0
    vertex 354.96691833783905 2509.2637975721664 0.0
  endloop
endfacet
facet normal -0.13052619221995057 -0.9914448613738238 -0.0
  outer loop
    vertex 354.2551659638071 2509.3575015498714 0.0
    vertex 354.96691833783905 2509.2637975721664 1.9999999999999998
    vertex 354.2551659638071 2509.3575015498714 1.9999999999999998
  endloop
endfacet
facet normal 0.6087614290087979 0.793353340291176 0.0
  outer loop
    vertex 358.00516596380714 2513.1026920782547 1.9999999999999998
    vertex 359.5584668227063 2511.9108024087705 0.0
    vertex 358.00516596380714 2513.1026920782547 0.0
  endloop
endfacet
facet normal 0.6087614290087979 0.793353340291176 0.0
  outer loop
    vertex 359.5584668227063 2511.9108024087705 0.0
    vertex 358.00516596380714 2513.1026920782547 1.9999999999999998
    vertex 359.5584668227063 2511.9108024087705 1.9999999999999998
  endloop
endfacet
facet normal -0.923879532511286 -0.3826834323650917 -0.0
  outer loop
    vertex 356.6367358242144 2507.9825015498714 1.9999999999999998
    vertex 356.9114619861021 2507.3192539239035 0.0
    vertex 356.9114619861021 2507.3192539239035 1.9999999999999998
  endloop
endfacet
facet normal -0.923879532511286 -0.3826834323650917 -0.0
  outer loop
    vertex 356.9114619861021 2507.3192539239035 0.0
    vertex 356.6367358242144 2507.9825015498714 1.9999999999999998
    vertex 356.6367358242144 2507.9825015498714 0.0
  endloop
endfacet
facet normal 0.6087614290087395 -0.7933533402912208 0.0
  outer loop
    vertex 352.88016596380703 2508.9890714102785 1.9999999999999998
    vertex 352.310622315544 2508.5520451981342 0.0
    vertex 352.88016596380703 2508.9890714102785 0.0
  endloop
endfacet
facet normal 0.6087614290087395 -0.7933533402912208 0.0
  outer loop
    vertex 352.310622315544 2508.5520451981342 0.0
    vertex 352.88016596380703 2508.9890714102785 1.9999999999999998
    vertex 352.310622315544 2508.5520451981342 1.9999999999999998
  endloop
endfacet
facet normal -0.3826834323650502 -0.9238795325113033 -0.0
  outer loop
    vertex 352.3140231255382 2499.363057852703 1.9999999999999998
    vertex 350.50516596380703 2500.112311021488 0.0
    vertex 352.3140231255382 2499.363057852703 0.0
  endloop
endfacet
facet normal -0.3826834323650502 -0.9238795325113033 -0.0
  outer loop
    vertex 350.50516596380703 2500.112311021488 0.0
    vertex 352.3140231255382 2499.363057852703 1.9999999999999998
    vertex 350.50516596380703 2500.112311021488 1.9999999999999998
  endloop
endfacet
facet normal 0.13052619222005538 -0.9914448613738099 0.0
  outer loop
    vertex 356.19630880207603 2499.363057852703 1.9999999999999998
    vertex 354.2551659638071 2499.1075015498714 0.0
    vertex 356.19630880207603 2499.363057852703 0.0
  endloop
endfacet
facet normal 0.13052619222005538 -0.9914448613738099 0.0
  outer loop
    vertex 354.2551659638071 2499.1075015498714 0.0
    vertex 356.19630880207603 2499.363057852703 1.9999999999999998
    vertex 354.2551659638071 2499.1075015498714 1.9999999999999998
  endloop
endfacet
facet normal -0.6087614290087395 0.7933533402912208 0.0
  outer loop
    vertex 355.63016596380714 2504.2259316894642 1.9999999999999998
    vertex 356.1997096120702 2504.6629579016085 0.0
    vertex 355.63016596380714 2504.2259316894642 0.0
  endloop
endfacet
facet normal -0.6087614290087395 0.7933533402912208 0.0
  outer loop
    vertex 356.1997096120702 2504.6629579016085 0.0
    vertex 355.63016596380714 2504.2259316894642 1.9999999999999998
    vertex 356.1997096120702 2504.6629579016085 1.9999999999999998
  endloop
endfacet
facet normal 0.3826834323650502 -0.9238795325113033 0.0
  outer loop
    vertex 358.00516596380714 2500.112311021488 1.9999999999999998
    vertex 356.19630880207603 2499.363057852703 0.0
    vertex 358.00516596380714 2500.112311021488 0.0
  endloop
endfacet
facet normal 0.3826834323650502 -0.9238795325113033 0.0
  outer loop
    vertex 356.19630880207603 2499.363057852703 0.0
    vertex 358.00516596380714 2500.112311021488 1.9999999999999998
    vertex 356.19630880207603 2499.363057852703 1.9999999999999998
  endloop
endfacet
facet normal -0.6087614290087979 0.793353340291176 0.0
  outer loop
    vertex 348.9518651049079 2511.9108024087705 1.9999999999999998
    vertex 350.50516596380703 2513.1026920782547 0.0
    vertex 348.9518651049079 2511.9108024087705 0.0
  endloop
endfacet
facet normal -0.6087614290087979 0.793353340291176 0.0
  outer loop
    vertex 350.50516596380703 2513.1026920782547 0.0
    vertex 348.9518651049079 2511.9108024087705 1.9999999999999998
    vertex 350.50516596380703 2513.1026920782547 1.9999999999999998
  endloop
endfacet
facet normal -0.13052619222005538 -0.9914448613738099 -0.0
  outer loop
    vertex 354.2551659638071 2499.1075015498714 1.9999999999999998
    vertex 352.3140231255382 2499.363057852703 0.0
    vertex 354.2551659638071 2499.1075015498714 0.0
  endloop
endfacet
facet normal -0.13052619222005538 -0.9914448613738099 -0.0
  outer loop
    vertex 352.3140231255382 2499.363057852703 0.0
    vertex 354.2551659638071 2499.1075015498714 1.9999999999999998
    vertex 352.3140231255382 2499.363057852703 1.9999999999999998
  endloop
endfacet
facet normal 0.3826834323650502 0.9238795325113033 0.0
  outer loop
    vertex 356.19630880207603 2513.8519452470396 1.9999999999999998
    vertex 358.00516596380714 2513.1026920782547 0.0
    vertex 356.19630880207603 2513.8519452470396 0.0
  endloop
endfacet
facet normal 0.3826834323650502 0.9238795325113033 0.0
  outer loop
    vertex 358.00516596380714 2513.1026920782547 0.0
    vertex 356.19630880207603 2513.8519452470396 1.9999999999999998
    vertex 358.00516596380714 2513.1026920782547 1.9999999999999998
  endloop
endfacet
facet normal -0.793353340291251 0.6087614290086999 0.0
  outer loop
    vertex 356.6367358242144 2505.2325015498714 1.9999999999999998
    vertex 356.1997096120702 2504.6629579016085 0.0
    vertex 356.1997096120702 2504.6629579016085 1.9999999999999998
  endloop
endfacet
facet normal -0.793353340291251 0.6087614290086999 0.0
  outer loop
    vertex 356.1997096120702 2504.6629579016085 0.0
    vertex 356.6367358242144 2505.2325015498714 1.9999999999999998
    vertex 356.6367358242144 2505.2325015498714 0.0
  endloop
endfacet
facet normal -0.7933533402912428 -0.6087614290087109 -0.0
  outer loop
    vertex 347.7599754354237 2502.8575015498714 1.9999999999999998
    vertex 348.9518651049079 2501.3042006909723 0.0
    vertex 348.9518651049079 2501.3042006909723 1.9999999999999998
  endloop
endfacet
facet normal -0.7933533402912428 -0.6087614290087109 -0.0
  outer loop
    vertex 348.9518651049079 2501.3042006909723 0.0
    vertex 347.7599754354237 2502.8575015498714 1.9999999999999998
    vertex 347.7599754354237 2502.8575015498714 0.0
  endloop
endfacet
facet normal -0.13052619222005538 0.9914448613738099 0.0
  outer loop
    vertex 352.3140231255382 2513.8519452470396 1.9999999999999998
    vertex 354.2551659638071 2514.1075015498714 0.0
    vertex 352.3140231255382 2513.8519452470396 0.0
  endloop
endfacet
facet normal -0.13052619222005538 0.9914448613738099 0.0
  outer loop
    vertex 354.2551659638071 2514.1075015498714 0.0
    vertex 352.3140231255382 2513.8519452470396 1.9999999999999998
    vertex 354.2551659638071 2514.1075015498714 1.9999999999999998
  endloop
endfacet
facet normal -0.6087614290087979 -0.793353340291176 -0.0
  outer loop
    vertex 350.50516596380703 2500.112311021488 1.9999999999999998
    vertex 348.9518651049079 2501.3042006909723 0.0
    vertex 350.50516596380703 2500.112311021488 0.0
  endloop
endfacet
facet normal -0.6087614290087979 -0.793353340291176 -0.0
  outer loop
    vertex 348.9518651049079 2501.3042006909723 0.0
    vertex 350.50516596380703 2500.112311021488 1.9999999999999998
    vertex 348.9518651049079 2501.3042006909723 1.9999999999999998
  endloop
endfacet
facet normal -0.923879532511287 0.38268343236508945 0.0
  outer loop
    vertex 347.7599754354237 2510.3575015498714 1.9999999999999998
    vertex 347.010722266639 2508.5486443881405 0.0
    vertex 347.010722266639 2508.5486443881405 1.9999999999999998
  endloop
endfacet
facet normal -0.923879532511287 0.38268343236508945 0.0
  outer loop
    vertex 347.010722266639 2508.5486443881405 0.0
    vertex 347.7599754354237 2510.3575015498714 1.9999999999999998
    vertex 347.7599754354237 2510.3575015498714 0.0
  endloop
endfacet
facet normal -0.7933533402911744 0.6087614290087999 0.0
  outer loop
    vertex 348.9518651049079 2511.9108024087705 1.9999999999999998
    vertex 347.7599754354237 2510.3575015498714 0.0
    vertex 347.7599754354237 2510.3575015498714 1.9999999999999998
  endloop
endfacet
facet normal -0.7933533402911744 0.6087614290087999 0.0
  outer loop
    vertex 347.7599754354237 2510.3575015498714 0.0
    vertex 348.9518651049079 2511.9108024087705 1.9999999999999998
    vertex 348.9518651049079 2511.9108024087705 0.0
  endloop
endfacet
facet normal -0.92387953251126 -0.3826834323651547 -0.0
  outer loop
    vertex 347.010722266639 2504.6663587116022 1.9999999999999998
    vertex 347.7599754354237 2502.8575015498714 0.0
    vertex 347.7599754354237 2502.8575015498714 1.9999999999999998
  endloop
endfacet
facet normal -0.92387953251126 -0.3826834323651547 -0.0
  outer loop
    vertex 347.7599754354237 2502.8575015498714 0.0
    vertex 347.010722266639 2504.6663587116022 1.9999999999999998
    vertex 347.010722266639 2504.6663587116022 0.0
  endloop
endfacet
facet normal -0.9914448613738115 -0.13052619222004344 -0.0
  outer loop
    vertex 346.755165963807 2506.6075015498714 1.9999999999999998
    vertex 347.010722266639 2504.6663587116022 0.0
    vertex 347.010722266639 2504.6663587116022 1.9999999999999998
  endloop
endfacet
facet normal -0.9914448613738115 -0.13052619222004344 -0.0
  outer loop
    vertex 347.010722266639 2504.6663587116022 0.0
    vertex 346.755165963807 2506.6075015498714 1.9999999999999998
    vertex 346.755165963807 2506.6075015498714 0.0
  endloop
endfacet
facet normal -0.9914448613738115 0.13052619222004344 0.0
  outer loop
    vertex 347.010722266639 2508.5486443881405 1.9999999999999998
    vertex 346.755165963807 2506.6075015498714 0.0
    vertex 346.755165963807 2506.6075015498714 1.9999999999999998
  endloop
endfacet
facet normal -0.9914448613738115 0.13052619222004344 0.0
  outer loop
    vertex 346.755165963807 2506.6075015498714 0.0
    vertex 347.010722266639 2508.5486443881405 1.9999999999999998
    vertex 347.010722266639 2508.5486443881405 0.0
  endloop
endfacet
facet normal 0.13052619222005538 0.9914448613738099 0.0
  outer loop
    vertex 354.2551659638071 2514.1075015498714 1.9999999999999998
    vertex 356.19630880207603 2513.8519452470396 0.0
    vertex 354.2551659638071 2514.1075015498714 0.0
  endloop
endfacet
facet normal 0.13052619222005538 0.9914448613738099 0.0
  outer loop
    vertex 356.19630880207603 2513.8519452470396 0.0
    vertex 354.2551659638071 2514.1075015498714 1.9999999999999998
    vertex 356.19630880207603 2513.8519452470396 1.9999999999999998
  endloop
endfacet
facet normal -0.3826834323650502 0.9238795325113033 0.0
  outer loop
    vertex 350.50516596380703 2513.1026920782547 1.9999999999999998
    vertex 352.3140231255382 2513.8519452470396 0.0
    vertex 350.50516596380703 2513.1026920782547 0.0
  endloop
endfacet
facet normal -0.3826834323650502 0.9238795325113033 0.0
  outer loop
    vertex 352.3140231255382 2513.8519452470396 0.0
    vertex 350.50516596380703 2513.1026920782547 1.9999999999999998
    vertex 352.3140231255382 2513.8519452470396 1.9999999999999998
  endloop
endfacet
facet normal -0.923879532511286 0.3826834323650917 0.0
  outer loop
    vertex 356.9114619861021 2505.8957491758392 1.9999999999999998
    vertex 356.6367358242144 2505.2325015498714 0.0
    vertex 356.6367358242144 2505.2325015498714 1.9999999999999998
  endloop
endfacet
facet normal -0.923879532511286 0.3826834323650917 0.0
  outer loop
    vertex 356.6367358242144 2505.2325015498714 0.0
    vertex 356.9114619861021 2505.8957491758392 1.9999999999999998
    vertex 356.9114619861021 2505.8957491758392 0.0
  endloop
endfacet
facet normal 0.793353340291251 0.6087614290086999 0.0
  outer loop
    vertex 351.8735961033998 2505.2325015498714 0.0
    vertex 352.310622315544 2504.6629579016085 1.9999999999999998
    vertex 352.310622315544 2504.6629579016085 0.0
  endloop
endfacet
facet normal 0.793353340291251 0.6087614290086999 0.0
  outer loop
    vertex 352.310622315544 2504.6629579016085 1.9999999999999998
    vertex 351.8735961033998 2505.2325015498714 0.0
    vertex 351.8735961033998 2505.2325015498714 1.9999999999999998
  endloop
endfacet
facet normal 0.6087614290087395 0.7933533402912208 0.0
  outer loop
    vertex 352.310622315544 2504.6629579016085 1.9999999999999998
    vertex 352.88016596380703 2504.2259316894642 0.0
    vertex 352.310622315544 2504.6629579016085 0.0
  endloop
endfacet
facet normal 0.6087614290087395 0.7933533402912208 0.0
  outer loop
    vertex 352.88016596380703 2504.2259316894642 0.0
    vertex 352.310622315544 2504.6629579016085 1.9999999999999998
    vertex 352.88016596380703 2504.2259316894642 1.9999999999999998
  endloop
endfacet
facet normal 0.38268343236512314 0.923879532511273 0.0
  outer loop
    vertex 352.88016596380703 2504.2259316894642 1.9999999999999998
    vertex 353.5434135897751 2503.9512055275763 0.0
    vertex 352.88016596380703 2504.2259316894642 0.0
  endloop
endfacet
facet normal 0.38268343236512314 0.923879532511273 0.0
  outer loop
    vertex 353.5434135897751 2503.9512055275763 0.0
    vertex 352.88016596380703 2504.2259316894642 1.9999999999999998
    vertex 353.5434135897751 2503.9512055275763 1.9999999999999998
  endloop
endfacet
facet normal 0.923879532511286 -0.3826834323650917 0.0
  outer loop
    vertex 351.8735961033998 2507.9825015498714 0.0
    vertex 351.5988699415121 2507.3192539239035 1.9999999999999998
    vertex 351.5988699415121 2507.3192539239035 0.0
  endloop
endfacet
facet normal 0.923879532511286 -0.3826834323650917 0.0
  outer loop
    vertex 351.5988699415121 2507.3192539239035 1.9999999999999998
    vertex 351.8735961033998 2507.9825015498714 0.0
    vertex 351.8735961033998 2507.9825015498714 1.9999999999999998
  endloop
endfacet
facet normal 0.793353340291251 -0.6087614290086999 0.0
  outer loop
    vertex 352.310622315544 2508.5520451981342 0.0
    vertex 351.8735961033998 2507.9825015498714 1.9999999999999998
    vertex 351.8735961033998 2507.9825015498714 0.0
  endloop
endfacet
facet normal 0.793353340291251 -0.6087614290086999 0.0
  outer loop
    vertex 351.8735961033998 2507.9825015498714 1.9999999999999998
    vertex 352.310622315544 2508.5520451981342 0.0
    vertex 352.310622315544 2508.5520451981342 1.9999999999999998
  endloop
endfacet
facet normal 0.923879532511286 0.3826834323650917 0.0
  outer loop
    vertex 351.5988699415121 2505.8957491758392 0.0
    vertex 351.8735961033998 2505.2325015498714 1.9999999999999998
    vertex 351.8735961033998 2505.2325015498714 0.0
  endloop
endfacet
facet normal 0.923879532511286 0.3826834323650917 0.0
  outer loop
    vertex 351.8735961033998 2505.2325015498714 1.9999999999999998
    vertex 351.5988699415121 2505.8957491758392 0.0
    vertex 351.5988699415121 2505.8957491758392 1.9999999999999998
  endloop
endfacet
facet normal 0.9914448613738086 -0.130526192220066 0.0
  outer loop
    vertex 351.5988699415121 2507.3192539239035 0.0
    vertex 351.505165963807 2506.6075015498714 1.9999999999999998
    vertex 351.505165963807 2506.6075015498714 0.0
  endloop
endfacet
facet normal 0.9914448613738086 -0.130526192220066 0.0
  outer loop
    vertex 351.505165963807 2506.6075015498714 1.9999999999999998
    vertex 351.5988699415121 2507.3192539239035 0.0
    vertex 351.5988699415121 2507.3192539239035 1.9999999999999998
  endloop
endfacet
facet normal 0.9914448613738086 0.130526192220066 0.0
  outer loop
    vertex 351.505165963807 2506.6075015498714 0.0
    vertex 351.5988699415121 2505.8957491758392 1.9999999999999998
    vertex 351.5988699415121 2505.8957491758392 0.0
  endloop
endfacet
facet normal 0.9914448613738086 0.130526192220066 0.0
  outer loop
    vertex 351.5988699415121 2505.8957491758392 1.9999999999999998
    vertex 351.505165963807 2506.6075015498714 0.0
    vertex 351.505165963807 2506.6075015498714 1.9999999999999998
  endloop
endfacet
facet normal 0.13052619221995057 0.9914448613738238 0.0
  outer loop
    vertex 353.5434135897751 2503.9512055275763 1.9999999999999998
    vertex 354.2551659638071 2503.8575015498714 0.0
    vertex 353.5434135897751 2503.9512055275763 0.0
  endloop
endfacet
facet normal 0.13052619221995057 0.9914448613738238 0.0
  outer loop
    vertex 354.2551659638071 2503.8575015498714 0.0
    vertex 353.5434135897751 2503.9512055275763 1.9999999999999998
    vertex 354.2551659638071 2503.8575015498714 1.9999999999999998
  endloop
endfacet
endsolid Pet Feeder
