solid Pet Feeder
facet normal 0.0 -1.0 0.0
  outer loop
    vertex 718.4626222883116 1553.5093718556313 221.09999995591448
    vertex 641.3626222883117 1553.5093718556313 219.09999995591448
    vertex 718.4626222883116 1553.5093718556313 219.09999995591448
  endloop
endfacet
facet normal 0.0 -1.0 0.0
  outer loop
    vertex 641.3626222883117 1553.5093718556313 219.09999995591448
    vertex 718.4626222883116 1553.5093718556313 221.09999995591448
    vertex 641.3626222883117 1553.5093718556313 221.09999995591448
  endloop
endfacet
facet normal 0.0 1.0 0.0
  outer loop
    vertex 641.3626222883117 1583.9093718556314 221.09999995591448
    vertex 718.4626222883116 1583.9093718556314 219.09999995591448
    vertex 641.3626222883117 1583.9093718556314 219.09999995591448
  endloop
endfacet
facet normal 0.0 1.0 0.0
  outer loop
    vertex 718.4626222883116 1583.9093718556314 219.09999995591448
    vertex 641.3626222883117 1583.9093718556314 221.09999995591448
    vertex 718.4626222883116 1583.9093718556314 221.09999995591448
  endloop
endfacet
facet normal -1.0 0.0 0.0
  outer loop
    vertex 641.3626222883117 1583.9093718556314 221.09999995591448
    vertex 641.3626222883117 1553.5093718556313 219.09999995591448
    vertex 641.3626222883117 1553.5093718556313 221.09999995591448
  endloop
endfacet
facet normal -1.0 0.0 0.0
  outer loop
    vertex 641.3626222883117 1553.5093718556313 219.09999995591448
    vertex 641.3626222883117 1583.9093718556314 221.09999995591448
    vertex 641.3626222883117 1583.9093718556314 219.09999995591448
  endloop
endfacet
facet normal -1.0 0.0 0.0
  outer loop
    vertex 643.3626222883117 1581.9093718556314 219.09999995591448
    vertex 643.3626222883117 1555.5093718556313 201.99999995591452
    vertex 643.3626222883117 1555.5093718556313 219.09999995591448
  endloop
endfacet
facet normal -1.0 0.0 0.0
  outer loop
    vertex 643.3626222883117 1555.5093718556313 201.99999995591452
    vertex 643.3626222883117 1581.9093718556314 219.09999995591448
    vertex 643.3626222883117 1581.9093718556314 201.99999995591452
  endloop
endfacet
facet normal 0.0 1.0 0.0
  outer loop
    vertex 645.3626222883117 1557.5093718556311 221.09999995591448
    vertex 714.4626222883116 1557.5093718556311 201.9999999559145
    vertex 645.3626222883117 1557.5093718556311 201.9999999559145
  endloop
endfacet
facet normal 0.0 1.0 0.0
  outer loop
    vertex 714.4626222883116 1557.5093718556311 201.9999999559145
    vertex 645.3626222883117 1557.5093718556311 221.09999995591448
    vertex 714.4626222883116 1557.5093718556311 221.09999995591448
  endloop
endfacet
facet normal 0.0 0.0 1.0
  outer loop
    vertex 641.3626222883117 1553.5093718556313 221.09999995591448
    vertex 645.3626222883117 1557.5093718556311 221.09999995591448
    vertex 641.3626222883117 1583.9093718556314 221.09999995591448
  endloop
endfacet
facet normal 0.0 0.0 1.0
  outer loop
    vertex 645.3626222883117 1557.5093718556311 221.09999995591448
    vertex 641.3626222883117 1553.5093718556313 221.09999995591448
    vertex 718.4626222883116 1553.5093718556313 221.09999995591448
  endloop
endfacet
facet normal 0.0 0.0 1.0
  outer loop
    vertex 645.3626222883117 1557.5093718556311 221.09999995591448
    vertex 718.4626222883116 1553.5093718556313 221.09999995591448
    vertex 714.4626222883116 1557.5093718556311 221.09999995591448
  endloop
endfacet
facet normal 0.0 0.0 1.0
  outer loop
    vertex 714.4626222883116 1557.5093718556311 221.09999995591448
    vertex 718.4626222883116 1553.5093718556313 221.09999995591448
    vertex 714.4626222883116 1579.9093718556314 221.09999995591448
  endloop
endfacet
facet normal 0.0 0.0 1.0
  outer loop
    vertex 641.3626222883117 1583.9093718556314 221.09999995591448
    vertex 645.3626222883117 1579.9093718556314 221.09999995591448
    vertex 718.4626222883116 1583.9093718556314 221.09999995591448
  endloop
endfacet
facet normal 0.0 0.0 1.0
  outer loop
    vertex 645.3626222883117 1579.9093718556314 221.09999995591448
    vertex 641.3626222883117 1583.9093718556314 221.09999995591448
    vertex 645.3626222883117 1557.5093718556311 221.09999995591448
  endloop
endfacet
facet normal 0.0 0.0 1.0
  outer loop
    vertex 718.4626222883116 1583.9093718556314 221.09999995591448
    vertex 645.3626222883117 1579.9093718556314 221.09999995591448
    vertex 714.4626222883116 1579.9093718556314 221.09999995591448
  endloop
endfacet
facet normal 0.0 0.0 1.0
  outer loop
    vertex 718.4626222883116 1583.9093718556314 221.09999995591448
    vertex 714.4626222883116 1579.9093718556314 221.09999995591448
    vertex 718.4626222883116 1553.5093718556313 221.09999995591448
  endloop
endfacet
facet normal -1.0 0.0 0.0
  outer loop
    vertex 714.4626222883116 1579.9093718556314 221.09999995591448
    vertex 714.4626222883116 1557.5093718556311 201.9999999559145
    vertex 714.4626222883116 1557.5093718556311 221.09999995591448
  endloop
endfacet
facet normal -1.0 0.0 0.0
  outer loop
    vertex 714.4626222883116 1557.5093718556311 201.9999999559145
    vertex 714.4626222883116 1579.9093718556314 221.09999995591448
    vertex 714.4626222883116 1579.9093718556314 201.9999999559145
  endloop
endfacet
facet normal 0.0 -1.0 0.0
  outer loop
    vertex 716.4626222883116 1555.5093718556313 219.09999995591448
    vertex 643.3626222883117 1555.5093718556313 201.99999995591452
    vertex 716.4626222883116 1555.5093718556313 201.99999995591452
  endloop
endfacet
facet normal 0.0 -1.0 0.0
  outer loop
    vertex 643.3626222883117 1555.5093718556313 201.99999995591452
    vertex 716.4626222883116 1555.5093718556313 219.09999995591448
    vertex 643.3626222883117 1555.5093718556313 219.09999995591448
  endloop
endfacet
facet normal 0.0 -1.0 0.0
  outer loop
    vertex 714.4626222883116 1579.9093718556314 221.09999995591448
    vertex 645.3626222883117 1579.9093718556314 201.9999999559145
    vertex 714.4626222883116 1579.9093718556314 201.9999999559145
  endloop
endfacet
facet normal 0.0 -1.0 0.0
  outer loop
    vertex 645.3626222883117 1579.9093718556314 201.9999999559145
    vertex 714.4626222883116 1579.9093718556314 221.09999995591448
    vertex 645.3626222883117 1579.9093718556314 221.09999995591448
  endloop
endfacet
facet normal 0.0 0.0 -1.0
  outer loop
    vertex 641.3626222883117 1583.9093718556314 219.09999995591448
    vertex 643.3626222883117 1581.9093718556314 219.09999995591448
    vertex 641.3626222883117 1553.5093718556313 219.09999995591448
  endloop
endfacet
facet normal 0.0 0.0 -1.0
  outer loop
    vertex 643.3626222883117 1581.9093718556314 219.09999995591448
    vertex 641.3626222883117 1583.9093718556314 219.09999995591448
    vertex 718.4626222883116 1583.9093718556314 219.09999995591448
  endloop
endfacet
facet normal 0.0 0.0 -1.0
  outer loop
    vertex 643.3626222883117 1581.9093718556314 219.09999995591448
    vertex 718.4626222883116 1583.9093718556314 219.09999995591448
    vertex 716.4626222883116 1581.9093718556314 219.09999995591448
  endloop
endfacet
facet normal 0.0 0.0 -1.0
  outer loop
    vertex 716.4626222883116 1581.9093718556314 219.09999995591448
    vertex 718.4626222883116 1583.9093718556314 219.09999995591448
    vertex 716.4626222883116 1555.5093718556313 219.09999995591448
  endloop
endfacet
facet normal 0.0 0.0 -1.0
  outer loop
    vertex 641.3626222883117 1553.5093718556313 219.09999995591448
    vertex 643.3626222883117 1555.5093718556313 219.09999995591448
    vertex 718.4626222883116 1553.5093718556313 219.09999995591448
  endloop
endfacet
facet normal 0.0 0.0 -1.0
  outer loop
    vertex 643.3626222883117 1555.5093718556313 219.09999995591448
    vertex 641.3626222883117 1553.5093718556313 219.09999995591448
    vertex 643.3626222883117 1581.9093718556314 219.09999995591448
  endloop
endfacet
facet normal 0.0 0.0 -1.0
  outer loop
    vertex 718.4626222883116 1553.5093718556313 219.09999995591448
    vertex 643.3626222883117 1555.5093718556313 219.09999995591448
    vertex 716.4626222883116 1555.5093718556313 219.09999995591448
  endloop
endfacet
facet normal 0.0 0.0 -1.0
  outer loop
    vertex 718.4626222883116 1553.5093718556313 219.09999995591448
    vertex 716.4626222883116 1555.5093718556313 219.09999995591448
    vertex 718.4626222883116 1583.9093718556314 219.09999995591448
  endloop
endfacet
facet normal -0.0 -0.0 -1.0
  outer loop
    vertex 643.3626222883117 1581.9093718556314 201.99999995591452
    vertex 645.3626222883117 1579.9093718556314 201.9999999559145
    vertex 643.3626222883117 1555.5093718556313 201.99999995591452
  endloop
endfacet
facet normal -0.0 -0.0 -1.0
  outer loop
    vertex 645.3626222883117 1579.9093718556314 201.9999999559145
    vertex 643.3626222883117 1581.9093718556314 201.99999995591452
    vertex 716.4626222883116 1581.9093718556314 201.99999995591452
  endloop
endfacet
facet normal -0.0 -0.0 -1.0
  outer loop
    vertex 645.3626222883117 1579.9093718556314 201.9999999559145
    vertex 716.4626222883116 1581.9093718556314 201.99999995591452
    vertex 714.4626222883116 1579.9093718556314 201.9999999559145
  endloop
endfacet
facet normal -0.0 -0.0 -1.0
  outer loop
    vertex 714.4626222883116 1579.9093718556314 201.9999999559145
    vertex 716.4626222883116 1581.9093718556314 201.99999995591452
    vertex 714.4626222883116 1557.5093718556311 201.9999999559145
  endloop
endfacet
facet normal -0.0 -0.0 -1.0
  outer loop
    vertex 643.3626222883117 1555.5093718556313 201.99999995591452
    vertex 645.3626222883117 1557.5093718556311 201.9999999559145
    vertex 716.4626222883116 1555.5093718556313 201.99999995591452
  endloop
endfacet
facet normal -0.0 -0.0 -1.0
  outer loop
    vertex 645.3626222883117 1557.5093718556311 201.9999999559145
    vertex 643.3626222883117 1555.5093718556313 201.99999995591452
    vertex 645.3626222883117 1579.9093718556314 201.9999999559145
  endloop
endfacet
facet normal -0.0 -0.0 -1.0
  outer loop
    vertex 716.4626222883116 1555.5093718556313 201.99999995591452
    vertex 645.3626222883117 1557.5093718556311 201.9999999559145
    vertex 714.4626222883116 1557.5093718556311 201.9999999559145
  endloop
endfacet
facet normal -0.0 -0.0 -1.0
  outer loop
    vertex 716.4626222883116 1555.5093718556313 201.99999995591452
    vertex 714.4626222883116 1557.5093718556311 201.9999999559145
    vertex 716.4626222883116 1581.9093718556314 201.99999995591452
  endloop
endfacet
facet normal 1.0 0.0 0.0
  outer loop
    vertex 645.3626222883117 1579.9093718556314 201.9999999559145
    vertex 645.3626222883117 1557.5093718556311 221.09999995591448
    vertex 645.3626222883117 1557.5093718556311 201.9999999559145
  endloop
endfacet
facet normal 1.0 0.0 0.0
  outer loop
    vertex 645.3626222883117 1557.5093718556311 221.09999995591448
    vertex 645.3626222883117 1579.9093718556314 201.9999999559145
    vertex 645.3626222883117 1579.9093718556314 221.09999995591448
  endloop
endfacet
facet normal 1.0 0.0 0.0
  outer loop
    vertex 718.4626222883116 1583.9093718556314 219.09999995591448
    vertex 718.4626222883116 1553.5093718556313 221.09999995591448
    vertex 718.4626222883116 1553.5093718556313 219.09999995591448
  endloop
endfacet
facet normal 1.0 0.0 0.0
  outer loop
    vertex 718.4626222883116 1553.5093718556313 221.09999995591448
    vertex 718.4626222883116 1583.9093718556314 219.09999995591448
    vertex 718.4626222883116 1583.9093718556314 221.09999995591448
  endloop
endfacet
facet normal 0.0 1.0 0.0
  outer loop
    vertex 643.3626222883117 1581.9093718556314 219.09999995591448
    vertex 716.4626222883116 1581.9093718556314 201.99999995591452
    vertex 643.3626222883117 1581.9093718556314 201.99999995591452
  endloop
endfacet
facet normal 0.0 1.0 0.0
  outer loop
    vertex 716.4626222883116 1581.9093718556314 201.99999995591452
    vertex 643.3626222883117 1581.9093718556314 219.09999995591448
    vertex 716.4626222883116 1581.9093718556314 219.09999995591448
  endloop
endfacet
facet normal 1.0 0.0 0.0
  outer loop
    vertex 716.4626222883116 1581.9093718556314 201.99999995591452
    vertex 716.4626222883116 1555.5093718556313 219.09999995591448
    vertex 716.4626222883116 1555.5093718556313 201.99999995591452
  endloop
endfacet
facet normal 1.0 0.0 0.0
  outer loop
    vertex 716.4626222883116 1555.5093718556313 219.09999995591448
    vertex 716.4626222883116 1581.9093718556314 201.99999995591452
    vertex 716.4626222883116 1581.9093718556314 219.09999995591448
  endloop
endfacet
endsolid Pet Feeder
