solid Pet Feeder
facet normal 0.13052619222008208 -0.9914448613738066 5.31441570147336e-28
  outer loop
    vertex 797.0647393073034 1510.5669986442508 428.39999999999986
    vertex 796.4436766892671 1510.485234199428 426.4000000000004
    vertex 797.0647393073034 1510.5669986442508 426.4000000000004
  endloop
endfacet
facet normal 0.13052619222008208 -0.9914448613738066 5.31441570147336e-28
  outer loop
    vertex 796.4436766892671 1510.485234199428 426.4000000000004
    vertex 797.0647393073034 1510.5669986442508 428.39999999999986
    vertex 796.4436766892671 1510.485234199428 428.39999999999986
  endloop
endfacet
facet normal 0.38268343236502644 -0.923879532511313 0.0
  outer loop
    vertex 796.4436766892671 1510.485234199428 428.39999999999986
    vertex 795.4789528696771 1510.0856325094096 426.4000000000004
    vertex 796.4436766892671 1510.485234199428 426.4000000000004
  endloop
endfacet
facet normal 0.38268343236502644 -0.923879532511313 0.0
  outer loop
    vertex 795.4789528696771 1510.0856325094096 426.4000000000004
    vertex 796.4436766892671 1510.485234199428 428.39999999999986
    vertex 795.4789528696771 1510.0856325094096 428.39999999999986
  endloop
endfacet
facet normal 0.6087614290088138 -0.7933533402911637 0.0
  outer loop
    vertex 795.4789528696771 1510.0856325094096 428.39999999999986
    vertex 794.650525744931 1509.4499580190177 426.4000000000004
    vertex 795.4789528696771 1510.0856325094096 426.4000000000004
  endloop
endfacet
facet normal 0.6087614290088138 -0.7933533402911637 0.0
  outer loop
    vertex 794.650525744931 1509.4499580190177 426.4000000000004
    vertex 795.4789528696771 1510.0856325094096 428.39999999999986
    vertex 794.650525744931 1509.4499580190177 428.39999999999986
  endloop
endfacet
facet normal 0.7933533402911923 -0.6087614290087766 0.0
  outer loop
    vertex 794.650525744931 1509.4499580190177 426.4000000000004
    vertex 794.0148512545394 1508.6215308942715 428.39999999999986
    vertex 794.0148512545394 1508.6215308942715 426.4000000000004
  endloop
endfacet
facet normal 0.7933533402911923 -0.6087614290087766 0.0
  outer loop
    vertex 794.0148512545394 1508.6215308942715 428.39999999999986
    vertex 794.650525744931 1509.4499580190177 426.4000000000004
    vertex 794.650525744931 1509.4499580190177 428.39999999999986
  endloop
endfacet
facet normal 0.9238795325113376 -0.38268343236496744 0.0
  outer loop
    vertex 794.0148512545394 1508.6215308942715 426.4000000000004
    vertex 793.6152495645215 1507.656807074682 428.39999999999986
    vertex 793.6152495645215 1507.656807074682 426.4000000000004
  endloop
endfacet
facet normal 0.9238795325113376 -0.38268343236496744 0.0
  outer loop
    vertex 793.6152495645215 1507.656807074682 428.39999999999986
    vertex 794.0148512545394 1508.6215308942715 426.4000000000004
    vertex 794.0148512545394 1508.6215308942715 428.39999999999986
  endloop
endfacet
facet normal 0.9914448613737883 -0.13052619222021958 -8.073398984220093e-27
  outer loop
    vertex 793.6152495645215 1507.656807074682 426.4000000000004
    vertex 793.5334851196986 1507.035744456645 428.39999999999986
    vertex 793.5334851196986 1507.035744456645 426.4000000000004
  endloop
endfacet
facet normal 0.9914448613737883 -0.13052619222021958 -8.073398984220093e-27
  outer loop
    vertex 793.5334851196986 1507.035744456645 428.39999999999986
    vertex 793.6152495645215 1507.656807074682 426.4000000000004
    vertex 793.6152495645215 1507.656807074682 428.39999999999986
  endloop
endfacet
facet normal -0.1305261922200372 0.9914448613738123 1.4789412382543998e-18
  outer loop
    vertex 599.4647393073029 1701.1044902690405 428.3999999999999
    vertex 600.08580192534 1701.1862547138633 426.4000000000008
    vertex 599.4647393073029 1701.1044902690405 426.40000000000066
  endloop
endfacet
facet normal -0.1305261922200372 0.9914448613738123 1.4789412382543998e-18
  outer loop
    vertex 600.08580192534 1701.1862547138633 426.4000000000008
    vertex 599.4647393073029 1701.1044902690405 428.3999999999999
    vertex 600.08580192534 1701.1862547138633 428.40000000000003
  endloop
endfacet
facet normal -0.38268343236508756 0.9238795325112878 -4.8305752249156926e-14
  outer loop
    vertex 600.08580192534 1701.1862547138633 428.40000000000003
    vertex 601.0505257449297 1701.5858564038817 426.4000000000008
    vertex 600.08580192534 1701.1862547138633 426.4000000000008
  endloop
endfacet
facet normal -0.38268343236508756 0.9238795325112878 -4.8305752249156926e-14
  outer loop
    vertex 601.0505257449297 1701.5858564038817 426.4000000000008
    vertex 600.08580192534 1701.1862547138633 428.40000000000003
    vertex 601.0505257449297 1701.5858564038817 428.40000000000003
  endloop
endfacet
facet normal -0.608761429008676 0.7933533402912695 -4.583791906730528e-14
  outer loop
    vertex 601.0505257449297 1701.5858564038817 426.4000000000008
    vertex 601.8789528696763 1702.221530894273 428.3999999999999
    vertex 601.8789528696763 1702.221530894273 426.40000000000066
  endloop
endfacet
facet normal -0.608761429008676 0.7933533402912695 -4.583791906730528e-14
  outer loop
    vertex 601.8789528696763 1702.221530894273 428.3999999999999
    vertex 601.0505257449297 1701.5858564038817 426.4000000000008
    vertex 601.0505257449297 1701.5858564038817 428.40000000000003
  endloop
endfacet
facet normal -0.7933533402912757 0.6087614290086678 -4.024630745175617e-14
  outer loop
    vertex 602.5146273600674 1703.0499580190192 428.3999999999999
    vertex 601.8789528696763 1702.221530894273 426.40000000000066
    vertex 601.8789528696763 1702.221530894273 428.3999999999999
  endloop
endfacet
facet normal -0.7933533402912757 0.6087614290086678 -4.024630745175617e-14
  outer loop
    vertex 601.8789528696763 1702.221530894273 426.40000000000066
    vertex 602.5146273600674 1703.0499580190192 428.3999999999999
    vertex 602.5146273600674 1703.0499580190192 426.40000000000066
  endloop
endfacet
facet normal -0.9238795325112891 0.3826834323650843 -3.1911976493541786e-14
  outer loop
    vertex 602.914229050086 1704.0146818386092 428.3999999999999
    vertex 602.5146273600674 1703.0499580190192 426.40000000000066
    vertex 602.5146273600674 1703.0499580190192 428.3999999999999
  endloop
endfacet
facet normal -0.9238795325112891 0.3826834323650843 -3.1911976493541786e-14
  outer loop
    vertex 602.5146273600674 1703.0499580190192 426.40000000000066
    vertex 602.914229050086 1704.0146818386092 428.3999999999999
    vertex 602.914229050086 1704.0146818386092 426.40000000000066
  endloop
endfacet
facet normal -0.9914448613737933 0.13052619222018233 3.646127769992834e-18
  outer loop
    vertex 602.995993494909 1704.6357444566463 428.39999999999986
    vertex 602.914229050086 1704.0146818386092 426.40000000000066
    vertex 602.914229050086 1704.0146818386092 428.3999999999999
  endloop
endfacet
facet normal -0.9914448613737933 0.13052619222018233 3.646127769992834e-18
  outer loop
    vertex 602.914229050086 1704.0146818386092 426.40000000000066
    vertex 602.995993494909 1704.6357444566463 428.39999999999986
    vertex 602.995993494909 1704.6357444566463 426.40000000000055
  endloop
endfacet
facet normal -1.0911128247751044e-16 1.0 -3.3600994643058277e-15
  outer loop
    vertex 602.995993494909 1704.6357444566463 428.39999999999986
    vertex 793.5334851196968 1704.6357444566463 426.400000000001
    vertex 602.995993494909 1704.6357444566463 426.40000000000055
  endloop
endfacet
facet normal -1.0911128247751044e-16 1.0 -3.3600994643058277e-15
  outer loop
    vertex 793.5334851196968 1704.6357444566463 426.400000000001
    vertex 602.995993494909 1704.6357444566463 428.39999999999986
    vertex 793.5334851196968 1704.6357444566463 428.39999999999986
  endloop
endfacet
facet normal 8.515847768768819e-16 2.3622118593347404e-15 -1.0
  outer loop
    vertex 601.464739307305 1595.8357444566466 426.40000000000055
    vertex 599.4647393073066 1510.5669986442515 426.4000000000004
    vertex 599.4647393073045 1595.8357444566466 426.40000000000055
  endloop
endfacet
facet normal 8.515847768768819e-16 2.3622118593347404e-15 -1.0
  outer loop
    vertex 599.4647393073066 1510.5669986442515 426.4000000000004
    vertex 601.464739307305 1595.8357444566466 426.40000000000055
    vertex 600.0858019253433 1510.4852341994288 426.4000000000004
  endloop
endfacet
facet normal 8.515847768768819e-16 2.3622118593347404e-15 -1.0
  outer loop
    vertex 600.0858019253433 1510.4852341994288 426.4000000000004
    vertex 601.464739307305 1595.8357444566466 426.40000000000055
    vertex 601.0505257449333 1510.0856325094103 426.4000000000004
  endloop
endfacet
facet normal 8.515847768768819e-16 2.3622118593347404e-15 -1.0
  outer loop
    vertex 601.0505257449333 1510.0856325094103 426.4000000000004
    vertex 601.464739307305 1595.8357444566466 426.40000000000055
    vertex 601.8789528696794 1509.4499580190188 426.4000000000004
  endloop
endfacet
facet normal 8.515847768768819e-16 2.3622118593347404e-15 -1.0
  outer loop
    vertex 601.8789528696794 1509.4499580190188 426.4000000000004
    vertex 601.464739307305 1595.8357444566466 426.40000000000055
    vertex 601.8789528696763 1702.221530894273 426.40000000000066
  endloop
endfacet
facet normal 8.515847768768819e-16 2.3622118593347404e-15 -1.0
  outer loop
    vertex 601.8789528696794 1509.4499580190188 426.4000000000004
    vertex 601.8789528696763 1702.221530894273 426.40000000000066
    vertex 602.4647393073029 1701.6357444566459 426.39999999999986
  endloop
endfacet
facet normal 8.515847768768819e-16 2.3622118593347404e-15 -1.0
  outer loop
    vertex 602.4647393073029 1701.6357444566459 426.39999999999986
    vertex 601.8789528696763 1702.221530894273 426.40000000000066
    vertex 602.5146273600674 1703.0499580190192 426.40000000000066
  endloop
endfacet
facet normal 8.515847768768819e-16 2.3622118593347404e-15 -1.0
  outer loop
    vertex 602.4647393073029 1701.6357444566459 426.39999999999986
    vertex 602.5146273600674 1703.0499580190192 426.40000000000066
    vertex 794.0647393073049 1701.6357444566459 426.39999999999986
  endloop
endfacet
facet normal 8.515847768768819e-16 2.3622118593347404e-15 -1.0
  outer loop
    vertex 794.0647393073049 1701.6357444566459 426.39999999999986
    vertex 602.5146273600674 1703.0499580190192 426.40000000000066
    vertex 602.914229050086 1704.0146818386092 426.40000000000066
  endloop
endfacet
facet normal 8.515847768768819e-16 2.3622118593347404e-15 -1.0
  outer loop
    vertex 794.0647393073049 1701.6357444566459 426.39999999999986
    vertex 602.914229050086 1704.0146818386092 426.40000000000066
    vertex 602.995993494909 1704.6357444566463 426.40000000000055
  endloop
endfacet
facet normal 8.515847768768819e-16 2.3622118593347404e-15 -1.0
  outer loop
    vertex 794.0647393073049 1701.6357444566459 426.39999999999986
    vertex 602.995993494909 1704.6357444566463 426.40000000000055
    vertex 793.6152495645197 1704.0146818386092 426.400000000001
  endloop
endfacet
facet normal 8.515847768768819e-16 2.3622118593347404e-15 -1.0
  outer loop
    vertex 793.6152495645197 1704.0146818386092 426.400000000001
    vertex 602.995993494909 1704.6357444566463 426.40000000000055
    vertex 793.5334851196968 1704.6357444566463 426.400000000001
  endloop
endfacet
facet normal 8.515847768768819e-16 2.3622118593347404e-15 -1.0
  outer loop
    vertex 794.0647393073049 1701.6357444566459 426.39999999999986
    vertex 793.6152495645197 1704.0146818386092 426.400000000001
    vertex 794.0148512545383 1703.0499580190192 426.400000000001
  endloop
endfacet
facet normal 8.515847768768819e-16 2.3622118593347404e-15 -1.0
  outer loop
    vertex 794.0647393073049 1701.6357444566459 426.39999999999986
    vertex 794.0148512545383 1703.0499580190192 426.400000000001
    vertex 794.6505257449298 1702.221530894273 426.400000000001
  endloop
endfacet
facet normal 8.515847768768819e-16 2.3622118593347404e-15 -1.0
  outer loop
    vertex 600.08580192534 1701.1862547138633 426.4000000000008
    vertex 599.4647393073045 1615.8357444566464 426.40000000000055
    vertex 599.4647393073029 1701.1044902690405 426.40000000000066
  endloop
endfacet
facet normal 8.515847768768819e-16 2.3622118593347404e-15 -1.0
  outer loop
    vertex 599.4647393073045 1615.8357444566464 426.40000000000055
    vertex 600.08580192534 1701.1862547138633 426.4000000000008
    vertex 601.464739307305 1615.8357444566466 426.40000000000055
  endloop
endfacet
facet normal 8.515847768768819e-16 2.3622118593347404e-15 -1.0
  outer loop
    vertex 601.464739307305 1615.8357444566466 426.40000000000055
    vertex 600.08580192534 1701.1862547138633 426.4000000000008
    vertex 601.0505257449297 1701.5858564038817 426.4000000000008
  endloop
endfacet
facet normal 8.515847768768819e-16 2.3622118593347404e-15 -1.0
  outer loop
    vertex 601.464739307305 1615.8357444566466 426.40000000000055
    vertex 601.0505257449297 1701.5858564038817 426.4000000000008
    vertex 601.8789528696763 1702.221530894273 426.40000000000066
  endloop
endfacet
facet normal 8.515847768768819e-16 2.3622118593347404e-15 -1.0
  outer loop
    vertex 601.464739307305 1615.8357444566466 426.40000000000055
    vertex 601.8789528696763 1702.221530894273 426.40000000000066
    vertex 601.464739307305 1595.8357444566466 426.40000000000055
  endloop
endfacet
facet normal 8.515847768768819e-16 2.3622118593347404e-15 -1.0
  outer loop
    vertex 601.8789528696794 1509.4499580190188 426.4000000000004
    vertex 602.4647393073029 1510.035744456645 426.39999999999986
    vertex 602.5146273600714 1508.6215308942722 426.4000000000004
  endloop
endfacet
facet normal 8.515847768768819e-16 2.3622118593347404e-15 -1.0
  outer loop
    vertex 602.4647393073029 1510.035744456645 426.39999999999986
    vertex 601.8789528696794 1509.4499580190188 426.4000000000004
    vertex 602.4647393073029 1701.6357444566459 426.39999999999986
  endloop
endfacet
facet normal 8.515847768768819e-16 2.3622118593347404e-15 -1.0
  outer loop
    vertex 602.5146273600714 1508.6215308942722 426.4000000000004
    vertex 602.4647393073029 1510.035744456645 426.39999999999986
    vertex 794.0647393073027 1510.0357444566444 426.39999999999986
  endloop
endfacet
facet normal 8.515847768768819e-16 2.3622118593347404e-15 -1.0
  outer loop
    vertex 602.5146273600714 1508.6215308942722 426.4000000000004
    vertex 794.0647393073027 1510.0357444566444 426.39999999999986
    vertex 602.9142290500896 1507.6568070746828 426.4000000000004
  endloop
endfacet
facet normal 8.515847768768819e-16 2.3622118593347404e-15 -1.0
  outer loop
    vertex 602.9142290500896 1507.6568070746828 426.4000000000004
    vertex 794.0647393073027 1510.0357444566444 426.39999999999986
    vertex 602.9959934949122 1507.0357444566455 426.4000000000004
  endloop
endfacet
facet normal 8.515847768768819e-16 2.3622118593347404e-15 -1.0
  outer loop
    vertex 602.9959934949122 1507.0357444566455 426.4000000000004
    vertex 794.0647393073027 1510.0357444566444 426.39999999999986
    vertex 793.6152495645215 1507.656807074682 426.4000000000004
  endloop
endfacet
facet normal 8.515847768768819e-16 2.3622118593347404e-15 -1.0
  outer loop
    vertex 602.9959934949122 1507.0357444566455 426.4000000000004
    vertex 793.6152495645215 1507.656807074682 426.4000000000004
    vertex 793.5334851196986 1507.035744456645 426.4000000000004
  endloop
endfacet
facet normal 8.515847768768819e-16 2.3622118593347404e-15 -1.0
  outer loop
    vertex 793.6152495645215 1507.656807074682 426.4000000000004
    vertex 794.0647393073027 1510.0357444566444 426.39999999999986
    vertex 794.0148512545394 1508.6215308942715 426.4000000000004
  endloop
endfacet
facet normal 8.515847768768819e-16 2.3622118593347404e-15 -1.0
  outer loop
    vertex 794.0148512545394 1508.6215308942715 426.4000000000004
    vertex 794.0647393073027 1510.0357444566444 426.39999999999986
    vertex 794.650525744931 1509.4499580190177 426.4000000000004
  endloop
endfacet
facet normal 8.515847768768819e-16 2.3622118593347404e-15 -1.0
  outer loop
    vertex 794.650525744931 1509.4499580190177 426.4000000000004
    vertex 794.0647393073027 1510.0357444566444 426.39999999999986
    vertex 794.0647393073049 1701.6357444566459 426.39999999999986
  endloop
endfacet
facet normal 8.515847768768819e-16 2.3622118593347404e-15 -1.0
  outer loop
    vertex 794.650525744931 1509.4499580190177 426.4000000000004
    vertex 794.0647393073049 1701.6357444566459 426.39999999999986
    vertex 794.6505257449298 1702.221530894273 426.400000000001
  endloop
endfacet
facet normal 8.515847768768819e-16 2.3622118593347404e-15 -1.0
  outer loop
    vertex 794.650525744931 1509.4499580190177 426.4000000000004
    vertex 794.6505257449298 1702.221530894273 426.400000000001
    vertex 795.064739307303 1615.8357444566464 426.4000000000008
  endloop
endfacet
facet normal 8.515847768768819e-16 2.3622118593347404e-15 -1.0
  outer loop
    vertex 795.064739307303 1615.8357444566464 426.4000000000008
    vertex 794.6505257449298 1702.221530894273 426.400000000001
    vertex 795.4789528696762 1701.5858564038817 426.400000000001
  endloop
endfacet
facet normal 8.515847768768819e-16 2.3622118593347404e-15 -1.0
  outer loop
    vertex 795.064739307303 1615.8357444566464 426.4000000000008
    vertex 795.4789528696762 1701.5858564038817 426.400000000001
    vertex 797.0647393073032 1615.8357444566464 426.4000000000008
  endloop
endfacet
facet normal 8.515847768768819e-16 2.3622118593347404e-15 -1.0
  outer loop
    vertex 797.0647393073032 1615.8357444566464 426.4000000000008
    vertex 795.4789528696762 1701.5858564038817 426.400000000001
    vertex 796.4436766892661 1701.1862547138633 426.400000000001
  endloop
endfacet
facet normal 8.515847768768819e-16 2.3622118593347404e-15 -1.0
  outer loop
    vertex 797.0647393073032 1615.8357444566464 426.4000000000008
    vertex 796.4436766892661 1701.1862547138633 426.400000000001
    vertex 797.0647393073032 1701.1044902690405 426.400000000001
  endloop
endfacet
facet normal 8.515847768768819e-16 2.3622118593347404e-15 -1.0
  outer loop
    vertex 794.650525744931 1509.4499580190177 426.4000000000004
    vertex 795.064739307303 1595.8357444566461 426.4000000000008
    vertex 795.4789528696771 1510.0856325094096 426.4000000000004
  endloop
endfacet
facet normal 8.515847768768819e-16 2.3622118593347404e-15 -1.0
  outer loop
    vertex 795.064739307303 1595.8357444566461 426.4000000000008
    vertex 794.650525744931 1509.4499580190177 426.4000000000004
    vertex 795.064739307303 1615.8357444566464 426.4000000000008
  endloop
endfacet
facet normal 8.515847768768819e-16 2.3622118593347404e-15 -1.0
  outer loop
    vertex 795.4789528696771 1510.0856325094096 426.4000000000004
    vertex 795.064739307303 1595.8357444566461 426.4000000000008
    vertex 797.0647393073032 1595.8357444566457 426.40000000000066
  endloop
endfacet
facet normal 8.515847768768819e-16 2.3622118593347404e-15 -1.0
  outer loop
    vertex 795.4789528696771 1510.0856325094096 426.4000000000004
    vertex 797.0647393073032 1595.8357444566457 426.40000000000066
    vertex 796.4436766892671 1510.485234199428 426.4000000000004
  endloop
endfacet
facet normal 8.515847768768819e-16 2.3622118593347404e-15 -1.0
  outer loop
    vertex 796.4436766892671 1510.485234199428 426.4000000000004
    vertex 797.0647393073032 1595.8357444566457 426.40000000000066
    vertex 797.0647393073034 1510.5669986442508 426.4000000000004
  endloop
endfacet
facet normal 1.0 1.058288433608177e-15 -2.1264907288101832e-30
  outer loop
    vertex 797.0647393073032 1701.1044902690405 426.400000000001
    vertex 797.0647393073032 1615.8357444566464 428.39999999999986
    vertex 797.0647393073032 1615.8357444566464 426.4000000000008
  endloop
endfacet
facet normal 1.0 1.058288433608177e-15 -2.1264907288101832e-30
  outer loop
    vertex 797.0647393073032 1615.8357444566464 428.39999999999986
    vertex 797.0647393073032 1701.1044902690405 426.400000000001
    vertex 797.0647393073032 1701.1044902690405 428.39999999999986
  endloop
endfacet
facet normal 0.9914448613737937 0.1305261922201788 0.0
  outer loop
    vertex 793.5334851196968 1704.6357444566463 426.400000000001
    vertex 793.6152495645197 1704.0146818386092 428.39999999999986
    vertex 793.6152495645197 1704.0146818386092 426.400000000001
  endloop
endfacet
facet normal 0.9914448613737937 0.1305261922201788 0.0
  outer loop
    vertex 793.6152495645197 1704.0146818386092 428.39999999999986
    vertex 793.5334851196968 1704.6357444566463 426.400000000001
    vertex 793.5334851196968 1704.6357444566463 428.39999999999986
  endloop
endfacet
facet normal 0.9238795325112878 0.38268343236508756 0.0
  outer loop
    vertex 793.6152495645197 1704.0146818386092 426.400000000001
    vertex 794.0148512545383 1703.0499580190192 428.39999999999986
    vertex 794.0148512545383 1703.0499580190192 426.400000000001
  endloop
endfacet
facet normal 0.9238795325112878 0.38268343236508756 0.0
  outer loop
    vertex 794.0148512545383 1703.0499580190192 428.39999999999986
    vertex 793.6152495645197 1704.0146818386092 426.400000000001
    vertex 793.6152495645197 1704.0146818386092 428.39999999999986
  endloop
endfacet
facet normal 0.7933533402911959 0.6087614290087722 0.0
  outer loop
    vertex 794.0148512545383 1703.0499580190192 426.400000000001
    vertex 794.6505257449298 1702.221530894273 428.39999999999986
    vertex 794.6505257449298 1702.221530894273 426.400000000001
  endloop
endfacet
facet normal 0.7933533402911959 0.6087614290087722 0.0
  outer loop
    vertex 794.6505257449298 1702.221530894273 428.39999999999986
    vertex 794.0148512545383 1703.0499580190192 426.400000000001
    vertex 794.0148512545383 1703.0499580190192 428.39999999999986
  endloop
endfacet
facet normal 0.6087614290086387 0.793353340291298 0.0
  outer loop
    vertex 794.6505257449298 1702.221530894273 428.39999999999986
    vertex 795.4789528696762 1701.5858564038817 426.400000000001
    vertex 794.6505257449298 1702.221530894273 426.400000000001
  endloop
endfacet
facet normal 0.6087614290086387 0.793353340291298 0.0
  outer loop
    vertex 795.4789528696762 1701.5858564038817 426.400000000001
    vertex 794.6505257449298 1702.221530894273 428.39999999999986
    vertex 795.4789528696762 1701.5858564038817 428.39999999999986
  endloop
endfacet
facet normal 0.38268343236511493 0.9238795325112765 0.0
  outer loop
    vertex 795.4789528696762 1701.5858564038817 428.39999999999986
    vertex 796.4436766892661 1701.1862547138633 426.400000000001
    vertex 795.4789528696762 1701.5858564038817 426.400000000001
  endloop
endfacet
facet normal 0.38268343236511493 0.9238795325112765 0.0
  outer loop
    vertex 796.4436766892661 1701.1862547138633 426.400000000001
    vertex 795.4789528696762 1701.5858564038817 428.39999999999986
    vertex 796.4436766892661 1701.1862547138633 428.39999999999986
  endloop
endfacet
facet normal 0.13052619222004072 0.9914448613738118 0.0
  outer loop
    vertex 796.4436766892661 1701.1862547138633 428.39999999999986
    vertex 797.0647393073032 1701.1044902690405 426.400000000001
    vertex 796.4436766892661 1701.1862547138633 426.400000000001
  endloop
endfacet
facet normal 0.13052619222004072 0.9914448613738118 0.0
  outer loop
    vertex 797.0647393073032 1701.1044902690405 426.400000000001
    vertex 796.4436766892661 1701.1862547138633 428.39999999999986
    vertex 797.0647393073032 1701.1044902690405 428.39999999999986
  endloop
endfacet
facet normal 1.0 1.0582884336081724e-15 2.6111457059408728e-30
  outer loop
    vertex 797.0647393073032 1595.8357444566457 426.40000000000066
    vertex 797.0647393073034 1510.5669986442508 428.39999999999986
    vertex 797.0647393073034 1510.5669986442508 426.4000000000004
  endloop
endfacet
facet normal 1.0 1.0582884336081724e-15 2.6111457059408728e-30
  outer loop
    vertex 797.0647393073034 1510.5669986442508 428.39999999999986
    vertex 797.0647393073032 1595.8357444566457 426.40000000000066
    vertex 797.0647393073032 1595.8357444566457 428.39999999999986
  endloop
endfacet
facet normal -1.0 -1.9049191804947185e-14 -2.987978353974677e-29
  outer loop
    vertex 599.4647393073029 1701.1044902690405 428.3999999999999
    vertex 599.4647393073045 1615.8357444566464 426.40000000000055
    vertex 599.4647393073045 1615.8357444566464 428.3999999999999
  endloop
endfacet
facet normal -1.0 -1.9049191804947185e-14 -2.987978353974677e-29
  outer loop
    vertex 599.4647393073045 1615.8357444566464 426.40000000000055
    vertex 599.4647393073029 1701.1044902690405 428.3999999999999
    vertex 599.4647393073029 1701.1044902690405 426.40000000000066
  endloop
endfacet
facet normal -1.0 -2.7071678232459865e-14 -2.707167823246951e-13
  outer loop
    vertex 601.4647393073038 1615.8357444566464 428.3999999999999
    vertex 601.464739307305 1595.8357444566466 426.40000000000055
    vertex 601.464739307305 1595.8357444566457 428.3999999999999
  endloop
endfacet
facet normal -1.0 -2.7071678232459865e-14 -2.707167823246951e-13
  outer loop
    vertex 601.464739307305 1595.8357444566466 426.40000000000055
    vertex 601.4647393073038 1615.8357444566464 428.3999999999999
    vertex 601.464739307305 1615.8357444566466 426.40000000000055
  endloop
endfacet
facet normal 1.3535839116234816e-13 -1.0 -1.353583911623054e-13
  outer loop
    vertex 601.4647393073038 1615.8357444566464 428.3999999999999
    vertex 599.4647393073045 1615.8357444566464 426.40000000000055
    vertex 601.464739307305 1615.8357444566466 426.40000000000055
  endloop
endfacet
facet normal 1.3535839116234816e-13 -1.0 -1.353583911623054e-13
  outer loop
    vertex 599.4647393073045 1615.8357444566464 426.40000000000055
    vertex 601.4647393073038 1615.8357444566464 428.3999999999999
    vertex 599.4647393073045 1615.8357444566464 428.3999999999999
  endloop
endfacet
facet normal 0.0 -1.0 0.0
  outer loop
    vertex 797.0647393073032 1615.8357444566464 428.39999999999986
    vertex 795.064739307303 1615.8357444566464 426.4000000000008
    vertex 797.0647393073032 1615.8357444566464 426.4000000000008
  endloop
endfacet
facet normal 0.0 -1.0 0.0
  outer loop
    vertex 795.064739307303 1615.8357444566464 426.4000000000008
    vertex 797.0647393073032 1615.8357444566464 428.39999999999986
    vertex 795.064739307303 1615.8357444566464 428.39999999999986
  endloop
endfacet
facet normal 1.0 0.0 0.0
  outer loop
    vertex 795.064739307303 1615.8357444566464 426.4000000000008
    vertex 795.064739307303 1595.8357444566461 428.39999999999986
    vertex 795.064739307303 1595.8357444566461 426.4000000000008
  endloop
endfacet
facet normal 1.0 0.0 0.0
  outer loop
    vertex 795.064739307303 1595.8357444566461 428.39999999999986
    vertex 795.064739307303 1615.8357444566464 426.4000000000008
    vertex 795.064739307303 1615.8357444566464 428.39999999999986
  endloop
endfacet
facet normal 2.70716782324562e-13 1.0 -3.727598896924059e-31
  outer loop
    vertex 795.064739307303 1595.8357444566461 426.4000000000008
    vertex 797.0647393073032 1595.8357444566457 428.39999999999986
    vertex 797.0647393073032 1595.8357444566457 426.40000000000066
  endloop
endfacet
facet normal 2.70716782324562e-13 1.0 -3.727598896924059e-31
  outer loop
    vertex 797.0647393073032 1595.8357444566457 428.39999999999986
    vertex 795.064739307303 1595.8357444566461 426.4000000000008
    vertex 795.064739307303 1595.8357444566461 428.39999999999986
  endloop
endfacet
facet normal -1.7428427683190495e-15 -1.0 -3.3839597790609886e-14
  outer loop
    vertex 793.5334851196986 1507.035744456645 428.39999999999986
    vertex 602.9959934949122 1507.0357444566455 426.4000000000004
    vertex 793.5334851196986 1507.035744456645 426.4000000000004
  endloop
endfacet
facet normal -1.7428427683190495e-15 -1.0 -3.3839597790609886e-14
  outer loop
    vertex 602.9959934949122 1507.0357444566455 426.4000000000004
    vertex 793.5334851196986 1507.035744456645 428.39999999999986
    vertex 602.9959934949122 1507.0357444566455 428.39999999999986
  endloop
endfacet
facet normal -0.3826834323651276 -0.9238795325112712 0.0
  outer loop
    vertex 601.0505257449333 1510.0856325094103 428.39999999999986
    vertex 600.0858019253433 1510.4852341994288 426.4000000000004
    vertex 601.0505257449333 1510.0856325094103 426.4000000000004
  endloop
endfacet
facet normal -0.3826834323651276 -0.9238795325112712 0.0
  outer loop
    vertex 600.0858019253433 1510.4852341994288 426.4000000000004
    vertex 601.0505257449333 1510.0856325094103 428.39999999999986
    vertex 600.0858019253433 1510.4852341994288 428.39999999999986
  endloop
endfacet
facet normal -0.7933533402913626 -0.6087614290085545 0.0
  outer loop
    vertex 601.8789528696794 1509.4499580190188 428.39999999999986
    vertex 602.5146273600714 1508.6215308942722 426.4000000000004
    vertex 602.5146273600714 1508.6215308942722 428.39999999999986
  endloop
endfacet
facet normal -0.7933533402913626 -0.6087614290085545 0.0
  outer loop
    vertex 602.5146273600714 1508.6215308942722 426.4000000000004
    vertex 601.8789528696794 1509.4499580190188 428.39999999999986
    vertex 601.8789528696794 1509.4499580190188 426.4000000000004
  endloop
endfacet
facet normal -0.1305261922199737 -0.9914448613738208 2.9738163518210303e-27
  outer loop
    vertex 600.0858019253433 1510.4852341994288 428.39999999999986
    vertex 599.4647393073066 1510.5669986442515 426.4000000000004
    vertex 600.0858019253433 1510.4852341994288 426.4000000000004
  endloop
endfacet
facet normal -0.1305261922199737 -0.9914448613738208 2.9738163518210303e-27
  outer loop
    vertex 599.4647393073066 1510.5669986442515 426.4000000000004
    vertex 600.0858019253433 1510.4852341994288 428.39999999999986
    vertex 599.4647393073066 1510.5669986442515 428.39999999999986
  endloop
endfacet
facet normal -0.9914448613737985 -0.13052619222014153 5.31441570147578e-28
  outer loop
    vertex 602.9142290500896 1507.6568070746828 428.39999999999986
    vertex 602.9959934949122 1507.0357444566455 426.4000000000004
    vertex 602.9959934949122 1507.0357444566455 428.39999999999986
  endloop
endfacet
facet normal -0.9914448613737985 -0.13052619222014153 5.31441570147578e-28
  outer loop
    vertex 602.9959934949122 1507.0357444566455 426.4000000000004
    vertex 602.9142290500896 1507.6568070746828 428.39999999999986
    vertex 602.9142290500896 1507.6568070746828 426.4000000000004
  endloop
endfacet
facet normal -0.6087614290086932 -0.7933533402912564 0.0
  outer loop
    vertex 601.8789528696794 1509.4499580190188 428.39999999999986
    vertex 601.0505257449333 1510.0856325094103 426.4000000000004
    vertex 601.8789528696794 1509.4499580190188 426.4000000000004
  endloop
endfacet
facet normal -0.6087614290086932 -0.7933533402912564 0.0
  outer loop
    vertex 601.0505257449333 1510.0856325094103 426.4000000000004
    vertex 601.8789528696794 1509.4499580190188 428.39999999999986
    vertex 601.0505257449333 1510.0856325094103 428.39999999999986
  endloop
endfacet
facet normal -0.9238795325112267 -0.38268343236523505 0.0
  outer loop
    vertex 602.5146273600714 1508.6215308942722 428.39999999999986
    vertex 602.9142290500896 1507.6568070746828 426.4000000000004
    vertex 602.9142290500896 1507.6568070746828 428.39999999999986
  endloop
endfacet
facet normal -0.9238795325112267 -0.38268343236523505 0.0
  outer loop
    vertex 602.9142290500896 1507.6568070746828 426.4000000000004
    vertex 602.5146273600714 1508.6215308942722 428.39999999999986
    vertex 602.5146273600714 1508.6215308942722 426.4000000000004
  endloop
endfacet
facet normal -1.0 -2.116576867216365e-14 9.023892744155163e-14
  outer loop
    vertex 599.4647393073049 1595.8357444566457 428.3999999999999
    vertex 599.4647393073066 1510.5669986442515 426.4000000000004
    vertex 599.4647393073066 1510.5669986442515 428.39999999999986
  endloop
endfacet
facet normal -1.0 -2.116576867216365e-14 9.023892744155163e-14
  outer loop
    vertex 599.4647393073066 1510.5669986442515 426.4000000000004
    vertex 599.4647393073049 1595.8357444566457 428.3999999999999
    vertex 599.4647393073045 1595.8357444566466 426.40000000000055
  endloop
endfacet
facet normal 2.8326365862014844e-16 -2.322078054157564e-16 1.0
  outer loop
    vertex 795.4789528696771 1510.0856325094096 428.39999999999986
    vertex 795.064739307303 1595.8357444566461 428.39999999999986
    vertex 794.650525744931 1509.4499580190177 428.39999999999986
  endloop
endfacet
facet normal 2.8326365862014844e-16 -2.322078054157564e-16 1.0
  outer loop
    vertex 795.064739307303 1595.8357444566461 428.39999999999986
    vertex 795.4789528696771 1510.0856325094096 428.39999999999986
    vertex 797.0647393073032 1595.8357444566457 428.39999999999986
  endloop
endfacet
facet normal 2.8326365862014844e-16 -2.322078054157564e-16 1.0
  outer loop
    vertex 797.0647393073032 1595.8357444566457 428.39999999999986
    vertex 795.4789528696771 1510.0856325094096 428.39999999999986
    vertex 796.4436766892671 1510.485234199428 428.39999999999986
  endloop
endfacet
facet normal 2.8326365862014844e-16 -2.322078054157564e-16 1.0
  outer loop
    vertex 797.0647393073032 1595.8357444566457 428.39999999999986
    vertex 796.4436766892671 1510.485234199428 428.39999999999986
    vertex 797.0647393073034 1510.5669986442508 428.39999999999986
  endloop
endfacet
facet normal 2.8326365862014844e-16 -2.322078054157564e-16 1.0
  outer loop
    vertex 793.5334851196986 1507.035744456645 428.39999999999986
    vertex 603.464739307303 1511.0357444566441 428.39999999999986
    vertex 602.9959934949122 1507.0357444566455 428.39999999999986
  endloop
endfacet
facet normal 2.8326365862014844e-16 -2.322078054157564e-16 1.0
  outer loop
    vertex 603.464739307303 1511.0357444566441 428.39999999999986
    vertex 793.5334851196986 1507.035744456645 428.39999999999986
    vertex 793.0647393073028 1511.0357444566441 428.39999999999986
  endloop
endfacet
facet normal 2.8326365862014844e-16 -2.322078054157564e-16 1.0
  outer loop
    vertex 793.0647393073028 1511.0357444566441 428.39999999999986
    vertex 793.5334851196986 1507.035744456645 428.39999999999986
    vertex 793.0647393073028 1700.6357444566472 428.39999999999986
  endloop
endfacet
facet normal 2.8326365862014844e-16 -2.322078054157564e-16 1.0
  outer loop
    vertex 793.0647393073028 1700.6357444566472 428.39999999999986
    vertex 793.5334851196986 1507.035744456645 428.39999999999986
    vertex 793.5334851196968 1704.6357444566463 428.39999999999986
  endloop
endfacet
facet normal 2.8326365862014844e-16 -2.322078054157564e-16 1.0
  outer loop
    vertex 793.5334851196968 1704.6357444566463 428.39999999999986
    vertex 793.5334851196986 1507.035744456645 428.39999999999986
    vertex 793.6152495645197 1704.0146818386092 428.39999999999986
  endloop
endfacet
facet normal 2.8326365862014844e-16 -2.322078054157564e-16 1.0
  outer loop
    vertex 793.6152495645197 1704.0146818386092 428.39999999999986
    vertex 793.5334851196986 1507.035744456645 428.39999999999986
    vertex 793.6152495645215 1507.656807074682 428.39999999999986
  endloop
endfacet
facet normal 2.8326365862014844e-16 -2.322078054157564e-16 1.0
  outer loop
    vertex 793.6152495645197 1704.0146818386092 428.39999999999986
    vertex 793.6152495645215 1507.656807074682 428.39999999999986
    vertex 794.0148512545383 1703.0499580190192 428.39999999999986
  endloop
endfacet
facet normal 2.8326365862014844e-16 -2.322078054157564e-16 1.0
  outer loop
    vertex 794.0148512545383 1703.0499580190192 428.39999999999986
    vertex 793.6152495645215 1507.656807074682 428.39999999999986
    vertex 794.0148512545394 1508.6215308942715 428.39999999999986
  endloop
endfacet
facet normal 2.8326365862014844e-16 -2.322078054157564e-16 1.0
  outer loop
    vertex 794.0148512545383 1703.0499580190192 428.39999999999986
    vertex 794.0148512545394 1508.6215308942715 428.39999999999986
    vertex 794.6505257449298 1702.221530894273 428.39999999999986
  endloop
endfacet
facet normal 2.8326365862014844e-16 -2.322078054157564e-16 1.0
  outer loop
    vertex 794.6505257449298 1702.221530894273 428.39999999999986
    vertex 794.0148512545394 1508.6215308942715 428.39999999999986
    vertex 794.650525744931 1509.4499580190177 428.39999999999986
  endloop
endfacet
facet normal 2.8326365862014844e-16 -2.322078054157564e-16 1.0
  outer loop
    vertex 794.6505257449298 1702.221530894273 428.39999999999986
    vertex 794.650525744931 1509.4499580190177 428.39999999999986
    vertex 795.064739307303 1615.8357444566464 428.39999999999986
  endloop
endfacet
facet normal 2.8326365862014844e-16 -2.322078054157564e-16 1.0
  outer loop
    vertex 794.6505257449298 1702.221530894273 428.39999999999986
    vertex 795.064739307303 1615.8357444566464 428.39999999999986
    vertex 795.4789528696762 1701.5858564038817 428.39999999999986
  endloop
endfacet
facet normal 2.8326365862014844e-16 -2.322078054157564e-16 1.0
  outer loop
    vertex 795.064739307303 1615.8357444566464 428.39999999999986
    vertex 794.650525744931 1509.4499580190177 428.39999999999986
    vertex 795.064739307303 1595.8357444566461 428.39999999999986
  endloop
endfacet
facet normal 2.8326365862014844e-16 -2.322078054157564e-16 1.0
  outer loop
    vertex 795.4789528696762 1701.5858564038817 428.39999999999986
    vertex 795.064739307303 1615.8357444566464 428.39999999999986
    vertex 797.0647393073032 1615.8357444566464 428.39999999999986
  endloop
endfacet
facet normal 2.8326365862014844e-16 -2.322078054157564e-16 1.0
  outer loop
    vertex 795.4789528696762 1701.5858564038817 428.39999999999986
    vertex 797.0647393073032 1615.8357444566464 428.39999999999986
    vertex 796.4436766892661 1701.1862547138633 428.39999999999986
  endloop
endfacet
facet normal 2.8326365862014844e-16 -2.322078054157564e-16 1.0
  outer loop
    vertex 796.4436766892661 1701.1862547138633 428.39999999999986
    vertex 797.0647393073032 1615.8357444566464 428.39999999999986
    vertex 797.0647393073032 1701.1044902690405 428.39999999999986
  endloop
endfacet
facet normal 2.8326365862014844e-16 -2.322078054157564e-16 1.0
  outer loop
    vertex 599.4647393073066 1510.5669986442515 428.39999999999986
    vertex 601.464739307305 1595.8357444566457 428.3999999999999
    vertex 599.4647393073049 1595.8357444566457 428.3999999999999
  endloop
endfacet
facet normal 2.8326365862014844e-16 -2.322078054157564e-16 1.0
  outer loop
    vertex 601.464739307305 1595.8357444566457 428.3999999999999
    vertex 599.4647393073066 1510.5669986442515 428.39999999999986
    vertex 600.0858019253433 1510.4852341994288 428.39999999999986
  endloop
endfacet
facet normal 2.8326365862014844e-16 -2.322078054157564e-16 1.0
  outer loop
    vertex 601.464739307305 1595.8357444566457 428.3999999999999
    vertex 600.0858019253433 1510.4852341994288 428.39999999999986
    vertex 601.0505257449333 1510.0856325094103 428.39999999999986
  endloop
endfacet
facet normal 2.8326365862014844e-16 -2.322078054157564e-16 1.0
  outer loop
    vertex 601.464739307305 1595.8357444566457 428.3999999999999
    vertex 601.0505257449333 1510.0856325094103 428.39999999999986
    vertex 601.8789528696794 1509.4499580190188 428.39999999999986
  endloop
endfacet
facet normal 2.8326365862014844e-16 -2.322078054157564e-16 1.0
  outer loop
    vertex 601.464739307305 1595.8357444566457 428.3999999999999
    vertex 601.8789528696794 1509.4499580190188 428.39999999999986
    vertex 601.8789528696763 1702.221530894273 428.3999999999999
  endloop
endfacet
facet normal 2.8326365862014844e-16 -2.322078054157564e-16 1.0
  outer loop
    vertex 601.8789528696763 1702.221530894273 428.3999999999999
    vertex 601.8789528696794 1509.4499580190188 428.39999999999986
    vertex 602.5146273600674 1703.0499580190192 428.3999999999999
  endloop
endfacet
facet normal 2.8326365862014844e-16 -2.322078054157564e-16 1.0
  outer loop
    vertex 602.5146273600674 1703.0499580190192 428.3999999999999
    vertex 601.8789528696794 1509.4499580190188 428.39999999999986
    vertex 602.5146273600714 1508.6215308942722 428.39999999999986
  endloop
endfacet
facet normal 2.8326365862014844e-16 -2.322078054157564e-16 1.0
  outer loop
    vertex 602.5146273600674 1703.0499580190192 428.3999999999999
    vertex 602.5146273600714 1508.6215308942722 428.39999999999986
    vertex 602.914229050086 1704.0146818386092 428.3999999999999
  endloop
endfacet
facet normal 2.8326365862014844e-16 -2.322078054157564e-16 1.0
  outer loop
    vertex 602.914229050086 1704.0146818386092 428.3999999999999
    vertex 602.5146273600714 1508.6215308942722 428.39999999999986
    vertex 602.9142290500896 1507.6568070746828 428.39999999999986
  endloop
endfacet
facet normal 2.8326365862014844e-16 -2.322078054157564e-16 1.0
  outer loop
    vertex 602.914229050086 1704.0146818386092 428.3999999999999
    vertex 602.9142290500896 1507.6568070746828 428.39999999999986
    vertex 602.995993494909 1704.6357444566463 428.39999999999986
  endloop
endfacet
facet normal 2.8326365862014844e-16 -2.322078054157564e-16 1.0
  outer loop
    vertex 602.995993494909 1704.6357444566463 428.39999999999986
    vertex 602.9142290500896 1507.6568070746828 428.39999999999986
    vertex 602.9959934949122 1507.0357444566455 428.39999999999986
  endloop
endfacet
facet normal 2.8326365862014844e-16 -2.322078054157564e-16 1.0
  outer loop
    vertex 602.995993494909 1704.6357444566463 428.39999999999986
    vertex 602.9959934949122 1507.0357444566455 428.39999999999986
    vertex 603.464739307303 1700.635744456644 428.39999999999986
  endloop
endfacet
facet normal 2.8326365862014844e-16 -2.322078054157564e-16 1.0
  outer loop
    vertex 602.995993494909 1704.6357444566463 428.39999999999986
    vertex 603.464739307303 1700.635744456644 428.39999999999986
    vertex 793.5334851196968 1704.6357444566463 428.39999999999986
  endloop
endfacet
facet normal 2.8326365862014844e-16 -2.322078054157564e-16 1.0
  outer loop
    vertex 603.464739307303 1700.635744456644 428.39999999999986
    vertex 602.9959934949122 1507.0357444566455 428.39999999999986
    vertex 603.464739307303 1511.0357444566441 428.39999999999986
  endloop
endfacet
facet normal 2.8326365862014844e-16 -2.322078054157564e-16 1.0
  outer loop
    vertex 793.5334851196968 1704.6357444566463 428.39999999999986
    vertex 603.464739307303 1700.635744456644 428.39999999999986
    vertex 793.0647393073028 1700.6357444566472 428.39999999999986
  endloop
endfacet
facet normal 2.8326365862014844e-16 -2.322078054157564e-16 1.0
  outer loop
    vertex 599.4647393073045 1615.8357444566464 428.3999999999999
    vertex 600.08580192534 1701.1862547138633 428.40000000000003
    vertex 599.4647393073029 1701.1044902690405 428.3999999999999
  endloop
endfacet
facet normal 2.8326365862014844e-16 -2.322078054157564e-16 1.0
  outer loop
    vertex 600.08580192534 1701.1862547138633 428.40000000000003
    vertex 599.4647393073045 1615.8357444566464 428.3999999999999
    vertex 601.4647393073038 1615.8357444566464 428.3999999999999
  endloop
endfacet
facet normal 2.8326365862014844e-16 -2.322078054157564e-16 1.0
  outer loop
    vertex 600.08580192534 1701.1862547138633 428.40000000000003
    vertex 601.4647393073038 1615.8357444566464 428.3999999999999
    vertex 601.0505257449297 1701.5858564038817 428.40000000000003
  endloop
endfacet
facet normal 2.8326365862014844e-16 -2.322078054157564e-16 1.0
  outer loop
    vertex 601.0505257449297 1701.5858564038817 428.40000000000003
    vertex 601.4647393073038 1615.8357444566464 428.3999999999999
    vertex 601.8789528696763 1702.221530894273 428.3999999999999
  endloop
endfacet
facet normal 2.8326365862014844e-16 -2.322078054157564e-16 1.0
  outer loop
    vertex 601.8789528696763 1702.221530894273 428.3999999999999
    vertex 601.4647393073038 1615.8357444566464 428.3999999999999
    vertex 601.464739307305 1595.8357444566457 428.3999999999999
  endloop
endfacet
facet normal 2.9820790954932704e-30 1.0 5.414335646493683e-13
  outer loop
    vertex 599.4647393073049 1595.8357444566457 428.3999999999999
    vertex 601.464739307305 1595.8357444566466 426.40000000000055
    vertex 599.4647393073045 1595.8357444566466 426.40000000000055
  endloop
endfacet
facet normal 2.9820790954932704e-30 1.0 5.414335646493683e-13
  outer loop
    vertex 601.464739307305 1595.8357444566466 426.40000000000055
    vertex 599.4647393073049 1595.8357444566457 428.3999999999999
    vertex 601.464739307305 1595.8357444566457 428.3999999999999
  endloop
endfacet
facet normal 3.923788303973473e-32 -7.124125850647383e-15 -1.0
  outer loop
    vertex 666.2094792828789 1603.2277795482385 334.9999999999989
    vertex 669.2094792828788 1600.2277795482385 334.999999999999
    vertex 669.2094792828782 1568.2277795482387 334.9999999999992
  endloop
endfacet
facet normal 3.923788303973473e-32 -7.124125850647383e-15 -1.0
  outer loop
    vertex 669.2094792828788 1600.2277795482385 334.999999999999
    vertex 666.2094792828789 1603.2277795482385 334.9999999999989
    vertex 730.209479282882 1603.2277795482385 334.9999999999989
  endloop
endfacet
facet normal 3.923788303973473e-32 -7.124125850647383e-15 -1.0
  outer loop
    vertex 669.2094792828788 1600.2277795482385 334.999999999999
    vertex 730.209479282882 1603.2277795482385 334.9999999999989
    vertex 727.209479282882 1600.2277795482385 334.999999999999
  endloop
endfacet
facet normal 3.923788303973473e-32 -7.124125850647383e-15 -1.0
  outer loop
    vertex 727.209479282882 1600.2277795482385 334.999999999999
    vertex 730.209479282882 1603.2277795482385 334.9999999999989
    vertex 727.2094792828822 1568.2277795482387 334.9999999999992
  endloop
endfacet
facet normal 3.923788303973473e-32 -7.124125850647383e-15 -1.0
  outer loop
    vertex 666.2094792828781 1565.2277795482387 334.9999999999992
    vertex 669.2094792828782 1568.2277795482387 334.9999999999992
    vertex 730.2094792828822 1565.2277795482387 334.9999999999992
  endloop
endfacet
facet normal 3.923788303973473e-32 -7.124125850647383e-15 -1.0
  outer loop
    vertex 669.2094792828782 1568.2277795482387 334.9999999999992
    vertex 666.2094792828781 1565.2277795482387 334.9999999999992
    vertex 666.2094792828789 1603.2277795482385 334.9999999999989
  endloop
endfacet
facet normal 3.923788303973473e-32 -7.124125850647383e-15 -1.0
  outer loop
    vertex 730.2094792828822 1565.2277795482387 334.9999999999992
    vertex 669.2094792828782 1568.2277795482387 334.9999999999992
    vertex 727.2094792828822 1568.2277795482387 334.9999999999992
  endloop
endfacet
facet normal 3.923788303973473e-32 -7.124125850647383e-15 -1.0
  outer loop
    vertex 730.2094792828822 1565.2277795482387 334.9999999999992
    vertex 727.2094792828822 1568.2277795482387 334.9999999999992
    vertex 730.209479282882 1603.2277795482385 334.9999999999989
  endloop
endfacet
facet normal 0.817728887979857 -2.6994067849539843e-16 0.5756035664962706
  outer loop
    vertex 669.2094792828782 1568.2277795482387 334.9999999999992
    vertex 603.464739307303 1700.635744456644 428.39999999999986
    vertex 603.464739307303 1511.0357444566441 428.39999999999986
  endloop
endfacet
facet normal 0.817728887979857 -2.6994067849539843e-16 0.5756035664962706
  outer loop
    vertex 603.464739307303 1700.635744456644 428.39999999999986
    vertex 669.2094792828782 1568.2277795482387 334.9999999999992
    vertex 669.2094792828788 1600.2277795482385 334.999999999999
  endloop
endfacet
facet normal 1.065321646547833e-14 -0.6810931602333938 0.7321967680093163
  outer loop
    vertex 669.2094792828788 1600.2277795482385 334.999999999999
    vertex 793.0647393073028 1700.6357444566472 428.39999999999986
    vertex 603.464739307303 1700.635744456644 428.39999999999986
  endloop
endfacet
facet normal 1.065321646547833e-14 -0.6810931602333938 0.7321967680093163
  outer loop
    vertex 793.0647393073028 1700.6357444566472 428.39999999999986
    vertex 669.2094792828788 1600.2277795482385 334.999999999999
    vertex 727.209479282882 1600.2277795482385 334.999999999999
  endloop
endfacet
facet normal -4.797742333444215e-18 0.8528173028506217 0.5222093909138279
  outer loop
    vertex 603.464739307303 1511.0357444566441 428.39999999999986
    vertex 727.2094792828822 1568.2277795482387 334.9999999999992
    vertex 669.2094792828782 1568.2277795482387 334.9999999999992
  endloop
endfacet
facet normal -4.797742333444215e-18 0.8528173028506217 0.5222093909138279
  outer loop
    vertex 727.2094792828822 1568.2277795482387 334.9999999999992
    vertex 603.464739307303 1511.0357444566441 428.39999999999986
    vertex 793.0647393073028 1511.0357444566441 428.39999999999986
  endloop
endfacet
facet normal -0.817273440522936 -5.245923095517582e-17 0.5762500528553581
  outer loop
    vertex 793.0647393073028 1700.6357444566472 428.39999999999986
    vertex 727.2094792828822 1568.2277795482387 334.9999999999992
    vertex 793.0647393073028 1511.0357444566441 428.39999999999986
  endloop
endfacet
facet normal -0.817273440522936 -5.245923095517582e-17 0.5762500528553581
  outer loop
    vertex 727.2094792828822 1568.2277795482387 334.9999999999992
    vertex 793.0647393073028 1700.6357444566472 428.39999999999986
    vertex 727.209479282882 1600.2277795482385 334.999999999999
  endloop
endfacet
facet normal -0.8202225438446389 3.8813973677645917e-16 -0.5720445599505598
  outer loop
    vertex 602.4647393073029 1701.6357444566459 426.39999999999986
    vertex 666.2094792828781 1565.2277795482387 334.9999999999992
    vertex 602.4647393073029 1510.035744456645 426.39999999999986
  endloop
endfacet
facet normal -0.8202225438446389 3.8813973677645917e-16 -0.5720445599505598
  outer loop
    vertex 666.2094792828781 1565.2277795482387 334.9999999999992
    vertex 602.4647393073029 1701.6357444566459 426.39999999999986
    vertex 666.2094792828789 1603.2277795482385 334.9999999999989
  endloop
endfacet
facet normal -2.8734688011223625e-15 -0.8560348986591693 -0.5169180324554232
  outer loop
    vertex 794.0647393073027 1510.0357444566444 426.39999999999986
    vertex 666.2094792828781 1565.2277795482387 334.9999999999992
    vertex 730.2094792828822 1565.2277795482387 334.9999999999992
  endloop
endfacet
facet normal -2.8734688011223625e-15 -0.8560348986591693 -0.5169180324554232
  outer loop
    vertex 666.2094792828781 1565.2277795482387 334.9999999999992
    vertex 794.0647393073027 1510.0357444566444 426.39999999999986
    vertex 602.4647393073029 1510.035744456645 426.39999999999986
  endloop
endfacet
facet normal -4.476884704233752e-18 0.6805357591506301 -0.7327148698622648
  outer loop
    vertex 794.0647393073049 1701.6357444566459 426.39999999999986
    vertex 666.2094792828789 1603.2277795482385 334.9999999999989
    vertex 602.4647393073029 1701.6357444566459 426.39999999999986
  endloop
endfacet
facet normal -4.476884704233752e-18 0.6805357591506301 -0.7327148698622648
  outer loop
    vertex 666.2094792828789 1603.2277795482385 334.9999999999989
    vertex 794.0647393073049 1701.6357444566459 426.39999999999986
    vertex 730.209479282882 1603.2277795482385 334.9999999999989
  endloop
endfacet
facet normal 0.8197571777564086 -8.899330156135815e-15 -0.5727112444477129
  outer loop
    vertex 730.2094792828822 1565.2277795482387 334.9999999999992
    vertex 794.0647393073049 1701.6357444566459 426.39999999999986
    vertex 794.0647393073027 1510.0357444566444 426.39999999999986
  endloop
endfacet
facet normal 0.8197571777564086 -8.899330156135815e-15 -0.5727112444477129
  outer loop
    vertex 794.0647393073049 1701.6357444566459 426.39999999999986
    vertex 730.2094792828822 1565.2277795482387 334.9999999999992
    vertex 730.209479282882 1603.2277795482385 334.9999999999989
  endloop
endfacet
endsolid Pet Feeder
