solid Pet Feeder
facet normal 1.0 0.0 0.0
  outer loop
    vertex 645.4178823127194 1579.8973367640256 421.29999995591425
    vertex 645.4178823127194 1557.4973367640255 425.29999995591425
    vertex 645.4178823127194 1557.4973367640255 421.29999995591425
  endloop
endfacet
facet normal 1.0 0.0 0.0
  outer loop
    vertex 645.4178823127194 1557.4973367640255 425.29999995591425
    vertex 645.4178823127194 1579.8973367640256 421.29999995591425
    vertex 645.4178823127194 1579.8973367640256 425.29999995591425
  endloop
endfacet
facet normal 0.0 1.0 0.0
  outer loop
    vertex 645.4178823127194 1557.4973367640255 425.29999995591425
    vertex 714.5178823127192 1557.4973367640255 421.29999995591425
    vertex 645.4178823127194 1557.4973367640255 421.29999995591425
  endloop
endfacet
facet normal 0.0 1.0 0.0
  outer loop
    vertex 714.5178823127192 1557.4973367640255 421.29999995591425
    vertex 645.4178823127194 1557.4973367640255 425.29999995591425
    vertex 714.5178823127192 1557.4973367640255 425.29999995591425
  endloop
endfacet
facet normal 0.0 -1.0 0.0
  outer loop
    vertex 714.5178823127213 1579.8973367640256 425.29999995591425
    vertex 645.4178823127194 1579.8973367640256 421.29999995591425
    vertex 714.5178823127213 1579.8973367640256 421.29999995591425
  endloop
endfacet
facet normal 0.0 -1.0 0.0
  outer loop
    vertex 645.4178823127194 1579.8973367640256 421.29999995591425
    vertex 714.5178823127213 1579.8973367640256 425.29999995591425
    vertex 645.4178823127194 1579.8973367640256 425.29999995591425
  endloop
endfacet
facet normal 1.1846358769396167e-17 -0.9107897759792454 -0.4128704203157164
  outer loop
    vertex 794.0647393073027 1510.0357444566441 525.9999999999999
    vertex 645.4178823127194 1557.4973367640255 421.29999995591425
    vertex 714.5178823127192 1557.4973367640255 421.29999995591425
  endloop
endfacet
facet normal 1.1846358769396167e-17 -0.9107897759792454 -0.4128704203157164
  outer loop
    vertex 645.4178823127194 1557.4973367640255 421.29999995591425
    vertex 794.0647393073027 1510.0357444566441 525.9999999999999
    vertex 602.4647393073029 1510.0357444566453 525.9999999999999
  endloop
endfacet
facet normal -0.9251708002380429 -1.341519137870503e-17 -0.3795510379209881
  outer loop
    vertex 602.4647393073029 1701.6357444566459 525.9999999999999
    vertex 645.4178823127194 1557.4973367640255 421.29999995591425
    vertex 602.4647393073029 1510.0357444566453 525.9999999999999
  endloop
endfacet
facet normal -0.9251708002380429 -1.341519137870503e-17 -0.3795510379209881
  outer loop
    vertex 645.4178823127194 1557.4973367640255 421.29999995591425
    vertex 602.4647393073029 1701.6357444566459 525.9999999999999
    vertex 645.4178823127194 1579.8973367640256 421.29999995591425
  endloop
endfacet
facet normal 0.7962543018516539 0.0 -0.6049620540023442
  outer loop
    vertex 714.5178823127192 1557.4973367640255 421.29999995591425
    vertex 794.0647393073049 1701.6357444566459 525.9999999999999
    vertex 794.0647393073027 1510.0357444566441 525.9999999999999
  endloop
endfacet
facet normal 0.7962543018516539 0.0 -0.6049620540023442
  outer loop
    vertex 794.0647393073049 1701.6357444566459 525.9999999999999
    vertex 714.5178823127192 1557.4973367640255 421.29999995591425
    vertex 714.5178823127213 1579.8973367640256 421.29999995591425
  endloop
endfacet
facet normal 0.0 0.6520570594683354 -0.7581698959979272
  outer loop
    vertex 794.0647393073049 1701.6357444566459 525.9999999999999
    vertex 645.4178823127194 1579.8973367640256 421.29999995591425
    vertex 602.4647393073029 1701.6357444566459 525.9999999999999
  endloop
endfacet
facet normal 0.0 0.6520570594683354 -0.7581698959979272
  outer loop
    vertex 645.4178823127194 1579.8973367640256 421.29999995591425
    vertex 794.0647393073049 1701.6357444566459 525.9999999999999
    vertex 714.5178823127213 1579.8973367640256 421.29999995591425
  endloop
endfacet
facet normal -1.0 0.0 0.0
  outer loop
    vertex 714.5178823127213 1579.8973367640256 425.29999995591425
    vertex 714.5178823127192 1557.4973367640255 421.29999995591425
    vertex 714.5178823127192 1557.4973367640255 425.29999995591425
  endloop
endfacet
facet normal -1.0 0.0 0.0
  outer loop
    vertex 714.5178823127192 1557.4973367640255 421.29999995591425
    vertex 714.5178823127213 1579.8973367640256 425.29999995591425
    vertex 714.5178823127213 1579.8973367640256 421.29999995591425
  endloop
endfacet
facet normal -0.7943146777160501 1.0350071913194278e-15 0.6075065372198456
  outer loop
    vertex 793.0647393073027 1700.6357444566472 527.9999999999999
    vertex 714.5178823127192 1557.4973367640255 425.29999995591425
    vertex 793.0647393073027 1511.0357444566441 527.9999999999999
  endloop
endfacet
facet normal -0.7943146777160501 1.0350071913194278e-15 0.6075065372198456
  outer loop
    vertex 714.5178823127192 1557.4973367640255 425.29999995591425
    vertex 793.0647393073027 1700.6357444566472 527.9999999999999
    vertex 714.5178823127213 1579.8973367640256 425.29999995591425
  endloop
endfacet
facet normal 6.273519853126878e-18 0.9111010315731344 0.41218310283946696
  outer loop
    vertex 603.464739307303 1511.0357444566441 527.9999999999999
    vertex 714.5178823127192 1557.4973367640255 425.29999995591425
    vertex 645.4178823127194 1557.4973367640255 425.29999995591425
  endloop
endfacet
facet normal 6.273519853126878e-18 0.9111010315731344 0.41218310283946696
  outer loop
    vertex 714.5178823127192 1557.4973367640255 425.29999995591425
    vertex 603.464739307303 1511.0357444566441 527.9999999999999
    vertex 793.0647393073027 1511.0357444566441 527.9999999999999
  endloop
endfacet
facet normal 1.3038866622916456e-14 -0.6479133815214281 0.7617140211690138
  outer loop
    vertex 645.4178823127194 1579.8973367640256 425.29999995591425
    vertex 793.0647393073027 1700.6357444566472 527.9999999999999
    vertex 603.464739307303 1700.635744456644 527.9999999999999
  endloop
endfacet
facet normal 1.3038866622916456e-14 -0.6479133815214281 0.7617140211690138
  outer loop
    vertex 793.0647393073027 1700.6357444566472 527.9999999999999
    vertex 645.4178823127194 1579.8973367640256 425.29999995591425
    vertex 714.5178823127213 1579.8973367640256 425.29999995591425
  endloop
endfacet
facet normal 0.9257379301892521 -3.5478064665390074e-17 0.3781656840710427
  outer loop
    vertex 645.4178823127194 1557.4973367640255 425.29999995591425
    vertex 603.464739307303 1700.635744456644 527.9999999999999
    vertex 603.464739307303 1511.0357444566441 527.9999999999999
  endloop
endfacet
facet normal 0.9257379301892521 -3.5478064665390074e-17 0.3781656840710427
  outer loop
    vertex 603.464739307303 1700.635744456644 527.9999999999999
    vertex 645.4178823127194 1557.4973367640255 425.29999995591425
    vertex 645.4178823127194 1579.8973367640256 425.29999995591425
  endloop
endfacet
facet normal 0.13052619222008205 -0.9914448613738064 5.314415701473359e-28
  outer loop
    vertex 797.0647393073033 1510.5669986442508 527.9999999999999
    vertex 796.443676689267 1510.485234199428 526.0000000000003
    vertex 797.0647393073033 1510.5669986442508 526.0000000000003
  endloop
endfacet
facet normal 0.13052619222008205 -0.9914448613738064 5.314415701473359e-28
  outer loop
    vertex 796.443676689267 1510.485234199428 526.0000000000003
    vertex 797.0647393073033 1510.5669986442508 527.9999999999999
    vertex 796.443676689267 1510.485234199428 527.9999999999999
  endloop
endfacet
facet normal 0.38268343236502644 -0.923879532511313 0.0
  outer loop
    vertex 796.443676689267 1510.485234199428 527.9999999999999
    vertex 795.478952869677 1510.0856325094096 526.0000000000003
    vertex 796.443676689267 1510.485234199428 526.0000000000003
  endloop
endfacet
facet normal 0.38268343236502644 -0.923879532511313 0.0
  outer loop
    vertex 795.478952869677 1510.0856325094096 526.0000000000003
    vertex 796.443676689267 1510.485234199428 527.9999999999999
    vertex 795.478952869677 1510.0856325094096 527.9999999999999
  endloop
endfacet
facet normal 0.6087614290088138 -0.7933533402911637 0.0
  outer loop
    vertex 795.478952869677 1510.0856325094096 527.9999999999999
    vertex 794.6505257449309 1509.4499580190177 526.0000000000003
    vertex 795.478952869677 1510.0856325094096 526.0000000000003
  endloop
endfacet
facet normal 0.6087614290088138 -0.7933533402911637 0.0
  outer loop
    vertex 794.6505257449309 1509.4499580190177 526.0000000000003
    vertex 795.478952869677 1510.0856325094096 527.9999999999999
    vertex 794.6505257449309 1509.4499580190177 527.9999999999999
  endloop
endfacet
facet normal 0.7933533402911923 -0.6087614290087766 0.0
  outer loop
    vertex 794.6505257449309 1509.4499580190177 526.0000000000003
    vertex 794.0148512545393 1508.6215308942715 527.9999999999999
    vertex 794.0148512545393 1508.6215308942715 526.0000000000003
  endloop
endfacet
facet normal 0.7933533402911923 -0.6087614290087766 0.0
  outer loop
    vertex 794.0148512545393 1508.6215308942715 527.9999999999999
    vertex 794.6505257449309 1509.4499580190177 526.0000000000003
    vertex 794.6505257449309 1509.4499580190177 527.9999999999999
  endloop
endfacet
facet normal 0.9238795325113376 -0.38268343236496744 0.0
  outer loop
    vertex 794.0148512545393 1508.6215308942715 526.0000000000003
    vertex 793.6152495645214 1507.656807074682 527.9999999999999
    vertex 793.6152495645214 1507.656807074682 526.0000000000003
  endloop
endfacet
facet normal 0.9238795325113376 -0.38268343236496744 0.0
  outer loop
    vertex 793.6152495645214 1507.656807074682 527.9999999999999
    vertex 794.0148512545393 1508.6215308942715 526.0000000000003
    vertex 794.0148512545393 1508.6215308942715 527.9999999999999
  endloop
endfacet
facet normal 0.9914448613737883 -0.13052619222021958 -8.073398984220093e-27
  outer loop
    vertex 793.6152495645214 1507.656807074682 526.0000000000003
    vertex 793.5334851196986 1507.035744456645 527.9999999999999
    vertex 793.5334851196986 1507.035744456645 526.0000000000003
  endloop
endfacet
facet normal 0.9914448613737883 -0.13052619222021958 -8.073398984220093e-27
  outer loop
    vertex 793.5334851196986 1507.035744456645 527.9999999999999
    vertex 793.6152495645214 1507.656807074682 526.0000000000003
    vertex 793.6152495645214 1507.656807074682 527.9999999999999
  endloop
endfacet
facet normal -1.7428427683190495e-15 -1.0 -3.3839597790609886e-14
  outer loop
    vertex 793.5334851196986 1507.035744456645 527.9999999999999
    vertex 602.9959934949122 1507.0357444566455 526.0000000000003
    vertex 793.5334851196986 1507.035744456645 526.0000000000003
  endloop
endfacet
facet normal -1.7428427683190495e-15 -1.0 -3.3839597790609886e-14
  outer loop
    vertex 602.9959934949122 1507.0357444566455 526.0000000000003
    vertex 793.5334851196986 1507.035744456645 527.9999999999999
    vertex 602.9959934949122 1507.0357444566455 527.9999999999999
  endloop
endfacet
facet normal -0.9914448613737987 -0.13052619222014156 5.314415701475781e-28
  outer loop
    vertex 602.9142290500896 1507.6568070746825 527.9999999999999
    vertex 602.9959934949122 1507.0357444566455 526.0000000000003
    vertex 602.9959934949122 1507.0357444566455 527.9999999999999
  endloop
endfacet
facet normal -0.9914448613737987 -0.13052619222014156 5.314415701475781e-28
  outer loop
    vertex 602.9959934949122 1507.0357444566455 526.0000000000003
    vertex 602.9142290500896 1507.6568070746825 527.9999999999999
    vertex 602.9142290500896 1507.6568070746825 526.0000000000003
  endloop
endfacet
facet normal -0.9238795325112267 -0.38268343236523505 0.0
  outer loop
    vertex 602.5146273600714 1508.6215308942724 527.9999999999999
    vertex 602.9142290500896 1507.6568070746825 526.0000000000003
    vertex 602.9142290500896 1507.6568070746825 527.9999999999999
  endloop
endfacet
facet normal -0.9238795325112267 -0.38268343236523505 0.0
  outer loop
    vertex 602.9142290500896 1507.6568070746825 526.0000000000003
    vertex 602.5146273600714 1508.6215308942724 527.9999999999999
    vertex 602.5146273600714 1508.6215308942724 526.0000000000003
  endloop
endfacet
facet normal -0.7933533402913626 -0.6087614290085545 0.0
  outer loop
    vertex 601.8789528696794 1509.4499580190188 527.9999999999999
    vertex 602.5146273600714 1508.6215308942724 526.0000000000003
    vertex 602.5146273600714 1508.6215308942724 527.9999999999999
  endloop
endfacet
facet normal -0.7933533402913626 -0.6087614290085545 0.0
  outer loop
    vertex 602.5146273600714 1508.6215308942724 526.0000000000003
    vertex 601.8789528696794 1509.4499580190188 527.9999999999999
    vertex 601.8789528696794 1509.4499580190188 526.0000000000003
  endloop
endfacet
facet normal -0.6087614290086932 -0.7933533402912564 0.0
  outer loop
    vertex 601.8789528696794 1509.4499580190188 527.9999999999999
    vertex 601.0505257449333 1510.0856325094103 526.0000000000003
    vertex 601.8789528696794 1509.4499580190188 526.0000000000003
  endloop
endfacet
facet normal -0.6087614290086932 -0.7933533402912564 0.0
  outer loop
    vertex 601.0505257449333 1510.0856325094103 526.0000000000003
    vertex 601.8789528696794 1509.4499580190188 527.9999999999999
    vertex 601.0505257449333 1510.0856325094103 527.9999999999999
  endloop
endfacet
facet normal -0.3826834323651276 -0.9238795325112712 0.0
  outer loop
    vertex 601.0505257449333 1510.0856325094103 527.9999999999999
    vertex 600.0858019253433 1510.4852341994288 526.0000000000003
    vertex 601.0505257449333 1510.0856325094103 526.0000000000003
  endloop
endfacet
facet normal -0.3826834323651276 -0.9238795325112712 0.0
  outer loop
    vertex 600.0858019253433 1510.4852341994288 526.0000000000003
    vertex 601.0505257449333 1510.0856325094103 527.9999999999999
    vertex 600.0858019253433 1510.4852341994288 527.9999999999999
  endloop
endfacet
facet normal -0.1305261922199737 -0.9914448613738208 2.9738163518210303e-27
  outer loop
    vertex 600.0858019253433 1510.4852341994288 527.9999999999999
    vertex 599.4647393073066 1510.5669986442515 526.0000000000003
    vertex 600.0858019253433 1510.4852341994288 526.0000000000003
  endloop
endfacet
facet normal -0.1305261922199737 -0.9914448613738208 2.9738163518210303e-27
  outer loop
    vertex 599.4647393073066 1510.5669986442515 526.0000000000003
    vertex 600.0858019253433 1510.4852341994288 527.9999999999999
    vertex 599.4647393073066 1510.5669986442515 527.9999999999999
  endloop
endfacet
facet normal -0.1305261922200372 0.9914448613738123 1.4789412382543998e-18
  outer loop
    vertex 599.4647393073029 1701.1044902690405 527.9999999999999
    vertex 600.08580192534 1701.1862547138633 526.0000000000008
    vertex 599.4647393073029 1701.1044902690405 526.0000000000007
  endloop
endfacet
facet normal -0.1305261922200372 0.9914448613738123 1.4789412382543998e-18
  outer loop
    vertex 600.08580192534 1701.1862547138633 526.0000000000008
    vertex 599.4647393073029 1701.1044902690405 527.9999999999999
    vertex 600.08580192534 1701.1862547138633 528.0
  endloop
endfacet
facet normal -0.38268343236508756 0.9238795325112878 -4.8305752249156926e-14
  outer loop
    vertex 600.08580192534 1701.1862547138633 528.0
    vertex 601.0505257449297 1701.5858564038817 526.0000000000008
    vertex 600.08580192534 1701.1862547138633 526.0000000000008
  endloop
endfacet
facet normal -0.38268343236508756 0.9238795325112878 -4.8305752249156926e-14
  outer loop
    vertex 601.0505257449297 1701.5858564038817 526.0000000000008
    vertex 600.08580192534 1701.1862547138633 528.0
    vertex 601.0505257449297 1701.5858564038817 528.0
  endloop
endfacet
facet normal -0.608761429008676 0.7933533402912695 -4.583791906730528e-14
  outer loop
    vertex 601.0505257449297 1701.5858564038817 526.0000000000008
    vertex 601.8789528696763 1702.221530894273 527.9999999999999
    vertex 601.8789528696763 1702.221530894273 526.0000000000007
  endloop
endfacet
facet normal -0.608761429008676 0.7933533402912695 -4.583791906730528e-14
  outer loop
    vertex 601.8789528696763 1702.221530894273 527.9999999999999
    vertex 601.0505257449297 1701.5858564038817 526.0000000000008
    vertex 601.0505257449297 1701.5858564038817 528.0
  endloop
endfacet
facet normal -0.7933533402912757 0.6087614290086678 -4.024630745175617e-14
  outer loop
    vertex 602.5146273600674 1703.0499580190192 527.9999999999999
    vertex 601.8789528696763 1702.221530894273 526.0000000000007
    vertex 601.8789528696763 1702.221530894273 527.9999999999999
  endloop
endfacet
facet normal -0.7933533402912757 0.6087614290086678 -4.024630745175617e-14
  outer loop
    vertex 601.8789528696763 1702.221530894273 526.0000000000007
    vertex 602.5146273600674 1703.0499580190192 527.9999999999999
    vertex 602.5146273600674 1703.0499580190192 526.0000000000007
  endloop
endfacet
facet normal -0.9238795325112891 0.3826834323650843 -3.1911976493541786e-14
  outer loop
    vertex 602.914229050086 1704.0146818386092 527.9999999999999
    vertex 602.5146273600674 1703.0499580190192 526.0000000000007
    vertex 602.5146273600674 1703.0499580190192 527.9999999999999
  endloop
endfacet
facet normal -0.9238795325112891 0.3826834323650843 -3.1911976493541786e-14
  outer loop
    vertex 602.5146273600674 1703.0499580190192 526.0000000000007
    vertex 602.914229050086 1704.0146818386092 527.9999999999999
    vertex 602.914229050086 1704.0146818386092 526.0000000000007
  endloop
endfacet
facet normal -0.9914448613737933 0.13052619222018233 3.646127769992834e-18
  outer loop
    vertex 602.995993494909 1704.6357444566463 527.9999999999999
    vertex 602.914229050086 1704.0146818386092 526.0000000000007
    vertex 602.914229050086 1704.0146818386092 527.9999999999999
  endloop
endfacet
facet normal -0.9914448613737933 0.13052619222018233 3.646127769992834e-18
  outer loop
    vertex 602.914229050086 1704.0146818386092 526.0000000000007
    vertex 602.995993494909 1704.6357444566463 527.9999999999999
    vertex 602.995993494909 1704.6357444566463 526.0000000000006
  endloop
endfacet
facet normal -1.0911128247751044e-16 1.0 -3.3600994643058277e-15
  outer loop
    vertex 602.995993494909 1704.6357444566463 527.9999999999999
    vertex 793.5334851196968 1704.6357444566463 526.000000000001
    vertex 602.995993494909 1704.6357444566463 526.0000000000006
  endloop
endfacet
facet normal -1.0911128247751044e-16 1.0 -3.3600994643058277e-15
  outer loop
    vertex 793.5334851196968 1704.6357444566463 526.000000000001
    vertex 602.995993494909 1704.6357444566463 527.9999999999999
    vertex 793.5334851196968 1704.6357444566463 527.9999999999999
  endloop
endfacet
facet normal 8.515847768768819e-16 2.3622118593347404e-15 -1.0
  outer loop
    vertex 601.4647393073049 1595.8357444566466 526.0000000000006
    vertex 599.4647393073066 1510.5669986442515 526.0000000000003
    vertex 599.4647393073045 1595.8357444566466 526.0000000000006
  endloop
endfacet
facet normal 8.515847768768819e-16 2.3622118593347404e-15 -1.0
  outer loop
    vertex 599.4647393073066 1510.5669986442515 526.0000000000003
    vertex 601.4647393073049 1595.8357444566466 526.0000000000006
    vertex 600.0858019253433 1510.4852341994288 526.0000000000003
  endloop
endfacet
facet normal 8.515847768768819e-16 2.3622118593347404e-15 -1.0
  outer loop
    vertex 600.0858019253433 1510.4852341994288 526.0000000000003
    vertex 601.4647393073049 1595.8357444566466 526.0000000000006
    vertex 601.0505257449333 1510.0856325094103 526.0000000000003
  endloop
endfacet
facet normal 8.515847768768819e-16 2.3622118593347404e-15 -1.0
  outer loop
    vertex 601.0505257449333 1510.0856325094103 526.0000000000003
    vertex 601.4647393073049 1595.8357444566466 526.0000000000006
    vertex 601.8789528696794 1509.4499580190188 526.0000000000003
  endloop
endfacet
facet normal 8.515847768768819e-16 2.3622118593347404e-15 -1.0
  outer loop
    vertex 601.8789528696794 1509.4499580190188 526.0000000000003
    vertex 601.4647393073049 1595.8357444566466 526.0000000000006
    vertex 601.8789528696763 1702.221530894273 526.0000000000007
  endloop
endfacet
facet normal 8.515847768768819e-16 2.3622118593347404e-15 -1.0
  outer loop
    vertex 601.8789528696794 1509.4499580190188 526.0000000000003
    vertex 601.8789528696763 1702.221530894273 526.0000000000007
    vertex 602.4647393073029 1701.6357444566459 525.9999999999999
  endloop
endfacet
facet normal 8.515847768768819e-16 2.3622118593347404e-15 -1.0
  outer loop
    vertex 602.4647393073029 1701.6357444566459 525.9999999999999
    vertex 601.8789528696763 1702.221530894273 526.0000000000007
    vertex 602.5146273600674 1703.0499580190192 526.0000000000007
  endloop
endfacet
facet normal 8.515847768768819e-16 2.3622118593347404e-15 -1.0
  outer loop
    vertex 602.4647393073029 1701.6357444566459 525.9999999999999
    vertex 602.5146273600674 1703.0499580190192 526.0000000000007
    vertex 794.0647393073049 1701.6357444566459 525.9999999999999
  endloop
endfacet
facet normal 8.515847768768819e-16 2.3622118593347404e-15 -1.0
  outer loop
    vertex 794.0647393073049 1701.6357444566459 525.9999999999999
    vertex 602.5146273600674 1703.0499580190192 526.0000000000007
    vertex 602.914229050086 1704.0146818386092 526.0000000000007
  endloop
endfacet
facet normal 8.515847768768819e-16 2.3622118593347404e-15 -1.0
  outer loop
    vertex 794.0647393073049 1701.6357444566459 525.9999999999999
    vertex 602.914229050086 1704.0146818386092 526.0000000000007
    vertex 602.995993494909 1704.6357444566463 526.0000000000006
  endloop
endfacet
facet normal 8.515847768768819e-16 2.3622118593347404e-15 -1.0
  outer loop
    vertex 794.0647393073049 1701.6357444566459 525.9999999999999
    vertex 602.995993494909 1704.6357444566463 526.0000000000006
    vertex 793.6152495645197 1704.0146818386092 526.000000000001
  endloop
endfacet
facet normal 8.515847768768819e-16 2.3622118593347404e-15 -1.0
  outer loop
    vertex 793.6152495645197 1704.0146818386092 526.000000000001
    vertex 602.995993494909 1704.6357444566463 526.0000000000006
    vertex 793.5334851196968 1704.6357444566463 526.000000000001
  endloop
endfacet
facet normal 8.515847768768819e-16 2.3622118593347404e-15 -1.0
  outer loop
    vertex 794.0647393073049 1701.6357444566459 525.9999999999999
    vertex 793.6152495645197 1704.0146818386092 526.000000000001
    vertex 794.0148512545383 1703.0499580190192 526.000000000001
  endloop
endfacet
facet normal 8.515847768768819e-16 2.3622118593347404e-15 -1.0
  outer loop
    vertex 794.0647393073049 1701.6357444566459 525.9999999999999
    vertex 794.0148512545383 1703.0499580190192 526.000000000001
    vertex 794.6505257449297 1702.221530894273 526.000000000001
  endloop
endfacet
facet normal 8.515847768768819e-16 2.3622118593347404e-15 -1.0
  outer loop
    vertex 600.08580192534 1701.1862547138633 526.0000000000008
    vertex 599.4647393073045 1615.8357444566461 526.0000000000006
    vertex 599.4647393073029 1701.1044902690405 526.0000000000007
  endloop
endfacet
facet normal 8.515847768768819e-16 2.3622118593347404e-15 -1.0
  outer loop
    vertex 599.4647393073045 1615.8357444566461 526.0000000000006
    vertex 600.08580192534 1701.1862547138633 526.0000000000008
    vertex 601.4647393073049 1615.8357444566466 526.0000000000006
  endloop
endfacet
facet normal 8.515847768768819e-16 2.3622118593347404e-15 -1.0
  outer loop
    vertex 601.4647393073049 1615.8357444566466 526.0000000000006
    vertex 600.08580192534 1701.1862547138633 526.0000000000008
    vertex 601.0505257449297 1701.5858564038817 526.0000000000008
  endloop
endfacet
facet normal 8.515847768768819e-16 2.3622118593347404e-15 -1.0
  outer loop
    vertex 601.4647393073049 1615.8357444566466 526.0000000000006
    vertex 601.0505257449297 1701.5858564038817 526.0000000000008
    vertex 601.8789528696763 1702.221530894273 526.0000000000007
  endloop
endfacet
facet normal 8.515847768768819e-16 2.3622118593347404e-15 -1.0
  outer loop
    vertex 601.4647393073049 1615.8357444566466 526.0000000000006
    vertex 601.8789528696763 1702.221530894273 526.0000000000007
    vertex 601.4647393073049 1595.8357444566466 526.0000000000006
  endloop
endfacet
facet normal 8.515847768768819e-16 2.3622118593347404e-15 -1.0
  outer loop
    vertex 601.8789528696794 1509.4499580190188 526.0000000000003
    vertex 602.4647393073029 1510.0357444566453 525.9999999999999
    vertex 602.5146273600714 1508.6215308942724 526.0000000000003
  endloop
endfacet
facet normal 8.515847768768819e-16 2.3622118593347404e-15 -1.0
  outer loop
    vertex 602.4647393073029 1510.0357444566453 525.9999999999999
    vertex 601.8789528696794 1509.4499580190188 526.0000000000003
    vertex 602.4647393073029 1701.6357444566459 525.9999999999999
  endloop
endfacet
facet normal 8.515847768768819e-16 2.3622118593347404e-15 -1.0
  outer loop
    vertex 602.5146273600714 1508.6215308942724 526.0000000000003
    vertex 602.4647393073029 1510.0357444566453 525.9999999999999
    vertex 794.0647393073027 1510.0357444566441 525.9999999999999
  endloop
endfacet
facet normal 8.515847768768819e-16 2.3622118593347404e-15 -1.0
  outer loop
    vertex 602.5146273600714 1508.6215308942724 526.0000000000003
    vertex 794.0647393073027 1510.0357444566441 525.9999999999999
    vertex 602.9142290500896 1507.6568070746825 526.0000000000003
  endloop
endfacet
facet normal 8.515847768768819e-16 2.3622118593347404e-15 -1.0
  outer loop
    vertex 602.9142290500896 1507.6568070746825 526.0000000000003
    vertex 794.0647393073027 1510.0357444566441 525.9999999999999
    vertex 602.9959934949122 1507.0357444566455 526.0000000000003
  endloop
endfacet
facet normal 8.515847768768819e-16 2.3622118593347404e-15 -1.0
  outer loop
    vertex 602.9959934949122 1507.0357444566455 526.0000000000003
    vertex 794.0647393073027 1510.0357444566441 525.9999999999999
    vertex 793.6152495645214 1507.656807074682 526.0000000000003
  endloop
endfacet
facet normal 8.515847768768819e-16 2.3622118593347404e-15 -1.0
  outer loop
    vertex 602.9959934949122 1507.0357444566455 526.0000000000003
    vertex 793.6152495645214 1507.656807074682 526.0000000000003
    vertex 793.5334851196986 1507.035744456645 526.0000000000003
  endloop
endfacet
facet normal 8.515847768768819e-16 2.3622118593347404e-15 -1.0
  outer loop
    vertex 793.6152495645214 1507.656807074682 526.0000000000003
    vertex 794.0647393073027 1510.0357444566441 525.9999999999999
    vertex 794.0148512545393 1508.6215308942715 526.0000000000003
  endloop
endfacet
facet normal 8.515847768768819e-16 2.3622118593347404e-15 -1.0
  outer loop
    vertex 794.0148512545393 1508.6215308942715 526.0000000000003
    vertex 794.0647393073027 1510.0357444566441 525.9999999999999
    vertex 794.6505257449309 1509.4499580190177 526.0000000000003
  endloop
endfacet
facet normal 8.515847768768819e-16 2.3622118593347404e-15 -1.0
  outer loop
    vertex 794.6505257449309 1509.4499580190177 526.0000000000003
    vertex 794.0647393073027 1510.0357444566441 525.9999999999999
    vertex 794.0647393073049 1701.6357444566459 525.9999999999999
  endloop
endfacet
facet normal 8.515847768768819e-16 2.3622118593347404e-15 -1.0
  outer loop
    vertex 794.6505257449309 1509.4499580190177 526.0000000000003
    vertex 794.0647393073049 1701.6357444566459 525.9999999999999
    vertex 794.6505257449297 1702.221530894273 526.000000000001
  endloop
endfacet
facet normal 8.515847768768819e-16 2.3622118593347404e-15 -1.0
  outer loop
    vertex 794.6505257449309 1509.4499580190177 526.0000000000003
    vertex 794.6505257449297 1702.221530894273 526.000000000001
    vertex 795.064739307303 1615.8357444566461 526.0000000000008
  endloop
endfacet
facet normal 8.515847768768819e-16 2.3622118593347404e-15 -1.0
  outer loop
    vertex 795.064739307303 1615.8357444566461 526.0000000000008
    vertex 794.6505257449297 1702.221530894273 526.000000000001
    vertex 795.478952869676 1701.5858564038817 526.000000000001
  endloop
endfacet
facet normal 8.515847768768819e-16 2.3622118593347404e-15 -1.0
  outer loop
    vertex 795.064739307303 1615.8357444566461 526.0000000000008
    vertex 795.478952869676 1701.5858564038817 526.000000000001
    vertex 797.0647393073032 1615.8357444566461 526.0000000000008
  endloop
endfacet
facet normal 8.515847768768819e-16 2.3622118593347404e-15 -1.0
  outer loop
    vertex 797.0647393073032 1615.8357444566461 526.0000000000008
    vertex 795.478952869676 1701.5858564038817 526.000000000001
    vertex 796.443676689266 1701.1862547138633 526.000000000001
  endloop
endfacet
facet normal 8.515847768768819e-16 2.3622118593347404e-15 -1.0
  outer loop
    vertex 797.0647393073032 1615.8357444566461 526.0000000000008
    vertex 796.443676689266 1701.1862547138633 526.000000000001
    vertex 797.0647393073031 1701.1044902690405 526.000000000001
  endloop
endfacet
facet normal 8.515847768768819e-16 2.3622118593347404e-15 -1.0
  outer loop
    vertex 794.6505257449309 1509.4499580190177 526.0000000000003
    vertex 795.064739307303 1595.8357444566461 526.0000000000008
    vertex 795.478952869677 1510.0856325094096 526.0000000000003
  endloop
endfacet
facet normal 8.515847768768819e-16 2.3622118593347404e-15 -1.0
  outer loop
    vertex 795.064739307303 1595.8357444566461 526.0000000000008
    vertex 794.6505257449309 1509.4499580190177 526.0000000000003
    vertex 795.064739307303 1615.8357444566461 526.0000000000008
  endloop
endfacet
facet normal 8.515847768768819e-16 2.3622118593347404e-15 -1.0
  outer loop
    vertex 795.478952869677 1510.0856325094096 526.0000000000003
    vertex 795.064739307303 1595.8357444566461 526.0000000000008
    vertex 797.0647393073032 1595.8357444566457 526.0000000000007
  endloop
endfacet
facet normal 8.515847768768819e-16 2.3622118593347404e-15 -1.0
  outer loop
    vertex 795.478952869677 1510.0856325094096 526.0000000000003
    vertex 797.0647393073032 1595.8357444566457 526.0000000000007
    vertex 796.443676689267 1510.485234199428 526.0000000000003
  endloop
endfacet
facet normal 8.515847768768819e-16 2.3622118593347404e-15 -1.0
  outer loop
    vertex 796.443676689267 1510.485234199428 526.0000000000003
    vertex 797.0647393073032 1595.8357444566457 526.0000000000007
    vertex 797.0647393073033 1510.5669986442508 526.0000000000003
  endloop
endfacet
facet normal 1.0 1.058288433608177e-15 -2.1264907288101832e-30
  outer loop
    vertex 797.0647393073031 1701.1044902690405 526.000000000001
    vertex 797.0647393073032 1615.8357444566461 527.9999999999999
    vertex 797.0647393073032 1615.8357444566461 526.0000000000008
  endloop
endfacet
facet normal 1.0 1.058288433608177e-15 -2.1264907288101832e-30
  outer loop
    vertex 797.0647393073032 1615.8357444566461 527.9999999999999
    vertex 797.0647393073031 1701.1044902690405 526.000000000001
    vertex 797.0647393073031 1701.1044902690405 527.9999999999999
  endloop
endfacet
facet normal 0.9914448613737937 0.1305261922201788 0.0
  outer loop
    vertex 793.5334851196968 1704.6357444566463 526.000000000001
    vertex 793.6152495645197 1704.0146818386092 527.9999999999999
    vertex 793.6152495645197 1704.0146818386092 526.000000000001
  endloop
endfacet
facet normal 0.9914448613737937 0.1305261922201788 0.0
  outer loop
    vertex 793.6152495645197 1704.0146818386092 527.9999999999999
    vertex 793.5334851196968 1704.6357444566463 526.000000000001
    vertex 793.5334851196968 1704.6357444566463 527.9999999999999
  endloop
endfacet
facet normal 0.9238795325112878 0.38268343236508756 0.0
  outer loop
    vertex 793.6152495645197 1704.0146818386092 526.000000000001
    vertex 794.0148512545383 1703.0499580190192 527.9999999999999
    vertex 794.0148512545383 1703.0499580190192 526.000000000001
  endloop
endfacet
facet normal 0.9238795325112878 0.38268343236508756 0.0
  outer loop
    vertex 794.0148512545383 1703.0499580190192 527.9999999999999
    vertex 793.6152495645197 1704.0146818386092 526.000000000001
    vertex 793.6152495645197 1704.0146818386092 527.9999999999999
  endloop
endfacet
facet normal 0.7933533402911956 0.6087614290087721 0.0
  outer loop
    vertex 794.0148512545383 1703.0499580190192 526.000000000001
    vertex 794.6505257449297 1702.221530894273 527.9999999999999
    vertex 794.6505257449297 1702.221530894273 526.000000000001
  endloop
endfacet
facet normal 0.7933533402911956 0.6087614290087721 0.0
  outer loop
    vertex 794.6505257449297 1702.221530894273 527.9999999999999
    vertex 794.0148512545383 1703.0499580190192 526.000000000001
    vertex 794.0148512545383 1703.0499580190192 527.9999999999999
  endloop
endfacet
facet normal 0.6087614290086387 0.793353340291298 0.0
  outer loop
    vertex 794.6505257449297 1702.221530894273 527.9999999999999
    vertex 795.478952869676 1701.5858564038817 526.000000000001
    vertex 794.6505257449297 1702.221530894273 526.000000000001
  endloop
endfacet
facet normal 0.6087614290086387 0.793353340291298 0.0
  outer loop
    vertex 795.478952869676 1701.5858564038817 526.000000000001
    vertex 794.6505257449297 1702.221530894273 527.9999999999999
    vertex 795.478952869676 1701.5858564038817 527.9999999999999
  endloop
endfacet
facet normal 0.3826834323651148 0.9238795325112763 0.0
  outer loop
    vertex 795.478952869676 1701.5858564038817 527.9999999999999
    vertex 796.443676689266 1701.1862547138633 526.000000000001
    vertex 795.478952869676 1701.5858564038817 526.000000000001
  endloop
endfacet
facet normal 0.3826834323651148 0.9238795325112763 0.0
  outer loop
    vertex 796.443676689266 1701.1862547138633 526.000000000001
    vertex 795.478952869676 1701.5858564038817 527.9999999999999
    vertex 796.443676689266 1701.1862547138633 527.9999999999999
  endloop
endfacet
facet normal 0.13052619222004072 0.9914448613738118 0.0
  outer loop
    vertex 796.443676689266 1701.1862547138633 527.9999999999999
    vertex 797.0647393073031 1701.1044902690405 526.000000000001
    vertex 796.443676689266 1701.1862547138633 526.000000000001
  endloop
endfacet
facet normal 0.13052619222004072 0.9914448613738118 0.0
  outer loop
    vertex 797.0647393073031 1701.1044902690405 526.000000000001
    vertex 796.443676689266 1701.1862547138633 527.9999999999999
    vertex 797.0647393073031 1701.1044902690405 527.9999999999999
  endloop
endfacet
facet normal 1.0 1.0582884336081724e-15 2.6111457059408728e-30
  outer loop
    vertex 797.0647393073032 1595.8357444566457 526.0000000000007
    vertex 797.0647393073033 1510.5669986442508 527.9999999999999
    vertex 797.0647393073033 1510.5669986442508 526.0000000000003
  endloop
endfacet
facet normal 1.0 1.0582884336081724e-15 2.6111457059408728e-30
  outer loop
    vertex 797.0647393073033 1510.5669986442508 527.9999999999999
    vertex 797.0647393073032 1595.8357444566457 526.0000000000007
    vertex 797.0647393073032 1595.8357444566457 527.9999999999999
  endloop
endfacet
facet normal -1.0 -1.9049191804947185e-14 -2.987978353974677e-29
  outer loop
    vertex 599.4647393073029 1701.1044902690405 527.9999999999999
    vertex 599.4647393073045 1615.8357444566461 526.0000000000006
    vertex 599.4647393073045 1615.8357444566461 527.9999999999999
  endloop
endfacet
facet normal -1.0 -1.9049191804947185e-14 -2.987978353974677e-29
  outer loop
    vertex 599.4647393073045 1615.8357444566461 526.0000000000006
    vertex 599.4647393073029 1701.1044902690405 527.9999999999999
    vertex 599.4647393073029 1701.1044902690405 526.0000000000007
  endloop
endfacet
facet normal -1.0 -2.116576867216365e-14 9.023892744155163e-14
  outer loop
    vertex 599.4647393073049 1595.8357444566457 527.9999999999999
    vertex 599.4647393073066 1510.5669986442515 526.0000000000003
    vertex 599.4647393073066 1510.5669986442515 527.9999999999999
  endloop
endfacet
facet normal -1.0 -2.116576867216365e-14 9.023892744155163e-14
  outer loop
    vertex 599.4647393073066 1510.5669986442515 526.0000000000003
    vertex 599.4647393073049 1595.8357444566457 527.9999999999999
    vertex 599.4647393073045 1595.8357444566466 526.0000000000006
  endloop
endfacet
facet normal 2.9820790954932704e-30 1.0 5.414335646493683e-13
  outer loop
    vertex 599.4647393073049 1595.8357444566457 527.9999999999999
    vertex 601.4647393073049 1595.8357444566466 526.0000000000006
    vertex 599.4647393073045 1595.8357444566466 526.0000000000006
  endloop
endfacet
facet normal 2.9820790954932704e-30 1.0 5.414335646493683e-13
  outer loop
    vertex 601.4647393073049 1595.8357444566466 526.0000000000006
    vertex 599.4647393073049 1595.8357444566457 527.9999999999999
    vertex 601.4647393073049 1595.8357444566457 527.9999999999999
  endloop
endfacet
facet normal -1.0 -2.7071678232459865e-14 -2.707167823246951e-13
  outer loop
    vertex 601.4647393073038 1615.8357444566461 527.9999999999999
    vertex 601.4647393073049 1595.8357444566466 526.0000000000006
    vertex 601.4647393073049 1595.8357444566457 527.9999999999999
  endloop
endfacet
facet normal -1.0 -2.7071678232459865e-14 -2.707167823246951e-13
  outer loop
    vertex 601.4647393073049 1595.8357444566466 526.0000000000006
    vertex 601.4647393073038 1615.8357444566461 527.9999999999999
    vertex 601.4647393073049 1615.8357444566466 526.0000000000006
  endloop
endfacet
facet normal 1.3535839116234816e-13 -1.0 -1.353583911623054e-13
  outer loop
    vertex 601.4647393073038 1615.8357444566461 527.9999999999999
    vertex 599.4647393073045 1615.8357444566461 526.0000000000006
    vertex 601.4647393073049 1615.8357444566466 526.0000000000006
  endloop
endfacet
facet normal 1.3535839116234816e-13 -1.0 -1.353583911623054e-13
  outer loop
    vertex 599.4647393073045 1615.8357444566461 526.0000000000006
    vertex 601.4647393073038 1615.8357444566461 527.9999999999999
    vertex 599.4647393073045 1615.8357444566461 527.9999999999999
  endloop
endfacet
facet normal 2.8326365862014844e-16 -2.322078054157564e-16 1.0
  outer loop
    vertex 795.478952869677 1510.0856325094096 527.9999999999999
    vertex 795.064739307303 1595.8357444566461 527.9999999999999
    vertex 794.6505257449309 1509.4499580190177 527.9999999999999
  endloop
endfacet
facet normal 2.8326365862014844e-16 -2.322078054157564e-16 1.0
  outer loop
    vertex 795.064739307303 1595.8357444566461 527.9999999999999
    vertex 795.478952869677 1510.0856325094096 527.9999999999999
    vertex 797.0647393073032 1595.8357444566457 527.9999999999999
  endloop
endfacet
facet normal 2.8326365862014844e-16 -2.322078054157564e-16 1.0
  outer loop
    vertex 797.0647393073032 1595.8357444566457 527.9999999999999
    vertex 795.478952869677 1510.0856325094096 527.9999999999999
    vertex 796.443676689267 1510.485234199428 527.9999999999999
  endloop
endfacet
facet normal 2.8326365862014844e-16 -2.322078054157564e-16 1.0
  outer loop
    vertex 797.0647393073032 1595.8357444566457 527.9999999999999
    vertex 796.443676689267 1510.485234199428 527.9999999999999
    vertex 797.0647393073033 1510.5669986442508 527.9999999999999
  endloop
endfacet
facet normal 2.8326365862014844e-16 -2.322078054157564e-16 1.0
  outer loop
    vertex 793.5334851196986 1507.035744456645 527.9999999999999
    vertex 603.464739307303 1511.0357444566441 527.9999999999999
    vertex 602.9959934949122 1507.0357444566455 527.9999999999999
  endloop
endfacet
facet normal 2.8326365862014844e-16 -2.322078054157564e-16 1.0
  outer loop
    vertex 603.464739307303 1511.0357444566441 527.9999999999999
    vertex 793.5334851196986 1507.035744456645 527.9999999999999
    vertex 793.0647393073027 1511.0357444566441 527.9999999999999
  endloop
endfacet
facet normal 2.8326365862014844e-16 -2.322078054157564e-16 1.0
  outer loop
    vertex 793.0647393073027 1511.0357444566441 527.9999999999999
    vertex 793.5334851196986 1507.035744456645 527.9999999999999
    vertex 793.0647393073027 1700.6357444566472 527.9999999999999
  endloop
endfacet
facet normal 2.8326365862014844e-16 -2.322078054157564e-16 1.0
  outer loop
    vertex 793.0647393073027 1700.6357444566472 527.9999999999999
    vertex 793.5334851196986 1507.035744456645 527.9999999999999
    vertex 793.5334851196968 1704.6357444566463 527.9999999999999
  endloop
endfacet
facet normal 2.8326365862014844e-16 -2.322078054157564e-16 1.0
  outer loop
    vertex 793.5334851196968 1704.6357444566463 527.9999999999999
    vertex 793.5334851196986 1507.035744456645 527.9999999999999
    vertex 793.6152495645197 1704.0146818386092 527.9999999999999
  endloop
endfacet
facet normal 2.8326365862014844e-16 -2.322078054157564e-16 1.0
  outer loop
    vertex 793.6152495645197 1704.0146818386092 527.9999999999999
    vertex 793.5334851196986 1507.035744456645 527.9999999999999
    vertex 793.6152495645214 1507.656807074682 527.9999999999999
  endloop
endfacet
facet normal 2.8326365862014844e-16 -2.322078054157564e-16 1.0
  outer loop
    vertex 793.6152495645197 1704.0146818386092 527.9999999999999
    vertex 793.6152495645214 1507.656807074682 527.9999999999999
    vertex 794.0148512545383 1703.0499580190192 527.9999999999999
  endloop
endfacet
facet normal 2.8326365862014844e-16 -2.322078054157564e-16 1.0
  outer loop
    vertex 794.0148512545383 1703.0499580190192 527.9999999999999
    vertex 793.6152495645214 1507.656807074682 527.9999999999999
    vertex 794.0148512545393 1508.6215308942715 527.9999999999999
  endloop
endfacet
facet normal 2.8326365862014844e-16 -2.322078054157564e-16 1.0
  outer loop
    vertex 794.0148512545383 1703.0499580190192 527.9999999999999
    vertex 794.0148512545393 1508.6215308942715 527.9999999999999
    vertex 794.6505257449297 1702.221530894273 527.9999999999999
  endloop
endfacet
facet normal 2.8326365862014844e-16 -2.322078054157564e-16 1.0
  outer loop
    vertex 794.6505257449297 1702.221530894273 527.9999999999999
    vertex 794.0148512545393 1508.6215308942715 527.9999999999999
    vertex 794.6505257449309 1509.4499580190177 527.9999999999999
  endloop
endfacet
facet normal 2.8326365862014844e-16 -2.322078054157564e-16 1.0
  outer loop
    vertex 794.6505257449297 1702.221530894273 527.9999999999999
    vertex 794.6505257449309 1509.4499580190177 527.9999999999999
    vertex 795.064739307303 1615.8357444566461 527.9999999999999
  endloop
endfacet
facet normal 2.8326365862014844e-16 -2.322078054157564e-16 1.0
  outer loop
    vertex 794.6505257449297 1702.221530894273 527.9999999999999
    vertex 795.064739307303 1615.8357444566461 527.9999999999999
    vertex 795.478952869676 1701.5858564038817 527.9999999999999
  endloop
endfacet
facet normal 2.8326365862014844e-16 -2.322078054157564e-16 1.0
  outer loop
    vertex 795.064739307303 1615.8357444566461 527.9999999999999
    vertex 794.6505257449309 1509.4499580190177 527.9999999999999
    vertex 795.064739307303 1595.8357444566461 527.9999999999999
  endloop
endfacet
facet normal 2.8326365862014844e-16 -2.322078054157564e-16 1.0
  outer loop
    vertex 795.478952869676 1701.5858564038817 527.9999999999999
    vertex 795.064739307303 1615.8357444566461 527.9999999999999
    vertex 797.0647393073032 1615.8357444566461 527.9999999999999
  endloop
endfacet
facet normal 2.8326365862014844e-16 -2.322078054157564e-16 1.0
  outer loop
    vertex 795.478952869676 1701.5858564038817 527.9999999999999
    vertex 797.0647393073032 1615.8357444566461 527.9999999999999
    vertex 796.443676689266 1701.1862547138633 527.9999999999999
  endloop
endfacet
facet normal 2.8326365862014844e-16 -2.322078054157564e-16 1.0
  outer loop
    vertex 796.443676689266 1701.1862547138633 527.9999999999999
    vertex 797.0647393073032 1615.8357444566461 527.9999999999999
    vertex 797.0647393073031 1701.1044902690405 527.9999999999999
  endloop
endfacet
facet normal 2.8326365862014844e-16 -2.322078054157564e-16 1.0
  outer loop
    vertex 599.4647393073066 1510.5669986442515 527.9999999999999
    vertex 601.4647393073049 1595.8357444566457 527.9999999999999
    vertex 599.4647393073049 1595.8357444566457 527.9999999999999
  endloop
endfacet
facet normal 2.8326365862014844e-16 -2.322078054157564e-16 1.0
  outer loop
    vertex 601.4647393073049 1595.8357444566457 527.9999999999999
    vertex 599.4647393073066 1510.5669986442515 527.9999999999999
    vertex 600.0858019253433 1510.4852341994288 527.9999999999999
  endloop
endfacet
facet normal 2.8326365862014844e-16 -2.322078054157564e-16 1.0
  outer loop
    vertex 601.4647393073049 1595.8357444566457 527.9999999999999
    vertex 600.0858019253433 1510.4852341994288 527.9999999999999
    vertex 601.0505257449333 1510.0856325094103 527.9999999999999
  endloop
endfacet
facet normal 2.8326365862014844e-16 -2.322078054157564e-16 1.0
  outer loop
    vertex 601.4647393073049 1595.8357444566457 527.9999999999999
    vertex 601.0505257449333 1510.0856325094103 527.9999999999999
    vertex 601.8789528696794 1509.4499580190188 527.9999999999999
  endloop
endfacet
facet normal 2.8326365862014844e-16 -2.322078054157564e-16 1.0
  outer loop
    vertex 601.4647393073049 1595.8357444566457 527.9999999999999
    vertex 601.8789528696794 1509.4499580190188 527.9999999999999
    vertex 601.8789528696763 1702.221530894273 527.9999999999999
  endloop
endfacet
facet normal 2.8326365862014844e-16 -2.322078054157564e-16 1.0
  outer loop
    vertex 601.8789528696763 1702.221530894273 527.9999999999999
    vertex 601.8789528696794 1509.4499580190188 527.9999999999999
    vertex 602.5146273600674 1703.0499580190192 527.9999999999999
  endloop
endfacet
facet normal 2.8326365862014844e-16 -2.322078054157564e-16 1.0
  outer loop
    vertex 602.5146273600674 1703.0499580190192 527.9999999999999
    vertex 601.8789528696794 1509.4499580190188 527.9999999999999
    vertex 602.5146273600714 1508.6215308942724 527.9999999999999
  endloop
endfacet
facet normal 2.8326365862014844e-16 -2.322078054157564e-16 1.0
  outer loop
    vertex 602.5146273600674 1703.0499580190192 527.9999999999999
    vertex 602.5146273600714 1508.6215308942724 527.9999999999999
    vertex 602.914229050086 1704.0146818386092 527.9999999999999
  endloop
endfacet
facet normal 2.8326365862014844e-16 -2.322078054157564e-16 1.0
  outer loop
    vertex 602.914229050086 1704.0146818386092 527.9999999999999
    vertex 602.5146273600714 1508.6215308942724 527.9999999999999
    vertex 602.9142290500896 1507.6568070746825 527.9999999999999
  endloop
endfacet
facet normal 2.8326365862014844e-16 -2.322078054157564e-16 1.0
  outer loop
    vertex 602.914229050086 1704.0146818386092 527.9999999999999
    vertex 602.9142290500896 1507.6568070746825 527.9999999999999
    vertex 602.995993494909 1704.6357444566463 527.9999999999999
  endloop
endfacet
facet normal 2.8326365862014844e-16 -2.322078054157564e-16 1.0
  outer loop
    vertex 602.995993494909 1704.6357444566463 527.9999999999999
    vertex 602.9142290500896 1507.6568070746825 527.9999999999999
    vertex 602.9959934949122 1507.0357444566455 527.9999999999999
  endloop
endfacet
facet normal 2.8326365862014844e-16 -2.322078054157564e-16 1.0
  outer loop
    vertex 602.995993494909 1704.6357444566463 527.9999999999999
    vertex 602.9959934949122 1507.0357444566455 527.9999999999999
    vertex 603.464739307303 1700.635744456644 527.9999999999999
  endloop
endfacet
facet normal 2.8326365862014844e-16 -2.322078054157564e-16 1.0
  outer loop
    vertex 602.995993494909 1704.6357444566463 527.9999999999999
    vertex 603.464739307303 1700.635744456644 527.9999999999999
    vertex 793.5334851196968 1704.6357444566463 527.9999999999999
  endloop
endfacet
facet normal 2.8326365862014844e-16 -2.322078054157564e-16 1.0
  outer loop
    vertex 603.464739307303 1700.635744456644 527.9999999999999
    vertex 602.9959934949122 1507.0357444566455 527.9999999999999
    vertex 603.464739307303 1511.0357444566441 527.9999999999999
  endloop
endfacet
facet normal 2.8326365862014844e-16 -2.322078054157564e-16 1.0
  outer loop
    vertex 793.5334851196968 1704.6357444566463 527.9999999999999
    vertex 603.464739307303 1700.635744456644 527.9999999999999
    vertex 793.0647393073027 1700.6357444566472 527.9999999999999
  endloop
endfacet
facet normal 2.8326365862014844e-16 -2.322078054157564e-16 1.0
  outer loop
    vertex 599.4647393073045 1615.8357444566461 527.9999999999999
    vertex 600.08580192534 1701.1862547138633 528.0
    vertex 599.4647393073029 1701.1044902690405 527.9999999999999
  endloop
endfacet
facet normal 2.8326365862014844e-16 -2.322078054157564e-16 1.0
  outer loop
    vertex 600.08580192534 1701.1862547138633 528.0
    vertex 599.4647393073045 1615.8357444566461 527.9999999999999
    vertex 601.4647393073038 1615.8357444566461 527.9999999999999
  endloop
endfacet
facet normal 2.8326365862014844e-16 -2.322078054157564e-16 1.0
  outer loop
    vertex 600.08580192534 1701.1862547138633 528.0
    vertex 601.4647393073038 1615.8357444566461 527.9999999999999
    vertex 601.0505257449297 1701.5858564038817 528.0
  endloop
endfacet
facet normal 2.8326365862014844e-16 -2.322078054157564e-16 1.0
  outer loop
    vertex 601.0505257449297 1701.5858564038817 528.0
    vertex 601.4647393073038 1615.8357444566461 527.9999999999999
    vertex 601.8789528696763 1702.221530894273 527.9999999999999
  endloop
endfacet
facet normal 2.8326365862014844e-16 -2.322078054157564e-16 1.0
  outer loop
    vertex 601.8789528696763 1702.221530894273 527.9999999999999
    vertex 601.4647393073038 1615.8357444566461 527.9999999999999
    vertex 601.4647393073049 1595.8357444566457 527.9999999999999
  endloop
endfacet
facet normal 0.0 -1.0 0.0
  outer loop
    vertex 797.0647393073032 1615.8357444566461 527.9999999999999
    vertex 795.064739307303 1615.8357444566461 526.0000000000008
    vertex 797.0647393073032 1615.8357444566461 526.0000000000008
  endloop
endfacet
facet normal 0.0 -1.0 0.0
  outer loop
    vertex 795.064739307303 1615.8357444566461 526.0000000000008
    vertex 797.0647393073032 1615.8357444566461 527.9999999999999
    vertex 795.064739307303 1615.8357444566461 527.9999999999999
  endloop
endfacet
facet normal 1.0 0.0 0.0
  outer loop
    vertex 795.064739307303 1615.8357444566461 526.0000000000008
    vertex 795.064739307303 1595.8357444566461 527.9999999999999
    vertex 795.064739307303 1595.8357444566461 526.0000000000008
  endloop
endfacet
facet normal 1.0 0.0 0.0
  outer loop
    vertex 795.064739307303 1595.8357444566461 527.9999999999999
    vertex 795.064739307303 1615.8357444566461 526.0000000000008
    vertex 795.064739307303 1615.8357444566461 527.9999999999999
  endloop
endfacet
facet normal 2.70716782324562e-13 1.0 -3.727598896924059e-31
  outer loop
    vertex 795.064739307303 1595.8357444566461 526.0000000000008
    vertex 797.0647393073032 1595.8357444566457 527.9999999999999
    vertex 797.0647393073032 1595.8357444566457 526.0000000000007
  endloop
endfacet
facet normal 2.70716782324562e-13 1.0 -3.727598896924059e-31
  outer loop
    vertex 797.0647393073032 1595.8357444566457 527.9999999999999
    vertex 795.064739307303 1595.8357444566461 526.0000000000008
    vertex 795.064739307303 1595.8357444566461 527.9999999999999
  endloop
endfacet
endsolid Pet Feeder
