solid Pet Feeder
facet normal 9.103034607907998e-32 -7.57427441659086e-32 -1.0
  outer loop
    vertex 797.0647399186346 1508.5669980329794 525.9999999999999
    vertex 794.0647399185788 1701.6357438453724 525.9999999999999
    vertex 797.0647399185788 1703.1044896577666 525.9999999999999
  endloop
endfacet
facet normal 9.103034607907998e-32 -7.57427441659086e-32 -1.0
  outer loop
    vertex 794.0647399185788 1701.6357438453724 525.9999999999999
    vertex 797.0647399186346 1508.5669980329794 525.9999999999999
    vertex 794.0647399186338 1510.0357438453723 525.9999999999999
  endloop
endfacet
facet normal 9.103034607907998e-32 -7.57427441659086e-32 -1.0
  outer loop
    vertex 794.0647399186338 1510.0357438453723 525.9999999999999
    vertex 797.0647399186346 1508.5669980329794 525.9999999999999
    vertex 599.4647399186335 1508.606486204942 525.9999999999999
  endloop
endfacet
facet normal 9.103034607907998e-32 -7.57427441659086e-32 -1.0
  outer loop
    vertex 599.4647399186335 1508.606486204942 525.9999999999999
    vertex 797.0647399186346 1508.5669980329794 525.9999999999999
    vertex 599.868106891489 1508.5533819355219 525.9999999999999
  endloop
endfacet
facet normal 9.103034607907998e-32 -7.57427441659086e-32 -1.0
  outer loop
    vertex 599.868106891489 1508.5533819355219 525.9999999999999
    vertex 797.0647399186346 1508.5669980329794 525.9999999999999
    vertex 796.9613153908026 1508.5533819355785 525.9999999999999
  endloop
endfacet
facet normal 9.103034607907998e-32 -7.57427441659086e-32 -1.0
  outer loop
    vertex 599.868106891489 1508.5533819355219 525.9999999999999
    vertex 796.9613153908026 1508.5533819355785 525.9999999999999
    vertex 796.4789534810077 1508.3535810905692 525.9999999999999
  endloop
endfacet
facet normal 9.103034607907998e-32 -7.57427441659086e-32 -1.0
  outer loop
    vertex 599.868106891489 1508.5533819355219 525.9999999999999
    vertex 796.4789534810077 1508.3535810905692 525.9999999999999
    vertex 600.350468801284 1508.3535810905128 525.9999999999999
  endloop
endfacet
facet normal 9.103034607907998e-32 -7.57427441659086e-32 -1.0
  outer loop
    vertex 600.350468801284 1508.3535810905128 525.9999999999999
    vertex 796.4789534810077 1508.3535810905692 525.9999999999999
    vertex 796.0647399186345 1508.0357438453727 525.9999999999999
  endloop
endfacet
facet normal 9.103034607907998e-32 -7.57427441659086e-32 -1.0
  outer loop
    vertex 600.350468801284 1508.3535810905128 525.9999999999999
    vertex 796.0647399186345 1508.0357438453727 525.9999999999999
    vertex 600.7646823636571 1508.0357438453166 525.9999999999999
  endloop
endfacet
facet normal 9.103034607907998e-32 -7.57427441659086e-32 -1.0
  outer loop
    vertex 600.7646823636571 1508.0357438453166 525.9999999999999
    vertex 796.0647399186345 1508.0357438453727 525.9999999999999
    vertex 795.7469026734392 1507.6215302829999 525.9999999999999
  endloop
endfacet
facet normal 9.103034607907998e-32 -7.57427441659086e-32 -1.0
  outer loop
    vertex 600.7646823636571 1508.0357438453166 525.9999999999999
    vertex 795.7469026734392 1507.6215302829999 525.9999999999999
    vertex 601.0825196088532 1507.621530282944 525.9999999999999
  endloop
endfacet
facet normal 9.103034607907998e-32 -7.57427441659086e-32 -1.0
  outer loop
    vertex 601.0825196088532 1507.621530282944 525.9999999999999
    vertex 795.7469026734392 1507.6215302829999 525.9999999999999
    vertex 795.5471018284298 1507.1391683732052 525.9999999999999
  endloop
endfacet
facet normal 9.103034607907998e-32 -7.57427441659086e-32 -1.0
  outer loop
    vertex 601.0825196088532 1507.621530282944 525.9999999999999
    vertex 795.5471018284298 1507.1391683732052 525.9999999999999
    vertex 601.2823204538627 1507.1391683731488 525.9999999999999
  endloop
endfacet
facet normal 9.103034607907998e-32 -7.57427441659086e-32 -1.0
  outer loop
    vertex 601.2823204538627 1507.1391683731488 525.9999999999999
    vertex 795.5471018284298 1507.1391683732052 525.9999999999999
    vertex 795.5334857310289 1507.035743845373 525.9999999999999
  endloop
endfacet
facet normal 9.103034607907998e-32 -7.57427441659086e-32 -1.0
  outer loop
    vertex 601.2823204538627 1507.1391683731488 525.9999999999999
    vertex 795.5334857310289 1507.035743845373 525.9999999999999
    vertex 601.2959365512635 1507.0357438453168 525.9999999999999
  endloop
endfacet
facet normal 9.103034607907998e-32 -7.57427441659086e-32 -1.0
  outer loop
    vertex 795.5471018283735 1704.532319317541 525.9999999999999
    vertex 600.9959941061833 1704.6357438453163 525.9999999999999
    vertex 795.5334857309725 1704.6357438453729 525.9999999999999
  endloop
endfacet
facet normal 9.103034607907998e-32 -7.57427441659086e-32 -1.0
  outer loop
    vertex 600.9959941061833 1704.6357438453163 525.9999999999999
    vertex 795.5471018283735 1704.532319317541 525.9999999999999
    vertex 600.9823780087822 1704.5323193174843 525.9999999999999
  endloop
endfacet
facet normal 9.103034607907998e-32 -7.57427441659086e-32 -1.0
  outer loop
    vertex 600.9823780087822 1704.5323193174843 525.9999999999999
    vertex 795.5471018283735 1704.532319317541 525.9999999999999
    vertex 795.7469026733827 1704.049957407745 525.9999999999999
  endloop
endfacet
facet normal 9.103034607907998e-32 -7.57427441659086e-32 -1.0
  outer loop
    vertex 600.9823780087822 1704.5323193174843 525.9999999999999
    vertex 795.7469026733827 1704.049957407745 525.9999999999999
    vertex 600.7825771637735 1704.0499574076898 525.9999999999999
  endloop
endfacet
facet normal 9.103034607907998e-32 -7.57427441659086e-32 -1.0
  outer loop
    vertex 600.7825771637735 1704.0499574076898 525.9999999999999
    vertex 795.7469026733827 1704.049957407745 525.9999999999999
    vertex 600.4647399185776 1703.6357438453172 525.9999999999999
  endloop
endfacet
facet normal 9.103034607907998e-32 -7.57427441659086e-32 -1.0
  outer loop
    vertex 600.4647399185776 1703.6357438453172 525.9999999999999
    vertex 795.7469026733827 1704.049957407745 525.9999999999999
    vertex 796.0647399185784 1703.6357438453736 525.9999999999999
  endloop
endfacet
facet normal 9.103034607907998e-32 -7.57427441659086e-32 -1.0
  outer loop
    vertex 600.4647399185776 1703.6357438453172 525.9999999999999
    vertex 796.0647399185784 1703.6357438453736 525.9999999999999
    vertex 796.4789534809514 1703.3179066001778 525.9999999999999
  endloop
endfacet
facet normal 9.103034607907998e-32 -7.57427441659086e-32 -1.0
  outer loop
    vertex 600.4647399185776 1703.6357438453172 525.9999999999999
    vertex 796.4789534809514 1703.3179066001778 525.9999999999999
    vertex 600.0505263562045 1703.3179066001212 525.9999999999999
  endloop
endfacet
facet normal 9.103034607907998e-32 -7.57427441659086e-32 -1.0
  outer loop
    vertex 600.0505263562045 1703.3179066001212 525.9999999999999
    vertex 796.4789534809514 1703.3179066001778 525.9999999999999
    vertex 796.9613153907468 1703.1181057551673 525.9999999999999
  endloop
endfacet
facet normal 9.103034607907998e-32 -7.57427441659086e-32 -1.0
  outer loop
    vertex 600.0505263562045 1703.3179066001212 525.9999999999999
    vertex 796.9613153907468 1703.1181057551673 525.9999999999999
    vertex 599.5681644464096 1703.1181057551114 525.9999999999999
  endloop
endfacet
facet normal 9.103034607907998e-32 -7.57427441659086e-32 -1.0
  outer loop
    vertex 599.5681644464096 1703.1181057551114 525.9999999999999
    vertex 796.9613153907468 1703.1181057551673 525.9999999999999
    vertex 599.4647399185778 1703.1044896577102 525.9999999999999
  endloop
endfacet
facet normal 9.103034607907998e-32 -7.57427441659086e-32 -1.0
  outer loop
    vertex 599.4647399185778 1703.1044896577102 525.9999999999999
    vertex 796.9613153907468 1703.1181057551673 525.9999999999999
    vertex 797.0647399185788 1703.1044896577666 525.9999999999999
  endloop
endfacet
facet normal 9.103034607907998e-32 -7.57427441659086e-32 -1.0
  outer loop
    vertex 599.4647399185778 1703.1044896577102 525.9999999999999
    vertex 797.0647399185788 1703.1044896577666 525.9999999999999
    vertex 602.4647399185781 1701.6357438453176 525.9999999999999
  endloop
endfacet
facet normal 9.103034607907998e-32 -7.57427441659086e-32 -1.0
  outer loop
    vertex 599.4647399185778 1703.1044896577102 525.9999999999999
    vertex 602.4647399185781 1701.6357438453176 525.9999999999999
    vertex 599.4647399186335 1508.606486204942 525.9999999999999
  endloop
endfacet
facet normal 9.103034607907998e-32 -7.57427441659086e-32 -1.0
  outer loop
    vertex 602.4647399185781 1701.6357438453176 525.9999999999999
    vertex 797.0647399185788 1703.1044896577666 525.9999999999999
    vertex 794.0647399185788 1701.6357438453724 525.9999999999999
  endloop
endfacet
facet normal 9.103034607907998e-32 -7.57427441659086e-32 -1.0
  outer loop
    vertex 599.4647399186335 1508.606486204942 525.9999999999999
    vertex 602.4647399185781 1701.6357438453176 525.9999999999999
    vertex 602.464739918633 1510.0357438453177 525.9999999999999
  endloop
endfacet
facet normal 9.103034607907998e-32 -7.57427441659086e-32 -1.0
  outer loop
    vertex 599.4647399186335 1508.606486204942 525.9999999999999
    vertex 602.464739918633 1510.0357438453177 525.9999999999999
    vertex 794.0647399186338 1510.0357438453723 525.9999999999999
  endloop
endfacet
facet normal 2.874020466059335e-13 -1.0 0.0
  outer loop
    vertex 672.3263322259706 1658.682600839921 421.29999995591436
    vertex 649.9263322259707 1658.6826008399146 425.2999999559143
    vertex 649.9263322259707 1658.6826008399146 421.29999995591436
  endloop
endfacet
facet normal 2.874020466059335e-13 -1.0 0.0
  outer loop
    vertex 649.9263322259707 1658.6826008399146 425.2999999559143
    vertex 672.3263322259706 1658.682600839921 421.29999995591436
    vertex 672.3263322259706 1658.682600839921 425.2999999559143
  endloop
endfacet
facet normal 1.0 2.874020466059335e-13 0.0
  outer loop
    vertex 649.9263322259707 1658.6826008399146 425.2999999559143
    vertex 649.9263322259906 1589.582600839915 421.29999995591436
    vertex 649.9263322259707 1658.6826008399146 421.29999995591436
  endloop
endfacet
facet normal 1.0 2.874020466059335e-13 0.0
  outer loop
    vertex 649.9263322259906 1589.582600839915 421.29999995591436
    vertex 649.9263322259707 1658.6826008399146 425.2999999559143
    vertex 649.9263322259906 1589.582600839915 425.2999999559143
  endloop
endfacet
facet normal -1.0 -2.874020466059335e-13 0.0
  outer loop
    vertex 672.3263322259907 1589.5826008399208 425.2999999559143
    vertex 672.3263322259706 1658.682600839921 421.29999995591436
    vertex 672.3263322259907 1589.5826008399208 421.29999995591436
  endloop
endfacet
facet normal -1.0 -2.874020466059335e-13 0.0
  outer loop
    vertex 672.3263322259706 1658.682600839921 421.29999995591436
    vertex 672.3263322259907 1589.5826008399208 425.2999999559143
    vertex 672.3263322259706 1658.682600839921 425.2999999559143
  endloop
endfacet
facet normal -0.9107897759792454 -2.617746920029642e-13 -0.4128704203157164
  outer loop
    vertex 602.464739918633 1510.0357438453177 525.9999999999999
    vertex 649.9263322259707 1658.6826008399146 421.29999995591436
    vertex 649.9263322259906 1589.582600839915 421.29999995591436
  endloop
endfacet
facet normal -0.9107897759792454 -2.617746920029642e-13 -0.4128704203157164
  outer loop
    vertex 649.9263322259707 1658.6826008399146 421.29999995591436
    vertex 602.464739918633 1510.0357438453177 525.9999999999999
    vertex 602.4647399185781 1701.6357438453176 525.9999999999999
  endloop
endfacet
facet normal -2.659093966398415e-13 0.9251708002380429 -0.3795510379209881
  outer loop
    vertex 794.0647399185788 1701.6357438453724 525.9999999999999
    vertex 649.9263322259707 1658.6826008399146 421.29999995591436
    vertex 602.4647399185781 1701.6357438453176 525.9999999999999
  endloop
endfacet
facet normal -2.659093966398415e-13 0.9251708002380429 -0.3795510379209881
  outer loop
    vertex 649.9263322259707 1658.6826008399146 421.29999995591436
    vertex 794.0647399185788 1701.6357438453724 525.9999999999999
    vertex 672.3263322259706 1658.682600839921 421.29999995591436
  endloop
endfacet
facet normal 2.288451159709441e-13 -0.7962543018516539 -0.6049620540023442
  outer loop
    vertex 649.9263322259906 1589.582600839915 421.29999995591436
    vertex 794.0647399186338 1510.0357438453723 525.9999999999999
    vertex 602.464739918633 1510.0357438453177 525.9999999999999
  endloop
endfacet
facet normal 2.288451159709441e-13 -0.7962543018516539 -0.6049620540023442
  outer loop
    vertex 794.0647399186338 1510.0357438453723 525.9999999999999
    vertex 649.9263322259906 1589.582600839915 421.29999995591436
    vertex 672.3263322259907 1589.5826008399208 421.29999995591436
  endloop
endfacet
facet normal 0.6520570594683354 1.8740253339504648e-13 -0.7581698959979272
  outer loop
    vertex 794.0647399186338 1510.0357438453723 525.9999999999999
    vertex 672.3263322259706 1658.682600839921 421.29999995591436
    vertex 794.0647399185788 1701.6357438453724 525.9999999999999
  endloop
endfacet
facet normal 0.6520570594683354 1.8740253339504648e-13 -0.7581698959979272
  outer loop
    vertex 672.3263322259706 1658.682600839921 421.29999995591436
    vertex 794.0647399186338 1510.0357438453723 525.9999999999999
    vertex 672.3263322259907 1589.5826008399208 421.29999995591436
  endloop
endfacet
facet normal -2.874020466059335e-13 1.0 0.0
  outer loop
    vertex 672.3263322259907 1589.5826008399208 425.2999999559143
    vertex 649.9263322259906 1589.582600839915 421.29999995591436
    vertex 649.9263322259906 1589.582600839915 425.2999999559143
  endloop
endfacet
facet normal -2.874020466059335e-13 1.0 0.0
  outer loop
    vertex 649.9263322259906 1589.582600839915 421.29999995591436
    vertex 672.3263322259907 1589.5826008399208 425.2999999559143
    vertex 672.3263322259907 1589.5826008399208 421.29999995591436
  endloop
endfacet
facet normal -2.874020466059335e-13 1.0 0.0
  outer loop
    vertex 795.5334857309725 1704.6357438453729 527.9999999999999
    vertex 600.9959941061833 1704.6357438453163 525.9999999999999
    vertex 600.9959941061833 1704.6357438453163 527.9999999999999
  endloop
endfacet
facet normal -2.874020466059335e-13 1.0 0.0
  outer loop
    vertex 600.9959941061833 1704.6357438453163 525.9999999999999
    vertex 795.5334857309725 1704.6357438453729 527.9999999999999
    vertex 795.5334857309725 1704.6357438453729 525.9999999999999
  endloop
endfacet
facet normal 2.874020466059335e-13 -1.0 0.0
  outer loop
    vertex 795.5334857310289 1507.035743845373 525.9999999999999
    vertex 601.2959365512635 1507.0357438453168 527.9999999999999
    vertex 601.2959365512635 1507.0357438453168 525.9999999999999
  endloop
endfacet
facet normal 2.874020466059335e-13 -1.0 0.0
  outer loop
    vertex 601.2959365512635 1507.0357438453168 527.9999999999999
    vertex 795.5334857310289 1507.035743845373 525.9999999999999
    vertex 795.5334857310289 1507.035743845373 527.9999999999999
  endloop
endfacet
facet normal -1.0 -2.874020466059335e-13 0.0
  outer loop
    vertex 599.4647399186335 1508.606486204942 527.9999999999999
    vertex 599.4647399185778 1703.1044896577102 525.9999999999999
    vertex 599.4647399186335 1508.606486204942 525.9999999999999
  endloop
endfacet
facet normal -1.0 -2.874020466059335e-13 0.0
  outer loop
    vertex 599.4647399185778 1703.1044896577102 525.9999999999999
    vertex 599.4647399186335 1508.606486204942 527.9999999999999
    vertex 599.4647399185778 1703.1044896577102 527.9999999999999
  endloop
endfacet
facet normal 1.0 2.874020466059335e-13 0.0
  outer loop
    vertex 797.0647399185788 1703.1044896577666 527.9999999999999
    vertex 797.0647399186346 1508.5669980329794 525.9999999999999
    vertex 797.0647399185788 1703.1044896577666 525.9999999999999
  endloop
endfacet
facet normal 1.0 2.874020466059335e-13 0.0
  outer loop
    vertex 797.0647399186346 1508.5669980329794 525.9999999999999
    vertex 797.0647399185788 1703.1044896577666 527.9999999999999
    vertex 797.0647399186346 1508.5669980329794 527.9999999999999
  endloop
endfacet
facet normal -2.283121062184691e-13 0.7943146777160458 0.6075065372198514
  outer loop
    vertex 793.0647399186357 1511.0357438453725 527.9999999999999
    vertex 649.9263322259906 1589.582600839915 425.2999999559143
    vertex 603.4647399186326 1511.035743845318 527.9999999999999
  endloop
endfacet
facet normal -2.283121062184691e-13 0.7943146777160458 0.6075065372198514
  outer loop
    vertex 649.9263322259906 1589.582600839915 425.2999999559143
    vertex 793.0647399186357 1511.0357438453725 527.9999999999999
    vertex 672.3263322259907 1589.5826008399208 425.2999999559143
  endloop
endfacet
facet normal 0.9111010315731344 2.618460276190429e-13 0.41218310283946696
  outer loop
    vertex 603.4647399185782 1700.6357438453174 527.9999999999999
    vertex 649.9263322259906 1589.582600839915 425.2999999559143
    vertex 649.9263322259707 1658.6826008399146 425.2999999559143
  endloop
endfacet
facet normal 0.9111010315731344 2.618460276190429e-13 0.41218310283946696
  outer loop
    vertex 649.9263322259906 1589.582600839915 425.2999999559143
    vertex 603.4647399185782 1700.6357438453174 527.9999999999999
    vertex 603.4647399186326 1511.035743845318 527.9999999999999
  endloop
endfacet
facet normal -0.6479133815214281 -1.9925049849554567e-13 0.7617140211690138
  outer loop
    vertex 672.3263322259706 1658.682600839921 425.2999999559143
    vertex 793.0647399186357 1511.0357438453725 527.9999999999999
    vertex 793.0647399185772 1700.635743845372 527.9999999999999
  endloop
endfacet
facet normal -0.6479133815214281 -1.9925049849554567e-13 0.7617140211690138
  outer loop
    vertex 793.0647399186357 1511.0357438453725 527.9999999999999
    vertex 672.3263322259706 1658.682600839921 425.2999999559143
    vertex 672.3263322259907 1589.5826008399208 425.2999999559143
  endloop
endfacet
facet normal 2.6605897575713173e-13 -0.9257379301892518 0.37816568407104356
  outer loop
    vertex 649.9263322259707 1658.6826008399146 425.2999999559143
    vertex 793.0647399185772 1700.635743845372 527.9999999999999
    vertex 603.4647399185782 1700.6357438453174 527.9999999999999
  endloop
endfacet
facet normal 2.6605897575713173e-13 -0.9257379301892518 0.37816568407104356
  outer loop
    vertex 793.0647399185772 1700.635743845372 527.9999999999999
    vertex 649.9263322259707 1658.6826008399146 425.2999999559143
    vertex 672.3263322259706 1658.682600839921 425.2999999559143
  endloop
endfacet
facet normal 0.9914448613736248 0.13052619222146208 0.0
  outer loop
    vertex 795.5334857309725 1704.6357438453729 527.9999999999999
    vertex 795.5471018283735 1704.532319317541 525.9999999999999
    vertex 795.5334857309725 1704.6357438453729 525.9999999999999
  endloop
endfacet
facet normal 0.9914448613736248 0.13052619222146208 0.0
  outer loop
    vertex 795.5471018283735 1704.532319317541 525.9999999999999
    vertex 795.5334857309725 1704.6357438453729 527.9999999999999
    vertex 795.5471018283735 1704.532319317541 527.9999999999999
  endloop
endfacet
facet normal 0.9238795325112763 0.3826834323651148 0.0
  outer loop
    vertex 795.5471018283735 1704.532319317541 527.9999999999999
    vertex 795.7469026733827 1704.049957407745 525.9999999999999
    vertex 795.5471018283735 1704.532319317541 525.9999999999999
  endloop
endfacet
facet normal 0.9238795325112763 0.3826834323651148 0.0
  outer loop
    vertex 795.7469026733827 1704.049957407745 525.9999999999999
    vertex 795.5471018283735 1704.532319317541 527.9999999999999
    vertex 795.7469026733827 1704.049957407745 527.9999999999999
  endloop
endfacet
facet normal 0.7933533402912116 0.6087614290087513 0.0
  outer loop
    vertex 795.7469026733827 1704.049957407745 527.9999999999999
    vertex 796.0647399185784 1703.6357438453736 525.9999999999999
    vertex 795.7469026733827 1704.049957407745 525.9999999999999
  endloop
endfacet
facet normal 0.7933533402912116 0.6087614290087513 0.0
  outer loop
    vertex 796.0647399185784 1703.6357438453736 525.9999999999999
    vertex 795.7469026733827 1704.049957407745 527.9999999999999
    vertex 796.0647399185784 1703.6357438453736 527.9999999999999
  endloop
endfacet
facet normal 0.6087614290085128 0.7933533402913946 0.0
  outer loop
    vertex 796.4789534809514 1703.3179066001778 527.9999999999999
    vertex 796.0647399185784 1703.6357438453736 525.9999999999999
    vertex 796.0647399185784 1703.6357438453736 527.9999999999999
  endloop
endfacet
facet normal 0.6087614290085128 0.7933533402913946 0.0
  outer loop
    vertex 796.0647399185784 1703.6357438453736 525.9999999999999
    vertex 796.4789534809514 1703.3179066001778 527.9999999999999
    vertex 796.4789534809514 1703.3179066001778 525.9999999999999
  endloop
endfacet
facet normal 0.38268343236481783 0.9238795325113995 0.0
  outer loop
    vertex 796.9613153907468 1703.1181057551673 527.9999999999999
    vertex 796.4789534809514 1703.3179066001778 525.9999999999999
    vertex 796.4789534809514 1703.3179066001778 527.9999999999999
  endloop
endfacet
facet normal 0.38268343236481783 0.9238795325113995 0.0
  outer loop
    vertex 796.4789534809514 1703.3179066001778 525.9999999999999
    vertex 796.9613153907468 1703.1181057551673 527.9999999999999
    vertex 796.9613153907468 1703.1181057551673 525.9999999999999
  endloop
endfacet
facet normal 0.13052619222004191 0.9914448613738118 0.0
  outer loop
    vertex 797.0647399185788 1703.1044896577666 527.9999999999999
    vertex 796.9613153907468 1703.1181057551673 525.9999999999999
    vertex 796.9613153907468 1703.1181057551673 527.9999999999999
  endloop
endfacet
facet normal 0.13052619222004191 0.9914448613738118 0.0
  outer loop
    vertex 796.9613153907468 1703.1181057551673 525.9999999999999
    vertex 797.0647399185788 1703.1044896577666 527.9999999999999
    vertex 797.0647399185788 1703.1044896577666 525.9999999999999
  endloop
endfacet
facet normal 0.1305261922206118 -0.9914448613737368 2.8531552198009917e-19
  outer loop
    vertex 797.0647399186346 1508.5669980329794 525.9999999999999
    vertex 796.9613153908026 1508.5533819355785 527.9999999999999
    vertex 796.9613153908026 1508.5533819355785 525.9999999999999
  endloop
endfacet
facet normal 0.1305261922206118 -0.9914448613737368 2.8531552198009917e-19
  outer loop
    vertex 796.9613153908026 1508.5533819355785 527.9999999999999
    vertex 797.0647399186346 1508.5669980329794 525.9999999999999
    vertex 797.0647399186346 1508.5669980329794 527.9999999999999
  endloop
endfacet
facet normal 0.38268343236534885 -0.9238795325111795 0.0
  outer loop
    vertex 796.9613153908026 1508.5533819355785 525.9999999999999
    vertex 796.4789534810077 1508.3535810905692 527.9999999999999
    vertex 796.4789534810077 1508.3535810905692 525.9999999999999
  endloop
endfacet
facet normal 0.38268343236534885 -0.9238795325111795 0.0
  outer loop
    vertex 796.4789534810077 1508.3535810905692 527.9999999999999
    vertex 796.9613153908026 1508.5533819355785 525.9999999999999
    vertex 796.9613153908026 1508.5533819355785 527.9999999999999
  endloop
endfacet
facet normal 0.6087614290089689 -0.7933533402910447 0.0
  outer loop
    vertex 796.4789534810077 1508.3535810905692 525.9999999999999
    vertex 796.0647399186345 1508.0357438453727 527.9999999999999
    vertex 796.0647399186345 1508.0357438453727 525.9999999999999
  endloop
endfacet
facet normal 0.6087614290089689 -0.7933533402910447 0.0
  outer loop
    vertex 796.0647399186345 1508.0357438453727 527.9999999999999
    vertex 796.4789534810077 1508.3535810905692 525.9999999999999
    vertex 796.4789534810077 1508.3535810905692 527.9999999999999
  endloop
endfacet
facet normal 0.7933533402916256 -0.6087614290082117 0.0
  outer loop
    vertex 796.0647399186345 1508.0357438453727 527.9999999999999
    vertex 795.7469026734392 1507.6215302829999 525.9999999999999
    vertex 796.0647399186345 1508.0357438453727 525.9999999999999
  endloop
endfacet
facet normal 0.7933533402916256 -0.6087614290082117 0.0
  outer loop
    vertex 795.7469026734392 1507.6215302829999 525.9999999999999
    vertex 796.0647399186345 1508.0357438453727 527.9999999999999
    vertex 795.7469026734392 1507.6215302829999 527.9999999999999
  endloop
endfacet
facet normal 0.9238795325112267 -0.38268343236523505 0.0
  outer loop
    vertex 795.7469026734392 1507.6215302829999 527.9999999999999
    vertex 795.5471018284298 1507.1391683732052 525.9999999999999
    vertex 795.7469026734392 1507.6215302829999 525.9999999999999
  endloop
endfacet
facet normal 0.9238795325112267 -0.38268343236523505 0.0
  outer loop
    vertex 795.5471018284298 1507.1391683732052 525.9999999999999
    vertex 795.7469026734392 1507.6215302829999 527.9999999999999
    vertex 795.5471018284298 1507.1391683732052 527.9999999999999
  endloop
endfacet
facet normal 0.9914448613736998 -0.1305261922208922 0.0
  outer loop
    vertex 795.5471018284298 1507.1391683732052 527.9999999999999
    vertex 795.5334857310289 1507.035743845373 525.9999999999999
    vertex 795.5471018284298 1507.1391683732052 525.9999999999999
  endloop
endfacet
facet normal 0.9914448613736998 -0.1305261922208922 0.0
  outer loop
    vertex 795.5334857310289 1507.035743845373 525.9999999999999
    vertex 795.5471018284298 1507.1391683732052 527.9999999999999
    vertex 795.5334857310289 1507.035743845373 527.9999999999999
  endloop
endfacet
facet normal -0.9914448613738339 -0.1305261922198734 0.0
  outer loop
    vertex 601.2959365512635 1507.0357438453168 527.9999999999999
    vertex 601.2823204538627 1507.1391683731488 525.9999999999999
    vertex 601.2959365512635 1507.0357438453168 525.9999999999999
  endloop
endfacet
facet normal -0.9914448613738339 -0.1305261922198734 0.0
  outer loop
    vertex 601.2823204538627 1507.1391683731488 525.9999999999999
    vertex 601.2959365512635 1507.0357438453168 527.9999999999999
    vertex 601.2823204538627 1507.1391683731488 527.9999999999999
  endloop
endfacet
facet normal -0.9238795325111542 -0.3826834323654099 0.0
  outer loop
    vertex 601.2823204538627 1507.1391683731488 527.9999999999999
    vertex 601.0825196088532 1507.621530282944 525.9999999999999
    vertex 601.2823204538627 1507.1391683731488 525.9999999999999
  endloop
endfacet
facet normal -0.9238795325111542 -0.3826834323654099 0.0
  outer loop
    vertex 601.0825196088532 1507.621530282944 525.9999999999999
    vertex 601.2823204538627 1507.1391683731488 527.9999999999999
    vertex 601.0825196088532 1507.621530282944 527.9999999999999
  endloop
endfacet
facet normal -0.7933533402911087 -0.6087614290088854 0.0
  outer loop
    vertex 601.0825196088532 1507.621530282944 527.9999999999999
    vertex 600.7646823636571 1508.0357438453166 525.9999999999999
    vertex 601.0825196088532 1507.621530282944 525.9999999999999
  endloop
endfacet
facet normal -0.7933533402911087 -0.6087614290088854 0.0
  outer loop
    vertex 600.7646823636571 1508.0357438453166 525.9999999999999
    vertex 601.0825196088532 1507.621530282944 527.9999999999999
    vertex 600.7646823636571 1508.0357438453166 527.9999999999999
  endloop
endfacet
facet normal -0.6087614290083458 -0.7933533402915227 0.0
  outer loop
    vertex 600.7646823636571 1508.0357438453166 525.9999999999999
    vertex 600.350468801284 1508.3535810905128 527.9999999999999
    vertex 600.350468801284 1508.3535810905128 525.9999999999999
  endloop
endfacet
facet normal -0.6087614290083458 -0.7933533402915227 0.0
  outer loop
    vertex 600.350468801284 1508.3535810905128 527.9999999999999
    vertex 600.7646823636571 1508.0357438453166 525.9999999999999
    vertex 600.7646823636571 1508.0357438453166 527.9999999999999
  endloop
endfacet
facet normal -0.38268343236493996 -0.9238795325113488 0.0
  outer loop
    vertex 600.350468801284 1508.3535810905128 525.9999999999999
    vertex 599.868106891489 1508.5533819355219 527.9999999999999
    vertex 599.868106891489 1508.5533819355219 525.9999999999999
  endloop
endfacet
facet normal -0.38268343236493996 -0.9238795325113488 0.0
  outer loop
    vertex 599.868106891489 1508.5533819355219 527.9999999999999
    vertex 600.350468801284 1508.3535810905128 525.9999999999999
    vertex 600.350468801284 1508.3535810905128 527.9999999999999
  endloop
endfacet
facet normal -0.13052619221975176 -0.99144486137385 0.0
  outer loop
    vertex 599.868106891489 1508.5533819355219 525.9999999999999
    vertex 599.4647399186335 1508.606486204942 527.9999999999999
    vertex 599.4647399186335 1508.606486204942 525.9999999999999
  endloop
endfacet
facet normal -0.13052619221975176 -0.99144486137385 0.0
  outer loop
    vertex 599.4647399186335 1508.606486204942 527.9999999999999
    vertex 599.868106891489 1508.5533819355219 525.9999999999999
    vertex 599.868106891489 1508.5533819355219 527.9999999999999
  endloop
endfacet
facet normal 9.111190176870887e-32 4.554351332718352e-32 1.0
  outer loop
    vertex 600.9959941061833 1704.6357438453163 527.9999999999999
    vertex 795.5471018283735 1704.532319317541 527.9999999999999
    vertex 795.5334857309725 1704.6357438453729 527.9999999999999
  endloop
endfacet
facet normal 9.111190176870887e-32 4.554351332718352e-32 1.0
  outer loop
    vertex 795.5471018283735 1704.532319317541 527.9999999999999
    vertex 600.9959941061833 1704.6357438453163 527.9999999999999
    vertex 600.9823780087822 1704.5323193174843 527.9999999999999
  endloop
endfacet
facet normal 9.111190176870887e-32 4.554351332718352e-32 1.0
  outer loop
    vertex 795.5471018283735 1704.532319317541 527.9999999999999
    vertex 600.9823780087822 1704.5323193174843 527.9999999999999
    vertex 795.7469026733827 1704.049957407745 527.9999999999999
  endloop
endfacet
facet normal 9.111190176870887e-32 4.554351332718352e-32 1.0
  outer loop
    vertex 795.7469026733827 1704.049957407745 527.9999999999999
    vertex 600.9823780087822 1704.5323193174843 527.9999999999999
    vertex 600.7825771637735 1704.0499574076898 527.9999999999999
  endloop
endfacet
facet normal 9.111190176870887e-32 4.554351332718352e-32 1.0
  outer loop
    vertex 795.7469026733827 1704.049957407745 527.9999999999999
    vertex 600.7825771637735 1704.0499574076898 527.9999999999999
    vertex 600.4647399185776 1703.6357438453172 527.9999999999999
  endloop
endfacet
facet normal 9.111190176870887e-32 4.554351332718352e-32 1.0
  outer loop
    vertex 795.7469026733827 1704.049957407745 527.9999999999999
    vertex 600.4647399185776 1703.6357438453172 527.9999999999999
    vertex 796.0647399185784 1703.6357438453736 527.9999999999999
  endloop
endfacet
facet normal 9.111190176870887e-32 4.554351332718352e-32 1.0
  outer loop
    vertex 796.0647399185784 1703.6357438453736 527.9999999999999
    vertex 600.4647399185776 1703.6357438453172 527.9999999999999
    vertex 600.0505263562045 1703.3179066001212 527.9999999999999
  endloop
endfacet
facet normal 9.111190176870887e-32 4.554351332718352e-32 1.0
  outer loop
    vertex 796.0647399185784 1703.6357438453736 527.9999999999999
    vertex 600.0505263562045 1703.3179066001212 527.9999999999999
    vertex 796.4789534809514 1703.3179066001778 527.9999999999999
  endloop
endfacet
facet normal 9.111190176870887e-32 4.554351332718352e-32 1.0
  outer loop
    vertex 796.4789534809514 1703.3179066001778 527.9999999999999
    vertex 600.0505263562045 1703.3179066001212 527.9999999999999
    vertex 796.9613153907468 1703.1181057551673 527.9999999999999
  endloop
endfacet
facet normal 9.111190176870887e-32 4.554351332718352e-32 1.0
  outer loop
    vertex 796.9613153907468 1703.1181057551673 527.9999999999999
    vertex 600.0505263562045 1703.3179066001212 527.9999999999999
    vertex 599.5681644464096 1703.1181057551114 527.9999999999999
  endloop
endfacet
facet normal 9.111190176870887e-32 4.554351332718352e-32 1.0
  outer loop
    vertex 796.9613153907468 1703.1181057551673 527.9999999999999
    vertex 599.5681644464096 1703.1181057551114 527.9999999999999
    vertex 599.4647399185778 1703.1044896577102 527.9999999999999
  endloop
endfacet
facet normal 9.111190176870887e-32 4.554351332718352e-32 1.0
  outer loop
    vertex 796.9613153907468 1703.1181057551673 527.9999999999999
    vertex 599.4647399185778 1703.1044896577102 527.9999999999999
    vertex 797.0647399185788 1703.1044896577666 527.9999999999999
  endloop
endfacet
facet normal 9.111190176870887e-32 4.554351332718352e-32 1.0
  outer loop
    vertex 797.0647399185788 1703.1044896577666 527.9999999999999
    vertex 599.4647399185778 1703.1044896577102 527.9999999999999
    vertex 603.4647399185782 1700.6357438453174 527.9999999999999
  endloop
endfacet
facet normal 9.111190176870887e-32 4.554351332718352e-32 1.0
  outer loop
    vertex 603.4647399185782 1700.6357438453174 527.9999999999999
    vertex 599.4647399185778 1703.1044896577102 527.9999999999999
    vertex 599.4647399186335 1508.606486204942 527.9999999999999
  endloop
endfacet
facet normal 9.111190176870887e-32 4.554351332718352e-32 1.0
  outer loop
    vertex 603.4647399185782 1700.6357438453174 527.9999999999999
    vertex 599.4647399186335 1508.606486204942 527.9999999999999
    vertex 603.4647399186326 1511.035743845318 527.9999999999999
  endloop
endfacet
facet normal 9.111190176870887e-32 4.554351332718352e-32 1.0
  outer loop
    vertex 603.4647399186326 1511.035743845318 527.9999999999999
    vertex 599.4647399186335 1508.606486204942 527.9999999999999
    vertex 793.0647399186357 1511.0357438453725 527.9999999999999
  endloop
endfacet
facet normal 9.111190176870887e-32 4.554351332718352e-32 1.0
  outer loop
    vertex 797.0647399185788 1703.1044896577666 527.9999999999999
    vertex 793.0647399185772 1700.635743845372 527.9999999999999
    vertex 797.0647399186346 1508.5669980329794 527.9999999999999
  endloop
endfacet
facet normal 9.111190176870887e-32 4.554351332718352e-32 1.0
  outer loop
    vertex 793.0647399185772 1700.635743845372 527.9999999999999
    vertex 797.0647399185788 1703.1044896577666 527.9999999999999
    vertex 603.4647399185782 1700.6357438453174 527.9999999999999
  endloop
endfacet
facet normal 9.111190176870887e-32 4.554351332718352e-32 1.0
  outer loop
    vertex 797.0647399186346 1508.5669980329794 527.9999999999999
    vertex 793.0647399185772 1700.635743845372 527.9999999999999
    vertex 793.0647399186357 1511.0357438453725 527.9999999999999
  endloop
endfacet
facet normal 9.111190176870887e-32 4.554351332718352e-32 1.0
  outer loop
    vertex 797.0647399186346 1508.5669980329794 527.9999999999999
    vertex 793.0647399186357 1511.0357438453725 527.9999999999999
    vertex 599.4647399186335 1508.606486204942 527.9999999999999
  endloop
endfacet
facet normal 9.111190176870887e-32 4.554351332718352e-32 1.0
  outer loop
    vertex 797.0647399186346 1508.5669980329794 527.9999999999999
    vertex 599.4647399186335 1508.606486204942 527.9999999999999
    vertex 599.868106891489 1508.5533819355219 527.9999999999999
  endloop
endfacet
facet normal 9.111190176870887e-32 4.554351332718352e-32 1.0
  outer loop
    vertex 797.0647399186346 1508.5669980329794 527.9999999999999
    vertex 599.868106891489 1508.5533819355219 527.9999999999999
    vertex 796.9613153908026 1508.5533819355785 527.9999999999999
  endloop
endfacet
facet normal 9.111190176870887e-32 4.554351332718352e-32 1.0
  outer loop
    vertex 796.9613153908026 1508.5533819355785 527.9999999999999
    vertex 599.868106891489 1508.5533819355219 527.9999999999999
    vertex 600.350468801284 1508.3535810905128 527.9999999999999
  endloop
endfacet
facet normal 9.111190176870887e-32 4.554351332718352e-32 1.0
  outer loop
    vertex 796.9613153908026 1508.5533819355785 527.9999999999999
    vertex 600.350468801284 1508.3535810905128 527.9999999999999
    vertex 796.4789534810077 1508.3535810905692 527.9999999999999
  endloop
endfacet
facet normal 9.111190176870887e-32 4.554351332718352e-32 1.0
  outer loop
    vertex 796.4789534810077 1508.3535810905692 527.9999999999999
    vertex 600.350468801284 1508.3535810905128 527.9999999999999
    vertex 600.7646823636571 1508.0357438453166 527.9999999999999
  endloop
endfacet
facet normal 9.111190176870887e-32 4.554351332718352e-32 1.0
  outer loop
    vertex 796.4789534810077 1508.3535810905692 527.9999999999999
    vertex 600.7646823636571 1508.0357438453166 527.9999999999999
    vertex 796.0647399186345 1508.0357438453727 527.9999999999999
  endloop
endfacet
facet normal 9.111190176870887e-32 4.554351332718352e-32 1.0
  outer loop
    vertex 796.0647399186345 1508.0357438453727 527.9999999999999
    vertex 600.7646823636571 1508.0357438453166 527.9999999999999
    vertex 601.0825196088532 1507.621530282944 527.9999999999999
  endloop
endfacet
facet normal 9.111190176870887e-32 4.554351332718352e-32 1.0
  outer loop
    vertex 796.0647399186345 1508.0357438453727 527.9999999999999
    vertex 601.0825196088532 1507.621530282944 527.9999999999999
    vertex 795.7469026734392 1507.6215302829999 527.9999999999999
  endloop
endfacet
facet normal 9.111190176870887e-32 4.554351332718352e-32 1.0
  outer loop
    vertex 795.7469026734392 1507.6215302829999 527.9999999999999
    vertex 601.0825196088532 1507.621530282944 527.9999999999999
    vertex 601.2823204538627 1507.1391683731488 527.9999999999999
  endloop
endfacet
facet normal 9.111190176870887e-32 4.554351332718352e-32 1.0
  outer loop
    vertex 795.7469026734392 1507.6215302829999 527.9999999999999
    vertex 601.2823204538627 1507.1391683731488 527.9999999999999
    vertex 795.5471018284298 1507.1391683732052 527.9999999999999
  endloop
endfacet
facet normal 9.111190176870887e-32 4.554351332718352e-32 1.0
  outer loop
    vertex 795.5471018284298 1507.1391683732052 527.9999999999999
    vertex 601.2823204538627 1507.1391683731488 527.9999999999999
    vertex 795.5334857310289 1507.035743845373 527.9999999999999
  endloop
endfacet
facet normal 9.111190176870887e-32 4.554351332718352e-32 1.0
  outer loop
    vertex 795.5334857310289 1507.035743845373 527.9999999999999
    vertex 601.2823204538627 1507.1391683731488 527.9999999999999
    vertex 601.2959365512635 1507.0357438453168 527.9999999999999
  endloop
endfacet
facet normal -0.1305261922206118 0.9914448613737368 0.0
  outer loop
    vertex 599.5681644464096 1703.1181057551114 527.9999999999999
    vertex 599.4647399185778 1703.1044896577102 525.9999999999999
    vertex 599.4647399185778 1703.1044896577102 527.9999999999999
  endloop
endfacet
facet normal -0.1305261922206118 0.9914448613737368 0.0
  outer loop
    vertex 599.4647399185778 1703.1044896577102 525.9999999999999
    vertex 599.5681644464096 1703.1181057551114 527.9999999999999
    vertex 599.5681644464096 1703.1181057551114 525.9999999999999
  endloop
endfacet
facet normal -0.3826834323654711 0.923879532511129 0.0
  outer loop
    vertex 600.0505263562045 1703.3179066001212 527.9999999999999
    vertex 599.5681644464096 1703.1181057551114 525.9999999999999
    vertex 599.5681644464096 1703.1181057551114 527.9999999999999
  endloop
endfacet
facet normal -0.3826834323654711 0.923879532511129 0.0
  outer loop
    vertex 599.5681644464096 1703.1181057551114 525.9999999999999
    vertex 600.0505263562045 1703.3179066001212 527.9999999999999
    vertex 600.0505263562045 1703.3179066001212 525.9999999999999
  endloop
endfacet
facet normal -0.6087614290089689 0.7933533402910447 0.0
  outer loop
    vertex 600.4647399185776 1703.6357438453172 527.9999999999999
    vertex 600.0505263562045 1703.3179066001212 525.9999999999999
    vertex 600.0505263562045 1703.3179066001212 527.9999999999999
  endloop
endfacet
facet normal -0.6087614290089689 0.7933533402910447 0.0
  outer loop
    vertex 600.0505263562045 1703.3179066001212 525.9999999999999
    vertex 600.4647399185776 1703.6357438453172 527.9999999999999
    vertex 600.4647399185776 1703.6357438453172 525.9999999999999
  endloop
endfacet
facet normal -0.7933533402912918 0.6087614290086469 0.0
  outer loop
    vertex 600.4647399185776 1703.6357438453172 527.9999999999999
    vertex 600.7825771637735 1704.0499574076898 525.9999999999999
    vertex 600.4647399185776 1703.6357438453172 525.9999999999999
  endloop
endfacet
facet normal -0.7933533402912918 0.6087614290086469 0.0
  outer loop
    vertex 600.7825771637735 1704.0499574076898 525.9999999999999
    vertex 600.4647399185776 1703.6357438453172 527.9999999999999
    vertex 600.7825771637735 1704.0499574076898 527.9999999999999
  endloop
endfacet
facet normal -0.923879532511471 0.3826834323646449 0.0
  outer loop
    vertex 600.7825771637735 1704.0499574076898 527.9999999999999
    vertex 600.9823780087822 1704.5323193174843 525.9999999999999
    vertex 600.7825771637735 1704.0499574076898 525.9999999999999
  endloop
endfacet
facet normal -0.923879532511471 0.3826834323646449 0.0
  outer loop
    vertex 600.9823780087822 1704.5323193174843 525.9999999999999
    vertex 600.7825771637735 1704.0499574076898 527.9999999999999
    vertex 600.9823780087822 1704.5323193174843 527.9999999999999
  endloop
endfacet
facet normal -0.9914448613739237 0.13052619221919162 0.0
  outer loop
    vertex 600.9823780087822 1704.5323193174843 527.9999999999999
    vertex 600.9959941061833 1704.6357438453163 525.9999999999999
    vertex 600.9823780087822 1704.5323193174843 525.9999999999999
  endloop
endfacet
facet normal -0.9914448613739237 0.13052619221919162 0.0
  outer loop
    vertex 600.9959941061833 1704.6357438453163 525.9999999999999
    vertex 600.9823780087822 1704.5323193174843 527.9999999999999
    vertex 600.9959941061833 1704.6357438453163 527.9999999999999
  endloop
endfacet
endsolid Pet Feeder
