solid Pet Feeder
facet normal 0.0 -1.0 0.0
  outer loop
    vertex 752.9464283567104 1756.1473550222547 49.999999955913935
    vertex 679.8464283567106 1756.1473550222547 45.999999955913985
    vertex 752.9464283567104 1756.1473550222547 45.99999995591394
  endloop
endfacet
facet normal 0.0 -1.0 0.0
  outer loop
    vertex 679.8464283567106 1756.1473550222547 45.999999955913985
    vertex 752.9464283567104 1756.1473550222547 49.999999955913935
    vertex 679.8464283567106 1756.1473550222547 49.99999995591398
  endloop
endfacet
facet normal 1.0 0.0 0.0
  outer loop
    vertex 679.8464283567106 1756.1473550222547 45.999999955913985
    vertex 679.8464283567106 1742.847567285253 49.99999995591398
    vertex 679.8464283567106 1742.847567285253 45.999999955913985
  endloop
endfacet
facet normal 1.0 0.0 0.0
  outer loop
    vertex 679.8464283567106 1742.847567285253 49.99999995591398
    vertex 679.8464283567106 1756.1473550222547 45.999999955913985
    vertex 679.8464283567106 1756.1473550222547 49.99999995591398
  endloop
endfacet
facet normal 0.0 0.0 -1.0
  outer loop
    vertex 752.9894792828951 1803.8477795482509 9.800000000000168
    vertex 643.3894792828953 1799.8477795482509 9.800000000000168
    vertex 643.3894792828953 1803.8477795482509 9.800000000000168
  endloop
endfacet
facet normal 0.0 0.0 -1.0
  outer loop
    vertex 643.3894792828953 1799.8477795482509 9.800000000000168
    vertex 752.9894792828951 1803.8477795482509 9.800000000000168
    vertex 752.9894792828951 1799.8477795482509 9.800000000000168
  endloop
endfacet
facet normal -0.9999997901866261 0.0003734372313676466 -0.0005293121367232329
  outer loop
    vertex 752.9464283567104 1756.1473550222547 49.999999955913935
    vertex 752.9464283567104 1742.847567285253 46.00045316442856
    vertex 752.9464283567104 1742.847567285253 49.999999955913935
  endloop
endfacet
facet normal -0.9999997901866261 0.0003734372313676466 -0.0005293121367232329
  outer loop
    vertex 752.9464283567104 1742.847567285253 46.00045316442856
    vertex 752.9464283567104 1756.1473550222547 49.999999955913935
    vertex 752.9464283567104 1756.1473550222547 45.99999995591394
  endloop
endfacet
facet normal -0.9999997901866261 0.0003734372313676466 -0.0005293121367232329
  outer loop
    vertex 752.9464283567104 1742.847567285253 46.00045316442856
    vertex 752.9464283567104 1756.1473550222547 45.99999995591394
    vertex 752.9894792828951 1799.8474571971615 2.3123725156892757e-13
  endloop
endfacet
facet normal -0.9999997901866261 0.0003734372313676466 -0.0005293121367232329
  outer loop
    vertex 752.9894792828951 1799.8474571971615 2.3123725156892757e-13
    vertex 752.9464283567104 1756.1473550222547 45.99999995591394
    vertex 752.9894792828951 1799.8477795482509 9.800000000000168
  endloop
endfacet
facet normal -0.9999997901866261 0.0003734372313676466 -0.0005293121367232329
  outer loop
    vertex 752.9894792828951 1799.8474571971615 2.3123725156892757e-13
    vertex 752.9894792828951 1799.8477795482509 9.800000000000168
    vertex 752.9894792828951 1803.8477795482509 2.3123725156892757e-13
  endloop
endfacet
facet normal -0.9999997901866261 0.0003734372313676466 -0.0005293121367232329
  outer loop
    vertex 752.9894792828951 1803.8477795482509 2.3123725156892757e-13
    vertex 752.9894792828951 1799.8477795482509 9.800000000000168
    vertex 752.9894792828951 1803.8477795482509 9.800000000000168
  endloop
endfacet
facet normal -1.3743151039718113e-16 -0.6379246230708255 -0.770098808777124
  outer loop
    vertex 752.9894792828951 1799.8477795482509 9.800000000000168
    vertex 679.8464283567106 1756.1473550222547 45.999999955913985
    vertex 643.3894792828953 1799.8477795482509 9.800000000000168
  endloop
endfacet
facet normal -1.3743151039718113e-16 -0.6379246230708255 -0.770098808777124
  outer loop
    vertex 679.8464283567106 1756.1473550222547 45.999999955913985
    vertex 752.9894792828951 1799.8477795482509 9.800000000000168
    vertex 752.9464283567104 1756.1473550222547 45.99999995591394
  endloop
endfacet
facet normal 0.0 0.0 1.0
  outer loop
    vertex 754.989479128241 1799.8474571971615 11.800453208514783
    vertex 641.3894792828952 1803.8477795482509 11.800000000000164
    vertex 641.3894792828952 1799.8477795482509 11.800000000000164
  endloop
endfacet
facet normal 0.0 0.0 1.0
  outer loop
    vertex 641.3894792828952 1803.8477795482509 11.800000000000164
    vertex 754.989479128241 1799.8474571971615 11.800453208514783
    vertex 754.989479128241 1803.8474571971612 11.800453208514783
  endloop
endfacet
facet normal 0.0 1.0 0.0
  outer loop
    vertex 677.8464283567105 1758.147355022255 49.99999995591398
    vertex 754.9464282020563 1758.1470326711656 46.00045316442856
    vertex 677.8464283567105 1758.147355022255 45.999999955913985
  endloop
endfacet
facet normal 0.0 1.0 0.0
  outer loop
    vertex 754.9464282020563 1758.1470326711656 46.00045316442856
    vertex 677.8464283567105 1758.147355022255 49.99999995591398
    vertex 754.9464282020563 1758.1470326711656 50.000453164428556
  endloop
endfacet
facet normal -1.0 0.0 0.0
  outer loop
    vertex 641.3894792828952 1803.8477795482509 11.800000000000164
    vertex 641.3894792828952 1799.8477795482509 2.3123725156892757e-13
    vertex 641.3894792828952 1799.8477795482509 11.800000000000164
  endloop
endfacet
facet normal -1.0 0.0 0.0
  outer loop
    vertex 641.3894792828952 1799.8477795482509 2.3123725156892757e-13
    vertex 641.3894792828952 1803.8477795482509 11.800000000000164
    vertex 641.3894792828952 1803.8477795482509 2.3123725156892757e-13
  endloop
endfacet
facet normal -1.477211302596291e-06 0.634141863442061 0.773216720608167
  outer loop
    vertex 677.8464283567105 1758.147355022255 45.999999955913985
    vertex 754.989479128241 1799.8474571971615 11.800453208514783
    vertex 641.3894792828952 1799.8477795482509 11.800000000000164
  endloop
endfacet
facet normal -1.477211302596291e-06 0.634141863442061 0.773216720608167
  outer loop
    vertex 754.989479128241 1799.8474571971615 11.800453208514783
    vertex 677.8464283567105 1758.147355022255 45.999999955913985
    vertex 754.9464282020563 1758.1470326711656 46.00045316442856
  endloop
endfacet
facet normal 0.9999997874641967 -0.0003935582474358368 0.0005197917540946147
  outer loop
    vertex 754.989479128241 1799.8474571971615 0.000453208514855552
    vertex 754.9464282020563 1742.8472449341637 50.000453164428556
    vertex 754.9464282020563 1742.8472449341637 46.00045316442856
  endloop
endfacet
facet normal 0.9999997874641967 -0.0003935582474358368 0.0005197917540946147
  outer loop
    vertex 754.9464282020563 1742.8472449341637 50.000453164428556
    vertex 754.989479128241 1799.8474571971615 0.000453208514855552
    vertex 754.9464282020563 1758.1470326711656 46.00045316442856
  endloop
endfacet
facet normal 0.9999997874641967 -0.0003935582474358368 0.0005197917540946147
  outer loop
    vertex 754.9464282020563 1758.1470326711656 46.00045316442856
    vertex 754.989479128241 1799.8474571971615 0.000453208514855552
    vertex 754.989479128241 1799.8474571971615 11.800453208514783
  endloop
endfacet
facet normal 0.9999997874641967 -0.0003935582474358368 0.0005197917540946147
  outer loop
    vertex 754.989479128241 1799.8474571971615 11.800453208514783
    vertex 754.989479128241 1799.8474571971615 0.000453208514855552
    vertex 754.989479128241 1803.8474571971612 0.000453208514855552
  endloop
endfacet
facet normal 0.9999997874641967 -0.0003935582474358368 0.0005197917540946147
  outer loop
    vertex 754.989479128241 1799.8474571971615 11.800453208514783
    vertex 754.989479128241 1803.8474571971612 0.000453208514855552
    vertex 754.989479128241 1803.8474571971612 11.800453208514783
  endloop
endfacet
facet normal 0.9999997874641967 -0.0003935582474358368 0.0005197917540946147
  outer loop
    vertex 754.9464282020563 1758.1470326711656 50.000453164428556
    vertex 754.9464282020563 1742.8472449341637 50.000453164428556
    vertex 754.9464282020563 1758.1470326711656 46.00045316442856
  endloop
endfacet
facet normal -0.9999997901866261 0.000373437231367653 -0.0005293121367232265
  outer loop
    vertex 752.9464283567104 1756.1473550222547 49.999999955913935
    vertex 752.9464283567104 1742.847567285253 46.00045316442856
    vertex 752.9464283567104 1742.847567285253 49.999999955913935
  endloop
endfacet
facet normal -0.9999997901866261 0.000373437231367653 -0.0005293121367232265
  outer loop
    vertex 752.9464283567104 1742.847567285253 46.00045316442856
    vertex 752.9464283567104 1756.1473550222547 49.999999955913935
    vertex 752.9464283567104 1756.1473550222547 45.99999995591394
  endloop
endfacet
facet normal -0.9999997901866261 0.000373437231367653 -0.0005293121367232265
  outer loop
    vertex 752.9464283567104 1742.847567285253 46.00045316442856
    vertex 752.9464283567104 1756.1473550222547 45.99999995591394
    vertex 752.9894792828951 1799.8474571971615 2.3123725156892757e-13
  endloop
endfacet
facet normal -0.9999997901866261 0.000373437231367653 -0.0005293121367232265
  outer loop
    vertex 752.9894792828951 1799.8474571971615 2.3123725156892757e-13
    vertex 752.9464283567104 1756.1473550222547 45.99999995591394
    vertex 752.9894792828951 1799.8477795482509 9.800000000000168
  endloop
endfacet
facet normal -0.9999997901866261 0.000373437231367653 -0.0005293121367232265
  outer loop
    vertex 752.9894792828951 1799.8474571971615 2.3123725156892757e-13
    vertex 752.9894792828951 1799.8477795482509 9.800000000000168
    vertex 752.9894792828951 1803.8477795482509 2.3123725156892757e-13
  endloop
endfacet
facet normal -0.9999997901866261 0.000373437231367653 -0.0005293121367232265
  outer loop
    vertex 752.9894792828951 1803.8477795482509 2.3123725156892757e-13
    vertex 752.9894792828951 1799.8477795482509 9.800000000000168
    vertex 752.9894792828951 1803.8477795482509 9.800000000000168
  endloop
endfacet
facet normal 1.4696326768290708e-06 0.9999999999979965 1.3591256423839112e-06
  outer loop
    vertex 641.3894792828952 1803.8477795482509 11.800000000000164
    vertex 643.3894792828953 1803.8477795482509 2.3123725156892757e-13
    vertex 641.3894792828952 1803.8477795482509 2.3123725156892757e-13
  endloop
endfacet
facet normal 1.4696326768290708e-06 0.9999999999979965 1.3591256423839112e-06
  outer loop
    vertex 643.3894792828953 1803.8477795482509 2.3123725156892757e-13
    vertex 641.3894792828952 1803.8477795482509 11.800000000000164
    vertex 643.3894792828953 1803.8477795482509 9.800000000000168
  endloop
endfacet
facet normal 1.4696326768290708e-06 0.9999999999979965 1.3591256423839112e-06
  outer loop
    vertex 643.3894792828953 1803.8477795482509 9.800000000000168
    vertex 641.3894792828952 1803.8477795482509 11.800000000000164
    vertex 752.9894792828951 1803.8477795482509 9.800000000000168
  endloop
endfacet
facet normal 1.4696326768290708e-06 0.9999999999979965 1.3591256423839112e-06
  outer loop
    vertex 752.9894792828951 1803.8477795482509 9.800000000000168
    vertex 754.989479128241 1803.8474571971612 0.000453208514855552
    vertex 752.9894792828951 1803.8477795482509 2.3123725156892757e-13
  endloop
endfacet
facet normal 1.4696326768290708e-06 0.9999999999979965 1.3591256423839112e-06
  outer loop
    vertex 754.989479128241 1803.8474571971612 0.000453208514855552
    vertex 752.9894792828951 1803.8477795482509 9.800000000000168
    vertex 754.989479128241 1803.8474571971612 11.800453208514783
  endloop
endfacet
facet normal 1.4696326768290708e-06 0.9999999999979965 1.3591256423839112e-06
  outer loop
    vertex 754.989479128241 1803.8474571971612 11.800453208514783
    vertex 752.9894792828951 1803.8477795482509 9.800000000000168
    vertex 641.3894792828952 1803.8477795482509 11.800000000000164
  endloop
endfacet
facet normal 1.0 0.0 0.0
  outer loop
    vertex 643.3894792828953 1803.8477795482509 2.3123725156892757e-13
    vertex 643.3894792828953 1799.8477795482509 9.800000000000168
    vertex 643.3894792828953 1799.8477795482509 2.3123725156892757e-13
  endloop
endfacet
facet normal 1.0 0.0 0.0
  outer loop
    vertex 643.3894792828953 1799.8477795482509 9.800000000000168
    vertex 643.3894792828953 1803.8477795482509 2.3123725156892757e-13
    vertex 643.3894792828953 1803.8477795482509 9.800000000000168
  endloop
endfacet
facet normal -3.095529925172394e-06 -1.097099951960524e-06 0.999999999994607
  outer loop
    vertex 754.9464282020563 1742.8472449341637 50.000453164428556
    vertex 752.9464283567104 1756.1473550222547 49.999999955913935
    vertex 752.9464283567104 1742.847567285253 49.999999955913935
  endloop
endfacet
facet normal -3.095529925172394e-06 -1.097099951960524e-06 0.999999999994607
  outer loop
    vertex 679.8464283567106 1742.847567285253 49.99999995591398
    vertex 677.8464283567105 1758.147355022255 49.99999995591398
    vertex 677.8464283567105 1742.847567285253 49.99999995591398
  endloop
endfacet
facet normal -3.095529925172394e-06 -1.097099951960524e-06 0.999999999994607
  outer loop
    vertex 677.8464283567105 1758.147355022255 49.99999995591398
    vertex 679.8464283567106 1742.847567285253 49.99999995591398
    vertex 679.8464283567106 1756.1473550222547 49.99999995591398
  endloop
endfacet
facet normal -3.095529925172394e-06 -1.097099951960524e-06 0.999999999994607
  outer loop
    vertex 677.8464283567105 1758.147355022255 49.99999995591398
    vertex 679.8464283567106 1756.1473550222547 49.99999995591398
    vertex 754.9464282020563 1758.1470326711656 50.000453164428556
  endloop
endfacet
facet normal -3.095529925172394e-06 -1.097099951960524e-06 0.999999999994607
  outer loop
    vertex 754.9464282020563 1758.1470326711656 50.000453164428556
    vertex 679.8464283567106 1756.1473550222547 49.99999995591398
    vertex 752.9464283567104 1756.1473550222547 49.999999955913935
  endloop
endfacet
facet normal -3.095529925172394e-06 -1.097099951960524e-06 0.999999999994607
  outer loop
    vertex 754.9464282020563 1758.1470326711656 50.000453164428556
    vertex 752.9464283567104 1756.1473550222547 49.999999955913935
    vertex 754.9464282020563 1742.8472449341637 50.000453164428556
  endloop
endfacet
facet normal -1.0 0.0 0.0
  outer loop
    vertex 677.8464283567105 1758.147355022255 49.99999995591398
    vertex 677.8464283567105 1742.847567285253 45.999999955913985
    vertex 677.8464283567105 1742.847567285253 49.99999995591398
  endloop
endfacet
facet normal -1.0 0.0 0.0
  outer loop
    vertex 677.8464283567105 1742.847567285253 45.999999955913985
    vertex 677.8464283567105 1758.147355022255 49.99999995591398
    vertex 677.8464283567105 1758.147355022255 45.999999955913985
  endloop
endfacet
facet normal 0.7046017132146206 -1.6737543783600907e-15 -0.709603005725752
  outer loop
    vertex 679.8464283567106 1742.847567285253 45.999999955913985
    vertex 643.3894792828953 1799.8477795482509 9.800000000000168
    vertex 679.8464283567106 1756.1473550222547 45.999999955913985
  endloop
endfacet
facet normal 0.8424269550472772 0.5388105654214409 0.0
  outer loop
    vertex 643.3894792828953 1799.8477795482509 9.800000000000168
    vertex 679.8464283567106 1742.847567285253 45.999999955913985
    vertex 643.3894792828953 1799.8477795482509 2.3123725156892757e-13
  endloop
endfacet
facet normal -0.6841711819979315 0.0 0.7293214611702808
  outer loop
    vertex 677.8464283567105 1758.147355022255 45.999999955913985
    vertex 641.3894792828952 1799.8477795482509 11.800000000000164
    vertex 677.8464283567105 1742.847567285253 45.999999955913985
  endloop
endfacet
facet normal -0.8424269550472775 -0.5388105654214403 -2.0652452500154394e-15
  outer loop
    vertex 641.3894792828952 1799.8477795482509 2.3123725156892757e-13
    vertex 677.8464283567105 1742.847567285253 45.999999955913985
    vertex 641.3894792828952 1799.8477795482509 11.800000000000164
  endloop
endfacet
facet normal 0.0 -1.0 0.0
  outer loop
    vertex 679.8464283567106 1742.847567285253 49.99999995591398
    vertex 677.8464283567105 1742.847567285253 45.999999955913985
    vertex 679.8464283567106 1742.847567285253 45.999999955913985
  endloop
endfacet
facet normal 0.0 -1.0 0.0
  outer loop
    vertex 677.8464283567105 1742.847567285253 45.999999955913985
    vertex 679.8464283567106 1742.847567285253 49.99999995591398
    vertex 677.8464283567105 1742.847567285253 49.99999995591398
  endloop
endfacet
facet normal -0.0001611755550940574 -0.9999999870112202 1.0324454281056176e-21
  outer loop
    vertex 754.9464282020563 1742.8472449341637 50.000453164428556
    vertex 752.9464283567104 1742.847567285253 46.00045316442856
    vertex 754.9464282020563 1742.8472449341637 46.00045316442856
  endloop
endfacet
facet normal -0.0001611755550940574 -0.9999999870112202 1.0324454281056176e-21
  outer loop
    vertex 752.9464283567104 1742.847567285253 46.00045316442856
    vertex 754.9464282020563 1742.8472449341637 50.000453164428556
    vertex 752.9464283567104 1742.847567285253 49.999999955913935
  endloop
endfacet
facet normal 0.00022660426901678925 -2.7244182935719807e-21 -0.9999999743252523
  outer loop
    vertex 754.989479128241 1803.8474571971612 0.000453208514855552
    vertex 752.9894792828951 1799.8474571971615 2.3123725156892757e-13
    vertex 752.9894792828951 1803.8477795482509 2.3123725156892757e-13
  endloop
endfacet
facet normal 0.00022660426901678925 -2.7244182935719807e-21 -0.9999999743252523
  outer loop
    vertex 752.9894792828951 1799.8474571971615 2.3123725156892757e-13
    vertex 754.989479128241 1803.8474571971612 0.000453208514855552
    vertex 754.989479128241 1799.8474571971615 0.000453208514855552
  endloop
endfacet
facet normal 3.7560520055551194e-05 -0.6280208172861861 -0.7781965379288179
  outer loop
    vertex 752.9894792828951 1799.8474571971615 2.3123725156892757e-13
    vertex 754.9464282020563 1742.8472449341637 46.00045316442856
    vertex 752.9464283567104 1742.847567285253 46.00045316442856
  endloop
endfacet
facet normal 3.7560520055551194e-05 -0.6280208172861861 -0.7781965379288179
  outer loop
    vertex 754.9464282020563 1742.8472449341637 46.00045316442856
    vertex 752.9894792828951 1799.8474571971615 2.3123725156892757e-13
    vertex 754.989479128241 1799.8474571971615 0.000453208514855552
  endloop
endfacet
facet normal 0.0 0.0 -1.0
  outer loop
    vertex 643.3894792828953 1803.8477795482509 2.3123725156892757e-13
    vertex 641.3894792828952 1799.8477795482509 2.3123725156892757e-13
    vertex 641.3894792828952 1803.8477795482509 2.3123725156892757e-13
  endloop
endfacet
facet normal 0.0 0.0 -1.0
  outer loop
    vertex 641.3894792828952 1799.8477795482509 2.3123725156892757e-13
    vertex 643.3894792828953 1803.8477795482509 2.3123725156892757e-13
    vertex 643.3894792828953 1799.8477795482509 2.3123725156892757e-13
  endloop
endfacet
facet normal 4.42733895136979e-14 -0.6280178516061101 -0.7781989321915354
  outer loop
    vertex 643.3894792828953 1799.8477795482509 2.3123725156892757e-13
    vertex 677.8464283567105 1742.847567285253 45.999999955913985
    vertex 641.3894792828952 1799.8477795482509 2.3123725156892757e-13
  endloop
endfacet
facet normal 4.42733895136979e-14 -0.6280178516061101 -0.7781989321915354
  outer loop
    vertex 677.8464283567105 1742.847567285253 45.999999955913985
    vertex 643.3894792828953 1799.8477795482509 2.3123725156892757e-13
    vertex 679.8464283567106 1742.847567285253 45.999999955913985
  endloop
endfacet
endsolid Pet Feeder
