solid Pet Feeder
facet normal -0.9999999999959741 2.8375976222372516e-06 1.8416107641055148e-14
  outer loop
    vertex 752.9664397046578 1803.8475230294107 -40.19918618372442
    vertex 752.9664283542669 1799.8475230294268 -59.79918618372425
    vertex 752.9664283542672 1799.8475230294268 -40.19918618372442
  endloop
endfacet
facet normal -0.9999999999959741 2.8375976222372516e-06 1.8416107641055148e-14
  outer loop
    vertex 752.9664283542669 1799.8475230294268 -59.79918618372425
    vertex 752.9664397046578 1803.8475230294107 -40.19918618372442
    vertex 752.9664397046574 1803.8475230294107 -59.79918618372425
  endloop
endfacet
facet normal -0.0 -2.0991514207979003e-20 -1.0
  outer loop
    vertex 643.366439704658 1803.8475230294107 -40.19918618372442
    vertex 752.9664283542672 1799.8475230294268 -40.19918618372442
    vertex 643.3664283542674 1799.8475230294268 -40.19918618372442
  endloop
endfacet
facet normal -0.0 -2.0991514207979003e-20 -1.0
  outer loop
    vertex 752.9664283542672 1799.8475230294268 -40.19918618372442
    vertex 643.366439704658 1803.8475230294107 -40.19918618372442
    vertex 752.9664397046578 1803.8475230294107 -40.19918618372442
  endloop
endfacet
facet normal -0.9999999999959741 2.8375976222372516e-06 0.0
  outer loop
    vertex 641.3664397046579 1803.8475230294107 -38.19918618372442
    vertex 641.3664283542673 1799.8475230294268 -61.799186183724224
    vertex 641.3664283542673 1799.8475230294268 -38.19918618372442
  endloop
endfacet
facet normal -0.9999999999959741 2.8375976222372516e-06 0.0
  outer loop
    vertex 641.3664283542673 1799.8475230294268 -61.799186183724224
    vertex 641.3664397046579 1803.8475230294107 -38.19918618372442
    vertex 641.3664397046579 1803.8475230294107 -61.799186183724224
  endloop
endfacet
facet normal 3.989511577764568e-06 -1.1320628587989813e-11 -0.9999999999920419
  outer loop
    vertex 641.3664397046579 1803.8475230294107 -61.799186183724224
    vertex 754.9664281996128 1799.8472006783375 -61.798732975209596
    vertex 641.3664283542673 1799.8475230294268 -61.799186183724224
  endloop
endfacet
facet normal 3.989511577764568e-06 -1.1320628587989813e-11 -0.9999999999920419
  outer loop
    vertex 754.9664281996128 1799.8472006783375 -61.798732975209596
    vertex 641.3664397046579 1803.8475230294107 -61.799186183724224
    vertex 754.9664395500033 1803.8472006783213 -61.798732975209596
  endloop
endfacet
facet normal -3.989511577764556e-06 1.1320628587989777e-11 0.9999999999920419
  outer loop
    vertex 754.9664281996131 1799.8472006783375 -38.1987329752098
    vertex 641.3664397046579 1803.8475230294107 -38.19918618372442
    vertex 641.3664283542673 1799.8475230294268 -38.19918618372442
  endloop
endfacet
facet normal -3.989511577764556e-06 1.1320628587989777e-11 0.9999999999920419
  outer loop
    vertex 641.3664397046579 1803.8475230294107 -38.19918618372442
    vertex 754.9664281996131 1799.8472006783375 -38.1987329752098
    vertex 754.9664395500037 1803.8472006783213 -38.1987329752098
  endloop
endfacet
facet normal 0.9999999999959741 -2.8375976222372516e-06 -1.5294733464605118e-14
  outer loop
    vertex 754.9664395500033 1803.8472006783213 -61.798732975209596
    vertex 754.9664281996131 1799.8472006783375 -38.1987329752098
    vertex 754.9664281996128 1799.8472006783375 -61.798732975209596
  endloop
endfacet
facet normal 0.9999999999959741 -2.8375976222372516e-06 -1.5294733464605118e-14
  outer loop
    vertex 754.9664281996131 1799.8472006783375 -38.1987329752098
    vertex 754.9664395500033 1803.8472006783213 -61.798732975209596
    vertex 754.9664395500037 1803.8472006783213 -38.1987329752098
  endloop
endfacet
facet normal 0.0 2.0991514207979006e-20 1.0
  outer loop
    vertex 752.9664283542669 1799.8475230294268 -59.79918618372425
    vertex 643.3664397046574 1803.8475230294107 -59.79918618372425
    vertex 643.3664283542669 1799.8475230294268 -59.79918618372425
  endloop
endfacet
facet normal 0.0 2.0991514207979006e-20 1.0
  outer loop
    vertex 643.3664397046574 1803.8475230294107 -59.79918618372425
    vertex 752.9664283542669 1799.8475230294268 -59.79918618372425
    vertex 752.9664397046574 1803.8475230294107 -59.79918618372425
  endloop
endfacet
facet normal 0.9999999999959741 -2.8375976222372516e-06 -2.7624161461582722e-14
  outer loop
    vertex 643.3664397046574 1803.8475230294107 -59.79918618372425
    vertex 643.3664283542674 1799.8475230294268 -40.19918618372442
    vertex 643.3664283542669 1799.8475230294268 -59.79918618372425
  endloop
endfacet
facet normal 0.9999999999959741 -2.8375976222372516e-06 -2.7624161461582722e-14
  outer loop
    vertex 643.3664283542674 1799.8475230294268 -40.19918618372442
    vertex 643.3664397046574 1803.8475230294107 -59.79918618372425
    vertex 643.366439704658 1803.8475230294107 -40.19918618372442
  endloop
endfacet
facet normal 2.8375976222372516e-06 0.9999999999959741 -2.0991514207894494e-20
  outer loop
    vertex 641.3664397046579 1803.8475230294107 -61.799186183724224
    vertex 643.3664397046574 1803.8475230294107 -59.79918618372425
    vertex 754.9664395500033 1803.8472006783213 -61.798732975209596
  endloop
endfacet
facet normal 2.8375976222372516e-06 0.9999999999959741 -2.0991514207894494e-20
  outer loop
    vertex 643.3664397046574 1803.8475230294107 -59.79918618372425
    vertex 641.3664397046579 1803.8475230294107 -61.799186183724224
    vertex 641.3664397046579 1803.8475230294107 -38.19918618372442
  endloop
endfacet
facet normal 2.8375976222372516e-06 0.9999999999959741 -2.0991514207894494e-20
  outer loop
    vertex 643.3664397046574 1803.8475230294107 -59.79918618372425
    vertex 641.3664397046579 1803.8475230294107 -38.19918618372442
    vertex 643.366439704658 1803.8475230294107 -40.19918618372442
  endloop
endfacet
facet normal 2.8375976222372516e-06 0.9999999999959741 -2.0991514207894494e-20
  outer loop
    vertex 643.366439704658 1803.8475230294107 -40.19918618372442
    vertex 641.3664397046579 1803.8475230294107 -38.19918618372442
    vertex 752.9664397046578 1803.8475230294107 -40.19918618372442
  endloop
endfacet
facet normal 2.8375976222372516e-06 0.9999999999959741 -2.0991514207894494e-20
  outer loop
    vertex 754.9664395500033 1803.8472006783213 -61.798732975209596
    vertex 752.9664397046574 1803.8475230294107 -59.79918618372425
    vertex 754.9664395500037 1803.8472006783213 -38.1987329752098
  endloop
endfacet
facet normal 2.8375976222372516e-06 0.9999999999959741 -2.0991514207894494e-20
  outer loop
    vertex 752.9664397046574 1803.8475230294107 -59.79918618372425
    vertex 754.9664395500033 1803.8472006783213 -61.798732975209596
    vertex 643.3664397046574 1803.8475230294107 -59.79918618372425
  endloop
endfacet
facet normal 2.8375976222372516e-06 0.9999999999959741 -2.0991514207894494e-20
  outer loop
    vertex 754.9664395500037 1803.8472006783213 -38.1987329752098
    vertex 752.9664397046574 1803.8475230294107 -59.79918618372425
    vertex 752.9664397046578 1803.8475230294107 -40.19918618372442
  endloop
endfacet
facet normal 2.8375976222372516e-06 0.9999999999959741 -2.0991514207894494e-20
  outer loop
    vertex 754.9664395500037 1803.8472006783213 -38.1987329752098
    vertex 752.9664397046578 1803.8475230294107 -40.19918618372442
    vertex 641.3664397046579 1803.8475230294107 -38.19918618372442
  endloop
endfacet
facet normal 0.9120993861902111 -0.40996915702457465 -3.2781780173995337e-15
  outer loop
    vertex 754.9664281996128 1799.8472006783375 -61.798732975209596
    vertex 729.9664283542508 1744.227200678329 -0.6991861837244256
    vertex 729.9664283542506 1744.2272006783285 -30.799186183722835
  endloop
endfacet
facet normal 0.9120993861902111 -0.40996915702457465 -3.2781780173995337e-15
  outer loop
    vertex 729.9664283542508 1744.227200678329 -0.6991861837244256
    vertex 754.9664281996128 1799.8472006783375 -61.798732975209596
    vertex 754.9664281996131 1799.8472006783375 -38.1987329752098
  endloop
endfacet
facet normal -0.9121002737052921 0.40996718247529407 3.478476871921524e-15
  outer loop
    vertex 727.9664283542508 1744.227200678329 -2.699186183724422
    vertex 752.9664283542669 1799.8475230294268 -59.79918618372425
    vertex 727.9664283542508 1744.2272006783285 -28.799186183722835
  endloop
endfacet
facet normal -0.9121002737052921 0.40996718247529407 3.478476871921524e-15
  outer loop
    vertex 752.9664283542669 1799.8475230294268 -59.79918618372425
    vertex 727.9664283542508 1744.227200678329 -2.699186183724422
    vertex 752.9664283542672 1799.8475230294268 -40.19918618372442
  endloop
endfacet
facet normal 4.991015313290683e-15 0.4868403891049104 0.873490947598302
  outer loop
    vertex 668.3664283542505 1744.227200678331 -28.79918618372275
    vertex 752.9664283542669 1799.8475230294268 -59.79918618372425
    vertex 643.3664283542669 1799.8475230294268 -59.79918618372425
  endloop
endfacet
facet normal 4.991015313290683e-15 0.4868403891049104 0.873490947598302
  outer loop
    vertex 752.9664283542669 1799.8475230294268 -59.79918618372425
    vertex 668.3664283542505 1744.227200678331 -28.79918618372275
    vertex 727.9664283542508 1744.2272006783285 -28.799186183722835
  endloop
endfacet
facet normal 1.6014052900918308e-06 -0.4868387502379741 -0.8734918610176988
  outer loop
    vertex 754.9664281996128 1799.8472006783375 -61.798732975209596
    vertex 666.3664283542506 1744.227200678331 -30.799186183722753
    vertex 641.3664283542673 1799.8475230294268 -61.799186183724224
  endloop
endfacet
facet normal 1.6014052900918308e-06 -0.4868387502379741 -0.8734918610176988
  outer loop
    vertex 666.3664283542506 1744.227200678331 -30.799186183722753
    vertex 754.9664281996128 1799.8472006783375 -61.798732975209596
    vertex 729.9664283542506 1744.2272006783285 -30.799186183722835
  endloop
endfacet
facet normal 2.4999467937519963e-08 -0.5590251184062801 -0.8291507203101521
  outer loop
    vertex 752.9664283542672 1799.8475230294268 -40.19918618372442
    vertex 668.3664283542506 1744.227200678332 -2.699186183724343
    vertex 643.3664283542674 1799.8475230294268 -40.19918618372442
  endloop
endfacet
facet normal 2.4999467937519963e-08 -0.5590251184062801 -0.8291507203101521
  outer loop
    vertex 668.3664283542506 1744.227200678332 -2.699186183724343
    vertex 752.9664283542672 1799.8475230294268 -40.19918618372442
    vertex 694.6308966219743 1746.2316633501714 -4.05061838936917
  endloop
endfacet
facet normal 2.4999467937519963e-08 -0.5590251184062801 -0.8291507203101521
  outer loop
    vertex 668.3664283542506 1744.227200678332 -2.699186183724343
    vertex 694.6308966219743 1746.2316633501714 -4.05061838936917
    vertex 693.8363035089855 1745.3730481945047 -3.4717311077702186
  endloop
endfacet
facet normal 2.4999467937519963e-08 -0.5590251184062801 -0.8291507203101521
  outer loop
    vertex 668.3664283542506 1744.227200678332 -2.699186183724343
    vertex 693.8363035089855 1745.3730481945047 -3.4717311077702186
    vertex 693.3368013964628 1744.3731699803543 -2.7976021275303227
  endloop
endfacet
facet normal 2.4999467937519963e-08 -0.5590251184062801 -0.8291507203101521
  outer loop
    vertex 668.3664283542506 1744.227200678332 -2.699186183724343
    vertex 693.3368013964628 1744.3731699803543 -2.7976021275303227
    vertex 693.3136241034513 1744.2271987661275 -2.6991863685928745
  endloop
endfacet
facet normal 2.4999467937519963e-08 -0.5590251184062801 -0.8291507203101521
  outer loop
    vertex 694.6308966219743 1746.2316633501714 -4.05061838936917
    vertex 752.9664283542672 1799.8475230294268 -40.19918618372442
    vertex 695.6664305279063 1746.8905022434242 -4.4948137607427
  endloop
endfacet
facet normal 2.4999467937519963e-08 -0.5590251184062801 -0.8291507203101521
  outer loop
    vertex 695.6664305279063 1746.8905022434242 -4.4948137607427
    vertex 752.9664283542672 1799.8475230294268 -40.19918618372442
    vertex 696.8723353023927 1747.3046660924704 -4.774046041399261
  endloop
endfacet
facet normal 2.4999467937519963e-08 -0.5590251184062801 -0.8291507203101521
  outer loop
    vertex 696.8723353023927 1747.3046660924704 -4.774046041399261
    vertex 752.9664283542672 1799.8475230294268 -40.19918618372442
    vertex 698.166430527904 1747.445930315436 -4.86928601286525
  endloop
endfacet
facet normal 2.4999467937519963e-08 -0.5590251184062801 -0.8291507203101521
  outer loop
    vertex 698.166430527904 1747.445930315436 -4.86928601286525
    vertex 752.9664283542672 1799.8475230294268 -40.19918618372442
    vertex 699.4605257534156 1747.304667988976 -4.774043228476772
  endloop
endfacet
facet normal 2.4999467937519963e-08 -0.5590251184062801 -0.8291507203101521
  outer loop
    vertex 699.4605257534156 1747.304667988976 -4.774043228476772
    vertex 752.9664283542672 1799.8475230294268 -40.19918618372442
    vertex 700.666430527902 1746.8905059071917 -4.494808326593755
  endloop
endfacet
facet normal 2.4999467937519963e-08 -0.5590251184062801 -0.8291507203101521
  outer loop
    vertex 700.666430527902 1746.8905059071917 -4.494808326593755
    vertex 752.9664283542672 1799.8475230294268 -40.19918618372442
    vertex 701.7019644338338 1746.231668531521 -4.050610704322031
  endloop
endfacet
facet normal 2.4999467937519963e-08 -0.5590251184062801 -0.8291507203101521
  outer loop
    vertex 701.7019644338338 1746.231668531521 -4.050610704322031
    vertex 752.9664283542672 1799.8475230294268 -40.19918618372442
    vertex 702.4965575468226 1745.3730545403364 -3.471721695548147
  endloop
endfacet
facet normal 2.4999467937519963e-08 -0.5590251184062801 -0.8291507203101521
  outer loop
    vertex 702.4965575468226 1745.3730545403364 -3.471721695548147
    vertex 752.9664283542672 1799.8475230294268 -40.19918618372442
    vertex 702.9960596593452 1744.3731770582096 -2.797591629560707
  endloop
endfacet
facet normal 2.4999467937519963e-08 -0.5590251184062801 -0.8291507203101521
  outer loop
    vertex 702.9960596593452 1744.3731770582096 -2.797591629560707
    vertex 752.9664283542672 1799.8475230294268 -40.19918618372442
    vertex 703.01923663335 1744.227204787791 -2.699181771704634
  endloop
endfacet
facet normal 2.4999467937519963e-08 -0.5590251184062801 -0.8291507203101521
  outer loop
    vertex 703.01923663335 1744.227204787791 -2.699181771704634
    vertex 752.9664283542672 1799.8475230294268 -40.19918618372442
    vertex 727.9664283542508 1744.227200678329 -2.699186183724422
  endloop
endfacet
facet normal 0.9121002737054914 0.40996718247485076 -2.0666244944951736e-14
  outer loop
    vertex 643.3664283542669 1799.8475230294268 -59.79918618372425
    vertex 668.3664283542506 1744.227200678332 -2.699186183724343
    vertex 668.3664283542505 1744.227200678331 -28.79918618372275
  endloop
endfacet
facet normal 0.9121002737054914 0.40996718247485076 -2.0666244944951736e-14
  outer loop
    vertex 668.3664283542506 1744.227200678332 -2.699186183724343
    vertex 643.3664283542669 1799.8475230294268 -59.79918618372425
    vertex 643.3664283542674 1799.8475230294268 -40.19918618372442
  endloop
endfacet
facet normal -0.9121002737054901 -0.40996718247485364 1.0281449157124281e-14
  outer loop
    vertex 666.3664283542506 1744.227200678332 -0.6991861837243467
    vertex 641.3664283542673 1799.8475230294268 -61.799186183724224
    vertex 666.3664283542506 1744.227200678331 -30.799186183722753
  endloop
endfacet
facet normal -0.9121002737054901 -0.40996718247485364 1.0281449157124281e-14
  outer loop
    vertex 641.3664283542673 1799.8475230294268 -61.799186183724224
    vertex 666.3664283542506 1744.227200678332 -0.6991861837243467
    vertex 641.3664283542673 1799.8475230294268 -38.19918618372442
  endloop
endfacet
facet normal 1.4779238952971569e-08 -1.0 6.572881681735632e-09
  outer loop
    vertex 729.9664283815407 1741.4272006783285 -30.799186179619177
    vertex 727.9664283815406 1741.4272006783285 -28.799186179619173
    vertex 666.3664283815405 1741.427200678331 -30.79918617961909
  endloop
endfacet
facet normal 1.4779238952971569e-08 -1.0 6.572881681735632e-09
  outer loop
    vertex 727.9664283815406 1741.4272006783285 -28.799186179619173
    vertex 729.9664283815407 1741.4272006783285 -30.799186179619177
    vertex 729.9664283815407 1741.4272006783287 -0.6991861796207653
  endloop
endfacet
facet normal 1.4779238952971569e-08 -1.0 6.572881681735632e-09
  outer loop
    vertex 727.9664283815406 1741.4272006783285 -28.799186179619173
    vertex 729.9664283815407 1741.4272006783287 -0.6991861796207653
    vertex 727.9664283815407 1741.4272006783287 -2.6991861796207615
  endloop
endfacet
facet normal 1.4779238952971569e-08 -1.0 6.572881681735632e-09
  outer loop
    vertex 727.9664283815407 1741.4272006783287 -2.6991861796207615
    vertex 729.9664283815407 1741.4272006783287 -0.6991861796207653
    vertex 703.0192366606399 1741.4272047877907 -2.6991817676009733
  endloop
endfacet
facet normal 1.4779238952971569e-08 -1.0 6.572881681735632e-09
  outer loop
    vertex 703.0192366606399 1741.4272047877907 -2.6991817676009733
    vertex 729.9664283815407 1741.4272006783287 -0.6991861796207653
    vertex 703.1664283815363 1741.4272043420979 -0.6991807454717749
  endloop
endfacet
facet normal 1.4779238952971569e-08 -1.0 6.572881681735632e-09
  outer loop
    vertex 693.1664283815448 1741.4271970145626 -0.6991916137696768
    vertex 668.3664283815406 1741.4272006783322 -2.699186179620683
    vertex 693.3136241307411 1741.4271987661273 -2.699186364489214
  endloop
endfacet
facet normal 1.4779238952971569e-08 -1.0 6.572881681735632e-09
  outer loop
    vertex 666.3664283815405 1741.427200678331 -30.79918617961909
    vertex 668.3664283815405 1741.427200678331 -28.799186179619088
    vertex 666.3664283815405 1741.4272006783322 -0.6991861796206864
  endloop
endfacet
facet normal 1.4779238952971569e-08 -1.0 6.572881681735632e-09
  outer loop
    vertex 668.3664283815405 1741.427200678331 -28.799186179619088
    vertex 666.3664283815405 1741.427200678331 -30.79918617961909
    vertex 727.9664283815406 1741.4272006783285 -28.799186179619173
  endloop
endfacet
facet normal 1.4779238952971569e-08 -1.0 6.572881681735632e-09
  outer loop
    vertex 666.3664283815405 1741.4272006783322 -0.6991861796206864
    vertex 668.3664283815405 1741.427200678331 -28.799186179619088
    vertex 668.3664283815406 1741.4272006783322 -2.699186179620683
  endloop
endfacet
facet normal 1.4779238952971569e-08 -1.0 6.572881681735632e-09
  outer loop
    vertex 666.3664283815405 1741.4272006783322 -0.6991861796206864
    vertex 668.3664283815406 1741.4272006783322 -2.699186179620683
    vertex 693.1664283815448 1741.4271970145626 -0.6991916137696768
  endloop
endfacet
facet normal -1.0 -9.746396458273581e-09 1.498985856306349e-15
  outer loop
    vertex 666.3664283815405 1741.4272006783322 -0.6991861796206864
    vertex 666.3664283542506 1744.227200678331 -30.799186183722753
    vertex 666.3664283815405 1741.427200678331 -30.79918617961909
  endloop
endfacet
facet normal -1.0 -9.746396458273581e-09 1.498985856306349e-15
  outer loop
    vertex 666.3664283542506 1744.227200678331 -30.799186183722753
    vertex 666.3664283815405 1741.4272006783322 -0.6991861796206864
    vertex 666.3664283542506 1744.227200678332 -0.6991861837243467
  endloop
endfacet
facet normal -1.330172927351171e-15 -1.4655924341918955e-09 -1.0
  outer loop
    vertex 729.9664283542506 1744.2272006783285 -30.799186183722835
    vertex 666.3664283815405 1741.427200678331 -30.79918617961909
    vertex 666.3664283542506 1744.227200678331 -30.799186183722753
  endloop
endfacet
facet normal -1.330172927351171e-15 -1.4655924341918955e-09 -1.0
  outer loop
    vertex 666.3664283815405 1741.427200678331 -30.79918617961909
    vertex 729.9664283542506 1744.2272006783285 -30.799186183722835
    vertex 729.9664283815407 1741.4272006783285 -30.799186179619177
  endloop
endfacet
facet normal 1.0 9.74639645827358e-09 -1.4989856225510367e-15
  outer loop
    vertex 729.9664283542506 1744.2272006783285 -30.799186183722835
    vertex 729.9664283815407 1741.4272006783287 -0.6991861796207653
    vertex 729.9664283815407 1741.4272006783285 -30.799186179619177
  endloop
endfacet
facet normal 1.0 9.74639645827358e-09 -1.4989856225510367e-15
  outer loop
    vertex 729.9664283815407 1741.4272006783287 -0.6991861796207653
    vertex 729.9664283542506 1744.2272006783285 -30.799186183722835
    vertex 729.9664283542508 1744.227200678329 -0.6991861837244256
  endloop
endfacet
facet normal -0.997302779307048 -9.612541603702212e-09 0.07339731865972701
  outer loop
    vertex 703.1664283542464 1744.2272043420978 -0.6991807495754352
    vertex 703.0192366606399 1741.4272047877907 -2.6991817676009733
    vertex 703.1664283815363 1741.4272043420979 -0.6991807454717749
  endloop
endfacet
facet normal -0.997302779307048 -9.612541603702212e-09 0.07339731865972701
  outer loop
    vertex 703.0192366606399 1741.4272047877907 -2.6991817676009733
    vertex 703.1664283542464 1744.2272043420978 -0.6991807495754352
    vertex 703.01923663335 1744.227204787791 -2.699181771704634
  endloop
endfacet
facet normal -1.4985374761482627e-07 -3.2321343630587367e-07 -0.9999999999999365
  outer loop
    vertex 727.9664283542508 1744.227200678329 -2.699186183724422
    vertex 703.0192366606399 1741.4272047877907 -2.6991817676009733
    vertex 703.01923663335 1744.227204787791 -2.699181771704634
  endloop
endfacet
facet normal -1.4985374761482627e-07 -3.2321343630587367e-07 -0.9999999999999365
  outer loop
    vertex 703.0192366606399 1741.4272047877907 -2.6991817676009733
    vertex 727.9664283542508 1744.227200678329 -2.699186183724422
    vertex 727.9664283815407 1741.4272006783287 -2.6991861796207615
  endloop
endfacet
facet normal -1.0 -9.74639645827358e-09 1.7287152198768796e-15
  outer loop
    vertex 727.9664283815407 1741.4272006783287 -2.6991861796207615
    vertex 727.9664283542508 1744.2272006783285 -28.799186183722835
    vertex 727.9664283815406 1741.4272006783285 -28.799186179619173
  endloop
endfacet
facet normal -1.0 -9.74639645827358e-09 1.7287152198768796e-15
  outer loop
    vertex 727.9664283542508 1744.2272006783285 -28.799186183722835
    vertex 727.9664283815407 1741.4272006783287 -2.6991861796207615
    vertex 727.9664283542508 1744.227200678329 -2.699186183724422
  endloop
endfacet
facet normal 1.4194462781801084e-15 1.4655924341918965e-09 1.0
  outer loop
    vertex 668.3664283815405 1741.427200678331 -28.799186179619088
    vertex 727.9664283542508 1744.2272006783285 -28.799186183722835
    vertex 668.3664283542505 1744.227200678331 -28.79918618372275
  endloop
endfacet
facet normal 1.4194462781801084e-15 1.4655924341918965e-09 1.0
  outer loop
    vertex 727.9664283542508 1744.2272006783285 -28.799186183722835
    vertex 668.3664283815405 1741.427200678331 -28.799186179619088
    vertex 727.9664283815406 1741.4272006783285 -28.799186179619173
  endloop
endfacet
facet normal 1.0 9.74639645827358e-09 -1.7287154894567612e-15
  outer loop
    vertex 668.3664283542505 1744.227200678331 -28.79918618372275
    vertex 668.3664283815406 1741.4272006783322 -2.699186179620683
    vertex 668.3664283815405 1741.427200678331 -28.799186179619088
  endloop
endfacet
facet normal 1.0 9.74639645827358e-09 -1.7287154894567612e-15
  outer loop
    vertex 668.3664283815406 1741.4272006783322 -2.699186179620683
    vertex 668.3664283542505 1744.227200678331 -28.79918618372275
    vertex 668.3664283542506 1744.227200678332 -2.699186183724343
  endloop
endfacet
facet normal 2.4463786737576793e-08 3.783563246164476e-07 -0.9999999999999283
  outer loop
    vertex 693.3136241034513 1744.2271987661275 -2.6991863685928745
    vertex 668.3664283815406 1741.4272006783322 -2.699186179620683
    vertex 668.3664283542506 1744.227200678332 -2.699186183724343
  endloop
endfacet
facet normal 2.4463786737576793e-08 3.783563246164476e-07 -0.9999999999999283
  outer loop
    vertex 668.3664283815406 1741.4272006783322 -2.699186179620683
    vertex 693.3136241034513 1744.2271987661275 -2.6991863685928745
    vertex 693.3136241307411 1741.4271987661273 -2.699186364489214
  endloop
endfacet
facet normal 0.9973026154203561 9.827684454048711e-09 0.07339954547350563
  outer loop
    vertex 693.3136241307411 1741.4271987661273 -2.699186364489214
    vertex 693.1664283542549 1744.2271970145628 -0.6991916178733372
    vertex 693.1664283815448 1741.4271970145626 -0.6991916137696768
  endloop
endfacet
facet normal 0.9973026154203561 9.827684454048711e-09 0.07339954547350563
  outer loop
    vertex 693.1664283542549 1744.2271970145628 -0.6991916178733372
    vertex 693.3136241307411 1741.4271987661273 -2.699186364489214
    vertex 693.3136241034513 1744.2271987661275 -2.6991863685928745
  endloop
endfacet
facet normal -0.9914448613730458 -0.10822672489034658 0.07296617624962394
  outer loop
    vertex 702.996057485692 1745.300205317135 -1.4226110228319833
    vertex 703.01923663335 1744.227204787791 -2.699181771704634
    vertex 703.1664283542464 1744.2272043420978 -0.6991807495754352
  endloop
endfacet
facet normal -0.9914448613730458 -0.10822672489034658 0.07296617624962394
  outer loop
    vertex 703.01923663335 1744.227204787791 -2.699181771704634
    vertex 702.996057485692 1745.300205317135 -1.4226110228319833
    vertex 702.9960596593452 1744.3731770582096 -2.797591629560707
  endloop
endfacet
facet normal 0.38268343236465985 -0.7660358929653943 0.5164711040148461
  outer loop
    vertex 696.8723331287393 1748.2316943513956 -3.3990654346705376
    vertex 695.6664305279063 1746.8905022434242 -4.4948137607427
    vertex 696.8723353023927 1747.3046660924704 -4.774046041399261
  endloop
endfacet
facet normal 0.38268343236465985 -0.7660358929653943 0.5164711040148461
  outer loop
    vertex 695.6664305279063 1746.8905022434242 -4.4948137607427
    vertex 696.8723331287393 1748.2316943513956 -3.3990654346705376
    vertex 695.666428354253 1747.8175305023494 -3.1198331540139765
  endloop
endfacet
facet normal -0.6087614290082689 -0.6578106210430236 0.44350277270249633
  outer loop
    vertex 701.7019644338338 1746.231668531521 -4.050610704322031
    vertex 700.6664283542488 1747.817534166117 -3.119827719865031
    vertex 700.666430527902 1746.8905059071917 -4.494808326593755
  endloop
endfacet
facet normal -0.6087614290082689 -0.6578106210430236 0.44350277270249633
  outer loop
    vertex 700.6664283542488 1747.817534166117 -3.119827719865031
    vertex 701.7019644338338 1746.231668531521 -4.050610704322031
    vertex 701.7019622601805 1747.1586967904464 -2.6756300975933076
  endloop
endfacet
facet normal -0.9238795325105359 -0.3173032492574701 0.21392815948061977
  outer loop
    vertex 702.996057485692 1745.300205317135 -1.4226110228319833
    vertex 702.4965575468226 1745.3730545403364 -3.471721695548147
    vertex 702.9960596593452 1744.3731770582096 -2.797591629560707
  endloop
endfacet
facet normal -0.9238795325105359 -0.3173032492574701 0.21392815948061977
  outer loop
    vertex 702.4965575468226 1745.3730545403364 -3.471721695548147
    vertex 702.996057485692 1745.300205317135 -1.4226110228319833
    vertex 702.4965553731693 1746.3000827992616 -2.0967410888194236
  endloop
endfacet
facet normal 0.6087614290082484 -0.6578097288988493 0.4435040959425946
  outer loop
    vertex 695.666428354253 1747.8175305023494 -3.1198331540139765
    vertex 694.6308966219743 1746.2316633501714 -4.05061838936917
    vertex 695.6664305279063 1746.8905022434242 -4.4948137607427
  endloop
endfacet
facet normal 0.6087614290082484 -0.6578097288988493 0.4435040959425946
  outer loop
    vertex 694.6308966219743 1746.2316633501714 -4.05061838936917
    vertex 695.666428354253 1747.8175305023494 -3.1198331540139765
    vertex 694.6308944483211 1747.1586916090964 -2.6756377826404467
  endloop
endfacet
facet normal -0.38268343236473995 -0.7660364537906483 0.5164702721913329
  outer loop
    vertex 700.666430527902 1746.8905059071917 -4.494808326593755
    vertex 699.4605235797624 1748.2316962479013 -3.3990626217480493
    vertex 699.4605257534156 1747.304667988976 -4.774043228476772
  endloop
endfacet
facet normal -0.38268343236473995 -0.7660364537906483 0.5164702721913329
  outer loop
    vertex 699.4605235797624 1748.2316962479013 -3.3990626217480493
    vertex 700.666430527902 1746.8905059071917 -4.494808326593755
    vertex 700.6664283542488 1747.817534166117 -3.119827719865031
  endloop
endfacet
facet normal 0.9914448613729556 -0.10822527192247688 0.07296833131206229
  outer loop
    vertex 693.3136241034513 1744.2271987661275 -2.6991863685928745
    vertex 693.3367992228095 1745.3001982392796 -1.4226215208016106
    vertex 693.1664283542549 1744.2271970145628 -0.6991916178733372
  endloop
endfacet
facet normal 0.9914448613729556 -0.10822527192247688 0.07296833131206229
  outer loop
    vertex 693.3367992228095 1745.3001982392796 -1.4226215208016106
    vertex 693.3136241034513 1744.2271987661275 -2.6991863685928745
    vertex 693.3368013964628 1744.3731699803543 -2.7976021275303227
  endloop
endfacet
facet normal -0.7933533402905687 -0.5047560815548459 0.34031129217702316
  outer loop
    vertex 702.4965553731693 1746.3000827992616 -2.0967410888194236
    vertex 701.7019644338338 1746.231668531521 -4.050610704322031
    vertex 702.4965575468226 1745.3730545403364 -3.471721695548147
  endloop
endfacet
facet normal -0.7933533402905687 -0.5047560815548459 0.34031129217702316
  outer loop
    vertex 701.7019644338338 1746.231668531521 -4.050610704322031
    vertex 702.4965553731693 1746.3000827992616 -2.0967410888194236
    vertex 701.7019622601805 1747.1586967904464 -2.6756300975933076
  endloop
endfacet
facet normal 0.7933533402905085 -0.5047549188899693 0.34031301665712566
  outer loop
    vertex 694.6308966219743 1746.2316633501714 -4.05061838936917
    vertex 693.8363013353323 1746.30007645343 -2.096750501041495
    vertex 693.8363035089855 1745.3730481945047 -3.4717311077702186
  endloop
endfacet
facet normal 0.7933533402905085 -0.5047549188899693 0.34031301665712566
  outer loop
    vertex 693.8363013353323 1746.30007645343 -2.096750501041495
    vertex 694.6308966219743 1746.2316633501714 -4.05061838936917
    vertex 694.6308944483211 1747.1586916090964 -2.6756377826404467
  endloop
endfacet
facet normal -0.13052619221995734 -0.8220581681493875 0.5542411761349316
  outer loop
    vertex 699.4605257534156 1747.304667988976 -4.774043228476772
    vertex 698.1664283542509 1748.3729585743613 -3.494305406136527
    vertex 698.166430527904 1747.445930315436 -4.86928601286525
  endloop
endfacet
facet normal -0.13052619221995734 -0.8220581681493875 0.5542411761349316
  outer loop
    vertex 698.1664283542509 1748.3729585743613 -3.494305406136527
    vertex 699.4605257534156 1747.304667988976 -4.774043228476772
    vertex 699.4605235797624 1748.2316962479013 -3.3990626217480493
  endloop
endfacet
facet normal 0.9238795325104832 -0.3173018953055748 0.213930167680253
  outer loop
    vertex 693.8363035089855 1745.3730481945047 -3.4717311077702186
    vertex 693.3367992228095 1745.3001982392796 -1.4226215208016106
    vertex 693.3368013964628 1744.3731699803543 -2.7976021275303227
  endloop
endfacet
facet normal 0.9238795325104832 -0.3173018953055748 0.213930167680253
  outer loop
    vertex 693.3367992228095 1745.3001982392796 -1.4226215208016106
    vertex 693.8363035089855 1745.3730481945047 -3.4717311077702186
    vertex 693.8363013353323 1746.30007645343 -2.096750501041495
  endloop
endfacet
facet normal -1.0325069532019273e-07 5.503028121089557e-07 0.9999999999998432
  outer loop
    vertex 666.3664283815405 1741.4272006783322 -0.6991861796206864
    vertex 690.166428354255 1744.2271970145628 -0.6991916178733372
    vertex 666.3664283542506 1744.227200678332 -0.6991861837243467
  endloop
endfacet
facet normal -1.0325069532019273e-07 5.503028121089557e-07 0.9999999999998432
  outer loop
    vertex 690.166428354255 1744.2271970145628 -0.6991916178733372
    vertex 666.3664283815405 1741.4272006783322 -0.6991861796206864
    vertex 693.1664283815448 1741.4271970145626 -0.6991916137696768
  endloop
endfacet
facet normal -1.0325069532019273e-07 5.503028121089557e-07 0.9999999999998432
  outer loop
    vertex 690.166428354255 1744.2271970145628 -0.6991916178733372
    vertex 693.1664283815448 1741.4271970145626 -0.6991916137696768
    vertex 690.4390252828688 1746.2977520908976 -0.6991929891405593
  endloop
endfacet
facet normal -1.0325069532019273e-07 5.503028121089557e-07 0.9999999999998432
  outer loop
    vertex 690.4390252828688 1746.2977520908976 -0.6991929891405593
    vertex 693.1664283815448 1741.4271970145626 -0.6991916137696768
    vertex 691.2382282968948 1748.227198846446 -0.6991937413685134
  endloop
endfacet
facet normal -1.0325069532019273e-07 5.503028121089557e-07 0.9999999999998432
  outer loop
    vertex 691.2382282968948 1748.227198846446 -0.6991937413685134
    vertex 693.1664283815448 1741.4271970145626 -0.6991916137696768
    vertex 692.5095766954375 1749.8840523371468 -0.6991939785555221
  endloop
endfacet
facet normal -1.0325069532019273e-07 5.503028121089557e-07 0.9999999999998432
  outer loop
    vertex 692.5095766954375 1749.8840523371468 -0.6991939785555221
    vertex 693.1664283815448 1741.4271970145626 -0.6991916137696768
    vertex 693.1664283542549 1744.2271970145628 -0.6991916178733372
  endloop
endfacet
facet normal -1.0325069532019273e-07 5.503028121089557e-07 0.9999999999998432
  outer loop
    vertex 692.5095766954375 1749.8840523371468 -0.6991939785555221
    vertex 693.3367982745561 1745.521292364916 -0.6991896872543819
    vertex 694.1664301861391 1751.1554007356885 -0.6991936845376613
  endloop
endfacet
facet normal -1.0325069532019273e-07 5.503028121089557e-07 0.9999999999998432
  outer loop
    vertex 693.3367982745561 1745.521292364916 -0.6991896872543819
    vertex 692.5095766954375 1749.8840523371468 -0.6991939785555221
    vertex 693.1664283542549 1744.2271970145628 -0.6991916178733372
  endloop
endfacet
facet normal -1.0325069532019273e-07 5.503028121089557e-07 0.9999999999998432
  outer loop
    vertex 694.1664301861391 1751.1554007356885 -0.6991936845376613
    vertex 693.3367982745561 1745.521292364916 -0.6991896872543819
    vertex 693.8362995034488 1746.7271975054146 -0.6991902349513741
  endloop
endfacet
facet normal -1.0325069532019273e-07 5.503028121089557e-07 0.9999999999998432
  outer loop
    vertex 694.1664301861391 1751.1554007356885 -0.6991936845376613
    vertex 693.8362995034488 1746.7271975054146 -0.6991902349513741
    vertex 694.6308918576476 1747.7627319935873 -0.6991905065639357
  endloop
endfacet
facet normal -1.0325069532019273e-07 5.503028121089557e-07 0.9999999999998432
  outer loop
    vertex 694.1664301861391 1751.1554007356885 -0.6991936845376613
    vertex 694.6308918576476 1747.7627319935873 -0.6991905065639357
    vertex 696.0958769416878 1751.9546037497134 -0.699192879351763
  endloop
endfacet
facet normal -1.0325069532019273e-07 5.503028121089557e-07 0.9999999999998432
  outer loop
    vertex 696.0958769416878 1751.9546037497134 -0.699192879351763
    vertex 694.6308918576476 1747.7627319935873 -0.6991905065639357
    vertex 695.6664251813394 1748.557325865367 -0.6991904835821225
  endloop
endfacet
facet normal -1.0325069532019273e-07 5.503028121089557e-07 0.9999999999998432
  outer loop
    vertex 696.0958769416878 1751.9546037497134 -0.699192879351763
    vertex 695.6664251813394 1748.557325865367 -0.6991904835821225
    vertex 696.8723295898145 1749.0568288615204 -0.6991901675721214
  endloop
endfacet
facet normal -1.0325069532019273e-07 5.503028121089557e-07 0.9999999999998432
  outer loop
    vertex 696.0958769416878 1751.9546037497134 -0.699192879351763
    vertex 696.8723295898145 1749.0568288615204 -0.6991901675721214
    vertex 698.166428354255 1752.227197014561 -0.6991916178699419
  endloop
endfacet
facet normal -1.0325069532019273e-07 5.503028121089557e-07 0.9999999999998432
  outer loop
    vertex 698.166428354255 1752.227197014561 -0.6991916178699419
    vertex 696.8723295898145 1749.0568288615204 -0.6991901675721214
    vertex 698.1664246904867 1749.227200678327 -0.699189580069475
  endloop
endfacet
facet normal -1.0325069532019273e-07 5.503028121089557e-07 0.9999999999998432
  outer loop
    vertex 698.166428354255 1752.227197014561 -0.6991916178699419
    vertex 698.1664246904867 1749.227200678327 -0.699189580069475
    vertex 699.4605200408383 1749.056830758025 -0.6991887611115146
  endloop
endfacet
facet normal -1.0325069532019273e-07 5.503028121089557e-07 0.9999999999998432
  outer loop
    vertex 698.166428354255 1752.227197014561 -0.6991916178699419
    vertex 699.4605200408383 1749.056830758025 -0.6991887611115146
    vertex 700.2369797668216 1751.9546037497134 -0.699189986060072
  endloop
endfacet
facet normal -1.0325069532019273e-07 5.503028121089557e-07 0.9999999999998432
  outer loop
    vertex 700.2369797668216 1751.9546037497134 -0.699189986060072
    vertex 699.4605200408383 1749.056830758025 -0.6991887611115146
    vertex 700.6664251813366 1748.5573295291329 -0.6991877665088962
  endloop
endfacet
facet normal -1.0325069532019273e-07 5.503028121089557e-07 0.9999999999998432
  outer loop
    vertex 700.2369797668216 1751.9546037497134 -0.699189986060072
    vertex 700.6664251813366 1748.5573295291329 -0.6991877665088962
    vertex 702.1664265223695 1751.155400735688 -0.699188095127306
  endloop
endfacet
facet normal -1.0325069532019273e-07 5.503028121089557e-07 0.9999999999998432
  outer loop
    vertex 702.1664265223695 1751.155400735688 -0.699188095127306
    vertex 700.6664251813366 1748.5573295291329 -0.6991877665088962
    vertex 701.7019596695092 1747.7627371749343 -0.69918666404212
  endloop
endfacet
facet normal -1.0325069532019273e-07 5.503028121089557e-07 0.9999999999998432
  outer loop
    vertex 702.1664265223695 1751.155400735688 -0.699188095127306
    vertex 701.7019596695092 1747.7627371749343 -0.69918666404212
    vertex 702.4965535412884 1746.727203851243 -0.6991855288424814
  endloop
endfacet
facet normal -1.0325069532019273e-07 5.503028121089557e-07 0.9999999999998432
  outer loop
    vertex 702.1664265223695 1751.155400735688 -0.699188095127306
    vertex 702.4965535412884 1746.727203851243 -0.6991855288424814
    vertex 703.8232800130697 1749.8840523371462 -0.6991860739355955
  endloop
endfacet
facet normal -1.0325069532019273e-07 5.503028121089557e-07 0.9999999999998432
  outer loop
    vertex 703.8232800130697 1749.8840523371462 -0.6991860739355955
    vertex 702.4965535412884 1746.727203851243 -0.6991855288424814
    vertex 702.9960565374414 1745.5212994427682 -0.6991844382719707
  endloop
endfacet
facet normal -1.0325069532019273e-07 5.503028121089557e-07 0.9999999999998432
  outer loop
    vertex 703.8232800130697 1749.8840523371462 -0.6991860739355955
    vertex 702.9960565374414 1745.5212994427682 -0.6991844382719707
    vertex 703.1664283542464 1744.2272043420978 -0.6991807495754352
  endloop
endfacet
facet normal -1.0325069532019273e-07 5.503028121089557e-07 0.9999999999998432
  outer loop
    vertex 703.8232800130697 1749.8840523371462 -0.6991860739355955
    vertex 703.1664283542464 1744.2272043420978 -0.6991807495754352
    vertex 703.1664283815363 1741.4272043420979 -0.6991807454717749
  endloop
endfacet
facet normal -1.0325069532019273e-07 5.503028121089557e-07 0.9999999999998432
  outer loop
    vertex 703.8232800130697 1749.8840523371462 -0.6991860739355955
    vertex 703.1664283815363 1741.4272043420979 -0.6991807454717749
    vertex 706.1664283542465 1744.2272043420946 -0.6991807495754352
  endloop
endfacet
facet normal -1.0325069532019273e-07 5.503028121089557e-07 0.9999999999998432
  outer loop
    vertex 706.1664283542465 1744.2272043420946 -0.6991807495754352
    vertex 703.1664283815363 1741.4272043420979 -0.6991807454717749
    vertex 729.9664283815407 1741.4272006783287 -0.6991861796207653
  endloop
endfacet
facet normal -1.0325069532019273e-07 5.503028121089557e-07 0.9999999999998432
  outer loop
    vertex 703.8232800130697 1749.8840523371462 -0.6991860739355955
    vertex 706.1664283542465 1744.2272043420946 -0.6991807495754352
    vertex 705.0946284116108 1748.2271988464452 -0.699184060225809
  endloop
endfacet
facet normal -1.0325069532019273e-07 5.503028121089557e-07 0.9999999999998432
  outer loop
    vertex 705.0946284116108 1748.2271988464452 -0.699184060225809
    vertex 706.1664283542465 1744.2272043420946 -0.6991807495754352
    vertex 705.8938314256347 1746.297752090897 -0.6991821912289418
  endloop
endfacet
facet normal -1.0325069532019273e-07 5.503028121089557e-07 0.9999999999998432
  outer loop
    vertex 706.1664283542465 1744.2272043420946 -0.6991807495754352
    vertex 729.9664283815407 1741.4272006783287 -0.6991861796207653
    vertex 729.9664283542508 1744.227200678329 -0.6991861837244256
  endloop
endfacet
facet normal 0.9906569986964973 -0.13042178910795718 0.039860605358271864
  outer loop
    vertex 693.3367982745561 1745.521292364916 -0.6991896872543819
    vertex 693.1664283542549 1744.2271970145628 -0.6991916178733372
    vertex 693.3367992228095 1745.3001982392796 -1.4226215208016106
  endloop
endfacet
facet normal 0.9176251235211688 -0.3800920119022806 0.11616451769295386
  outer loop
    vertex 693.8363013353323 1746.30007645343 -2.096750501041495
    vertex 693.3367982745561 1745.521292364916 -0.6991896872543819
    vertex 693.3367992228095 1745.3001982392796 -1.4226215208016106
  endloop
endfacet
facet normal 0.9176251235211688 -0.3800920119022806 0.11616451769295386
  outer loop
    vertex 693.3367982745561 1745.521292364916 -0.6991896872543819
    vertex 693.8363013353323 1746.30007645343 -2.096750501041495
    vertex 693.8362995034488 1746.7271975054146 -0.6991902349513741
  endloop
endfacet
facet normal 0.7799694251356806 -0.5984907336560505 0.18291128336261442
  outer loop
    vertex 694.6308944483211 1747.1586916090964 -2.6756377826404467
    vertex 693.8362995034488 1746.7271975054146 -0.6991902349513741
    vertex 693.8363013353323 1746.30007645343 -2.096750501041495
  endloop
endfacet
facet normal 0.7799694251356806 -0.5984907336560505 0.18291128336261442
  outer loop
    vertex 693.8362995034488 1746.7271975054146 -0.6991902349513741
    vertex 694.6308944483211 1747.1586916090964 -2.6756377826404467
    vertex 694.6308918576476 1747.7627319935873 -0.6991905065639357
  endloop
endfacet
facet normal 0.5916198615514305 -0.7710129829079277 0.2356372627690405
  outer loop
    vertex 695.6664251813394 1748.557325865367 -0.6991904835821225
    vertex 694.6308944483211 1747.1586916090964 -2.6756377826404467
    vertex 695.666428354253 1747.8175305023494 -3.1198331540139765
  endloop
endfacet
facet normal 0.5916198615514305 -0.7710129829079277 0.2356372627690405
  outer loop
    vertex 694.6308944483211 1747.1586916090964 -2.6756377826404467
    vertex 695.6664251813394 1748.557325865367 -0.6991904835821225
    vertex 694.6308918576476 1747.7627319935873 -0.6991905065639357
  endloop
endfacet
facet normal 0.3682847287998698 -0.889116524473396 0.2717317876899121
  outer loop
    vertex 696.8723295898145 1749.0568288615204 -0.6991901675721214
    vertex 695.666428354253 1747.8175305023494 -3.1198331540139765
    vertex 696.8723331287393 1748.2316943513956 -3.3990654346705376
  endloop
endfacet
facet normal 0.3682847287998698 -0.889116524473396 0.2717317876899121
  outer loop
    vertex 695.666428354253 1747.8175305023494 -3.1198331540139765
    vertex 696.8723295898145 1749.0568288615204 -0.6991901675721214
    vertex 695.6664251813394 1748.557325865367 -0.6991904835821225
  endloop
endfacet
facet normal -0.1249171980305353 -0.9488436907107928 0.28998507588240063
  outer loop
    vertex 699.4605235797624 1748.2316962479013 -3.3990626217480493
    vertex 698.1664246904867 1749.227200678327 -0.699189580069475
    vertex 698.1664283542509 1748.3729585743613 -3.494305406136527
  endloop
endfacet
facet normal -0.1249171980305353 -0.9488436907107928 0.28998507588240063
  outer loop
    vertex 698.1664246904867 1749.227200678327 -0.699189580069475
    vertex 699.4605235797624 1748.2316962479013 -3.3990626217480493
    vertex 699.4605200408383 1749.056830758025 -0.6991887611115146
  endloop
endfacet
facet normal -0.3682838888099863 -0.8891170526227863 0.27173119802180135
  outer loop
    vertex 700.6664283542488 1747.817534166117 -3.119827719865031
    vertex 699.4605200408383 1749.056830758025 -0.6991887611115146
    vertex 699.4605235797624 1748.2316962479013 -3.3990626217480493
  endloop
endfacet
facet normal -0.3682838888099863 -0.8891170526227863 0.27173119802180135
  outer loop
    vertex 699.4605200408383 1749.056830758025 -0.6991887611115146
    vertex 700.6664283542488 1747.817534166117 -3.119827719865031
    vertex 700.6664251813366 1748.5573295291329 -0.6991877665088962
  endloop
endfacet
facet normal -0.5916191605904044 -0.7710138127625067 0.23563630737160945
  outer loop
    vertex 701.7019622601805 1747.1586967904464 -2.6756300975933076
    vertex 700.6664251813366 1748.5573295291329 -0.6991877665088962
    vertex 700.6664283542488 1747.817534166117 -3.119827719865031
  endloop
endfacet
facet normal -0.5916191605904044 -0.7710138127625067 0.23563630737160945
  outer loop
    vertex 700.6664251813366 1748.5573295291329 -0.6991877665088962
    vertex 701.7019622601805 1747.1586967904464 -2.6756300975933076
    vertex 701.7019596695092 1747.7627371749343 -0.69918666404212
  endloop
endfacet
facet normal -0.7799689066996497 -0.5984917994541931 0.18291000674603614
  outer loop
    vertex 702.4965535412884 1746.727203851243 -0.6991855288424814
    vertex 701.7019622601805 1747.1586967904464 -2.6756300975933076
    vertex 702.4965553731693 1746.3000827992616 -2.0967410888194236
  endloop
endfacet
facet normal -0.7799689066996497 -0.5984917994541931 0.18291000674603614
  outer loop
    vertex 701.7019622601805 1747.1586967904464 -2.6756300975933076
    vertex 702.4965535412884 1746.727203851243 -0.6991855288424814
    vertex 701.7019596695092 1747.7627371749343 -0.69918666404212
  endloop
endfacet
facet normal -0.9906569056228518 -0.13042308075140605 0.03985869226490261
  outer loop
    vertex 702.9960565374414 1745.5212994427682 -0.6991844382719707
    vertex 702.996057485692 1745.300205317135 -1.4226110228319833
    vertex 703.1664283542464 1744.2272043420978 -0.6991807495754352
  endloop
endfacet
facet normal -0.9176248090216931 -0.3800932426892446 0.11616297486667729
  outer loop
    vertex 702.9960565374414 1745.5212994427682 -0.6991844382719707
    vertex 702.4965553731693 1746.3000827992616 -2.0967410888194236
    vertex 702.996057485692 1745.300205317135 -1.4226110228319833
  endloop
endfacet
facet normal -0.9176248090216931 -0.3800932426892446 0.11616297486667729
  outer loop
    vertex 702.4965553731693 1746.3000827992616 -2.0967410888194236
    vertex 702.9960565374414 1745.5212994427682 -0.6991844382719707
    vertex 702.4965535412884 1746.727203851243 -0.6991855288424814
  endloop
endfacet
facet normal 0.1305261922199195 -0.8220579768623212 0.5542414598544536
  outer loop
    vertex 698.1664283542509 1748.3729585743613 -3.494305406136527
    vertex 696.8723353023927 1747.3046660924704 -4.774046041399261
    vertex 698.166430527904 1747.445930315436 -4.86928601286525
  endloop
endfacet
facet normal 0.1305261922199195 -0.8220579768623212 0.5542414598544536
  outer loop
    vertex 696.8723353023927 1747.3046660924704 -4.774046041399261
    vertex 698.1664283542509 1748.3729585743613 -3.494305406136527
    vertex 696.8723331287393 1748.2316943513956 -3.3990654346705376
  endloop
endfacet
facet normal 0.12491811336144207 -0.9488435093457186 0.28998527501705856
  outer loop
    vertex 698.1664246904867 1749.227200678327 -0.699189580069475
    vertex 696.8723331287393 1748.2316943513956 -3.3990654346705376
    vertex 698.1664283542509 1748.3729585743613 -3.494305406136527
  endloop
endfacet
facet normal 0.12491811336144207 -0.9488435093457186 0.28998527501705856
  outer loop
    vertex 696.8723331287393 1748.2316943513956 -3.3990654346705376
    vertex 698.1664246904867 1749.227200678327 -0.699189580069475
    vertex 696.8723295898145 1749.0568288615204 -0.6991901675721214
  endloop
endfacet
facet normal -1.3037221651422125e-06 0.5590238444809529 0.8291515792061399
  outer loop
    vertex 666.3664283542506 1744.227200678332 -0.6991861837243467
    vertex 754.9664281996131 1799.8472006783375 -38.1987329752098
    vertex 641.3664283542673 1799.8475230294268 -38.19918618372442
  endloop
endfacet
facet normal -1.3037221651422125e-06 0.5590238444809529 0.8291515792061399
  outer loop
    vertex 754.9664281996131 1799.8472006783375 -38.1987329752098
    vertex 666.3664283542506 1744.227200678332 -0.6991861837243467
    vertex 692.5095741018575 1748.9175861651472 -3.861508740365779
  endloop
endfacet
facet normal -1.3037221651422125e-06 0.5590238444809529 0.8291515792061399
  outer loop
    vertex 692.5095741018575 1748.9175861651472 -3.861508740365779
    vertex 666.3664283542506 1744.227200678332 -0.6991861837243467
    vertex 691.2382251219266 1747.543801915539 -2.9352890894423833
  endloop
endfacet
facet normal -1.3037221651422125e-06 0.5590238444809529 0.8291515792061399
  outer loop
    vertex 691.2382251219266 1747.543801915539 -2.9352890894423833
    vertex 666.3664283542506 1744.227200678332 -0.6991861837243467
    vertex 690.4390217428812 1745.943996772558 -1.8566827208290908
  endloop
endfacet
facet normal -1.3037221651422125e-06 0.5590238444809529 0.8291515792061399
  outer loop
    vertex 690.4390217428812 1745.943996772558 -1.8566827208290908
    vertex 666.3664283542506 1744.227200678332 -0.6991861837243467
    vertex 690.166428354255 1744.2271970145628 -0.6991916178733372
  endloop
endfacet
facet normal -1.3037221651422125e-06 0.5590238444809529 0.8291515792061399
  outer loop
    vertex 754.9664281996131 1799.8472006783375 -38.1987329752098
    vertex 692.5095741018575 1748.9175861651472 -3.861508740365779
    vertex 694.1664283506956 1749.9717283950567 -4.572221335039163
  endloop
endfacet
facet normal -1.3037221651422125e-06 0.5590238444809529 0.8291515792061399
  outer loop
    vertex 754.9664281996131 1799.8472006783375 -38.1987329752098
    vertex 694.1664283506956 1749.9717283950567 -4.572221335039163
    vertex 696.0958759894633 1750.6343905543529 -5.018992984643665
  endloop
endfacet
facet normal -1.3037221651422125e-06 0.5590238444809529 0.8291515792061399
  outer loop
    vertex 754.9664281996131 1799.8472006783375 -38.1987329752098
    vertex 696.0958759894633 1750.6343905543529 -5.018992984643665
    vertex 698.1664283501417 1750.8604133119798 -5.171376939583794
  endloop
endfacet
facet normal -1.3037221651422125e-06 0.5590238444809529 0.8291515792061399
  outer loop
    vertex 754.9664281996131 1799.8472006783375 -38.1987329752098
    vertex 698.1664283501417 1750.8604133119798 -5.171376939583794
    vertex 700.2369807111002 1750.6343935905259 -5.018988485156763
  endloop
endfacet
facet normal -1.3037221651422125e-06 0.5590238444809529 0.8291515792061399
  outer loop
    vertex 754.9664281996131 1799.8472006783375 -38.1987329752098
    vertex 700.2369807111002 1750.6343935905259 -5.018988485156763
    vertex 702.1664283506889 1749.9717342604922 -4.572212642697966
  endloop
endfacet
facet normal -1.3037221651422125e-06 0.5590238444809529 0.8291515792061399
  outer loop
    vertex 754.9664281996131 1799.8472006783375 -38.1987329752098
    vertex 702.1664283506889 1749.9717342604922 -4.572212642697966
    vertex 703.8232826008328 1748.9175944601252 -3.8614964475389555
  endloop
endfacet
facet normal -1.3037221651422125e-06 0.5590238444809529 0.8291515792061399
  outer loop
    vertex 754.9664281996131 1799.8472006783375 -38.1987329752098
    vertex 703.8232826008328 1748.9175944601252 -3.8614964475389555
    vertex 705.0946315824657 1747.543812074771 -2.935274033865791
  endloop
endfacet
facet normal -1.3037221651422125e-06 0.5590238444809529 0.8291515792061399
  outer loop
    vertex 754.9664281996131 1799.8472006783375 -38.1987329752098
    vertex 705.0946315824657 1747.543812074771 -2.935274033865791
    vertex 705.8938349634932 1745.944008103709 -1.8566659285153757
  endloop
endfacet
facet normal -1.3037221651422125e-06 0.5590238444809529 0.8291515792061399
  outer loop
    vertex 754.9664281996131 1799.8472006783375 -38.1987329752098
    vertex 705.8938349634932 1745.944008103709 -1.8566659285153757
    vertex 706.1664283542465 1744.2272043420946 -0.6991807495754352
  endloop
endfacet
facet normal -1.3037221651422125e-06 0.5590238444809529 0.8291515792061399
  outer loop
    vertex 754.9664281996131 1799.8472006783375 -38.1987329752098
    vertex 706.1664283542465 1744.2272043420946 -0.6991807495754352
    vertex 729.9664283542508 1744.227200678329 -0.6991861837244256
  endloop
endfacet
facet normal -0.9906568397471515 0.13042394295937687 -0.039857508265266677
  outer loop
    vertex 690.4390252828688 1746.2977520908976 -0.6991929891405593
    vertex 690.4390217428812 1745.943996772558 -1.8566827208290908
    vertex 690.166428354255 1744.2271970145628 -0.6991916178733372
  endloop
endfacet
facet normal -0.917624971992691 0.380092902995367 -0.1161627989847334
  outer loop
    vertex 690.4390252828688 1746.2977520908976 -0.6991929891405593
    vertex 691.2382251219266 1747.543801915539 -2.9352890894423833
    vertex 690.4390217428812 1745.943996772558 -1.8566827208290908
  endloop
endfacet
facet normal -0.917624971992691 0.380092902995367 -0.1161627989847334
  outer loop
    vertex 691.2382251219266 1747.543801915539 -2.9352890894423833
    vertex 690.4390252828688 1746.2977520908976 -0.6991929891405593
    vertex 691.2382282968948 1748.227198846446 -0.6991937413685134
  endloop
endfacet
facet normal -0.77996918800487 0.5984913708495023 -0.18291020961583185
  outer loop
    vertex 691.2382282968948 1748.227198846446 -0.6991937413685134
    vertex 692.5095741018575 1748.9175861651472 -3.861508740365779
    vertex 691.2382251219266 1747.543801915539 -2.9352890894423833
  endloop
endfacet
facet normal -0.77996918800487 0.5984913708495023 -0.18291020961583185
  outer loop
    vertex 692.5095741018575 1748.9175861651472 -3.861508740365779
    vertex 691.2382282968948 1748.227198846446 -0.6991937413685134
    vertex 692.5095766954375 1749.8840523371468 -0.6991939785555221
  endloop
endfacet
facet normal -0.5916195581502687 0.7710134657568405 -0.23563644462541464
  outer loop
    vertex 692.5095741018575 1748.9175861651472 -3.861508740365779
    vertex 694.1664301861391 1751.1554007356885 -0.6991936845376613
    vertex 694.1664283506956 1749.9717283950567 -4.572221335039163
  endloop
endfacet
facet normal -0.5916195581502687 0.7710134657568405 -0.23563644462541464
  outer loop
    vertex 694.1664301861391 1751.1554007356885 -0.6991936845376613
    vertex 692.5095741018575 1748.9175861651472 -3.861508740365779
    vertex 692.5095766954375 1749.8840523371468 -0.6991939785555221
  endloop
endfacet
facet normal -0.3682843809199547 0.8891168882531569 -0.27173106887772125
  outer loop
    vertex 694.1664283506956 1749.9717283950567 -4.572221335039163
    vertex 696.0958769416878 1751.9546037497134 -0.699192879351763
    vertex 696.0958759894633 1750.6343905543529 -5.018992984643665
  endloop
endfacet
facet normal -0.3682843809199547 0.8891168882531569 -0.27173106887772125
  outer loop
    vertex 696.0958769416878 1751.9546037497134 -0.699192879351763
    vertex 694.1664283506956 1749.9717283950567 -4.572221335039163
    vertex 694.1664301861391 1751.1554007356885 -0.6991936845376613
  endloop
endfacet
facet normal -0.12491774330509448 0.9488437727700045 -0.2899845724916182
  outer loop
    vertex 696.0958759894633 1750.6343905543529 -5.018992984643665
    vertex 698.166428354255 1752.227197014561 -0.6991916178699419
    vertex 698.1664283501417 1750.8604133119798 -5.171376939583794
  endloop
endfacet
facet normal -0.12491774330509448 0.9488437727700045 -0.2899845724916182
  outer loop
    vertex 698.166428354255 1752.227197014561 -0.6991916178699419
    vertex 696.0958759894633 1750.6343905543529 -5.018992984643665
    vertex 696.0958769416878 1751.9546037497134 -0.699192879351763
  endloop
endfacet
facet normal 0.12491756808693132 0.9488438692291121 -0.2899843323518953
  outer loop
    vertex 698.166428354255 1752.227197014561 -0.6991916178699419
    vertex 700.2369807111002 1750.6343935905259 -5.018988485156763
    vertex 698.1664283501417 1750.8604133119798 -5.171376939583794
  endloop
endfacet
facet normal 0.12491756808693132 0.9488438692291121 -0.2899843323518953
  outer loop
    vertex 700.2369807111002 1750.6343935905259 -5.018988485156763
    vertex 698.166428354255 1752.227197014561 -0.6991916178699419
    vertex 700.2369797668216 1751.9546037497134 -0.699189986060072
  endloop
endfacet
facet normal 0.3682842366898724 0.8891171644818117 -0.2717303605223037
  outer loop
    vertex 700.2369797668216 1751.9546037497134 -0.699189986060072
    vertex 702.1664283506889 1749.9717342604922 -4.572212642697966
    vertex 700.2369807111002 1750.6343935905259 -5.018988485156763
  endloop
endfacet
facet normal 0.3682842366898724 0.8891171644818117 -0.2717303605223037
  outer loop
    vertex 702.1664283506889 1749.9717342604922 -4.572212642697966
    vertex 700.2369797668216 1751.9546037497134 -0.699189986060072
    vertex 702.1664265223695 1751.155400735688 -0.699188095127306
  endloop
endfacet
facet normal 0.591619463990688 0.7710138852522598 -0.23563530842296557
  outer loop
    vertex 702.1664265223695 1751.155400735688 -0.699188095127306
    vertex 703.8232826008328 1748.9175944601252 -3.8614964475389555
    vertex 702.1664283506889 1749.9717342604922 -4.572212642697966
  endloop
endfacet
facet normal 0.591619463990688 0.7710138852522598 -0.23563530842296557
  outer loop
    vertex 703.8232826008328 1748.9175944601252 -3.8614964475389555
    vertex 702.1664265223695 1751.155400735688 -0.699188095127306
    vertex 703.8232800130697 1749.8840523371462 -0.6991860739355955
  endloop
endfacet
facet normal 0.7799691438296076 0.5984918807198076 -0.1829087296609337
  outer loop
    vertex 703.8232826008328 1748.9175944601252 -3.8614964475389555
    vertex 705.0946284116108 1748.2271988464452 -0.699184060225809
    vertex 705.0946315824657 1747.543812074771 -2.935274033865791
  endloop
endfacet
facet normal 0.7799691438296076 0.5984918807198076 -0.1829087296609337
  outer loop
    vertex 705.0946284116108 1748.2271988464452 -0.699184060225809
    vertex 703.8232826008328 1748.9175944601252 -3.8614964475389555
    vertex 703.8232800130697 1749.8840523371462 -0.6991860739355955
  endloop
endfacet
facet normal 0.9176249605473631 0.3800934311716281 -0.11616116115392879
  outer loop
    vertex 705.0946315824657 1747.543812074771 -2.935274033865791
    vertex 705.8938314256347 1746.297752090897 -0.6991821912289418
    vertex 705.8938349634932 1745.944008103709 -1.8566659285153757
  endloop
endfacet
facet normal 0.9176249605473631 0.3800934311716281 -0.11616116115392879
  outer loop
    vertex 705.8938314256347 1746.297752090897 -0.6991821912289418
    vertex 705.0946315824657 1747.543812074771 -2.935274033865791
    vertex 705.0946284116108 1748.2271988464452 -0.699184060225809
  endloop
endfacet
facet normal 0.9906568169236397 0.13042440016100845 -0.039856579448864546
  outer loop
    vertex 705.8938314256347 1746.297752090897 -0.6991821912289418
    vertex 706.1664283542465 1744.2272043420946 -0.6991807495754352
    vertex 705.8938349634932 1745.944008103709 -1.8566659285153757
  endloop
endfacet
endsolid Pet Feeder
