solid Pet Feeder
facet normal 0.8877282268159723 0.46036789127193656 -2.5813629895024328e-14
  outer loop
    vertex 643.389479282895 1799.8477795482509 -59.79999999999989
    vertex 643.3894792828954 1799.8477795482509 -40.20000000000002
    vertex 679.8464283567105 1729.5477795482514 -4.0000000440860175
  endloop
endfacet
facet normal 0.8877282268159723 0.46036789127193656 -2.5813629895024328e-14
  outer loop
    vertex 643.3894792828954 1799.8477795482509 -40.20000000000002
    vertex 643.389479282895 1799.8477795482509 -59.79999999999989
    vertex 643.3894792828954 1799.8477795482509 -49.99999999999995
  endloop
endfacet
facet normal 0.7046017132146122 -1.4505871279120472e-14 -0.7096030057257603
  outer loop
    vertex 679.8464283567108 1756.1473550222547 -4.000000044086198
    vertex 679.8464283567105 1729.5477795482514 -4.0000000440860175
    vertex 643.3894792828954 1799.8477795482509 -40.20000000000002
  endloop
endfacet
facet normal 0.7046017132146122 -1.4505871279120472e-14 -0.7096030057257603
  outer loop
    vertex 679.8464283567105 1729.5477795482514 -4.0000000440860175
    vertex 679.8464283567108 1756.1473550222547 -4.000000044086198
    vertex 679.8464283567108 1742.847567285253 -4.000000044086198
  endloop
endfacet
facet normal 0.0 1.0 0.0
  outer loop
    vertex 677.8464283567107 1758.147355022255 -4.4086205441828946e-08
    vertex 754.9464282020565 1758.1470326711656 -3.999546835571619
    vertex 677.8464283567107 1758.147355022255 -4.000000044086198
  endloop
endfacet
facet normal 0.0 1.0 0.0
  outer loop
    vertex 754.9464282020565 1758.1470326711656 -3.999546835571619
    vertex 677.8464283567107 1758.147355022255 -4.4086205441828946e-08
    vertex 754.9464282020565 1758.1470326711656 0.00045316442837375345
  endloop
endfacet
facet normal 0.0 -1.0 0.0
  outer loop
    vertex 752.9464283567106 1756.1473550222547 -4.408625056129267e-08
    vertex 679.8464283567108 1756.1473550222547 -4.000000044086198
    vertex 752.9464283567106 1756.1473550222547 -4.000000044086243
  endloop
endfacet
facet normal 0.0 -1.0 0.0
  outer loop
    vertex 679.8464283567108 1756.1473550222547 -4.000000044086198
    vertex 752.9464283567106 1756.1473550222547 -4.408625056129267e-08
    vertex 679.8464283567108 1756.1473550222547 -4.4086205441828946e-08
  endloop
endfacet
facet normal 0.0 0.0 -1.0
  outer loop
    vertex 752.9894792828952 1803.8477795482509 -40.20000000000002
    vertex 643.3894792828954 1799.8477795482509 -40.20000000000002
    vertex 643.3894792828954 1803.8477795482509 -40.20000000000002
  endloop
endfacet
facet normal 0.0 0.0 -1.0
  outer loop
    vertex 643.3894792828954 1799.8477795482509 -40.20000000000002
    vertex 752.9894792828952 1803.8477795482509 -40.20000000000002
    vertex 752.9894792828952 1799.8477795482509 -40.20000000000002
  endloop
endfacet
facet normal -1.3743151039718113e-16 -0.6379246230708255 -0.770098808777124
  outer loop
    vertex 752.9894792828952 1799.8477795482509 -40.20000000000002
    vertex 679.8464283567108 1756.1473550222547 -4.000000044086198
    vertex 643.3894792828954 1799.8477795482509 -40.20000000000002
  endloop
endfacet
facet normal -1.3743151039718113e-16 -0.6379246230708255 -0.770098808777124
  outer loop
    vertex 679.8464283567108 1756.1473550222547 -4.000000044086198
    vertex 752.9894792828952 1799.8477795482509 -40.20000000000002
    vertex 752.9464283567106 1756.1473550222547 -4.000000044086243
  endloop
endfacet
facet normal 0.0 0.0 1.0
  outer loop
    vertex 754.9894791282412 1799.8474571971615 -38.1995467914854
    vertex 641.3894792828954 1803.8477795482509 -38.20000000000002
    vertex 641.3894792828954 1799.8477795482509 -38.20000000000002
  endloop
endfacet
facet normal 0.0 0.0 1.0
  outer loop
    vertex 641.3894792828954 1803.8477795482509 -38.20000000000002
    vertex 754.9894791282412 1799.8474571971615 -38.1995467914854
    vertex 754.9894791282412 1803.8474571971612 -38.1995467914854
  endloop
endfacet
facet normal 2.700681741571801e-17 0.6217012604278805 0.7832544559607592
  outer loop
    vertex 679.8464283567105 1729.5477795482514 -4.0000000440860175
    vertex 752.9894792828949 1799.8477795482509 -59.79999999999989
    vertex 643.389479282895 1799.8477795482509 -59.79999999999989
  endloop
endfacet
facet normal 2.700681741571801e-17 0.6217012604278805 0.7832544559607592
  outer loop
    vertex 752.9894792828949 1799.8477795482509 -59.79999999999989
    vertex 679.8464283567105 1729.5477795482514 -4.0000000440860175
    vertex 752.9464283567104 1729.5477795482514 -4.0000000440860175
  endloop
endfacet
facet normal 1.4663914433731538e-06 0.9999999999989249 2.2868786570529898e-10
  outer loop
    vertex 641.3894792828954 1803.8477795482509 -61.79999999999988
    vertex 643.389479282895 1803.8477795482509 -59.79999999999989
    vertex 754.9894791282408 1803.8474571971612 -61.79954679148526
  endloop
endfacet
facet normal 1.4663914433731538e-06 0.9999999999989249 2.2868786570529898e-10
  outer loop
    vertex 643.389479282895 1803.8477795482509 -59.79999999999989
    vertex 641.3894792828954 1803.8477795482509 -61.79999999999988
    vertex 641.3894792828954 1803.8477795482509 -38.20000000000002
  endloop
endfacet
facet normal 1.4663914433731538e-06 0.9999999999989249 2.2868786570529898e-10
  outer loop
    vertex 643.389479282895 1803.8477795482509 -59.79999999999989
    vertex 641.3894792828954 1803.8477795482509 -38.20000000000002
    vertex 643.3894792828954 1803.8477795482509 -40.20000000000002
  endloop
endfacet
facet normal 1.4663914433731538e-06 0.9999999999989249 2.2868786570529898e-10
  outer loop
    vertex 643.3894792828954 1803.8477795482509 -40.20000000000002
    vertex 641.3894792828954 1803.8477795482509 -38.20000000000002
    vertex 752.9894792828952 1803.8477795482509 -40.20000000000002
  endloop
endfacet
facet normal 1.4663914433731538e-06 0.9999999999989249 2.2868786570529898e-10
  outer loop
    vertex 754.9894791282408 1803.8474571971612 -61.79954679148526
    vertex 752.9894792828949 1803.8477795482509 -59.79999999999989
    vertex 754.9894791282412 1803.8474571971612 -38.1995467914854
  endloop
endfacet
facet normal 1.4663914433731538e-06 0.9999999999989249 2.2868786570529898e-10
  outer loop
    vertex 752.9894792828949 1803.8477795482509 -59.79999999999989
    vertex 754.9894791282408 1803.8474571971612 -61.79954679148526
    vertex 643.389479282895 1803.8477795482509 -59.79999999999989
  endloop
endfacet
facet normal 1.4663914433731538e-06 0.9999999999989249 2.2868786570529898e-10
  outer loop
    vertex 754.9894791282412 1803.8474571971612 -38.1995467914854
    vertex 752.9894792828949 1803.8477795482509 -59.79999999999989
    vertex 752.9894792828952 1803.8477795482509 -40.20000000000002
  endloop
endfacet
facet normal 1.4663914433731538e-06 0.9999999999989249 2.2868786570529898e-10
  outer loop
    vertex 754.9894791282412 1803.8474571971612 -38.1995467914854
    vertex 752.9894792828952 1803.8477795482509 -40.20000000000002
    vertex 641.3894792828954 1803.8477795482509 -38.20000000000002
  endloop
endfacet
facet normal -1.477211302596291e-06 0.634141863442061 0.773216720608167
  outer loop
    vertex 677.8464283567107 1758.147355022255 -4.000000044086198
    vertex 754.9894791282412 1799.8474571971615 -38.1995467914854
    vertex 641.3894792828954 1799.8477795482509 -38.20000000000002
  endloop
endfacet
facet normal -1.477211302596291e-06 0.634141863442061 0.773216720608167
  outer loop
    vertex 754.9894791282412 1799.8474571971615 -38.1995467914854
    vertex 677.8464283567107 1758.147355022255 -4.000000044086198
    vertex 754.9464282020565 1758.1470326711656 -3.999546835571619
  endloop
endfacet
facet normal 0.0 0.0 1.0
  outer loop
    vertex 752.9894792828949 1799.8477795482509 -59.79999999999989
    vertex 643.389479282895 1803.8477795482509 -59.79999999999989
    vertex 643.389479282895 1799.8477795482509 -59.79999999999989
  endloop
endfacet
facet normal 0.0 0.0 1.0
  outer loop
    vertex 643.389479282895 1803.8477795482509 -59.79999999999989
    vertex 752.9894792828949 1799.8477795482509 -59.79999999999989
    vertex 752.9894792828949 1803.8477795482509 -59.79999999999989
  endloop
endfacet
facet normal -4.180947990822132e-06 -0.9999999999912599 -5.321374339986118e-22
  outer loop
    vertex 754.9464282020563 1727.5474571971617 -3.9995468355714157
    vertex 677.8464283567105 1727.5477795482511 -4.408602496397407e-08
    vertex 677.8464283567105 1727.5477795482511 -4.0000000440860175
  endloop
endfacet
facet normal -4.180947990822132e-06 -0.9999999999912599 -5.321374339986118e-22
  outer loop
    vertex 677.8464283567105 1727.5477795482511 -4.408602496397407e-08
    vertex 754.9464282020563 1727.5474571971617 -3.9995468355714157
    vertex 754.9464282020563 1727.5474571971617 0.00045316442857679107
  endloop
endfacet
facet normal 1.0 0.0 -2.7624161461693866e-14
  outer loop
    vertex 643.389479282895 1803.8477795482509 -59.79999999999989
    vertex 643.3894792828954 1799.8477795482509 -49.99999999999995
    vertex 643.389479282895 1799.8477795482509 -59.79999999999989
  endloop
endfacet
facet normal 1.0 0.0 -2.7624161461693866e-14
  outer loop
    vertex 643.3894792828954 1799.8477795482509 -49.99999999999995
    vertex 643.389479282895 1803.8477795482509 -59.79999999999989
    vertex 643.3894792828954 1799.8477795482509 -40.20000000000002
  endloop
endfacet
facet normal 1.0 0.0 -2.7624161461693866e-14
  outer loop
    vertex 643.3894792828954 1799.8477795482509 -40.20000000000002
    vertex 643.389479282895 1803.8477795482509 -59.79999999999989
    vertex 643.3894792828954 1803.8477795482509 -40.20000000000002
  endloop
endfacet
facet normal -1.0 0.0 0.0
  outer loop
    vertex 641.3894792828954 1803.8477795482509 -38.20000000000002
    vertex 641.3894792828954 1799.8477795482509 -49.99999999999995
    vertex 641.3894792828954 1799.8477795482509 -38.20000000000002
  endloop
endfacet
facet normal -1.0 0.0 0.0
  outer loop
    vertex 641.3894792828954 1799.8477795482509 -49.99999999999995
    vertex 641.3894792828954 1803.8477795482509 -38.20000000000002
    vertex 641.3894792828954 1799.8477795482509 -61.79999999999988
  endloop
endfacet
facet normal -1.0 0.0 0.0
  outer loop
    vertex 641.3894792828954 1799.8477795482509 -61.79999999999988
    vertex 641.3894792828954 1803.8477795482509 -38.20000000000002
    vertex 641.3894792828954 1803.8477795482509 -61.79999999999988
  endloop
endfacet
facet normal 3.9895115777966926e-06 5.3175684419624574e-21 -0.9999999999920419
  outer loop
    vertex 754.9894791282408 1803.8474571971612 -61.79954679148526
    vertex 641.3894792828954 1799.8477795482509 -61.79999999999988
    vertex 641.3894792828954 1803.8477795482509 -61.79999999999988
  endloop
endfacet
facet normal 3.9895115777966926e-06 5.3175684419624574e-21 -0.9999999999920419
  outer loop
    vertex 641.3894792828954 1799.8477795482509 -61.79999999999988
    vertex 754.9894791282408 1803.8474571971612 -61.79954679148526
    vertex 754.9894791282408 1799.8474571971615 -61.79954679148526
  endloop
endfacet
facet normal 0.0 1.0 0.0
  outer loop
    vertex 679.8464283567105 1729.5477795482514 -4.408602496397407e-08
    vertex 752.9464283567104 1729.5477795482514 -4.0000000440860175
    vertex 679.8464283567105 1729.5477795482514 -4.0000000440860175
  endloop
endfacet
facet normal 0.0 1.0 0.0
  outer loop
    vertex 752.9464283567104 1729.5477795482514 -4.0000000440860175
    vertex 679.8464283567105 1729.5477795482514 -4.408602496397407e-08
    vertex 752.9464283567104 1729.5477795482514 -4.408602496397407e-08
  endloop
endfacet
facet normal -3.0854445756532976e-06 1.2977938153404263e-10 0.99999999999524
  outer loop
    vertex 677.8464283567105 1727.5477795482511 -4.408602496397407e-08
    vertex 679.8464283567105 1729.5477795482514 -4.408602496397407e-08
    vertex 677.8464283567107 1758.147355022255 -4.4086205441828946e-08
  endloop
endfacet
facet normal -3.0854445756532976e-06 1.2977938153404263e-10 0.99999999999524
  outer loop
    vertex 679.8464283567105 1729.5477795482514 -4.408602496397407e-08
    vertex 677.8464283567105 1727.5477795482511 -4.408602496397407e-08
    vertex 754.9464282020563 1727.5474571971617 0.00045316442857679107
  endloop
endfacet
facet normal -3.0854445756532976e-06 1.2977938153404263e-10 0.99999999999524
  outer loop
    vertex 679.8464283567105 1729.5477795482514 -4.408602496397407e-08
    vertex 754.9464282020563 1727.5474571971617 0.00045316442857679107
    vertex 752.9464283567104 1729.5477795482514 -4.408602496397407e-08
  endloop
endfacet
facet normal -3.0854445756532976e-06 1.2977938153404263e-10 0.99999999999524
  outer loop
    vertex 752.9464283567104 1729.5477795482514 -4.408602496397407e-08
    vertex 754.9464282020563 1727.5474571971617 0.00045316442857679107
    vertex 752.9464283567106 1756.1473550222547 -4.408625056129267e-08
  endloop
endfacet
facet normal -3.0854445756532976e-06 1.2977938153404263e-10 0.99999999999524
  outer loop
    vertex 677.8464283567107 1758.147355022255 -4.4086205441828946e-08
    vertex 679.8464283567108 1756.1473550222547 -4.4086205441828946e-08
    vertex 754.9464282020565 1758.1470326711656 0.00045316442837375345
  endloop
endfacet
facet normal -3.0854445756532976e-06 1.2977938153404263e-10 0.99999999999524
  outer loop
    vertex 679.8464283567108 1756.1473550222547 -4.4086205441828946e-08
    vertex 677.8464283567107 1758.147355022255 -4.4086205441828946e-08
    vertex 679.8464283567105 1729.5477795482514 -4.408602496397407e-08
  endloop
endfacet
facet normal -3.0854445756532976e-06 1.2977938153404263e-10 0.99999999999524
  outer loop
    vertex 754.9464282020565 1758.1470326711656 0.00045316442837375345
    vertex 679.8464283567108 1756.1473550222547 -4.4086205441828946e-08
    vertex 752.9464283567106 1756.1473550222547 -4.408625056129267e-08
  endloop
endfacet
facet normal -3.0854445756532976e-06 1.2977938153404263e-10 0.99999999999524
  outer loop
    vertex 754.9464282020565 1758.1470326711656 0.00045316442837375345
    vertex 752.9464283567106 1756.1473550222547 -4.408625056129267e-08
    vertex 754.9464282020563 1727.5474571971617 0.00045316442857679107
  endloop
endfacet
facet normal -1.0 5.898050939837112e-15 -4.519751346239782e-28
  outer loop
    vertex 677.8464283567107 1758.147355022255 -4.4086205441828946e-08
    vertex 677.8464283567105 1727.5477795482511 -4.0000000440860175
    vertex 677.8464283567105 1727.5477795482511 -4.408602496397407e-08
  endloop
endfacet
facet normal -1.0 5.898050939837112e-15 -4.519751346239782e-28
  outer loop
    vertex 677.8464283567105 1727.5477795482511 -4.0000000440860175
    vertex 677.8464283567107 1758.147355022255 -4.4086205441828946e-08
    vertex 677.8464283567107 1742.847567285253 -4.000000044086198
  endloop
endfacet
facet normal -1.0 5.898050939837112e-15 -4.519751346239782e-28
  outer loop
    vertex 677.8464283567107 1742.847567285253 -4.000000044086198
    vertex 677.8464283567107 1758.147355022255 -4.4086205441828946e-08
    vertex 677.8464283567107 1758.147355022255 -4.000000044086198
  endloop
endfacet
facet normal 1.5449329370094833e-06 -0.624431278892845 -0.7810797513300799
  outer loop
    vertex 754.9894791282408 1799.8474571971615 -61.79954679148526
    vertex 677.8464283567105 1727.5477795482511 -4.0000000440860175
    vertex 641.3894792828954 1799.8477795482509 -61.79999999999988
  endloop
endfacet
facet normal 1.5449329370094833e-06 -0.624431278892845 -0.7810797513300799
  outer loop
    vertex 677.8464283567105 1727.5477795482511 -4.0000000440860175
    vertex 754.9894791282408 1799.8474571971615 -61.79954679148526
    vertex 754.9464282020563 1727.5474571971617 -3.9995468355714157
  endloop
endfacet
facet normal -0.9999998403912885 0.0003180760822918294 -0.0004669528921154849
  outer loop
    vertex 752.9464283567106 1756.1473550222547 -4.408625056129267e-08
    vertex 752.9464283567104 1729.5477795482514 -4.0000000440860175
    vertex 752.9464283567104 1729.5477795482514 -4.408602496397407e-08
  endloop
endfacet
facet normal -0.9999998403912885 0.0003180760822918294 -0.0004669528921154849
  outer loop
    vertex 752.9464283567104 1729.5477795482514 -4.0000000440860175
    vertex 752.9464283567106 1756.1473550222547 -4.408625056129267e-08
    vertex 752.9464283567106 1756.1473550222547 -4.000000044086243
  endloop
endfacet
facet normal -0.9999998403912885 0.0003180760822918294 -0.0004669528921154849
  outer loop
    vertex 752.9464283567104 1729.5477795482514 -4.0000000440860175
    vertex 752.9464283567106 1756.1473550222547 -4.000000044086243
    vertex 752.9894792828949 1799.8477795482509 -59.79999999999989
  endloop
endfacet
facet normal -0.9999998403912885 0.0003180760822918294 -0.0004669528921154849
  outer loop
    vertex 752.9894792828949 1799.8477795482509 -59.79999999999989
    vertex 752.9464283567106 1756.1473550222547 -4.000000044086243
    vertex 752.9894792828952 1799.8477795482509 -40.20000000000002
  endloop
endfacet
facet normal -0.9999998403912885 0.0003180760822918294 -0.0004669528921154849
  outer loop
    vertex 752.9894792828949 1799.8477795482509 -59.79999999999989
    vertex 752.9894792828952 1799.8477795482509 -40.20000000000002
    vertex 752.9894792828952 1803.8477795482509 -40.20000000000002
  endloop
endfacet
facet normal -0.9999998403912885 0.0003180760822918294 -0.0004669528921154849
  outer loop
    vertex 752.9894792828949 1799.8477795482509 -59.79999999999989
    vertex 752.9894792828952 1803.8477795482509 -40.20000000000002
    vertex 752.9894792828949 1803.8477795482509 -59.79999999999989
  endloop
endfacet
facet normal 1.0 -1.356998009682164e-14 9.056982432101851e-28
  outer loop
    vertex 679.8464283567108 1742.847567285253 -4.000000044086198
    vertex 679.8464283567105 1729.5477795482514 -4.408602496397407e-08
    vertex 679.8464283567105 1729.5477795482514 -4.0000000440860175
  endloop
endfacet
facet normal 1.0 -1.356998009682164e-14 9.056982432101851e-28
  outer loop
    vertex 679.8464283567105 1729.5477795482514 -4.408602496397407e-08
    vertex 679.8464283567108 1742.847567285253 -4.000000044086198
    vertex 679.8464283567108 1756.1473550222547 -4.4086205441828946e-08
  endloop
endfacet
facet normal 1.0 -1.356998009682164e-14 9.056982432101851e-28
  outer loop
    vertex 679.8464283567108 1756.1473550222547 -4.4086205441828946e-08
    vertex 679.8464283567108 1742.847567285253 -4.000000044086198
    vertex 679.8464283567108 1756.1473550222547 -4.000000044086198
  endloop
endfacet
facet normal 0.9999998479472392 -0.0003280345430568127 0.00044328189374784343
  outer loop
    vertex 754.9894791282408 1799.8474571971615 -61.79954679148526
    vertex 754.9464282020563 1727.5474571971617 0.00045316442857679107
    vertex 754.9464282020563 1727.5474571971617 -3.9995468355714157
  endloop
endfacet
facet normal 0.9999998479472392 -0.0003280345430568127 0.00044328189374784343
  outer loop
    vertex 754.9464282020563 1727.5474571971617 0.00045316442857679107
    vertex 754.9894791282408 1799.8474571971615 -61.79954679148526
    vertex 754.9464282020565 1758.1470326711656 -3.999546835571619
  endloop
endfacet
facet normal 0.9999998479472392 -0.0003280345430568127 0.00044328189374784343
  outer loop
    vertex 754.9464282020565 1758.1470326711656 -3.999546835571619
    vertex 754.9894791282408 1799.8474571971615 -61.79954679148526
    vertex 754.9894791282412 1799.8474571971615 -38.1995467914854
  endloop
endfacet
facet normal 0.9999998479472392 -0.0003280345430568127 0.00044328189374784343
  outer loop
    vertex 754.9894791282412 1799.8474571971615 -38.1995467914854
    vertex 754.9894791282408 1799.8474571971615 -61.79954679148526
    vertex 754.9894791282408 1803.8474571971612 -61.79954679148526
  endloop
endfacet
facet normal 0.9999998479472392 -0.0003280345430568127 0.00044328189374784343
  outer loop
    vertex 754.9894791282412 1799.8474571971615 -38.1995467914854
    vertex 754.9894791282408 1803.8474571971612 -61.79954679148526
    vertex 754.9894791282412 1803.8474571971612 -38.1995467914854
  endloop
endfacet
facet normal 0.9999998479472392 -0.0003280345430568127 0.00044328189374784343
  outer loop
    vertex 754.9464282020565 1758.1470326711656 0.00045316442837375345
    vertex 754.9464282020563 1727.5474571971617 0.00045316442857679107
    vertex 754.9464282020565 1758.1470326711656 -3.999546835571619
  endloop
endfacet
facet normal -0.892905720045894 -0.4502436841415144 -6.046983948609892e-16
  outer loop
    vertex 641.3894792828954 1799.8477795482509 -38.20000000000002
    vertex 641.3894792828954 1799.8477795482509 -61.79999999999988
    vertex 677.8464283567105 1727.5477795482511 -4.0000000440860175
  endloop
endfacet
facet normal -0.892905720045894 -0.4502436841415144 -6.046983948609892e-16
  outer loop
    vertex 641.3894792828954 1799.8477795482509 -61.79999999999988
    vertex 641.3894792828954 1799.8477795482509 -38.20000000000002
    vertex 641.3894792828954 1799.8477795482509 -49.99999999999995
  endloop
endfacet
facet normal -0.6841711819979258 8.377209284799309e-15 0.7293214611702862
  outer loop
    vertex 677.8464283567105 1727.5477795482511 -4.0000000440860175
    vertex 677.8464283567107 1758.147355022255 -4.000000044086198
    vertex 641.3894792828954 1799.8477795482509 -38.20000000000002
  endloop
endfacet
facet normal -0.6841711819979258 8.377209284799309e-15 0.7293214611702862
  outer loop
    vertex 677.8464283567107 1758.147355022255 -4.000000044086198
    vertex 677.8464283567105 1727.5477795482511 -4.0000000440860175
    vertex 677.8464283567107 1742.847567285253 -4.000000044086198
  endloop
endfacet
endsolid Pet Feeder
