solid Pet Feeder
facet normal 1.469638290882624e-06 0.9999999999979983 -1.3579266912121154e-06
  outer loop
    vertex 641.3894792828954 1803.8477795482509 -61.79999999999988
    vertex 643.389479282895 1803.8477795482509 -59.79999999999989
    vertex 754.9894791282408 1803.8474571971612 -61.79954679148526
  endloop
endfacet
facet normal 1.469638290882624e-06 0.9999999999979983 -1.3579266912121154e-06
  outer loop
    vertex 643.389479282895 1803.8477795482509 -59.79999999999989
    vertex 641.3894792828954 1803.8477795482509 -61.79999999999988
    vertex 641.3894792828954 1803.8477795482509 -49.99999999999995
  endloop
endfacet
facet normal 1.469638290882624e-06 0.9999999999979983 -1.3579266912121154e-06
  outer loop
    vertex 643.389479282895 1803.8477795482509 -59.79999999999989
    vertex 641.3894792828954 1803.8477795482509 -49.99999999999995
    vertex 643.389479282895 1803.8477795482509 -49.99999999999995
  endloop
endfacet
facet normal 1.469638290882624e-06 0.9999999999979983 -1.3579266912121154e-06
  outer loop
    vertex 754.9894791282408 1803.8474571971612 -61.79954679148526
    vertex 752.9894792828949 1803.8477795482509 -59.79999999999989
    vertex 754.9894791282408 1803.8474571971612 -49.99954679148535
  endloop
endfacet
facet normal 1.469638290882624e-06 0.9999999999979983 -1.3579266912121154e-06
  outer loop
    vertex 752.9894792828949 1803.8477795482509 -59.79999999999989
    vertex 754.9894791282408 1803.8474571971612 -61.79954679148526
    vertex 643.389479282895 1803.8477795482509 -59.79999999999989
  endloop
endfacet
facet normal 1.469638290882624e-06 0.9999999999979983 -1.3579266912121154e-06
  outer loop
    vertex 754.9894791282408 1803.8474571971612 -49.99954679148535
    vertex 752.9894792828949 1803.8477795482509 -59.79999999999989
    vertex 752.9894792828949 1803.8477795482509 -49.99999999999995
  endloop
endfacet
facet normal 2.700681741571801e-17 0.6217012604278805 0.7832544559607592
  outer loop
    vertex 679.8464283567105 1729.5477795482514 -4.0000000440860175
    vertex 752.9894792828949 1799.8477795482509 -59.79999999999989
    vertex 643.389479282895 1799.8477795482509 -59.79999999999989
  endloop
endfacet
facet normal 2.700681741571801e-17 0.6217012604278805 0.7832544559607592
  outer loop
    vertex 752.9894792828949 1799.8477795482509 -59.79999999999989
    vertex 679.8464283567105 1729.5477795482514 -4.0000000440860175
    vertex 752.9464283567104 1729.5477795482514 -4.0000000440860175
  endloop
endfacet
facet normal 1.0 0.0 0.0
  outer loop
    vertex 643.389479282895 1803.8477795482509 -59.79999999999989
    vertex 643.389479282895 1799.8477795482509 -49.99999999999995
    vertex 643.389479282895 1799.8477795482509 -59.79999999999989
  endloop
endfacet
facet normal 1.0 0.0 0.0
  outer loop
    vertex 643.389479282895 1799.8477795482509 -49.99999999999995
    vertex 643.389479282895 1803.8477795482509 -59.79999999999989
    vertex 643.389479282895 1803.8477795482509 -49.99999999999995
  endloop
endfacet
facet normal 0.0 0.0 1.0
  outer loop
    vertex 752.9894792828949 1799.8477795482509 -59.79999999999989
    vertex 643.389479282895 1803.8477795482509 -59.79999999999989
    vertex 643.389479282895 1799.8477795482509 -59.79999999999989
  endloop
endfacet
facet normal 0.0 0.0 1.0
  outer loop
    vertex 643.389479282895 1803.8477795482509 -59.79999999999989
    vertex 752.9894792828949 1799.8477795482509 -59.79999999999989
    vertex 752.9894792828949 1803.8477795482509 -59.79999999999989
  endloop
endfacet
facet normal 0.0 1.0 0.0
  outer loop
    vertex 679.8464283567105 1729.5477795482514 -4.408602496397407e-08
    vertex 752.9464283567104 1729.5477795482514 -4.0000000440860175
    vertex 679.8464283567105 1729.5477795482514 -4.0000000440860175
  endloop
endfacet
facet normal 0.0 1.0 0.0
  outer loop
    vertex 752.9464283567104 1729.5477795482514 -4.0000000440860175
    vertex 679.8464283567105 1729.5477795482514 -4.408602496397407e-08
    vertex 752.9464283567104 1729.5477795482514 -4.408602496397407e-08
  endloop
endfacet
facet normal 1.0 0.0 0.0
  outer loop
    vertex 679.8464283567105 1742.847567285253 -4.0000000440860175
    vertex 679.8464283567105 1729.5477795482514 -4.408602496397407e-08
    vertex 679.8464283567105 1729.5477795482514 -4.0000000440860175
  endloop
endfacet
facet normal 1.0 0.0 0.0
  outer loop
    vertex 679.8464283567105 1729.5477795482514 -4.408602496397407e-08
    vertex 679.8464283567105 1742.847567285253 -4.0000000440860175
    vertex 679.8464283567105 1742.847567285253 -4.408602496397407e-08
  endloop
endfacet
facet normal -0.9999998627225719 0.0003064017926150699 -0.0004250562067540675
  outer loop
    vertex 752.9464283567104 1742.847567285253 -4.408602496397407e-08
    vertex 752.9464283567104 1729.5477795482514 -4.0000000440860175
    vertex 752.9464283567104 1729.5477795482514 -4.408602496397407e-08
  endloop
endfacet
facet normal -0.9999998627225719 0.0003064017926150699 -0.0004250562067540675
  outer loop
    vertex 752.9464283567104 1729.5477795482514 -4.0000000440860175
    vertex 752.9464283567104 1742.847567285253 -4.408602496397407e-08
    vertex 752.9464283567104 1742.847567285253 -3.9995468355714157
  endloop
endfacet
facet normal -0.9999998627225719 0.0003064017926150699 -0.0004250562067540675
  outer loop
    vertex 752.9464283567104 1729.5477795482514 -4.0000000440860175
    vertex 752.9464283567104 1742.847567285253 -3.9995468355714157
    vertex 752.9894792828949 1799.8477795482509 -59.79999999999989
  endloop
endfacet
facet normal -0.9999998627225719 0.0003064017926150699 -0.0004250562067540675
  outer loop
    vertex 752.9894792828949 1799.8477795482509 -59.79999999999989
    vertex 752.9464283567104 1742.847567285253 -3.9995468355714157
    vertex 752.9894792828949 1799.8474571971615 -49.99999999999995
  endloop
endfacet
facet normal -0.9999998627225719 0.0003064017926150699 -0.0004250562067540675
  outer loop
    vertex 752.9894792828949 1799.8477795482509 -59.79999999999989
    vertex 752.9894792828949 1799.8474571971615 -49.99999999999995
    vertex 752.9894792828949 1803.8477795482509 -49.99999999999995
  endloop
endfacet
facet normal -0.9999998627225719 0.0003064017926150699 -0.0004250562067540675
  outer loop
    vertex 752.9894792828949 1799.8477795482509 -59.79999999999989
    vertex 752.9894792828949 1803.8477795482509 -49.99999999999995
    vertex 752.9894792828949 1803.8477795482509 -59.79999999999989
  endloop
endfacet
facet normal 0.8371596799884063 0.0 -0.5469585635143757
  outer loop
    vertex 643.389479282895 1799.8477795482509 -59.79999999999989
    vertex 679.8464283567105 1742.847567285253 -4.0000000440860175
    vertex 679.8464283567105 1729.5477795482514 -4.0000000440860175
  endloop
endfacet
facet normal -1.0 0.0 0.0
  outer loop
    vertex 641.3894792828954 1803.8477795482509 -49.99999999999995
    vertex 641.3894792828954 1799.8477795482509 -61.79999999999988
    vertex 641.3894792828954 1799.8477795482509 -49.99999999999995
  endloop
endfacet
facet normal -1.0 0.0 0.0
  outer loop
    vertex 641.3894792828954 1799.8477795482509 -61.79999999999988
    vertex 641.3894792828954 1803.8477795482509 -49.99999999999995
    vertex 641.3894792828954 1803.8477795482509 -61.79999999999988
  endloop
endfacet
facet normal 0.8424269550472752 0.5388105654214439 5.988437080636232e-15
  outer loop
    vertex 643.389479282895 1799.8477795482509 -49.99999999999995
    vertex 679.8464283567105 1742.847567285253 -4.0000000440860175
    vertex 643.389479282895 1799.8477795482509 -59.79999999999989
  endloop
endfacet
facet normal -0.8458079505168886 2.3990075202816237e-15 0.5334874983000265
  outer loop
    vertex 641.3894792828954 1799.8477795482509 -61.79999999999988
    vertex 677.8464283567105 1727.5477795482511 -4.0000000440860175
    vertex 677.8464283567105 1742.847567285253 -4.0000000440860175
  endloop
endfacet
facet normal -0.8424269550472793 -0.5388105654214378 -2.065245250015433e-15
  outer loop
    vertex 641.3894792828954 1799.8477795482509 -61.79999999999988
    vertex 677.8464283567105 1742.847567285253 -4.0000000440860175
    vertex 641.3894792828954 1799.8477795482509 -49.99999999999995
  endloop
endfacet
facet normal -3.0955250930553423e-06 1.0977852201821503e-06 0.9999999999946063
  outer loop
    vertex 679.8464283567105 1742.847567285253 -4.408602496397407e-08
    vertex 677.8464283567105 1742.847567285253 -4.408602496397407e-08
    vertex 679.8464283567105 1729.5477795482514 -4.408602496397407e-08
  endloop
endfacet
facet normal -3.0955250930553423e-06 1.0977852201821503e-06 0.9999999999946063
  outer loop
    vertex 677.8464283567105 1727.5477795482511 -4.408602496397407e-08
    vertex 679.8464283567105 1729.5477795482514 -4.408602496397407e-08
    vertex 677.8464283567105 1742.847567285253 -4.408602496397407e-08
  endloop
endfacet
facet normal -3.0955250930553423e-06 1.0977852201821503e-06 0.9999999999946063
  outer loop
    vertex 679.8464283567105 1729.5477795482514 -4.408602496397407e-08
    vertex 677.8464283567105 1727.5477795482511 -4.408602496397407e-08
    vertex 754.9464282020563 1727.5474571971617 0.00045316442857679107
  endloop
endfacet
facet normal -3.0955250930553423e-06 1.0977852201821503e-06 0.9999999999946063
  outer loop
    vertex 679.8464283567105 1729.5477795482514 -4.408602496397407e-08
    vertex 754.9464282020563 1727.5474571971617 0.00045316442857679107
    vertex 752.9464283567104 1729.5477795482514 -4.408602496397407e-08
  endloop
endfacet
facet normal -3.0955250930553423e-06 1.0977852201821503e-06 0.9999999999946063
  outer loop
    vertex 752.9464283567104 1729.5477795482514 -4.408602496397407e-08
    vertex 754.9464282020563 1727.5474571971617 0.00045316442857679107
    vertex 752.9464283567104 1742.847567285253 -4.408602496397407e-08
  endloop
endfacet
facet normal -3.0955250930553423e-06 1.0977852201821503e-06 0.9999999999946063
  outer loop
    vertex 752.9464283567104 1742.847567285253 -4.408602496397407e-08
    vertex 754.9464282020563 1727.5474571971617 0.00045316442857679107
    vertex 754.9464282020563 1742.8472449341637 0.00045316442857679107
  endloop
endfacet
facet normal 3.9895115777966926e-06 5.3175684419624574e-21 -0.9999999999920419
  outer loop
    vertex 754.9894791282408 1803.8474571971612 -61.79954679148526
    vertex 641.3894792828954 1799.8477795482509 -61.79999999999988
    vertex 641.3894792828954 1803.8477795482509 -61.79999999999988
  endloop
endfacet
facet normal 3.9895115777966926e-06 5.3175684419624574e-21 -0.9999999999920419
  outer loop
    vertex 641.3894792828954 1799.8477795482509 -61.79999999999988
    vertex 754.9894791282408 1803.8474571971612 -61.79954679148526
    vertex 754.9894791282408 1799.8474571971615 -61.79954679148526
  endloop
endfacet
facet normal -1.0 0.0 0.0
  outer loop
    vertex 677.8464283567105 1742.847567285253 -4.408602496397407e-08
    vertex 677.8464283567105 1727.5477795482511 -4.0000000440860175
    vertex 677.8464283567105 1727.5477795482511 -4.408602496397407e-08
  endloop
endfacet
facet normal -1.0 0.0 0.0
  outer loop
    vertex 677.8464283567105 1727.5477795482511 -4.0000000440860175
    vertex 677.8464283567105 1742.847567285253 -4.408602496397407e-08
    vertex 677.8464283567105 1742.847567285253 -4.0000000440860175
  endloop
endfacet
facet normal 0.9999998701588972 -0.0003102863928613501 0.00040423327788115986
  outer loop
    vertex 754.9894791282408 1799.8474571971615 -61.79954679148526
    vertex 754.9464282020563 1727.5474571971617 0.00045316442857679107
    vertex 754.9464282020563 1727.5474571971617 -3.9995468355714157
  endloop
endfacet
facet normal 0.9999998701588972 -0.0003102863928613501 0.00040423327788115986
  outer loop
    vertex 754.9464282020563 1727.5474571971617 0.00045316442857679107
    vertex 754.9894791282408 1799.8474571971615 -61.79954679148526
    vertex 754.9464282020563 1742.8472449341637 -3.9995468355714157
  endloop
endfacet
facet normal 0.9999998701588972 -0.0003102863928613501 0.00040423327788115986
  outer loop
    vertex 754.9464282020563 1742.8472449341637 -3.9995468355714157
    vertex 754.9894791282408 1799.8474571971615 -61.79954679148526
    vertex 754.9894791282408 1799.8474571971615 -49.99954679148535
  endloop
endfacet
facet normal 0.9999998701588972 -0.0003102863928613501 0.00040423327788115986
  outer loop
    vertex 754.9894791282408 1799.8474571971615 -49.99954679148535
    vertex 754.9894791282408 1799.8474571971615 -61.79954679148526
    vertex 754.9894791282408 1803.8474571971612 -61.79954679148526
  endloop
endfacet
facet normal 0.9999998701588972 -0.0003102863928613501 0.00040423327788115986
  outer loop
    vertex 754.9894791282408 1799.8474571971615 -49.99954679148535
    vertex 754.9894791282408 1803.8474571971612 -61.79954679148526
    vertex 754.9894791282408 1803.8474571971612 -49.99954679148535
  endloop
endfacet
facet normal 0.9999998701588972 -0.0003102863928613501 0.00040423327788115986
  outer loop
    vertex 754.9464282020563 1742.8472449341637 0.00045316442857679107
    vertex 754.9464282020563 1727.5474571971617 0.00045316442857679107
    vertex 754.9464282020563 1742.8472449341637 -3.9995468355714157
  endloop
endfacet
facet normal -4.180947990822132e-06 -0.9999999999912599 -5.321374339986118e-22
  outer loop
    vertex 754.9464282020563 1727.5474571971617 -3.9995468355714157
    vertex 677.8464283567105 1727.5477795482511 -4.408602496397407e-08
    vertex 677.8464283567105 1727.5477795482511 -4.0000000440860175
  endloop
endfacet
facet normal -4.180947990822132e-06 -0.9999999999912599 -5.321374339986118e-22
  outer loop
    vertex 677.8464283567105 1727.5477795482511 -4.408602496397407e-08
    vertex 754.9464282020563 1727.5474571971617 -3.9995468355714157
    vertex 754.9464282020563 1727.5474571971617 0.00045316442857679107
  endloop
endfacet
facet normal 1.5449329370094833e-06 -0.624431278892845 -0.7810797513300799
  outer loop
    vertex 754.9894791282408 1799.8474571971615 -61.79954679148526
    vertex 677.8464283567105 1727.5477795482511 -4.0000000440860175
    vertex 641.3894792828954 1799.8477795482509 -61.79999999999988
  endloop
endfacet
facet normal 1.5449329370094833e-06 -0.624431278892845 -0.7810797513300799
  outer loop
    vertex 677.8464283567105 1727.5477795482511 -4.0000000440860175
    vertex 754.9894791282408 1799.8474571971615 -61.79954679148526
    vertex 754.9464282020563 1727.5474571971617 -3.9995468355714157
  endloop
endfacet
facet normal 0.0 1.0 0.0
  outer loop
    vertex 677.8464283567105 1742.847567285253 -4.408602496397407e-08
    vertex 679.8464283567105 1742.847567285253 -4.0000000440860175
    vertex 677.8464283567105 1742.847567285253 -4.0000000440860175
  endloop
endfacet
facet normal 0.0 1.0 0.0
  outer loop
    vertex 679.8464283567105 1742.847567285253 -4.0000000440860175
    vertex 677.8464283567105 1742.847567285253 -4.408602496397407e-08
    vertex 679.8464283567105 1742.847567285253 -4.408602496397407e-08
  endloop
endfacet
facet normal 0.0001611755550940574 0.9999999870112202 -1.8264826562097372e-21
  outer loop
    vertex 752.9464283567104 1742.847567285253 -4.408602496397407e-08
    vertex 754.9464282020563 1742.8472449341637 -3.9995468355714157
    vertex 752.9464283567104 1742.847567285253 -3.9995468355714157
  endloop
endfacet
facet normal 0.0001611755550940574 0.9999999870112202 -1.8264826562097372e-21
  outer loop
    vertex 754.9464282020563 1742.8472449341637 -3.9995468355714157
    vertex 752.9464283567104 1742.847567285253 -4.408602496397407e-08
    vertex 754.9464282020563 1742.8472449341637 0.00045316442857679107
  endloop
endfacet
facet normal 0.0 0.0 1.0
  outer loop
    vertex 643.389479282895 1799.8477795482509 -49.99999999999995
    vertex 641.3894792828954 1803.8477795482509 -49.99999999999995
    vertex 641.3894792828954 1799.8477795482509 -49.99999999999995
  endloop
endfacet
facet normal 0.0 0.0 1.0
  outer loop
    vertex 641.3894792828954 1803.8477795482509 -49.99999999999995
    vertex 643.389479282895 1799.8477795482509 -49.99999999999995
    vertex 643.389479282895 1803.8477795482509 -49.99999999999995
  endloop
endfacet
facet normal 0.0 0.6280178516061328 0.7781989321915171
  outer loop
    vertex 677.8464283567105 1742.847567285253 -4.0000000440860175
    vertex 643.389479282895 1799.8477795482509 -49.99999999999995
    vertex 641.3894792828954 1799.8477795482509 -49.99999999999995
  endloop
endfacet
facet normal 0.0 0.6280178516061328 0.7781989321915171
  outer loop
    vertex 643.389479282895 1799.8477795482509 -49.99999999999995
    vertex 677.8464283567105 1742.847567285253 -4.0000000440860175
    vertex 679.8464283567105 1742.847567285253 -4.0000000440860175
  endloop
endfacet
facet normal -0.0002266042690055094 -5.6340103540244865e-22 0.9999999743252523
  outer loop
    vertex 754.9894791282408 1799.8474571971615 -49.99954679148535
    vertex 752.9894792828949 1803.8477795482509 -49.99999999999995
    vertex 752.9894792828949 1799.8474571971615 -49.99999999999995
  endloop
endfacet
facet normal -0.0002266042690055094 -5.6340103540244865e-22 0.9999999743252523
  outer loop
    vertex 752.9894792828949 1803.8477795482509 -49.99999999999995
    vertex 754.9894791282408 1799.8474571971615 -49.99954679148535
    vertex 754.9894791282408 1803.8474571971612 -49.99954679148535
  endloop
endfacet
facet normal -3.7560520050795186e-05 0.6280208172861879 0.7781965379288167
  outer loop
    vertex 754.9464282020563 1742.8472449341637 -3.9995468355714157
    vertex 752.9894792828949 1799.8474571971615 -49.99999999999995
    vertex 752.9464283567104 1742.847567285253 -3.9995468355714157
  endloop
endfacet
facet normal -3.7560520050795186e-05 0.6280208172861879 0.7781965379288167
  outer loop
    vertex 752.9894792828949 1799.8474571971615 -49.99999999999995
    vertex 754.9464282020563 1742.8472449341637 -3.9995468355714157
    vertex 754.9894791282408 1799.8474571971615 -49.99954679148535
  endloop
endfacet
endsolid Pet Feeder
