solid Pet Feeder
facet normal 0.0 1.0 0.0
  outer loop
    vertex 978.3539890477731 2091.3533854444445 61.799999955913684
    vertex 1055.4539888931188 2091.353063093355 57.80045316442827
    vertex 978.3539890477731 2091.3533854444445 57.79999995591369
  endloop
endfacet
facet normal 0.0 1.0 0.0
  outer loop
    vertex 1055.4539888931188 2091.353063093355 57.80045316442827
    vertex 978.3539890477731 2091.3533854444445 61.799999955913684
    vertex 1055.4539888931188 2091.353063093355 61.80045316442826
  endloop
endfacet
facet normal 0.0 -1.0 0.0
  outer loop
    vertex 1053.453989047773 2089.353385444444 61.799999955913634
    vertex 980.3539890477731 2089.353385444444 57.79999995591369
    vertex 1053.453989047773 2089.353385444444 57.79999995591364
  endloop
endfacet
facet normal 0.0 -1.0 0.0
  outer loop
    vertex 980.3539890477731 2089.353385444444 57.79999995591369
    vertex 1053.453989047773 2089.353385444444 61.799999955913634
    vertex 980.3539890477731 2089.353385444444 61.799999955913684
  endloop
endfacet
facet normal 0.0 0.0 -1.0
  outer loop
    vertex 1053.4970399739577 2137.0538099704404 21.59999999999987
    vertex 943.8970399739578 2133.0538099704404 21.59999999999987
    vertex 943.8970399739578 2137.0538099704404 21.59999999999987
  endloop
endfacet
facet normal 0.0 0.0 -1.0
  outer loop
    vertex 943.8970399739578 2133.0538099704404 21.59999999999987
    vertex 1053.4970399739577 2137.0538099704404 21.59999999999987
    vertex 1053.4970399739577 2133.0538099704404 21.59999999999987
  endloop
endfacet
facet normal -1.3743151039718113e-16 -0.6379246230708255 -0.770098808777124
  outer loop
    vertex 1053.4970399739577 2133.0538099704404 21.59999999999987
    vertex 980.3539890477731 2089.353385444444 57.79999995591369
    vertex 943.8970399739578 2133.0538099704404 21.59999999999987
  endloop
endfacet
facet normal -1.3743151039718113e-16 -0.6379246230708255 -0.770098808777124
  outer loop
    vertex 980.3539890477731 2089.353385444444 57.79999995591369
    vertex 1053.4970399739577 2133.0538099704404 21.59999999999987
    vertex 1053.453989047773 2089.353385444444 57.79999995591364
  endloop
endfacet
facet normal 0.0 0.0 1.0
  outer loop
    vertex 1055.4970398193036 2133.053487619351 23.600453208514484
    vertex 941.8970399739577 2137.0538099704404 23.599999999999866
    vertex 941.8970399739577 2133.0538099704404 23.599999999999866
  endloop
endfacet
facet normal 0.0 0.0 1.0
  outer loop
    vertex 941.8970399739577 2137.0538099704404 23.599999999999866
    vertex 1055.4970398193036 2133.053487619351 23.600453208514484
    vertex 1055.4970398193036 2137.0534876193506 23.600453208514484
  endloop
endfacet
facet normal 2.700681741571801e-17 0.6217012604278805 0.7832544559607592
  outer loop
    vertex 980.3539890477728 2062.7538099704407 57.79999995591387
    vertex 1053.4970399739573 2133.0538099704404 1.9999999999999962
    vertex 943.8970399739572 2133.0538099704404 1.9999999999999962
  endloop
endfacet
facet normal 2.700681741571801e-17 0.6217012604278805 0.7832544559607592
  outer loop
    vertex 1053.4970399739573 2133.0538099704404 1.9999999999999962
    vertex 980.3539890477728 2062.7538099704407 57.79999995591387
    vertex 1053.4539890477727 2062.7538099704407 57.79999995591387
  endloop
endfacet
facet normal 1.4663914433731538e-06 0.9999999999989249 2.2868786570529898e-10
  outer loop
    vertex 941.8970399739577 2137.0538099704404 0.0
    vertex 943.8970399739572 2137.0538099704404 1.9999999999999962
    vertex 1055.4970398193032 2137.0534876193506 0.00045320851462431476
  endloop
endfacet
facet normal 1.4663914433731538e-06 0.9999999999989249 2.2868786570529898e-10
  outer loop
    vertex 943.8970399739572 2137.0538099704404 1.9999999999999962
    vertex 941.8970399739577 2137.0538099704404 0.0
    vertex 941.8970399739577 2137.0538099704404 23.599999999999866
  endloop
endfacet
facet normal 1.4663914433731538e-06 0.9999999999989249 2.2868786570529898e-10
  outer loop
    vertex 943.8970399739572 2137.0538099704404 1.9999999999999962
    vertex 941.8970399739577 2137.0538099704404 23.599999999999866
    vertex 943.8970399739578 2137.0538099704404 21.59999999999987
  endloop
endfacet
facet normal 1.4663914433731538e-06 0.9999999999989249 2.2868786570529898e-10
  outer loop
    vertex 943.8970399739578 2137.0538099704404 21.59999999999987
    vertex 941.8970399739577 2137.0538099704404 23.599999999999866
    vertex 1053.4970399739577 2137.0538099704404 21.59999999999987
  endloop
endfacet
facet normal 1.4663914433731538e-06 0.9999999999989249 2.2868786570529898e-10
  outer loop
    vertex 1055.4970398193032 2137.0534876193506 0.00045320851462431476
    vertex 1053.4970399739573 2137.0538099704404 1.9999999999999962
    vertex 1055.4970398193036 2137.0534876193506 23.600453208514484
  endloop
endfacet
facet normal 1.4663914433731538e-06 0.9999999999989249 2.2868786570529898e-10
  outer loop
    vertex 1053.4970399739573 2137.0538099704404 1.9999999999999962
    vertex 1055.4970398193032 2137.0534876193506 0.00045320851462431476
    vertex 943.8970399739572 2137.0538099704404 1.9999999999999962
  endloop
endfacet
facet normal 1.4663914433731538e-06 0.9999999999989249 2.2868786570529898e-10
  outer loop
    vertex 1055.4970398193036 2137.0534876193506 23.600453208514484
    vertex 1053.4970399739573 2137.0538099704404 1.9999999999999962
    vertex 1053.4970399739577 2137.0538099704404 21.59999999999987
  endloop
endfacet
facet normal 1.4663914433731538e-06 0.9999999999989249 2.2868786570529898e-10
  outer loop
    vertex 1055.4970398193036 2137.0534876193506 23.600453208514484
    vertex 1053.4970399739577 2137.0538099704404 21.59999999999987
    vertex 941.8970399739577 2137.0538099704404 23.599999999999866
  endloop
endfacet
facet normal -1.477211302596291e-06 0.634141863442061 0.773216720608167
  outer loop
    vertex 978.3539890477731 2091.3533854444445 57.79999995591369
    vertex 1055.4970398193036 2133.053487619351 23.600453208514484
    vertex 941.8970399739577 2133.0538099704404 23.599999999999866
  endloop
endfacet
facet normal -1.477211302596291e-06 0.634141863442061 0.773216720608167
  outer loop
    vertex 1055.4970398193036 2133.053487619351 23.600453208514484
    vertex 978.3539890477731 2091.3533854444445 57.79999995591369
    vertex 1055.4539888931188 2091.353063093355 57.80045316442827
  endloop
endfacet
facet normal 0.0 0.0 1.0
  outer loop
    vertex 1053.4970399739573 2133.0538099704404 1.9999999999999962
    vertex 943.8970399739572 2137.0538099704404 1.9999999999999962
    vertex 943.8970399739572 2133.0538099704404 1.9999999999999962
  endloop
endfacet
facet normal 0.0 0.0 1.0
  outer loop
    vertex 943.8970399739572 2137.0538099704404 1.9999999999999962
    vertex 1053.4970399739573 2133.0538099704404 1.9999999999999962
    vertex 1053.4970399739573 2137.0538099704404 1.9999999999999962
  endloop
endfacet
facet normal -4.180947990822132e-06 -0.9999999999912599 -5.321374339986118e-22
  outer loop
    vertex 1055.4539888931188 2060.7534876193513 57.80045316442847
    vertex 978.3539890477729 2060.7538099704407 61.79999995591386
    vertex 978.3539890477729 2060.7538099704407 57.79999995591387
  endloop
endfacet
facet normal -4.180947990822132e-06 -0.9999999999912599 -5.321374339986118e-22
  outer loop
    vertex 978.3539890477729 2060.7538099704407 61.79999995591386
    vertex 1055.4539888931188 2060.7534876193513 57.80045316442847
    vertex 1055.4539888931188 2060.7534876193513 61.80045316442846
  endloop
endfacet
facet normal 1.0 0.0 -2.7624161461693866e-14
  outer loop
    vertex 943.8970399739572 2137.0538099704404 1.9999999999999962
    vertex 943.8970399739578 2133.0538099704404 11.799999999999933
    vertex 943.8970399739572 2133.0538099704404 1.9999999999999962
  endloop
endfacet
facet normal 1.0 0.0 -2.7624161461693866e-14
  outer loop
    vertex 943.8970399739578 2133.0538099704404 11.799999999999933
    vertex 943.8970399739572 2137.0538099704404 1.9999999999999962
    vertex 943.8970399739578 2133.0538099704404 21.59999999999987
  endloop
endfacet
facet normal 1.0 0.0 -2.7624161461693866e-14
  outer loop
    vertex 943.8970399739578 2133.0538099704404 21.59999999999987
    vertex 943.8970399739572 2137.0538099704404 1.9999999999999962
    vertex 943.8970399739578 2137.0538099704404 21.59999999999987
  endloop
endfacet
facet normal -1.0 0.0 0.0
  outer loop
    vertex 941.8970399739577 2137.0538099704404 23.599999999999866
    vertex 941.8970399739577 2133.0538099704404 11.799999999999933
    vertex 941.8970399739577 2133.0538099704404 23.599999999999866
  endloop
endfacet
facet normal -1.0 0.0 0.0
  outer loop
    vertex 941.8970399739577 2133.0538099704404 11.799999999999933
    vertex 941.8970399739577 2137.0538099704404 23.599999999999866
    vertex 941.8970399739577 2133.0538099704404 0.0
  endloop
endfacet
facet normal -1.0 0.0 0.0
  outer loop
    vertex 941.8970399739577 2133.0538099704404 0.0
    vertex 941.8970399739577 2137.0538099704404 23.599999999999866
    vertex 941.8970399739577 2137.0538099704404 0.0
  endloop
endfacet
facet normal 3.9895115777966926e-06 5.3175684419624574e-21 -0.9999999999920419
  outer loop
    vertex 1055.4970398193032 2137.0534876193506 0.00045320851462431476
    vertex 941.8970399739577 2133.0538099704404 0.0
    vertex 941.8970399739577 2137.0538099704404 0.0
  endloop
endfacet
facet normal 3.9895115777966926e-06 5.3175684419624574e-21 -0.9999999999920419
  outer loop
    vertex 941.8970399739577 2133.0538099704404 0.0
    vertex 1055.4970398193032 2137.0534876193506 0.00045320851462431476
    vertex 1055.4970398193032 2133.053487619351 0.00045320851462431476
  endloop
endfacet
facet normal 0.0 1.0 0.0
  outer loop
    vertex 980.3539890477728 2062.7538099704407 61.79999995591386
    vertex 1053.4539890477727 2062.7538099704407 57.79999995591387
    vertex 980.3539890477728 2062.7538099704407 57.79999995591387
  endloop
endfacet
facet normal 0.0 1.0 0.0
  outer loop
    vertex 1053.4539890477727 2062.7538099704407 57.79999995591387
    vertex 980.3539890477728 2062.7538099704407 61.79999995591386
    vertex 1053.4539890477727 2062.7538099704407 61.79999995591386
  endloop
endfacet
facet normal -3.0854445756532976e-06 1.2977938153404263e-10 0.99999999999524
  outer loop
    vertex 978.3539890477729 2060.7538099704407 61.79999995591386
    vertex 980.3539890477728 2062.7538099704407 61.79999995591386
    vertex 978.3539890477731 2091.3533854444445 61.799999955913684
  endloop
endfacet
facet normal -3.0854445756532976e-06 1.2977938153404263e-10 0.99999999999524
  outer loop
    vertex 980.3539890477728 2062.7538099704407 61.79999995591386
    vertex 978.3539890477729 2060.7538099704407 61.79999995591386
    vertex 1055.4539888931188 2060.7534876193513 61.80045316442846
  endloop
endfacet
facet normal -3.0854445756532976e-06 1.2977938153404263e-10 0.99999999999524
  outer loop
    vertex 980.3539890477728 2062.7538099704407 61.79999995591386
    vertex 1055.4539888931188 2060.7534876193513 61.80045316442846
    vertex 1053.4539890477727 2062.7538099704407 61.79999995591386
  endloop
endfacet
facet normal -3.0854445756532976e-06 1.2977938153404263e-10 0.99999999999524
  outer loop
    vertex 1053.4539890477727 2062.7538099704407 61.79999995591386
    vertex 1055.4539888931188 2060.7534876193513 61.80045316442846
    vertex 1053.453989047773 2089.353385444444 61.799999955913634
  endloop
endfacet
facet normal -3.0854445756532976e-06 1.2977938153404263e-10 0.99999999999524
  outer loop
    vertex 978.3539890477731 2091.3533854444445 61.799999955913684
    vertex 980.3539890477731 2089.353385444444 61.799999955913684
    vertex 1055.4539888931188 2091.353063093355 61.80045316442826
  endloop
endfacet
facet normal -3.0854445756532976e-06 1.2977938153404263e-10 0.99999999999524
  outer loop
    vertex 980.3539890477731 2089.353385444444 61.799999955913684
    vertex 978.3539890477731 2091.3533854444445 61.799999955913684
    vertex 980.3539890477728 2062.7538099704407 61.79999995591386
  endloop
endfacet
facet normal -3.0854445756532976e-06 1.2977938153404263e-10 0.99999999999524
  outer loop
    vertex 1055.4539888931188 2091.353063093355 61.80045316442826
    vertex 980.3539890477731 2089.353385444444 61.799999955913684
    vertex 1053.453989047773 2089.353385444444 61.799999955913634
  endloop
endfacet
facet normal -3.0854445756532976e-06 1.2977938153404263e-10 0.99999999999524
  outer loop
    vertex 1055.4539888931188 2091.353063093355 61.80045316442826
    vertex 1053.453989047773 2089.353385444444 61.799999955913634
    vertex 1055.4539888931188 2060.7534876193513 61.80045316442846
  endloop
endfacet
facet normal -1.0 5.898050939837112e-15 -4.519751346239782e-28
  outer loop
    vertex 978.3539890477731 2091.3533854444445 61.799999955913684
    vertex 978.3539890477729 2060.7538099704407 57.79999995591387
    vertex 978.3539890477729 2060.7538099704407 61.79999995591386
  endloop
endfacet
facet normal -1.0 5.898050939837112e-15 -4.519751346239782e-28
  outer loop
    vertex 978.3539890477729 2060.7538099704407 57.79999995591387
    vertex 978.3539890477731 2091.3533854444445 61.799999955913684
    vertex 978.3539890477731 2076.0535977074423 57.79999995591369
  endloop
endfacet
facet normal -1.0 5.898050939837112e-15 -4.519751346239782e-28
  outer loop
    vertex 978.3539890477731 2076.0535977074423 57.79999995591369
    vertex 978.3539890477731 2091.3533854444445 61.799999955913684
    vertex 978.3539890477731 2091.3533854444445 57.79999995591369
  endloop
endfacet
facet normal 1.5449329370094833e-06 -0.624431278892845 -0.7810797513300799
  outer loop
    vertex 1055.4970398193032 2133.053487619351 0.00045320851462431476
    vertex 978.3539890477729 2060.7538099704407 57.79999995591387
    vertex 941.8970399739577 2133.0538099704404 0.0
  endloop
endfacet
facet normal 1.5449329370094833e-06 -0.624431278892845 -0.7810797513300799
  outer loop
    vertex 978.3539890477729 2060.7538099704407 57.79999995591387
    vertex 1055.4970398193032 2133.053487619351 0.00045320851462431476
    vertex 1055.4539888931188 2060.7534876193513 57.80045316442847
  endloop
endfacet
facet normal -0.9999998403912885 0.0003180760822918294 -0.0004669528921154849
  outer loop
    vertex 1053.453989047773 2089.353385444444 61.799999955913634
    vertex 1053.4539890477727 2062.7538099704407 57.79999995591387
    vertex 1053.4539890477727 2062.7538099704407 61.79999995591386
  endloop
endfacet
facet normal -0.9999998403912885 0.0003180760822918294 -0.0004669528921154849
  outer loop
    vertex 1053.4539890477727 2062.7538099704407 57.79999995591387
    vertex 1053.453989047773 2089.353385444444 61.799999955913634
    vertex 1053.453989047773 2089.353385444444 57.79999995591364
  endloop
endfacet
facet normal -0.9999998403912885 0.0003180760822918294 -0.0004669528921154849
  outer loop
    vertex 1053.4539890477727 2062.7538099704407 57.79999995591387
    vertex 1053.453989047773 2089.353385444444 57.79999995591364
    vertex 1053.4970399739573 2133.0538099704404 1.9999999999999962
  endloop
endfacet
facet normal -0.9999998403912885 0.0003180760822918294 -0.0004669528921154849
  outer loop
    vertex 1053.4970399739573 2133.0538099704404 1.9999999999999962
    vertex 1053.453989047773 2089.353385444444 57.79999995591364
    vertex 1053.4970399739577 2133.0538099704404 21.59999999999987
  endloop
endfacet
facet normal -0.9999998403912885 0.0003180760822918294 -0.0004669528921154849
  outer loop
    vertex 1053.4970399739573 2133.0538099704404 1.9999999999999962
    vertex 1053.4970399739577 2133.0538099704404 21.59999999999987
    vertex 1053.4970399739577 2137.0538099704404 21.59999999999987
  endloop
endfacet
facet normal -0.9999998403912885 0.0003180760822918294 -0.0004669528921154849
  outer loop
    vertex 1053.4970399739573 2133.0538099704404 1.9999999999999962
    vertex 1053.4970399739577 2137.0538099704404 21.59999999999987
    vertex 1053.4970399739573 2137.0538099704404 1.9999999999999962
  endloop
endfacet
facet normal 1.0 -1.356998009682164e-14 9.056982432101851e-28
  outer loop
    vertex 980.3539890477731 2076.0535977074423 57.79999995591369
    vertex 980.3539890477728 2062.7538099704407 61.79999995591386
    vertex 980.3539890477728 2062.7538099704407 57.79999995591387
  endloop
endfacet
facet normal 1.0 -1.356998009682164e-14 9.056982432101851e-28
  outer loop
    vertex 980.3539890477728 2062.7538099704407 61.79999995591386
    vertex 980.3539890477731 2076.0535977074423 57.79999995591369
    vertex 980.3539890477731 2089.353385444444 61.799999955913684
  endloop
endfacet
facet normal 1.0 -1.356998009682164e-14 9.056982432101851e-28
  outer loop
    vertex 980.3539890477731 2089.353385444444 61.799999955913684
    vertex 980.3539890477731 2076.0535977074423 57.79999995591369
    vertex 980.3539890477731 2089.353385444444 57.79999995591369
  endloop
endfacet
facet normal 0.9999998479472392 -0.0003280345430568127 0.00044328189374784343
  outer loop
    vertex 1055.4970398193032 2133.053487619351 0.00045320851462431476
    vertex 1055.4539888931188 2060.7534876193513 61.80045316442846
    vertex 1055.4539888931188 2060.7534876193513 57.80045316442847
  endloop
endfacet
facet normal 0.9999998479472392 -0.0003280345430568127 0.00044328189374784343
  outer loop
    vertex 1055.4539888931188 2060.7534876193513 61.80045316442846
    vertex 1055.4970398193032 2133.053487619351 0.00045320851462431476
    vertex 1055.4539888931188 2091.353063093355 57.80045316442827
  endloop
endfacet
facet normal 0.9999998479472392 -0.0003280345430568127 0.00044328189374784343
  outer loop
    vertex 1055.4539888931188 2091.353063093355 57.80045316442827
    vertex 1055.4970398193032 2133.053487619351 0.00045320851462431476
    vertex 1055.4970398193036 2133.053487619351 23.600453208514484
  endloop
endfacet
facet normal 0.9999998479472392 -0.0003280345430568127 0.00044328189374784343
  outer loop
    vertex 1055.4970398193036 2133.053487619351 23.600453208514484
    vertex 1055.4970398193032 2133.053487619351 0.00045320851462431476
    vertex 1055.4970398193032 2137.0534876193506 0.00045320851462431476
  endloop
endfacet
facet normal 0.9999998479472392 -0.0003280345430568127 0.00044328189374784343
  outer loop
    vertex 1055.4970398193036 2133.053487619351 23.600453208514484
    vertex 1055.4970398193032 2137.0534876193506 0.00045320851462431476
    vertex 1055.4970398193036 2137.0534876193506 23.600453208514484
  endloop
endfacet
facet normal 0.9999998479472392 -0.0003280345430568127 0.00044328189374784343
  outer loop
    vertex 1055.4539888931188 2091.353063093355 61.80045316442826
    vertex 1055.4539888931188 2060.7534876193513 61.80045316442846
    vertex 1055.4539888931188 2091.353063093355 57.80045316442827
  endloop
endfacet
facet normal -0.892905720045894 -0.4502436841415144 -6.046983948609892e-16
  outer loop
    vertex 941.8970399739577 2133.0538099704404 23.599999999999866
    vertex 941.8970399739577 2133.0538099704404 0.0
    vertex 978.3539890477729 2060.7538099704407 57.79999995591387
  endloop
endfacet
facet normal -0.892905720045894 -0.4502436841415144 -6.046983948609892e-16
  outer loop
    vertex 941.8970399739577 2133.0538099704404 0.0
    vertex 941.8970399739577 2133.0538099704404 23.599999999999866
    vertex 941.8970399739577 2133.0538099704404 11.799999999999933
  endloop
endfacet
facet normal -0.6841711819979258 8.377209284799309e-15 0.7293214611702862
  outer loop
    vertex 978.3539890477729 2060.7538099704407 57.79999995591387
    vertex 978.3539890477731 2091.3533854444445 57.79999995591369
    vertex 941.8970399739577 2133.0538099704404 23.599999999999866
  endloop
endfacet
facet normal -0.6841711819979258 8.377209284799309e-15 0.7293214611702862
  outer loop
    vertex 978.3539890477731 2091.3533854444445 57.79999995591369
    vertex 978.3539890477729 2060.7538099704407 57.79999995591387
    vertex 978.3539890477731 2076.0535977074423 57.79999995591369
  endloop
endfacet
facet normal 0.7046017132146122 -1.4505871279120472e-14 -0.7096030057257603
  outer loop
    vertex 980.3539890477731 2089.353385444444 57.79999995591369
    vertex 980.3539890477728 2062.7538099704407 57.79999995591387
    vertex 943.8970399739578 2133.0538099704404 21.59999999999987
  endloop
endfacet
facet normal 0.7046017132146122 -1.4505871279120472e-14 -0.7096030057257603
  outer loop
    vertex 980.3539890477728 2062.7538099704407 57.79999995591387
    vertex 980.3539890477731 2089.353385444444 57.79999995591369
    vertex 980.3539890477731 2076.0535977074423 57.79999995591369
  endloop
endfacet
facet normal 0.8877282268159723 0.46036789127193656 -2.5813629895024328e-14
  outer loop
    vertex 943.8970399739572 2133.0538099704404 1.9999999999999962
    vertex 943.8970399739578 2133.0538099704404 21.59999999999987
    vertex 980.3539890477728 2062.7538099704407 57.79999995591387
  endloop
endfacet
facet normal 0.8877282268159723 0.46036789127193656 -2.5813629895024328e-14
  outer loop
    vertex 943.8970399739578 2133.0538099704404 21.59999999999987
    vertex 943.8970399739572 2133.0538099704404 1.9999999999999962
    vertex 943.8970399739578 2133.0538099704404 11.799999999999933
  endloop
endfacet
endsolid Pet Feeder
