M48
; DRILL file KiCad 10.0.6-10.0.6~ubuntu26.04.1 date 2026-09-26T12:36:02
; FORMAT={-:-/ absolute / metric / decimal}
; #@! TF.CreationDate,2026-09-26T12:36:02-04:00
; #@! TF.GenerationSoftware,Kicad,Pcbnew,10.0.6-10.0.6~ubuntu26.04.1
; #@! TF.FileFunction,Plated,1,2,PTH
FMAT,2
METRIC
; #@! TA.AperFunction,Plated,PTH,ComponentDrill
T1C1.000
; #@! TA.AperFunction,Plated,PTH,ComponentDrill
T2C1.016
; #@! TA.AperFunction,Plated,PTH,ComponentDrill
T3C1.600
; #@! TA.AperFunction,Plated,PTH,ComponentDrill
T4C2.500
%
G90
G05
T1
X45.732Y-139.95
X45.732Y-142.49
X45.732Y-145.03
X45.732Y-147.57
X45.732Y-150.11
X45.732Y-152.65
X45.732Y-155.19
X45.732Y-157.73
X45.732Y-160.27
X45.732Y-162.81
X45.732Y-165.35
X45.732Y-167.89
X66.052Y-139.95
X66.052Y-142.49
X66.052Y-145.03
X66.052Y-147.57
X66.052Y-150.11
X66.052Y-152.65
X66.052Y-155.19
X66.052Y-157.73
X66.052Y-160.27
X66.052Y-162.81
X66.052Y-165.35
X66.052Y-167.89
X66.052Y-170.43
X66.052Y-172.97
X66.052Y-175.51
X66.052Y-178.05
X88.036Y-124.07
X88.036Y-126.61
X88.036Y-129.15
X88.036Y-131.69
X88.036Y-134.23
X88.036Y-136.77
X88.036Y-139.31
X88.036Y-141.85
X88.036Y-144.39
X88.036Y-146.93
X97.92Y-179.45
X100.46Y-179.45
X103.0Y-141.45
X103.0Y-179.45
X105.54Y-141.45
X105.54Y-179.45
X108.08Y-141.45
X110.62Y-141.45
T2
X72.796Y-129.15
X72.796Y-131.69
X72.796Y-134.23
X72.796Y-136.77
X72.796Y-139.31
X72.796Y-141.85
X74.42Y-154.5
X76.96Y-154.5
X79.5Y-154.5
X82.04Y-154.5
X84.58Y-154.5
X87.12Y-154.5
X89.66Y-154.5
X92.2Y-154.5
T3
X107.0Y-114.92
X107.0Y-120.0
X107.0Y-126.92
X107.0Y-132.0
T4
X74.052Y-146.191
X74.066Y-124.705
M30
