%TF.GenerationSoftware,KiCad,Pcbnew,10.0.6-10.0.6~ubuntu26.04.1*%
%TF.CreationDate,2026-09-20T17:29:46-04:00*%
%TF.ProjectId,circut,63697263-7574-42e6-9b69-6361645f7063,rev?*%
%TF.SameCoordinates,Original*%
%TF.FileFunction,Legend,Top*%
%TF.FilePolarity,Positive*%
%FSLAX46Y46*%
G04 Gerber Fmt 4.6, Leading zero omitted, Abs format (unit mm)*
G04 Created by KiCad (PCBNEW 10.0.6-10.0.6~ubuntu26.04.1) date 2026-09-20 17:29:46*
%MOMM*%
%LPD*%
G01*
G04 APERTURE LIST*
%ADD10C,0.200000*%
%ADD11C,0.125000*%
%ADD12C,0.121920*%
%ADD13C,0.152400*%
%ADD14C,0.101600*%
%ADD15C,0.190500*%
%ADD16C,0.113792*%
%ADD17C,0.142240*%
%ADD18C,0.081280*%
%ADD19C,0.100000*%
%ADD20C,0.050000*%
%ADD21C,0.254000*%
G04 APERTURE END LIST*
D10*
X90500000Y-35000000D02*
X90500000Y-114000000D01*
X31000000Y-35000000D02*
X31000000Y-114000000D01*
X31000000Y-35000000D02*
X90500000Y-35000000D01*
X31000000Y-114000000D02*
X90500000Y-114000000D01*
X78462909Y-134511326D02*
X78462909Y-134177993D01*
X78986719Y-134035136D02*
X78986719Y-134511326D01*
X78986719Y-134511326D02*
X77986719Y-134511326D01*
X77986719Y-134511326D02*
X77986719Y-134035136D01*
X78939100Y-133654183D02*
X78986719Y-133511326D01*
X78986719Y-133511326D02*
X78986719Y-133273231D01*
X78986719Y-133273231D02*
X78939100Y-133177993D01*
X78939100Y-133177993D02*
X78891480Y-133130374D01*
X78891480Y-133130374D02*
X78796242Y-133082755D01*
X78796242Y-133082755D02*
X78701004Y-133082755D01*
X78701004Y-133082755D02*
X78605766Y-133130374D01*
X78605766Y-133130374D02*
X78558147Y-133177993D01*
X78558147Y-133177993D02*
X78510528Y-133273231D01*
X78510528Y-133273231D02*
X78462909Y-133463707D01*
X78462909Y-133463707D02*
X78415290Y-133558945D01*
X78415290Y-133558945D02*
X78367671Y-133606564D01*
X78367671Y-133606564D02*
X78272433Y-133654183D01*
X78272433Y-133654183D02*
X78177195Y-133654183D01*
X78177195Y-133654183D02*
X78081957Y-133606564D01*
X78081957Y-133606564D02*
X78034338Y-133558945D01*
X78034338Y-133558945D02*
X77986719Y-133463707D01*
X77986719Y-133463707D02*
X77986719Y-133225612D01*
X77986719Y-133225612D02*
X78034338Y-133082755D01*
X78986719Y-132654183D02*
X77986719Y-132654183D01*
X77986719Y-132654183D02*
X77986719Y-132273231D01*
X77986719Y-132273231D02*
X78034338Y-132177993D01*
X78034338Y-132177993D02*
X78081957Y-132130374D01*
X78081957Y-132130374D02*
X78177195Y-132082755D01*
X78177195Y-132082755D02*
X78320052Y-132082755D01*
X78320052Y-132082755D02*
X78415290Y-132130374D01*
X78415290Y-132130374D02*
X78462909Y-132177993D01*
X78462909Y-132177993D02*
X78510528Y-132273231D01*
X78510528Y-132273231D02*
X78510528Y-132654183D01*
X77986719Y-131749421D02*
X77986719Y-131130374D01*
X77986719Y-131130374D02*
X78367671Y-131463707D01*
X78367671Y-131463707D02*
X78367671Y-131320850D01*
X78367671Y-131320850D02*
X78415290Y-131225612D01*
X78415290Y-131225612D02*
X78462909Y-131177993D01*
X78462909Y-131177993D02*
X78558147Y-131130374D01*
X78558147Y-131130374D02*
X78796242Y-131130374D01*
X78796242Y-131130374D02*
X78891480Y-131177993D01*
X78891480Y-131177993D02*
X78939100Y-131225612D01*
X78939100Y-131225612D02*
X78986719Y-131320850D01*
X78986719Y-131320850D02*
X78986719Y-131606564D01*
X78986719Y-131606564D02*
X78939100Y-131701802D01*
X78939100Y-131701802D02*
X78891480Y-131749421D01*
X78081957Y-130749421D02*
X78034338Y-130701802D01*
X78034338Y-130701802D02*
X77986719Y-130606564D01*
X77986719Y-130606564D02*
X77986719Y-130368469D01*
X77986719Y-130368469D02*
X78034338Y-130273231D01*
X78034338Y-130273231D02*
X78081957Y-130225612D01*
X78081957Y-130225612D02*
X78177195Y-130177993D01*
X78177195Y-130177993D02*
X78272433Y-130177993D01*
X78272433Y-130177993D02*
X78415290Y-130225612D01*
X78415290Y-130225612D02*
X78986719Y-130797040D01*
X78986719Y-130797040D02*
X78986719Y-130177993D01*
D11*
X76990619Y-136060668D02*
X75990619Y-136060668D01*
X76466809Y-136060668D02*
X76466809Y-135489240D01*
X76990619Y-135489240D02*
X75990619Y-135489240D01*
X75990619Y-135013049D02*
X76800142Y-135013049D01*
X76800142Y-135013049D02*
X76895380Y-134965430D01*
X76895380Y-134965430D02*
X76943000Y-134917811D01*
X76943000Y-134917811D02*
X76990619Y-134822573D01*
X76990619Y-134822573D02*
X76990619Y-134632097D01*
X76990619Y-134632097D02*
X76943000Y-134536859D01*
X76943000Y-134536859D02*
X76895380Y-134489240D01*
X76895380Y-134489240D02*
X76800142Y-134441621D01*
X76800142Y-134441621D02*
X75990619Y-134441621D01*
X75990619Y-134060668D02*
X75990619Y-133394002D01*
X75990619Y-133394002D02*
X76990619Y-134060668D01*
X76990619Y-134060668D02*
X76990619Y-133394002D01*
X75990619Y-133108287D02*
X75990619Y-132441621D01*
X75990619Y-132441621D02*
X76990619Y-133108287D01*
X76990619Y-133108287D02*
X76990619Y-132441621D01*
X76704904Y-132108287D02*
X76704904Y-131632097D01*
X76990619Y-132203525D02*
X75990619Y-131870192D01*
X75990619Y-131870192D02*
X76990619Y-131536859D01*
X76990619Y-131203525D02*
X75990619Y-131203525D01*
X76466809Y-131203525D02*
X76466809Y-130632097D01*
X76990619Y-130632097D02*
X75990619Y-130632097D01*
X75990619Y-130251144D02*
X75990619Y-129632097D01*
X75990619Y-129632097D02*
X76371571Y-129965430D01*
X76371571Y-129965430D02*
X76371571Y-129822573D01*
X76371571Y-129822573D02*
X76419190Y-129727335D01*
X76419190Y-129727335D02*
X76466809Y-129679716D01*
X76466809Y-129679716D02*
X76562047Y-129632097D01*
X76562047Y-129632097D02*
X76800142Y-129632097D01*
X76800142Y-129632097D02*
X76895380Y-129679716D01*
X76895380Y-129679716D02*
X76943000Y-129727335D01*
X76943000Y-129727335D02*
X76990619Y-129822573D01*
X76990619Y-129822573D02*
X76990619Y-130108287D01*
X76990619Y-130108287D02*
X76943000Y-130203525D01*
X76943000Y-130203525D02*
X76895380Y-130251144D01*
X76085857Y-129251144D02*
X76038238Y-129203525D01*
X76038238Y-129203525D02*
X75990619Y-129108287D01*
X75990619Y-129108287D02*
X75990619Y-128870192D01*
X75990619Y-128870192D02*
X76038238Y-128774954D01*
X76038238Y-128774954D02*
X76085857Y-128727335D01*
X76085857Y-128727335D02*
X76181095Y-128679716D01*
X76181095Y-128679716D02*
X76276333Y-128679716D01*
X76276333Y-128679716D02*
X76419190Y-128727335D01*
X76419190Y-128727335D02*
X76990619Y-129298763D01*
X76990619Y-129298763D02*
X76990619Y-128679716D01*
D12*
X61832946Y-142377951D02*
X61960672Y-142420526D01*
X61960672Y-142420526D02*
X62003247Y-142463102D01*
X62003247Y-142463102D02*
X62045823Y-142548252D01*
X62045823Y-142548252D02*
X62045823Y-142675978D01*
X62045823Y-142675978D02*
X62003247Y-142761128D01*
X62003247Y-142761128D02*
X61960672Y-142803704D01*
X61960672Y-142803704D02*
X61875522Y-142846279D01*
X61875522Y-142846279D02*
X61534920Y-142846279D01*
X61534920Y-142846279D02*
X61534920Y-141952199D01*
X61534920Y-141952199D02*
X61832946Y-141952199D01*
X61832946Y-141952199D02*
X61918097Y-141994774D01*
X61918097Y-141994774D02*
X61960672Y-142037349D01*
X61960672Y-142037349D02*
X62003247Y-142122500D01*
X62003247Y-142122500D02*
X62003247Y-142207650D01*
X62003247Y-142207650D02*
X61960672Y-142292801D01*
X61960672Y-142292801D02*
X61918097Y-142335376D01*
X61918097Y-142335376D02*
X61832946Y-142377951D01*
X61832946Y-142377951D02*
X61534920Y-142377951D01*
X62812177Y-142846279D02*
X62812177Y-142377951D01*
X62812177Y-142377951D02*
X62769602Y-142292801D01*
X62769602Y-142292801D02*
X62684451Y-142250225D01*
X62684451Y-142250225D02*
X62514150Y-142250225D01*
X62514150Y-142250225D02*
X62429000Y-142292801D01*
X62812177Y-142803704D02*
X62727026Y-142846279D01*
X62727026Y-142846279D02*
X62514150Y-142846279D01*
X62514150Y-142846279D02*
X62429000Y-142803704D01*
X62429000Y-142803704D02*
X62386424Y-142718553D01*
X62386424Y-142718553D02*
X62386424Y-142633403D01*
X62386424Y-142633403D02*
X62429000Y-142548252D01*
X62429000Y-142548252D02*
X62514150Y-142505677D01*
X62514150Y-142505677D02*
X62727026Y-142505677D01*
X62727026Y-142505677D02*
X62812177Y-142463102D01*
X63110204Y-142250225D02*
X63450806Y-142250225D01*
X63237930Y-141952199D02*
X63237930Y-142718553D01*
X63237930Y-142718553D02*
X63280505Y-142803704D01*
X63280505Y-142803704D02*
X63365655Y-142846279D01*
X63365655Y-142846279D02*
X63450806Y-142846279D01*
X61938296Y-122436774D02*
X61853146Y-122394199D01*
X61853146Y-122394199D02*
X61725420Y-122394199D01*
X61725420Y-122394199D02*
X61597694Y-122436774D01*
X61597694Y-122436774D02*
X61512544Y-122521924D01*
X61512544Y-122521924D02*
X61469969Y-122607075D01*
X61469969Y-122607075D02*
X61427393Y-122777376D01*
X61427393Y-122777376D02*
X61427393Y-122905102D01*
X61427393Y-122905102D02*
X61469969Y-123075403D01*
X61469969Y-123075403D02*
X61512544Y-123160553D01*
X61512544Y-123160553D02*
X61597694Y-123245704D01*
X61597694Y-123245704D02*
X61725420Y-123288279D01*
X61725420Y-123288279D02*
X61810571Y-123288279D01*
X61810571Y-123288279D02*
X61938296Y-123245704D01*
X61938296Y-123245704D02*
X61980872Y-123203128D01*
X61980872Y-123203128D02*
X61980872Y-122905102D01*
X61980872Y-122905102D02*
X61810571Y-122905102D01*
X62364049Y-123288279D02*
X62364049Y-122394199D01*
X62364049Y-122394199D02*
X62874952Y-123288279D01*
X62874952Y-123288279D02*
X62874952Y-122394199D01*
X63300704Y-123288279D02*
X63300704Y-122394199D01*
X63300704Y-122394199D02*
X63513580Y-122394199D01*
X63513580Y-122394199D02*
X63641306Y-122436774D01*
X63641306Y-122436774D02*
X63726456Y-122521924D01*
X63726456Y-122521924D02*
X63769031Y-122607075D01*
X63769031Y-122607075D02*
X63811607Y-122777376D01*
X63811607Y-122777376D02*
X63811607Y-122905102D01*
X63811607Y-122905102D02*
X63769031Y-123075403D01*
X63769031Y-123075403D02*
X63726456Y-123160553D01*
X63726456Y-123160553D02*
X63641306Y-123245704D01*
X63641306Y-123245704D02*
X63513580Y-123288279D01*
X63513580Y-123288279D02*
X63300704Y-123288279D01*
X64671698Y-142846279D02*
X64160795Y-142846279D01*
X64416247Y-142846279D02*
X64416247Y-141952199D01*
X64416247Y-141952199D02*
X64331096Y-142079924D01*
X64331096Y-142079924D02*
X64245946Y-142165075D01*
X64245946Y-142165075D02*
X64160795Y-142207650D01*
X65480628Y-141952199D02*
X65054876Y-141952199D01*
X65054876Y-141952199D02*
X65012300Y-142377951D01*
X65012300Y-142377951D02*
X65054876Y-142335376D01*
X65054876Y-142335376D02*
X65140026Y-142292801D01*
X65140026Y-142292801D02*
X65352902Y-142292801D01*
X65352902Y-142292801D02*
X65438053Y-142335376D01*
X65438053Y-142335376D02*
X65480628Y-142377951D01*
X65480628Y-142377951D02*
X65523203Y-142463102D01*
X65523203Y-142463102D02*
X65523203Y-142675978D01*
X65523203Y-142675978D02*
X65480628Y-142761128D01*
X65480628Y-142761128D02*
X65438053Y-142803704D01*
X65438053Y-142803704D02*
X65352902Y-142846279D01*
X65352902Y-142846279D02*
X65140026Y-142846279D01*
X65140026Y-142846279D02*
X65054876Y-142803704D01*
X65054876Y-142803704D02*
X65012300Y-142761128D01*
X64478296Y-122330699D02*
X65031774Y-122330699D01*
X65031774Y-122330699D02*
X64733748Y-122671301D01*
X64733748Y-122671301D02*
X64861473Y-122671301D01*
X64861473Y-122671301D02*
X64946624Y-122713876D01*
X64946624Y-122713876D02*
X64989199Y-122756451D01*
X64989199Y-122756451D02*
X65031774Y-122841602D01*
X65031774Y-122841602D02*
X65031774Y-123054478D01*
X65031774Y-123054478D02*
X64989199Y-123139628D01*
X64989199Y-123139628D02*
X64946624Y-123182204D01*
X64946624Y-123182204D02*
X64861473Y-123224779D01*
X64861473Y-123224779D02*
X64606022Y-123224779D01*
X64606022Y-123224779D02*
X64520871Y-123182204D01*
X64520871Y-123182204D02*
X64478296Y-123139628D01*
X65287226Y-122330699D02*
X65585253Y-123224779D01*
X65585253Y-123224779D02*
X65883279Y-122330699D01*
X66552508Y-142377225D02*
X67191137Y-142377225D01*
X66807960Y-141994048D02*
X66552508Y-143143580D01*
X67105987Y-142760403D02*
X66467358Y-142760403D01*
X66850535Y-143143580D02*
X67105987Y-141994048D01*
X67446588Y-142164349D02*
X67489164Y-142121774D01*
X67489164Y-142121774D02*
X67574314Y-142079199D01*
X67574314Y-142079199D02*
X67787190Y-142079199D01*
X67787190Y-142079199D02*
X67872341Y-142121774D01*
X67872341Y-142121774D02*
X67914916Y-142164349D01*
X67914916Y-142164349D02*
X67957491Y-142249500D01*
X67957491Y-142249500D02*
X67957491Y-142334650D01*
X67957491Y-142334650D02*
X67914916Y-142462376D01*
X67914916Y-142462376D02*
X67404013Y-142973279D01*
X67404013Y-142973279D02*
X67957491Y-142973279D01*
X67402198Y-123224779D02*
X66891295Y-123224779D01*
X67146747Y-123224779D02*
X67146747Y-122330699D01*
X67146747Y-122330699D02*
X67061596Y-122458424D01*
X67061596Y-122458424D02*
X66976446Y-122543575D01*
X66976446Y-122543575D02*
X66891295Y-122586150D01*
X67700225Y-122330699D02*
X68253703Y-122330699D01*
X68253703Y-122330699D02*
X67955677Y-122671301D01*
X67955677Y-122671301D02*
X68083402Y-122671301D01*
X68083402Y-122671301D02*
X68168553Y-122713876D01*
X68168553Y-122713876D02*
X68211128Y-122756451D01*
X68211128Y-122756451D02*
X68253703Y-122841602D01*
X68253703Y-122841602D02*
X68253703Y-123054478D01*
X68253703Y-123054478D02*
X68211128Y-123139628D01*
X68211128Y-123139628D02*
X68168553Y-123182204D01*
X68168553Y-123182204D02*
X68083402Y-123224779D01*
X68083402Y-123224779D02*
X67827951Y-123224779D01*
X67827951Y-123224779D02*
X67742800Y-123182204D01*
X67742800Y-123182204D02*
X67700225Y-123139628D01*
X69219508Y-142377225D02*
X69858137Y-142377225D01*
X69474960Y-141994048D02*
X69219508Y-143143580D01*
X69772987Y-142760403D02*
X69134358Y-142760403D01*
X69517535Y-143143580D02*
X69772987Y-141994048D01*
X70326465Y-142079199D02*
X70411615Y-142079199D01*
X70411615Y-142079199D02*
X70496766Y-142121774D01*
X70496766Y-142121774D02*
X70539341Y-142164349D01*
X70539341Y-142164349D02*
X70581916Y-142249500D01*
X70581916Y-142249500D02*
X70624491Y-142419801D01*
X70624491Y-142419801D02*
X70624491Y-142632677D01*
X70624491Y-142632677D02*
X70581916Y-142802978D01*
X70581916Y-142802978D02*
X70539341Y-142888128D01*
X70539341Y-142888128D02*
X70496766Y-142930704D01*
X70496766Y-142930704D02*
X70411615Y-142973279D01*
X70411615Y-142973279D02*
X70326465Y-142973279D01*
X70326465Y-142973279D02*
X70241314Y-142930704D01*
X70241314Y-142930704D02*
X70198739Y-142888128D01*
X70198739Y-142888128D02*
X70156164Y-142802978D01*
X70156164Y-142802978D02*
X70113588Y-142632677D01*
X70113588Y-142632677D02*
X70113588Y-142419801D01*
X70113588Y-142419801D02*
X70156164Y-142249500D01*
X70156164Y-142249500D02*
X70198739Y-142164349D01*
X70198739Y-142164349D02*
X70241314Y-142121774D01*
X70241314Y-142121774D02*
X70326465Y-142079199D01*
X69815198Y-123224779D02*
X69304295Y-123224779D01*
X69559747Y-123224779D02*
X69559747Y-122330699D01*
X69559747Y-122330699D02*
X69474596Y-122458424D01*
X69474596Y-122458424D02*
X69389446Y-122543575D01*
X69389446Y-122543575D02*
X69304295Y-122586150D01*
X70155800Y-122415849D02*
X70198376Y-122373274D01*
X70198376Y-122373274D02*
X70283526Y-122330699D01*
X70283526Y-122330699D02*
X70496402Y-122330699D01*
X70496402Y-122330699D02*
X70581553Y-122373274D01*
X70581553Y-122373274D02*
X70624128Y-122415849D01*
X70624128Y-122415849D02*
X70666703Y-122501000D01*
X70666703Y-122501000D02*
X70666703Y-122586150D01*
X70666703Y-122586150D02*
X70624128Y-122713876D01*
X70624128Y-122713876D02*
X70113225Y-123224779D01*
X70113225Y-123224779D02*
X70666703Y-123224779D01*
X71632508Y-142377225D02*
X72271137Y-142377225D01*
X71887960Y-141994048D02*
X71632508Y-143143580D01*
X72185987Y-142760403D02*
X71547358Y-142760403D01*
X71930535Y-143143580D02*
X72185987Y-141994048D01*
X72952341Y-142377225D02*
X72952341Y-142973279D01*
X72739465Y-142036624D02*
X72526588Y-142675252D01*
X72526588Y-142675252D02*
X73080067Y-142675252D01*
X72355198Y-123227279D02*
X71844295Y-123227279D01*
X72099747Y-123227279D02*
X72099747Y-122333199D01*
X72099747Y-122333199D02*
X72014596Y-122460924D01*
X72014596Y-122460924D02*
X71929446Y-122546075D01*
X71929446Y-122546075D02*
X71844295Y-122588650D01*
X73121553Y-122631225D02*
X73121553Y-123227279D01*
X72908677Y-122290624D02*
X72695800Y-122929252D01*
X72695800Y-122929252D02*
X73249279Y-122929252D01*
X74831698Y-142973279D02*
X74320795Y-142973279D01*
X74576247Y-142973279D02*
X74576247Y-142079199D01*
X74576247Y-142079199D02*
X74491096Y-142206924D01*
X74491096Y-142206924D02*
X74405946Y-142292075D01*
X74405946Y-142292075D02*
X74320795Y-142334650D01*
X75598053Y-142079199D02*
X75427752Y-142079199D01*
X75427752Y-142079199D02*
X75342601Y-142121774D01*
X75342601Y-142121774D02*
X75300026Y-142164349D01*
X75300026Y-142164349D02*
X75214876Y-142292075D01*
X75214876Y-142292075D02*
X75172300Y-142462376D01*
X75172300Y-142462376D02*
X75172300Y-142802978D01*
X75172300Y-142802978D02*
X75214876Y-142888128D01*
X75214876Y-142888128D02*
X75257451Y-142930704D01*
X75257451Y-142930704D02*
X75342601Y-142973279D01*
X75342601Y-142973279D02*
X75512902Y-142973279D01*
X75512902Y-142973279D02*
X75598053Y-142930704D01*
X75598053Y-142930704D02*
X75640628Y-142888128D01*
X75640628Y-142888128D02*
X75683203Y-142802978D01*
X75683203Y-142802978D02*
X75683203Y-142590102D01*
X75683203Y-142590102D02*
X75640628Y-142504951D01*
X75640628Y-142504951D02*
X75598053Y-142462376D01*
X75598053Y-142462376D02*
X75512902Y-142419801D01*
X75512902Y-142419801D02*
X75342601Y-142419801D01*
X75342601Y-142419801D02*
X75257451Y-142462376D01*
X75257451Y-142462376D02*
X75214876Y-142504951D01*
X75214876Y-142504951D02*
X75172300Y-142590102D01*
X74384295Y-122288849D02*
X74426871Y-122246274D01*
X74426871Y-122246274D02*
X74512021Y-122203699D01*
X74512021Y-122203699D02*
X74724897Y-122203699D01*
X74724897Y-122203699D02*
X74810048Y-122246274D01*
X74810048Y-122246274D02*
X74852623Y-122288849D01*
X74852623Y-122288849D02*
X74895198Y-122374000D01*
X74895198Y-122374000D02*
X74895198Y-122459150D01*
X74895198Y-122459150D02*
X74852623Y-122586876D01*
X74852623Y-122586876D02*
X74341720Y-123097779D01*
X74341720Y-123097779D02*
X74895198Y-123097779D01*
X75193225Y-122203699D02*
X75789279Y-122203699D01*
X75789279Y-122203699D02*
X75406101Y-123097779D01*
X77244698Y-142973279D02*
X76733795Y-142973279D01*
X76989247Y-142973279D02*
X76989247Y-142079199D01*
X76989247Y-142079199D02*
X76904096Y-142206924D01*
X76904096Y-142206924D02*
X76818946Y-142292075D01*
X76818946Y-142292075D02*
X76733795Y-142334650D01*
X77542725Y-142079199D02*
X78138779Y-142079199D01*
X78138779Y-142079199D02*
X77755601Y-142973279D01*
X76924295Y-122288849D02*
X76966871Y-122246274D01*
X76966871Y-122246274D02*
X77052021Y-122203699D01*
X77052021Y-122203699D02*
X77264897Y-122203699D01*
X77264897Y-122203699D02*
X77350048Y-122246274D01*
X77350048Y-122246274D02*
X77392623Y-122288849D01*
X77392623Y-122288849D02*
X77435198Y-122374000D01*
X77435198Y-122374000D02*
X77435198Y-122459150D01*
X77435198Y-122459150D02*
X77392623Y-122586876D01*
X77392623Y-122586876D02*
X76881720Y-123097779D01*
X76881720Y-123097779D02*
X77435198Y-123097779D01*
X78201553Y-122203699D02*
X78031252Y-122203699D01*
X78031252Y-122203699D02*
X77946101Y-122246274D01*
X77946101Y-122246274D02*
X77903526Y-122288849D01*
X77903526Y-122288849D02*
X77818376Y-122416575D01*
X77818376Y-122416575D02*
X77775800Y-122586876D01*
X77775800Y-122586876D02*
X77775800Y-122927478D01*
X77775800Y-122927478D02*
X77818376Y-123012628D01*
X77818376Y-123012628D02*
X77860951Y-123055204D01*
X77860951Y-123055204D02*
X77946101Y-123097779D01*
X77946101Y-123097779D02*
X78116402Y-123097779D01*
X78116402Y-123097779D02*
X78201553Y-123055204D01*
X78201553Y-123055204D02*
X78244128Y-123012628D01*
X78244128Y-123012628D02*
X78286703Y-122927478D01*
X78286703Y-122927478D02*
X78286703Y-122714602D01*
X78286703Y-122714602D02*
X78244128Y-122629451D01*
X78244128Y-122629451D02*
X78201553Y-122586876D01*
X78201553Y-122586876D02*
X78116402Y-122544301D01*
X78116402Y-122544301D02*
X77946101Y-122544301D01*
X77946101Y-122544301D02*
X77860951Y-122586876D01*
X77860951Y-122586876D02*
X77818376Y-122629451D01*
X77818376Y-122629451D02*
X77775800Y-122714602D01*
X79252508Y-142377225D02*
X79891137Y-142377225D01*
X79507960Y-141994048D02*
X79252508Y-143143580D01*
X79805987Y-142760403D02*
X79167358Y-142760403D01*
X79550535Y-143143580D02*
X79805987Y-141994048D01*
X80614916Y-142079199D02*
X80189164Y-142079199D01*
X80189164Y-142079199D02*
X80146588Y-142504951D01*
X80146588Y-142504951D02*
X80189164Y-142462376D01*
X80189164Y-142462376D02*
X80274314Y-142419801D01*
X80274314Y-142419801D02*
X80487190Y-142419801D01*
X80487190Y-142419801D02*
X80572341Y-142462376D01*
X80572341Y-142462376D02*
X80614916Y-142504951D01*
X80614916Y-142504951D02*
X80657491Y-142590102D01*
X80657491Y-142590102D02*
X80657491Y-142802978D01*
X80657491Y-142802978D02*
X80614916Y-142888128D01*
X80614916Y-142888128D02*
X80572341Y-142930704D01*
X80572341Y-142930704D02*
X80487190Y-142973279D01*
X80487190Y-142973279D02*
X80274314Y-142973279D01*
X80274314Y-142973279D02*
X80189164Y-142930704D01*
X80189164Y-142930704D02*
X80146588Y-142888128D01*
X79464295Y-122288849D02*
X79506871Y-122246274D01*
X79506871Y-122246274D02*
X79592021Y-122203699D01*
X79592021Y-122203699D02*
X79804897Y-122203699D01*
X79804897Y-122203699D02*
X79890048Y-122246274D01*
X79890048Y-122246274D02*
X79932623Y-122288849D01*
X79932623Y-122288849D02*
X79975198Y-122374000D01*
X79975198Y-122374000D02*
X79975198Y-122459150D01*
X79975198Y-122459150D02*
X79932623Y-122586876D01*
X79932623Y-122586876D02*
X79421720Y-123097779D01*
X79421720Y-123097779D02*
X79975198Y-123097779D01*
X80784128Y-122203699D02*
X80358376Y-122203699D01*
X80358376Y-122203699D02*
X80315800Y-122629451D01*
X80315800Y-122629451D02*
X80358376Y-122586876D01*
X80358376Y-122586876D02*
X80443526Y-122544301D01*
X80443526Y-122544301D02*
X80656402Y-122544301D01*
X80656402Y-122544301D02*
X80741553Y-122586876D01*
X80741553Y-122586876D02*
X80784128Y-122629451D01*
X80784128Y-122629451D02*
X80826703Y-122714602D01*
X80826703Y-122714602D02*
X80826703Y-122927478D01*
X80826703Y-122927478D02*
X80784128Y-123012628D01*
X80784128Y-123012628D02*
X80741553Y-123055204D01*
X80741553Y-123055204D02*
X80656402Y-123097779D01*
X80656402Y-123097779D02*
X80443526Y-123097779D01*
X80443526Y-123097779D02*
X80358376Y-123055204D01*
X80358376Y-123055204D02*
X80315800Y-123012628D01*
X82324698Y-142973279D02*
X81813795Y-142973279D01*
X82069247Y-142973279D02*
X82069247Y-142079199D01*
X82069247Y-142079199D02*
X81984096Y-142206924D01*
X81984096Y-142206924D02*
X81898946Y-142292075D01*
X81898946Y-142292075D02*
X81813795Y-142334650D01*
X82835601Y-142462376D02*
X82750451Y-142419801D01*
X82750451Y-142419801D02*
X82707876Y-142377225D01*
X82707876Y-142377225D02*
X82665300Y-142292075D01*
X82665300Y-142292075D02*
X82665300Y-142249500D01*
X82665300Y-142249500D02*
X82707876Y-142164349D01*
X82707876Y-142164349D02*
X82750451Y-142121774D01*
X82750451Y-142121774D02*
X82835601Y-142079199D01*
X82835601Y-142079199D02*
X83005902Y-142079199D01*
X83005902Y-142079199D02*
X83091053Y-142121774D01*
X83091053Y-142121774D02*
X83133628Y-142164349D01*
X83133628Y-142164349D02*
X83176203Y-142249500D01*
X83176203Y-142249500D02*
X83176203Y-142292075D01*
X83176203Y-142292075D02*
X83133628Y-142377225D01*
X83133628Y-142377225D02*
X83091053Y-142419801D01*
X83091053Y-142419801D02*
X83005902Y-142462376D01*
X83005902Y-142462376D02*
X82835601Y-142462376D01*
X82835601Y-142462376D02*
X82750451Y-142504951D01*
X82750451Y-142504951D02*
X82707876Y-142547526D01*
X82707876Y-142547526D02*
X82665300Y-142632677D01*
X82665300Y-142632677D02*
X82665300Y-142802978D01*
X82665300Y-142802978D02*
X82707876Y-142888128D01*
X82707876Y-142888128D02*
X82750451Y-142930704D01*
X82750451Y-142930704D02*
X82835601Y-142973279D01*
X82835601Y-142973279D02*
X83005902Y-142973279D01*
X83005902Y-142973279D02*
X83091053Y-142930704D01*
X83091053Y-142930704D02*
X83133628Y-142888128D01*
X83133628Y-142888128D02*
X83176203Y-142802978D01*
X83176203Y-142802978D02*
X83176203Y-142632677D01*
X83176203Y-142632677D02*
X83133628Y-142547526D01*
X83133628Y-142547526D02*
X83091053Y-142504951D01*
X83091053Y-142504951D02*
X83005902Y-142462376D01*
X81961720Y-122203699D02*
X82515198Y-122203699D01*
X82515198Y-122203699D02*
X82217172Y-122544301D01*
X82217172Y-122544301D02*
X82344897Y-122544301D01*
X82344897Y-122544301D02*
X82430048Y-122586876D01*
X82430048Y-122586876D02*
X82472623Y-122629451D01*
X82472623Y-122629451D02*
X82515198Y-122714602D01*
X82515198Y-122714602D02*
X82515198Y-122927478D01*
X82515198Y-122927478D02*
X82472623Y-123012628D01*
X82472623Y-123012628D02*
X82430048Y-123055204D01*
X82430048Y-123055204D02*
X82344897Y-123097779D01*
X82344897Y-123097779D02*
X82089446Y-123097779D01*
X82089446Y-123097779D02*
X82004295Y-123055204D01*
X82004295Y-123055204D02*
X81961720Y-123012628D01*
X82813225Y-122203699D02*
X83366703Y-122203699D01*
X83366703Y-122203699D02*
X83068677Y-122544301D01*
X83068677Y-122544301D02*
X83196402Y-122544301D01*
X83196402Y-122544301D02*
X83281553Y-122586876D01*
X83281553Y-122586876D02*
X83324128Y-122629451D01*
X83324128Y-122629451D02*
X83366703Y-122714602D01*
X83366703Y-122714602D02*
X83366703Y-122927478D01*
X83366703Y-122927478D02*
X83324128Y-123012628D01*
X83324128Y-123012628D02*
X83281553Y-123055204D01*
X83281553Y-123055204D02*
X83196402Y-123097779D01*
X83196402Y-123097779D02*
X82940951Y-123097779D01*
X82940951Y-123097779D02*
X82855800Y-123055204D01*
X82855800Y-123055204D02*
X82813225Y-123012628D01*
X84864698Y-142973279D02*
X84353795Y-142973279D01*
X84609247Y-142973279D02*
X84609247Y-142079199D01*
X84609247Y-142079199D02*
X84524096Y-142206924D01*
X84524096Y-142206924D02*
X84438946Y-142292075D01*
X84438946Y-142292075D02*
X84353795Y-142334650D01*
X85290451Y-142973279D02*
X85460752Y-142973279D01*
X85460752Y-142973279D02*
X85545902Y-142930704D01*
X85545902Y-142930704D02*
X85588478Y-142888128D01*
X85588478Y-142888128D02*
X85673628Y-142760403D01*
X85673628Y-142760403D02*
X85716203Y-142590102D01*
X85716203Y-142590102D02*
X85716203Y-142249500D01*
X85716203Y-142249500D02*
X85673628Y-142164349D01*
X85673628Y-142164349D02*
X85631053Y-142121774D01*
X85631053Y-142121774D02*
X85545902Y-142079199D01*
X85545902Y-142079199D02*
X85375601Y-142079199D01*
X85375601Y-142079199D02*
X85290451Y-142121774D01*
X85290451Y-142121774D02*
X85247876Y-142164349D01*
X85247876Y-142164349D02*
X85205300Y-142249500D01*
X85205300Y-142249500D02*
X85205300Y-142462376D01*
X85205300Y-142462376D02*
X85247876Y-142547526D01*
X85247876Y-142547526D02*
X85290451Y-142590102D01*
X85290451Y-142590102D02*
X85375601Y-142632677D01*
X85375601Y-142632677D02*
X85545902Y-142632677D01*
X85545902Y-142632677D02*
X85631053Y-142590102D01*
X85631053Y-142590102D02*
X85673628Y-142547526D01*
X85673628Y-142547526D02*
X85716203Y-142462376D01*
X84501720Y-122203699D02*
X85055198Y-122203699D01*
X85055198Y-122203699D02*
X84757172Y-122544301D01*
X84757172Y-122544301D02*
X84884897Y-122544301D01*
X84884897Y-122544301D02*
X84970048Y-122586876D01*
X84970048Y-122586876D02*
X85012623Y-122629451D01*
X85012623Y-122629451D02*
X85055198Y-122714602D01*
X85055198Y-122714602D02*
X85055198Y-122927478D01*
X85055198Y-122927478D02*
X85012623Y-123012628D01*
X85012623Y-123012628D02*
X84970048Y-123055204D01*
X84970048Y-123055204D02*
X84884897Y-123097779D01*
X84884897Y-123097779D02*
X84629446Y-123097779D01*
X84629446Y-123097779D02*
X84544295Y-123055204D01*
X84544295Y-123055204D02*
X84501720Y-123012628D01*
X85395800Y-122288849D02*
X85438376Y-122246274D01*
X85438376Y-122246274D02*
X85523526Y-122203699D01*
X85523526Y-122203699D02*
X85736402Y-122203699D01*
X85736402Y-122203699D02*
X85821553Y-122246274D01*
X85821553Y-122246274D02*
X85864128Y-122288849D01*
X85864128Y-122288849D02*
X85906703Y-122374000D01*
X85906703Y-122374000D02*
X85906703Y-122459150D01*
X85906703Y-122459150D02*
X85864128Y-122586876D01*
X85864128Y-122586876D02*
X85353225Y-123097779D01*
X85353225Y-123097779D02*
X85906703Y-123097779D01*
X86893795Y-142164349D02*
X86936371Y-142121774D01*
X86936371Y-142121774D02*
X87021521Y-142079199D01*
X87021521Y-142079199D02*
X87234397Y-142079199D01*
X87234397Y-142079199D02*
X87319548Y-142121774D01*
X87319548Y-142121774D02*
X87362123Y-142164349D01*
X87362123Y-142164349D02*
X87404698Y-142249500D01*
X87404698Y-142249500D02*
X87404698Y-142334650D01*
X87404698Y-142334650D02*
X87362123Y-142462376D01*
X87362123Y-142462376D02*
X86851220Y-142973279D01*
X86851220Y-142973279D02*
X87404698Y-142973279D01*
X88256203Y-142973279D02*
X87745300Y-142973279D01*
X88000752Y-142973279D02*
X88000752Y-142079199D01*
X88000752Y-142079199D02*
X87915601Y-142206924D01*
X87915601Y-142206924D02*
X87830451Y-142292075D01*
X87830451Y-142292075D02*
X87745300Y-142334650D01*
X87041720Y-122203699D02*
X87595198Y-122203699D01*
X87595198Y-122203699D02*
X87297172Y-122544301D01*
X87297172Y-122544301D02*
X87424897Y-122544301D01*
X87424897Y-122544301D02*
X87510048Y-122586876D01*
X87510048Y-122586876D02*
X87552623Y-122629451D01*
X87552623Y-122629451D02*
X87595198Y-122714602D01*
X87595198Y-122714602D02*
X87595198Y-122927478D01*
X87595198Y-122927478D02*
X87552623Y-123012628D01*
X87552623Y-123012628D02*
X87510048Y-123055204D01*
X87510048Y-123055204D02*
X87424897Y-123097779D01*
X87424897Y-123097779D02*
X87169446Y-123097779D01*
X87169446Y-123097779D02*
X87084295Y-123055204D01*
X87084295Y-123055204D02*
X87041720Y-123012628D01*
X88404128Y-122203699D02*
X87978376Y-122203699D01*
X87978376Y-122203699D02*
X87935800Y-122629451D01*
X87935800Y-122629451D02*
X87978376Y-122586876D01*
X87978376Y-122586876D02*
X88063526Y-122544301D01*
X88063526Y-122544301D02*
X88276402Y-122544301D01*
X88276402Y-122544301D02*
X88361553Y-122586876D01*
X88361553Y-122586876D02*
X88404128Y-122629451D01*
X88404128Y-122629451D02*
X88446703Y-122714602D01*
X88446703Y-122714602D02*
X88446703Y-122927478D01*
X88446703Y-122927478D02*
X88404128Y-123012628D01*
X88404128Y-123012628D02*
X88361553Y-123055204D01*
X88361553Y-123055204D02*
X88276402Y-123097779D01*
X88276402Y-123097779D02*
X88063526Y-123097779D01*
X88063526Y-123097779D02*
X87978376Y-123055204D01*
X87978376Y-123055204D02*
X87935800Y-123012628D01*
X89965987Y-142973279D02*
X89667960Y-142547526D01*
X89455084Y-142973279D02*
X89455084Y-142079199D01*
X89455084Y-142079199D02*
X89795686Y-142079199D01*
X89795686Y-142079199D02*
X89880836Y-142121774D01*
X89880836Y-142121774D02*
X89923411Y-142164349D01*
X89923411Y-142164349D02*
X89965987Y-142249500D01*
X89965987Y-142249500D02*
X89965987Y-142377225D01*
X89965987Y-142377225D02*
X89923411Y-142462376D01*
X89923411Y-142462376D02*
X89880836Y-142504951D01*
X89880836Y-142504951D02*
X89795686Y-142547526D01*
X89795686Y-142547526D02*
X89455084Y-142547526D01*
X90264013Y-142079199D02*
X90860067Y-142973279D01*
X90860067Y-142079199D02*
X90264013Y-142973279D01*
X89454720Y-122076699D02*
X90008198Y-122076699D01*
X90008198Y-122076699D02*
X89710172Y-122417301D01*
X89710172Y-122417301D02*
X89837897Y-122417301D01*
X89837897Y-122417301D02*
X89923048Y-122459876D01*
X89923048Y-122459876D02*
X89965623Y-122502451D01*
X89965623Y-122502451D02*
X90008198Y-122587602D01*
X90008198Y-122587602D02*
X90008198Y-122800478D01*
X90008198Y-122800478D02*
X89965623Y-122885628D01*
X89965623Y-122885628D02*
X89923048Y-122928204D01*
X89923048Y-122928204D02*
X89837897Y-122970779D01*
X89837897Y-122970779D02*
X89582446Y-122970779D01*
X89582446Y-122970779D02*
X89497295Y-122928204D01*
X89497295Y-122928204D02*
X89454720Y-122885628D01*
X90774553Y-122374725D02*
X90774553Y-122970779D01*
X90561677Y-122034124D02*
X90348800Y-122672752D01*
X90348800Y-122672752D02*
X90902279Y-122672752D01*
X91973796Y-142079199D02*
X92484699Y-142079199D01*
X92229247Y-142973279D02*
X92229247Y-142079199D01*
X92697575Y-142079199D02*
X93293629Y-142973279D01*
X93293629Y-142079199D02*
X92697575Y-142973279D01*
X92121720Y-122203699D02*
X92675198Y-122203699D01*
X92675198Y-122203699D02*
X92377172Y-122544301D01*
X92377172Y-122544301D02*
X92504897Y-122544301D01*
X92504897Y-122544301D02*
X92590048Y-122586876D01*
X92590048Y-122586876D02*
X92632623Y-122629451D01*
X92632623Y-122629451D02*
X92675198Y-122714602D01*
X92675198Y-122714602D02*
X92675198Y-122927478D01*
X92675198Y-122927478D02*
X92632623Y-123012628D01*
X92632623Y-123012628D02*
X92590048Y-123055204D01*
X92590048Y-123055204D02*
X92504897Y-123097779D01*
X92504897Y-123097779D02*
X92249446Y-123097779D01*
X92249446Y-123097779D02*
X92164295Y-123055204D01*
X92164295Y-123055204D02*
X92121720Y-123012628D01*
X93100951Y-123097779D02*
X93271252Y-123097779D01*
X93271252Y-123097779D02*
X93356402Y-123055204D01*
X93356402Y-123055204D02*
X93398978Y-123012628D01*
X93398978Y-123012628D02*
X93484128Y-122884903D01*
X93484128Y-122884903D02*
X93526703Y-122714602D01*
X93526703Y-122714602D02*
X93526703Y-122374000D01*
X93526703Y-122374000D02*
X93484128Y-122288849D01*
X93484128Y-122288849D02*
X93441553Y-122246274D01*
X93441553Y-122246274D02*
X93356402Y-122203699D01*
X93356402Y-122203699D02*
X93186101Y-122203699D01*
X93186101Y-122203699D02*
X93100951Y-122246274D01*
X93100951Y-122246274D02*
X93058376Y-122288849D01*
X93058376Y-122288849D02*
X93015800Y-122374000D01*
X93015800Y-122374000D02*
X93015800Y-122586876D01*
X93015800Y-122586876D02*
X93058376Y-122672026D01*
X93058376Y-122672026D02*
X93100951Y-122714602D01*
X93100951Y-122714602D02*
X93186101Y-122757177D01*
X93186101Y-122757177D02*
X93356402Y-122757177D01*
X93356402Y-122757177D02*
X93441553Y-122714602D01*
X93441553Y-122714602D02*
X93484128Y-122672026D01*
X93484128Y-122672026D02*
X93526703Y-122586876D01*
X94513795Y-142164349D02*
X94556371Y-142121774D01*
X94556371Y-142121774D02*
X94641521Y-142079199D01*
X94641521Y-142079199D02*
X94854397Y-142079199D01*
X94854397Y-142079199D02*
X94939548Y-142121774D01*
X94939548Y-142121774D02*
X94982123Y-142164349D01*
X94982123Y-142164349D02*
X95024698Y-142249500D01*
X95024698Y-142249500D02*
X95024698Y-142334650D01*
X95024698Y-142334650D02*
X94982123Y-142462376D01*
X94982123Y-142462376D02*
X94471220Y-142973279D01*
X94471220Y-142973279D02*
X95024698Y-142973279D01*
X95365300Y-142164349D02*
X95407876Y-142121774D01*
X95407876Y-142121774D02*
X95493026Y-142079199D01*
X95493026Y-142079199D02*
X95705902Y-142079199D01*
X95705902Y-142079199D02*
X95791053Y-142121774D01*
X95791053Y-142121774D02*
X95833628Y-142164349D01*
X95833628Y-142164349D02*
X95876203Y-142249500D01*
X95876203Y-142249500D02*
X95876203Y-142334650D01*
X95876203Y-142334650D02*
X95833628Y-142462376D01*
X95833628Y-142462376D02*
X95322725Y-142973279D01*
X95322725Y-142973279D02*
X95876203Y-142973279D01*
X94661720Y-122203699D02*
X95215198Y-122203699D01*
X95215198Y-122203699D02*
X94917172Y-122544301D01*
X94917172Y-122544301D02*
X95044897Y-122544301D01*
X95044897Y-122544301D02*
X95130048Y-122586876D01*
X95130048Y-122586876D02*
X95172623Y-122629451D01*
X95172623Y-122629451D02*
X95215198Y-122714602D01*
X95215198Y-122714602D02*
X95215198Y-122927478D01*
X95215198Y-122927478D02*
X95172623Y-123012628D01*
X95172623Y-123012628D02*
X95130048Y-123055204D01*
X95130048Y-123055204D02*
X95044897Y-123097779D01*
X95044897Y-123097779D02*
X94789446Y-123097779D01*
X94789446Y-123097779D02*
X94704295Y-123055204D01*
X94704295Y-123055204D02*
X94661720Y-123012628D01*
X95981553Y-122203699D02*
X95811252Y-122203699D01*
X95811252Y-122203699D02*
X95726101Y-122246274D01*
X95726101Y-122246274D02*
X95683526Y-122288849D01*
X95683526Y-122288849D02*
X95598376Y-122416575D01*
X95598376Y-122416575D02*
X95555800Y-122586876D01*
X95555800Y-122586876D02*
X95555800Y-122927478D01*
X95555800Y-122927478D02*
X95598376Y-123012628D01*
X95598376Y-123012628D02*
X95640951Y-123055204D01*
X95640951Y-123055204D02*
X95726101Y-123097779D01*
X95726101Y-123097779D02*
X95896402Y-123097779D01*
X95896402Y-123097779D02*
X95981553Y-123055204D01*
X95981553Y-123055204D02*
X96024128Y-123012628D01*
X96024128Y-123012628D02*
X96066703Y-122927478D01*
X96066703Y-122927478D02*
X96066703Y-122714602D01*
X96066703Y-122714602D02*
X96024128Y-122629451D01*
X96024128Y-122629451D02*
X95981553Y-122586876D01*
X95981553Y-122586876D02*
X95896402Y-122544301D01*
X95896402Y-122544301D02*
X95726101Y-122544301D01*
X95726101Y-122544301D02*
X95640951Y-122586876D01*
X95640951Y-122586876D02*
X95598376Y-122629451D01*
X95598376Y-122629451D02*
X95555800Y-122714602D01*
X97053795Y-142164349D02*
X97096371Y-142121774D01*
X97096371Y-142121774D02*
X97181521Y-142079199D01*
X97181521Y-142079199D02*
X97394397Y-142079199D01*
X97394397Y-142079199D02*
X97479548Y-142121774D01*
X97479548Y-142121774D02*
X97522123Y-142164349D01*
X97522123Y-142164349D02*
X97564698Y-142249500D01*
X97564698Y-142249500D02*
X97564698Y-142334650D01*
X97564698Y-142334650D02*
X97522123Y-142462376D01*
X97522123Y-142462376D02*
X97011220Y-142973279D01*
X97011220Y-142973279D02*
X97564698Y-142973279D01*
X97862725Y-142079199D02*
X98416203Y-142079199D01*
X98416203Y-142079199D02*
X98118177Y-142419801D01*
X98118177Y-142419801D02*
X98245902Y-142419801D01*
X98245902Y-142419801D02*
X98331053Y-142462376D01*
X98331053Y-142462376D02*
X98373628Y-142504951D01*
X98373628Y-142504951D02*
X98416203Y-142590102D01*
X98416203Y-142590102D02*
X98416203Y-142802978D01*
X98416203Y-142802978D02*
X98373628Y-142888128D01*
X98373628Y-142888128D02*
X98331053Y-142930704D01*
X98331053Y-142930704D02*
X98245902Y-142973279D01*
X98245902Y-142973279D02*
X97990451Y-142973279D01*
X97990451Y-142973279D02*
X97905300Y-142930704D01*
X97905300Y-142930704D02*
X97862725Y-142888128D01*
X97562885Y-123097779D02*
X97264858Y-122672026D01*
X97051982Y-123097779D02*
X97051982Y-122203699D01*
X97051982Y-122203699D02*
X97392584Y-122203699D01*
X97392584Y-122203699D02*
X97477734Y-122246274D01*
X97477734Y-122246274D02*
X97520309Y-122288849D01*
X97520309Y-122288849D02*
X97562885Y-122374000D01*
X97562885Y-122374000D02*
X97562885Y-122501725D01*
X97562885Y-122501725D02*
X97520309Y-122586876D01*
X97520309Y-122586876D02*
X97477734Y-122629451D01*
X97477734Y-122629451D02*
X97392584Y-122672026D01*
X97392584Y-122672026D02*
X97051982Y-122672026D01*
X97903486Y-123055204D02*
X98031212Y-123097779D01*
X98031212Y-123097779D02*
X98244088Y-123097779D01*
X98244088Y-123097779D02*
X98329239Y-123055204D01*
X98329239Y-123055204D02*
X98371814Y-123012628D01*
X98371814Y-123012628D02*
X98414389Y-122927478D01*
X98414389Y-122927478D02*
X98414389Y-122842327D01*
X98414389Y-122842327D02*
X98371814Y-122757177D01*
X98371814Y-122757177D02*
X98329239Y-122714602D01*
X98329239Y-122714602D02*
X98244088Y-122672026D01*
X98244088Y-122672026D02*
X98073787Y-122629451D01*
X98073787Y-122629451D02*
X97988637Y-122586876D01*
X97988637Y-122586876D02*
X97946062Y-122544301D01*
X97946062Y-122544301D02*
X97903486Y-122459150D01*
X97903486Y-122459150D02*
X97903486Y-122374000D01*
X97903486Y-122374000D02*
X97946062Y-122288849D01*
X97946062Y-122288849D02*
X97988637Y-122246274D01*
X97988637Y-122246274D02*
X98073787Y-122203699D01*
X98073787Y-122203699D02*
X98286664Y-122203699D01*
X98286664Y-122203699D02*
X98414389Y-122246274D01*
X98669841Y-122203699D02*
X99180744Y-122203699D01*
X98925292Y-123097779D02*
X98925292Y-122203699D01*
D13*
X91757911Y-100058756D02*
X91716787Y-100141003D01*
X91716787Y-100141003D02*
X91716787Y-100264375D01*
X91716787Y-100264375D02*
X91757911Y-100387746D01*
X91757911Y-100387746D02*
X91840159Y-100469994D01*
X91840159Y-100469994D02*
X91922406Y-100511117D01*
X91922406Y-100511117D02*
X92086902Y-100552241D01*
X92086902Y-100552241D02*
X92210273Y-100552241D01*
X92210273Y-100552241D02*
X92374768Y-100511117D01*
X92374768Y-100511117D02*
X92457016Y-100469994D01*
X92457016Y-100469994D02*
X92539264Y-100387746D01*
X92539264Y-100387746D02*
X92580387Y-100264375D01*
X92580387Y-100264375D02*
X92580387Y-100182127D01*
X92580387Y-100182127D02*
X92539264Y-100058756D01*
X92539264Y-100058756D02*
X92498140Y-100017632D01*
X92498140Y-100017632D02*
X92210273Y-100017632D01*
X92210273Y-100017632D02*
X92210273Y-100182127D01*
X92580387Y-99647517D02*
X91716787Y-99647517D01*
X91716787Y-99647517D02*
X92580387Y-99154032D01*
X92580387Y-99154032D02*
X91716787Y-99154032D01*
X92580387Y-98742793D02*
X91716787Y-98742793D01*
X91716787Y-98742793D02*
X91716787Y-98537174D01*
X91716787Y-98537174D02*
X91757911Y-98413803D01*
X91757911Y-98413803D02*
X91840159Y-98331555D01*
X91840159Y-98331555D02*
X91922406Y-98290432D01*
X91922406Y-98290432D02*
X92086902Y-98249308D01*
X92086902Y-98249308D02*
X92210273Y-98249308D01*
X92210273Y-98249308D02*
X92374768Y-98290432D01*
X92374768Y-98290432D02*
X92457016Y-98331555D01*
X92457016Y-98331555D02*
X92539264Y-98413803D01*
X92539264Y-98413803D02*
X92580387Y-98537174D01*
X92580387Y-98537174D02*
X92580387Y-98742793D01*
X92128025Y-105557251D02*
X92169149Y-105433879D01*
X92169149Y-105433879D02*
X92210273Y-105392756D01*
X92210273Y-105392756D02*
X92292521Y-105351632D01*
X92292521Y-105351632D02*
X92415892Y-105351632D01*
X92415892Y-105351632D02*
X92498140Y-105392756D01*
X92498140Y-105392756D02*
X92539264Y-105433879D01*
X92539264Y-105433879D02*
X92580387Y-105516127D01*
X92580387Y-105516127D02*
X92580387Y-105845117D01*
X92580387Y-105845117D02*
X91716787Y-105845117D01*
X91716787Y-105845117D02*
X91716787Y-105557251D01*
X91716787Y-105557251D02*
X91757911Y-105475003D01*
X91757911Y-105475003D02*
X91799035Y-105433879D01*
X91799035Y-105433879D02*
X91881283Y-105392756D01*
X91881283Y-105392756D02*
X91963530Y-105392756D01*
X91963530Y-105392756D02*
X92045778Y-105433879D01*
X92045778Y-105433879D02*
X92086902Y-105475003D01*
X92086902Y-105475003D02*
X92128025Y-105557251D01*
X92128025Y-105557251D02*
X92128025Y-105845117D01*
X92580387Y-104981517D02*
X91716787Y-104981517D01*
X92580387Y-104570279D02*
X91716787Y-104570279D01*
X91716787Y-104570279D02*
X92580387Y-104076794D01*
X92580387Y-104076794D02*
X91716787Y-104076794D01*
X91799035Y-103706679D02*
X91757911Y-103665555D01*
X91757911Y-103665555D02*
X91716787Y-103583308D01*
X91716787Y-103583308D02*
X91716787Y-103377689D01*
X91716787Y-103377689D02*
X91757911Y-103295441D01*
X91757911Y-103295441D02*
X91799035Y-103254317D01*
X91799035Y-103254317D02*
X91881283Y-103213194D01*
X91881283Y-103213194D02*
X91963530Y-103213194D01*
X91963530Y-103213194D02*
X92086902Y-103254317D01*
X92086902Y-103254317D02*
X92580387Y-103747803D01*
X92580387Y-103747803D02*
X92580387Y-103213194D01*
X92539264Y-110966241D02*
X92580387Y-110842870D01*
X92580387Y-110842870D02*
X92580387Y-110637251D01*
X92580387Y-110637251D02*
X92539264Y-110555003D01*
X92539264Y-110555003D02*
X92498140Y-110513879D01*
X92498140Y-110513879D02*
X92415892Y-110472756D01*
X92415892Y-110472756D02*
X92333644Y-110472756D01*
X92333644Y-110472756D02*
X92251397Y-110513879D01*
X92251397Y-110513879D02*
X92210273Y-110555003D01*
X92210273Y-110555003D02*
X92169149Y-110637251D01*
X92169149Y-110637251D02*
X92128025Y-110801746D01*
X92128025Y-110801746D02*
X92086902Y-110883994D01*
X92086902Y-110883994D02*
X92045778Y-110925117D01*
X92045778Y-110925117D02*
X91963530Y-110966241D01*
X91963530Y-110966241D02*
X91881283Y-110966241D01*
X91881283Y-110966241D02*
X91799035Y-110925117D01*
X91799035Y-110925117D02*
X91757911Y-110883994D01*
X91757911Y-110883994D02*
X91716787Y-110801746D01*
X91716787Y-110801746D02*
X91716787Y-110596127D01*
X91716787Y-110596127D02*
X91757911Y-110472756D01*
X91716787Y-110226013D02*
X91716787Y-109732527D01*
X92580387Y-109979270D02*
X91716787Y-109979270D01*
X92128025Y-109156794D02*
X92169149Y-109033422D01*
X92169149Y-109033422D02*
X92210273Y-108992299D01*
X92210273Y-108992299D02*
X92292521Y-108951175D01*
X92292521Y-108951175D02*
X92415892Y-108951175D01*
X92415892Y-108951175D02*
X92498140Y-108992299D01*
X92498140Y-108992299D02*
X92539264Y-109033422D01*
X92539264Y-109033422D02*
X92580387Y-109115670D01*
X92580387Y-109115670D02*
X92580387Y-109444660D01*
X92580387Y-109444660D02*
X91716787Y-109444660D01*
X91716787Y-109444660D02*
X91716787Y-109156794D01*
X91716787Y-109156794D02*
X91757911Y-109074546D01*
X91757911Y-109074546D02*
X91799035Y-109033422D01*
X91799035Y-109033422D02*
X91881283Y-108992299D01*
X91881283Y-108992299D02*
X91963530Y-108992299D01*
X91963530Y-108992299D02*
X92045778Y-109033422D01*
X92045778Y-109033422D02*
X92086902Y-109074546D01*
X92086902Y-109074546D02*
X92128025Y-109156794D01*
X92128025Y-109156794D02*
X92128025Y-109444660D01*
X92169149Y-108416565D02*
X92580387Y-108416565D01*
X91716787Y-108704432D02*
X92169149Y-108416565D01*
X92169149Y-108416565D02*
X91716787Y-108128699D01*
X92333644Y-116300241D02*
X92333644Y-115889003D01*
X92580387Y-116382489D02*
X91716787Y-116094622D01*
X91716787Y-116094622D02*
X92580387Y-115806756D01*
X92580387Y-115518888D02*
X91716787Y-115518888D01*
X92580387Y-115107650D02*
X91716787Y-115107650D01*
X91716787Y-115107650D02*
X92580387Y-114614165D01*
X92580387Y-114614165D02*
X91716787Y-114614165D01*
X91799035Y-114244050D02*
X91757911Y-114202926D01*
X91757911Y-114202926D02*
X91716787Y-114120679D01*
X91716787Y-114120679D02*
X91716787Y-113915060D01*
X91716787Y-113915060D02*
X91757911Y-113832812D01*
X91757911Y-113832812D02*
X91799035Y-113791688D01*
X91799035Y-113791688D02*
X91881283Y-113750565D01*
X91881283Y-113750565D02*
X91963530Y-113750565D01*
X91963530Y-113750565D02*
X92086902Y-113791688D01*
X92086902Y-113791688D02*
X92580387Y-114285174D01*
X92580387Y-114285174D02*
X92580387Y-113750565D01*
X95523882Y-117951387D02*
X95523882Y-117087787D01*
X95523882Y-117087787D02*
X95852872Y-117087787D01*
X95852872Y-117087787D02*
X95935120Y-117128911D01*
X95935120Y-117128911D02*
X95976243Y-117170035D01*
X95976243Y-117170035D02*
X96017367Y-117252283D01*
X96017367Y-117252283D02*
X96017367Y-117375654D01*
X96017367Y-117375654D02*
X95976243Y-117457902D01*
X95976243Y-117457902D02*
X95935120Y-117499025D01*
X95935120Y-117499025D02*
X95852872Y-117540149D01*
X95852872Y-117540149D02*
X95523882Y-117540149D01*
X96305234Y-117087787D02*
X96510853Y-117951387D01*
X96510853Y-117951387D02*
X96675348Y-117334530D01*
X96675348Y-117334530D02*
X96839843Y-117951387D01*
X96839843Y-117951387D02*
X97045463Y-117087787D01*
X97374453Y-117951387D02*
X97374453Y-117087787D01*
X97374453Y-117087787D02*
X97662319Y-117704644D01*
X97662319Y-117704644D02*
X97950186Y-117087787D01*
X97950186Y-117087787D02*
X97950186Y-117951387D01*
X98320300Y-117704644D02*
X98731538Y-117704644D01*
X98238052Y-117951387D02*
X98525919Y-117087787D01*
X98525919Y-117087787D02*
X98813785Y-117951387D01*
X95018787Y-98602489D02*
X95882387Y-98314622D01*
X95882387Y-98314622D02*
X95018787Y-98026756D01*
X95841264Y-97368774D02*
X95882387Y-97451022D01*
X95882387Y-97451022D02*
X95882387Y-97615517D01*
X95882387Y-97615517D02*
X95841264Y-97697765D01*
X95841264Y-97697765D02*
X95800140Y-97738888D01*
X95800140Y-97738888D02*
X95717892Y-97780012D01*
X95717892Y-97780012D02*
X95471149Y-97780012D01*
X95471149Y-97780012D02*
X95388902Y-97738888D01*
X95388902Y-97738888D02*
X95347778Y-97697765D01*
X95347778Y-97697765D02*
X95306654Y-97615517D01*
X95306654Y-97615517D02*
X95306654Y-97451022D01*
X95306654Y-97451022D02*
X95347778Y-97368774D01*
X95841264Y-96628545D02*
X95882387Y-96710793D01*
X95882387Y-96710793D02*
X95882387Y-96875288D01*
X95882387Y-96875288D02*
X95841264Y-96957536D01*
X95841264Y-96957536D02*
X95800140Y-96998659D01*
X95800140Y-96998659D02*
X95717892Y-97039783D01*
X95717892Y-97039783D02*
X95471149Y-97039783D01*
X95471149Y-97039783D02*
X95388902Y-96998659D01*
X95388902Y-96998659D02*
X95347778Y-96957536D01*
X95347778Y-96957536D02*
X95306654Y-96875288D01*
X95306654Y-96875288D02*
X95306654Y-96710793D01*
X95306654Y-96710793D02*
X95347778Y-96628545D01*
X95145787Y-95173489D02*
X96009387Y-94885622D01*
X96009387Y-94885622D02*
X95145787Y-94597756D01*
X96009387Y-94309888D02*
X95145787Y-94309888D01*
X95145787Y-94309888D02*
X95762644Y-94022022D01*
X95762644Y-94022022D02*
X95145787Y-93734155D01*
X95145787Y-93734155D02*
X96009387Y-93734155D01*
X96136387Y-103559117D02*
X95272787Y-103559117D01*
X95272787Y-103559117D02*
X95272787Y-103230127D01*
X95272787Y-103230127D02*
X95313911Y-103147879D01*
X95313911Y-103147879D02*
X95355035Y-103106756D01*
X95355035Y-103106756D02*
X95437283Y-103065632D01*
X95437283Y-103065632D02*
X95560654Y-103065632D01*
X95560654Y-103065632D02*
X95642902Y-103106756D01*
X95642902Y-103106756D02*
X95684025Y-103147879D01*
X95684025Y-103147879D02*
X95725149Y-103230127D01*
X95725149Y-103230127D02*
X95725149Y-103559117D01*
X95272787Y-102777765D02*
X96136387Y-102572146D01*
X96136387Y-102572146D02*
X95519530Y-102407651D01*
X95519530Y-102407651D02*
X96136387Y-102243156D01*
X96136387Y-102243156D02*
X95272787Y-102037537D01*
X96136387Y-101708546D02*
X95272787Y-101708546D01*
X95272787Y-101708546D02*
X95889644Y-101420680D01*
X95889644Y-101420680D02*
X95272787Y-101132813D01*
X95272787Y-101132813D02*
X96136387Y-101132813D01*
X95684025Y-100433709D02*
X95725149Y-100310337D01*
X95725149Y-100310337D02*
X95766273Y-100269214D01*
X95766273Y-100269214D02*
X95848521Y-100228090D01*
X95848521Y-100228090D02*
X95971892Y-100228090D01*
X95971892Y-100228090D02*
X96054140Y-100269214D01*
X96054140Y-100269214D02*
X96095264Y-100310337D01*
X96095264Y-100310337D02*
X96136387Y-100392585D01*
X96136387Y-100392585D02*
X96136387Y-100721575D01*
X96136387Y-100721575D02*
X95272787Y-100721575D01*
X95272787Y-100721575D02*
X95272787Y-100433709D01*
X95272787Y-100433709D02*
X95313911Y-100351461D01*
X95313911Y-100351461D02*
X95355035Y-100310337D01*
X95355035Y-100310337D02*
X95437283Y-100269214D01*
X95437283Y-100269214D02*
X95519530Y-100269214D01*
X95519530Y-100269214D02*
X95601778Y-100310337D01*
X95601778Y-100310337D02*
X95642902Y-100351461D01*
X95642902Y-100351461D02*
X95684025Y-100433709D01*
X95684025Y-100433709D02*
X95684025Y-100721575D01*
X95684025Y-108351251D02*
X95725149Y-108227879D01*
X95725149Y-108227879D02*
X95766273Y-108186756D01*
X95766273Y-108186756D02*
X95848521Y-108145632D01*
X95848521Y-108145632D02*
X95971892Y-108145632D01*
X95971892Y-108145632D02*
X96054140Y-108186756D01*
X96054140Y-108186756D02*
X96095264Y-108227879D01*
X96095264Y-108227879D02*
X96136387Y-108310127D01*
X96136387Y-108310127D02*
X96136387Y-108639117D01*
X96136387Y-108639117D02*
X95272787Y-108639117D01*
X95272787Y-108639117D02*
X95272787Y-108351251D01*
X95272787Y-108351251D02*
X95313911Y-108269003D01*
X95313911Y-108269003D02*
X95355035Y-108227879D01*
X95355035Y-108227879D02*
X95437283Y-108186756D01*
X95437283Y-108186756D02*
X95519530Y-108186756D01*
X95519530Y-108186756D02*
X95601778Y-108227879D01*
X95601778Y-108227879D02*
X95642902Y-108269003D01*
X95642902Y-108269003D02*
X95684025Y-108351251D01*
X95684025Y-108351251D02*
X95684025Y-108639117D01*
X96136387Y-107775517D02*
X95272787Y-107775517D01*
X96136387Y-107364279D02*
X95272787Y-107364279D01*
X95272787Y-107364279D02*
X96136387Y-106870794D01*
X96136387Y-106870794D02*
X95272787Y-106870794D01*
X96136387Y-106007194D02*
X96136387Y-106500679D01*
X96136387Y-106253936D02*
X95272787Y-106253936D01*
X95272787Y-106253936D02*
X95396159Y-106336184D01*
X95396159Y-106336184D02*
X95478406Y-106418432D01*
X95478406Y-106418432D02*
X95519530Y-106500679D01*
X95889644Y-113506241D02*
X95889644Y-113095003D01*
X96136387Y-113588489D02*
X95272787Y-113300622D01*
X95272787Y-113300622D02*
X96136387Y-113012756D01*
X96136387Y-112724888D02*
X95272787Y-112724888D01*
X96136387Y-112313650D02*
X95272787Y-112313650D01*
X95272787Y-112313650D02*
X96136387Y-111820165D01*
X96136387Y-111820165D02*
X95272787Y-111820165D01*
X96136387Y-110956565D02*
X96136387Y-111450050D01*
X96136387Y-111203307D02*
X95272787Y-111203307D01*
X95272787Y-111203307D02*
X95396159Y-111285555D01*
X95396159Y-111285555D02*
X95478406Y-111367803D01*
X95478406Y-111367803D02*
X95519530Y-111450050D01*
D14*
X99955589Y-103554984D02*
X99955589Y-103119556D01*
X99955589Y-103119556D02*
X99520160Y-103076013D01*
X99520160Y-103076013D02*
X99563703Y-103119556D01*
X99563703Y-103119556D02*
X99607246Y-103206642D01*
X99607246Y-103206642D02*
X99607246Y-103424356D01*
X99607246Y-103424356D02*
X99563703Y-103511442D01*
X99563703Y-103511442D02*
X99520160Y-103554984D01*
X99520160Y-103554984D02*
X99433074Y-103598527D01*
X99433074Y-103598527D02*
X99215360Y-103598527D01*
X99215360Y-103598527D02*
X99128274Y-103554984D01*
X99128274Y-103554984D02*
X99084732Y-103511442D01*
X99084732Y-103511442D02*
X99041189Y-103424356D01*
X99041189Y-103424356D02*
X99041189Y-103206642D01*
X99041189Y-103206642D02*
X99084732Y-103119556D01*
X99084732Y-103119556D02*
X99128274Y-103076013D01*
X99389532Y-103990413D02*
X99389532Y-104687099D01*
X99041189Y-105601498D02*
X99041189Y-105078984D01*
X99041189Y-105340241D02*
X99955589Y-105340241D01*
X99955589Y-105340241D02*
X99824960Y-105253155D01*
X99824960Y-105253155D02*
X99737874Y-105166070D01*
X99737874Y-105166070D02*
X99694332Y-105078984D01*
X99955589Y-105906298D02*
X99955589Y-106472355D01*
X99955589Y-106472355D02*
X99607246Y-106167555D01*
X99607246Y-106167555D02*
X99607246Y-106298184D01*
X99607246Y-106298184D02*
X99563703Y-106385270D01*
X99563703Y-106385270D02*
X99520160Y-106428812D01*
X99520160Y-106428812D02*
X99433074Y-106472355D01*
X99433074Y-106472355D02*
X99215360Y-106472355D01*
X99215360Y-106472355D02*
X99128274Y-106428812D01*
X99128274Y-106428812D02*
X99084732Y-106385270D01*
X99084732Y-106385270D02*
X99041189Y-106298184D01*
X99041189Y-106298184D02*
X99041189Y-106036927D01*
X99041189Y-106036927D02*
X99084732Y-105949841D01*
X99084732Y-105949841D02*
X99128274Y-105906298D01*
X99955589Y-106733612D02*
X99041189Y-107038412D01*
X99041189Y-107038412D02*
X99955589Y-107343212D01*
X99041189Y-107648012D02*
X99955589Y-107648012D01*
X99955589Y-107648012D02*
X99955589Y-107865726D01*
X99955589Y-107865726D02*
X99912046Y-107996355D01*
X99912046Y-107996355D02*
X99824960Y-108083440D01*
X99824960Y-108083440D02*
X99737874Y-108126983D01*
X99737874Y-108126983D02*
X99563703Y-108170526D01*
X99563703Y-108170526D02*
X99433074Y-108170526D01*
X99433074Y-108170526D02*
X99258903Y-108126983D01*
X99258903Y-108126983D02*
X99171817Y-108083440D01*
X99171817Y-108083440D02*
X99084732Y-107996355D01*
X99084732Y-107996355D02*
X99041189Y-107865726D01*
X99041189Y-107865726D02*
X99041189Y-107648012D01*
X99128274Y-109084926D02*
X99084732Y-109041383D01*
X99084732Y-109041383D02*
X99041189Y-108910755D01*
X99041189Y-108910755D02*
X99041189Y-108823669D01*
X99041189Y-108823669D02*
X99084732Y-108693040D01*
X99084732Y-108693040D02*
X99171817Y-108605955D01*
X99171817Y-108605955D02*
X99258903Y-108562412D01*
X99258903Y-108562412D02*
X99433074Y-108518869D01*
X99433074Y-108518869D02*
X99563703Y-108518869D01*
X99563703Y-108518869D02*
X99737874Y-108562412D01*
X99737874Y-108562412D02*
X99824960Y-108605955D01*
X99824960Y-108605955D02*
X99912046Y-108693040D01*
X99912046Y-108693040D02*
X99955589Y-108823669D01*
X99955589Y-108823669D02*
X99955589Y-108910755D01*
X99955589Y-108910755D02*
X99912046Y-109041383D01*
X99912046Y-109041383D02*
X99868503Y-109084926D01*
D15*
X101645516Y-103063137D02*
X101645516Y-103679994D01*
X100566016Y-103371566D02*
X101645516Y-103371566D01*
X101131468Y-104399661D02*
X101080063Y-104553875D01*
X101080063Y-104553875D02*
X101028659Y-104605280D01*
X101028659Y-104605280D02*
X100925849Y-104656684D01*
X100925849Y-104656684D02*
X100771635Y-104656684D01*
X100771635Y-104656684D02*
X100668825Y-104605280D01*
X100668825Y-104605280D02*
X100617421Y-104553875D01*
X100617421Y-104553875D02*
X100566016Y-104451065D01*
X100566016Y-104451065D02*
X100566016Y-104039827D01*
X100566016Y-104039827D02*
X101645516Y-104039827D01*
X101645516Y-104039827D02*
X101645516Y-104399661D01*
X101645516Y-104399661D02*
X101594111Y-104502470D01*
X101594111Y-104502470D02*
X101542706Y-104553875D01*
X101542706Y-104553875D02*
X101439897Y-104605280D01*
X101439897Y-104605280D02*
X101337087Y-104605280D01*
X101337087Y-104605280D02*
X101234278Y-104553875D01*
X101234278Y-104553875D02*
X101182873Y-104502470D01*
X101182873Y-104502470D02*
X101131468Y-104399661D01*
X101131468Y-104399661D02*
X101131468Y-104039827D01*
X101645516Y-105581970D02*
X101645516Y-105376351D01*
X101645516Y-105376351D02*
X101594111Y-105273542D01*
X101594111Y-105273542D02*
X101542706Y-105222137D01*
X101542706Y-105222137D02*
X101388492Y-105119327D01*
X101388492Y-105119327D02*
X101182873Y-105067923D01*
X101182873Y-105067923D02*
X100771635Y-105067923D01*
X100771635Y-105067923D02*
X100668825Y-105119327D01*
X100668825Y-105119327D02*
X100617421Y-105170732D01*
X100617421Y-105170732D02*
X100566016Y-105273542D01*
X100566016Y-105273542D02*
X100566016Y-105479161D01*
X100566016Y-105479161D02*
X100617421Y-105581970D01*
X100617421Y-105581970D02*
X100668825Y-105633375D01*
X100668825Y-105633375D02*
X100771635Y-105684780D01*
X100771635Y-105684780D02*
X101028659Y-105684780D01*
X101028659Y-105684780D02*
X101131468Y-105633375D01*
X101131468Y-105633375D02*
X101182873Y-105581970D01*
X101182873Y-105581970D02*
X101234278Y-105479161D01*
X101234278Y-105479161D02*
X101234278Y-105273542D01*
X101234278Y-105273542D02*
X101182873Y-105170732D01*
X101182873Y-105170732D02*
X101131468Y-105119327D01*
X101131468Y-105119327D02*
X101028659Y-105067923D01*
X101645516Y-106610065D02*
X101645516Y-106404446D01*
X101645516Y-106404446D02*
X101594111Y-106301637D01*
X101594111Y-106301637D02*
X101542706Y-106250232D01*
X101542706Y-106250232D02*
X101388492Y-106147422D01*
X101388492Y-106147422D02*
X101182873Y-106096018D01*
X101182873Y-106096018D02*
X100771635Y-106096018D01*
X100771635Y-106096018D02*
X100668825Y-106147422D01*
X100668825Y-106147422D02*
X100617421Y-106198827D01*
X100617421Y-106198827D02*
X100566016Y-106301637D01*
X100566016Y-106301637D02*
X100566016Y-106507256D01*
X100566016Y-106507256D02*
X100617421Y-106610065D01*
X100617421Y-106610065D02*
X100668825Y-106661470D01*
X100668825Y-106661470D02*
X100771635Y-106712875D01*
X100771635Y-106712875D02*
X101028659Y-106712875D01*
X101028659Y-106712875D02*
X101131468Y-106661470D01*
X101131468Y-106661470D02*
X101182873Y-106610065D01*
X101182873Y-106610065D02*
X101234278Y-106507256D01*
X101234278Y-106507256D02*
X101234278Y-106301637D01*
X101234278Y-106301637D02*
X101182873Y-106198827D01*
X101182873Y-106198827D02*
X101131468Y-106147422D01*
X101131468Y-106147422D02*
X101028659Y-106096018D01*
X100566016Y-107740970D02*
X100566016Y-107124113D01*
X100566016Y-107432541D02*
X101645516Y-107432541D01*
X101645516Y-107432541D02*
X101491301Y-107329732D01*
X101491301Y-107329732D02*
X101388492Y-107226922D01*
X101388492Y-107226922D02*
X101337087Y-107124113D01*
X101542706Y-108152208D02*
X101594111Y-108203612D01*
X101594111Y-108203612D02*
X101645516Y-108306422D01*
X101645516Y-108306422D02*
X101645516Y-108563446D01*
X101645516Y-108563446D02*
X101594111Y-108666255D01*
X101594111Y-108666255D02*
X101542706Y-108717660D01*
X101542706Y-108717660D02*
X101439897Y-108769065D01*
X101439897Y-108769065D02*
X101337087Y-108769065D01*
X101337087Y-108769065D02*
X101182873Y-108717660D01*
X101182873Y-108717660D02*
X100566016Y-108100803D01*
X100566016Y-108100803D02*
X100566016Y-108769065D01*
D12*
X107183242Y-102666913D02*
X106289162Y-102666913D01*
X106289162Y-102666913D02*
X106927790Y-102368887D01*
X106927790Y-102368887D02*
X106289162Y-102070860D01*
X106289162Y-102070860D02*
X107183242Y-102070860D01*
X106289162Y-101474806D02*
X106289162Y-101304505D01*
X106289162Y-101304505D02*
X106331737Y-101219355D01*
X106331737Y-101219355D02*
X106416887Y-101134204D01*
X106416887Y-101134204D02*
X106587188Y-101091629D01*
X106587188Y-101091629D02*
X106885215Y-101091629D01*
X106885215Y-101091629D02*
X107055516Y-101134204D01*
X107055516Y-101134204D02*
X107140667Y-101219355D01*
X107140667Y-101219355D02*
X107183242Y-101304505D01*
X107183242Y-101304505D02*
X107183242Y-101474806D01*
X107183242Y-101474806D02*
X107140667Y-101559957D01*
X107140667Y-101559957D02*
X107055516Y-101645107D01*
X107055516Y-101645107D02*
X106885215Y-101687683D01*
X106885215Y-101687683D02*
X106587188Y-101687683D01*
X106587188Y-101687683D02*
X106416887Y-101645107D01*
X106416887Y-101645107D02*
X106331737Y-101559957D01*
X106331737Y-101559957D02*
X106289162Y-101474806D01*
X106289162Y-100836178D02*
X106289162Y-100325275D01*
X107183242Y-100580727D02*
X106289162Y-100580727D01*
X106289162Y-99856947D02*
X106289162Y-99686646D01*
X106289162Y-99686646D02*
X106331737Y-99601496D01*
X106331737Y-99601496D02*
X106416887Y-99516345D01*
X106416887Y-99516345D02*
X106587188Y-99473770D01*
X106587188Y-99473770D02*
X106885215Y-99473770D01*
X106885215Y-99473770D02*
X107055516Y-99516345D01*
X107055516Y-99516345D02*
X107140667Y-99601496D01*
X107140667Y-99601496D02*
X107183242Y-99686646D01*
X107183242Y-99686646D02*
X107183242Y-99856947D01*
X107183242Y-99856947D02*
X107140667Y-99942098D01*
X107140667Y-99942098D02*
X107055516Y-100027248D01*
X107055516Y-100027248D02*
X106885215Y-100069824D01*
X106885215Y-100069824D02*
X106587188Y-100069824D01*
X106587188Y-100069824D02*
X106416887Y-100027248D01*
X106416887Y-100027248D02*
X106331737Y-99942098D01*
X106331737Y-99942098D02*
X106289162Y-99856947D01*
X107183242Y-98579690D02*
X106757489Y-98877717D01*
X107183242Y-99090593D02*
X106289162Y-99090593D01*
X106289162Y-99090593D02*
X106289162Y-98749991D01*
X106289162Y-98749991D02*
X106331737Y-98664841D01*
X106331737Y-98664841D02*
X106374312Y-98622266D01*
X106374312Y-98622266D02*
X106459463Y-98579690D01*
X106459463Y-98579690D02*
X106587188Y-98579690D01*
X106587188Y-98579690D02*
X106672339Y-98622266D01*
X106672339Y-98622266D02*
X106714914Y-98664841D01*
X106714914Y-98664841D02*
X106757489Y-98749991D01*
X106757489Y-98749991D02*
X106757489Y-99090593D01*
X106714914Y-97898487D02*
X106757489Y-97770761D01*
X106757489Y-97770761D02*
X106800065Y-97728186D01*
X106800065Y-97728186D02*
X106885215Y-97685610D01*
X106885215Y-97685610D02*
X107012941Y-97685610D01*
X107012941Y-97685610D02*
X107098091Y-97728186D01*
X107098091Y-97728186D02*
X107140667Y-97770761D01*
X107140667Y-97770761D02*
X107183242Y-97855911D01*
X107183242Y-97855911D02*
X107183242Y-98196513D01*
X107183242Y-98196513D02*
X106289162Y-98196513D01*
X106289162Y-98196513D02*
X106289162Y-97898487D01*
X106289162Y-97898487D02*
X106331737Y-97813336D01*
X106331737Y-97813336D02*
X106374312Y-97770761D01*
X106374312Y-97770761D02*
X106459463Y-97728186D01*
X106459463Y-97728186D02*
X106544613Y-97728186D01*
X106544613Y-97728186D02*
X106629764Y-97770761D01*
X106629764Y-97770761D02*
X106672339Y-97813336D01*
X106672339Y-97813336D02*
X106714914Y-97898487D01*
X106714914Y-97898487D02*
X106714914Y-98196513D01*
X107183242Y-114096913D02*
X106289162Y-114096913D01*
X106289162Y-114096913D02*
X106927790Y-113798887D01*
X106927790Y-113798887D02*
X106289162Y-113500860D01*
X106289162Y-113500860D02*
X107183242Y-113500860D01*
X106289162Y-112904806D02*
X106289162Y-112734505D01*
X106289162Y-112734505D02*
X106331737Y-112649355D01*
X106331737Y-112649355D02*
X106416887Y-112564204D01*
X106416887Y-112564204D02*
X106587188Y-112521629D01*
X106587188Y-112521629D02*
X106885215Y-112521629D01*
X106885215Y-112521629D02*
X107055516Y-112564204D01*
X107055516Y-112564204D02*
X107140667Y-112649355D01*
X107140667Y-112649355D02*
X107183242Y-112734505D01*
X107183242Y-112734505D02*
X107183242Y-112904806D01*
X107183242Y-112904806D02*
X107140667Y-112989957D01*
X107140667Y-112989957D02*
X107055516Y-113075107D01*
X107055516Y-113075107D02*
X106885215Y-113117683D01*
X106885215Y-113117683D02*
X106587188Y-113117683D01*
X106587188Y-113117683D02*
X106416887Y-113075107D01*
X106416887Y-113075107D02*
X106331737Y-112989957D01*
X106331737Y-112989957D02*
X106289162Y-112904806D01*
X106289162Y-112266178D02*
X106289162Y-111755275D01*
X107183242Y-112010727D02*
X106289162Y-112010727D01*
X106289162Y-111286947D02*
X106289162Y-111116646D01*
X106289162Y-111116646D02*
X106331737Y-111031496D01*
X106331737Y-111031496D02*
X106416887Y-110946345D01*
X106416887Y-110946345D02*
X106587188Y-110903770D01*
X106587188Y-110903770D02*
X106885215Y-110903770D01*
X106885215Y-110903770D02*
X107055516Y-110946345D01*
X107055516Y-110946345D02*
X107140667Y-111031496D01*
X107140667Y-111031496D02*
X107183242Y-111116646D01*
X107183242Y-111116646D02*
X107183242Y-111286947D01*
X107183242Y-111286947D02*
X107140667Y-111372098D01*
X107140667Y-111372098D02*
X107055516Y-111457248D01*
X107055516Y-111457248D02*
X106885215Y-111499824D01*
X106885215Y-111499824D02*
X106587188Y-111499824D01*
X106587188Y-111499824D02*
X106416887Y-111457248D01*
X106416887Y-111457248D02*
X106331737Y-111372098D01*
X106331737Y-111372098D02*
X106289162Y-111286947D01*
X107183242Y-110009690D02*
X106757489Y-110307717D01*
X107183242Y-110520593D02*
X106289162Y-110520593D01*
X106289162Y-110520593D02*
X106289162Y-110179991D01*
X106289162Y-110179991D02*
X106331737Y-110094841D01*
X106331737Y-110094841D02*
X106374312Y-110052266D01*
X106374312Y-110052266D02*
X106459463Y-110009690D01*
X106459463Y-110009690D02*
X106587188Y-110009690D01*
X106587188Y-110009690D02*
X106672339Y-110052266D01*
X106672339Y-110052266D02*
X106714914Y-110094841D01*
X106714914Y-110094841D02*
X106757489Y-110179991D01*
X106757489Y-110179991D02*
X106757489Y-110520593D01*
X106927790Y-109669089D02*
X106927790Y-109243336D01*
X107183242Y-109754239D02*
X106289162Y-109456212D01*
X106289162Y-109456212D02*
X107183242Y-109158186D01*
D16*
X55493422Y-178972815D02*
X55426850Y-178939529D01*
X55426850Y-178939529D02*
X55326992Y-178939529D01*
X55326992Y-178939529D02*
X55227133Y-178972815D01*
X55227133Y-178972815D02*
X55160561Y-179039387D01*
X55160561Y-179039387D02*
X55127275Y-179105959D01*
X55127275Y-179105959D02*
X55093989Y-179239103D01*
X55093989Y-179239103D02*
X55093989Y-179338962D01*
X55093989Y-179338962D02*
X55127275Y-179472106D01*
X55127275Y-179472106D02*
X55160561Y-179538678D01*
X55160561Y-179538678D02*
X55227133Y-179605251D01*
X55227133Y-179605251D02*
X55326992Y-179638537D01*
X55326992Y-179638537D02*
X55393564Y-179638537D01*
X55393564Y-179638537D02*
X55493422Y-179605251D01*
X55493422Y-179605251D02*
X55526708Y-179571964D01*
X55526708Y-179571964D02*
X55526708Y-179338962D01*
X55526708Y-179338962D02*
X55393564Y-179338962D01*
X55826283Y-179638537D02*
X55826283Y-178939529D01*
X55826283Y-178939529D02*
X56225716Y-179638537D01*
X56225716Y-179638537D02*
X56225716Y-178939529D01*
X56558577Y-179638537D02*
X56558577Y-178939529D01*
X56558577Y-178939529D02*
X56725007Y-178939529D01*
X56725007Y-178939529D02*
X56824866Y-178972815D01*
X56824866Y-178972815D02*
X56891438Y-179039387D01*
X56891438Y-179039387D02*
X56924724Y-179105959D01*
X56924724Y-179105959D02*
X56958010Y-179239103D01*
X56958010Y-179239103D02*
X56958010Y-179338962D01*
X56958010Y-179338962D02*
X56924724Y-179472106D01*
X56924724Y-179472106D02*
X56891438Y-179538678D01*
X56891438Y-179538678D02*
X56824866Y-179605251D01*
X56824866Y-179605251D02*
X56725007Y-179638537D01*
X56725007Y-179638537D02*
X56558577Y-179638537D01*
X52458485Y-182297368D02*
X52691487Y-182996376D01*
X52691487Y-182996376D02*
X52924490Y-182297368D01*
X53390496Y-182630229D02*
X53490354Y-182663515D01*
X53490354Y-182663515D02*
X53523640Y-182696801D01*
X53523640Y-182696801D02*
X53556926Y-182763373D01*
X53556926Y-182763373D02*
X53556926Y-182863231D01*
X53556926Y-182863231D02*
X53523640Y-182929803D01*
X53523640Y-182929803D02*
X53490354Y-182963090D01*
X53490354Y-182963090D02*
X53423782Y-182996376D01*
X53423782Y-182996376D02*
X53157493Y-182996376D01*
X53157493Y-182996376D02*
X53157493Y-182297368D01*
X53157493Y-182297368D02*
X53390496Y-182297368D01*
X53390496Y-182297368D02*
X53457068Y-182330654D01*
X53457068Y-182330654D02*
X53490354Y-182363940D01*
X53490354Y-182363940D02*
X53523640Y-182430512D01*
X53523640Y-182430512D02*
X53523640Y-182497084D01*
X53523640Y-182497084D02*
X53490354Y-182563656D01*
X53490354Y-182563656D02*
X53457068Y-182596942D01*
X53457068Y-182596942D02*
X53390496Y-182630229D01*
X53390496Y-182630229D02*
X53157493Y-182630229D01*
X53856501Y-182297368D02*
X53856501Y-182863231D01*
X53856501Y-182863231D02*
X53889787Y-182929803D01*
X53889787Y-182929803D02*
X53923073Y-182963090D01*
X53923073Y-182963090D02*
X53989645Y-182996376D01*
X53989645Y-182996376D02*
X54122790Y-182996376D01*
X54122790Y-182996376D02*
X54189362Y-182963090D01*
X54189362Y-182963090D02*
X54222648Y-182929803D01*
X54222648Y-182929803D02*
X54255934Y-182863231D01*
X54255934Y-182863231D02*
X54255934Y-182297368D01*
X54555509Y-182963090D02*
X54655367Y-182996376D01*
X54655367Y-182996376D02*
X54821798Y-182996376D01*
X54821798Y-182996376D02*
X54888370Y-182963090D01*
X54888370Y-182963090D02*
X54921656Y-182929803D01*
X54921656Y-182929803D02*
X54954942Y-182863231D01*
X54954942Y-182863231D02*
X54954942Y-182796659D01*
X54954942Y-182796659D02*
X54921656Y-182730087D01*
X54921656Y-182730087D02*
X54888370Y-182696801D01*
X54888370Y-182696801D02*
X54821798Y-182663515D01*
X54821798Y-182663515D02*
X54688653Y-182630229D01*
X54688653Y-182630229D02*
X54622081Y-182596942D01*
X54622081Y-182596942D02*
X54588795Y-182563656D01*
X54588795Y-182563656D02*
X54555509Y-182497084D01*
X54555509Y-182497084D02*
X54555509Y-182430512D01*
X54555509Y-182430512D02*
X54588795Y-182363940D01*
X54588795Y-182363940D02*
X54622081Y-182330654D01*
X54622081Y-182330654D02*
X54688653Y-182297368D01*
X54688653Y-182297368D02*
X54855084Y-182297368D01*
X54855084Y-182297368D02*
X54954942Y-182330654D01*
X49951771Y-179605251D02*
X50051629Y-179638537D01*
X50051629Y-179638537D02*
X50218060Y-179638537D01*
X50218060Y-179638537D02*
X50284632Y-179605251D01*
X50284632Y-179605251D02*
X50317918Y-179571964D01*
X50317918Y-179571964D02*
X50351204Y-179505392D01*
X50351204Y-179505392D02*
X50351204Y-179438820D01*
X50351204Y-179438820D02*
X50317918Y-179372248D01*
X50317918Y-179372248D02*
X50284632Y-179338962D01*
X50284632Y-179338962D02*
X50218060Y-179305676D01*
X50218060Y-179305676D02*
X50084915Y-179272390D01*
X50084915Y-179272390D02*
X50018343Y-179239103D01*
X50018343Y-179239103D02*
X49985057Y-179205817D01*
X49985057Y-179205817D02*
X49951771Y-179139245D01*
X49951771Y-179139245D02*
X49951771Y-179072673D01*
X49951771Y-179072673D02*
X49985057Y-179006101D01*
X49985057Y-179006101D02*
X50018343Y-178972815D01*
X50018343Y-178972815D02*
X50084915Y-178939529D01*
X50084915Y-178939529D02*
X50251346Y-178939529D01*
X50251346Y-178939529D02*
X50351204Y-178972815D01*
X50883782Y-179272390D02*
X50983640Y-179305676D01*
X50983640Y-179305676D02*
X51016926Y-179338962D01*
X51016926Y-179338962D02*
X51050212Y-179405534D01*
X51050212Y-179405534D02*
X51050212Y-179505392D01*
X51050212Y-179505392D02*
X51016926Y-179571964D01*
X51016926Y-179571964D02*
X50983640Y-179605251D01*
X50983640Y-179605251D02*
X50917068Y-179638537D01*
X50917068Y-179638537D02*
X50650779Y-179638537D01*
X50650779Y-179638537D02*
X50650779Y-178939529D01*
X50650779Y-178939529D02*
X50883782Y-178939529D01*
X50883782Y-178939529D02*
X50950354Y-178972815D01*
X50950354Y-178972815D02*
X50983640Y-179006101D01*
X50983640Y-179006101D02*
X51016926Y-179072673D01*
X51016926Y-179072673D02*
X51016926Y-179139245D01*
X51016926Y-179139245D02*
X50983640Y-179205817D01*
X50983640Y-179205817D02*
X50950354Y-179239103D01*
X50950354Y-179239103D02*
X50883782Y-179272390D01*
X50883782Y-179272390D02*
X50650779Y-179272390D01*
X51349787Y-178939529D02*
X51349787Y-179505392D01*
X51349787Y-179505392D02*
X51383073Y-179571964D01*
X51383073Y-179571964D02*
X51416359Y-179605251D01*
X51416359Y-179605251D02*
X51482931Y-179638537D01*
X51482931Y-179638537D02*
X51616076Y-179638537D01*
X51616076Y-179638537D02*
X51682648Y-179605251D01*
X51682648Y-179605251D02*
X51715934Y-179571964D01*
X51715934Y-179571964D02*
X51749220Y-179505392D01*
X51749220Y-179505392D02*
X51749220Y-178939529D01*
X52048795Y-179006101D02*
X52082081Y-178972815D01*
X52082081Y-178972815D02*
X52148653Y-178939529D01*
X52148653Y-178939529D02*
X52315084Y-178939529D01*
X52315084Y-178939529D02*
X52381656Y-178972815D01*
X52381656Y-178972815D02*
X52414942Y-179006101D01*
X52414942Y-179006101D02*
X52448228Y-179072673D01*
X52448228Y-179072673D02*
X52448228Y-179139245D01*
X52448228Y-179139245D02*
X52414942Y-179239103D01*
X52414942Y-179239103D02*
X52015509Y-179638537D01*
X52015509Y-179638537D02*
X52448228Y-179638537D01*
X48193994Y-182929803D02*
X48160708Y-182963090D01*
X48160708Y-182963090D02*
X48060850Y-182996376D01*
X48060850Y-182996376D02*
X47994278Y-182996376D01*
X47994278Y-182996376D02*
X47894419Y-182963090D01*
X47894419Y-182963090D02*
X47827847Y-182896517D01*
X47827847Y-182896517D02*
X47794561Y-182829945D01*
X47794561Y-182829945D02*
X47761275Y-182696801D01*
X47761275Y-182696801D02*
X47761275Y-182596942D01*
X47761275Y-182596942D02*
X47794561Y-182463798D01*
X47794561Y-182463798D02*
X47827847Y-182397226D01*
X47827847Y-182397226D02*
X47894419Y-182330654D01*
X47894419Y-182330654D02*
X47994278Y-182297368D01*
X47994278Y-182297368D02*
X48060850Y-182297368D01*
X48060850Y-182297368D02*
X48160708Y-182330654D01*
X48160708Y-182330654D02*
X48193994Y-182363940D01*
X48893002Y-182929803D02*
X48859716Y-182963090D01*
X48859716Y-182963090D02*
X48759858Y-182996376D01*
X48759858Y-182996376D02*
X48693286Y-182996376D01*
X48693286Y-182996376D02*
X48593427Y-182963090D01*
X48593427Y-182963090D02*
X48526855Y-182896517D01*
X48526855Y-182896517D02*
X48493569Y-182829945D01*
X48493569Y-182829945D02*
X48460283Y-182696801D01*
X48460283Y-182696801D02*
X48460283Y-182596942D01*
X48460283Y-182596942D02*
X48493569Y-182463798D01*
X48493569Y-182463798D02*
X48526855Y-182397226D01*
X48526855Y-182397226D02*
X48593427Y-182330654D01*
X48593427Y-182330654D02*
X48693286Y-182297368D01*
X48693286Y-182297368D02*
X48759858Y-182297368D01*
X48759858Y-182297368D02*
X48859716Y-182330654D01*
X48859716Y-182330654D02*
X48893002Y-182363940D01*
X49558724Y-182996376D02*
X49159291Y-182996376D01*
X49359007Y-182996376D02*
X49359007Y-182297368D01*
X49359007Y-182297368D02*
X49292435Y-182397226D01*
X49292435Y-182397226D02*
X49225863Y-182463798D01*
X49225863Y-182463798D02*
X49159291Y-182497084D01*
D17*
X45357657Y-173074210D02*
X45357657Y-173781540D01*
X45357657Y-173781540D02*
X45399264Y-173864755D01*
X45399264Y-173864755D02*
X45440872Y-173906363D01*
X45440872Y-173906363D02*
X45524087Y-173947970D01*
X45524087Y-173947970D02*
X45690518Y-173947970D01*
X45690518Y-173947970D02*
X45773733Y-173906363D01*
X45773733Y-173906363D02*
X45815340Y-173864755D01*
X45815340Y-173864755D02*
X45856948Y-173781540D01*
X45856948Y-173781540D02*
X45856948Y-173074210D01*
X46231417Y-173906363D02*
X46356240Y-173947970D01*
X46356240Y-173947970D02*
X46564278Y-173947970D01*
X46564278Y-173947970D02*
X46647493Y-173906363D01*
X46647493Y-173906363D02*
X46689101Y-173864755D01*
X46689101Y-173864755D02*
X46730708Y-173781540D01*
X46730708Y-173781540D02*
X46730708Y-173698324D01*
X46730708Y-173698324D02*
X46689101Y-173615109D01*
X46689101Y-173615109D02*
X46647493Y-173573502D01*
X46647493Y-173573502D02*
X46564278Y-173531894D01*
X46564278Y-173531894D02*
X46397847Y-173490286D01*
X46397847Y-173490286D02*
X46314632Y-173448679D01*
X46314632Y-173448679D02*
X46273025Y-173407071D01*
X46273025Y-173407071D02*
X46231417Y-173323856D01*
X46231417Y-173323856D02*
X46231417Y-173240641D01*
X46231417Y-173240641D02*
X46273025Y-173157425D01*
X46273025Y-173157425D02*
X46314632Y-173115818D01*
X46314632Y-173115818D02*
X46397847Y-173074210D01*
X46397847Y-173074210D02*
X46605886Y-173074210D01*
X46605886Y-173074210D02*
X46730708Y-173115818D01*
X47396430Y-173490286D02*
X47521253Y-173531894D01*
X47521253Y-173531894D02*
X47562860Y-173573502D01*
X47562860Y-173573502D02*
X47604468Y-173656717D01*
X47604468Y-173656717D02*
X47604468Y-173781540D01*
X47604468Y-173781540D02*
X47562860Y-173864755D01*
X47562860Y-173864755D02*
X47521253Y-173906363D01*
X47521253Y-173906363D02*
X47438038Y-173947970D01*
X47438038Y-173947970D02*
X47105177Y-173947970D01*
X47105177Y-173947970D02*
X47105177Y-173074210D01*
X47105177Y-173074210D02*
X47396430Y-173074210D01*
X47396430Y-173074210D02*
X47479645Y-173115818D01*
X47479645Y-173115818D02*
X47521253Y-173157425D01*
X47521253Y-173157425D02*
X47562860Y-173240641D01*
X47562860Y-173240641D02*
X47562860Y-173323856D01*
X47562860Y-173323856D02*
X47521253Y-173407071D01*
X47521253Y-173407071D02*
X47479645Y-173448679D01*
X47479645Y-173448679D02*
X47396430Y-173490286D01*
X47396430Y-173490286D02*
X47105177Y-173490286D01*
X49143950Y-173864755D02*
X49102342Y-173906363D01*
X49102342Y-173906363D02*
X48977520Y-173947970D01*
X48977520Y-173947970D02*
X48894304Y-173947970D01*
X48894304Y-173947970D02*
X48769481Y-173906363D01*
X48769481Y-173906363D02*
X48686266Y-173823147D01*
X48686266Y-173823147D02*
X48644659Y-173739932D01*
X48644659Y-173739932D02*
X48603051Y-173573502D01*
X48603051Y-173573502D02*
X48603051Y-173448679D01*
X48603051Y-173448679D02*
X48644659Y-173282248D01*
X48644659Y-173282248D02*
X48686266Y-173199033D01*
X48686266Y-173199033D02*
X48769481Y-173115818D01*
X48769481Y-173115818D02*
X48894304Y-173074210D01*
X48894304Y-173074210D02*
X48977520Y-173074210D01*
X48977520Y-173074210D02*
X49102342Y-173115818D01*
X49102342Y-173115818D02*
X49143950Y-173157425D01*
D16*
X45504207Y-179638537D02*
X45504207Y-178939529D01*
X45504207Y-178939529D02*
X45670637Y-178939529D01*
X45670637Y-178939529D02*
X45770496Y-178972815D01*
X45770496Y-178972815D02*
X45837068Y-179039387D01*
X45837068Y-179039387D02*
X45870354Y-179105959D01*
X45870354Y-179105959D02*
X45903640Y-179239103D01*
X45903640Y-179239103D02*
X45903640Y-179338962D01*
X45903640Y-179338962D02*
X45870354Y-179472106D01*
X45870354Y-179472106D02*
X45837068Y-179538678D01*
X45837068Y-179538678D02*
X45770496Y-179605251D01*
X45770496Y-179605251D02*
X45670637Y-179638537D01*
X45670637Y-179638537D02*
X45504207Y-179638537D01*
X46203215Y-179372248D02*
X46735793Y-179372248D01*
X42964207Y-182996376D02*
X42964207Y-182297368D01*
X42964207Y-182297368D02*
X43130637Y-182297368D01*
X43130637Y-182297368D02*
X43230496Y-182330654D01*
X43230496Y-182330654D02*
X43297068Y-182397226D01*
X43297068Y-182397226D02*
X43330354Y-182463798D01*
X43330354Y-182463798D02*
X43363640Y-182596942D01*
X43363640Y-182596942D02*
X43363640Y-182696801D01*
X43363640Y-182696801D02*
X43330354Y-182829945D01*
X43330354Y-182829945D02*
X43297068Y-182896517D01*
X43297068Y-182896517D02*
X43230496Y-182963090D01*
X43230496Y-182963090D02*
X43130637Y-182996376D01*
X43130637Y-182996376D02*
X42964207Y-182996376D01*
X43663215Y-182730087D02*
X44195793Y-182730087D01*
X43929504Y-182996376D02*
X43929504Y-182463798D01*
X39791771Y-179605251D02*
X39891629Y-179638537D01*
X39891629Y-179638537D02*
X40058060Y-179638537D01*
X40058060Y-179638537D02*
X40124632Y-179605251D01*
X40124632Y-179605251D02*
X40157918Y-179571964D01*
X40157918Y-179571964D02*
X40191204Y-179505392D01*
X40191204Y-179505392D02*
X40191204Y-179438820D01*
X40191204Y-179438820D02*
X40157918Y-179372248D01*
X40157918Y-179372248D02*
X40124632Y-179338962D01*
X40124632Y-179338962D02*
X40058060Y-179305676D01*
X40058060Y-179305676D02*
X39924915Y-179272390D01*
X39924915Y-179272390D02*
X39858343Y-179239103D01*
X39858343Y-179239103D02*
X39825057Y-179205817D01*
X39825057Y-179205817D02*
X39791771Y-179139245D01*
X39791771Y-179139245D02*
X39791771Y-179072673D01*
X39791771Y-179072673D02*
X39825057Y-179006101D01*
X39825057Y-179006101D02*
X39858343Y-178972815D01*
X39858343Y-178972815D02*
X39924915Y-178939529D01*
X39924915Y-178939529D02*
X40091346Y-178939529D01*
X40091346Y-178939529D02*
X40191204Y-178972815D01*
X40723782Y-179272390D02*
X40823640Y-179305676D01*
X40823640Y-179305676D02*
X40856926Y-179338962D01*
X40856926Y-179338962D02*
X40890212Y-179405534D01*
X40890212Y-179405534D02*
X40890212Y-179505392D01*
X40890212Y-179505392D02*
X40856926Y-179571964D01*
X40856926Y-179571964D02*
X40823640Y-179605251D01*
X40823640Y-179605251D02*
X40757068Y-179638537D01*
X40757068Y-179638537D02*
X40490779Y-179638537D01*
X40490779Y-179638537D02*
X40490779Y-178939529D01*
X40490779Y-178939529D02*
X40723782Y-178939529D01*
X40723782Y-178939529D02*
X40790354Y-178972815D01*
X40790354Y-178972815D02*
X40823640Y-179006101D01*
X40823640Y-179006101D02*
X40856926Y-179072673D01*
X40856926Y-179072673D02*
X40856926Y-179139245D01*
X40856926Y-179139245D02*
X40823640Y-179205817D01*
X40823640Y-179205817D02*
X40790354Y-179239103D01*
X40790354Y-179239103D02*
X40723782Y-179272390D01*
X40723782Y-179272390D02*
X40490779Y-179272390D01*
X41189787Y-178939529D02*
X41189787Y-179505392D01*
X41189787Y-179505392D02*
X41223073Y-179571964D01*
X41223073Y-179571964D02*
X41256359Y-179605251D01*
X41256359Y-179605251D02*
X41322931Y-179638537D01*
X41322931Y-179638537D02*
X41456076Y-179638537D01*
X41456076Y-179638537D02*
X41522648Y-179605251D01*
X41522648Y-179605251D02*
X41555934Y-179571964D01*
X41555934Y-179571964D02*
X41589220Y-179505392D01*
X41589220Y-179505392D02*
X41589220Y-178939529D01*
X42288228Y-179638537D02*
X41888795Y-179638537D01*
X42088511Y-179638537D02*
X42088511Y-178939529D01*
X42088511Y-178939529D02*
X42021939Y-179039387D01*
X42021939Y-179039387D02*
X41955367Y-179105959D01*
X41955367Y-179105959D02*
X41888795Y-179139245D01*
X39049994Y-182929803D02*
X39016708Y-182963090D01*
X39016708Y-182963090D02*
X38916850Y-182996376D01*
X38916850Y-182996376D02*
X38850278Y-182996376D01*
X38850278Y-182996376D02*
X38750419Y-182963090D01*
X38750419Y-182963090D02*
X38683847Y-182896517D01*
X38683847Y-182896517D02*
X38650561Y-182829945D01*
X38650561Y-182829945D02*
X38617275Y-182696801D01*
X38617275Y-182696801D02*
X38617275Y-182596942D01*
X38617275Y-182596942D02*
X38650561Y-182463798D01*
X38650561Y-182463798D02*
X38683847Y-182397226D01*
X38683847Y-182397226D02*
X38750419Y-182330654D01*
X38750419Y-182330654D02*
X38850278Y-182297368D01*
X38850278Y-182297368D02*
X38916850Y-182297368D01*
X38916850Y-182297368D02*
X39016708Y-182330654D01*
X39016708Y-182330654D02*
X39049994Y-182363940D01*
X39749002Y-182929803D02*
X39715716Y-182963090D01*
X39715716Y-182963090D02*
X39615858Y-182996376D01*
X39615858Y-182996376D02*
X39549286Y-182996376D01*
X39549286Y-182996376D02*
X39449427Y-182963090D01*
X39449427Y-182963090D02*
X39382855Y-182896517D01*
X39382855Y-182896517D02*
X39349569Y-182829945D01*
X39349569Y-182829945D02*
X39316283Y-182696801D01*
X39316283Y-182696801D02*
X39316283Y-182596942D01*
X39316283Y-182596942D02*
X39349569Y-182463798D01*
X39349569Y-182463798D02*
X39382855Y-182397226D01*
X39382855Y-182397226D02*
X39449427Y-182330654D01*
X39449427Y-182330654D02*
X39549286Y-182297368D01*
X39549286Y-182297368D02*
X39615858Y-182297368D01*
X39615858Y-182297368D02*
X39715716Y-182330654D01*
X39715716Y-182330654D02*
X39749002Y-182363940D01*
X40015291Y-182363940D02*
X40048577Y-182330654D01*
X40048577Y-182330654D02*
X40115149Y-182297368D01*
X40115149Y-182297368D02*
X40281580Y-182297368D01*
X40281580Y-182297368D02*
X40348152Y-182330654D01*
X40348152Y-182330654D02*
X40381438Y-182363940D01*
X40381438Y-182363940D02*
X40414724Y-182430512D01*
X40414724Y-182430512D02*
X40414724Y-182497084D01*
X40414724Y-182497084D02*
X40381438Y-182596942D01*
X40381438Y-182596942D02*
X39982005Y-182996376D01*
X39982005Y-182996376D02*
X40414724Y-182996376D01*
D12*
X59896838Y-165507162D02*
X59471086Y-165507162D01*
X59471086Y-165507162D02*
X59428510Y-165932914D01*
X59428510Y-165932914D02*
X59471086Y-165890339D01*
X59471086Y-165890339D02*
X59556236Y-165847764D01*
X59556236Y-165847764D02*
X59769112Y-165847764D01*
X59769112Y-165847764D02*
X59854263Y-165890339D01*
X59854263Y-165890339D02*
X59896838Y-165932914D01*
X59896838Y-165932914D02*
X59939413Y-166018065D01*
X59939413Y-166018065D02*
X59939413Y-166230941D01*
X59939413Y-166230941D02*
X59896838Y-166316091D01*
X59896838Y-166316091D02*
X59854263Y-166358667D01*
X59854263Y-166358667D02*
X59769112Y-166401242D01*
X59769112Y-166401242D02*
X59556236Y-166401242D01*
X59556236Y-166401242D02*
X59471086Y-166358667D01*
X59471086Y-166358667D02*
X59428510Y-166316091D01*
X60194865Y-165507162D02*
X60492892Y-166401242D01*
X60492892Y-166401242D02*
X60790918Y-165507162D01*
D10*
X38434219Y-163790326D02*
X37434219Y-163790326D01*
X37434219Y-163790326D02*
X37434219Y-163409374D01*
X37434219Y-163409374D02*
X37481838Y-163314136D01*
X37481838Y-163314136D02*
X37529457Y-163266517D01*
X37529457Y-163266517D02*
X37624695Y-163218898D01*
X37624695Y-163218898D02*
X37767552Y-163218898D01*
X37767552Y-163218898D02*
X37862790Y-163266517D01*
X37862790Y-163266517D02*
X37910409Y-163314136D01*
X37910409Y-163314136D02*
X37958028Y-163409374D01*
X37958028Y-163409374D02*
X37958028Y-163790326D01*
X38434219Y-162647469D02*
X38386600Y-162742707D01*
X38386600Y-162742707D02*
X38338980Y-162790326D01*
X38338980Y-162790326D02*
X38243742Y-162837945D01*
X38243742Y-162837945D02*
X37958028Y-162837945D01*
X37958028Y-162837945D02*
X37862790Y-162790326D01*
X37862790Y-162790326D02*
X37815171Y-162742707D01*
X37815171Y-162742707D02*
X37767552Y-162647469D01*
X37767552Y-162647469D02*
X37767552Y-162504612D01*
X37767552Y-162504612D02*
X37815171Y-162409374D01*
X37815171Y-162409374D02*
X37862790Y-162361755D01*
X37862790Y-162361755D02*
X37958028Y-162314136D01*
X37958028Y-162314136D02*
X38243742Y-162314136D01*
X38243742Y-162314136D02*
X38338980Y-162361755D01*
X38338980Y-162361755D02*
X38386600Y-162409374D01*
X38386600Y-162409374D02*
X38434219Y-162504612D01*
X38434219Y-162504612D02*
X38434219Y-162647469D01*
X37767552Y-161980802D02*
X38434219Y-161790326D01*
X38434219Y-161790326D02*
X37958028Y-161599850D01*
X37958028Y-161599850D02*
X38434219Y-161409374D01*
X38434219Y-161409374D02*
X37767552Y-161218898D01*
X38386600Y-160456993D02*
X38434219Y-160552231D01*
X38434219Y-160552231D02*
X38434219Y-160742707D01*
X38434219Y-160742707D02*
X38386600Y-160837945D01*
X38386600Y-160837945D02*
X38291361Y-160885564D01*
X38291361Y-160885564D02*
X37910409Y-160885564D01*
X37910409Y-160885564D02*
X37815171Y-160837945D01*
X37815171Y-160837945D02*
X37767552Y-160742707D01*
X37767552Y-160742707D02*
X37767552Y-160552231D01*
X37767552Y-160552231D02*
X37815171Y-160456993D01*
X37815171Y-160456993D02*
X37910409Y-160409374D01*
X37910409Y-160409374D02*
X38005647Y-160409374D01*
X38005647Y-160409374D02*
X38100885Y-160885564D01*
X38434219Y-159980802D02*
X37767552Y-159980802D01*
X37958028Y-159980802D02*
X37862790Y-159933183D01*
X37862790Y-159933183D02*
X37815171Y-159885564D01*
X37815171Y-159885564D02*
X37767552Y-159790326D01*
X37767552Y-159790326D02*
X37767552Y-159695088D01*
X38434219Y-159361754D02*
X37434219Y-159361754D01*
X37815171Y-159361754D02*
X37767552Y-159266516D01*
X37767552Y-159266516D02*
X37767552Y-159076040D01*
X37767552Y-159076040D02*
X37815171Y-158980802D01*
X37815171Y-158980802D02*
X37862790Y-158933183D01*
X37862790Y-158933183D02*
X37958028Y-158885564D01*
X37958028Y-158885564D02*
X38243742Y-158885564D01*
X38243742Y-158885564D02*
X38338980Y-158933183D01*
X38338980Y-158933183D02*
X38386600Y-158980802D01*
X38386600Y-158980802D02*
X38434219Y-159076040D01*
X38434219Y-159076040D02*
X38434219Y-159266516D01*
X38434219Y-159266516D02*
X38386600Y-159361754D01*
X38434219Y-158314135D02*
X38386600Y-158409373D01*
X38386600Y-158409373D02*
X38338980Y-158456992D01*
X38338980Y-158456992D02*
X38243742Y-158504611D01*
X38243742Y-158504611D02*
X37958028Y-158504611D01*
X37958028Y-158504611D02*
X37862790Y-158456992D01*
X37862790Y-158456992D02*
X37815171Y-158409373D01*
X37815171Y-158409373D02*
X37767552Y-158314135D01*
X37767552Y-158314135D02*
X37767552Y-158171278D01*
X37767552Y-158171278D02*
X37815171Y-158076040D01*
X37815171Y-158076040D02*
X37862790Y-158028421D01*
X37862790Y-158028421D02*
X37958028Y-157980802D01*
X37958028Y-157980802D02*
X38243742Y-157980802D01*
X38243742Y-157980802D02*
X38338980Y-158028421D01*
X38338980Y-158028421D02*
X38386600Y-158076040D01*
X38386600Y-158076040D02*
X38434219Y-158171278D01*
X38434219Y-158171278D02*
X38434219Y-158314135D01*
X38434219Y-157409373D02*
X38386600Y-157504611D01*
X38386600Y-157504611D02*
X38338980Y-157552230D01*
X38338980Y-157552230D02*
X38243742Y-157599849D01*
X38243742Y-157599849D02*
X37958028Y-157599849D01*
X37958028Y-157599849D02*
X37862790Y-157552230D01*
X37862790Y-157552230D02*
X37815171Y-157504611D01*
X37815171Y-157504611D02*
X37767552Y-157409373D01*
X37767552Y-157409373D02*
X37767552Y-157266516D01*
X37767552Y-157266516D02*
X37815171Y-157171278D01*
X37815171Y-157171278D02*
X37862790Y-157123659D01*
X37862790Y-157123659D02*
X37958028Y-157076040D01*
X37958028Y-157076040D02*
X38243742Y-157076040D01*
X38243742Y-157076040D02*
X38338980Y-157123659D01*
X38338980Y-157123659D02*
X38386600Y-157171278D01*
X38386600Y-157171278D02*
X38434219Y-157266516D01*
X38434219Y-157266516D02*
X38434219Y-157409373D01*
X38386600Y-156695087D02*
X38434219Y-156599849D01*
X38434219Y-156599849D02*
X38434219Y-156409373D01*
X38434219Y-156409373D02*
X38386600Y-156314135D01*
X38386600Y-156314135D02*
X38291361Y-156266516D01*
X38291361Y-156266516D02*
X38243742Y-156266516D01*
X38243742Y-156266516D02*
X38148504Y-156314135D01*
X38148504Y-156314135D02*
X38100885Y-156409373D01*
X38100885Y-156409373D02*
X38100885Y-156552230D01*
X38100885Y-156552230D02*
X38053266Y-156647468D01*
X38053266Y-156647468D02*
X37958028Y-156695087D01*
X37958028Y-156695087D02*
X37910409Y-156695087D01*
X37910409Y-156695087D02*
X37815171Y-156647468D01*
X37815171Y-156647468D02*
X37767552Y-156552230D01*
X37767552Y-156552230D02*
X37767552Y-156409373D01*
X37767552Y-156409373D02*
X37815171Y-156314135D01*
X37767552Y-155980801D02*
X37767552Y-155599849D01*
X37434219Y-155837944D02*
X38291361Y-155837944D01*
X38291361Y-155837944D02*
X38386600Y-155790325D01*
X38386600Y-155790325D02*
X38434219Y-155695087D01*
X38434219Y-155695087D02*
X38434219Y-155599849D01*
X38434219Y-153980801D02*
X38434219Y-154552229D01*
X38434219Y-154266515D02*
X37434219Y-154266515D01*
X37434219Y-154266515D02*
X37577076Y-154361753D01*
X37577076Y-154361753D02*
X37672314Y-154456991D01*
X37672314Y-154456991D02*
X37719933Y-154552229D01*
X37434219Y-153361753D02*
X37434219Y-153266515D01*
X37434219Y-153266515D02*
X37481838Y-153171277D01*
X37481838Y-153171277D02*
X37529457Y-153123658D01*
X37529457Y-153123658D02*
X37624695Y-153076039D01*
X37624695Y-153076039D02*
X37815171Y-153028420D01*
X37815171Y-153028420D02*
X38053266Y-153028420D01*
X38053266Y-153028420D02*
X38243742Y-153076039D01*
X38243742Y-153076039D02*
X38338980Y-153123658D01*
X38338980Y-153123658D02*
X38386600Y-153171277D01*
X38386600Y-153171277D02*
X38434219Y-153266515D01*
X38434219Y-153266515D02*
X38434219Y-153361753D01*
X38434219Y-153361753D02*
X38386600Y-153456991D01*
X38386600Y-153456991D02*
X38338980Y-153504610D01*
X38338980Y-153504610D02*
X38243742Y-153552229D01*
X38243742Y-153552229D02*
X38053266Y-153599848D01*
X38053266Y-153599848D02*
X37815171Y-153599848D01*
X37815171Y-153599848D02*
X37624695Y-153552229D01*
X37624695Y-153552229D02*
X37529457Y-153504610D01*
X37529457Y-153504610D02*
X37481838Y-153456991D01*
X37481838Y-153456991D02*
X37434219Y-153361753D01*
X37434219Y-152409372D02*
X37434219Y-152314134D01*
X37434219Y-152314134D02*
X37481838Y-152218896D01*
X37481838Y-152218896D02*
X37529457Y-152171277D01*
X37529457Y-152171277D02*
X37624695Y-152123658D01*
X37624695Y-152123658D02*
X37815171Y-152076039D01*
X37815171Y-152076039D02*
X38053266Y-152076039D01*
X38053266Y-152076039D02*
X38243742Y-152123658D01*
X38243742Y-152123658D02*
X38338980Y-152171277D01*
X38338980Y-152171277D02*
X38386600Y-152218896D01*
X38386600Y-152218896D02*
X38434219Y-152314134D01*
X38434219Y-152314134D02*
X38434219Y-152409372D01*
X38434219Y-152409372D02*
X38386600Y-152504610D01*
X38386600Y-152504610D02*
X38338980Y-152552229D01*
X38338980Y-152552229D02*
X38243742Y-152599848D01*
X38243742Y-152599848D02*
X38053266Y-152647467D01*
X38053266Y-152647467D02*
X37815171Y-152647467D01*
X37815171Y-152647467D02*
X37624695Y-152599848D01*
X37624695Y-152599848D02*
X37529457Y-152552229D01*
X37529457Y-152552229D02*
X37481838Y-152504610D01*
X37481838Y-152504610D02*
X37434219Y-152409372D01*
X37434219Y-151456991D02*
X37434219Y-151361753D01*
X37434219Y-151361753D02*
X37481838Y-151266515D01*
X37481838Y-151266515D02*
X37529457Y-151218896D01*
X37529457Y-151218896D02*
X37624695Y-151171277D01*
X37624695Y-151171277D02*
X37815171Y-151123658D01*
X37815171Y-151123658D02*
X38053266Y-151123658D01*
X38053266Y-151123658D02*
X38243742Y-151171277D01*
X38243742Y-151171277D02*
X38338980Y-151218896D01*
X38338980Y-151218896D02*
X38386600Y-151266515D01*
X38386600Y-151266515D02*
X38434219Y-151361753D01*
X38434219Y-151361753D02*
X38434219Y-151456991D01*
X38434219Y-151456991D02*
X38386600Y-151552229D01*
X38386600Y-151552229D02*
X38338980Y-151599848D01*
X38338980Y-151599848D02*
X38243742Y-151647467D01*
X38243742Y-151647467D02*
X38053266Y-151695086D01*
X38053266Y-151695086D02*
X37815171Y-151695086D01*
X37815171Y-151695086D02*
X37624695Y-151647467D01*
X37624695Y-151647467D02*
X37529457Y-151599848D01*
X37529457Y-151599848D02*
X37481838Y-151552229D01*
X37481838Y-151552229D02*
X37434219Y-151456991D01*
D12*
X40802086Y-165634162D02*
X40802086Y-166357941D01*
X40802086Y-166357941D02*
X40844661Y-166443091D01*
X40844661Y-166443091D02*
X40887236Y-166485667D01*
X40887236Y-166485667D02*
X40972387Y-166528242D01*
X40972387Y-166528242D02*
X41142688Y-166528242D01*
X41142688Y-166528242D02*
X41227838Y-166485667D01*
X41227838Y-166485667D02*
X41270413Y-166443091D01*
X41270413Y-166443091D02*
X41312989Y-166357941D01*
X41312989Y-166357941D02*
X41312989Y-165634162D01*
X41696165Y-166485667D02*
X41823891Y-166528242D01*
X41823891Y-166528242D02*
X42036767Y-166528242D01*
X42036767Y-166528242D02*
X42121918Y-166485667D01*
X42121918Y-166485667D02*
X42164493Y-166443091D01*
X42164493Y-166443091D02*
X42207068Y-166357941D01*
X42207068Y-166357941D02*
X42207068Y-166272790D01*
X42207068Y-166272790D02*
X42164493Y-166187640D01*
X42164493Y-166187640D02*
X42121918Y-166145065D01*
X42121918Y-166145065D02*
X42036767Y-166102489D01*
X42036767Y-166102489D02*
X41866466Y-166059914D01*
X41866466Y-166059914D02*
X41781316Y-166017339D01*
X41781316Y-166017339D02*
X41738741Y-165974764D01*
X41738741Y-165974764D02*
X41696165Y-165889613D01*
X41696165Y-165889613D02*
X41696165Y-165804463D01*
X41696165Y-165804463D02*
X41738741Y-165719312D01*
X41738741Y-165719312D02*
X41781316Y-165676737D01*
X41781316Y-165676737D02*
X41866466Y-165634162D01*
X41866466Y-165634162D02*
X42079343Y-165634162D01*
X42079343Y-165634162D02*
X42207068Y-165676737D01*
X42888272Y-166059914D02*
X43015998Y-166102489D01*
X43015998Y-166102489D02*
X43058573Y-166145065D01*
X43058573Y-166145065D02*
X43101149Y-166230215D01*
X43101149Y-166230215D02*
X43101149Y-166357941D01*
X43101149Y-166357941D02*
X43058573Y-166443091D01*
X43058573Y-166443091D02*
X43015998Y-166485667D01*
X43015998Y-166485667D02*
X42930848Y-166528242D01*
X42930848Y-166528242D02*
X42590246Y-166528242D01*
X42590246Y-166528242D02*
X42590246Y-165634162D01*
X42590246Y-165634162D02*
X42888272Y-165634162D01*
X42888272Y-165634162D02*
X42973423Y-165676737D01*
X42973423Y-165676737D02*
X43015998Y-165719312D01*
X43015998Y-165719312D02*
X43058573Y-165804463D01*
X43058573Y-165804463D02*
X43058573Y-165889613D01*
X43058573Y-165889613D02*
X43015998Y-165974764D01*
X43015998Y-165974764D02*
X42973423Y-166017339D01*
X42973423Y-166017339D02*
X42888272Y-166059914D01*
X42888272Y-166059914D02*
X42590246Y-166059914D01*
X44275112Y-166059914D02*
X44402838Y-166102489D01*
X44402838Y-166102489D02*
X44445413Y-166145065D01*
X44445413Y-166145065D02*
X44487989Y-166230215D01*
X44487989Y-166230215D02*
X44487989Y-166357941D01*
X44487989Y-166357941D02*
X44445413Y-166443091D01*
X44445413Y-166443091D02*
X44402838Y-166485667D01*
X44402838Y-166485667D02*
X44317688Y-166528242D01*
X44317688Y-166528242D02*
X43977086Y-166528242D01*
X43977086Y-166528242D02*
X43977086Y-165634162D01*
X43977086Y-165634162D02*
X44275112Y-165634162D01*
X44275112Y-165634162D02*
X44360263Y-165676737D01*
X44360263Y-165676737D02*
X44402838Y-165719312D01*
X44402838Y-165719312D02*
X44445413Y-165804463D01*
X44445413Y-165804463D02*
X44445413Y-165889613D01*
X44445413Y-165889613D02*
X44402838Y-165974764D01*
X44402838Y-165974764D02*
X44360263Y-166017339D01*
X44360263Y-166017339D02*
X44275112Y-166059914D01*
X44275112Y-166059914D02*
X43977086Y-166059914D01*
X45254343Y-166528242D02*
X45254343Y-166059914D01*
X45254343Y-166059914D02*
X45211768Y-165974764D01*
X45211768Y-165974764D02*
X45126617Y-165932188D01*
X45126617Y-165932188D02*
X44956316Y-165932188D01*
X44956316Y-165932188D02*
X44871166Y-165974764D01*
X45254343Y-166485667D02*
X45169192Y-166528242D01*
X45169192Y-166528242D02*
X44956316Y-166528242D01*
X44956316Y-166528242D02*
X44871166Y-166485667D01*
X44871166Y-166485667D02*
X44828590Y-166400516D01*
X44828590Y-166400516D02*
X44828590Y-166315366D01*
X44828590Y-166315366D02*
X44871166Y-166230215D01*
X44871166Y-166230215D02*
X44956316Y-166187640D01*
X44956316Y-166187640D02*
X45169192Y-166187640D01*
X45169192Y-166187640D02*
X45254343Y-166145065D01*
X45552370Y-165932188D02*
X45892972Y-165932188D01*
X45680096Y-165634162D02*
X45680096Y-166400516D01*
X45680096Y-166400516D02*
X45722671Y-166485667D01*
X45722671Y-166485667D02*
X45807821Y-166528242D01*
X45807821Y-166528242D02*
X45892972Y-166528242D01*
X46770360Y-165634162D02*
X47068387Y-166528242D01*
X47068387Y-166528242D02*
X47366413Y-165634162D01*
X47621864Y-166485667D02*
X47707015Y-166528242D01*
X47707015Y-166528242D02*
X47877316Y-166528242D01*
X47877316Y-166528242D02*
X47962466Y-166485667D01*
X47962466Y-166485667D02*
X48005042Y-166400516D01*
X48005042Y-166400516D02*
X48005042Y-166357941D01*
X48005042Y-166357941D02*
X47962466Y-166272790D01*
X47962466Y-166272790D02*
X47877316Y-166230215D01*
X47877316Y-166230215D02*
X47749590Y-166230215D01*
X47749590Y-166230215D02*
X47664440Y-166187640D01*
X47664440Y-166187640D02*
X47621864Y-166102489D01*
X47621864Y-166102489D02*
X47621864Y-166059914D01*
X47621864Y-166059914D02*
X47664440Y-165974764D01*
X47664440Y-165974764D02*
X47749590Y-165932188D01*
X47749590Y-165932188D02*
X47877316Y-165932188D01*
X47877316Y-165932188D02*
X47962466Y-165974764D01*
X49438086Y-166059914D02*
X49736112Y-166059914D01*
X49863838Y-166528242D02*
X49438086Y-166528242D01*
X49438086Y-166528242D02*
X49438086Y-165634162D01*
X49438086Y-165634162D02*
X49863838Y-165634162D01*
X50247016Y-166528242D02*
X50247016Y-165634162D01*
X50247016Y-165634162D02*
X50757919Y-166528242D01*
X50757919Y-166528242D02*
X50757919Y-165634162D01*
X52192413Y-165676737D02*
X52107263Y-165634162D01*
X52107263Y-165634162D02*
X51979537Y-165634162D01*
X51979537Y-165634162D02*
X51851811Y-165676737D01*
X51851811Y-165676737D02*
X51766661Y-165761887D01*
X51766661Y-165761887D02*
X51724086Y-165847038D01*
X51724086Y-165847038D02*
X51681510Y-166017339D01*
X51681510Y-166017339D02*
X51681510Y-166145065D01*
X51681510Y-166145065D02*
X51724086Y-166315366D01*
X51724086Y-166315366D02*
X51766661Y-166400516D01*
X51766661Y-166400516D02*
X51851811Y-166485667D01*
X51851811Y-166485667D02*
X51979537Y-166528242D01*
X51979537Y-166528242D02*
X52064688Y-166528242D01*
X52064688Y-166528242D02*
X52192413Y-166485667D01*
X52192413Y-166485667D02*
X52234989Y-166443091D01*
X52234989Y-166443091D02*
X52234989Y-166145065D01*
X52234989Y-166145065D02*
X52064688Y-166145065D01*
X52618166Y-166528242D02*
X52618166Y-165634162D01*
X52618166Y-165634162D02*
X53129069Y-166528242D01*
X53129069Y-166528242D02*
X53129069Y-165634162D01*
X53554821Y-166528242D02*
X53554821Y-165634162D01*
X53554821Y-165634162D02*
X53767697Y-165634162D01*
X53767697Y-165634162D02*
X53895423Y-165676737D01*
X53895423Y-165676737D02*
X53980573Y-165761887D01*
X53980573Y-165761887D02*
X54023148Y-165847038D01*
X54023148Y-165847038D02*
X54065724Y-166017339D01*
X54065724Y-166017339D02*
X54065724Y-166145065D01*
X54065724Y-166145065D02*
X54023148Y-166315366D01*
X54023148Y-166315366D02*
X53980573Y-166400516D01*
X53980573Y-166400516D02*
X53895423Y-166485667D01*
X53895423Y-166485667D02*
X53767697Y-166528242D01*
X53767697Y-166528242D02*
X53554821Y-166528242D01*
X58034413Y-165549737D02*
X57949263Y-165507162D01*
X57949263Y-165507162D02*
X57821537Y-165507162D01*
X57821537Y-165507162D02*
X57693811Y-165549737D01*
X57693811Y-165549737D02*
X57608661Y-165634887D01*
X57608661Y-165634887D02*
X57566086Y-165720038D01*
X57566086Y-165720038D02*
X57523510Y-165890339D01*
X57523510Y-165890339D02*
X57523510Y-166018065D01*
X57523510Y-166018065D02*
X57566086Y-166188366D01*
X57566086Y-166188366D02*
X57608661Y-166273516D01*
X57608661Y-166273516D02*
X57693811Y-166358667D01*
X57693811Y-166358667D02*
X57821537Y-166401242D01*
X57821537Y-166401242D02*
X57906688Y-166401242D01*
X57906688Y-166401242D02*
X58034413Y-166358667D01*
X58034413Y-166358667D02*
X58076989Y-166316091D01*
X58076989Y-166316091D02*
X58076989Y-166018065D01*
X58076989Y-166018065D02*
X57906688Y-166018065D01*
D18*
X72814982Y-155525724D02*
X72859493Y-155570235D01*
X72859493Y-155570235D02*
X72904003Y-155703766D01*
X72904003Y-155703766D02*
X72904003Y-155792787D01*
X72904003Y-155792787D02*
X72859493Y-155926319D01*
X72859493Y-155926319D02*
X72770472Y-156015340D01*
X72770472Y-156015340D02*
X72681451Y-156059850D01*
X72681451Y-156059850D02*
X72503409Y-156104361D01*
X72503409Y-156104361D02*
X72369877Y-156104361D01*
X72369877Y-156104361D02*
X72191835Y-156059850D01*
X72191835Y-156059850D02*
X72102814Y-156015340D01*
X72102814Y-156015340D02*
X72013793Y-155926319D01*
X72013793Y-155926319D02*
X71969283Y-155792787D01*
X71969283Y-155792787D02*
X71969283Y-155703766D01*
X71969283Y-155703766D02*
X72013793Y-155570235D01*
X72013793Y-155570235D02*
X72058304Y-155525724D01*
X72859493Y-155169641D02*
X72904003Y-155036109D01*
X72904003Y-155036109D02*
X72904003Y-154813557D01*
X72904003Y-154813557D02*
X72859493Y-154724536D01*
X72859493Y-154724536D02*
X72814982Y-154680025D01*
X72814982Y-154680025D02*
X72725961Y-154635515D01*
X72725961Y-154635515D02*
X72636940Y-154635515D01*
X72636940Y-154635515D02*
X72547919Y-154680025D01*
X72547919Y-154680025D02*
X72503409Y-154724536D01*
X72503409Y-154724536D02*
X72458898Y-154813557D01*
X72458898Y-154813557D02*
X72414388Y-154991599D01*
X72414388Y-154991599D02*
X72369877Y-155080620D01*
X72369877Y-155080620D02*
X72325367Y-155125130D01*
X72325367Y-155125130D02*
X72236346Y-155169641D01*
X72236346Y-155169641D02*
X72147325Y-155169641D01*
X72147325Y-155169641D02*
X72058304Y-155125130D01*
X72058304Y-155125130D02*
X72013793Y-155080620D01*
X72013793Y-155080620D02*
X71969283Y-154991599D01*
X71969283Y-154991599D02*
X71969283Y-154769046D01*
X71969283Y-154769046D02*
X72013793Y-154635515D01*
X85035869Y-170056338D02*
X85480974Y-170056338D01*
X85480974Y-170056338D02*
X85525485Y-169611233D01*
X85525485Y-169611233D02*
X85480974Y-169655744D01*
X85480974Y-169655744D02*
X85391953Y-169700254D01*
X85391953Y-169700254D02*
X85169401Y-169700254D01*
X85169401Y-169700254D02*
X85080380Y-169655744D01*
X85080380Y-169655744D02*
X85035869Y-169611233D01*
X85035869Y-169611233D02*
X84991359Y-169522212D01*
X84991359Y-169522212D02*
X84991359Y-169299660D01*
X84991359Y-169299660D02*
X85035869Y-169210639D01*
X85035869Y-169210639D02*
X85080380Y-169166129D01*
X85080380Y-169166129D02*
X85169401Y-169121618D01*
X85169401Y-169121618D02*
X85391953Y-169121618D01*
X85391953Y-169121618D02*
X85480974Y-169166129D01*
X85480974Y-169166129D02*
X85525485Y-169210639D01*
X84724296Y-170056338D02*
X84412722Y-169121618D01*
X84412722Y-169121618D02*
X84101149Y-170056338D01*
X83077407Y-169121618D02*
X83077407Y-169744765D01*
X83077407Y-169566723D02*
X83032897Y-169655744D01*
X83032897Y-169655744D02*
X82988386Y-169700254D01*
X82988386Y-169700254D02*
X82899365Y-169744765D01*
X82899365Y-169744765D02*
X82810344Y-169744765D01*
X82142687Y-169166129D02*
X82231708Y-169121618D01*
X82231708Y-169121618D02*
X82409750Y-169121618D01*
X82409750Y-169121618D02*
X82498771Y-169166129D01*
X82498771Y-169166129D02*
X82543282Y-169255149D01*
X82543282Y-169255149D02*
X82543282Y-169611233D01*
X82543282Y-169611233D02*
X82498771Y-169700254D01*
X82498771Y-169700254D02*
X82409750Y-169744765D01*
X82409750Y-169744765D02*
X82231708Y-169744765D01*
X82231708Y-169744765D02*
X82142687Y-169700254D01*
X82142687Y-169700254D02*
X82098177Y-169611233D01*
X82098177Y-169611233D02*
X82098177Y-169522212D01*
X82098177Y-169522212D02*
X82543282Y-169433191D01*
X81296988Y-169121618D02*
X81296988Y-169611233D01*
X81296988Y-169611233D02*
X81341498Y-169700254D01*
X81341498Y-169700254D02*
X81430519Y-169744765D01*
X81430519Y-169744765D02*
X81608561Y-169744765D01*
X81608561Y-169744765D02*
X81697582Y-169700254D01*
X81296988Y-169166129D02*
X81386009Y-169121618D01*
X81386009Y-169121618D02*
X81608561Y-169121618D01*
X81608561Y-169121618D02*
X81697582Y-169166129D01*
X81697582Y-169166129D02*
X81742093Y-169255149D01*
X81742093Y-169255149D02*
X81742093Y-169344170D01*
X81742093Y-169344170D02*
X81697582Y-169433191D01*
X81697582Y-169433191D02*
X81608561Y-169477702D01*
X81608561Y-169477702D02*
X81386009Y-169477702D01*
X81386009Y-169477702D02*
X81296988Y-169522212D01*
X80451289Y-169121618D02*
X80451289Y-170056338D01*
X80451289Y-169166129D02*
X80540310Y-169121618D01*
X80540310Y-169121618D02*
X80718352Y-169121618D01*
X80718352Y-169121618D02*
X80807373Y-169166129D01*
X80807373Y-169166129D02*
X80851883Y-169210639D01*
X80851883Y-169210639D02*
X80896394Y-169299660D01*
X80896394Y-169299660D02*
X80896394Y-169566723D01*
X80896394Y-169566723D02*
X80851883Y-169655744D01*
X80851883Y-169655744D02*
X80807373Y-169700254D01*
X80807373Y-169700254D02*
X80718352Y-169744765D01*
X80718352Y-169744765D02*
X80540310Y-169744765D01*
X80540310Y-169744765D02*
X80451289Y-169700254D01*
X80095205Y-169744765D02*
X79872653Y-169121618D01*
X79650100Y-169744765D02*
X79872653Y-169121618D01*
X79872653Y-169121618D02*
X79961674Y-168899066D01*
X79961674Y-168899066D02*
X80006184Y-168854555D01*
X80006184Y-168854555D02*
X80095205Y-168810045D01*
X78581848Y-169121618D02*
X78581848Y-170056338D01*
X78581848Y-170056338D02*
X78270275Y-169388681D01*
X78270275Y-169388681D02*
X77958701Y-170056338D01*
X77958701Y-170056338D02*
X77958701Y-169121618D01*
X77513597Y-169121618D02*
X77513597Y-169744765D01*
X77513597Y-170056338D02*
X77558108Y-170011828D01*
X77558108Y-170011828D02*
X77513597Y-169967317D01*
X77513597Y-169967317D02*
X77469087Y-170011828D01*
X77469087Y-170011828D02*
X77513597Y-170056338D01*
X77513597Y-170056338D02*
X77513597Y-169967317D01*
X76667898Y-169166129D02*
X76756919Y-169121618D01*
X76756919Y-169121618D02*
X76934961Y-169121618D01*
X76934961Y-169121618D02*
X77023982Y-169166129D01*
X77023982Y-169166129D02*
X77068492Y-169210639D01*
X77068492Y-169210639D02*
X77113003Y-169299660D01*
X77113003Y-169299660D02*
X77113003Y-169566723D01*
X77113003Y-169566723D02*
X77068492Y-169655744D01*
X77068492Y-169655744D02*
X77023982Y-169700254D01*
X77023982Y-169700254D02*
X76934961Y-169744765D01*
X76934961Y-169744765D02*
X76756919Y-169744765D01*
X76756919Y-169744765D02*
X76667898Y-169700254D01*
X76267303Y-169121618D02*
X76267303Y-169744765D01*
X76267303Y-169566723D02*
X76222793Y-169655744D01*
X76222793Y-169655744D02*
X76178282Y-169700254D01*
X76178282Y-169700254D02*
X76089261Y-169744765D01*
X76089261Y-169744765D02*
X76000240Y-169744765D01*
X75555136Y-169121618D02*
X75644157Y-169166129D01*
X75644157Y-169166129D02*
X75688667Y-169210639D01*
X75688667Y-169210639D02*
X75733178Y-169299660D01*
X75733178Y-169299660D02*
X75733178Y-169566723D01*
X75733178Y-169566723D02*
X75688667Y-169655744D01*
X75688667Y-169655744D02*
X75644157Y-169700254D01*
X75644157Y-169700254D02*
X75555136Y-169744765D01*
X75555136Y-169744765D02*
X75421604Y-169744765D01*
X75421604Y-169744765D02*
X75332583Y-169700254D01*
X75332583Y-169700254D02*
X75288073Y-169655744D01*
X75288073Y-169655744D02*
X75243562Y-169566723D01*
X75243562Y-169566723D02*
X75243562Y-169299660D01*
X75243562Y-169299660D02*
X75288073Y-169210639D01*
X75288073Y-169210639D02*
X75332583Y-169166129D01*
X75332583Y-169166129D02*
X75421604Y-169121618D01*
X75421604Y-169121618D02*
X75555136Y-169121618D01*
X74842968Y-169477702D02*
X74130801Y-169477702D01*
X73730207Y-169166129D02*
X73596675Y-169121618D01*
X73596675Y-169121618D02*
X73374123Y-169121618D01*
X73374123Y-169121618D02*
X73285102Y-169166129D01*
X73285102Y-169166129D02*
X73240591Y-169210639D01*
X73240591Y-169210639D02*
X73196081Y-169299660D01*
X73196081Y-169299660D02*
X73196081Y-169388681D01*
X73196081Y-169388681D02*
X73240591Y-169477702D01*
X73240591Y-169477702D02*
X73285102Y-169522212D01*
X73285102Y-169522212D02*
X73374123Y-169566723D01*
X73374123Y-169566723D02*
X73552165Y-169611233D01*
X73552165Y-169611233D02*
X73641186Y-169655744D01*
X73641186Y-169655744D02*
X73685696Y-169700254D01*
X73685696Y-169700254D02*
X73730207Y-169789275D01*
X73730207Y-169789275D02*
X73730207Y-169878296D01*
X73730207Y-169878296D02*
X73685696Y-169967317D01*
X73685696Y-169967317D02*
X73641186Y-170011828D01*
X73641186Y-170011828D02*
X73552165Y-170056338D01*
X73552165Y-170056338D02*
X73329612Y-170056338D01*
X73329612Y-170056338D02*
X73196081Y-170011828D01*
X72795486Y-169121618D02*
X72795486Y-170056338D01*
X72795486Y-170056338D02*
X72572934Y-170056338D01*
X72572934Y-170056338D02*
X72439402Y-170011828D01*
X72439402Y-170011828D02*
X72350381Y-169922807D01*
X72350381Y-169922807D02*
X72305871Y-169833786D01*
X72305871Y-169833786D02*
X72261360Y-169655744D01*
X72261360Y-169655744D02*
X72261360Y-169522212D01*
X72261360Y-169522212D02*
X72305871Y-169344170D01*
X72305871Y-169344170D02*
X72350381Y-169255149D01*
X72350381Y-169255149D02*
X72439402Y-169166129D01*
X72439402Y-169166129D02*
X72572934Y-169121618D01*
X72572934Y-169121618D02*
X72795486Y-169121618D01*
X83772401Y-168468233D02*
X83638869Y-168423723D01*
X83638869Y-168423723D02*
X83594359Y-168379212D01*
X83594359Y-168379212D02*
X83549848Y-168290191D01*
X83549848Y-168290191D02*
X83549848Y-168156660D01*
X83549848Y-168156660D02*
X83594359Y-168067639D01*
X83594359Y-168067639D02*
X83638869Y-168023129D01*
X83638869Y-168023129D02*
X83727890Y-167978618D01*
X83727890Y-167978618D02*
X84083974Y-167978618D01*
X84083974Y-167978618D02*
X84083974Y-168913338D01*
X84083974Y-168913338D02*
X83772401Y-168913338D01*
X83772401Y-168913338D02*
X83683380Y-168868828D01*
X83683380Y-168868828D02*
X83638869Y-168824317D01*
X83638869Y-168824317D02*
X83594359Y-168735296D01*
X83594359Y-168735296D02*
X83594359Y-168646275D01*
X83594359Y-168646275D02*
X83638869Y-168557254D01*
X83638869Y-168557254D02*
X83683380Y-168512744D01*
X83683380Y-168512744D02*
X83772401Y-168468233D01*
X83772401Y-168468233D02*
X84083974Y-168468233D01*
X83149254Y-167978618D02*
X83149254Y-168601765D01*
X83149254Y-168423723D02*
X83104744Y-168512744D01*
X83104744Y-168512744D02*
X83060233Y-168557254D01*
X83060233Y-168557254D02*
X82971212Y-168601765D01*
X82971212Y-168601765D02*
X82882191Y-168601765D01*
X82214534Y-168023129D02*
X82303555Y-167978618D01*
X82303555Y-167978618D02*
X82481597Y-167978618D01*
X82481597Y-167978618D02*
X82570618Y-168023129D01*
X82570618Y-168023129D02*
X82615129Y-168112149D01*
X82615129Y-168112149D02*
X82615129Y-168468233D01*
X82615129Y-168468233D02*
X82570618Y-168557254D01*
X82570618Y-168557254D02*
X82481597Y-168601765D01*
X82481597Y-168601765D02*
X82303555Y-168601765D01*
X82303555Y-168601765D02*
X82214534Y-168557254D01*
X82214534Y-168557254D02*
X82170024Y-168468233D01*
X82170024Y-168468233D02*
X82170024Y-168379212D01*
X82170024Y-168379212D02*
X82615129Y-168290191D01*
X81368835Y-167978618D02*
X81368835Y-168468233D01*
X81368835Y-168468233D02*
X81413345Y-168557254D01*
X81413345Y-168557254D02*
X81502366Y-168601765D01*
X81502366Y-168601765D02*
X81680408Y-168601765D01*
X81680408Y-168601765D02*
X81769429Y-168557254D01*
X81368835Y-168023129D02*
X81457856Y-167978618D01*
X81457856Y-167978618D02*
X81680408Y-167978618D01*
X81680408Y-167978618D02*
X81769429Y-168023129D01*
X81769429Y-168023129D02*
X81813940Y-168112149D01*
X81813940Y-168112149D02*
X81813940Y-168201170D01*
X81813940Y-168201170D02*
X81769429Y-168290191D01*
X81769429Y-168290191D02*
X81680408Y-168334702D01*
X81680408Y-168334702D02*
X81457856Y-168334702D01*
X81457856Y-168334702D02*
X81368835Y-168379212D01*
X80923730Y-167978618D02*
X80923730Y-168913338D01*
X80834709Y-168334702D02*
X80567646Y-167978618D01*
X80567646Y-168601765D02*
X80923730Y-168245681D01*
X80033521Y-167978618D02*
X80122542Y-168023129D01*
X80122542Y-168023129D02*
X80167052Y-168067639D01*
X80167052Y-168067639D02*
X80211563Y-168156660D01*
X80211563Y-168156660D02*
X80211563Y-168423723D01*
X80211563Y-168423723D02*
X80167052Y-168512744D01*
X80167052Y-168512744D02*
X80122542Y-168557254D01*
X80122542Y-168557254D02*
X80033521Y-168601765D01*
X80033521Y-168601765D02*
X79899989Y-168601765D01*
X79899989Y-168601765D02*
X79810968Y-168557254D01*
X79810968Y-168557254D02*
X79766458Y-168512744D01*
X79766458Y-168512744D02*
X79721947Y-168423723D01*
X79721947Y-168423723D02*
X79721947Y-168156660D01*
X79721947Y-168156660D02*
X79766458Y-168067639D01*
X79766458Y-168067639D02*
X79810968Y-168023129D01*
X79810968Y-168023129D02*
X79899989Y-167978618D01*
X79899989Y-167978618D02*
X80033521Y-167978618D01*
X78920759Y-168601765D02*
X78920759Y-167978618D01*
X79321353Y-168601765D02*
X79321353Y-168112149D01*
X79321353Y-168112149D02*
X79276843Y-168023129D01*
X79276843Y-168023129D02*
X79187822Y-167978618D01*
X79187822Y-167978618D02*
X79054290Y-167978618D01*
X79054290Y-167978618D02*
X78965269Y-168023129D01*
X78965269Y-168023129D02*
X78920759Y-168067639D01*
X78609186Y-168601765D02*
X78253102Y-168601765D01*
X78475654Y-168913338D02*
X78475654Y-168112149D01*
X78475654Y-168112149D02*
X78431144Y-168023129D01*
X78431144Y-168023129D02*
X78342123Y-167978618D01*
X78342123Y-167978618D02*
X78253102Y-167978618D01*
X77229360Y-167978618D02*
X77229360Y-168913338D01*
X77229360Y-168557254D02*
X77140339Y-168601765D01*
X77140339Y-168601765D02*
X76962297Y-168601765D01*
X76962297Y-168601765D02*
X76873276Y-168557254D01*
X76873276Y-168557254D02*
X76828766Y-168512744D01*
X76828766Y-168512744D02*
X76784255Y-168423723D01*
X76784255Y-168423723D02*
X76784255Y-168156660D01*
X76784255Y-168156660D02*
X76828766Y-168067639D01*
X76828766Y-168067639D02*
X76873276Y-168023129D01*
X76873276Y-168023129D02*
X76962297Y-167978618D01*
X76962297Y-167978618D02*
X77140339Y-167978618D01*
X77140339Y-167978618D02*
X77229360Y-168023129D01*
X76250130Y-167978618D02*
X76339151Y-168023129D01*
X76339151Y-168023129D02*
X76383661Y-168067639D01*
X76383661Y-168067639D02*
X76428172Y-168156660D01*
X76428172Y-168156660D02*
X76428172Y-168423723D01*
X76428172Y-168423723D02*
X76383661Y-168512744D01*
X76383661Y-168512744D02*
X76339151Y-168557254D01*
X76339151Y-168557254D02*
X76250130Y-168601765D01*
X76250130Y-168601765D02*
X76116598Y-168601765D01*
X76116598Y-168601765D02*
X76027577Y-168557254D01*
X76027577Y-168557254D02*
X75983067Y-168512744D01*
X75983067Y-168512744D02*
X75938556Y-168423723D01*
X75938556Y-168423723D02*
X75938556Y-168156660D01*
X75938556Y-168156660D02*
X75983067Y-168067639D01*
X75983067Y-168067639D02*
X76027577Y-168023129D01*
X76027577Y-168023129D02*
X76116598Y-167978618D01*
X76116598Y-167978618D02*
X76250130Y-167978618D01*
X75137368Y-167978618D02*
X75137368Y-168468233D01*
X75137368Y-168468233D02*
X75181878Y-168557254D01*
X75181878Y-168557254D02*
X75270899Y-168601765D01*
X75270899Y-168601765D02*
X75448941Y-168601765D01*
X75448941Y-168601765D02*
X75537962Y-168557254D01*
X75137368Y-168023129D02*
X75226389Y-167978618D01*
X75226389Y-167978618D02*
X75448941Y-167978618D01*
X75448941Y-167978618D02*
X75537962Y-168023129D01*
X75537962Y-168023129D02*
X75582473Y-168112149D01*
X75582473Y-168112149D02*
X75582473Y-168201170D01*
X75582473Y-168201170D02*
X75537962Y-168290191D01*
X75537962Y-168290191D02*
X75448941Y-168334702D01*
X75448941Y-168334702D02*
X75226389Y-168334702D01*
X75226389Y-168334702D02*
X75137368Y-168379212D01*
X74692263Y-167978618D02*
X74692263Y-168601765D01*
X74692263Y-168423723D02*
X74647753Y-168512744D01*
X74647753Y-168512744D02*
X74603242Y-168557254D01*
X74603242Y-168557254D02*
X74514221Y-168601765D01*
X74514221Y-168601765D02*
X74425200Y-168601765D01*
X73713033Y-167978618D02*
X73713033Y-168913338D01*
X73713033Y-168023129D02*
X73802054Y-167978618D01*
X73802054Y-167978618D02*
X73980096Y-167978618D01*
X73980096Y-167978618D02*
X74069117Y-168023129D01*
X74069117Y-168023129D02*
X74113627Y-168067639D01*
X74113627Y-168067639D02*
X74158138Y-168156660D01*
X74158138Y-168156660D02*
X74158138Y-168423723D01*
X74158138Y-168423723D02*
X74113627Y-168512744D01*
X74113627Y-168512744D02*
X74069117Y-168557254D01*
X74069117Y-168557254D02*
X73980096Y-168601765D01*
X73980096Y-168601765D02*
X73802054Y-168601765D01*
X73802054Y-168601765D02*
X73713033Y-168557254D01*
X73267928Y-168334702D02*
X72555761Y-168334702D01*
X72911844Y-167978618D02*
X72911844Y-168690786D01*
X70401982Y-155570234D02*
X70446493Y-155614745D01*
X70446493Y-155614745D02*
X70491003Y-155748276D01*
X70491003Y-155748276D02*
X70491003Y-155837297D01*
X70491003Y-155837297D02*
X70446493Y-155970829D01*
X70446493Y-155970829D02*
X70357472Y-156059850D01*
X70357472Y-156059850D02*
X70268451Y-156104360D01*
X70268451Y-156104360D02*
X70090409Y-156148871D01*
X70090409Y-156148871D02*
X69956877Y-156148871D01*
X69956877Y-156148871D02*
X69778835Y-156104360D01*
X69778835Y-156104360D02*
X69689814Y-156059850D01*
X69689814Y-156059850D02*
X69600793Y-155970829D01*
X69600793Y-155970829D02*
X69556283Y-155837297D01*
X69556283Y-155837297D02*
X69556283Y-155748276D01*
X69556283Y-155748276D02*
X69600793Y-155614745D01*
X69600793Y-155614745D02*
X69645304Y-155570234D01*
X70491003Y-155169640D02*
X69556283Y-155169640D01*
X69556283Y-155169640D02*
X69556283Y-154947088D01*
X69556283Y-154947088D02*
X69600793Y-154813556D01*
X69600793Y-154813556D02*
X69689814Y-154724535D01*
X69689814Y-154724535D02*
X69778835Y-154680025D01*
X69778835Y-154680025D02*
X69956877Y-154635514D01*
X69956877Y-154635514D02*
X70090409Y-154635514D01*
X70090409Y-154635514D02*
X70268451Y-154680025D01*
X70268451Y-154680025D02*
X70357472Y-154724535D01*
X70357472Y-154724535D02*
X70446493Y-154813556D01*
X70446493Y-154813556D02*
X70491003Y-154947088D01*
X70491003Y-154947088D02*
X70491003Y-155169640D01*
X82173793Y-156466975D02*
X82129283Y-156555996D01*
X82129283Y-156555996D02*
X82129283Y-156689527D01*
X82129283Y-156689527D02*
X82173793Y-156823059D01*
X82173793Y-156823059D02*
X82262814Y-156912080D01*
X82262814Y-156912080D02*
X82351835Y-156956590D01*
X82351835Y-156956590D02*
X82529877Y-157001101D01*
X82529877Y-157001101D02*
X82663409Y-157001101D01*
X82663409Y-157001101D02*
X82841451Y-156956590D01*
X82841451Y-156956590D02*
X82930472Y-156912080D01*
X82930472Y-156912080D02*
X83019493Y-156823059D01*
X83019493Y-156823059D02*
X83064003Y-156689527D01*
X83064003Y-156689527D02*
X83064003Y-156600506D01*
X83064003Y-156600506D02*
X83019493Y-156466975D01*
X83019493Y-156466975D02*
X82974982Y-156422464D01*
X82974982Y-156422464D02*
X82663409Y-156422464D01*
X82663409Y-156422464D02*
X82663409Y-156600506D01*
X83064003Y-156021870D02*
X82129283Y-156021870D01*
X82129283Y-156021870D02*
X83064003Y-155487744D01*
X83064003Y-155487744D02*
X82129283Y-155487744D01*
X83064003Y-155042640D02*
X82129283Y-155042640D01*
X82129283Y-155042640D02*
X82129283Y-154820088D01*
X82129283Y-154820088D02*
X82173793Y-154686556D01*
X82173793Y-154686556D02*
X82262814Y-154597535D01*
X82262814Y-154597535D02*
X82351835Y-154553025D01*
X82351835Y-154553025D02*
X82529877Y-154508514D01*
X82529877Y-154508514D02*
X82663409Y-154508514D01*
X82663409Y-154508514D02*
X82841451Y-154553025D01*
X82841451Y-154553025D02*
X82930472Y-154597535D01*
X82930472Y-154597535D02*
X83019493Y-154686556D01*
X83019493Y-154686556D02*
X83064003Y-154820088D01*
X83064003Y-154820088D02*
X83064003Y-155042640D01*
X80434982Y-156072912D02*
X80479493Y-156117423D01*
X80479493Y-156117423D02*
X80524003Y-156250954D01*
X80524003Y-156250954D02*
X80524003Y-156339975D01*
X80524003Y-156339975D02*
X80479493Y-156473507D01*
X80479493Y-156473507D02*
X80390472Y-156562528D01*
X80390472Y-156562528D02*
X80301451Y-156607038D01*
X80301451Y-156607038D02*
X80123409Y-156651549D01*
X80123409Y-156651549D02*
X79989877Y-156651549D01*
X79989877Y-156651549D02*
X79811835Y-156607038D01*
X79811835Y-156607038D02*
X79722814Y-156562528D01*
X79722814Y-156562528D02*
X79633793Y-156473507D01*
X79633793Y-156473507D02*
X79589283Y-156339975D01*
X79589283Y-156339975D02*
X79589283Y-156250954D01*
X79589283Y-156250954D02*
X79633793Y-156117423D01*
X79633793Y-156117423D02*
X79678304Y-156072912D01*
X80524003Y-155227213D02*
X80524003Y-155672318D01*
X80524003Y-155672318D02*
X79589283Y-155672318D01*
X80524003Y-154915640D02*
X79589283Y-154915640D01*
X80524003Y-154381514D02*
X79989877Y-154782109D01*
X79589283Y-154381514D02*
X80123409Y-154915640D01*
X87082283Y-155265193D02*
X87082283Y-155710298D01*
X87082283Y-155710298D02*
X87527388Y-155754809D01*
X87527388Y-155754809D02*
X87482877Y-155710298D01*
X87482877Y-155710298D02*
X87438367Y-155621277D01*
X87438367Y-155621277D02*
X87438367Y-155398725D01*
X87438367Y-155398725D02*
X87482877Y-155309704D01*
X87482877Y-155309704D02*
X87527388Y-155265193D01*
X87527388Y-155265193D02*
X87616409Y-155220683D01*
X87616409Y-155220683D02*
X87838961Y-155220683D01*
X87838961Y-155220683D02*
X87927982Y-155265193D01*
X87927982Y-155265193D02*
X87972493Y-155309704D01*
X87972493Y-155309704D02*
X88017003Y-155398725D01*
X88017003Y-155398725D02*
X88017003Y-155621277D01*
X88017003Y-155621277D02*
X87972493Y-155710298D01*
X87972493Y-155710298D02*
X87927982Y-155754809D01*
X87393856Y-154909109D02*
X88017003Y-154686557D01*
X88017003Y-154686557D02*
X87393856Y-154464004D01*
X84542283Y-155799319D02*
X84542283Y-155220683D01*
X84542283Y-155220683D02*
X84898367Y-155532256D01*
X84898367Y-155532256D02*
X84898367Y-155398725D01*
X84898367Y-155398725D02*
X84942877Y-155309704D01*
X84942877Y-155309704D02*
X84987388Y-155265193D01*
X84987388Y-155265193D02*
X85076409Y-155220683D01*
X85076409Y-155220683D02*
X85298961Y-155220683D01*
X85298961Y-155220683D02*
X85387982Y-155265193D01*
X85387982Y-155265193D02*
X85432493Y-155309704D01*
X85432493Y-155309704D02*
X85477003Y-155398725D01*
X85477003Y-155398725D02*
X85477003Y-155665788D01*
X85477003Y-155665788D02*
X85432493Y-155754809D01*
X85432493Y-155754809D02*
X85387982Y-155799319D01*
X84853856Y-154909109D02*
X85477003Y-154686557D01*
X85477003Y-154686557D02*
X84853856Y-154464004D01*
X77857003Y-156021870D02*
X76922283Y-156021870D01*
X76922283Y-156021870D02*
X76922283Y-155799318D01*
X76922283Y-155799318D02*
X76966793Y-155665786D01*
X76966793Y-155665786D02*
X77055814Y-155576765D01*
X77055814Y-155576765D02*
X77144835Y-155532255D01*
X77144835Y-155532255D02*
X77322877Y-155487744D01*
X77322877Y-155487744D02*
X77456409Y-155487744D01*
X77456409Y-155487744D02*
X77634451Y-155532255D01*
X77634451Y-155532255D02*
X77723472Y-155576765D01*
X77723472Y-155576765D02*
X77812493Y-155665786D01*
X77812493Y-155665786D02*
X77857003Y-155799318D01*
X77857003Y-155799318D02*
X77857003Y-156021870D01*
X76922283Y-154909108D02*
X76922283Y-154731066D01*
X76922283Y-154731066D02*
X76966793Y-154642045D01*
X76966793Y-154642045D02*
X77055814Y-154553024D01*
X77055814Y-154553024D02*
X77233856Y-154508514D01*
X77233856Y-154508514D02*
X77545430Y-154508514D01*
X77545430Y-154508514D02*
X77723472Y-154553024D01*
X77723472Y-154553024D02*
X77812493Y-154642045D01*
X77812493Y-154642045D02*
X77857003Y-154731066D01*
X77857003Y-154731066D02*
X77857003Y-154909108D01*
X77857003Y-154909108D02*
X77812493Y-154998129D01*
X77812493Y-154998129D02*
X77723472Y-155087150D01*
X77723472Y-155087150D02*
X77545430Y-155131661D01*
X77545430Y-155131661D02*
X77233856Y-155131661D01*
X77233856Y-155131661D02*
X77055814Y-155087150D01*
X77055814Y-155087150D02*
X76966793Y-154998129D01*
X76966793Y-154998129D02*
X76922283Y-154909108D01*
X75317003Y-155487745D02*
X74382283Y-155487745D01*
X74382283Y-155487745D02*
X74382283Y-155265193D01*
X74382283Y-155265193D02*
X74426793Y-155131661D01*
X74426793Y-155131661D02*
X74515814Y-155042640D01*
X74515814Y-155042640D02*
X74604835Y-154998130D01*
X74604835Y-154998130D02*
X74782877Y-154953619D01*
X74782877Y-154953619D02*
X74916409Y-154953619D01*
X74916409Y-154953619D02*
X75094451Y-154998130D01*
X75094451Y-154998130D02*
X75183472Y-155042640D01*
X75183472Y-155042640D02*
X75272493Y-155131661D01*
X75272493Y-155131661D02*
X75317003Y-155265193D01*
X75317003Y-155265193D02*
X75317003Y-155487745D01*
X75317003Y-154553025D02*
X74382283Y-154553025D01*
D19*
X112452419Y-130788972D02*
X113452419Y-130455639D01*
X113452419Y-130455639D02*
X112452419Y-130122306D01*
X112452419Y-129598496D02*
X112452419Y-129408020D01*
X112452419Y-129408020D02*
X112500038Y-129312782D01*
X112500038Y-129312782D02*
X112595276Y-129217544D01*
X112595276Y-129217544D02*
X112785752Y-129169925D01*
X112785752Y-129169925D02*
X113119085Y-129169925D01*
X113119085Y-129169925D02*
X113309561Y-129217544D01*
X113309561Y-129217544D02*
X113404800Y-129312782D01*
X113404800Y-129312782D02*
X113452419Y-129408020D01*
X113452419Y-129408020D02*
X113452419Y-129598496D01*
X113452419Y-129598496D02*
X113404800Y-129693734D01*
X113404800Y-129693734D02*
X113309561Y-129788972D01*
X113309561Y-129788972D02*
X113119085Y-129836591D01*
X113119085Y-129836591D02*
X112785752Y-129836591D01*
X112785752Y-129836591D02*
X112595276Y-129788972D01*
X112595276Y-129788972D02*
X112500038Y-129693734D01*
X112500038Y-129693734D02*
X112452419Y-129598496D01*
X112452419Y-128741353D02*
X113261942Y-128741353D01*
X113261942Y-128741353D02*
X113357180Y-128693734D01*
X113357180Y-128693734D02*
X113404800Y-128646115D01*
X113404800Y-128646115D02*
X113452419Y-128550877D01*
X113452419Y-128550877D02*
X113452419Y-128360401D01*
X113452419Y-128360401D02*
X113404800Y-128265163D01*
X113404800Y-128265163D02*
X113357180Y-128217544D01*
X113357180Y-128217544D02*
X113261942Y-128169925D01*
X113261942Y-128169925D02*
X112452419Y-128169925D01*
X112452419Y-127836591D02*
X112452419Y-127265163D01*
X113452419Y-127550877D02*
X112452419Y-127550877D01*
X107000038Y-129622306D02*
X106952419Y-129717544D01*
X106952419Y-129717544D02*
X106952419Y-129860401D01*
X106952419Y-129860401D02*
X107000038Y-130003258D01*
X107000038Y-130003258D02*
X107095276Y-130098496D01*
X107095276Y-130098496D02*
X107190514Y-130146115D01*
X107190514Y-130146115D02*
X107380990Y-130193734D01*
X107380990Y-130193734D02*
X107523847Y-130193734D01*
X107523847Y-130193734D02*
X107714323Y-130146115D01*
X107714323Y-130146115D02*
X107809561Y-130098496D01*
X107809561Y-130098496D02*
X107904800Y-130003258D01*
X107904800Y-130003258D02*
X107952419Y-129860401D01*
X107952419Y-129860401D02*
X107952419Y-129765163D01*
X107952419Y-129765163D02*
X107904800Y-129622306D01*
X107904800Y-129622306D02*
X107857180Y-129574687D01*
X107857180Y-129574687D02*
X107523847Y-129574687D01*
X107523847Y-129574687D02*
X107523847Y-129765163D01*
X107952419Y-129146115D02*
X106952419Y-129146115D01*
X106952419Y-129146115D02*
X107952419Y-128574687D01*
X107952419Y-128574687D02*
X106952419Y-128574687D01*
X107952419Y-128098496D02*
X106952419Y-128098496D01*
X106952419Y-128098496D02*
X106952419Y-127860401D01*
X106952419Y-127860401D02*
X107000038Y-127717544D01*
X107000038Y-127717544D02*
X107095276Y-127622306D01*
X107095276Y-127622306D02*
X107190514Y-127574687D01*
X107190514Y-127574687D02*
X107380990Y-127527068D01*
X107380990Y-127527068D02*
X107523847Y-127527068D01*
X107523847Y-127527068D02*
X107714323Y-127574687D01*
X107714323Y-127574687D02*
X107809561Y-127622306D01*
X107809561Y-127622306D02*
X107904800Y-127717544D01*
X107904800Y-127717544D02*
X107952419Y-127860401D01*
X107952419Y-127860401D02*
X107952419Y-128098496D01*
X104000038Y-161622306D02*
X103952419Y-161717544D01*
X103952419Y-161717544D02*
X103952419Y-161860401D01*
X103952419Y-161860401D02*
X104000038Y-162003258D01*
X104000038Y-162003258D02*
X104095276Y-162098496D01*
X104095276Y-162098496D02*
X104190514Y-162146115D01*
X104190514Y-162146115D02*
X104380990Y-162193734D01*
X104380990Y-162193734D02*
X104523847Y-162193734D01*
X104523847Y-162193734D02*
X104714323Y-162146115D01*
X104714323Y-162146115D02*
X104809561Y-162098496D01*
X104809561Y-162098496D02*
X104904800Y-162003258D01*
X104904800Y-162003258D02*
X104952419Y-161860401D01*
X104952419Y-161860401D02*
X104952419Y-161765163D01*
X104952419Y-161765163D02*
X104904800Y-161622306D01*
X104904800Y-161622306D02*
X104857180Y-161574687D01*
X104857180Y-161574687D02*
X104523847Y-161574687D01*
X104523847Y-161574687D02*
X104523847Y-161765163D01*
X104952419Y-161146115D02*
X103952419Y-161146115D01*
X103952419Y-161146115D02*
X104952419Y-160574687D01*
X104952419Y-160574687D02*
X103952419Y-160574687D01*
X104952419Y-160098496D02*
X103952419Y-160098496D01*
X103952419Y-160098496D02*
X103952419Y-159860401D01*
X103952419Y-159860401D02*
X104000038Y-159717544D01*
X104000038Y-159717544D02*
X104095276Y-159622306D01*
X104095276Y-159622306D02*
X104190514Y-159574687D01*
X104190514Y-159574687D02*
X104380990Y-159527068D01*
X104380990Y-159527068D02*
X104523847Y-159527068D01*
X104523847Y-159527068D02*
X104714323Y-159574687D01*
X104714323Y-159574687D02*
X104809561Y-159622306D01*
X104809561Y-159622306D02*
X104904800Y-159717544D01*
X104904800Y-159717544D02*
X104952419Y-159860401D01*
X104952419Y-159860401D02*
X104952419Y-160098496D01*
X109452419Y-162288972D02*
X110452419Y-161955639D01*
X110452419Y-161955639D02*
X109452419Y-161622306D01*
X110452419Y-161288972D02*
X109452419Y-161288972D01*
X110452419Y-160812782D02*
X109452419Y-160812782D01*
X109452419Y-160812782D02*
X110452419Y-160241354D01*
X110452419Y-160241354D02*
X109452419Y-160241354D01*
X106952419Y-153646115D02*
X105952419Y-153646115D01*
X105952419Y-153646115D02*
X105952419Y-153265163D01*
X105952419Y-153265163D02*
X106000038Y-153169925D01*
X106000038Y-153169925D02*
X106047657Y-153122306D01*
X106047657Y-153122306D02*
X106142895Y-153074687D01*
X106142895Y-153074687D02*
X106285752Y-153074687D01*
X106285752Y-153074687D02*
X106380990Y-153122306D01*
X106380990Y-153122306D02*
X106428609Y-153169925D01*
X106428609Y-153169925D02*
X106476228Y-153265163D01*
X106476228Y-153265163D02*
X106476228Y-153646115D01*
X106952419Y-152503258D02*
X106904800Y-152598496D01*
X106904800Y-152598496D02*
X106857180Y-152646115D01*
X106857180Y-152646115D02*
X106761942Y-152693734D01*
X106761942Y-152693734D02*
X106476228Y-152693734D01*
X106476228Y-152693734D02*
X106380990Y-152646115D01*
X106380990Y-152646115D02*
X106333371Y-152598496D01*
X106333371Y-152598496D02*
X106285752Y-152503258D01*
X106285752Y-152503258D02*
X106285752Y-152360401D01*
X106285752Y-152360401D02*
X106333371Y-152265163D01*
X106333371Y-152265163D02*
X106380990Y-152217544D01*
X106380990Y-152217544D02*
X106476228Y-152169925D01*
X106476228Y-152169925D02*
X106761942Y-152169925D01*
X106761942Y-152169925D02*
X106857180Y-152217544D01*
X106857180Y-152217544D02*
X106904800Y-152265163D01*
X106904800Y-152265163D02*
X106952419Y-152360401D01*
X106952419Y-152360401D02*
X106952419Y-152503258D01*
X106952419Y-151598496D02*
X106904800Y-151693734D01*
X106904800Y-151693734D02*
X106809561Y-151741353D01*
X106809561Y-151741353D02*
X105952419Y-151741353D01*
X106952419Y-151074686D02*
X106904800Y-151169924D01*
X106904800Y-151169924D02*
X106857180Y-151217543D01*
X106857180Y-151217543D02*
X106761942Y-151265162D01*
X106761942Y-151265162D02*
X106476228Y-151265162D01*
X106476228Y-151265162D02*
X106380990Y-151217543D01*
X106380990Y-151217543D02*
X106333371Y-151169924D01*
X106333371Y-151169924D02*
X106285752Y-151074686D01*
X106285752Y-151074686D02*
X106285752Y-150931829D01*
X106285752Y-150931829D02*
X106333371Y-150836591D01*
X106333371Y-150836591D02*
X106380990Y-150788972D01*
X106380990Y-150788972D02*
X106476228Y-150741353D01*
X106476228Y-150741353D02*
X106761942Y-150741353D01*
X106761942Y-150741353D02*
X106857180Y-150788972D01*
X106857180Y-150788972D02*
X106904800Y-150836591D01*
X106904800Y-150836591D02*
X106952419Y-150931829D01*
X106952419Y-150931829D02*
X106952419Y-151074686D01*
X106952419Y-150169924D02*
X106904800Y-150265162D01*
X106904800Y-150265162D02*
X106809561Y-150312781D01*
X106809561Y-150312781D02*
X105952419Y-150312781D01*
X106285752Y-149360400D02*
X106952419Y-149360400D01*
X106285752Y-149788971D02*
X106809561Y-149788971D01*
X106809561Y-149788971D02*
X106904800Y-149741352D01*
X106904800Y-149741352D02*
X106952419Y-149646114D01*
X106952419Y-149646114D02*
X106952419Y-149503257D01*
X106952419Y-149503257D02*
X106904800Y-149408019D01*
X106904800Y-149408019D02*
X106857180Y-149360400D01*
X106952419Y-147598495D02*
X106952419Y-148169923D01*
X106952419Y-147884209D02*
X105952419Y-147884209D01*
X105952419Y-147884209D02*
X106095276Y-147979447D01*
X106095276Y-147979447D02*
X106190514Y-148074685D01*
X106190514Y-148074685D02*
X106238133Y-148169923D01*
X106047657Y-147217542D02*
X106000038Y-147169923D01*
X106000038Y-147169923D02*
X105952419Y-147074685D01*
X105952419Y-147074685D02*
X105952419Y-146836590D01*
X105952419Y-146836590D02*
X106000038Y-146741352D01*
X106000038Y-146741352D02*
X106047657Y-146693733D01*
X106047657Y-146693733D02*
X106142895Y-146646114D01*
X106142895Y-146646114D02*
X106238133Y-146646114D01*
X106238133Y-146646114D02*
X106380990Y-146693733D01*
X106380990Y-146693733D02*
X106952419Y-147265161D01*
X106952419Y-147265161D02*
X106952419Y-146646114D01*
X105952419Y-146360399D02*
X106952419Y-146027066D01*
X106952419Y-146027066D02*
X105952419Y-145693733D01*
X106904800Y-144646113D02*
X106952419Y-144503256D01*
X106952419Y-144503256D02*
X106952419Y-144265161D01*
X106952419Y-144265161D02*
X106904800Y-144169923D01*
X106904800Y-144169923D02*
X106857180Y-144122304D01*
X106857180Y-144122304D02*
X106761942Y-144074685D01*
X106761942Y-144074685D02*
X106666704Y-144074685D01*
X106666704Y-144074685D02*
X106571466Y-144122304D01*
X106571466Y-144122304D02*
X106523847Y-144169923D01*
X106523847Y-144169923D02*
X106476228Y-144265161D01*
X106476228Y-144265161D02*
X106428609Y-144455637D01*
X106428609Y-144455637D02*
X106380990Y-144550875D01*
X106380990Y-144550875D02*
X106333371Y-144598494D01*
X106333371Y-144598494D02*
X106238133Y-144646113D01*
X106238133Y-144646113D02*
X106142895Y-144646113D01*
X106142895Y-144646113D02*
X106047657Y-144598494D01*
X106047657Y-144598494D02*
X106000038Y-144550875D01*
X106000038Y-144550875D02*
X105952419Y-144455637D01*
X105952419Y-144455637D02*
X105952419Y-144217542D01*
X105952419Y-144217542D02*
X106000038Y-144074685D01*
X106285752Y-143788970D02*
X106285752Y-143408018D01*
X105952419Y-143646113D02*
X106809561Y-143646113D01*
X106809561Y-143646113D02*
X106904800Y-143598494D01*
X106904800Y-143598494D02*
X106952419Y-143503256D01*
X106952419Y-143503256D02*
X106952419Y-143408018D01*
X106904800Y-142693732D02*
X106952419Y-142788970D01*
X106952419Y-142788970D02*
X106952419Y-142979446D01*
X106952419Y-142979446D02*
X106904800Y-143074684D01*
X106904800Y-143074684D02*
X106809561Y-143122303D01*
X106809561Y-143122303D02*
X106428609Y-143122303D01*
X106428609Y-143122303D02*
X106333371Y-143074684D01*
X106333371Y-143074684D02*
X106285752Y-142979446D01*
X106285752Y-142979446D02*
X106285752Y-142788970D01*
X106285752Y-142788970D02*
X106333371Y-142693732D01*
X106333371Y-142693732D02*
X106428609Y-142646113D01*
X106428609Y-142646113D02*
X106523847Y-142646113D01*
X106523847Y-142646113D02*
X106619085Y-143122303D01*
X106285752Y-142217541D02*
X107285752Y-142217541D01*
X106333371Y-142217541D02*
X106285752Y-142122303D01*
X106285752Y-142122303D02*
X106285752Y-141931827D01*
X106285752Y-141931827D02*
X106333371Y-141836589D01*
X106333371Y-141836589D02*
X106380990Y-141788970D01*
X106380990Y-141788970D02*
X106476228Y-141741351D01*
X106476228Y-141741351D02*
X106761942Y-141741351D01*
X106761942Y-141741351D02*
X106857180Y-141788970D01*
X106857180Y-141788970D02*
X106904800Y-141836589D01*
X106904800Y-141836589D02*
X106952419Y-141931827D01*
X106952419Y-141931827D02*
X106952419Y-142122303D01*
X106952419Y-142122303D02*
X106904800Y-142217541D01*
X106571466Y-141312779D02*
X106571466Y-140550875D01*
X105952419Y-140074684D02*
X106761942Y-140074684D01*
X106761942Y-140074684D02*
X106857180Y-140027065D01*
X106857180Y-140027065D02*
X106904800Y-139979446D01*
X106904800Y-139979446D02*
X106952419Y-139884208D01*
X106952419Y-139884208D02*
X106952419Y-139693732D01*
X106952419Y-139693732D02*
X106904800Y-139598494D01*
X106904800Y-139598494D02*
X106857180Y-139550875D01*
X106857180Y-139550875D02*
X106761942Y-139503256D01*
X106761942Y-139503256D02*
X105952419Y-139503256D01*
X106285752Y-139027065D02*
X107285752Y-139027065D01*
X106333371Y-139027065D02*
X106285752Y-138931827D01*
X106285752Y-138931827D02*
X106285752Y-138741351D01*
X106285752Y-138741351D02*
X106333371Y-138646113D01*
X106333371Y-138646113D02*
X106380990Y-138598494D01*
X106380990Y-138598494D02*
X106476228Y-138550875D01*
X106476228Y-138550875D02*
X106761942Y-138550875D01*
X106761942Y-138550875D02*
X106857180Y-138598494D01*
X106857180Y-138598494D02*
X106904800Y-138646113D01*
X106904800Y-138646113D02*
X106952419Y-138741351D01*
X106952419Y-138741351D02*
X106952419Y-138931827D01*
X106952419Y-138931827D02*
X106904800Y-139027065D01*
D10*
X107947219Y-149580326D02*
X108756742Y-149580326D01*
X108756742Y-149580326D02*
X108851980Y-149532707D01*
X108851980Y-149532707D02*
X108899600Y-149485088D01*
X108899600Y-149485088D02*
X108947219Y-149389850D01*
X108947219Y-149389850D02*
X108947219Y-149199374D01*
X108947219Y-149199374D02*
X108899600Y-149104136D01*
X108899600Y-149104136D02*
X108851980Y-149056517D01*
X108851980Y-149056517D02*
X108756742Y-149008898D01*
X108756742Y-149008898D02*
X107947219Y-149008898D01*
X107947219Y-148627945D02*
X107947219Y-148008898D01*
X107947219Y-148008898D02*
X108328171Y-148342231D01*
X108328171Y-148342231D02*
X108328171Y-148199374D01*
X108328171Y-148199374D02*
X108375790Y-148104136D01*
X108375790Y-148104136D02*
X108423409Y-148056517D01*
X108423409Y-148056517D02*
X108518647Y-148008898D01*
X108518647Y-148008898D02*
X108756742Y-148008898D01*
X108756742Y-148008898D02*
X108851980Y-148056517D01*
X108851980Y-148056517D02*
X108899600Y-148104136D01*
X108899600Y-148104136D02*
X108947219Y-148199374D01*
X108947219Y-148199374D02*
X108947219Y-148485088D01*
X108947219Y-148485088D02*
X108899600Y-148580326D01*
X108899600Y-148580326D02*
X108851980Y-148627945D01*
X107947219Y-147723183D02*
X108947219Y-147389850D01*
X108947219Y-147389850D02*
X107947219Y-147056517D01*
X107947219Y-146246993D02*
X107947219Y-146723183D01*
X107947219Y-146723183D02*
X108423409Y-146770802D01*
X108423409Y-146770802D02*
X108375790Y-146723183D01*
X108375790Y-146723183D02*
X108328171Y-146627945D01*
X108328171Y-146627945D02*
X108328171Y-146389850D01*
X108328171Y-146389850D02*
X108375790Y-146294612D01*
X108375790Y-146294612D02*
X108423409Y-146246993D01*
X108423409Y-146246993D02*
X108518647Y-146199374D01*
X108518647Y-146199374D02*
X108756742Y-146199374D01*
X108756742Y-146199374D02*
X108851980Y-146246993D01*
X108851980Y-146246993D02*
X108899600Y-146294612D01*
X108899600Y-146294612D02*
X108947219Y-146389850D01*
X108947219Y-146389850D02*
X108947219Y-146627945D01*
X108947219Y-146627945D02*
X108899600Y-146723183D01*
X108899600Y-146723183D02*
X108851980Y-146770802D01*
X107947219Y-145580326D02*
X107947219Y-145485088D01*
X107947219Y-145485088D02*
X107994838Y-145389850D01*
X107994838Y-145389850D02*
X108042457Y-145342231D01*
X108042457Y-145342231D02*
X108137695Y-145294612D01*
X108137695Y-145294612D02*
X108328171Y-145246993D01*
X108328171Y-145246993D02*
X108566266Y-145246993D01*
X108566266Y-145246993D02*
X108756742Y-145294612D01*
X108756742Y-145294612D02*
X108851980Y-145342231D01*
X108851980Y-145342231D02*
X108899600Y-145389850D01*
X108899600Y-145389850D02*
X108947219Y-145485088D01*
X108947219Y-145485088D02*
X108947219Y-145580326D01*
X108947219Y-145580326D02*
X108899600Y-145675564D01*
X108899600Y-145675564D02*
X108851980Y-145723183D01*
X108851980Y-145723183D02*
X108756742Y-145770802D01*
X108756742Y-145770802D02*
X108566266Y-145818421D01*
X108566266Y-145818421D02*
X108328171Y-145818421D01*
X108328171Y-145818421D02*
X108137695Y-145770802D01*
X108137695Y-145770802D02*
X108042457Y-145723183D01*
X108042457Y-145723183D02*
X107994838Y-145675564D01*
X107994838Y-145675564D02*
X107947219Y-145580326D01*
X108423409Y-144485088D02*
X108423409Y-144818421D01*
X108947219Y-144818421D02*
X107947219Y-144818421D01*
X107947219Y-144818421D02*
X107947219Y-144342231D01*
X108947219Y-143437469D02*
X108947219Y-144008897D01*
X108947219Y-143723183D02*
X107947219Y-143723183D01*
X107947219Y-143723183D02*
X108090076Y-143818421D01*
X108090076Y-143818421D02*
X108185314Y-143913659D01*
X108185314Y-143913659D02*
X108232933Y-144008897D01*
X108042457Y-143056516D02*
X107994838Y-143008897D01*
X107994838Y-143008897D02*
X107947219Y-142913659D01*
X107947219Y-142913659D02*
X107947219Y-142675564D01*
X107947219Y-142675564D02*
X107994838Y-142580326D01*
X107994838Y-142580326D02*
X108042457Y-142532707D01*
X108042457Y-142532707D02*
X108137695Y-142485088D01*
X108137695Y-142485088D02*
X108232933Y-142485088D01*
X108232933Y-142485088D02*
X108375790Y-142532707D01*
X108375790Y-142532707D02*
X108947219Y-143104135D01*
X108947219Y-143104135D02*
X108947219Y-142485088D01*
%TO.C,J1*%
D20*
X56460000Y-122500000D02*
X56460000Y-142820000D01*
X59000000Y-145360000D02*
X97608000Y-145360000D01*
X97608000Y-119960000D02*
X59000000Y-119960000D01*
X100148000Y-142820000D02*
X100148000Y-122500000D01*
X56460000Y-122500000D02*
G75*
G02*
X59000000Y-119960000I2540001J-1D01*
G01*
X59000000Y-145360000D02*
G75*
G02*
X56460000Y-142820000I1J2540001D01*
G01*
X97608000Y-119960000D02*
G75*
G02*
X100148000Y-122500000I0J-2540000D01*
G01*
X100148000Y-142820000D02*
G75*
G02*
X97608000Y-145360000I-2540000J0D01*
G01*
%TO.C,Motor-In1*%
X91424000Y-116795000D02*
X91424000Y-95205000D01*
X93964000Y-92665000D02*
X107934000Y-92665000D01*
D21*
X106029000Y-103460000D02*
X106029000Y-108540000D01*
X106029000Y-108540000D02*
X110474000Y-108540000D01*
D20*
X107934000Y-119335000D02*
X93964000Y-119335000D01*
X110474000Y-95205000D02*
X110474000Y-116795000D01*
D21*
X110474000Y-103460000D02*
X106029000Y-103460000D01*
D20*
X91424000Y-95205000D02*
G75*
G02*
X93964000Y-92665000I2540001J-1D01*
G01*
X93964000Y-119335000D02*
G75*
G02*
X91424000Y-116795000I1J2540001D01*
G01*
X107934000Y-92665000D02*
G75*
G02*
X110474000Y-95205000I-1J-2540001D01*
G01*
X110474000Y-116795000D02*
G75*
G02*
X107934000Y-119335000I-2540001J1D01*
G01*
%TO.C,USBC1*%
X57550000Y-181000000D02*
G75*
G02*
X55010000Y-183540000I-2540001J1D01*
G01*
X55010000Y-169570000D02*
G75*
G02*
X57550000Y-172110000I-1J-2540001D01*
G01*
X39770000Y-183540000D02*
G75*
G02*
X37230000Y-181000000I1J2540001D01*
G01*
X37230000Y-172110000D02*
G75*
G02*
X39770000Y-169570000I2540001J-1D01*
G01*
X57550000Y-172110000D02*
X57550000Y-181000000D01*
X55010000Y-183540000D02*
X39770000Y-183540000D01*
X39770000Y-169570000D02*
X55010000Y-169570000D01*
X37230000Y-181000000D02*
X37230000Y-172110000D01*
%TO.C,Powerboost1*%
X29460000Y-148610000D02*
X29460000Y-153436000D01*
X29460000Y-153436000D02*
X29714000Y-153690000D01*
X29460000Y-161564000D02*
X29460000Y-166390000D01*
X29714000Y-153690000D02*
X29714000Y-161310000D01*
X29714000Y-161310000D02*
X29460000Y-161564000D01*
X32000000Y-168930000D02*
X63750000Y-168930000D01*
X63750000Y-146070000D02*
X32000000Y-146070000D01*
X65528000Y-166390000D02*
X65528000Y-148610000D01*
X29460000Y-148610000D02*
G75*
G02*
X32000000Y-146070000I2540001J-1D01*
G01*
X32000000Y-168930000D02*
G75*
G02*
X29460000Y-166390000I1J2540001D01*
G01*
X63750000Y-146070000D02*
G75*
G02*
X65528000Y-148610000I-381000J-2159000D01*
G01*
X65528000Y-166390000D02*
G75*
G02*
X63750000Y-168930000I-2159000J-381000D01*
G01*
%TO.C,SD1*%
X65960000Y-153515000D02*
G75*
G02*
X67865000Y-151610000I1905001J-1D01*
G01*
X89455000Y-183360000D02*
X67865000Y-183360000D01*
D21*
X75358000Y-156563000D02*
X74850000Y-157071000D01*
X80565000Y-157325000D02*
X80057000Y-157833000D01*
X74342000Y-156563000D02*
X75358000Y-156563000D01*
D20*
X67865000Y-183360000D02*
G75*
G02*
X65960000Y-181455000I1J1905001D01*
G01*
X65960000Y-181455000D02*
X65960000Y-153515000D01*
X89455000Y-151610000D02*
G75*
G02*
X91360000Y-153515000I-1J-1905001D01*
G01*
D21*
X71929000Y-156817000D02*
X72945000Y-156817000D01*
X80057000Y-157833000D02*
X79549000Y-157325000D01*
X87550000Y-157198000D02*
X87042000Y-156690000D01*
X74850000Y-157071000D02*
X74342000Y-156563000D01*
X77390000Y-156563000D02*
X77898000Y-157071000D01*
D20*
X91360000Y-181455000D02*
G75*
G02*
X89455000Y-183360000I-1905001J1D01*
G01*
D21*
X88058000Y-156690000D02*
X87550000Y-157198000D01*
D20*
X91360000Y-153515000D02*
X91360000Y-181455000D01*
D21*
X77898000Y-157071000D02*
X76882000Y-157071000D01*
X76882000Y-157071000D02*
X77390000Y-156563000D01*
X87042000Y-156690000D02*
X88058000Y-156690000D01*
D20*
X67865000Y-151610000D02*
X89455000Y-151610000D01*
D21*
X79549000Y-157325000D02*
X80565000Y-157325000D01*
X72945000Y-156817000D02*
X72437000Y-157325000D01*
X72437000Y-157325000D02*
X71929000Y-156817000D01*
%TO.C,J3*%
D10*
X101380000Y-120870000D02*
X116620000Y-120870000D01*
X101380000Y-169130000D02*
X101380000Y-120870000D01*
X116620000Y-169130000D02*
X116620000Y-120870000D01*
X101380000Y-169130000D02*
X116620000Y-169130000D01*
%TD*%
M02*
