%TF.GenerationSoftware,KiCad,Pcbnew,10.0.6-10.0.6~ubuntu26.04.1*%
%TF.CreationDate,2026-09-26T12:36:05-04:00*%
%TF.ProjectId,circut,63697263-7574-42e6-9b69-6361645f7063,rev?*%
%TF.SameCoordinates,Original*%
%TF.FileFunction,Copper,L1,Top*%
%TF.FilePolarity,Positive*%
%FSLAX46Y46*%
G04 Gerber Fmt 4.6, Leading zero omitted, Abs format (unit mm)*
G04 Created by KiCad (PCBNEW 10.0.6-10.0.6~ubuntu26.04.1) date 2026-09-26 12:36:05*
%MOMM*%
%LPD*%
G01*
G04 APERTURE LIST*
G04 Aperture macros list*
%AMRoundRect*
0 Rectangle with rounded corners*
0 $1 Rounding radius*
0 $2 $3 $4 $5 $6 $7 $8 $9 X,Y pos of 4 corners*
0 Add a 4 corners polygon primitive as box body*
4,1,4,$2,$3,$4,$5,$6,$7,$8,$9,$2,$3,0*
0 Add four circle primitives for the rounded corners*
1,1,$1+$1,$2,$3*
1,1,$1+$1,$4,$5*
1,1,$1+$1,$6,$7*
1,1,$1+$1,$8,$9*
0 Add four rect primitives between the rounded corners*
20,1,$1+$1,$2,$3,$4,$5,0*
20,1,$1+$1,$4,$5,$6,$7,0*
20,1,$1+$1,$6,$7,$8,$9,0*
20,1,$1+$1,$8,$9,$2,$3,0*%
%AMOutline5P*
0 Free polygon, 5 corners , with rotation*
0 The origin of the aperture is its center*
0 number of corners: always 5*
0 $1 to $10 corner X, Y*
0 $11 Rotation angle, in degrees counterclockwise*
0 create outline with 5 corners*
4,1,5,$1,$2,$3,$4,$5,$6,$7,$8,$9,$10,$1,$2,$11*%
%AMOutline6P*
0 Free polygon, 6 corners , with rotation*
0 The origin of the aperture is its center*
0 number of corners: always 6*
0 $1 to $12 corner X, Y*
0 $13 Rotation angle, in degrees counterclockwise*
0 create outline with 6 corners*
4,1,6,$1,$2,$3,$4,$5,$6,$7,$8,$9,$10,$11,$12,$1,$2,$13*%
%AMOutline7P*
0 Free polygon, 7 corners , with rotation*
0 The origin of the aperture is its center*
0 number of corners: always 7*
0 $1 to $14 corner X, Y*
0 $15 Rotation angle, in degrees counterclockwise*
0 create outline with 7 corners*
4,1,7,$1,$2,$3,$4,$5,$6,$7,$8,$9,$10,$11,$12,$13,$14,$1,$2,$15*%
%AMOutline8P*
0 Free polygon, 8 corners , with rotation*
0 The origin of the aperture is its center*
0 number of corners: always 8*
0 $1 to $16 corner X, Y*
0 $17 Rotation angle, in degrees counterclockwise*
0 create outline with 8 corners*
4,1,8,$1,$2,$3,$4,$5,$6,$7,$8,$9,$10,$11,$12,$13,$14,$15,$16,$1,$2,$17*%
G04 Aperture macros list end*
%TA.AperFunction,ComponentPad*%
%ADD10R,1.700000X1.700000*%
%TD*%
%TA.AperFunction,ComponentPad*%
%ADD11C,1.700000*%
%TD*%
%TA.AperFunction,ComponentPad*%
%ADD12RoundRect,0.250001X0.949999X-0.949999X0.949999X0.949999X-0.949999X0.949999X-0.949999X-0.949999X0*%
%TD*%
%TA.AperFunction,ComponentPad*%
%ADD13C,2.400000*%
%TD*%
%TA.AperFunction,ComponentPad*%
%ADD14C,3.200000*%
%TD*%
%TA.AperFunction,ComponentPad*%
%ADD15Outline8P,-0.889000X0.368236X-0.368236X0.889000X0.368236X0.889000X0.889000X0.368236X0.889000X-0.368236X0.368236X-0.889000X-0.368236X-0.889000X-0.889000X-0.368236X0.000000*%
%TD*%
%TA.AperFunction,ComponentPad*%
%ADD16C,1.930400*%
%TD*%
%TA.AperFunction,WasherPad*%
%ADD17C,3.200000*%
%TD*%
%TA.AperFunction,ComponentPad*%
%ADD18R,2.600000X1.600000*%
%TD*%
%TA.AperFunction,ComponentPad*%
%ADD19O,2.600000X1.600000*%
%TD*%
%TA.AperFunction,ComponentPad*%
%ADD20Outline8P,-0.889000X0.368236X-0.368236X0.889000X0.368236X0.889000X0.889000X0.368236X0.889000X-0.368236X0.368236X-0.889000X-0.368236X-0.889000X-0.889000X-0.368236X270.000000*%
%TD*%
%TA.AperFunction,Conductor*%
%ADD21C,0.200000*%
%TD*%
%TA.AperFunction,Conductor*%
%ADD22C,0.762000*%
%TD*%
G04 APERTURE END LIST*
D10*
%TO.P,J3,5,Pin_5_5*%
%TO.N,GND*%
X103000000Y-141450000D03*
%TO.P,J3,2,Pin_2_2*%
X100460000Y-179450000D03*
D11*
%TO.P,J3,4,Pin_4_4*%
%TO.N,/Battery*%
X105540000Y-179450000D03*
D10*
%TO.P,J3,1,Pin_1_1*%
%TO.N,GND*%
X97920000Y-179450000D03*
D11*
%TO.P,J3,3,Pin_3_3*%
%TO.N,/Battery*%
X103000000Y-179450000D03*
D10*
%TO.P,J3,6,Pin_6_6*%
%TO.N,GND*%
X105540000Y-141450000D03*
D11*
%TO.P,J3,7,Pin_7_7*%
%TO.N,/12v*%
X108080000Y-141450000D03*
%TO.P,J3,8,Pin_8_8*%
X110620000Y-141450000D03*
%TD*%
D12*
%TO.P,J2,1,Pin_1_1*%
%TO.N,Net-(J2-Pin_1)*%
X107000000Y-132000000D03*
D13*
%TO.P,J2,2,Pin_2_2*%
%TO.N,Net-(J2-Pin_2)*%
X107000000Y-126920000D03*
%TD*%
D12*
%TO.P,J1,1,Pin_1_1*%
%TO.N,Net-(J1-Pin_1)*%
X107000000Y-120000000D03*
D13*
%TO.P,J1,2,Pin_2_2*%
%TO.N,Net-(J1-Pin_2)*%
X107000000Y-114920000D03*
%TD*%
D14*
%TO.P,U1,P$1*%
%TO.N,N/C*%
X74052000Y-146190528D03*
X74066000Y-124705000D03*
D15*
%TO.P,U1,11,BO1_11*%
%TO.N,Net-(J2-Pin_1)*%
X72796000Y-141850000D03*
%TO.P,U1,7,BO2_7*%
%TO.N,Net-(J2-Pin_2)*%
X72796000Y-139310000D03*
%TO.P,U1,9,PGND2_9*%
%TO.N,GND*%
X72796000Y-136770000D03*
%TO.P,U1,3,PGND1_3*%
X72796000Y-134230000D03*
%TO.P,U1,1,AO1_1*%
%TO.N,Net-(J1-Pin_1)*%
X72796000Y-131690000D03*
%TO.P,U1,5,AO2_5*%
%TO.N,Net-(J1-Pin_2)*%
X72796000Y-129150000D03*
D16*
%TO.P,U1,23,PWMA_23*%
%TO.N,/PWMA*%
X88036000Y-124070000D03*
%TO.P,U1,22,AIN2_22*%
%TO.N,/AIN2*%
X88036000Y-126610000D03*
%TO.P,U1,21,AIN1_21*%
%TO.N,/AIN1*%
X88036000Y-129150000D03*
%TO.P,U1,19,STBY_19*%
%TO.N,/STBY*%
X88036000Y-131690000D03*
%TO.P,U1,17,BIN1_17*%
%TO.N,/BIN1*%
X88036000Y-134230000D03*
%TO.P,U1,16,BIN2_16*%
%TO.N,/BIN2*%
X88036000Y-136770000D03*
%TO.P,U1,15,PWMB_15*%
%TO.N,/PWMB*%
X88036000Y-139310000D03*
%TO.P,U1,18,GND_18*%
%TO.N,GND*%
X88036000Y-141850000D03*
%TO.P,U1,20,VCC_20*%
%TO.N,/3v*%
X88036000Y-144390000D03*
%TO.P,U1,24,VM1_24*%
%TO.N,/12v*%
X88036000Y-146930000D03*
%TD*%
D17*
%TO.P,A1,*%
%TO.N,*%
X64782500Y-181860000D03*
X47002500Y-181860000D03*
D18*
%TO.P,A1,1,~{RESET}_1*%
%TO.N,unconnected-(A1-~{RESET}-Pad1)*%
X65752500Y-178050000D03*
D19*
%TO.P,A1,2,3V3_2*%
%TO.N,/3v*%
X65752500Y-175510000D03*
%TO.P,A1,3,NC_3*%
%TO.N,unconnected-(A1-NC-Pad3)*%
X65752500Y-172970000D03*
%TO.P,A1,4,GND_4*%
%TO.N,GND*%
X65752500Y-170430000D03*
%TO.P,A1,5,DAC2/A0_5*%
%TO.N,Net-(A1-DAC2{slash}A0)*%
X65752500Y-167890000D03*
%TO.P,A1,6,DAC1/A1_6*%
%TO.N,Net-(A1-DAC1{slash}A1)*%
X65752500Y-165350000D03*
%TO.P,A1,7,I34/A2_7*%
%TO.N,Net-(A1-I34{slash}A2)*%
X65752500Y-162810000D03*
%TO.P,A1,8,I39/A3_8*%
%TO.N,Net-(A1-I39{slash}A3)*%
X65752500Y-160270000D03*
%TO.P,A1,9,IO36/A4_9*%
%TO.N,unconnected-(A1-IO36{slash}A4-Pad9)*%
X65752500Y-157730000D03*
%TO.P,A1,10,IO4/A5_10*%
%TO.N,unconnected-(A1-IO4{slash}A5-Pad10)*%
X65752500Y-155190000D03*
%TO.P,A1,11,SCK/IO5_11*%
%TO.N,unconnected-(A1-SCK{slash}IO5-Pad11)*%
X65752500Y-152650000D03*
%TO.P,A1,12,MOSI/IO18_12*%
%TO.N,unconnected-(A1-MOSI{slash}IO18-Pad12)*%
X65752500Y-150110000D03*
%TO.P,A1,13,MISO/IO19_13*%
%TO.N,unconnected-(A1-MISO{slash}IO19-Pad13)*%
X65752500Y-147570000D03*
%TO.P,A1,14,RX/IO16_14*%
%TO.N,unconnected-(A1-RX{slash}IO16-Pad14)*%
X65752500Y-145030000D03*
%TO.P,A1,15,TX/IO17_15*%
%TO.N,unconnected-(A1-TX{slash}IO17-Pad15)*%
X65752500Y-142490000D03*
%TO.P,A1,16,IO21_16*%
%TO.N,unconnected-(A1-IO21-Pad16)*%
X65752500Y-139950000D03*
%TO.P,A1,17,SDA/IO23_17*%
%TO.N,unconnected-(A1-SDA{slash}IO23-Pad17)*%
X46032500Y-139950000D03*
%TO.P,A1,18,SCL/IO22_18*%
%TO.N,unconnected-(A1-SCL{slash}IO22-Pad18)*%
X46032500Y-142490000D03*
%TO.P,A1,19,A6/IO14_19*%
%TO.N,/PWMA*%
X46032500Y-145030000D03*
%TO.P,A1,20,A7/IO32_20*%
%TO.N,/AIN2*%
X46032500Y-147570000D03*
%TO.P,A1,21,A8/IO15_21*%
%TO.N,/AIN1*%
X46032500Y-150110000D03*
%TO.P,A1,22,A9/IO33_22*%
%TO.N,/STBY*%
X46032500Y-152650000D03*
%TO.P,A1,23,A10/IO27_23*%
%TO.N,/BIN1*%
X46032500Y-155190000D03*
%TO.P,A1,24,A11/IO12_24*%
%TO.N,/BIN2*%
X46032500Y-157730000D03*
%TO.P,A1,25,A12/IO13_25*%
%TO.N,/PWMB*%
X46032500Y-160270000D03*
%TO.P,A1,26,USB_26*%
%TO.N,unconnected-(A1-USB-Pad26)*%
X46032500Y-162810000D03*
%TO.P,A1,27,EN_27*%
%TO.N,unconnected-(A1-EN-Pad27)*%
X46032500Y-165350000D03*
%TO.P,A1,28,VBAT_28*%
%TO.N,/Battery*%
X46032500Y-167890000D03*
%TD*%
D20*
%TO.P,SD1,1,Pin_1_1*%
%TO.N,unconnected-(SD1-Pin_1-Pad1)*%
X92200000Y-154500000D03*
%TO.P,SD1,2,Pin_2_2*%
%TO.N,/3v*%
X89660000Y-154500000D03*
%TO.P,SD1,3,Pin_3_3*%
%TO.N,GND*%
X87120000Y-154500000D03*
%TO.P,SD1,4,Pin_4_4*%
%TO.N,Net-(A1-I39{slash}A3)*%
X84580000Y-154500000D03*
%TO.P,SD1,5,Pin_5_5*%
%TO.N,Net-(A1-I34{slash}A2)*%
X82040000Y-154500000D03*
%TO.P,SD1,6,Pin_6_6*%
%TO.N,Net-(A1-DAC1{slash}A1)*%
X79500000Y-154500000D03*
%TO.P,SD1,7,Pin_7_7*%
%TO.N,Net-(A1-DAC2{slash}A0)*%
X76960000Y-154500000D03*
%TO.P,SD1,8,Pin_8_8*%
%TO.N,unconnected-(SD1-Pin_8-Pad8)*%
X74420000Y-154500000D03*
%TD*%
%TO.N,GND*%
D21*
X105540000Y-141450000D02*
X103000000Y-141450000D01*
X97920000Y-179450000D02*
X100460000Y-179450000D01*
%TO.N,Net-(J1-Pin_2)*%
D22*
X72796000Y-129150000D02*
X76669823Y-129150000D01*
X76669823Y-129150000D02*
X86285023Y-119534800D01*
X86285023Y-119534800D02*
X102465200Y-119534800D01*
X102465200Y-119534800D02*
X107000000Y-115000000D01*
%TO.N,Net-(J2-Pin_1)*%
X72796000Y-141850000D02*
X74150000Y-141850000D01*
X74150000Y-141850000D02*
X78000000Y-138000000D01*
X78000000Y-138000000D02*
X78000000Y-131914817D01*
X78000000Y-131914817D02*
X87414817Y-122500000D01*
X87414817Y-122500000D02*
X97500000Y-122500000D01*
X97500000Y-122500000D02*
X107000000Y-132000000D01*
%TO.N,Net-(J2-Pin_2)*%
X72796000Y-139310000D02*
X75325002Y-139310000D01*
X75325002Y-139310000D02*
X77000000Y-137635002D01*
X77000000Y-137635002D02*
X77000000Y-131549819D01*
X77000000Y-131549819D02*
X87015019Y-121534800D01*
X87015019Y-121534800D02*
X101534800Y-121534800D01*
X101534800Y-121534800D02*
X107000000Y-127000000D01*
%TO.N,Net-(J1-Pin_1)*%
X72796000Y-131690000D02*
X75494821Y-131690000D01*
X75494821Y-131690000D02*
X86684821Y-120500000D01*
X86684821Y-120500000D02*
X106500000Y-120500000D01*
X106500000Y-120500000D02*
X107000000Y-120000000D01*
%TO.N,Net-(A1-DAC1{slash}A1)*%
D21*
X66052500Y-165350000D02*
X72500000Y-158902500D01*
%TO.N,Net-(A1-DAC2{slash}A0)*%
X73000000Y-159971250D02*
X71573000Y-161398250D01*
X71573000Y-161398250D02*
X71573000Y-162369500D01*
X71573000Y-162369500D02*
X66052500Y-167890000D01*
%TO.N,/PWMB*%
X45732500Y-160270000D02*
X46835700Y-159166800D01*
X46835700Y-159166800D02*
X66375860Y-159166800D01*
X66375860Y-159166800D02*
X71000000Y-154542660D01*
X71000000Y-154542660D02*
X71000000Y-153219160D01*
X71000000Y-153219160D02*
X72831960Y-151387200D01*
X72831960Y-151387200D02*
X75612800Y-151387200D01*
X75612800Y-151387200D02*
X86846340Y-140153660D01*
X86846340Y-140153660D02*
X87192340Y-140153660D01*
X87192340Y-140153660D02*
X88036000Y-139310000D01*
%TO.N,/BIN2*%
X45732500Y-157730000D02*
X46835700Y-156626800D01*
X46835700Y-156626800D02*
X67022150Y-156626800D01*
X80700200Y-145650853D02*
X80700200Y-144105800D01*
X67022150Y-156626800D02*
X72664950Y-150984000D01*
X72664950Y-150984000D02*
X75367055Y-150984000D01*
X75367055Y-150984000D02*
X80700200Y-145650853D01*
X80700200Y-144105800D02*
X88036000Y-136770000D01*
%TO.N,/BIN1*%
X45732500Y-155190000D02*
X47169300Y-153753200D01*
X69325540Y-153753200D02*
X72497940Y-150580800D01*
X47169300Y-153753200D02*
X69325540Y-153753200D01*
X75200044Y-150580800D02*
X80297000Y-145483842D01*
X72497940Y-150580800D02*
X75200044Y-150580800D01*
X80297000Y-145483842D02*
X80297000Y-141969000D01*
X80297000Y-141969000D02*
X88036000Y-134230000D01*
%TO.N,/STBY*%
X45732500Y-152650000D02*
X46835700Y-151546800D01*
X46835700Y-151546800D02*
X70961730Y-151546800D01*
X70961730Y-151546800D02*
X72330930Y-150177600D01*
X72330930Y-150177600D02*
X75033033Y-150177600D01*
X79893800Y-139832200D02*
X88036000Y-131690000D01*
X75033033Y-150177600D02*
X79893800Y-145316831D01*
X79893800Y-145316831D02*
X79893800Y-139832200D01*
%TO.N,/AIN1*%
X45732500Y-150110000D02*
X46835700Y-149006800D01*
X79490600Y-145149821D02*
X79490600Y-137695400D01*
X46835700Y-149006800D02*
X70506800Y-149006800D01*
X70506800Y-149006800D02*
X71274400Y-149774400D01*
X71274400Y-149774400D02*
X74866022Y-149774400D01*
X74866022Y-149774400D02*
X79490600Y-145149821D01*
X79490600Y-137695400D02*
X88036000Y-129150000D01*
%TO.N,/AIN2*%
X45732500Y-147570000D02*
X46835700Y-146466800D01*
X46835700Y-146466800D02*
X68537010Y-146466800D01*
X68537010Y-146466800D02*
X71441410Y-149371200D01*
X71441410Y-149371200D02*
X74699011Y-149371200D01*
X74699011Y-149371200D02*
X79087400Y-144982811D01*
X79087400Y-144982811D02*
X79087400Y-135558600D01*
X79087400Y-135558600D02*
X88036000Y-126610000D01*
%TO.N,/PWMA*%
X45732500Y-145030000D02*
X46835700Y-143926800D01*
X46835700Y-143926800D02*
X66926800Y-143926800D01*
X66926800Y-143926800D02*
X71968000Y-148968000D01*
X71968000Y-148968000D02*
X74532000Y-148968000D01*
X78684200Y-133421800D02*
X88036000Y-124070000D01*
X74532000Y-148968000D02*
X78684200Y-144815800D01*
X78684200Y-144815800D02*
X78684200Y-133421800D01*
%TO.N,Net-(A1-DAC2{slash}A0)*%
X66052500Y-167890000D02*
X66052500Y-167110160D01*
X73000000Y-159971250D02*
X73000000Y-153500000D01*
X73000000Y-153500000D02*
X73500000Y-153000000D01*
X73500000Y-153000000D02*
X75460000Y-153000000D01*
X75460000Y-153000000D02*
X76960000Y-154500000D01*
%TO.N,Net-(A1-I39{slash}A3)*%
X66052500Y-160270000D02*
X71500000Y-154822500D01*
X71500000Y-154822500D02*
X71500000Y-153289370D01*
X81870400Y-151790400D02*
X84580000Y-154500000D01*
X71500000Y-153289370D02*
X72998970Y-151790400D01*
X72998970Y-151790400D02*
X81870400Y-151790400D01*
%TO.N,Net-(A1-I34{slash}A2)*%
X66052500Y-162810000D02*
X72000000Y-156862500D01*
X72000000Y-156862500D02*
X72000000Y-153359580D01*
X72000000Y-153359580D02*
X73165980Y-152193600D01*
X73165980Y-152193600D02*
X79733600Y-152193600D01*
X79733600Y-152193600D02*
X82040000Y-154500000D01*
%TO.N,Net-(A1-DAC1{slash}A1)*%
X72500000Y-158902500D02*
X72500000Y-153429790D01*
X77596800Y-152596800D02*
X79500000Y-154500000D01*
X72500000Y-153429790D02*
X73332990Y-152596800D01*
X73332990Y-152596800D02*
X77596800Y-152596800D01*
%TD*%
%TA.AperFunction,Conductor*%
%TO.N,GND*%
G36*
X99994075Y-179257007D02*
G01*
X99960000Y-179384174D01*
X99960000Y-179515826D01*
X99994075Y-179642993D01*
X100026988Y-179700000D01*
X98353012Y-179700000D01*
X98385925Y-179642993D01*
X98420000Y-179515826D01*
X98420000Y-179384174D01*
X98385925Y-179257007D01*
X98353012Y-179200000D01*
X100026988Y-179200000D01*
X99994075Y-179257007D01*
G37*
%TD.AperFunction*%
%TA.AperFunction,Conductor*%
G36*
X105074075Y-141257007D02*
G01*
X105040000Y-141384174D01*
X105040000Y-141515826D01*
X105074075Y-141642993D01*
X105106988Y-141700000D01*
X103433012Y-141700000D01*
X103465925Y-141642993D01*
X103500000Y-141515826D01*
X103500000Y-141384174D01*
X103465925Y-141257007D01*
X103433012Y-141200000D01*
X105106988Y-141200000D01*
X105074075Y-141257007D01*
G37*
%TD.AperFunction*%
%TA.AperFunction,Conductor*%
G36*
X105554311Y-121519685D02*
G01*
X105574953Y-121536319D01*
X105581344Y-121542710D01*
X105581348Y-121542713D01*
X105730662Y-121634812D01*
X105730664Y-121634813D01*
X105730666Y-121634814D01*
X105897203Y-121689999D01*
X105999992Y-121700500D01*
X105999997Y-121700500D01*
X108000003Y-121700500D01*
X108000008Y-121700500D01*
X108102797Y-121689999D01*
X108269334Y-121634814D01*
X108418655Y-121542711D01*
X108425047Y-121536319D01*
X108486370Y-121502834D01*
X108512728Y-121500000D01*
X112376000Y-121500000D01*
X112443039Y-121519685D01*
X112488794Y-121572489D01*
X112500000Y-121624000D01*
X112500000Y-184784458D01*
X112480315Y-184851497D01*
X112427511Y-184897252D01*
X112375643Y-184908457D01*
X36124143Y-184688943D01*
X36057161Y-184669066D01*
X36011558Y-184616131D01*
X36000500Y-184564944D01*
X36000500Y-181722332D01*
X44902000Y-181722332D01*
X44902000Y-181997667D01*
X44902001Y-181997684D01*
X44937938Y-182270655D01*
X44937939Y-182270660D01*
X44937940Y-182270666D01*
X44973572Y-182403649D01*
X45009204Y-182536630D01*
X45114575Y-182791017D01*
X45114580Y-182791028D01*
X45197361Y-182934407D01*
X45252251Y-183029479D01*
X45252253Y-183029482D01*
X45252254Y-183029483D01*
X45419870Y-183247926D01*
X45419876Y-183247933D01*
X45614566Y-183442623D01*
X45614573Y-183442629D01*
X45650386Y-183470109D01*
X45833021Y-183610249D01*
X45986278Y-183698732D01*
X46071471Y-183747919D01*
X46071476Y-183747921D01*
X46071479Y-183747923D01*
X46325868Y-183853295D01*
X46591834Y-183924560D01*
X46864826Y-183960500D01*
X46864833Y-183960500D01*
X47140167Y-183960500D01*
X47140174Y-183960500D01*
X47413166Y-183924560D01*
X47679132Y-183853295D01*
X47933521Y-183747923D01*
X48171979Y-183610249D01*
X48390428Y-183442628D01*
X48585128Y-183247928D01*
X48752749Y-183029479D01*
X48890423Y-182791021D01*
X48995795Y-182536632D01*
X49067060Y-182270666D01*
X49103000Y-181997674D01*
X49103000Y-181722332D01*
X62682000Y-181722332D01*
X62682000Y-181997667D01*
X62682001Y-181997684D01*
X62717938Y-182270655D01*
X62717939Y-182270660D01*
X62717940Y-182270666D01*
X62753572Y-182403649D01*
X62789204Y-182536630D01*
X62894575Y-182791017D01*
X62894580Y-182791028D01*
X62977361Y-182934407D01*
X63032251Y-183029479D01*
X63032253Y-183029482D01*
X63032254Y-183029483D01*
X63199870Y-183247926D01*
X63199876Y-183247933D01*
X63394566Y-183442623D01*
X63394573Y-183442629D01*
X63430386Y-183470109D01*
X63613021Y-183610249D01*
X63766278Y-183698732D01*
X63851471Y-183747919D01*
X63851476Y-183747921D01*
X63851479Y-183747923D01*
X64105868Y-183853295D01*
X64371834Y-183924560D01*
X64644826Y-183960500D01*
X64644833Y-183960500D01*
X64920167Y-183960500D01*
X64920174Y-183960500D01*
X65193166Y-183924560D01*
X65459132Y-183853295D01*
X65713521Y-183747923D01*
X65951979Y-183610249D01*
X66170428Y-183442628D01*
X66365128Y-183247928D01*
X66532749Y-183029479D01*
X66670423Y-182791021D01*
X66775795Y-182536632D01*
X66830167Y-182333713D01*
X71672500Y-182333713D01*
X71672500Y-182546287D01*
X71705754Y-182756243D01*
X71717056Y-182791028D01*
X71771444Y-182958414D01*
X71867951Y-183147820D01*
X71992890Y-183319786D01*
X72143213Y-183470109D01*
X72315179Y-183595048D01*
X72315181Y-183595049D01*
X72315184Y-183595051D01*
X72504588Y-183691557D01*
X72706757Y-183757246D01*
X72916713Y-183790500D01*
X72916714Y-183790500D01*
X73129286Y-183790500D01*
X73129287Y-183790500D01*
X73339243Y-183757246D01*
X73541412Y-183691557D01*
X73730816Y-183595051D01*
X73752789Y-183579086D01*
X73902786Y-183470109D01*
X73902788Y-183470106D01*
X73902792Y-183470104D01*
X74053104Y-183319792D01*
X74053106Y-183319788D01*
X74053109Y-183319786D01*
X74178048Y-183147820D01*
X74178047Y-183147820D01*
X74178051Y-183147816D01*
X74274557Y-182958412D01*
X74340246Y-182756243D01*
X74373500Y-182546287D01*
X74373500Y-182333713D01*
X91992500Y-182333713D01*
X91992500Y-182546287D01*
X92025754Y-182756243D01*
X92037056Y-182791028D01*
X92091444Y-182958414D01*
X92187951Y-183147820D01*
X92312890Y-183319786D01*
X92463213Y-183470109D01*
X92635179Y-183595048D01*
X92635181Y-183595049D01*
X92635184Y-183595051D01*
X92824588Y-183691557D01*
X93026757Y-183757246D01*
X93236713Y-183790500D01*
X93236714Y-183790500D01*
X93449286Y-183790500D01*
X93449287Y-183790500D01*
X93659243Y-183757246D01*
X93861412Y-183691557D01*
X94050816Y-183595051D01*
X94072789Y-183579086D01*
X94222786Y-183470109D01*
X94222788Y-183470106D01*
X94222792Y-183470104D01*
X94373104Y-183319792D01*
X94373106Y-183319788D01*
X94373109Y-183319786D01*
X94498048Y-183147820D01*
X94498047Y-183147820D01*
X94498051Y-183147816D01*
X94594557Y-182958412D01*
X94660246Y-182756243D01*
X94693500Y-182546287D01*
X94693500Y-182333713D01*
X94660246Y-182123757D01*
X94594557Y-181921588D01*
X94498051Y-181732184D01*
X94498049Y-181732181D01*
X94498048Y-181732179D01*
X94373109Y-181560213D01*
X94222786Y-181409890D01*
X94050820Y-181284951D01*
X93861414Y-181188444D01*
X93861413Y-181188443D01*
X93861412Y-181188443D01*
X93659243Y-181122754D01*
X93659241Y-181122753D01*
X93659240Y-181122753D01*
X93497957Y-181097208D01*
X93449287Y-181089500D01*
X93236713Y-181089500D01*
X93188042Y-181097208D01*
X93026760Y-181122753D01*
X92824585Y-181188444D01*
X92635179Y-181284951D01*
X92463213Y-181409890D01*
X92312890Y-181560213D01*
X92187951Y-181732179D01*
X92091444Y-181921585D01*
X92025753Y-182123760D01*
X92002487Y-182270655D01*
X91992500Y-182333713D01*
X74373500Y-182333713D01*
X74340246Y-182123757D01*
X74274557Y-181921588D01*
X74178051Y-181732184D01*
X74178049Y-181732181D01*
X74178048Y-181732179D01*
X74053109Y-181560213D01*
X73902786Y-181409890D01*
X73730820Y-181284951D01*
X73541414Y-181188444D01*
X73541413Y-181188443D01*
X73541412Y-181188443D01*
X73339243Y-181122754D01*
X73339241Y-181122753D01*
X73339240Y-181122753D01*
X73177957Y-181097208D01*
X73129287Y-181089500D01*
X72916713Y-181089500D01*
X72868042Y-181097208D01*
X72706760Y-181122753D01*
X72504585Y-181188444D01*
X72315179Y-181284951D01*
X72143213Y-181409890D01*
X71992890Y-181560213D01*
X71867951Y-181732179D01*
X71771444Y-181921585D01*
X71705753Y-182123760D01*
X71682487Y-182270655D01*
X71672500Y-182333713D01*
X66830167Y-182333713D01*
X66847060Y-182270666D01*
X66883000Y-181997674D01*
X66883000Y-181722326D01*
X66847060Y-181449334D01*
X66775795Y-181183368D01*
X66670423Y-180928979D01*
X66670421Y-180928976D01*
X66670419Y-180928971D01*
X66621232Y-180843778D01*
X66532749Y-180690521D01*
X66365128Y-180472072D01*
X66365123Y-180472066D01*
X66170433Y-180277376D01*
X66170426Y-180277370D01*
X65951983Y-180109754D01*
X65951982Y-180109753D01*
X65951979Y-180109751D01*
X65856907Y-180054861D01*
X65713528Y-179972080D01*
X65713517Y-179972075D01*
X65459130Y-179866704D01*
X65326149Y-179831072D01*
X65193166Y-179795440D01*
X65193160Y-179795439D01*
X65193155Y-179795438D01*
X65011909Y-179771577D01*
X64920183Y-179759501D01*
X64920180Y-179759500D01*
X64920174Y-179759500D01*
X64644826Y-179759500D01*
X64644820Y-179759500D01*
X64644815Y-179759501D01*
X64371844Y-179795438D01*
X64371837Y-179795439D01*
X64371834Y-179795440D01*
X64315625Y-179810500D01*
X64105869Y-179866704D01*
X63851482Y-179972075D01*
X63851471Y-179972080D01*
X63613016Y-180109754D01*
X63394573Y-180277370D01*
X63394566Y-180277376D01*
X63199876Y-180472066D01*
X63199870Y-180472073D01*
X63032254Y-180690516D01*
X62894580Y-180928971D01*
X62894575Y-180928982D01*
X62789204Y-181183369D01*
X62717941Y-181449331D01*
X62717938Y-181449344D01*
X62682001Y-181722315D01*
X62682000Y-181722332D01*
X49103000Y-181722332D01*
X49103000Y-181722326D01*
X49067060Y-181449334D01*
X48995795Y-181183368D01*
X48890423Y-180928979D01*
X48890421Y-180928976D01*
X48890419Y-180928971D01*
X48841232Y-180843778D01*
X48752749Y-180690521D01*
X48585128Y-180472072D01*
X48585123Y-180472066D01*
X48390433Y-180277376D01*
X48390426Y-180277370D01*
X48171983Y-180109754D01*
X48171982Y-180109753D01*
X48171979Y-180109751D01*
X48076907Y-180054861D01*
X47933528Y-179972080D01*
X47933517Y-179972075D01*
X47679130Y-179866704D01*
X47546149Y-179831072D01*
X47413166Y-179795440D01*
X47413160Y-179795439D01*
X47413155Y-179795438D01*
X47140184Y-179759501D01*
X47140179Y-179759500D01*
X47140174Y-179759500D01*
X46864826Y-179759500D01*
X46864820Y-179759500D01*
X46864815Y-179759501D01*
X46591844Y-179795438D01*
X46591837Y-179795439D01*
X46591834Y-179795440D01*
X46535625Y-179810500D01*
X46325869Y-179866704D01*
X46071482Y-179972075D01*
X46071471Y-179972080D01*
X45833016Y-180109754D01*
X45614573Y-180277370D01*
X45614566Y-180277376D01*
X45419876Y-180472066D01*
X45419870Y-180472073D01*
X45252254Y-180690516D01*
X45114580Y-180928971D01*
X45114575Y-180928982D01*
X45009204Y-181183369D01*
X44937941Y-181449331D01*
X44937938Y-181449344D01*
X44902001Y-181722315D01*
X44902000Y-181722332D01*
X36000500Y-181722332D01*
X36000500Y-174878711D01*
X38149500Y-174878711D01*
X38149500Y-175121288D01*
X38181161Y-175361785D01*
X38243947Y-175596104D01*
X38334424Y-175814534D01*
X38336776Y-175820212D01*
X38458064Y-176030289D01*
X38458066Y-176030292D01*
X38458067Y-176030293D01*
X38605733Y-176222736D01*
X38605739Y-176222743D01*
X38777256Y-176394260D01*
X38777262Y-176394265D01*
X38969711Y-176541936D01*
X39179788Y-176663224D01*
X39304951Y-176715068D01*
X39403547Y-176755908D01*
X39403900Y-176756054D01*
X39638211Y-176818838D01*
X39818586Y-176842584D01*
X39878711Y-176850500D01*
X39878712Y-176850500D01*
X40121289Y-176850500D01*
X40169388Y-176844167D01*
X40361789Y-176818838D01*
X40596100Y-176756054D01*
X40820212Y-176663224D01*
X41030289Y-176541936D01*
X41222738Y-176394265D01*
X41394265Y-176222738D01*
X41541936Y-176030289D01*
X41663224Y-175820212D01*
X41756054Y-175596100D01*
X41818838Y-175361789D01*
X41850500Y-175121288D01*
X41850500Y-174878712D01*
X41818838Y-174638211D01*
X41756054Y-174403900D01*
X41663224Y-174179788D01*
X41541936Y-173969711D01*
X41424925Y-173817219D01*
X41394266Y-173777263D01*
X41394260Y-173777256D01*
X41222743Y-173605739D01*
X41222736Y-173605733D01*
X41030293Y-173458067D01*
X41030292Y-173458066D01*
X41030289Y-173458064D01*
X40820212Y-173336776D01*
X40820205Y-173336773D01*
X40596104Y-173243947D01*
X40361785Y-173181161D01*
X40121289Y-173149500D01*
X40121288Y-173149500D01*
X39878712Y-173149500D01*
X39878711Y-173149500D01*
X39638214Y-173181161D01*
X39403895Y-173243947D01*
X39179794Y-173336773D01*
X39179785Y-173336777D01*
X38969706Y-173458067D01*
X38777263Y-173605733D01*
X38777256Y-173605739D01*
X38605739Y-173777256D01*
X38605733Y-173777263D01*
X38458067Y-173969706D01*
X38336777Y-174179785D01*
X38336773Y-174179794D01*
X38243947Y-174403895D01*
X38181161Y-174638214D01*
X38149500Y-174878711D01*
X36000500Y-174878711D01*
X36000500Y-139124000D01*
X36020185Y-139056961D01*
X36072989Y-139011206D01*
X36124500Y-139000000D01*
X44371845Y-139000000D01*
X44438884Y-139019685D01*
X44484639Y-139072489D01*
X44494583Y-139141647D01*
X44472164Y-139196885D01*
X44420212Y-139268390D01*
X44327281Y-139450776D01*
X44264022Y-139645465D01*
X44232000Y-139847648D01*
X44232000Y-140052351D01*
X44264022Y-140254534D01*
X44327281Y-140449223D01*
X44380486Y-140553641D01*
X44407346Y-140606358D01*
X44420215Y-140631613D01*
X44540528Y-140797213D01*
X44685286Y-140941971D01*
X44833842Y-141049901D01*
X44850890Y-141062287D01*
X44942340Y-141108883D01*
X44943580Y-141109515D01*
X44994376Y-141157490D01*
X45011171Y-141225311D01*
X44988634Y-141291446D01*
X44943580Y-141330485D01*
X44850886Y-141377715D01*
X44685286Y-141498028D01*
X44540528Y-141642786D01*
X44420215Y-141808386D01*
X44327281Y-141990776D01*
X44264022Y-142185465D01*
X44232000Y-142387648D01*
X44232000Y-142592351D01*
X44264022Y-142794534D01*
X44327281Y-142989223D01*
X44362970Y-143059265D01*
X44416681Y-143164679D01*
X44420215Y-143171613D01*
X44540528Y-143337213D01*
X44685286Y-143481971D01*
X44840249Y-143594556D01*
X44850890Y-143602287D01*
X44942340Y-143648883D01*
X44943580Y-143649515D01*
X44994376Y-143697490D01*
X45011171Y-143765311D01*
X44988634Y-143831446D01*
X44943580Y-143870485D01*
X44850886Y-143917715D01*
X44685286Y-144038028D01*
X44540528Y-144182786D01*
X44420215Y-144348386D01*
X44327281Y-144530776D01*
X44264022Y-144725465D01*
X44232000Y-144927648D01*
X44232000Y-145132351D01*
X44264022Y-145334534D01*
X44327281Y-145529223D01*
X44420215Y-145711613D01*
X44540528Y-145877213D01*
X44685286Y-146021971D01*
X44840249Y-146134556D01*
X44850890Y-146142287D01*
X44942340Y-146188883D01*
X44943580Y-146189515D01*
X44994376Y-146237490D01*
X45011171Y-146305311D01*
X44988634Y-146371446D01*
X44943580Y-146410485D01*
X44850886Y-146457715D01*
X44685286Y-146578028D01*
X44540528Y-146722786D01*
X44420215Y-146888386D01*
X44327281Y-147070776D01*
X44264022Y-147265465D01*
X44232000Y-147467648D01*
X44232000Y-147672351D01*
X44264022Y-147874534D01*
X44327281Y-148069223D01*
X44420215Y-148251613D01*
X44540528Y-148417213D01*
X44685286Y-148561971D01*
X44840249Y-148674556D01*
X44850890Y-148682287D01*
X44942340Y-148728883D01*
X44943580Y-148729515D01*
X44994376Y-148777490D01*
X45011171Y-148845311D01*
X44988634Y-148911446D01*
X44943580Y-148950485D01*
X44850886Y-148997715D01*
X44685286Y-149118028D01*
X44540528Y-149262786D01*
X44420215Y-149428386D01*
X44327281Y-149610776D01*
X44264022Y-149805465D01*
X44232000Y-150007648D01*
X44232000Y-150212351D01*
X44264022Y-150414534D01*
X44327281Y-150609223D01*
X44420215Y-150791613D01*
X44540528Y-150957213D01*
X44685286Y-151101971D01*
X44840249Y-151214556D01*
X44850890Y-151222287D01*
X44924431Y-151259758D01*
X44943580Y-151269515D01*
X44994376Y-151317490D01*
X45011171Y-151385311D01*
X44988634Y-151451446D01*
X44943580Y-151490485D01*
X44850886Y-151537715D01*
X44685286Y-151658028D01*
X44540528Y-151802786D01*
X44420215Y-151968386D01*
X44327281Y-152150776D01*
X44264022Y-152345465D01*
X44232000Y-152547648D01*
X44232000Y-152752351D01*
X44264022Y-152954534D01*
X44327281Y-153149223D01*
X44420215Y-153331613D01*
X44540528Y-153497213D01*
X44685286Y-153641971D01*
X44828156Y-153745770D01*
X44850890Y-153762287D01*
X44938316Y-153806833D01*
X44943580Y-153809515D01*
X44994376Y-153857490D01*
X45011171Y-153925311D01*
X44988634Y-153991446D01*
X44943580Y-154030485D01*
X44850886Y-154077715D01*
X44685286Y-154198028D01*
X44540528Y-154342786D01*
X44420215Y-154508386D01*
X44327281Y-154690776D01*
X44264022Y-154885465D01*
X44232000Y-155087648D01*
X44232000Y-155292351D01*
X44264022Y-155494534D01*
X44327281Y-155689223D01*
X44385917Y-155804301D01*
X44414297Y-155860000D01*
X44420215Y-155871613D01*
X44540528Y-156037213D01*
X44685286Y-156181971D01*
X44840249Y-156294556D01*
X44850890Y-156302287D01*
X44942340Y-156348883D01*
X44943580Y-156349515D01*
X44994376Y-156397490D01*
X45011171Y-156465311D01*
X44988634Y-156531446D01*
X44943580Y-156570485D01*
X44850886Y-156617715D01*
X44685286Y-156738028D01*
X44540528Y-156882786D01*
X44420215Y-157048386D01*
X44327281Y-157230776D01*
X44264022Y-157425465D01*
X44232000Y-157627648D01*
X44232000Y-157832351D01*
X44264022Y-158034534D01*
X44327281Y-158229223D01*
X44420215Y-158411613D01*
X44540528Y-158577213D01*
X44685286Y-158721971D01*
X44840249Y-158834556D01*
X44850890Y-158842287D01*
X44942340Y-158888883D01*
X44943580Y-158889515D01*
X44994376Y-158937490D01*
X45011171Y-159005311D01*
X44988634Y-159071446D01*
X44943580Y-159110485D01*
X44850886Y-159157715D01*
X44685286Y-159278028D01*
X44540528Y-159422786D01*
X44420215Y-159588386D01*
X44327281Y-159770776D01*
X44264022Y-159965465D01*
X44232000Y-160167648D01*
X44232000Y-160372351D01*
X44264022Y-160574534D01*
X44327281Y-160769223D01*
X44420215Y-160951613D01*
X44540528Y-161117213D01*
X44685286Y-161261971D01*
X44840249Y-161374556D01*
X44850890Y-161382287D01*
X44942340Y-161428883D01*
X44943580Y-161429515D01*
X44994376Y-161477490D01*
X45011171Y-161545311D01*
X44988634Y-161611446D01*
X44943580Y-161650485D01*
X44850886Y-161697715D01*
X44685286Y-161818028D01*
X44540528Y-161962786D01*
X44420215Y-162128386D01*
X44327281Y-162310776D01*
X44264022Y-162505465D01*
X44232000Y-162707648D01*
X44232000Y-162912351D01*
X44264022Y-163114534D01*
X44327281Y-163309223D01*
X44420215Y-163491613D01*
X44540528Y-163657213D01*
X44685286Y-163801971D01*
X44840249Y-163914556D01*
X44850890Y-163922287D01*
X44942340Y-163968883D01*
X44943580Y-163969515D01*
X44994376Y-164017490D01*
X45011171Y-164085311D01*
X44988634Y-164151446D01*
X44943580Y-164190485D01*
X44850886Y-164237715D01*
X44685286Y-164358028D01*
X44540528Y-164502786D01*
X44420215Y-164668386D01*
X44327281Y-164850776D01*
X44264022Y-165045465D01*
X44232000Y-165247648D01*
X44232000Y-165452351D01*
X44264022Y-165654534D01*
X44327281Y-165849223D01*
X44420215Y-166031613D01*
X44540528Y-166197213D01*
X44685286Y-166341971D01*
X44840249Y-166454556D01*
X44850890Y-166462287D01*
X44942340Y-166508883D01*
X44943580Y-166509515D01*
X44994376Y-166557490D01*
X45011171Y-166625311D01*
X44988634Y-166691446D01*
X44943580Y-166730485D01*
X44850886Y-166777715D01*
X44685286Y-166898028D01*
X44540528Y-167042786D01*
X44420215Y-167208386D01*
X44327281Y-167390776D01*
X44264022Y-167585465D01*
X44232000Y-167787648D01*
X44232000Y-167992351D01*
X44264022Y-168194534D01*
X44327281Y-168389223D01*
X44420215Y-168571613D01*
X44540528Y-168737213D01*
X44685286Y-168881971D01*
X44840249Y-168994556D01*
X44850890Y-169002287D01*
X44944130Y-169049795D01*
X45033276Y-169095218D01*
X45033278Y-169095218D01*
X45033281Y-169095220D01*
X45137637Y-169129127D01*
X45227965Y-169158477D01*
X45272881Y-169165591D01*
X45430148Y-169190500D01*
X45430149Y-169190500D01*
X46634851Y-169190500D01*
X46634852Y-169190500D01*
X46837034Y-169158477D01*
X47031719Y-169095220D01*
X47214110Y-169002287D01*
X47307090Y-168934732D01*
X47379713Y-168881971D01*
X47379715Y-168881968D01*
X47379719Y-168881966D01*
X47524466Y-168737219D01*
X47524468Y-168737215D01*
X47524471Y-168737213D01*
X47577232Y-168664590D01*
X47644787Y-168571610D01*
X47737720Y-168389219D01*
X47800977Y-168194534D01*
X47833000Y-167992352D01*
X47833000Y-167787648D01*
X47800977Y-167585466D01*
X47800976Y-167585464D01*
X47737718Y-167390776D01*
X47688511Y-167294203D01*
X47644787Y-167208390D01*
X47637056Y-167197749D01*
X47524471Y-167042786D01*
X47379713Y-166898028D01*
X47214114Y-166777715D01*
X47207506Y-166774348D01*
X47121417Y-166730483D01*
X47070623Y-166682511D01*
X47053828Y-166614690D01*
X47076365Y-166548555D01*
X47121417Y-166509516D01*
X47214110Y-166462287D01*
X47235270Y-166446913D01*
X47379713Y-166341971D01*
X47379715Y-166341968D01*
X47379719Y-166341966D01*
X47524466Y-166197219D01*
X47524468Y-166197215D01*
X47524471Y-166197213D01*
X47577232Y-166124590D01*
X47644787Y-166031610D01*
X47737720Y-165849219D01*
X47800977Y-165654534D01*
X47833000Y-165452352D01*
X47833000Y-165247648D01*
X47800977Y-165045466D01*
X47800976Y-165045464D01*
X47737718Y-164850776D01*
X47688511Y-164754203D01*
X47644787Y-164668390D01*
X47637056Y-164657749D01*
X47524471Y-164502786D01*
X47379713Y-164358028D01*
X47214114Y-164237715D01*
X47207506Y-164234348D01*
X47121417Y-164190483D01*
X47070623Y-164142511D01*
X47053828Y-164074690D01*
X47076365Y-164008555D01*
X47121417Y-163969516D01*
X47214110Y-163922287D01*
X47235270Y-163906913D01*
X47379713Y-163801971D01*
X47379715Y-163801968D01*
X47379719Y-163801966D01*
X47524466Y-163657219D01*
X47524468Y-163657215D01*
X47524471Y-163657213D01*
X47577232Y-163584590D01*
X47644787Y-163491610D01*
X47737720Y-163309219D01*
X47800977Y-163114534D01*
X47833000Y-162912352D01*
X47833000Y-162707648D01*
X47800977Y-162505466D01*
X47800976Y-162505464D01*
X47737718Y-162310776D01*
X47694668Y-162226287D01*
X47644787Y-162128390D01*
X47601930Y-162069402D01*
X47524471Y-161962786D01*
X47379713Y-161818028D01*
X47214114Y-161697715D01*
X47207506Y-161694348D01*
X47121417Y-161650483D01*
X47070623Y-161602511D01*
X47053828Y-161534690D01*
X47076365Y-161468555D01*
X47121417Y-161429516D01*
X47214110Y-161382287D01*
X47235270Y-161366913D01*
X47379713Y-161261971D01*
X47379715Y-161261968D01*
X47379719Y-161261966D01*
X47524466Y-161117219D01*
X47524468Y-161117215D01*
X47524471Y-161117213D01*
X47635094Y-160964951D01*
X47644787Y-160951610D01*
X47737720Y-160769219D01*
X47800977Y-160574534D01*
X47833000Y-160372352D01*
X47833000Y-160167648D01*
X47800977Y-159965466D01*
X47800976Y-159965462D01*
X47800976Y-159965461D01*
X47789330Y-159929618D01*
X47787335Y-159859777D01*
X47823415Y-159799944D01*
X47886116Y-159769116D01*
X47907261Y-159767300D01*
X63877739Y-159767300D01*
X63944778Y-159786985D01*
X63990533Y-159839789D01*
X64000477Y-159908947D01*
X63995670Y-159929618D01*
X63984023Y-159965461D01*
X63984023Y-159965464D01*
X63952000Y-160167648D01*
X63952000Y-160372351D01*
X63984022Y-160574534D01*
X64047281Y-160769223D01*
X64140215Y-160951613D01*
X64260528Y-161117213D01*
X64405286Y-161261971D01*
X64560249Y-161374556D01*
X64570890Y-161382287D01*
X64662340Y-161428883D01*
X64663580Y-161429515D01*
X64714376Y-161477490D01*
X64731171Y-161545311D01*
X64708634Y-161611446D01*
X64663580Y-161650485D01*
X64570886Y-161697715D01*
X64405286Y-161818028D01*
X64260528Y-161962786D01*
X64140215Y-162128386D01*
X64047281Y-162310776D01*
X63984022Y-162505465D01*
X63952000Y-162707648D01*
X63952000Y-162912351D01*
X63984022Y-163114534D01*
X64047281Y-163309223D01*
X64140215Y-163491613D01*
X64260528Y-163657213D01*
X64405286Y-163801971D01*
X64560249Y-163914556D01*
X64570890Y-163922287D01*
X64662340Y-163968883D01*
X64663580Y-163969515D01*
X64714376Y-164017490D01*
X64731171Y-164085311D01*
X64708634Y-164151446D01*
X64663580Y-164190485D01*
X64570886Y-164237715D01*
X64405286Y-164358028D01*
X64260528Y-164502786D01*
X64140215Y-164668386D01*
X64047281Y-164850776D01*
X63984022Y-165045465D01*
X63952000Y-165247648D01*
X63952000Y-165452351D01*
X63984022Y-165654534D01*
X64047281Y-165849223D01*
X64140215Y-166031613D01*
X64260528Y-166197213D01*
X64405286Y-166341971D01*
X64560249Y-166454556D01*
X64570890Y-166462287D01*
X64662340Y-166508883D01*
X64663580Y-166509515D01*
X64714376Y-166557490D01*
X64731171Y-166625311D01*
X64708634Y-166691446D01*
X64663580Y-166730485D01*
X64570886Y-166777715D01*
X64405286Y-166898028D01*
X64260528Y-167042786D01*
X64140215Y-167208386D01*
X64047281Y-167390776D01*
X63984022Y-167585465D01*
X63952000Y-167787648D01*
X63952000Y-167992351D01*
X63984022Y-168194534D01*
X64047281Y-168389223D01*
X64140215Y-168571613D01*
X64260528Y-168737213D01*
X64405286Y-168881971D01*
X64560249Y-168994556D01*
X64570890Y-169002287D01*
X64642924Y-169038990D01*
X64664129Y-169049795D01*
X64714925Y-169097770D01*
X64731720Y-169165591D01*
X64709182Y-169231726D01*
X64664129Y-169270765D01*
X64571150Y-169318140D01*
X64405605Y-169438417D01*
X64405604Y-169438417D01*
X64260917Y-169583104D01*
X64260917Y-169583105D01*
X64140640Y-169748650D01*
X64047744Y-169930970D01*
X63984509Y-170125586D01*
X63975891Y-170180000D01*
X65619488Y-170180000D01*
X65586575Y-170237007D01*
X65552500Y-170364174D01*
X65552500Y-170495826D01*
X65586575Y-170622993D01*
X65619488Y-170680000D01*
X63975891Y-170680000D01*
X63984509Y-170734413D01*
X64047744Y-170929029D01*
X64140640Y-171111349D01*
X64260917Y-171276894D01*
X64260917Y-171276895D01*
X64405604Y-171421582D01*
X64571152Y-171541861D01*
X64664128Y-171589234D01*
X64714925Y-171637208D01*
X64731720Y-171705029D01*
X64709183Y-171771164D01*
X64664130Y-171810203D01*
X64570888Y-171857713D01*
X64405286Y-171978028D01*
X64260528Y-172122786D01*
X64140215Y-172288386D01*
X64047281Y-172470776D01*
X63984022Y-172665465D01*
X63952000Y-172867648D01*
X63952000Y-173072351D01*
X63984022Y-173274534D01*
X64047281Y-173469223D01*
X64111191Y-173594653D01*
X64116838Y-173605735D01*
X64140215Y-173651613D01*
X64260528Y-173817213D01*
X64405286Y-173961971D01*
X64560249Y-174074556D01*
X64570890Y-174082287D01*
X64662340Y-174128883D01*
X64663580Y-174129515D01*
X64714376Y-174177490D01*
X64731171Y-174245311D01*
X64708634Y-174311446D01*
X64663580Y-174350485D01*
X64570886Y-174397715D01*
X64405286Y-174518028D01*
X64260528Y-174662786D01*
X64140215Y-174828386D01*
X64047281Y-175010776D01*
X63984022Y-175205465D01*
X63952000Y-175407648D01*
X63952000Y-175612351D01*
X63984022Y-175814534D01*
X64047281Y-176009223D01*
X64140215Y-176191613D01*
X64260528Y-176357213D01*
X64405284Y-176501969D01*
X64441568Y-176528330D01*
X64484235Y-176583659D01*
X64490215Y-176653273D01*
X64457609Y-176715068D01*
X64396771Y-176749426D01*
X64381940Y-176751938D01*
X64345019Y-176755907D01*
X64210171Y-176806202D01*
X64210164Y-176806206D01*
X64094955Y-176892452D01*
X64094952Y-176892455D01*
X64008706Y-177007664D01*
X64008702Y-177007671D01*
X63958408Y-177142517D01*
X63952001Y-177202116D01*
X63952001Y-177202123D01*
X63952000Y-177202135D01*
X63952000Y-178897870D01*
X63952001Y-178897876D01*
X63958408Y-178957483D01*
X64008702Y-179092328D01*
X64008706Y-179092335D01*
X64094952Y-179207544D01*
X64094955Y-179207547D01*
X64210164Y-179293793D01*
X64210171Y-179293797D01*
X64345017Y-179344091D01*
X64345016Y-179344091D01*
X64351944Y-179344835D01*
X64404627Y-179350500D01*
X67100372Y-179350499D01*
X67159983Y-179344091D01*
X67294831Y-179293796D01*
X67410046Y-179207546D01*
X67496296Y-179092331D01*
X67546591Y-178957483D01*
X67553000Y-178897873D01*
X67553000Y-178552155D01*
X96570000Y-178552155D01*
X96570000Y-179200000D01*
X97486988Y-179200000D01*
X97454075Y-179257007D01*
X97420000Y-179384174D01*
X97420000Y-179515826D01*
X97454075Y-179642993D01*
X97486988Y-179700000D01*
X96570000Y-179700000D01*
X96570000Y-180347844D01*
X96576401Y-180407372D01*
X96576403Y-180407379D01*
X96626645Y-180542086D01*
X96626649Y-180542093D01*
X96712809Y-180657187D01*
X96712812Y-180657190D01*
X96827906Y-180743350D01*
X96827913Y-180743354D01*
X96962620Y-180793596D01*
X96962627Y-180793598D01*
X97022155Y-180799999D01*
X97022172Y-180800000D01*
X97670000Y-180800000D01*
X97670000Y-179883012D01*
X97727007Y-179915925D01*
X97854174Y-179950000D01*
X97985826Y-179950000D01*
X98112993Y-179915925D01*
X98170000Y-179883012D01*
X98170000Y-180800000D01*
X98817828Y-180800000D01*
X98817844Y-180799999D01*
X98877372Y-180793598D01*
X98877379Y-180793596D01*
X99012086Y-180743354D01*
X99012089Y-180743352D01*
X99115688Y-180665798D01*
X99181152Y-180641380D01*
X99249426Y-180656231D01*
X99264312Y-180665798D01*
X99367910Y-180743352D01*
X99367913Y-180743354D01*
X99502620Y-180793596D01*
X99502627Y-180793598D01*
X99562155Y-180799999D01*
X99562172Y-180800000D01*
X100210000Y-180800000D01*
X100210000Y-179883012D01*
X100267007Y-179915925D01*
X100394174Y-179950000D01*
X100525826Y-179950000D01*
X100652993Y-179915925D01*
X100710000Y-179883012D01*
X100710000Y-180800000D01*
X101357828Y-180800000D01*
X101357844Y-180799999D01*
X101417372Y-180793598D01*
X101417379Y-180793596D01*
X101552086Y-180743354D01*
X101552093Y-180743350D01*
X101667187Y-180657190D01*
X101667190Y-180657187D01*
X101753350Y-180542093D01*
X101753354Y-180542086D01*
X101802422Y-180410529D01*
X101844293Y-180354595D01*
X101909757Y-180330178D01*
X101978030Y-180345030D01*
X102006285Y-180366181D01*
X102120213Y-180480109D01*
X102292179Y-180605048D01*
X102292181Y-180605049D01*
X102292184Y-180605051D01*
X102481588Y-180701557D01*
X102683757Y-180767246D01*
X102893713Y-180800500D01*
X102893714Y-180800500D01*
X103106286Y-180800500D01*
X103106287Y-180800500D01*
X103316243Y-180767246D01*
X103518412Y-180701557D01*
X103707816Y-180605051D01*
X103794471Y-180542093D01*
X103879786Y-180480109D01*
X103879788Y-180480106D01*
X103879792Y-180480104D01*
X104030104Y-180329792D01*
X104030106Y-180329788D01*
X104030109Y-180329786D01*
X104155048Y-180157820D01*
X104155047Y-180157820D01*
X104155051Y-180157816D01*
X104159514Y-180149054D01*
X104207488Y-180098259D01*
X104275308Y-180081463D01*
X104341444Y-180103999D01*
X104380486Y-180149056D01*
X104384951Y-180157820D01*
X104509890Y-180329786D01*
X104660213Y-180480109D01*
X104832179Y-180605048D01*
X104832181Y-180605049D01*
X104832184Y-180605051D01*
X105021588Y-180701557D01*
X105223757Y-180767246D01*
X105433713Y-180800500D01*
X105433714Y-180800500D01*
X105646286Y-180800500D01*
X105646287Y-180800500D01*
X105856243Y-180767246D01*
X106058412Y-180701557D01*
X106247816Y-180605051D01*
X106334471Y-180542093D01*
X106419786Y-180480109D01*
X106419788Y-180480106D01*
X106419792Y-180480104D01*
X106570104Y-180329792D01*
X106570106Y-180329788D01*
X106570109Y-180329786D01*
X106695048Y-180157820D01*
X106695047Y-180157820D01*
X106695051Y-180157816D01*
X106791557Y-179968412D01*
X106857246Y-179766243D01*
X106890500Y-179556287D01*
X106890500Y-179343713D01*
X106857246Y-179133757D01*
X106791557Y-178931588D01*
X106695051Y-178742184D01*
X106695049Y-178742181D01*
X106695048Y-178742179D01*
X106570109Y-178570213D01*
X106419786Y-178419890D01*
X106247820Y-178294951D01*
X106058414Y-178198444D01*
X106058413Y-178198443D01*
X106058412Y-178198443D01*
X105856243Y-178132754D01*
X105856241Y-178132753D01*
X105856240Y-178132753D01*
X105694957Y-178107208D01*
X105646287Y-178099500D01*
X105433713Y-178099500D01*
X105385042Y-178107208D01*
X105223760Y-178132753D01*
X105021585Y-178198444D01*
X104832179Y-178294951D01*
X104660213Y-178419890D01*
X104509890Y-178570213D01*
X104384949Y-178742182D01*
X104380484Y-178750946D01*
X104332509Y-178801742D01*
X104264688Y-178818536D01*
X104198553Y-178795998D01*
X104159516Y-178750946D01*
X104155050Y-178742182D01*
X104030109Y-178570213D01*
X103879786Y-178419890D01*
X103707820Y-178294951D01*
X103518414Y-178198444D01*
X103518413Y-178198443D01*
X103518412Y-178198443D01*
X103316243Y-178132754D01*
X103316241Y-178132753D01*
X103316240Y-178132753D01*
X103154957Y-178107208D01*
X103106287Y-178099500D01*
X102893713Y-178099500D01*
X102845042Y-178107208D01*
X102683760Y-178132753D01*
X102481585Y-178198444D01*
X102292179Y-178294951D01*
X102120215Y-178419889D01*
X102006285Y-178533819D01*
X101944962Y-178567303D01*
X101875270Y-178562319D01*
X101819337Y-178520447D01*
X101802422Y-178489470D01*
X101753354Y-178357913D01*
X101753350Y-178357906D01*
X101667190Y-178242812D01*
X101667187Y-178242809D01*
X101552093Y-178156649D01*
X101552086Y-178156645D01*
X101417379Y-178106403D01*
X101417372Y-178106401D01*
X101357844Y-178100000D01*
X100710000Y-178100000D01*
X100710000Y-179016988D01*
X100652993Y-178984075D01*
X100525826Y-178950000D01*
X100394174Y-178950000D01*
X100267007Y-178984075D01*
X100210000Y-179016988D01*
X100210000Y-178100000D01*
X99562155Y-178100000D01*
X99502627Y-178106401D01*
X99502620Y-178106403D01*
X99367913Y-178156645D01*
X99367911Y-178156647D01*
X99264311Y-178234202D01*
X99198847Y-178258619D01*
X99130574Y-178243768D01*
X99115689Y-178234202D01*
X99012088Y-178156647D01*
X99012086Y-178156645D01*
X98877379Y-178106403D01*
X98877372Y-178106401D01*
X98817844Y-178100000D01*
X98170000Y-178100000D01*
X98170000Y-179016988D01*
X98112993Y-178984075D01*
X97985826Y-178950000D01*
X97854174Y-178950000D01*
X97727007Y-178984075D01*
X97670000Y-179016988D01*
X97670000Y-178100000D01*
X97022155Y-178100000D01*
X96962627Y-178106401D01*
X96962620Y-178106403D01*
X96827913Y-178156645D01*
X96827906Y-178156649D01*
X96712812Y-178242809D01*
X96712809Y-178242812D01*
X96626649Y-178357906D01*
X96626645Y-178357913D01*
X96576403Y-178492620D01*
X96576401Y-178492627D01*
X96570000Y-178552155D01*
X67553000Y-178552155D01*
X67552999Y-177202128D01*
X67546591Y-177142517D01*
X67496296Y-177007669D01*
X67496295Y-177007668D01*
X67496293Y-177007664D01*
X67410047Y-176892455D01*
X67410044Y-176892452D01*
X67294835Y-176806206D01*
X67294828Y-176806202D01*
X67159982Y-176755908D01*
X67159983Y-176755908D01*
X67123060Y-176751939D01*
X67058509Y-176725201D01*
X67018660Y-176667809D01*
X67016167Y-176597984D01*
X67051819Y-176537895D01*
X67063430Y-176528331D01*
X67099719Y-176501966D01*
X67244466Y-176357219D01*
X67244468Y-176357215D01*
X67244471Y-176357213D01*
X67297232Y-176284590D01*
X67364787Y-176191610D01*
X67457720Y-176009219D01*
X67520977Y-175814534D01*
X67553000Y-175612352D01*
X67553000Y-175407648D01*
X67520977Y-175205466D01*
X67457720Y-175010781D01*
X67457718Y-175010778D01*
X67457718Y-175010776D01*
X67390427Y-174878712D01*
X67364787Y-174828390D01*
X67357056Y-174817749D01*
X67244471Y-174662786D01*
X67099713Y-174518028D01*
X66934114Y-174397715D01*
X66927506Y-174394348D01*
X66841417Y-174350483D01*
X66790623Y-174302511D01*
X66773828Y-174234690D01*
X66796365Y-174168555D01*
X66841417Y-174129516D01*
X66934110Y-174082287D01*
X66955270Y-174066913D01*
X67099713Y-173961971D01*
X67099715Y-173961968D01*
X67099719Y-173961966D01*
X67244466Y-173817219D01*
X67244468Y-173817215D01*
X67244471Y-173817213D01*
X67297232Y-173744590D01*
X67364787Y-173651610D01*
X67457720Y-173469219D01*
X67520977Y-173274534D01*
X67553000Y-173072352D01*
X67553000Y-172867648D01*
X67520977Y-172665466D01*
X67457720Y-172470781D01*
X67457718Y-172470778D01*
X67457718Y-172470776D01*
X67424003Y-172404607D01*
X67364787Y-172288390D01*
X67357056Y-172277749D01*
X67244471Y-172122786D01*
X67099713Y-171978028D01*
X66934111Y-171857713D01*
X66840869Y-171810203D01*
X66790074Y-171762229D01*
X66773279Y-171694407D01*
X66795817Y-171628273D01*
X66840871Y-171589234D01*
X66933847Y-171541861D01*
X67099394Y-171421582D01*
X67099395Y-171421582D01*
X67244082Y-171276895D01*
X67244082Y-171276894D01*
X67364359Y-171111349D01*
X67457255Y-170929029D01*
X67520490Y-170734413D01*
X67529109Y-170680000D01*
X66485512Y-170680000D01*
X66518425Y-170622993D01*
X66552500Y-170495826D01*
X66552500Y-170364174D01*
X66518425Y-170237007D01*
X66485512Y-170180000D01*
X67529109Y-170180000D01*
X67520490Y-170125586D01*
X67457255Y-169930970D01*
X67364359Y-169748650D01*
X67244082Y-169583105D01*
X67244082Y-169583104D01*
X67099395Y-169438417D01*
X66933849Y-169318140D01*
X66840870Y-169270765D01*
X66790074Y-169222790D01*
X66773279Y-169154969D01*
X66795816Y-169088835D01*
X66840870Y-169049795D01*
X66934110Y-169002287D01*
X66955270Y-168986913D01*
X67099713Y-168881971D01*
X67099715Y-168881968D01*
X67099719Y-168881966D01*
X67244466Y-168737219D01*
X67244468Y-168737215D01*
X67244471Y-168737213D01*
X67297232Y-168664590D01*
X67364787Y-168571610D01*
X67457720Y-168389219D01*
X67520977Y-168194534D01*
X67553000Y-167992352D01*
X67553000Y-167787648D01*
X67520977Y-167585466D01*
X67520976Y-167585462D01*
X67520976Y-167585461D01*
X67467280Y-167420202D01*
X67465285Y-167350361D01*
X67497528Y-167294205D01*
X71805673Y-162986060D01*
X71866994Y-162952577D01*
X71936686Y-162957561D01*
X71988992Y-162996718D01*
X71989732Y-162996087D01*
X71992538Y-162999372D01*
X71992619Y-162999433D01*
X71992803Y-162999683D01*
X71992898Y-162999794D01*
X72143213Y-163150109D01*
X72315179Y-163275048D01*
X72315181Y-163275049D01*
X72315184Y-163275051D01*
X72504588Y-163371557D01*
X72706757Y-163437246D01*
X72916713Y-163470500D01*
X72916714Y-163470500D01*
X73129286Y-163470500D01*
X73129287Y-163470500D01*
X73339243Y-163437246D01*
X73541412Y-163371557D01*
X73730816Y-163275051D01*
X73752789Y-163259086D01*
X73902786Y-163150109D01*
X73902788Y-163150106D01*
X73902792Y-163150104D01*
X74053104Y-162999792D01*
X74053106Y-162999788D01*
X74053109Y-162999786D01*
X74178048Y-162827820D01*
X74178047Y-162827820D01*
X74178051Y-162827816D01*
X74274557Y-162638412D01*
X74340246Y-162436243D01*
X74373500Y-162226287D01*
X74373500Y-162013713D01*
X91992500Y-162013713D01*
X91992500Y-162226287D01*
X92025754Y-162436243D01*
X92048245Y-162505464D01*
X92091444Y-162638414D01*
X92187951Y-162827820D01*
X92312890Y-162999786D01*
X92463213Y-163150109D01*
X92635179Y-163275048D01*
X92635181Y-163275049D01*
X92635184Y-163275051D01*
X92824588Y-163371557D01*
X93026757Y-163437246D01*
X93236713Y-163470500D01*
X93236714Y-163470500D01*
X93449286Y-163470500D01*
X93449287Y-163470500D01*
X93659243Y-163437246D01*
X93861412Y-163371557D01*
X94050816Y-163275051D01*
X94072789Y-163259086D01*
X94222786Y-163150109D01*
X94222788Y-163150106D01*
X94222792Y-163150104D01*
X94373104Y-162999792D01*
X94373106Y-162999788D01*
X94373109Y-162999786D01*
X94498048Y-162827820D01*
X94498047Y-162827820D01*
X94498051Y-162827816D01*
X94594557Y-162638412D01*
X94660246Y-162436243D01*
X94693500Y-162226287D01*
X94693500Y-162013713D01*
X94660246Y-161803757D01*
X94594557Y-161601588D01*
X94498051Y-161412184D01*
X94498049Y-161412181D01*
X94498048Y-161412179D01*
X94373109Y-161240213D01*
X94222786Y-161089890D01*
X94050820Y-160964951D01*
X93861414Y-160868444D01*
X93861413Y-160868443D01*
X93861412Y-160868443D01*
X93659243Y-160802754D01*
X93659241Y-160802753D01*
X93659240Y-160802753D01*
X93497957Y-160777208D01*
X93449287Y-160769500D01*
X93236713Y-160769500D01*
X93188042Y-160777208D01*
X93026760Y-160802753D01*
X92824585Y-160868444D01*
X92635179Y-160964951D01*
X92463213Y-161089890D01*
X92312890Y-161240213D01*
X92187951Y-161412179D01*
X92091444Y-161601585D01*
X92025753Y-161803760D01*
X92000567Y-161962781D01*
X91992500Y-162013713D01*
X74373500Y-162013713D01*
X74340246Y-161803757D01*
X74274557Y-161601588D01*
X74178051Y-161412184D01*
X74178049Y-161412181D01*
X74178048Y-161412179D01*
X74053109Y-161240213D01*
X73902786Y-161089890D01*
X73730820Y-160964951D01*
X73541414Y-160868444D01*
X73541413Y-160868443D01*
X73541412Y-160868443D01*
X73339243Y-160802754D01*
X73339241Y-160802753D01*
X73302057Y-160796864D01*
X73238923Y-160766934D01*
X73201992Y-160707622D01*
X73202990Y-160637760D01*
X73233773Y-160586712D01*
X73480520Y-160339966D01*
X73559577Y-160203034D01*
X73600501Y-160050307D01*
X73600501Y-159892192D01*
X73600501Y-159884597D01*
X73600500Y-159884579D01*
X73600500Y-155927039D01*
X73620185Y-155860000D01*
X73672989Y-155814245D01*
X73742147Y-155804301D01*
X73786820Y-155819837D01*
X73793743Y-155823861D01*
X73793747Y-155823864D01*
X73926714Y-155878940D01*
X74010787Y-155889500D01*
X74829209Y-155889501D01*
X74913285Y-155878940D01*
X75046252Y-155823863D01*
X75113171Y-155771879D01*
X75602318Y-155282729D01*
X75663641Y-155249245D01*
X75733332Y-155254229D01*
X75777680Y-155282730D01*
X76266821Y-155771871D01*
X76266840Y-155771888D01*
X76333745Y-155823863D01*
X76333746Y-155823864D01*
X76387201Y-155846005D01*
X76466714Y-155878940D01*
X76550787Y-155889500D01*
X77369209Y-155889501D01*
X77453285Y-155878940D01*
X77586252Y-155823863D01*
X77653171Y-155771879D01*
X78142318Y-155282729D01*
X78203641Y-155249245D01*
X78273332Y-155254229D01*
X78317680Y-155282730D01*
X78806821Y-155771871D01*
X78806840Y-155771888D01*
X78873745Y-155823863D01*
X78873746Y-155823864D01*
X78927201Y-155846005D01*
X79006714Y-155878940D01*
X79090787Y-155889500D01*
X79909209Y-155889501D01*
X79993285Y-155878940D01*
X80126252Y-155823863D01*
X80193171Y-155771879D01*
X80682318Y-155282729D01*
X80743641Y-155249245D01*
X80813332Y-155254229D01*
X80857680Y-155282730D01*
X81346821Y-155771871D01*
X81346840Y-155771888D01*
X81413745Y-155823863D01*
X81413746Y-155823864D01*
X81467201Y-155846005D01*
X81546714Y-155878940D01*
X81630787Y-155889500D01*
X82449209Y-155889501D01*
X82533285Y-155878940D01*
X82666252Y-155823863D01*
X82733171Y-155771879D01*
X83222318Y-155282729D01*
X83283641Y-155249245D01*
X83353332Y-155254229D01*
X83397680Y-155282730D01*
X83886821Y-155771871D01*
X83886840Y-155771888D01*
X83953745Y-155823863D01*
X83953746Y-155823864D01*
X84007201Y-155846005D01*
X84086714Y-155878940D01*
X84170787Y-155889500D01*
X84989209Y-155889501D01*
X85073285Y-155878940D01*
X85206252Y-155823863D01*
X85273171Y-155771879D01*
X85762674Y-155282374D01*
X85823995Y-155248891D01*
X85893686Y-155253875D01*
X85938034Y-155282376D01*
X86427154Y-155771496D01*
X86427167Y-155771507D01*
X86494005Y-155823429D01*
X86626839Y-155878450D01*
X86710825Y-155888999D01*
X86869999Y-155888999D01*
X86870000Y-155888998D01*
X86870000Y-154942251D01*
X86923919Y-154973381D01*
X87053120Y-155008000D01*
X87186880Y-155008000D01*
X87316081Y-154973381D01*
X87370000Y-154942251D01*
X87370000Y-155888999D01*
X87529170Y-155888999D01*
X87613160Y-155878451D01*
X87745993Y-155823429D01*
X87812840Y-155771500D01*
X87812846Y-155771495D01*
X88301965Y-155282376D01*
X88363288Y-155248891D01*
X88432979Y-155253875D01*
X88477324Y-155282374D01*
X88689485Y-155494534D01*
X88966821Y-155771871D01*
X88966840Y-155771888D01*
X89033745Y-155823863D01*
X89033746Y-155823864D01*
X89087201Y-155846005D01*
X89166714Y-155878940D01*
X89250787Y-155889500D01*
X90069209Y-155889501D01*
X90153285Y-155878940D01*
X90286252Y-155823863D01*
X90353171Y-155771879D01*
X90842318Y-155282729D01*
X90903641Y-155249245D01*
X90973332Y-155254229D01*
X91017680Y-155282730D01*
X91506821Y-155771871D01*
X91506840Y-155771888D01*
X91573745Y-155823863D01*
X91573746Y-155823864D01*
X91627201Y-155846005D01*
X91706714Y-155878940D01*
X91790787Y-155889500D01*
X92609209Y-155889501D01*
X92693285Y-155878940D01*
X92826252Y-155823863D01*
X92893171Y-155771879D01*
X93471882Y-155193167D01*
X93523864Y-155126253D01*
X93578940Y-154993286D01*
X93589500Y-154909213D01*
X93589501Y-154090791D01*
X93578940Y-154006715D01*
X93523863Y-153873748D01*
X93471879Y-153806829D01*
X93307016Y-153641966D01*
X92893178Y-153228128D01*
X92893159Y-153228111D01*
X92826254Y-153176136D01*
X92826253Y-153176135D01*
X92693289Y-153121061D01*
X92693287Y-153121060D01*
X92693286Y-153121060D01*
X92693285Y-153121059D01*
X92693282Y-153121059D01*
X92609216Y-153110500D01*
X92609209Y-153110499D01*
X91790789Y-153110499D01*
X91706717Y-153121059D01*
X91706713Y-153121060D01*
X91573748Y-153176136D01*
X91506829Y-153228121D01*
X91506823Y-153228126D01*
X91017681Y-153717269D01*
X90956358Y-153750754D01*
X90886666Y-153745770D01*
X90842319Y-153717269D01*
X90353178Y-153228128D01*
X90353159Y-153228111D01*
X90286254Y-153176136D01*
X90286253Y-153176135D01*
X90153289Y-153121061D01*
X90153287Y-153121060D01*
X90153286Y-153121060D01*
X90153285Y-153121059D01*
X90153282Y-153121059D01*
X90069216Y-153110500D01*
X90069209Y-153110499D01*
X89250789Y-153110499D01*
X89166717Y-153121059D01*
X89166713Y-153121060D01*
X89033748Y-153176136D01*
X88966829Y-153228121D01*
X88966823Y-153228126D01*
X88477327Y-153717623D01*
X88416004Y-153751108D01*
X88346312Y-153746124D01*
X88301965Y-153717623D01*
X87812845Y-153228503D01*
X87812832Y-153228492D01*
X87745994Y-153176570D01*
X87613160Y-153121549D01*
X87529177Y-153111000D01*
X87370000Y-153111000D01*
X87370000Y-154057748D01*
X87316081Y-154026619D01*
X87186880Y-153992000D01*
X87053120Y-153992000D01*
X86923919Y-154026619D01*
X86870000Y-154057748D01*
X86870000Y-153111000D01*
X86710830Y-153111000D01*
X86626839Y-153121548D01*
X86494006Y-153176570D01*
X86427159Y-153228499D01*
X86427152Y-153228505D01*
X85938034Y-153717623D01*
X85876711Y-153751108D01*
X85807019Y-153746124D01*
X85762674Y-153717624D01*
X85538361Y-153493312D01*
X85273178Y-153228128D01*
X85273159Y-153228111D01*
X85206254Y-153176136D01*
X85206253Y-153176135D01*
X85073289Y-153121061D01*
X85073287Y-153121060D01*
X85073286Y-153121060D01*
X85073285Y-153121059D01*
X85073282Y-153121059D01*
X84989216Y-153110500D01*
X84989209Y-153110499D01*
X84170782Y-153110499D01*
X84114575Y-153117559D01*
X84045606Y-153106383D01*
X84011442Y-153082207D01*
X82357990Y-151428755D01*
X82357988Y-151428752D01*
X82239117Y-151309881D01*
X82239116Y-151309880D01*
X82152304Y-151259760D01*
X82152304Y-151259759D01*
X82152300Y-151259758D01*
X82102185Y-151230823D01*
X81949457Y-151189899D01*
X81791343Y-151189899D01*
X81783747Y-151189899D01*
X81783731Y-151189900D01*
X76958697Y-151189900D01*
X76891658Y-151170215D01*
X76845903Y-151117411D01*
X76835959Y-151048253D01*
X76864984Y-150984697D01*
X76871016Y-150978219D01*
X80176884Y-147672351D01*
X86386811Y-141462424D01*
X86448130Y-141428942D01*
X86517822Y-141433926D01*
X86573755Y-141475798D01*
X86598172Y-141541262D01*
X86596961Y-141569505D01*
X86592131Y-141600000D01*
X87602988Y-141600000D01*
X87570075Y-141657007D01*
X87536000Y-141784174D01*
X87536000Y-141915826D01*
X87570075Y-142042993D01*
X87602988Y-142100000D01*
X86592132Y-142100000D01*
X86606877Y-142193102D01*
X86678147Y-142412446D01*
X86782848Y-142617932D01*
X86918410Y-142804515D01*
X86918410Y-142804516D01*
X87081483Y-142967589D01*
X87152757Y-143019373D01*
X87195422Y-143074703D01*
X87201401Y-143144317D01*
X87168795Y-143206111D01*
X87152757Y-143220008D01*
X87081167Y-143272022D01*
X87081158Y-143272029D01*
X86918029Y-143435158D01*
X86918029Y-143435159D01*
X86918027Y-143435161D01*
X86859789Y-143515317D01*
X86782421Y-143621805D01*
X86677685Y-143827362D01*
X86606390Y-144046780D01*
X86570300Y-144274647D01*
X86570300Y-144505352D01*
X86606390Y-144733219D01*
X86644356Y-144850064D01*
X86677683Y-144952633D01*
X86677684Y-144952636D01*
X86677685Y-144952637D01*
X86769253Y-145132351D01*
X86782421Y-145158194D01*
X86918027Y-145344839D01*
X87081161Y-145507973D01*
X87089315Y-145513897D01*
X87152332Y-145559682D01*
X87194998Y-145615013D01*
X87200976Y-145684626D01*
X87168370Y-145746421D01*
X87152332Y-145760318D01*
X87081159Y-145812028D01*
X86918029Y-145975158D01*
X86918029Y-145975159D01*
X86918027Y-145975161D01*
X86861588Y-146052843D01*
X86782421Y-146161805D01*
X86677685Y-146367362D01*
X86606390Y-146586780D01*
X86570300Y-146814647D01*
X86570300Y-147045352D01*
X86606390Y-147273219D01*
X86634590Y-147360007D01*
X86677683Y-147492633D01*
X86782421Y-147698194D01*
X86918027Y-147884839D01*
X87081161Y-148047973D01*
X87267806Y-148183579D01*
X87473367Y-148288317D01*
X87650850Y-148345984D01*
X87692780Y-148359609D01*
X87806714Y-148377654D01*
X87920647Y-148395700D01*
X87920648Y-148395700D01*
X88151352Y-148395700D01*
X88151353Y-148395700D01*
X88379219Y-148359609D01*
X88598633Y-148288317D01*
X88804194Y-148183579D01*
X88990839Y-148047973D01*
X89153973Y-147884839D01*
X89289579Y-147698194D01*
X89394317Y-147492633D01*
X89465609Y-147273219D01*
X89501700Y-147045353D01*
X89501700Y-146814647D01*
X89465609Y-146586781D01*
X89394317Y-146367367D01*
X89289579Y-146161806D01*
X89153973Y-145975161D01*
X88990839Y-145812027D01*
X88919665Y-145760316D01*
X88877002Y-145704988D01*
X88871023Y-145635375D01*
X88903629Y-145573580D01*
X88919662Y-145559686D01*
X88990839Y-145507973D01*
X89153973Y-145344839D01*
X89289579Y-145158194D01*
X89394317Y-144952633D01*
X89465609Y-144733219D01*
X89501700Y-144505353D01*
X89501700Y-144274647D01*
X89489439Y-144197233D01*
X89465609Y-144046780D01*
X89451984Y-144004850D01*
X89394317Y-143827367D01*
X89289579Y-143621806D01*
X89153973Y-143435161D01*
X88990839Y-143272027D01*
X88919241Y-143220007D01*
X88876577Y-143164679D01*
X88870598Y-143095065D01*
X88903204Y-143033270D01*
X88919243Y-143019373D01*
X88990510Y-142967594D01*
X88990516Y-142967589D01*
X89153589Y-142804516D01*
X89153589Y-142804515D01*
X89289151Y-142617932D01*
X89393852Y-142412446D01*
X89465122Y-142193102D01*
X89479868Y-142100000D01*
X88469012Y-142100000D01*
X88501925Y-142042993D01*
X88536000Y-141915826D01*
X88536000Y-141784174D01*
X88501925Y-141657007D01*
X88469012Y-141600000D01*
X89479868Y-141600000D01*
X89465122Y-141506897D01*
X89393852Y-141287553D01*
X89289151Y-141082067D01*
X89153589Y-140895484D01*
X89153589Y-140895483D01*
X88990516Y-140732410D01*
X88919242Y-140680626D01*
X88902063Y-140658348D01*
X88882458Y-140638175D01*
X88881014Y-140631050D01*
X88876577Y-140625296D01*
X88874169Y-140597269D01*
X88868583Y-140569696D01*
X88871219Y-140562923D01*
X88870598Y-140555682D01*
X88872459Y-140552155D01*
X101650000Y-140552155D01*
X101650000Y-141200000D01*
X102566988Y-141200000D01*
X102534075Y-141257007D01*
X102500000Y-141384174D01*
X102500000Y-141515826D01*
X102534075Y-141642993D01*
X102566988Y-141700000D01*
X101650000Y-141700000D01*
X101650000Y-142347844D01*
X101656401Y-142407372D01*
X101656403Y-142407379D01*
X101706645Y-142542086D01*
X101706649Y-142542093D01*
X101792809Y-142657187D01*
X101792812Y-142657190D01*
X101907906Y-142743350D01*
X101907913Y-142743354D01*
X102042620Y-142793596D01*
X102042627Y-142793598D01*
X102102155Y-142799999D01*
X102102172Y-142800000D01*
X102750000Y-142800000D01*
X102750000Y-141883012D01*
X102807007Y-141915925D01*
X102934174Y-141950000D01*
X103065826Y-141950000D01*
X103192993Y-141915925D01*
X103250000Y-141883012D01*
X103250000Y-142800000D01*
X103897828Y-142800000D01*
X103897844Y-142799999D01*
X103957372Y-142793598D01*
X103957379Y-142793596D01*
X104092086Y-142743354D01*
X104092089Y-142743352D01*
X104195688Y-142665798D01*
X104261152Y-142641380D01*
X104329426Y-142656231D01*
X104344312Y-142665798D01*
X104447910Y-142743352D01*
X104447913Y-142743354D01*
X104582620Y-142793596D01*
X104582627Y-142793598D01*
X104642155Y-142799999D01*
X104642172Y-142800000D01*
X105290000Y-142800000D01*
X105290000Y-141883012D01*
X105347007Y-141915925D01*
X105474174Y-141950000D01*
X105605826Y-141950000D01*
X105732993Y-141915925D01*
X105790000Y-141883012D01*
X105790000Y-142800000D01*
X106437828Y-142800000D01*
X106437844Y-142799999D01*
X106497372Y-142793598D01*
X106497379Y-142793596D01*
X106632086Y-142743354D01*
X106632093Y-142743350D01*
X106747187Y-142657190D01*
X106747190Y-142657187D01*
X106833350Y-142542093D01*
X106833354Y-142542086D01*
X106882422Y-142410529D01*
X106924293Y-142354595D01*
X106989757Y-142330178D01*
X107058030Y-142345030D01*
X107086285Y-142366181D01*
X107200213Y-142480109D01*
X107372179Y-142605048D01*
X107372181Y-142605049D01*
X107372184Y-142605051D01*
X107561588Y-142701557D01*
X107763757Y-142767246D01*
X107973713Y-142800500D01*
X107973714Y-142800500D01*
X108186286Y-142800500D01*
X108186287Y-142800500D01*
X108396243Y-142767246D01*
X108598412Y-142701557D01*
X108787816Y-142605051D01*
X108809789Y-142589086D01*
X108959786Y-142480109D01*
X108959788Y-142480106D01*
X108959792Y-142480104D01*
X109110104Y-142329792D01*
X109110106Y-142329788D01*
X109110109Y-142329786D01*
X109235048Y-142157820D01*
X109235047Y-142157820D01*
X109235051Y-142157816D01*
X109239514Y-142149054D01*
X109287488Y-142098259D01*
X109355308Y-142081463D01*
X109421444Y-142103999D01*
X109460486Y-142149056D01*
X109464951Y-142157820D01*
X109589890Y-142329786D01*
X109740213Y-142480109D01*
X109912179Y-142605048D01*
X109912181Y-142605049D01*
X109912184Y-142605051D01*
X110101588Y-142701557D01*
X110303757Y-142767246D01*
X110513713Y-142800500D01*
X110513714Y-142800500D01*
X110726286Y-142800500D01*
X110726287Y-142800500D01*
X110936243Y-142767246D01*
X111138412Y-142701557D01*
X111327816Y-142605051D01*
X111349789Y-142589086D01*
X111499786Y-142480109D01*
X111499788Y-142480106D01*
X111499792Y-142480104D01*
X111650104Y-142329792D01*
X111650106Y-142329788D01*
X111650109Y-142329786D01*
X111775048Y-142157820D01*
X111775047Y-142157820D01*
X111775051Y-142157816D01*
X111871557Y-141968412D01*
X111937246Y-141766243D01*
X111970500Y-141556287D01*
X111970500Y-141343713D01*
X111937246Y-141133757D01*
X111871557Y-140931588D01*
X111775051Y-140742184D01*
X111775049Y-140742181D01*
X111775048Y-140742179D01*
X111650109Y-140570213D01*
X111499786Y-140419890D01*
X111327820Y-140294951D01*
X111138414Y-140198444D01*
X111138413Y-140198443D01*
X111138412Y-140198443D01*
X110936243Y-140132754D01*
X110936241Y-140132753D01*
X110936240Y-140132753D01*
X110774957Y-140107208D01*
X110726287Y-140099500D01*
X110513713Y-140099500D01*
X110465042Y-140107208D01*
X110303760Y-140132753D01*
X110101585Y-140198444D01*
X109912179Y-140294951D01*
X109740213Y-140419890D01*
X109589890Y-140570213D01*
X109464949Y-140742182D01*
X109460484Y-140750946D01*
X109412509Y-140801742D01*
X109344688Y-140818536D01*
X109278553Y-140795998D01*
X109239516Y-140750946D01*
X109235050Y-140742182D01*
X109110109Y-140570213D01*
X108959786Y-140419890D01*
X108787820Y-140294951D01*
X108598414Y-140198444D01*
X108598413Y-140198443D01*
X108598412Y-140198443D01*
X108396243Y-140132754D01*
X108396241Y-140132753D01*
X108396240Y-140132753D01*
X108234957Y-140107208D01*
X108186287Y-140099500D01*
X107973713Y-140099500D01*
X107925042Y-140107208D01*
X107763760Y-140132753D01*
X107561585Y-140198444D01*
X107372179Y-140294951D01*
X107200215Y-140419889D01*
X107086285Y-140533819D01*
X107024962Y-140567303D01*
X106955270Y-140562319D01*
X106899337Y-140520447D01*
X106882422Y-140489470D01*
X106833354Y-140357913D01*
X106833350Y-140357906D01*
X106747190Y-140242812D01*
X106747187Y-140242809D01*
X106632093Y-140156649D01*
X106632086Y-140156645D01*
X106497379Y-140106403D01*
X106497372Y-140106401D01*
X106437844Y-140100000D01*
X105790000Y-140100000D01*
X105790000Y-141016988D01*
X105732993Y-140984075D01*
X105605826Y-140950000D01*
X105474174Y-140950000D01*
X105347007Y-140984075D01*
X105290000Y-141016988D01*
X105290000Y-140100000D01*
X104642155Y-140100000D01*
X104582627Y-140106401D01*
X104582620Y-140106403D01*
X104447913Y-140156645D01*
X104447911Y-140156647D01*
X104344311Y-140234202D01*
X104278847Y-140258619D01*
X104210574Y-140243768D01*
X104195689Y-140234202D01*
X104092088Y-140156647D01*
X104092086Y-140156645D01*
X103957379Y-140106403D01*
X103957372Y-140106401D01*
X103897844Y-140100000D01*
X103250000Y-140100000D01*
X103250000Y-141016988D01*
X103192993Y-140984075D01*
X103065826Y-140950000D01*
X102934174Y-140950000D01*
X102807007Y-140984075D01*
X102750000Y-141016988D01*
X102750000Y-140100000D01*
X102102155Y-140100000D01*
X102042627Y-140106401D01*
X102042620Y-140106403D01*
X101907913Y-140156645D01*
X101907906Y-140156649D01*
X101792812Y-140242809D01*
X101792809Y-140242812D01*
X101706649Y-140357906D01*
X101706645Y-140357913D01*
X101656403Y-140492620D01*
X101656401Y-140492627D01*
X101650000Y-140552155D01*
X88872459Y-140552155D01*
X88883725Y-140530803D01*
X88893932Y-140504587D01*
X88901374Y-140497354D01*
X88903204Y-140493887D01*
X88919237Y-140479994D01*
X88990839Y-140427973D01*
X89153973Y-140264839D01*
X89289579Y-140078194D01*
X89394317Y-139872633D01*
X89465609Y-139653219D01*
X89501700Y-139425353D01*
X89501700Y-139194647D01*
X89496676Y-139162929D01*
X89465609Y-138966780D01*
X89423672Y-138837713D01*
X89394317Y-138747367D01*
X89289579Y-138541806D01*
X89153973Y-138355161D01*
X88990839Y-138192027D01*
X88919665Y-138140316D01*
X88877002Y-138084988D01*
X88871023Y-138015375D01*
X88903629Y-137953580D01*
X88919662Y-137939686D01*
X88990839Y-137887973D01*
X89153973Y-137724839D01*
X89289579Y-137538194D01*
X89394317Y-137332633D01*
X89465609Y-137113219D01*
X89501700Y-136885353D01*
X89501700Y-136654647D01*
X89480374Y-136520000D01*
X89465609Y-136426780D01*
X89444180Y-136360829D01*
X89394317Y-136207367D01*
X89289579Y-136001806D01*
X89153973Y-135815161D01*
X88990839Y-135652027D01*
X88919665Y-135600316D01*
X88877002Y-135544988D01*
X88871023Y-135475375D01*
X88903629Y-135413580D01*
X88919662Y-135399686D01*
X88990839Y-135347973D01*
X89153973Y-135184839D01*
X89289579Y-134998194D01*
X89394317Y-134792633D01*
X89465609Y-134573219D01*
X89501700Y-134345353D01*
X89501700Y-134114647D01*
X89465609Y-133886781D01*
X89394317Y-133667367D01*
X89289579Y-133461806D01*
X89153973Y-133275161D01*
X88990839Y-133112027D01*
X88919665Y-133060316D01*
X88877002Y-133004988D01*
X88871023Y-132935375D01*
X88903629Y-132873580D01*
X88919662Y-132859686D01*
X88990839Y-132807973D01*
X89153973Y-132644839D01*
X89289579Y-132458194D01*
X89394317Y-132252633D01*
X89465609Y-132033219D01*
X89501700Y-131805353D01*
X89501700Y-131574647D01*
X89465609Y-131346781D01*
X89394317Y-131127367D01*
X89289579Y-130921806D01*
X89153973Y-130735161D01*
X88990839Y-130572027D01*
X88919665Y-130520316D01*
X88877002Y-130464988D01*
X88871023Y-130395375D01*
X88903629Y-130333580D01*
X88919662Y-130319686D01*
X88990839Y-130267973D01*
X89153973Y-130104839D01*
X89289579Y-129918194D01*
X89394317Y-129712633D01*
X89465609Y-129493219D01*
X89501700Y-129265353D01*
X89501700Y-129034647D01*
X89465609Y-128806781D01*
X89394317Y-128587367D01*
X89289579Y-128381806D01*
X89153973Y-128195161D01*
X88990839Y-128032027D01*
X88919665Y-127980316D01*
X88877002Y-127924988D01*
X88871023Y-127855375D01*
X88903629Y-127793580D01*
X88919662Y-127779686D01*
X88990839Y-127727973D01*
X89153973Y-127564839D01*
X89289579Y-127378194D01*
X89394317Y-127172633D01*
X89465609Y-126953219D01*
X89501700Y-126725353D01*
X89501700Y-126494647D01*
X89482309Y-126372219D01*
X89465609Y-126266780D01*
X89432952Y-126166274D01*
X89394317Y-126047367D01*
X89289579Y-125841806D01*
X89153973Y-125655161D01*
X88990839Y-125492027D01*
X88919665Y-125440316D01*
X88877002Y-125384988D01*
X88871023Y-125315375D01*
X88903629Y-125253580D01*
X88919662Y-125239686D01*
X88990839Y-125187973D01*
X89153973Y-125024839D01*
X89289579Y-124838194D01*
X89394317Y-124632633D01*
X89465609Y-124413219D01*
X89501700Y-124185353D01*
X89501700Y-123954647D01*
X89465609Y-123726781D01*
X89465608Y-123726777D01*
X89465608Y-123726776D01*
X89406161Y-123543818D01*
X89404166Y-123473977D01*
X89440246Y-123414144D01*
X89502947Y-123383316D01*
X89524092Y-123381500D01*
X97083508Y-123381500D01*
X97150547Y-123401185D01*
X97171189Y-123417819D01*
X105263181Y-131509811D01*
X105296666Y-131571134D01*
X105299500Y-131597492D01*
X105299500Y-133000015D01*
X105310000Y-133102795D01*
X105310001Y-133102796D01*
X105365186Y-133269335D01*
X105365187Y-133269337D01*
X105457286Y-133418651D01*
X105457289Y-133418655D01*
X105581344Y-133542710D01*
X105581348Y-133542713D01*
X105730662Y-133634812D01*
X105730664Y-133634813D01*
X105730666Y-133634814D01*
X105897203Y-133689999D01*
X105999992Y-133700500D01*
X105999997Y-133700500D01*
X108000003Y-133700500D01*
X108000008Y-133700500D01*
X108102797Y-133689999D01*
X108269334Y-133634814D01*
X108418655Y-133542711D01*
X108542711Y-133418655D01*
X108634814Y-133269334D01*
X108689999Y-133102797D01*
X108700500Y-133000008D01*
X108700500Y-130999992D01*
X108689999Y-130897203D01*
X108634814Y-130730666D01*
X108542711Y-130581345D01*
X108418655Y-130457289D01*
X108418651Y-130457286D01*
X108269337Y-130365187D01*
X108269335Y-130365186D01*
X108186065Y-130337593D01*
X108102797Y-130310001D01*
X108102795Y-130310000D01*
X108000015Y-130299500D01*
X108000008Y-130299500D01*
X106597492Y-130299500D01*
X106530453Y-130279815D01*
X106509811Y-130263181D01*
X98874611Y-122627981D01*
X98841126Y-122566658D01*
X98846110Y-122496966D01*
X98887982Y-122441033D01*
X98953446Y-122416616D01*
X98962292Y-122416300D01*
X101118308Y-122416300D01*
X101185347Y-122435985D01*
X101205989Y-122452619D01*
X105286788Y-126533418D01*
X105320273Y-126594741D01*
X105322046Y-126637284D01*
X105299501Y-126808532D01*
X105299500Y-126808549D01*
X105299500Y-127031450D01*
X105299501Y-127031466D01*
X105328594Y-127252452D01*
X105328595Y-127252457D01*
X105328596Y-127252463D01*
X105386290Y-127467780D01*
X105386293Y-127467790D01*
X105426493Y-127564840D01*
X105471595Y-127673726D01*
X105583052Y-127866774D01*
X105583057Y-127866780D01*
X105583058Y-127866782D01*
X105718751Y-128043622D01*
X105718757Y-128043629D01*
X105876370Y-128201242D01*
X105876376Y-128201247D01*
X106053226Y-128336948D01*
X106246274Y-128448405D01*
X106266638Y-128456840D01*
X106428163Y-128523746D01*
X106452219Y-128533710D01*
X106667537Y-128591404D01*
X106888543Y-128620500D01*
X106888550Y-128620500D01*
X107111450Y-128620500D01*
X107111457Y-128620500D01*
X107332463Y-128591404D01*
X107547781Y-128533710D01*
X107753726Y-128448405D01*
X107946774Y-128336948D01*
X108123624Y-128201247D01*
X108281247Y-128043624D01*
X108416948Y-127866774D01*
X108528405Y-127673726D01*
X108613710Y-127467781D01*
X108671404Y-127252463D01*
X108700500Y-127031457D01*
X108700500Y-126808543D01*
X108671404Y-126587537D01*
X108613710Y-126372219D01*
X108610424Y-126364287D01*
X108528406Y-126166277D01*
X108528405Y-126166274D01*
X108416948Y-125973226D01*
X108341177Y-125874479D01*
X108281248Y-125796377D01*
X108281242Y-125796370D01*
X108123629Y-125638757D01*
X108123622Y-125638751D01*
X107946782Y-125503058D01*
X107946780Y-125503057D01*
X107946774Y-125503052D01*
X107753726Y-125391595D01*
X107753722Y-125391593D01*
X107547790Y-125306293D01*
X107547783Y-125306291D01*
X107547781Y-125306290D01*
X107332463Y-125248596D01*
X107332457Y-125248595D01*
X107332452Y-125248594D01*
X107111466Y-125219501D01*
X107111463Y-125219500D01*
X107111457Y-125219500D01*
X106888543Y-125219500D01*
X106888537Y-125219500D01*
X106888533Y-125219501D01*
X106667540Y-125248595D01*
X106667526Y-125248598D01*
X106600790Y-125266480D01*
X106530940Y-125264817D01*
X106481016Y-125234386D01*
X102958311Y-121711681D01*
X102924826Y-121650358D01*
X102929810Y-121580666D01*
X102971682Y-121524733D01*
X103037146Y-121500316D01*
X103045992Y-121500000D01*
X105487272Y-121500000D01*
X105554311Y-121519685D01*
G37*
%TD.AperFunction*%
%TA.AperFunction,Conductor*%
G36*
X82840871Y-121519685D02*
G01*
X82886626Y-121572489D01*
X82896570Y-121641647D01*
X82867545Y-121705203D01*
X82861517Y-121711676D01*
X79548354Y-125024839D01*
X76341012Y-128232181D01*
X76279689Y-128265666D01*
X76253331Y-128268500D01*
X73930912Y-128268500D01*
X73863873Y-128248815D01*
X73843231Y-128232181D01*
X73489178Y-127878128D01*
X73489159Y-127878111D01*
X73422254Y-127826136D01*
X73422253Y-127826135D01*
X73289289Y-127771061D01*
X73289287Y-127771060D01*
X73289286Y-127771060D01*
X73289285Y-127771059D01*
X73289282Y-127771059D01*
X73205216Y-127760500D01*
X73205209Y-127760499D01*
X72386789Y-127760499D01*
X72302717Y-127771059D01*
X72302713Y-127771060D01*
X72169748Y-127826136D01*
X72102829Y-127878121D01*
X72102823Y-127878126D01*
X71524128Y-128456821D01*
X71524111Y-128456840D01*
X71472136Y-128523745D01*
X71472135Y-128523746D01*
X71417061Y-128656710D01*
X71417059Y-128656717D01*
X71406500Y-128740783D01*
X71406499Y-128740790D01*
X71406499Y-129559210D01*
X71417059Y-129643282D01*
X71417060Y-129643286D01*
X71472136Y-129776251D01*
X71472137Y-129776252D01*
X71524121Y-129843171D01*
X71524125Y-129843175D01*
X71524126Y-129843176D01*
X72013268Y-130332318D01*
X72046753Y-130393641D01*
X72041769Y-130463333D01*
X72013268Y-130507680D01*
X71524128Y-130996821D01*
X71524111Y-130996840D01*
X71472136Y-131063745D01*
X71472135Y-131063746D01*
X71417061Y-131196710D01*
X71417059Y-131196717D01*
X71406500Y-131280783D01*
X71406499Y-131280790D01*
X71406499Y-132099210D01*
X71417059Y-132183282D01*
X71417060Y-132183286D01*
X71472136Y-132316251D01*
X71472137Y-132316252D01*
X71524121Y-132383171D01*
X71785791Y-132644841D01*
X72013623Y-132872672D01*
X72047108Y-132933995D01*
X72042124Y-133003686D01*
X72013623Y-133048034D01*
X71524504Y-133537153D01*
X71524492Y-133537167D01*
X71472570Y-133604005D01*
X71472570Y-133604006D01*
X71417549Y-133736839D01*
X71407000Y-133820822D01*
X71407000Y-133980000D01*
X72353749Y-133980000D01*
X72322619Y-134033919D01*
X72288000Y-134163120D01*
X72288000Y-134296880D01*
X72322619Y-134426081D01*
X72353749Y-134480000D01*
X71407001Y-134480000D01*
X71407001Y-134639170D01*
X71417548Y-134723160D01*
X71472570Y-134855993D01*
X71524499Y-134922840D01*
X71524504Y-134922846D01*
X72013977Y-135412319D01*
X72047462Y-135473642D01*
X72042478Y-135543334D01*
X72013977Y-135587681D01*
X71524503Y-136077154D01*
X71524492Y-136077167D01*
X71472570Y-136144005D01*
X71472570Y-136144006D01*
X71417549Y-136276839D01*
X71407000Y-136360822D01*
X71407000Y-136520000D01*
X72353749Y-136520000D01*
X72322619Y-136573919D01*
X72288000Y-136703120D01*
X72288000Y-136836880D01*
X72322619Y-136966081D01*
X72353749Y-137020000D01*
X71407001Y-137020000D01*
X71407001Y-137179170D01*
X71417548Y-137263160D01*
X71472570Y-137395993D01*
X71524499Y-137462840D01*
X71524504Y-137462846D01*
X72013623Y-137951965D01*
X72047108Y-138013288D01*
X72042124Y-138082980D01*
X72013623Y-138127327D01*
X71524128Y-138616821D01*
X71524111Y-138616840D01*
X71472136Y-138683745D01*
X71472135Y-138683746D01*
X71417061Y-138816710D01*
X71417059Y-138816717D01*
X71406500Y-138900783D01*
X71406499Y-138900790D01*
X71406499Y-139719210D01*
X71417059Y-139803282D01*
X71417060Y-139803286D01*
X71472136Y-139936251D01*
X71472137Y-139936252D01*
X71524121Y-140003171D01*
X71524125Y-140003175D01*
X71524126Y-140003176D01*
X72013268Y-140492318D01*
X72046753Y-140553641D01*
X72041769Y-140623333D01*
X72013268Y-140667680D01*
X71524128Y-141156821D01*
X71524111Y-141156840D01*
X71472136Y-141223745D01*
X71472135Y-141223746D01*
X71417061Y-141356710D01*
X71417059Y-141356717D01*
X71406500Y-141440783D01*
X71406499Y-141440790D01*
X71406499Y-142259210D01*
X71417059Y-142343282D01*
X71417060Y-142343286D01*
X71472136Y-142476251D01*
X71472137Y-142476252D01*
X71524121Y-142543171D01*
X71524125Y-142543175D01*
X71524126Y-142543176D01*
X72102821Y-143121871D01*
X72102840Y-143121888D01*
X72169745Y-143173863D01*
X72169746Y-143173864D01*
X72195794Y-143184653D01*
X72302714Y-143228940D01*
X72386787Y-143239500D01*
X73205209Y-143239501D01*
X73289285Y-143228940D01*
X73422252Y-143173863D01*
X73489171Y-143121879D01*
X73843230Y-142767818D01*
X73904553Y-142734334D01*
X73930911Y-142731500D01*
X74236823Y-142731500D01*
X74351393Y-142708709D01*
X74407124Y-142697624D01*
X74542910Y-142641380D01*
X74567543Y-142631177D01*
X74567544Y-142631176D01*
X74567547Y-142631175D01*
X74711924Y-142534706D01*
X77872019Y-139374609D01*
X77933342Y-139341125D01*
X78003034Y-139346109D01*
X78058967Y-139387981D01*
X78083384Y-139453445D01*
X78083700Y-139462291D01*
X78083700Y-144515702D01*
X78064015Y-144582741D01*
X78047381Y-144603383D01*
X76364181Y-146286583D01*
X76302858Y-146320068D01*
X76233166Y-146315084D01*
X76177233Y-146273212D01*
X76152816Y-146207748D01*
X76152500Y-146198902D01*
X76152500Y-146052860D01*
X76152500Y-146052854D01*
X76116560Y-145779862D01*
X76045295Y-145513896D01*
X75939923Y-145259507D01*
X75939921Y-145259504D01*
X75939919Y-145259499D01*
X75866509Y-145132351D01*
X75802249Y-145021049D01*
X75634628Y-144802600D01*
X75634623Y-144802594D01*
X75439933Y-144607904D01*
X75439926Y-144607898D01*
X75221483Y-144440282D01*
X75221482Y-144440281D01*
X75221479Y-144440279D01*
X75126407Y-144385389D01*
X74983028Y-144302608D01*
X74983017Y-144302603D01*
X74728630Y-144197232D01*
X74595649Y-144161600D01*
X74462666Y-144125968D01*
X74462660Y-144125967D01*
X74462655Y-144125966D01*
X74189684Y-144090029D01*
X74189679Y-144090028D01*
X74189674Y-144090028D01*
X73914326Y-144090028D01*
X73914320Y-144090028D01*
X73914315Y-144090029D01*
X73641344Y-144125966D01*
X73641337Y-144125967D01*
X73641334Y-144125968D01*
X73585125Y-144141028D01*
X73375369Y-144197232D01*
X73120982Y-144302603D01*
X73120971Y-144302608D01*
X72882516Y-144440282D01*
X72664073Y-144607898D01*
X72664066Y-144607904D01*
X72469376Y-144802594D01*
X72469370Y-144802601D01*
X72301754Y-145021044D01*
X72164080Y-145259499D01*
X72164075Y-145259510D01*
X72058704Y-145513897D01*
X72019557Y-145660000D01*
X71996401Y-145746421D01*
X71987441Y-145779859D01*
X71987438Y-145779872D01*
X71951501Y-146052843D01*
X71951500Y-146052860D01*
X71951500Y-146328195D01*
X71951501Y-146328212D01*
X71987438Y-146601183D01*
X71987439Y-146601188D01*
X71987440Y-146601194D01*
X71987441Y-146601196D01*
X72058704Y-146867158D01*
X72164075Y-147121545D01*
X72164080Y-147121556D01*
X72214536Y-147208947D01*
X72301751Y-147360007D01*
X72301753Y-147360010D01*
X72301754Y-147360011D01*
X72469370Y-147578454D01*
X72469376Y-147578461D01*
X72664066Y-147773151D01*
X72664072Y-147773156D01*
X72882521Y-147940777D01*
X73035778Y-148029260D01*
X73120971Y-148078447D01*
X73120976Y-148078449D01*
X73120979Y-148078451D01*
X73226616Y-148122207D01*
X73242867Y-148128939D01*
X73297270Y-148172780D01*
X73319335Y-148239074D01*
X73302056Y-148306774D01*
X73250919Y-148354384D01*
X73195414Y-148367500D01*
X72268097Y-148367500D01*
X72201058Y-148347815D01*
X72180416Y-148331181D01*
X67414390Y-143565155D01*
X67414388Y-143565152D01*
X67294941Y-143445705D01*
X67261456Y-143384382D01*
X67266440Y-143314690D01*
X67282304Y-143285139D01*
X67305065Y-143253811D01*
X67364787Y-143171610D01*
X67457720Y-142989219D01*
X67520977Y-142794534D01*
X67553000Y-142592352D01*
X67553000Y-142387648D01*
X67545974Y-142343286D01*
X67520977Y-142185465D01*
X67457718Y-141990776D01*
X67417401Y-141911650D01*
X67364787Y-141808390D01*
X67334163Y-141766239D01*
X67244471Y-141642786D01*
X67099713Y-141498028D01*
X66934114Y-141377715D01*
X66867381Y-141343713D01*
X66841417Y-141330483D01*
X66790623Y-141282511D01*
X66773828Y-141214690D01*
X66796365Y-141148555D01*
X66841417Y-141109516D01*
X66934110Y-141062287D01*
X67035878Y-140988349D01*
X67099713Y-140941971D01*
X67099715Y-140941968D01*
X67099719Y-140941966D01*
X67244466Y-140797219D01*
X67244468Y-140797215D01*
X67244471Y-140797213D01*
X67329175Y-140680626D01*
X67364787Y-140631610D01*
X67457720Y-140449219D01*
X67520977Y-140254534D01*
X67553000Y-140052352D01*
X67553000Y-139847648D01*
X67545974Y-139803286D01*
X67520977Y-139645465D01*
X67479945Y-139519182D01*
X67457720Y-139450781D01*
X67457718Y-139450778D01*
X67457718Y-139450776D01*
X67364787Y-139268390D01*
X67312836Y-139196885D01*
X67289357Y-139131078D01*
X67305183Y-139063024D01*
X67355289Y-139014330D01*
X67413155Y-139000000D01*
X71000000Y-139000000D01*
X71000000Y-124567332D01*
X71965500Y-124567332D01*
X71965500Y-124842667D01*
X71965501Y-124842684D01*
X72001438Y-125115655D01*
X72001439Y-125115660D01*
X72001440Y-125115666D01*
X72001441Y-125115668D01*
X72072704Y-125381630D01*
X72178075Y-125636017D01*
X72178080Y-125636028D01*
X72260861Y-125779407D01*
X72315751Y-125874479D01*
X72315753Y-125874482D01*
X72315754Y-125874483D01*
X72483370Y-126092926D01*
X72483376Y-126092933D01*
X72678066Y-126287623D01*
X72678072Y-126287628D01*
X72896521Y-126455249D01*
X73049778Y-126543732D01*
X73134971Y-126592919D01*
X73134976Y-126592921D01*
X73134979Y-126592923D01*
X73389368Y-126698295D01*
X73655334Y-126769560D01*
X73928326Y-126805500D01*
X73928333Y-126805500D01*
X74203667Y-126805500D01*
X74203674Y-126805500D01*
X74476666Y-126769560D01*
X74742632Y-126698295D01*
X74997021Y-126592923D01*
X75235479Y-126455249D01*
X75453928Y-126287628D01*
X75648628Y-126092928D01*
X75816249Y-125874479D01*
X75953923Y-125636021D01*
X76059295Y-125381632D01*
X76130560Y-125115666D01*
X76166500Y-124842674D01*
X76166500Y-124567326D01*
X76130560Y-124294334D01*
X76059295Y-124028368D01*
X75953923Y-123773979D01*
X75953921Y-123773976D01*
X75953919Y-123773971D01*
X75904732Y-123688778D01*
X75816249Y-123535521D01*
X75648628Y-123317072D01*
X75648623Y-123317066D01*
X75453933Y-123122376D01*
X75453926Y-123122370D01*
X75235483Y-122954754D01*
X75235482Y-122954753D01*
X75235479Y-122954751D01*
X75140407Y-122899861D01*
X74997028Y-122817080D01*
X74997017Y-122817075D01*
X74742630Y-122711704D01*
X74609649Y-122676072D01*
X74476666Y-122640440D01*
X74476660Y-122640439D01*
X74476655Y-122640438D01*
X74203684Y-122604501D01*
X74203679Y-122604500D01*
X74203674Y-122604500D01*
X73928326Y-122604500D01*
X73928320Y-122604500D01*
X73928315Y-122604501D01*
X73655344Y-122640438D01*
X73655337Y-122640439D01*
X73655334Y-122640440D01*
X73599125Y-122655500D01*
X73389369Y-122711704D01*
X73134982Y-122817075D01*
X73134971Y-122817080D01*
X72896516Y-122954754D01*
X72678073Y-123122370D01*
X72678066Y-123122376D01*
X72483376Y-123317066D01*
X72483370Y-123317073D01*
X72315754Y-123535516D01*
X72178080Y-123773971D01*
X72178075Y-123773982D01*
X72072704Y-124028369D01*
X72001441Y-124294331D01*
X72001438Y-124294344D01*
X71965501Y-124567315D01*
X71965500Y-124567332D01*
X71000000Y-124567332D01*
X71000000Y-121624000D01*
X71019685Y-121556961D01*
X71072489Y-121511206D01*
X71124000Y-121500000D01*
X82773832Y-121500000D01*
X82840871Y-121519685D01*
G37*
%TD.AperFunction*%
%TA.AperFunction,Conductor*%
G36*
X76059664Y-132459932D02*
G01*
X76106356Y-132511910D01*
X76118500Y-132565429D01*
X76118500Y-137218510D01*
X76098815Y-137285549D01*
X76082181Y-137306191D01*
X74996191Y-138392181D01*
X74934868Y-138425666D01*
X74908510Y-138428500D01*
X73930912Y-138428500D01*
X73863873Y-138408815D01*
X73843231Y-138392181D01*
X73578376Y-138127327D01*
X73544891Y-138066004D01*
X73549875Y-137996313D01*
X73578376Y-137951965D01*
X74067492Y-137462850D01*
X74067504Y-137462837D01*
X74119429Y-137395994D01*
X74119429Y-137395993D01*
X74174450Y-137263160D01*
X74184999Y-137179177D01*
X74185000Y-137179171D01*
X74185000Y-137020000D01*
X73238251Y-137020000D01*
X73269381Y-136966081D01*
X73304000Y-136836880D01*
X73304000Y-136703120D01*
X73269381Y-136573919D01*
X73238251Y-136520000D01*
X74184999Y-136520000D01*
X74184999Y-136360829D01*
X74174451Y-136276839D01*
X74119429Y-136144006D01*
X74067500Y-136077159D01*
X74067495Y-136077153D01*
X73578023Y-135587681D01*
X73544538Y-135526358D01*
X73549522Y-135456666D01*
X73578023Y-135412319D01*
X74067496Y-134922845D01*
X74067507Y-134922832D01*
X74119429Y-134855994D01*
X74119429Y-134855993D01*
X74174450Y-134723160D01*
X74184999Y-134639177D01*
X74185000Y-134639171D01*
X74185000Y-134480000D01*
X73238251Y-134480000D01*
X73269381Y-134426081D01*
X73304000Y-134296880D01*
X73304000Y-134163120D01*
X73269381Y-134033919D01*
X73238251Y-133980000D01*
X74184999Y-133980000D01*
X74184999Y-133820829D01*
X74174451Y-133736839D01*
X74119429Y-133604006D01*
X74067500Y-133537159D01*
X74067495Y-133537153D01*
X73578376Y-133048034D01*
X73544891Y-132986711D01*
X73549875Y-132917019D01*
X73578372Y-132872676D01*
X73843230Y-132607818D01*
X73904553Y-132574334D01*
X73930911Y-132571500D01*
X75581644Y-132571500D01*
X75696214Y-132548709D01*
X75751945Y-132537624D01*
X75912368Y-132471175D01*
X75925609Y-132462327D01*
X75992284Y-132441449D01*
X76059664Y-132459932D01*
G37*
%TD.AperFunction*%
%TA.AperFunction,Conductor*%
G36*
X73046000Y-136327748D02*
G01*
X72992081Y-136296619D01*
X72862880Y-136262000D01*
X72729120Y-136262000D01*
X72599919Y-136296619D01*
X72546000Y-136327748D01*
X72546000Y-134672251D01*
X72599919Y-134703381D01*
X72729120Y-134738000D01*
X72862880Y-134738000D01*
X72992081Y-134703381D01*
X73046000Y-134672251D01*
X73046000Y-136327748D01*
G37*
%TD.AperFunction*%
%TD*%
M02*
