M48
; DRILL file KiCad 10.0.6-10.0.6~ubuntu26.04.1 date 2026-09-20T17:29:50
; FORMAT={-:-/ absolute / metric / decimal}
; #@! TF.CreationDate,2026-09-20T17:29:50-04:00
; #@! TF.GenerationSoftware,Kicad,Pcbnew,10.0.6-10.0.6~ubuntu26.04.1
; #@! TF.FileFunction,Plated,1,2,PTH
FMAT,2
METRIC
; #@! TA.AperFunction,Plated,PTH,ComponentDrill
T1C1.000
; #@! TA.AperFunction,Plated,PTH,ComponentDrill
T2C1.016
; #@! TA.AperFunction,Plated,PTH,ComponentDrill
T3C2.500
%
G90
G05
T1
X38.5Y-181.0
X41.04Y-181.0
X42.287Y-167.66
X43.58Y-181.0
X44.827Y-167.66
X46.12Y-181.0
X47.367Y-167.66
X48.66Y-181.0
X49.907Y-167.66
X51.2Y-181.0
X52.447Y-167.66
X53.74Y-181.0
X54.987Y-167.66
X56.28Y-181.0
X57.527Y-167.66
X60.067Y-167.66
X62.175Y-121.23
X62.175Y-144.09
X64.715Y-121.23
X64.715Y-144.09
X67.255Y-121.23
X67.255Y-144.09
X69.795Y-121.23
X69.795Y-144.09
X72.335Y-121.23
X72.335Y-144.09
X74.875Y-121.23
X74.875Y-144.09
X77.415Y-121.23
X77.415Y-144.09
X79.955Y-121.23
X79.955Y-144.09
X82.495Y-121.23
X82.495Y-144.09
X85.035Y-121.23
X85.035Y-144.09
X87.575Y-121.23
X87.575Y-144.09
X90.115Y-121.23
X90.115Y-144.09
X92.655Y-121.23
X92.655Y-144.09
X93.964Y-94.57
X93.964Y-97.11
X93.964Y-99.65
X93.964Y-102.19
X93.964Y-104.73
X93.964Y-107.27
X93.964Y-109.81
X93.964Y-112.35
X93.964Y-114.89
X93.964Y-117.43
X95.195Y-121.23
X95.195Y-144.09
X97.735Y-121.23
X97.735Y-144.09
X103.92Y-164.05
X106.46Y-125.95
X106.46Y-164.05
X109.0Y-125.95
X109.0Y-164.05
X111.54Y-125.95
X111.54Y-164.05
X114.08Y-125.95
T2
X69.897Y-152.88
X72.437Y-152.88
X74.977Y-152.88
X77.517Y-152.88
X80.057Y-152.88
X82.597Y-152.88
X85.137Y-152.88
X87.677Y-152.88
T3
X32.0Y-148.61
X32.0Y-166.39
X39.77Y-172.11
X55.01Y-172.11
X59.0Y-122.5
X59.0Y-142.82
X107.934Y-95.205
X107.934Y-116.795
M30
