%TF.GenerationSoftware,KiCad,Pcbnew,10.0.6-10.0.6~ubuntu26.04.1*%
%TF.CreationDate,2026-09-20T17:20:45-04:00*%
%TF.ProjectId,circut,63697263-7574-42e6-9b69-6361645f7063,rev?*%
%TF.SameCoordinates,Original*%
%TF.FileFunction,Copper,L2,Bot*%
%TF.FilePolarity,Positive*%
%FSLAX46Y46*%
G04 Gerber Fmt 4.6, Leading zero omitted, Abs format (unit mm)*
G04 Created by KiCad (PCBNEW 10.0.6-10.0.6~ubuntu26.04.1) date 2026-09-20 17:20:45*
%MOMM*%
%LPD*%
G01*
G04 APERTURE LIST*
G04 Aperture macros list*
%AMOutline5P*
0 Free polygon, 5 corners , with rotation*
0 The origin of the aperture is its center*
0 number of corners: always 5*
0 $1 to $10 corner X, Y*
0 $11 Rotation angle, in degrees counterclockwise*
0 create outline with 5 corners*
4,1,5,$1,$2,$3,$4,$5,$6,$7,$8,$9,$10,$1,$2,$11*%
%AMOutline6P*
0 Free polygon, 6 corners , with rotation*
0 The origin of the aperture is its center*
0 number of corners: always 6*
0 $1 to $12 corner X, Y*
0 $13 Rotation angle, in degrees counterclockwise*
0 create outline with 6 corners*
4,1,6,$1,$2,$3,$4,$5,$6,$7,$8,$9,$10,$11,$12,$1,$2,$13*%
%AMOutline7P*
0 Free polygon, 7 corners , with rotation*
0 The origin of the aperture is its center*
0 number of corners: always 7*
0 $1 to $14 corner X, Y*
0 $15 Rotation angle, in degrees counterclockwise*
0 create outline with 7 corners*
4,1,7,$1,$2,$3,$4,$5,$6,$7,$8,$9,$10,$11,$12,$13,$14,$1,$2,$15*%
%AMOutline8P*
0 Free polygon, 8 corners , with rotation*
0 The origin of the aperture is its center*
0 number of corners: always 8*
0 $1 to $16 corner X, Y*
0 $17 Rotation angle, in degrees counterclockwise*
0 create outline with 8 corners*
4,1,8,$1,$2,$3,$4,$5,$6,$7,$8,$9,$10,$11,$12,$13,$14,$15,$16,$1,$2,$17*%
G04 Aperture macros list end*
%TA.AperFunction,ComponentPad*%
%ADD10C,1.676400*%
%TD*%
%TA.AperFunction,ComponentPad*%
%ADD11C,3.200000*%
%TD*%
%TA.AperFunction,ComponentPad*%
%ADD12C,1.930400*%
%TD*%
%TA.AperFunction,ComponentPad*%
%ADD13Outline8P,-0.889000X0.368236X-0.368236X0.889000X0.368236X0.889000X0.889000X0.368236X0.889000X-0.368236X0.368236X-0.889000X-0.368236X-0.889000X-0.889000X-0.368236X270.000000*%
%TD*%
%TA.AperFunction,ComponentPad*%
%ADD14C,1.700000*%
%TD*%
%TA.AperFunction,ComponentPad*%
%ADD15R,1.700000X1.700000*%
%TD*%
%TA.AperFunction,Conductor*%
%ADD16C,0.762000*%
%TD*%
G04 APERTURE END LIST*
D10*
%TO.P,J1,1,Pin_1_1*%
%TO.N,/Battery*%
X62175000Y-144090000D03*
%TO.P,J1,2,Pin_2_2*%
%TO.N,unconnected-(J1-Pin_2-Pad2)*%
X64715000Y-144090000D03*
%TO.P,J1,3,Pin_3_3*%
%TO.N,unconnected-(J1-Pin_3-Pad3)*%
X67255000Y-144090000D03*
%TO.P,J1,4,Pin_4_4*%
%TO.N,unconnected-(J1-Pin_4-Pad4)*%
X69795000Y-144090000D03*
%TO.P,J1,5,Pin_5_5*%
%TO.N,/CS*%
X72335000Y-144090000D03*
%TO.P,J1,6,Pin_6_6*%
%TO.N,/DI*%
X74875000Y-144090000D03*
%TO.P,J1,7,Pin_7_7*%
%TO.N,/DO*%
X77415000Y-144090000D03*
%TO.P,J1,8,Pin_8_8*%
%TO.N,/CLK*%
X79955000Y-144090000D03*
%TO.P,J1,9,Pin_9_9*%
%TO.N,unconnected-(J1-Pin_9-Pad9)*%
X82495000Y-144090000D03*
%TO.P,J1,10,Pin_10_10*%
%TO.N,unconnected-(J1-Pin_10-Pad10)*%
X85035000Y-144090000D03*
%TO.P,J1,11,Pin_11_11*%
%TO.N,unconnected-(J1-Pin_11-Pad11)*%
X87575000Y-144090000D03*
%TO.P,J1,12,Pin_12_12*%
%TO.N,unconnected-(J1-Pin_12-Pad12)*%
X90115000Y-144090000D03*
%TO.P,J1,13,Pin_13_13*%
%TO.N,unconnected-(J1-Pin_13-Pad13)*%
X92655000Y-144090000D03*
%TO.P,J1,14,Pin_14_14*%
%TO.N,unconnected-(J1-Pin_14-Pad14)*%
X95195000Y-144090000D03*
%TO.P,J1,15,Pin_15_15*%
%TO.N,unconnected-(J1-Pin_15-Pad15)*%
X97735000Y-144090000D03*
%TO.P,J1,16,Pin_16_16*%
%TO.N,GND*%
X62175000Y-121230000D03*
%TO.P,J1,17,Pin_17_17*%
%TO.N,/3v*%
X64715000Y-121230000D03*
%TO.P,J1,18,Pin_18_18*%
%TO.N,/GPIO13*%
X67255000Y-121230000D03*
%TO.P,J1,19,Pin_19_19*%
%TO.N,unconnected-(J1-Pin_19-Pad19)*%
X69795000Y-121230000D03*
%TO.P,J1,20,Pin_20_20*%
%TO.N,/BIN2*%
X72335000Y-121230000D03*
%TO.P,J1,21,Pin_21_21*%
%TO.N,/BIN1*%
X74875000Y-121230000D03*
%TO.P,J1,22,Pin_22_22*%
%TO.N,/STBY*%
X77415000Y-121230000D03*
%TO.P,J1,23,Pin_23_23*%
%TO.N,/AIN1*%
X79955000Y-121230000D03*
%TO.P,J1,24,Pin_24_24*%
%TO.N,/AIN2*%
X82495000Y-121230000D03*
%TO.P,J1,25,Pin_25_25*%
%TO.N,/PWMA*%
X85035000Y-121230000D03*
%TO.P,J1,26,Pin_26_26*%
%TO.N,unconnected-(J1-Pin_26-Pad26)*%
X87575000Y-121230000D03*
%TO.P,J1,27,Pin_27_27*%
%TO.N,unconnected-(J1-Pin_27-Pad27)*%
X90115000Y-121230000D03*
%TO.P,J1,28,Pin_28_28*%
%TO.N,unconnected-(J1-Pin_28-Pad28)*%
X92655000Y-121230000D03*
%TO.P,J1,29,Pin_29_29*%
%TO.N,unconnected-(J1-Pin_29-Pad29)*%
X95195000Y-121230000D03*
%TO.P,J1,30,Pin_30_30*%
%TO.N,unconnected-(J1-Pin_30-Pad30)*%
X97735000Y-121230000D03*
D11*
%TO.P,J1,*%
%TO.N,*%
X59000000Y-122500000D03*
X59000000Y-142820000D03*
%TD*%
D12*
%TO.P,Motor-In1,1,Pin_1_1*%
%TO.N,/12v*%
X93964000Y-94570000D03*
%TO.P,Motor-In1,2,Pin_2_2*%
%TO.N,/3v*%
X93964000Y-97110000D03*
%TO.P,Motor-In1,3,Pin_3_3*%
%TO.N,GND*%
X93964000Y-99650000D03*
%TO.P,Motor-In1,4,Pin_4_4*%
%TO.N,/GPIO13*%
X93964000Y-102190000D03*
%TO.P,Motor-In1,5,Pin_5_5*%
%TO.N,/BIN2*%
X93964000Y-104730000D03*
%TO.P,Motor-In1,6,Pin_6_6*%
%TO.N,/BIN1*%
X93964000Y-107270000D03*
%TO.P,Motor-In1,7,Pin_7_7*%
%TO.N,/STBY*%
X93964000Y-109810000D03*
%TO.P,Motor-In1,8,Pin_8_8*%
%TO.N,/AIN1*%
X93964000Y-112350000D03*
%TO.P,Motor-In1,9,Pin_9_9*%
%TO.N,/AIN2*%
X93964000Y-114890000D03*
%TO.P,Motor-In1,10,Pin_10_10*%
%TO.N,/PWMA*%
X93964000Y-117430000D03*
D11*
%TO.P,Motor-In1,P$1*%
%TO.N,N/C*%
X107934000Y-95205000D03*
X107934000Y-116795000D03*
%TD*%
%TO.P,USBC1,*%
%TO.N,*%
X55010000Y-172110000D03*
X39770000Y-172110000D03*
D12*
%TO.P,USBC1,8,Pin_8_8*%
%TO.N,unconnected-(USBC1-Pin_8-Pad8)*%
X38500000Y-181000000D03*
%TO.P,USBC1,7,Pin_7_7*%
%TO.N,unconnected-(USBC1-Pin_7-Pad7)*%
X41040000Y-181000000D03*
%TO.P,USBC1,6,Pin_6_6*%
%TO.N,unconnected-(USBC1-Pin_6-Pad6)*%
X43580000Y-181000000D03*
%TO.P,USBC1,5,Pin_5_5*%
%TO.N,unconnected-(USBC1-Pin_5-Pad5)*%
X46120000Y-181000000D03*
%TO.P,USBC1,4,Pin_4_4*%
%TO.N,unconnected-(USBC1-Pin_4-Pad4)*%
X48660000Y-181000000D03*
%TO.P,USBC1,3,Pin_3_3*%
%TO.N,unconnected-(USBC1-Pin_3-Pad3)*%
X51200000Y-181000000D03*
%TO.P,USBC1,2,Pin_2_2*%
%TO.N,/5v*%
X53740000Y-181000000D03*
%TO.P,USBC1,1,Pin_1_1*%
%TO.N,GND*%
X56280000Y-181000000D03*
%TD*%
D10*
%TO.P,Powerboost1,1,Pin_1_1*%
%TO.N,/5v*%
X42287000Y-167660000D03*
%TO.P,Powerboost1,2,Pin_2_2*%
%TO.N,unconnected-(Powerboost1-Pin_2-Pad2)*%
X44827000Y-167660000D03*
%TO.P,Powerboost1,3,Pin_3_3*%
%TO.N,unconnected-(Powerboost1-Pin_3-Pad3)*%
X47367000Y-167660000D03*
%TO.P,Powerboost1,4,Pin_4_4*%
%TO.N,unconnected-(Powerboost1-Pin_4-Pad4)*%
X49907000Y-167660000D03*
%TO.P,Powerboost1,5,Pin_5_5*%
%TO.N,GND*%
X52447000Y-167660000D03*
%TO.P,Powerboost1,6,Pin_6_6*%
%TO.N,unconnected-(Powerboost1-Pin_6-Pad6)*%
X54987000Y-167660000D03*
%TO.P,Powerboost1,7,Pin_7_7*%
%TO.N,unconnected-(Powerboost1-Pin_7-Pad7)*%
X57527000Y-167660000D03*
%TO.P,Powerboost1,8,Pin_8_8*%
%TO.N,/Battery*%
X60067000Y-167660000D03*
D11*
%TO.P,Powerboost1,*%
%TO.N,*%
X32000000Y-148610000D03*
X32000000Y-166390000D03*
%TD*%
D13*
%TO.P,SD1,1,Pin_1_1*%
%TO.N,/Battery*%
X87677000Y-152880000D03*
%TO.P,SD1,2,Pin_2_2*%
%TO.N,unconnected-(SD1-Pin_2-Pad2)*%
X85137000Y-152880000D03*
%TO.P,SD1,3,Pin_3_3*%
%TO.N,GND*%
X82597000Y-152880000D03*
%TO.P,SD1,4,Pin_4_4*%
%TO.N,/CLK*%
X80057000Y-152880000D03*
%TO.P,SD1,5,Pin_5_5*%
%TO.N,/DO*%
X77517000Y-152880000D03*
%TO.P,SD1,6,Pin_6_6*%
%TO.N,/DI*%
X74977000Y-152880000D03*
%TO.P,SD1,7,Pin_7_7*%
%TO.N,/CS*%
X72437000Y-152880000D03*
%TO.P,SD1,8,Pin_8_8*%
%TO.N,unconnected-(SD1-Pin_8-Pad8)*%
X69897000Y-152880000D03*
%TD*%
D14*
%TO.P,J3,8,Pin_8_8*%
%TO.N,/12v*%
X114080000Y-125950000D03*
%TO.P,J3,7,Pin_7_7*%
%TO.N,unconnected-(J3-Pin_7-Pad7)*%
X111540000Y-125950000D03*
D15*
%TO.P,J3,6,Pin_6_6*%
%TO.N,GND*%
X109000000Y-125950000D03*
%TO.P,J3,5,Pin_5_5*%
%TO.N,unconnected-(J3-Pin_5-Pad5)*%
X106460000Y-125950000D03*
D14*
%TO.P,J3,4,Pin_4_4*%
%TO.N,/Battery*%
X111540000Y-164050000D03*
%TO.P,J3,3,Pin_3_3*%
%TO.N,unconnected-(J3-Pin_3-Pad3)*%
X109000000Y-164050000D03*
D15*
%TO.P,J3,2,Pin_2_2*%
%TO.N,GND*%
X106460000Y-164050000D03*
%TO.P,J3,1,Pin_1_1*%
%TO.N,unconnected-(J3-Pin_1-Pad1)*%
X103920000Y-164050000D03*
%TD*%
%TO.N,/Battery*%
D16*
X82057000Y-158500000D02*
X105990000Y-158500000D01*
X105990000Y-158500000D02*
X111540000Y-164050000D01*
X60067000Y-161000000D02*
X60067000Y-146198000D01*
X60067000Y-161000000D02*
X62567000Y-158500000D01*
X62567000Y-158500000D02*
X82057000Y-158500000D01*
X82057000Y-158500000D02*
X87677000Y-152880000D01*
X60067000Y-167660000D02*
X60067000Y-161000000D01*
X60067000Y-146198000D02*
X62175000Y-144090000D01*
%TO.N,/3v*%
X64715000Y-121230000D02*
X88835000Y-97110000D01*
X88835000Y-97110000D02*
X93964000Y-97110000D01*
%TD*%
M02*
