%TF.GenerationSoftware,KiCad,Pcbnew,10.0.6-10.0.6~ubuntu26.04.1*%
%TF.CreationDate,2026-09-20T17:20:46-04:00*%
%TF.ProjectId,circut,63697263-7574-42e6-9b69-6361645f7063,rev?*%
%TF.SameCoordinates,Original*%
%TF.FileFunction,Soldermask,Top*%
%TF.FilePolarity,Negative*%
%FSLAX46Y46*%
G04 Gerber Fmt 4.6, Leading zero omitted, Abs format (unit mm)*
G04 Created by KiCad (PCBNEW 10.0.6-10.0.6~ubuntu26.04.1) date 2026-09-20 17:20:46*
%MOMM*%
%LPD*%
G01*
G04 APERTURE LIST*
G04 Aperture macros list*
%AMFreePoly0*
4,1,25,0.427955,0.971196,0.440078,0.960842,0.960842,0.440078,0.989349,0.384130,0.990600,0.368236,0.990600,-0.368236,0.971196,-0.427955,0.960842,-0.440078,0.440078,-0.960842,0.384130,-0.989349,0.368236,-0.990600,-0.368236,-0.990600,-0.427955,-0.971196,-0.440078,-0.960842,-0.960842,-0.440078,-0.989349,-0.384130,-0.990600,-0.368236,-0.990600,0.368236,-0.971196,0.427955,-0.960842,0.440078,
-0.440078,0.960842,-0.384130,0.989349,-0.368236,0.990600,0.368236,0.990600,0.427955,0.971196,0.427955,0.971196,$1*%
G04 Aperture macros list end*
%ADD10C,1.778000*%
%ADD11C,3.301600*%
%ADD12C,2.133600*%
%ADD13C,3.403200*%
%ADD14C,2.032000*%
%ADD15C,2.200000*%
%ADD16FreePoly0,270.000000*%
%ADD17C,1.700000*%
%ADD18R,1.700000X1.700000*%
%ADD19C,3.200000*%
G04 APERTURE END LIST*
D10*
%TO.C,J1*%
X62175000Y-144090000D03*
X64715000Y-144090000D03*
X67255000Y-144090000D03*
X69795000Y-144090000D03*
X72335000Y-144090000D03*
X74875000Y-144090000D03*
X77415000Y-144090000D03*
X79955000Y-144090000D03*
X82495000Y-144090000D03*
X85035000Y-144090000D03*
X87575000Y-144090000D03*
X90115000Y-144090000D03*
X92655000Y-144090000D03*
X95195000Y-144090000D03*
X97735000Y-144090000D03*
X62175000Y-121230000D03*
X64715000Y-121230000D03*
X67255000Y-121230000D03*
X69795000Y-121230000D03*
X72335000Y-121230000D03*
X74875000Y-121230000D03*
X77415000Y-121230000D03*
X79955000Y-121230000D03*
X82495000Y-121230000D03*
X85035000Y-121230000D03*
X87575000Y-121230000D03*
X90115000Y-121230000D03*
X92655000Y-121230000D03*
X95195000Y-121230000D03*
X97735000Y-121230000D03*
D11*
X59000000Y-122500000D03*
X59000000Y-142820000D03*
%TD*%
D12*
%TO.C,Motor-In1*%
X93964000Y-94570000D03*
X93964000Y-97110000D03*
X93964000Y-99650000D03*
X93964000Y-102190000D03*
X93964000Y-104730000D03*
X93964000Y-107270000D03*
X93964000Y-109810000D03*
X93964000Y-112350000D03*
X93964000Y-114890000D03*
X93964000Y-117430000D03*
D13*
X107934000Y-95205000D03*
X107934000Y-116795000D03*
%TD*%
D11*
%TO.C,USBC1*%
X55010000Y-172110000D03*
X39770000Y-172110000D03*
D14*
X38500000Y-181000000D03*
X41040000Y-181000000D03*
X43580000Y-181000000D03*
X46120000Y-181000000D03*
X48660000Y-181000000D03*
X51200000Y-181000000D03*
X53740000Y-181000000D03*
X56280000Y-181000000D03*
%TD*%
D10*
%TO.C,Powerboost1*%
X42287000Y-167660000D03*
X44827000Y-167660000D03*
X47367000Y-167660000D03*
X49907000Y-167660000D03*
X52447000Y-167660000D03*
X54987000Y-167660000D03*
X57527000Y-167660000D03*
X60067000Y-167660000D03*
D11*
X32000000Y-148610000D03*
X32000000Y-166390000D03*
%TD*%
D15*
%TO.C,SD1*%
X68500000Y-180820000D03*
X88820000Y-180820000D03*
X68500000Y-160500000D03*
X88820000Y-160500000D03*
D16*
X87677000Y-152880000D03*
X85137000Y-152880000D03*
X82597000Y-152880000D03*
X80057000Y-152880000D03*
X77517000Y-152880000D03*
X74977000Y-152880000D03*
X72437000Y-152880000D03*
X69897000Y-152880000D03*
%TD*%
D17*
%TO.C,J3*%
X114080000Y-125950000D03*
X111540000Y-125950000D03*
D18*
X109000000Y-125950000D03*
X106460000Y-125950000D03*
D17*
X111540000Y-164050000D03*
X109000000Y-164050000D03*
D18*
X106460000Y-164050000D03*
X103920000Y-164050000D03*
%TD*%
D19*
%TO.C,REF\u002A\u002A*%
X130131439Y-173471958D03*
%TD*%
%TO.C,REF\u002A\u002A*%
X86776145Y-29565227D03*
%TD*%
%TO.C,REF\u002A\u002A*%
X148760133Y-90947770D03*
%TD*%
%TO.C,REF\u002A\u002A*%
X148757916Y-137944732D03*
%TD*%
%TO.C,REF\u002A\u002A*%
X33500000Y-173500000D03*
%TD*%
%TO.C,REF\u002A\u002A*%
X35278929Y-29557858D03*
%TD*%
M02*
